<svg width="60" height="61" viewBox="0 0 60 61" fill="none" xmlns="http://www.w3.org/2000/svg">
<g id="icon-deposit">
<rect y="0.870483" width="60" height="60" rx="21" fill="#EAF4FF"/>
<g id="Group 39362" filter="url(#filter0_d_6637_364)">
<g id="Black">
<path id="Vector" d="M29.5651 15.036C29.057 15.136 28.4889 15.6121 28.2009 16.1842L28.0369 16.5123V19.7488V22.9854L26.6086 23.0014L25.1764 23.0134L24.9083 23.1414C24.5802 23.2975 24.3282 23.5215 24.1722 23.8016C24.0642 24.0016 24.0562 24.0416 24.0562 24.4737C24.0562 25.0218 24.0522 25.0138 24.5482 25.6219C25.2604 26.486 28.0689 29.5946 28.777 30.2947C29.3731 30.8908 29.4931 30.9548 29.9812 30.9548C30.5333 30.9548 30.6413 30.8908 31.4375 30.0827C32.2536 29.2585 34.39 26.8901 35.4542 25.6339C35.9223 25.0858 35.9783 24.9618 35.9783 24.4737C35.9783 24.1656 35.9623 24.0576 35.8903 23.9016C35.7782 23.6575 35.3982 23.2615 35.1781 23.1535C34.9381 23.0374 34.398 22.9974 33.1298 22.9934H32.0376L32.0336 20.881C32.0336 18.4846 31.9856 16.7563 31.9175 16.4323C31.8455 16.1042 31.7415 15.9362 31.4255 15.6161C31.0694 15.2561 30.7533 15.092 30.3053 15.032C29.9492 14.988 29.8092 14.988 29.5651 15.036Z" fill="#0792FF"/>
<path id="Vector_2" d="M18.8752 29.1146C18.051 29.1786 17.1709 29.3746 16.3947 29.6627C15.0145 30.1788 14.0903 31.0549 14.0063 31.9271C13.9583 32.4712 14.1824 32.9553 14.7225 33.4553C15.4146 34.0995 16.6828 34.6516 17.975 34.8756C18.9512 35.0436 20.5275 35.0796 21.5357 34.9516C22.1358 34.8756 22.1398 34.8716 22.4158 34.4115C22.5478 34.1875 22.7359 33.8994 22.8359 33.7714C23.1119 33.4033 23.62 32.9312 24.0441 32.6472C24.4202 32.3952 25.1923 31.9871 25.6484 31.799C25.9204 31.687 25.9284 31.643 25.7564 31.319C25.1963 30.2708 23.692 29.4946 21.5957 29.1746C21.1036 29.0986 19.5113 29.0626 18.8752 29.1146Z" fill="#0792FF"/>
<path id="Vector_3" d="M28.857 33.1192C27.1287 33.2352 25.3644 33.9354 24.5682 34.8155C24.4482 34.9475 24.2842 35.1876 24.2042 35.3516C24.0642 35.6357 24.0562 35.6717 24.0562 36.0557C24.0562 36.4198 24.0682 36.4798 24.1802 36.7159C24.4602 37.3 24.9803 37.764 25.8165 38.1761C26.6766 38.5962 27.8048 38.8962 28.929 39.0003C29.5851 39.0603 31.0654 39.0243 31.6375 38.9363C32.6177 38.7842 33.4498 38.5442 34.1499 38.2161C35.6782 37.492 36.3343 36.3318 35.7902 35.3036C35.6182 34.9836 35.1541 34.5155 34.706 34.2194C33.4018 33.3513 31.2694 32.9512 28.857 33.1192Z" fill="#0792FF"/>
<path id="Vector_4" d="M38.9349 33.1152C38.3668 33.1552 36.9985 33.4233 36.9985 33.4953C36.9985 33.5073 37.0986 33.6553 37.2226 33.8234C37.6587 34.4315 37.8747 34.9716 37.9627 35.6677C38.0467 36.3438 37.9267 36.9799 37.5706 37.7641L37.4266 38.0801L37.5146 38.2682C37.6907 38.6402 37.8467 38.8363 38.0067 38.8763C38.5548 39.0283 40.3831 39.0843 41.2793 38.9763C43.5917 38.7042 45.344 37.8361 45.8641 36.6999C45.9601 36.4878 45.9681 36.4398 45.9561 36.0238C45.9401 35.6277 45.9281 35.5477 45.8241 35.3396C45.6681 35.0236 45.192 34.5275 44.7759 34.2514C43.4357 33.3593 41.3513 32.9552 38.9349 33.1152Z" fill="#0792FF"/>
<path id="Vector_5" d="M14.2824 35.1236C14.0744 35.3876 13.9544 35.9637 14.0264 36.3398C14.2584 37.504 15.7107 38.4322 18.0151 38.8803C18.9472 39.0643 20.9556 39.0723 21.8798 38.8963L22.2238 38.8283L22.3919 38.4802C22.4799 38.2922 22.5559 38.1041 22.5559 38.0721C22.5559 38.0361 22.4839 37.8561 22.3999 37.672C22.3118 37.488 22.2118 37.232 22.1758 37.1039C22.1078 36.8719 22.1078 36.8679 21.9838 36.8919C21.4317 36.9919 20.5475 37.0439 19.7354 37.0239C18.5832 36.9959 17.671 36.8559 16.7789 36.5679C15.8107 36.2558 15.2346 35.9437 14.6905 35.4237C14.4144 35.1636 14.3144 35.0876 14.2824 35.1236Z" fill="#0792FF"/>
<path id="Vector_6" d="M24.1924 39.3323C23.4482 40.9246 25.2046 42.4408 28.3571 42.9369C28.9972 43.041 30.5175 43.061 31.2136 42.9809C33.234 42.7489 34.9103 42.0368 35.5944 41.1286C35.8745 40.7566 35.9665 40.4965 35.9665 40.0964C35.9705 39.7284 35.9145 39.4883 35.7744 39.2483L35.6744 39.0763L35.4264 39.3283C34.7903 39.9764 33.7341 40.4965 32.4979 40.7766C31.6417 40.9686 31.1776 41.0126 30.0174 41.0126C28.8892 41.0126 28.4451 40.9726 27.605 40.7926C26.3248 40.5165 25.2006 39.9724 24.6005 39.3363C24.4884 39.2203 24.3764 39.1083 24.3564 39.0963C24.3324 39.0803 24.2604 39.1883 24.1924 39.3323Z" fill="#0792FF"/>
<path id="Vector_7" d="M45.48 39.2843C44.8719 39.9924 43.4677 40.6286 41.9354 40.8926C41.0433 41.0486 39.427 41.0726 38.4508 40.9526C38.2228 40.9246 38.0347 40.9086 38.0227 40.9206C38.0147 40.9286 37.9947 41.3727 37.9787 41.9048C37.9547 42.8209 37.9547 42.869 38.0267 42.893C38.2268 42.953 39.359 43.037 40.0071 43.037C43.3277 43.037 46.0041 41.7048 46.0001 40.0565C46.0001 39.7364 45.8881 39.3883 45.7201 39.1683L45.6561 39.0843L45.48 39.2843Z" fill="#0792FF"/>
<path id="Vector_8" d="M14.1584 39.3244C14.0263 39.6004 13.9783 40.0005 14.0303 40.3246C14.1024 40.7686 14.3224 41.1167 14.7825 41.5288C15.0705 41.7808 15.3746 41.9729 15.8947 42.2209C17.0989 42.797 18.2431 43.013 20.1154 43.013C21.0956 43.017 21.5637 42.977 21.9077 42.873L22.0358 42.829V41.8768C22.0358 41.3527 22.0238 40.9127 22.0078 40.9047C21.9878 40.8967 21.8037 40.9127 21.5957 40.9407C21.3876 40.9727 20.8195 41.0047 20.3355 41.0207C18.9632 41.0607 17.823 40.9087 16.6948 40.5366C15.8347 40.2565 15.2426 39.9285 14.6785 39.4204C14.5184 39.2764 14.3504 39.1564 14.3144 39.1564C14.2664 39.1564 14.2104 39.2204 14.1584 39.3244Z" fill="#0792FF"/>
<path id="Vector_9" d="M24.1802 43.3571C23.9602 43.8492 23.9642 44.3132 24.2002 44.7973C24.3802 45.1654 24.9363 45.7095 25.4164 45.9815C26.3566 46.5096 27.4688 46.8537 28.617 46.9617C29.2371 47.0217 31.0334 47.0217 31.4975 46.9617C32.6737 46.8057 33.7819 46.4536 34.606 45.9695C35.0701 45.6975 35.6342 45.1454 35.7982 44.7933C35.9583 44.4453 36.0103 44.1332 35.9543 43.7971C35.9143 43.5371 35.7502 43.117 35.6902 43.117C35.6742 43.117 35.5382 43.229 35.3942 43.3691C34.202 44.5013 32.0616 45.1134 29.5971 45.0214C27.3808 44.9373 25.6965 44.3852 24.6723 43.4091C24.5042 43.249 24.3482 43.117 24.3282 43.117C24.3042 43.117 24.2402 43.225 24.1802 43.3571Z" fill="#0792FF"/>
</g>
</g>
</g>
<defs>
<filter id="filter0_d_6637_364" x="6" y="10.9995" width="48" height="48.0072" filterUnits="userSpaceOnUse" color-interpolation-filters="sRGB">
<feFlood flood-opacity="0" result="BackgroundImageFix"/>
<feColorMatrix in="SourceAlpha" type="matrix" values="0 0 0 0 0 0 0 0 0 0 0 0 0 0 0 0 0 0 127 0" result="hardAlpha"/>
<feOffset dy="4"/>
<feGaussianBlur stdDeviation="4"/>
<feComposite in2="hardAlpha" operator="out"/>
<feColorMatrix type="matrix" values="0 0 0 0 0.027451 0 0 0 0 0.572549 0 0 0 0 1 0 0 0 0.25 0"/>
<feBlend mode="normal" in2="BackgroundImageFix" result="effect1_dropShadow_6637_364"/>
<feBlend mode="normal" in="SourceGraphic" in2="effect1_dropShadow_6637_364" result="shape"/>
</filter>
</defs>
</svg>
