<svg width="60" height="59" viewBox="0 0 60 59" fill="none" xmlns="http://www.w3.org/2000/svg">
<g id="icon-apply">
<rect y="0.870483" width="60" height="58" rx="21" fill="#EAF4FF"/>
<path id="Vector" d="M29.2071 38.0744C28.8166 38.4649 28.1834 38.4649 27.7929 38.0744L21.8811 32.1626C21.4906 31.7721 21.4906 31.1389 21.8811 30.7484L23.1189 29.5106C23.5094 29.1201 24.1426 29.1201 24.5331 29.5106L28.5 33.4775L41.487 20.4905C40.0811 18.811 38.3237 17.4604 36.339 16.5341C34.3542 15.6078 32.1903 15.1284 30 15.1295C21.7155 15.1295 15 21.845 15 30.1295C15 38.414 21.7155 45.1295 30 45.1295C38.2845 45.1295 45 38.414 45 30.1295C44.9981 27.9154 44.5031 25.7295 43.551 23.7305L29.2071 38.0744Z" fill="#0792FF"/>
</g>
</svg>
