<svg width="60" height="60" viewBox="0 0 60 60" fill="none" xmlns="http://www.w3.org/2000/svg">
<rect width="60" height="60" rx="21" fill="#EAF4FF"/>
<path d="M21.7348 27.7762C21.8772 27.7508 22.0166 27.7283 22.1588 27.7058V23.0219C22.1604 21.0582 22.9345 19.1755 24.3111 17.7872C25.6876 16.3989 27.554 15.6186 29.5004 15.6177C31.446 15.6202 33.3112 16.4011 34.687 17.7891C36.0627 19.1772 36.8367 21.059 36.8392 23.0219V27.703C36.9786 27.7255 37.1208 27.748 37.2605 27.7733C37.2828 27.779 37.3106 27.7818 37.3413 27.7902C38.2724 27.9562 39.2344 28.1587 40.1992 28.3952C40.2271 28.4008 40.2522 28.4092 40.2801 28.4149V22.8785C40.2801 19.9933 39.1441 17.2263 37.122 15.1862C35.0999 13.1461 32.3573 12 29.4976 12C26.6379 12 23.8954 13.1461 21.8733 15.1862C19.8512 17.2263 18.7152 19.9933 18.7152 22.8785V28.4149C18.7431 28.4092 18.7709 28.4008 18.7988 28.3952C19.7776 28.1561 20.7647 27.9469 21.7348 27.7762Z" fill="#0792FF"/>
<path d="M41.7773 29.3911C40.2714 28.9634 38.7452 28.6124 37.2044 28.3392C37.1919 28.3338 37.1788 28.33 37.1654 28.328C32.0931 27.4329 26.9052 27.4339 21.8332 28.3308C20.2786 28.6072 18.7384 28.9611 17.2185 29.3911C16.8668 29.4936 16.5578 29.7088 16.3379 30.0041C16.1181 30.2995 15.9995 30.6589 16 31.0282V44.5125C16.0001 44.8816 16.1186 45.2408 16.3377 45.5364C16.5568 45.8319 16.8648 46.0481 17.2157 46.1525C21.1988 47.37 25.3371 47.9924 29.499 48C33.6607 47.9923 37.7988 47.3696 41.7815 46.1516C42.133 46.0479 42.4417 45.832 42.6614 45.5363C42.8811 45.2407 42.9999 44.8812 43 44.5117V31.0282C43.0004 30.6583 42.8812 30.2984 42.6605 30.003C42.4399 29.7076 42.1298 29.4927 41.7773 29.3911ZM31.3341 40.2127C31.3649 40.3098 31.3725 40.4127 31.3563 40.5132C31.3401 40.6138 31.3006 40.709 31.2411 40.7913C31.1815 40.8735 31.1036 40.9404 31.0136 40.9865C30.9236 41.0326 30.824 41.0565 30.7231 41.0565H28.2741C28.1732 41.0565 28.0737 41.0326 27.9836 40.9865C27.8936 40.9404 27.8157 40.8735 27.7561 40.7913C27.6966 40.709 27.6571 40.6138 27.6409 40.5132C27.6248 40.4127 27.6323 40.3098 27.6631 40.2127L28.0868 38.867C27.6931 38.5682 27.4025 38.1521 27.2561 37.6775C27.1097 37.2029 27.1149 36.6939 27.271 36.2225C27.4272 35.751 27.7263 35.3411 28.126 35.0506C28.5258 34.7601 29.006 34.6038 29.4986 34.6038C29.9913 34.6038 30.4714 34.7601 30.8712 35.0506C31.271 35.3411 31.5701 35.751 31.7262 36.2225C31.8823 36.6939 31.8875 37.2029 31.7411 37.6775C31.5947 38.1521 31.3041 38.5682 30.9104 38.867L31.3341 40.2127Z" fill="#0792FF"/>
</svg>
