<svg width="60" height="60" viewBox="0 0 60 60" fill="none" xmlns="http://www.w3.org/2000/svg">
<rect width="60" height="60" rx="21" fill="#EAF4FF"/>
<g filter="url(#filter0_d_2913_42)">
<path d="M23.6386 30C23.6386 28.5068 23.7196 27.0451 23.8754 25.6496H16.6863C16.2349 27.0359 16 28.4999 16 30C16 31.1472 16.1376 32.2731 16.404 33.3594H23.7781C23.6859 32.2685 23.6386 31.1435 23.6386 30Z" fill="#0792FF"/>
<path d="M23.9541 34.9995H16.9156C17.6091 36.8165 18.6842 38.4832 20.1006 39.8996C21.969 41.7681 24.2729 43.0424 26.7831 43.6298C26.2379 42.874 25.7429 41.915 25.3135 40.7665C24.6934 39.1081 24.2336 37.141 23.9541 34.9995Z" fill="#0792FF"/>
<path d="M35.9017 24.0095H42.6617C41.9824 22.5763 41.0543 21.2552 39.8994 20.1004C38.031 18.232 35.7271 16.9577 33.217 16.3702C33.7622 17.126 34.2572 18.085 34.6866 19.2335C35.2098 20.6327 35.6187 22.2517 35.9017 24.0095Z" fill="#0792FF"/>
<path d="M24.0984 24.0095C24.3814 22.2517 24.7903 20.6327 25.3135 19.2335C25.7429 18.085 26.2379 17.126 26.7831 16.3702C24.2729 16.9577 21.9691 18.232 20.1007 20.1004C18.9458 21.2552 18.0177 22.5763 17.3384 24.0095H24.0984Z" fill="#0792FF"/>
<path d="M36.0459 34.9995C35.7664 37.141 35.3067 39.1081 34.6866 40.7665C34.2572 41.915 33.7621 42.874 33.217 43.6298C35.7272 43.0424 38.031 41.7681 39.8994 39.8996C41.3158 38.4832 42.3909 36.8165 43.0844 34.9995H36.0459Z" fill="#0792FF"/>
<path d="M43.3137 25.6496H36.1246C36.2805 27.0451 36.3614 28.5068 36.3614 30C36.3614 31.1434 36.3141 32.2685 36.2219 33.3594H43.596C43.8624 32.2731 44 31.1472 44 30C44 28.4999 43.7651 27.0359 43.3137 25.6496Z" fill="#0792FF"/>
<path d="M34.3918 34.9995H25.6083C25.873 36.932 26.2924 38.7003 26.8503 40.1923C27.7417 42.5766 28.9192 44 30.0001 44C31.0809 44 32.2584 42.5765 33.1498 40.1923C33.7076 38.7003 34.1271 36.932 34.3918 34.9995Z" fill="#0792FF"/>
<path d="M25.7601 24.0095H34.24C33.9772 22.4625 33.6108 21.0407 33.1498 19.8077C32.2583 17.4235 31.0808 16 30 16C28.9192 16 27.7417 17.4235 26.8502 19.8077C26.3893 21.0407 26.0229 22.4625 25.7601 24.0095Z" fill="#0792FF"/>
<path d="M34.4741 25.6496H25.5259C25.3637 27.0372 25.2792 28.5001 25.2792 30C25.2792 31.1472 25.3288 32.2726 25.4245 33.3594H34.5755C34.6712 32.2726 34.7208 31.1472 34.7208 30C34.7208 28.5001 34.6364 27.0372 34.4741 25.6496Z" fill="#0792FF"/>
</g>
<defs>
<filter id="filter0_d_2913_42" x="8" y="12" width="44" height="44" filterUnits="userSpaceOnUse" color-interpolation-filters="sRGB">
<feFlood flood-opacity="0" result="BackgroundImageFix"/>
<feColorMatrix in="SourceAlpha" type="matrix" values="0 0 0 0 0 0 0 0 0 0 0 0 0 0 0 0 0 0 127 0" result="hardAlpha"/>
<feOffset dy="4"/>
<feGaussianBlur stdDeviation="4"/>
<feComposite in2="hardAlpha" operator="out"/>
<feColorMatrix type="matrix" values="0 0 0 0 0.027451 0 0 0 0 0.572549 0 0 0 0 1 0 0 0 0.25 0"/>
<feBlend mode="normal" in2="BackgroundImageFix" result="effect1_dropShadow_2913_42"/>
<feBlend mode="normal" in="SourceGraphic" in2="effect1_dropShadow_2913_42" result="shape"/>
</filter>
</defs>
</svg>
