<svg width="67" height="13" viewBox="0 0 67 13" fill="none" xmlns="http://www.w3.org/2000/svg">
<rect width="67" height="13" rx="4" fill="#0792FF"/>
<path d="M10.2482 5.663H9.05291C9.01882 5.46697 8.95597 5.29332 8.86435 5.14205C8.77273 4.98864 8.65874 4.85866 8.52237 4.75213C8.38601 4.6456 8.23047 4.5657 8.05575 4.51243C7.88317 4.45703 7.69673 4.42933 7.49645 4.42933C7.14063 4.42933 6.82528 4.51882 6.55043 4.6978C6.27557 4.87464 6.06037 5.13459 5.90483 5.47763C5.74929 5.81854 5.67152 6.23509 5.67152 6.72727C5.67152 7.22798 5.74929 7.64986 5.90483 7.9929C6.0625 8.33381 6.2777 8.59162 6.55043 8.76634C6.82528 8.93892 7.13956 9.02521 7.49325 9.02521C7.68928 9.02521 7.87251 8.99964 8.04297 8.94851C8.21555 8.89524 8.37003 8.81747 8.50639 8.7152C8.64489 8.61293 8.76101 8.48722 8.85476 8.33807C8.95064 8.18892 9.01669 8.01847 9.05291 7.8267L10.2482 7.8331C10.2035 8.14418 10.1065 8.43608 9.95739 8.70881C9.81037 8.98153 9.61754 9.2223 9.37891 9.43111C9.14027 9.63778 8.86115 9.79972 8.54155 9.9169C8.22195 10.032 7.86719 10.0895 7.47727 10.0895C6.90199 10.0895 6.38849 9.95632 5.93679 9.68999C5.48509 9.42365 5.12926 9.03906 4.86932 8.53622C4.60938 8.03338 4.4794 7.4304 4.4794 6.72727C4.4794 6.02202 4.61044 5.41903 4.87251 4.91832C5.13459 4.41548 5.49148 4.03089 5.94318 3.76456C6.39489 3.49822 6.90625 3.36506 7.47727 3.36506C7.84162 3.36506 8.1804 3.41619 8.49361 3.51847C8.80682 3.62074 9.08594 3.77095 9.33097 3.96911C9.57599 4.16513 9.77734 4.40589 9.93501 4.69141C10.0948 4.97479 10.1992 5.29865 10.2482 5.663ZM13.4243 10.0959C12.9449 10.0959 12.5294 9.99041 12.1778 9.77947C11.8263 9.56854 11.5535 9.27344 11.3596 8.89418C11.1679 8.51491 11.072 8.07173 11.072 7.56463C11.072 7.05753 11.1679 6.61328 11.3596 6.23189C11.5535 5.8505 11.8263 5.55433 12.1778 5.34339C12.5294 5.13246 12.9449 5.02699 13.4243 5.02699C13.9037 5.02699 14.3192 5.13246 14.6707 5.34339C15.0223 5.55433 15.2939 5.8505 15.4857 6.23189C15.6796 6.61328 15.7765 7.05753 15.7765 7.56463C15.7765 8.07173 15.6796 8.51491 15.4857 8.89418C15.2939 9.27344 15.0223 9.56854 14.6707 9.77947C14.3192 9.99041 13.9037 10.0959 13.4243 10.0959ZM13.4307 9.16903C13.6906 9.16903 13.9079 9.09766 14.0827 8.9549C14.2574 8.81001 14.3873 8.61612 14.4726 8.37322C14.5599 8.13033 14.6036 7.85973 14.6036 7.56143C14.6036 7.26101 14.5599 6.98935 14.4726 6.74645C14.3873 6.50142 14.2574 6.30646 14.0827 6.16158C13.9079 6.01669 13.6906 5.94425 13.4307 5.94425C13.1643 5.94425 12.9427 6.01669 12.7659 6.16158C12.5912 6.30646 12.4601 6.50142 12.3728 6.74645C12.2876 6.98935 12.2449 7.26101 12.2449 7.56143C12.2449 7.85973 12.2876 8.13033 12.3728 8.37322C12.4601 8.61612 12.5912 8.81001 12.7659 8.9549C12.9427 9.09766 13.1643 9.16903 13.4307 9.16903ZM16.7585 10V5.09091L17.8643 5.09091V5.92507H17.9219C18.0241 5.64382 18.1935 5.42436 18.43 5.26669C18.6665 5.10689 18.9489 5.02699 19.277 5.02699C19.6094 5.02699 19.8896 5.10795 20.1175 5.26989C20.3477 5.42969 20.5096 5.64808 20.6033 5.92507H20.6545C20.7631 5.65234 20.9464 5.43501 21.2042 5.27308C21.4641 5.10902 21.772 5.02699 22.1278 5.02699C22.5795 5.02699 22.9482 5.16974 23.2337 5.45526C23.5192 5.74077 23.6619 6.15732 23.6619 6.7049V10H22.5018V6.88388C22.5018 6.57919 22.4208 6.35653 22.2589 6.21591C22.0969 6.07315 21.8988 6.00178 21.6644 6.00178C21.3853 6.00178 21.1669 6.08913 21.0092 6.26385C20.8537 6.43643 20.7759 6.66122 20.7759 6.93821V10L19.6413 10V6.83594C19.6413 6.58239 19.5646 6.37997 19.4112 6.22869C19.2599 6.07741 19.0618 6.00178 18.8168 6.00178C18.6506 6.00178 18.4993 6.04439 18.3629 6.12962C18.2266 6.21271 18.1179 6.33097 18.0369 6.48438C17.956 6.63565 17.9155 6.8125 17.9155 7.01491V10H16.7585ZM24.8357 10V5.09091H25.9926V10H24.8357ZM25.4173 4.39418C25.2341 4.39418 25.0764 4.33345 24.9443 4.212C24.8122 4.08842 24.7462 3.94034 24.7462 3.76776C24.7462 3.59304 24.8122 3.44496 24.9443 3.32351C25.0764 3.19993 25.2341 3.13814 25.4173 3.13814C25.6027 3.13814 25.7604 3.19993 25.8904 3.32351C26.0225 3.44496 26.0885 3.59304 26.0885 3.76776C26.0885 3.94034 26.0225 4.08842 25.8904 4.212C25.7604 4.33345 25.6027 4.39418 25.4173 4.39418ZM28.3393 7.12358V10H27.1824V5.09091H28.2882V5.92507H28.3457C28.4586 5.65021 28.6387 5.43182 28.8858 5.26989C29.1351 5.10795 29.443 5.02699 29.8095 5.02699C30.1483 5.02699 30.4434 5.09943 30.6948 5.24432C30.9483 5.3892 31.1444 5.59908 31.2828 5.87393C31.4235 6.14879 31.4927 6.48224 31.4906 6.87429V10H30.3336V7.05327C30.3336 6.72514 30.2484 6.46839 30.0779 6.28303C29.9096 6.09766 29.6763 6.00497 29.378 6.00497C29.1756 6.00497 28.9956 6.04972 28.8379 6.1392C28.6824 6.22656 28.5598 6.35334 28.4703 6.51953C28.383 6.68572 28.3393 6.88707 28.3393 7.12358ZM34.8017 11.9432C34.3862 11.9432 34.0293 11.8867 33.731 11.7738C33.4327 11.663 33.193 11.5138 33.0119 11.3263C32.8308 11.1388 32.7051 10.9311 32.6348 10.7031L33.6767 10.4506C33.7235 10.5465 33.7917 10.6413 33.8812 10.7351C33.9707 10.831 34.0911 10.9098 34.2424 10.9716C34.3958 11.0355 34.5886 11.0675 34.8208 11.0675C35.149 11.0675 35.4206 10.9876 35.6358 10.8278C35.851 10.6701 35.9586 10.4102 35.9586 10.0479V9.1179H35.9011C35.8414 9.23722 35.7541 9.35973 35.639 9.48544C35.5261 9.61115 35.3759 9.71662 35.1884 9.80185C35.003 9.88707 34.7697 9.92969 34.4885 9.92969C34.1113 9.92969 33.7694 9.84126 33.4625 9.66442C33.1578 9.48544 32.915 9.21911 32.7338 8.86541C32.5549 8.50959 32.4654 8.06428 32.4654 7.52947C32.4654 6.99041 32.5549 6.53551 32.7338 6.16477C32.915 5.7919 33.1589 5.50959 33.4657 5.31783C33.7725 5.12393 34.1145 5.02699 34.4917 5.02699C34.7793 5.02699 35.0158 5.07599 35.2012 5.17401C35.3887 5.26989 35.5378 5.38601 35.6486 5.52237C35.7594 5.6566 35.8436 5.78338 35.9011 5.9027H35.965V5.09091H37.106V10.0799C37.106 10.4996 37.0059 10.8469 36.8056 11.1218C36.6053 11.3967 36.3315 11.6023 35.9842 11.7386C35.6369 11.875 35.2427 11.9432 34.8017 11.9432ZM34.8113 9.02202C35.0563 9.02202 35.2651 8.96236 35.4377 8.84304C35.6103 8.72372 35.7413 8.5522 35.8308 8.32848C35.9203 8.10476 35.965 7.83629 35.965 7.52308C35.965 7.21413 35.9203 6.94354 35.8308 6.71129C35.7434 6.47905 35.6135 6.29901 35.4409 6.17116C35.2704 6.04119 35.0605 5.97621 34.8113 5.97621C34.5534 5.97621 34.3382 6.04332 34.1657 6.17756C33.9931 6.31179 33.8631 6.49609 33.7757 6.73047C33.6884 6.96271 33.6447 7.22692 33.6447 7.52308C33.6447 7.82351 33.6884 8.08665 33.7757 8.3125C33.8652 8.53622 33.9963 8.71094 34.1689 8.83665C34.3436 8.96023 34.5577 9.02202 34.8113 9.02202ZM44.1325 5.25391C44.1026 4.97479 43.9769 4.75746 43.7553 4.60192C43.5359 4.44638 43.2504 4.36861 42.8988 4.36861C42.6516 4.36861 42.4396 4.40589 42.2628 4.48047C42.0859 4.55504 41.9506 4.65625 41.8569 4.78409C41.7631 4.91193 41.7152 5.05788 41.7131 5.22195C41.7131 5.35831 41.744 5.47656 41.8058 5.5767C41.8697 5.67685 41.956 5.76207 42.0646 5.83239C42.1733 5.90057 42.2937 5.9581 42.4258 6.00497C42.5579 6.05185 42.6911 6.09126 42.8253 6.12322L43.4389 6.27663C43.6861 6.33416 43.9237 6.41193 44.1516 6.50994C44.3817 6.60795 44.5874 6.73153 44.7685 6.88068C44.9517 7.02983 45.0966 7.20987 45.2031 7.42081C45.3097 7.63175 45.3629 7.87891 45.3629 8.16229C45.3629 8.54581 45.2649 8.88352 45.0689 9.17543C44.8729 9.4652 44.5895 9.69212 44.2188 9.85618C43.8501 10.0181 43.4038 10.0991 42.8796 10.0991C42.3704 10.0991 41.9283 10.0202 41.5533 9.86257C41.1804 9.7049 40.8885 9.47479 40.6776 9.17223C40.4688 8.86967 40.3558 8.50107 40.3388 8.06641H41.5053C41.5224 8.29439 41.5927 8.48402 41.7163 8.6353C41.8398 8.78658 42.0007 8.8995 42.1989 8.97408C42.3991 9.04865 42.6229 9.08594 42.87 9.08594C43.1278 9.08594 43.3537 9.04759 43.5476 8.97088C43.7436 8.89205 43.897 8.78338 44.0078 8.64489C44.1186 8.50426 44.1751 8.3402 44.1772 8.1527C44.1751 7.98224 44.125 7.84162 44.027 7.73082C43.929 7.6179 43.7915 7.52415 43.6147 7.44957C43.44 7.37287 43.2354 7.30469 43.0011 7.24503L42.2564 7.05327C41.7173 6.91477 41.2912 6.7049 40.978 6.42365C40.6669 6.14027 40.5114 5.7642 40.5114 5.29545C40.5114 4.9098 40.6158 4.57209 40.8246 4.28232C41.0355 3.99254 41.3221 3.76776 41.6843 3.60795C42.0465 3.44602 42.4567 3.36506 42.9148 3.36506C43.3793 3.36506 43.7862 3.44602 44.1357 3.60795C44.4872 3.76776 44.7631 3.99041 44.9634 4.27592C45.1637 4.5593 45.267 4.8853 45.2734 5.25391H44.1325ZM48.5102 10.0959C48.0308 10.0959 47.6153 9.99041 47.2638 9.77947C46.9122 9.56854 46.6395 9.27344 46.4456 8.89418C46.2538 8.51491 46.1579 8.07173 46.1579 7.56463C46.1579 7.05753 46.2538 6.61328 46.4456 6.23189C46.6395 5.8505 46.9122 5.55433 47.2638 5.34339C47.6153 5.13246 48.0308 5.02699 48.5102 5.02699C48.9896 5.02699 49.4051 5.13246 49.7567 5.34339C50.1082 5.55433 50.3799 5.8505 50.5716 6.23189C50.7655 6.61328 50.8625 7.05753 50.8625 7.56463C50.8625 8.07173 50.7655 8.51491 50.5716 8.89418C50.3799 9.27344 50.1082 9.56854 49.7567 9.77947C49.4051 9.99041 48.9896 10.0959 48.5102 10.0959ZM48.5166 9.16903C48.7765 9.16903 48.9939 9.09766 49.1686 8.9549C49.3433 8.81001 49.4733 8.61612 49.5585 8.37322C49.6459 8.13033 49.6895 7.85973 49.6895 7.56143C49.6895 7.26101 49.6459 6.98935 49.5585 6.74645C49.4733 6.50142 49.3433 6.30646 49.1686 6.16158C48.9939 6.01669 48.7765 5.94425 48.5166 5.94425C48.2503 5.94425 48.0287 6.01669 47.8518 6.16158C47.6771 6.30646 47.5461 6.50142 47.4587 6.74645C47.3735 6.98935 47.3309 7.26101 47.3309 7.56143C47.3309 7.85973 47.3735 8.13033 47.4587 8.37322C47.5461 8.61612 47.6771 8.81001 47.8518 8.9549C48.0287 9.09766 48.2503 9.16903 48.5166 9.16903ZM53.9858 10.0959C53.5064 10.0959 53.0909 9.99041 52.7393 9.77947C52.3878 9.56854 52.1151 9.27344 51.9212 8.89418C51.7294 8.51491 51.6335 8.07173 51.6335 7.56463C51.6335 7.05753 51.7294 6.61328 51.9212 6.23189C52.1151 5.8505 52.3878 5.55433 52.7393 5.34339C53.0909 5.13246 53.5064 5.02699 53.9858 5.02699C54.4652 5.02699 54.8807 5.13246 55.2322 5.34339C55.5838 5.55433 55.8555 5.8505 56.0472 6.23189C56.2411 6.61328 56.3381 7.05753 56.3381 7.56463C56.3381 8.07173 56.2411 8.51491 56.0472 8.89418C55.8555 9.27344 55.5838 9.56854 55.2322 9.77947C54.8807 9.99041 54.4652 10.0959 53.9858 10.0959ZM53.9922 9.16903C54.2521 9.16903 54.4695 9.09766 54.6442 8.9549C54.8189 8.81001 54.9489 8.61612 55.0341 8.37322C55.1214 8.13033 55.1651 7.85973 55.1651 7.56143C55.1651 7.26101 55.1214 6.98935 55.0341 6.74645C54.9489 6.50142 54.8189 6.30646 54.6442 6.16158C54.4695 6.01669 54.2521 5.94425 53.9922 5.94425C53.7259 5.94425 53.5043 6.01669 53.3274 6.16158C53.1527 6.30646 53.0217 6.50142 52.9343 6.74645C52.8491 6.98935 52.8065 7.26101 52.8065 7.56143C52.8065 7.85973 52.8491 8.13033 52.9343 8.37322C53.0217 8.61612 53.1527 8.81001 53.3274 8.9549C53.5043 9.09766 53.7259 9.16903 53.9922 9.16903ZM58.477 7.12358V10H57.32V5.09091H58.4259V5.92507H58.4834C58.5963 5.65021 58.7764 5.43182 59.0235 5.26989C59.2728 5.10795 59.5807 5.02699 59.9472 5.02699C60.286 5.02699 60.5811 5.09943 60.8325 5.24432C61.086 5.3892 61.282 5.59908 61.4205 5.87393C61.5612 6.14879 61.6304 6.48224 61.6283 6.87429V10H60.4713V7.05327C60.4713 6.72514 60.3861 6.46839 60.2156 6.28303C60.0473 6.09766 59.814 6.00497 59.5157 6.00497C59.3133 6.00497 59.1333 6.04972 58.9756 6.1392C58.82 6.22656 58.6975 6.35334 58.608 6.51953C58.5207 6.68572 58.477 6.88707 58.477 7.12358Z" fill="white"/>
</svg>
