<svg width="18" height="19" viewBox="0 0 18 19" fill="none" xmlns="http://www.w3.org/2000/svg">
<path d="M9 2C4.85685 2 1.5 5.35685 1.5 9.5C1.5 13.6431 4.85685 17 9 17C13.1431 17 16.5 13.6431 16.5 9.5C16.5 5.35685 13.1431 2 9 2ZM9 15.5484C5.65827 15.5484 2.95161 12.8417 2.95161 9.5C2.95161 6.15827 5.65827 3.45161 9 3.45161C12.3417 3.45161 15.0484 6.15827 15.0484 9.5C15.0484 12.8417 12.3417 15.5484 9 15.5484Z" fill="#C8CDDC"/>
<path fill-rule="evenodd" clip-rule="evenodd" d="M9.85025 3.3249C9.16138 3.90227 8.57184 4.57054 8.10254 5.30801C7.28799 6.58802 6.86279 8.03359 6.86279 9.5001C6.86279 10.9666 7.28799 12.4122 8.10254 13.6922C8.57184 14.4297 9.16138 15.0979 9.85025 15.6753L8.88671 16.8249C8.08413 16.1522 7.39152 15.3688 6.83705 14.4975C5.87363 12.9836 5.36279 11.2598 5.36279 9.5001C5.36279 7.74043 5.87363 6.01664 6.83705 4.50269C7.39152 3.63139 8.08413 2.84798 8.88671 2.17529L9.85025 3.3249Z" fill="#C8CDDC"/>
<path fill-rule="evenodd" clip-rule="evenodd" d="M8.52475 3.3249C9.21362 3.90227 9.80316 4.57054 10.2725 5.30801C11.087 6.58802 11.5122 8.03359 11.5122 9.5001C11.5122 10.9666 11.087 12.4122 10.2725 13.6922C9.80316 14.4297 9.21362 15.0979 8.52475 15.6753L9.48829 16.8249C10.2909 16.1522 10.9835 15.3688 11.538 14.4975C12.5014 12.9836 13.0122 11.2598 13.0122 9.5001C13.0122 7.74043 12.5014 6.01664 11.538 4.50269C10.9835 3.63139 10.2909 2.84798 9.48829 2.17529L8.52475 3.3249Z" fill="#C8CDDC"/>
<path fill-rule="evenodd" clip-rule="evenodd" d="M15.375 8H2.625V6.5H15.375V8Z" fill="#C8CDDC"/>
<path fill-rule="evenodd" clip-rule="evenodd" d="M15.375 12.5H2.625V11H15.375V12.5Z" fill="#C8CDDC"/>
</svg>
