<svg width="60" height="59" viewBox="0 0 60 59" fill="none" xmlns="http://www.w3.org/2000/svg">
<g id="icon-deposit">
<g clip-path="url(#clip0_9041_126)">
<rect y="0.805664" width="60" height="58" rx="21" fill="#EAF4FF"/>
<g id="Group 39336" filter="url(#filter0_d_9041_126)">
<path id="Subtract" fill-rule="evenodd" clip-rule="evenodd" d="M46.9413 20.5585V21.6815C46.9413 21.7642 46.9084 21.8435 46.8499 21.902C46.7914 21.9605 46.7121 21.9934 46.6294 21.9934H15.3119C15.2292 21.9934 15.1499 21.9605 15.0914 21.902C15.0329 21.8435 15 21.7642 15 21.6815V20.5585C15 18.6291 16.5641 17.0649 18.4936 17.0649H43.4477C45.3772 17.0649 46.9413 18.6291 46.9413 20.5585ZM15 35.531V24.3016C15 24.2189 15.0329 24.1396 15.0914 24.0811C15.1499 24.0226 15.2292 23.9897 15.3119 23.9897H46.6294C46.7121 23.9897 46.7914 24.0226 46.8499 24.0811C46.9084 24.1396 46.9413 24.2189 46.9413 24.3016V28.993C44.9028 27.199 42.228 26.1109 39.2991 26.1109C32.9078 26.1109 27.7266 31.292 27.7266 37.6833C27.7266 38.137 27.7527 38.5845 27.8035 39.0246H18.4936C16.5641 39.0246 15 37.4605 15 35.531ZM21.9872 34.0338C22.5384 34.0338 22.9853 33.5868 22.9853 33.0356V32.0374C22.9853 31.4862 22.5384 31.0393 21.9872 31.0393H20.989C20.4378 31.0393 19.9908 31.4862 19.9908 32.0374V33.0356C19.9908 33.5868 20.4378 34.0338 20.989 34.0338H21.9872Z" fill="#0792FF"/>
<path id="Exclude" fill-rule="evenodd" clip-rule="evenodd" d="M39.2991 47.3843C44.6567 47.3843 49 43.041 49 37.6833C49 32.3257 44.6567 27.9824 39.2991 27.9824C33.9414 27.9824 29.5981 32.3257 29.5981 37.6833C29.5981 43.041 33.9414 47.3843 39.2991 47.3843ZM33.0313 37.3308L38.7184 31.6642C38.881 31.502 39.0985 31.4129 39.3304 31.4134C39.5615 31.4128 39.7789 31.502 39.9417 31.6641L45.6288 37.3307C45.7911 37.4924 45.8807 37.708 45.8807 37.9379C45.8807 38.168 45.7923 38.3835 45.6299 38.5452L45.1151 39.0597C44.9529 39.2214 44.7392 39.3104 44.5086 39.3104C44.2778 39.3104 44.0672 39.2214 43.9049 39.0597L40.5613 35.7165V43.1676C40.5613 43.6411 40.1517 44.0153 39.6763 44.0153H38.9462C38.4708 44.0153 38.0988 43.6411 38.0988 43.1676L38.0988 35.7541L34.7737 39.0599C34.6116 39.2215 34.3878 39.3105 34.1571 39.3105C33.9263 39.3105 33.7098 39.2215 33.5477 39.0599L33.0313 38.5454C32.869 38.3836 32.7798 38.1682 32.7798 37.938C32.7798 37.7081 32.8689 37.4926 33.0313 37.3308Z" fill="#0792FF"/>
</g>
</g>
</g>
<defs>
<filter id="filter0_d_9041_126" x="4.33333" y="11.7316" width="55.3333" height="51.6527" filterUnits="userSpaceOnUse" color-interpolation-filters="sRGB">
<feFlood flood-opacity="0" result="BackgroundImageFix"/>
<feColorMatrix in="SourceAlpha" type="matrix" values="0 0 0 0 0 0 0 0 0 0 0 0 0 0 0 0 0 0 127 0" result="hardAlpha"/>
<feOffset dy="5.33333"/>
<feGaussianBlur stdDeviation="5.33333"/>
<feComposite in2="hardAlpha" operator="out"/>
<feColorMatrix type="matrix" values="0 0 0 0 0.027451 0 0 0 0 0.572549 0 0 0 0 1 0 0 0 0.25 0"/>
<feBlend mode="normal" in2="BackgroundImageFix" result="effect1_dropShadow_9041_126"/>
<feBlend mode="normal" in="SourceGraphic" in2="effect1_dropShadow_9041_126" result="shape"/>
</filter>
<clipPath id="clip0_9041_126">
<rect y="0.805664" width="60" height="58" rx="21" fill="white"/>
</clipPath>
</defs>
</svg>
