<svg width="60" height="61" viewBox="0 0 60 61" fill="none" xmlns="http://www.w3.org/2000/svg">
<g id="icon-apply">
<rect y="0.740723" width="60" height="60" rx="21" fill="#EAF4FF"/>
<path id="Vector" d="M29.2071 38.88C28.8166 39.2705 28.1834 39.2705 27.7929 38.8799L21.8811 32.9682C21.4906 32.5776 21.4906 31.9445 21.8811 31.554L23.1189 30.3162C23.5094 29.9256 24.1426 29.9256 24.5331 30.3162L28.5 34.2831L41.487 21.2961C40.0811 19.6165 38.3237 18.266 36.339 17.3397C34.3542 16.4134 32.1903 15.9339 30 15.9351C21.7155 15.9351 15 22.6506 15 30.9351C15 39.2196 21.7155 45.9351 30 45.9351C38.2845 45.9351 45 39.2196 45 30.9351C44.9981 28.7209 44.5031 26.535 43.551 24.5361L29.2071 38.88Z" fill="#0792FF"/>
</g>
</svg>
