<svg width="24" height="24" viewBox="0 0 24 24" fill="none" xmlns="http://www.w3.org/2000/svg">
<path d="M20.421 15.168C19.203 15.171 17.991 14.978 16.834 14.598C16.5685 14.5052 16.2826 14.4869 16.0074 14.5451C15.7322 14.6033 15.4782 14.7357 15.273 14.928L13 16.642C10.5611 15.4173 8.58215 13.4387 7.357 11L9.025 8.783C9.2314 8.57621 9.37695 8.31664 9.44574 8.03268C9.51452 7.74872 9.50389 7.45132 9.415 7.173C9.0335 6.01358 8.84005 4.80057 8.842 3.58C8.842 2.707 8.135 2 7.263 2H3.58C2.707 2 2 2.707 2 3.579C2.012 13.748 10.252 21.989 20.421 22C21.293 22 22 21.293 22 20.421V16.747C22 15.875 21.293 15.168 20.421 15.168Z" fill="#0792FF"/>
</svg>
