<svg width="24" height="24" viewBox="0 0 24 24" fill="none" xmlns="http://www.w3.org/2000/svg">
<path d="M13.8386 14.4072C13.2913 14.7616 12.6555 14.9489 12 14.9489C11.3446 14.9489 10.7088 14.7616 10.1615 14.4072L1.14648 8.5711C1.09672 8.53878 1.04787 8.50516 1 8.47025V18.0334C1 19.1298 1.91631 20 3.02525 20H20.9747C22.1038 20 23 19.1102 23 18.0334V8.4702C22.952 8.50521 22.9031 8.53891 22.8532 8.57126L13.8386 14.4072Z" fill="#0792FF"/>
<path d="M1.86152 7.52957L10.8765 13.3658C11.2178 13.5867 11.6089 13.6971 12 13.6971C12.3911 13.6971 12.7822 13.5866 13.1235 13.3658L22.1385 7.52957C22.678 7.18054 23 6.5964 23 5.96594C23 4.88189 22.0918 4 20.9754 4H3.02456C1.90823 4.00004 1 4.88193 1 5.96698C0.999666 6.27625 1.07816 6.58078 1.22849 6.85343C1.37881 7.12608 1.59629 7.35837 1.86152 7.52957Z" fill="#0792FF"/>
</svg>
