<svg width="24" height="24" viewBox="0 0 24 24" fill="none" xmlns="http://www.w3.org/2000/svg">
<path fill-rule="evenodd" clip-rule="evenodd" d="M11.9066 2H11.9116C17.3752 2 21.8182 6.44548 21.8182 11.9091C21.8182 17.3728 17.3752 21.8182 11.9116 21.8182C10.7869 21.8182 9.70774 21.6315 8.70122 21.2861C7.17149 20.761 5.57862 20.2868 3.97287 20.4799L3.15303 20.5785C2.7634 20.6254 2.52881 20.159 2.7987 19.8741C3.77146 18.8473 3.84274 17.2862 3.1893 16.0318C2.51268 14.7329 2 13.2759 2 11.9091C2 6.44424 6.443 2 11.9066 2ZM12.2002 10.2972C11.9996 10.3363 11.8773 10.4782 11.7599 10.6298C11.1485 10.0967 10.4735 10.0624 9.80826 10.4586C9.00607 10.9281 8.70769 11.691 8.81041 12.586C8.90824 13.4125 9.26531 14.0923 10.136 14.376C10.6789 14.552 11.1827 14.4885 11.6279 14.1265C11.7453 14.0336 11.7795 14.0532 11.8627 14.1559C12.0241 14.3662 12.3029 14.4395 12.5475 14.3466C12.7871 14.2733 12.9534 14.0483 12.9534 13.794C12.9632 12.8159 12.9681 11.8377 12.9534 10.8596C12.9485 10.4684 12.5866 10.2189 12.2002 10.2972ZM10.2338 13.0066C10.1066 12.8354 10.0382 12.63 10.0284 12.4148C10.0235 11.7253 10.4001 11.3096 10.9382 11.3438C11.1681 11.3487 11.3833 11.4612 11.5203 11.6519C11.7942 12.0236 11.7942 12.6349 11.5203 13.0066C11.4713 13.0702 11.4175 13.124 11.3588 13.168C11.0018 13.4321 10.4979 13.3587 10.2338 13.0066ZM17.1111 10.2141C15.9372 10.2483 15.1106 11.1873 15.1497 12.4442C15.1301 13.6668 16.1426 14.5912 17.4193 14.464C18.5884 14.3466 19.3465 13.4712 19.3074 12.2339C19.2683 11.0112 18.3585 10.1749 17.1111 10.2141ZM16.5878 13.0115C16.441 12.811 16.3677 12.5713 16.3774 12.3268C16.3774 11.7155 16.7492 11.3144 17.2775 11.3438C17.5073 11.3487 17.7226 11.4661 17.8595 11.6519C18.1383 12.0236 18.1383 12.6496 17.8546 13.0213C17.8106 13.0702 17.7666 13.1191 17.7128 13.1582C17.3606 13.4321 16.8568 13.3636 16.5878 13.0115ZM14.7203 12.229C14.7198 11.9763 14.7192 11.7236 14.7192 11.4709C14.7192 11.2168 14.7198 10.9621 14.7203 10.7073V10.7072V10.707C14.7214 10.1969 14.7225 9.68597 14.7192 9.17725C14.7192 8.786 14.4698 8.54147 14.098 8.54636C13.7361 8.54636 13.4964 8.79089 13.4915 9.16747C13.4882 9.3205 13.4893 9.47136 13.4904 9.62294V9.62298V9.62302L13.4904 9.62327C13.491 9.69926 13.4915 9.77544 13.4915 9.85215V13.7402C13.4915 14.0483 13.6774 14.3075 13.9219 14.3711C13.9806 14.3857 14.0442 14.3906 14.1029 14.3906C14.4502 14.3809 14.7241 14.0923 14.7192 13.7451C14.7225 13.2397 14.7214 12.7344 14.7203 12.229ZM6.82153 13.2011C6.58034 13.2017 6.33563 13.2022 6.08589 13.2022C6.16415 13.0946 6.21307 13.0311 6.26687 12.9675C6.90765 12.1605 7.54842 11.3487 8.1892 10.5319L8.18921 10.5319C8.37508 10.2923 8.56095 10.0527 8.67834 9.77391C8.81041 9.45113 8.66856 9.14302 8.33594 9.03053C8.18431 8.99141 8.03267 8.97185 7.87615 8.97674C7.00548 8.97185 6.12991 8.97185 5.25924 8.97674C5.13695 8.97674 5.01467 8.99141 4.89728 9.02075C4.7114 9.06477 4.56466 9.21638 4.52064 9.40222C4.45705 9.67609 4.62825 9.95486 4.90706 10.0184C5.02445 10.0429 5.14674 10.0576 5.26902 10.0576C5.53316 10.06 5.79852 10.06 6.06388 10.06C6.32924 10.06 6.5946 10.06 6.85873 10.0625C6.87419 10.0637 6.89033 10.062 6.90661 10.0602C6.95214 10.0552 6.99879 10.0501 7.03482 10.1114C6.9908 10.1652 6.94678 10.2238 6.90276 10.2825C6.14459 11.2411 5.38642 12.2045 4.63314 13.1631C4.44726 13.4027 4.34944 13.6668 4.4864 13.9603C4.62336 14.2537 4.90217 14.3124 5.18587 14.3271C5.34991 14.3375 5.51146 14.3356 5.67408 14.3336L5.67426 14.3336C5.73948 14.3328 5.80487 14.332 5.87067 14.332C6.06891 14.332 6.26685 14.3323 6.46464 14.3326H6.46469H6.46473C7.05749 14.3335 7.64887 14.3344 8.243 14.3271C8.66367 14.3222 8.88867 14.063 8.84465 13.6766C8.80552 13.3685 8.59519 13.2071 8.20877 13.2022C7.75228 13.199 7.29365 13.2 6.82153 13.2011Z" fill="#0792FF"/>
</svg>
