<svg width="24" height="24" viewBox="0 0 24 24" fill="none" xmlns="http://www.w3.org/2000/svg">
<path d="M22.9511 10.1059L22.9514 10.1059L22.9448 10.0506C22.9448 10.0489 22.9446 10.0473 22.9443 10.0457L22.9199 9.83779L22.9031 9.69422L22.898 9.65102L22.8875 9.65233C22.6314 8.15622 21.9277 6.73641 20.8379 5.52409C19.7531 4.31758 18.3438 3.36498 16.7624 2.76926C15.4074 2.25884 13.9696 2 12.4893 2C10.4908 2 8.54982 2.4827 6.87635 3.39589C3.64931 5.15673 1.74611 8.39332 2.0274 11.6415C2.17301 13.3224 2.81421 14.9224 3.88174 16.2686C4.88653 17.5358 6.24577 18.5584 7.81245 19.2258C8.77573 19.6361 9.72819 19.8295 10.7367 20.0343L10.8547 20.0583C11.1324 20.1147 11.207 20.1922 11.2263 20.2229C11.2619 20.2799 11.2433 20.3923 11.229 20.4542C11.2158 20.5113 11.2022 20.5682 11.1886 20.6253C11.0803 21.0787 10.9684 21.5477 11.0563 22.0647C11.1575 22.659 11.5189 22.9999 12.0479 23H12.048C12.6171 23 13.2647 22.608 13.6932 22.3486L13.7505 22.3141C14.7728 21.6975 15.736 21.002 16.4608 20.465C18.0469 19.2897 19.8448 17.9576 21.1926 16.2343C22.5499 14.4986 23.1892 12.2683 22.9511 10.1059ZM8.53969 13.3943H6.72798C6.59651 13.3943 6.47041 13.3407 6.37745 13.2452C6.28448 13.1497 6.23225 13.0202 6.23225 12.8852V8.97995C6.23225 8.84493 6.28448 8.71544 6.37745 8.61996C6.47041 8.52449 6.59651 8.47085 6.72798 8.47085C6.85946 8.47085 6.98555 8.52449 7.07852 8.61996C7.17149 8.71544 7.22372 8.84493 7.22372 8.97995V12.3761H8.53962C8.60472 12.3761 8.66919 12.3893 8.72934 12.4148C8.78948 12.4404 8.84413 12.4779 8.89017 12.5252C8.93621 12.5725 8.97273 12.6286 8.99765 12.6904C9.02256 12.7521 9.03539 12.8183 9.03539 12.8852C9.0354 12.952 9.02258 13.0182 8.99767 13.08C8.97276 13.1418 8.93625 13.1979 8.89022 13.2452C8.84419 13.2925 8.78954 13.33 8.7294 13.3555C8.66926 13.3811 8.60479 13.3943 8.53969 13.3943ZM10.4297 12.8714C10.4297 13.0064 10.3774 13.1359 10.2845 13.2314C10.1915 13.3269 10.0654 13.3805 9.93392 13.3805C9.80244 13.3805 9.67635 13.3269 9.58338 13.2314C9.49041 13.1359 9.43818 13.0064 9.43818 12.8714V8.96613C9.43818 8.83111 9.49041 8.70162 9.58338 8.60614C9.67635 8.51067 9.80244 8.45703 9.93392 8.45703C10.0654 8.45703 10.1915 8.51067 10.2845 8.60614C10.3774 8.70162 10.4297 8.83111 10.4297 8.96613V12.8714ZM14.9107 12.8714C14.9107 12.9789 14.8776 13.0837 14.816 13.1707C14.7545 13.2577 14.6677 13.3225 14.5681 13.3557C14.4685 13.3889 14.3612 13.3889 14.2616 13.3556C14.162 13.3223 14.0753 13.2576 14.0138 13.1705L12.2286 10.6456V12.8715C12.2286 13.0065 12.1764 13.136 12.0834 13.2315C11.9905 13.3269 11.8644 13.3806 11.7329 13.3806C11.6014 13.3806 11.4753 13.3269 11.3823 13.2315C11.2894 13.136 11.2371 13.0065 11.2371 12.8715V9.07792C11.2371 8.97038 11.2703 8.8656 11.3318 8.7786C11.3934 8.6916 11.4802 8.62684 11.5798 8.59363C11.6794 8.56041 11.7866 8.56044 11.8862 8.5937C11.9858 8.62696 12.0726 8.69175 12.1341 8.77878L13.9192 11.3037V8.96613C13.9192 8.83111 13.9715 8.70162 14.0644 8.60614C14.1574 8.51067 14.2835 8.45703 14.415 8.45703C14.5464 8.45703 14.6725 8.51067 14.7655 8.60614C14.8585 8.70162 14.9107 8.83111 14.9107 8.96613V12.8714ZM18.523 13.3003H16.0695C15.938 13.3003 15.8119 13.2467 15.7189 13.1512C15.6259 13.0558 15.5737 12.9263 15.5737 12.7912V8.88599C15.5737 8.75096 15.6259 8.62147 15.7189 8.526C15.8119 8.43052 15.938 8.37688 16.0695 8.37688H18.4469C18.5783 8.37688 18.7044 8.43052 18.7974 8.526C18.8904 8.62147 18.9426 8.75096 18.9426 8.88599C18.9426 9.02101 18.8904 9.1505 18.7974 9.24598C18.7044 9.34145 18.5783 9.39509 18.4469 9.39509H16.5652V10.3296H18.0922C18.2237 10.3296 18.3498 10.3832 18.4427 10.4787C18.5357 10.5742 18.5879 10.7037 18.5879 10.8387C18.5879 10.9737 18.5357 11.1032 18.4427 11.1987C18.3498 11.2942 18.2237 11.3478 18.0922 11.3478H16.5652V12.2821H18.523C18.6545 12.2821 18.7806 12.3358 18.8735 12.4313C18.9665 12.5267 19.0187 12.6562 19.0187 12.7912C19.0187 12.9263 18.9665 13.0558 18.8735 13.1512C18.7806 13.2467 18.6545 13.3003 18.523 13.3003Z" fill="#0792FF"/>
</svg>
