<svg width="24" height="24" viewBox="0 0 24 24" fill="none" xmlns="http://www.w3.org/2000/svg">
<g id="icon-meta-chat">
<path id="Vector" fill-rule="evenodd" clip-rule="evenodd" d="M12.5 1C18.3155 1 23 5.49913 23 10.9878C23 16.4765 18.3155 20.9756 12.5 20.9756C11.1345 20.9756 9.82958 20.7267 8.63405 20.276L5.50165 21.9191C5.25842 22.0461 4.96834 22.0226 4.74664 21.8556C4.5259 21.6896 4.4116 21.4079 4.44872 21.1252L4.88434 17.8625C3.09296 16.0678 2 13.6461 2 10.9878C2 5.49913 6.68447 1 12.5 1ZM7.9933 14.2372L10.5182 12.1772C10.8308 11.9221 11.2595 11.8903 11.6024 12.0962L13.6623 13.3306C14.1077 13.598 14.6742 13.4576 14.9594 13.009L17.6904 8.71371C17.7646 8.59488 17.7529 8.43917 17.6621 8.33468C17.5703 8.2302 17.4218 8.20561 17.3036 8.27423L14.4857 9.91631C14.1663 10.1027 13.7736 10.0853 13.4699 9.87328L11.8612 8.7485C11.6434 8.59589 11.3767 8.54157 11.1198 8.59789C10.8639 8.65425 10.6392 8.81611 10.4976 9.04658L7.5674 13.8284C7.49026 13.9545 7.51075 14.1204 7.61624 14.2218C7.72081 14.3222 7.881 14.3294 7.9933 14.2372Z" fill="#0792FF"/>
</g>
</svg>
