<svg width="24" height="24" viewBox="0 0 24 24" fill="none" xmlns="http://www.w3.org/2000/svg">
<path d="M9.09737 2.18182C4.67512 2.18182 1.09088 5.16958 1.09088 8.8539C1.09088 10.9783 2.28919 12.8625 4.14803 14.0821L3.0925 16.1932L5.96817 14.9615C6.58467 15.1804 7.22519 15.3605 7.90975 15.4446C7.81634 15.0376 7.76296 14.6199 7.76296 14.1916C7.76296 10.5126 11.3539 7.51949 15.7695 7.51949C16.1738 7.51949 16.5688 7.55285 16.9584 7.60089C16.2538 4.51572 13.0045 2.18182 9.09737 2.18182ZM6.42854 7.18588C5.8761 7.18588 5.42773 6.73752 5.42773 6.18507C5.42773 5.63262 5.8761 5.18426 6.42854 5.18426C6.98099 5.18426 7.42936 5.63262 7.42936 6.18507C7.42936 6.73752 6.98099 7.18588 6.42854 7.18588ZM11.7662 7.18588C11.2138 7.18588 10.7654 6.73752 10.7654 6.18507C10.7654 5.63262 11.2138 5.18426 11.7662 5.18426C12.3187 5.18426 12.767 5.63262 12.767 6.18507C12.767 6.73752 12.3187 7.18588 11.7662 7.18588Z" fill="#0792FF"/>
<path d="M22.4415 14.1915C22.4415 11.2438 19.4537 8.85388 15.7694 8.85388C12.0851 8.85388 9.09735 11.2438 9.09735 14.1915C9.09735 17.1393 12.0851 19.5292 15.7694 19.5292C16.3753 19.5292 16.9517 19.4438 17.5108 19.3224L21.1071 20.8636L19.8634 18.3776C21.422 17.4008 22.4415 15.8983 22.4415 14.1915ZM13.7678 13.8579C13.2154 13.8579 12.767 13.4096 12.767 12.8571C12.767 12.3047 13.2154 11.8563 13.7678 11.8563C14.3203 11.8563 14.7686 12.3047 14.7686 12.8571C14.7686 13.4096 14.3203 13.8579 13.7678 13.8579ZM17.7711 13.8579C17.2186 13.8579 16.7702 13.4096 16.7702 12.8571C16.7702 12.3047 17.2186 11.8563 17.7711 11.8563C18.3235 11.8563 18.7719 12.3047 18.7719 12.8571C18.7719 13.4096 18.3235 13.8579 17.7711 13.8579Z" fill="#0792FF"/>
</svg>
