<svg width="24" height="24" viewBox="0 0 24 24" fill="none" xmlns="http://www.w3.org/2000/svg">
<path d="M12.5011 23.3318C10.5333 23.3318 8.72743 22.6729 7.56474 21.6901C6.97327 21.8678 6.21763 22.1512 5.74086 22.502C5.3338 22.8033 5.38328 23.1092 5.45749 23.2351C5.78134 23.7794 10.9944 23.5837 12.5011 23.4128V23.3318Z" fill="#0792FF"/>
<path d="M12.5011 23.3318C14.4689 23.3318 16.2748 22.6729 17.4375 21.6901C18.029 21.8678 18.7824 22.1512 19.2614 22.502C19.6684 22.8033 19.619 23.1092 19.5447 23.2351C19.2209 23.7794 14.0079 23.5837 12.5011 23.4128V23.3318Z" fill="#0792FF"/>
<path d="M21.3439 15.1525C21.1415 14.5048 20.8671 13.7492 20.5883 13.0228C20.5883 13.0228 20.4286 13.0025 20.3476 13.0272C17.8491 13.7537 14.8198 14.2147 12.5124 14.1877H12.4876C10.1937 14.2147 7.18466 13.7582 4.6951 13.0385C4.60064 13.0115 4.41174 13.0228 4.41174 13.0228C4.13287 13.7492 3.8585 14.5048 3.6561 15.1525C2.6958 18.2448 3.00616 19.5221 3.24454 19.5514C3.7528 19.6121 5.2236 17.2237 5.2236 17.2237C5.2236 19.6503 7.41405 23.3768 12.4337 23.4128C12.4561 23.4128 12.5439 23.4128 12.5663 23.4128C17.5837 23.3791 19.7764 19.6526 19.7764 17.2237C19.7764 17.2237 21.2472 19.6121 21.7555 19.5514C21.9938 19.5221 22.3042 18.2448 21.3439 15.1525Z" fill="#0792FF"/>
<path fill-rule="evenodd" clip-rule="evenodd" d="M19.2502 10.6456C18.3686 10.8885 15.7643 11.516 12.5146 11.5385V11.5407H12.4921C9.15922 11.516 6.50548 10.857 5.69137 10.6299C5.52495 10.5827 5.43274 10.486 5.43274 10.486C5.43274 10.4786 5.43189 10.4415 5.43061 10.386C5.42681 10.2207 5.41925 9.8924 5.41925 9.69885C5.41925 5.36067 7.46577 1 12.5034 1C17.5387 1 19.5875 5.36067 19.5875 9.69885C19.5875 9.8924 19.5799 10.2207 19.5761 10.386C19.5749 10.4415 19.574 10.4786 19.574 10.486C19.574 10.486 19.4616 10.5872 19.2502 10.6456ZM14.2936 7.40944C14.9772 7.44092 15.5619 6.66279 15.5979 5.67327C15.6339 4.68374 15.1122 3.85613 14.4262 3.8224C13.7448 3.79316 13.1601 4.57129 13.1241 5.56082C13.0881 6.55035 13.6099 7.37795 14.2936 7.40944ZM9.40435 5.67333C9.44258 6.66286 10.025 7.44099 10.7087 7.4095C11.3924 7.38027 11.9164 6.55266 11.8759 5.56313C11.8399 4.57136 11.2575 3.79323 10.5738 3.82471C9.89011 3.8562 9.36836 4.6838 9.40435 5.67333ZM16.8123 8.80828C16.6302 8.40348 14.7905 7.95369 12.5146 7.95369H12.4899C10.214 7.95369 8.37435 8.40348 8.19218 8.80828C8.18319 8.82628 8.17869 8.84427 8.17869 8.86676C8.17869 8.89599 8.18769 8.92298 8.20343 8.94547C8.35636 9.17036 10.3984 10.2791 12.4899 10.2791H12.5146C14.6061 10.2791 16.6459 9.17036 16.8011 8.94547C16.8168 8.92298 16.8258 8.89599 16.8258 8.86676C16.8258 8.84427 16.8191 8.82403 16.8123 8.80828Z" fill="#0792FF"/>
<path d="M11.5499 5.68678C11.5814 6.0781 11.3677 6.42443 11.0709 6.46266C10.7763 6.50089 10.5109 6.21528 10.4794 5.82397C10.4479 5.43265 10.6616 5.08632 10.9562 5.04809C11.253 5.00985 11.5184 5.29772 11.5499 5.68678Z" fill="#0792FF"/>
<path d="M13.4254 5.81725C13.4862 5.7093 13.8977 5.14032 14.7478 5.34722C14.9705 5.40119 15.0739 5.48216 15.0964 5.51364C15.1279 5.56087 15.1369 5.62609 15.1054 5.71604C15.0402 5.89371 14.9075 5.88696 14.8333 5.85323C14.786 5.83074 14.1923 5.43493 13.6458 6.0264C13.6076 6.06688 13.5401 6.08037 13.4772 6.03314C13.4142 5.98367 13.3895 5.88696 13.4254 5.81725Z" fill="#0792FF"/>
<path d="M12.5146 14.0438H12.4899C10.9201 14.0618 9.01754 13.8549 7.17566 13.4905C7.01824 14.4036 6.92379 15.5528 7.00475 16.9224C7.21165 20.3835 9.26717 22.5582 12.4382 22.5897H12.5663C15.7396 22.5582 17.7951 20.3835 18.002 16.9224C18.083 15.5528 17.9885 14.4059 17.8311 13.4905C15.987 13.8549 14.0844 14.064 12.5146 14.0438Z" fill="white"/>
<path d="M8.0437 13.7537V17.1585C8.0437 17.1585 9.60446 17.4734 11.1675 17.2552V14.1157C10.1757 14.0595 9.10744 13.9358 8.0437 13.7537Z" fill="#0792FF"/>
<path d="M19.5718 10.486C19.5718 10.486 16.538 11.4441 12.5124 11.4711H12.4876C8.46881 11.4441 5.4395 10.4883 5.42826 10.486L4.41174 13.0228C6.95303 13.7897 10.106 14.2822 12.4876 14.2552H12.5124C14.894 14.2845 18.0447 13.7897 20.5883 13.0228L19.5718 10.486Z" fill="#0792FF"/>
</svg>
