<svg width="24" height="24" viewBox="0 0 24 24" fill="none" xmlns="http://www.w3.org/2000/svg">
<g id="icon-diskord">
<path id="Vector" d="M19.624 4.40922C18.2218 3.75698 16.7181 3.27642 15.146 3.00115C15.1173 2.99584 15.0887 3.00913 15.074 3.03566C14.8806 3.38436 14.6664 3.83922 14.5164 4.19677C12.8254 3.94011 11.1431 3.94011 9.48684 4.19677C9.3368 3.8313 9.11482 3.38436 8.92056 3.03566C8.90582 3.01 8.8772 2.99671 8.84858 3.00115C7.2773 3.2755 5.77365 3.75607 4.37055 4.40922C4.35839 4.41453 4.34799 4.42338 4.34107 4.43488C1.48897 8.7546 0.70763 12.9682 1.09091 17.1295C1.09263 17.1498 1.10393 17.1693 1.11953 17.1817C3.00126 18.5827 4.82408 19.4331 6.613 19.9969C6.64162 20.0057 6.67196 19.9952 6.69018 19.9712C7.11333 19.3854 7.49056 18.7677 7.81398 18.118C7.83306 18.08 7.81484 18.0348 7.77583 18.0198C7.17748 17.7897 6.60776 17.5091 6.05969 17.1906C6.01634 17.1649 6.01286 17.1021 6.05278 17.072C6.16811 16.9844 6.28348 16.8932 6.39361 16.8011C6.41354 16.7843 6.4413 16.7808 6.46472 16.7914C10.0652 18.4579 13.9631 18.4579 17.521 16.7914C17.5444 16.7799 17.5722 16.7835 17.593 16.8002C17.7032 16.8923 17.8185 16.9843 17.9347 17.0719C17.9746 17.102 17.9719 17.1649 17.9286 17.1905C17.3806 17.5153 16.8108 17.7897 16.2116 18.0189C16.1726 18.0339 16.1553 18.08 16.1744 18.118C16.5048 18.7667 16.882 19.3844 17.2973 19.9703C17.3147 19.9951 17.3459 20.0057 17.3745 19.9969C19.1721 19.4331 20.9949 18.5826 22.8767 17.1816C22.8932 17.1693 22.9036 17.1507 22.9053 17.1303C23.364 12.3194 22.1369 8.14039 19.6525 4.43575C19.6465 4.42338 19.6361 4.41453 19.624 4.40922ZM8.35174 14.5956C7.26776 14.5956 6.37457 13.5868 6.37457 12.3477C6.37457 11.1087 7.2504 10.0998 8.35174 10.0998C9.46166 10.0998 10.3462 11.1176 10.3289 12.3477C10.3289 13.5868 9.45298 14.5956 8.35174 14.5956ZM15.6619 14.5956C14.578 14.5956 13.6848 13.5868 13.6848 12.3477C13.6848 11.1087 14.5606 10.0998 15.6619 10.0998C16.7719 10.0998 17.6564 11.1176 17.6391 12.3477C17.6391 13.5868 16.7719 14.5956 15.6619 14.5956Z" fill="#0792FF"/>
</g>
</svg>
