<svg width="81" height="39" viewBox="0 0 81 39" fill="none" xmlns="http://www.w3.org/2000/svg">
<path fill-rule="evenodd" clip-rule="evenodd" d="M0.983625 38.2963L7.47763 31.7768C7.51163 31.7428 7.52863 31.7088 7.52863 31.6578V0.632754C7.52863 0.564754 7.48613 0.505255 7.42663 0.479755C7.35863 0.454255 7.29063 0.471254 7.24813 0.513754L0.754125 7.03326C0.720125 7.06726 0.703125 7.10125 0.703125 7.15225V38.1773C0.703125 38.2453 0.745625 38.3048 0.805125 38.3303C0.864625 38.3643 0.932625 38.3473 0.983625 38.2963ZM8.93113 38.2963L15.4251 31.7768C15.4591 31.7428 15.4761 31.7088 15.4761 31.6578V0.632754C15.4761 0.564754 15.4336 0.505255 15.3741 0.479755C15.3061 0.454255 15.2381 0.471254 15.1956 0.513754L8.70163 7.03326C8.66763 7.06726 8.65063 7.10125 8.65063 7.15225V38.1773C8.65063 38.2453 8.69313 38.3048 8.75263 38.3303C8.81213 38.3643 8.88013 38.3473 8.93113 38.2963ZM16.8786 38.2963L23.3726 31.7768C23.4066 31.7428 23.4236 31.7088 23.4236 31.6578V0.632754C23.4236 0.564754 23.3811 0.505255 23.3216 0.479755C23.2621 0.454255 23.1856 0.471254 23.1431 0.513754L16.6491 7.03326C16.6151 7.06726 16.5981 7.10125 16.5981 7.15225V38.1773C16.5981 38.2453 16.6406 38.3048 16.7001 38.3303C16.7596 38.3643 16.8276 38.3473 16.8786 38.2963Z" fill="#9AA1B3"/>
<path d="M37.1001 1.9247H37.1851C37.2446 1.9247 37.2956 1.9332 37.3211 1.9502C37.3381 1.9587 37.3466 1.9842 37.3466 2.0097C37.3466 2.0097 37.3466 2.0182 37.3381 2.0437C37.3296 2.0777 37.3126 2.1202 37.2956 2.1797V2.1967C37.2956 2.2052 37.2871 2.2222 37.2871 2.2222L37.2701 2.2732L37.2531 2.3072C37.2531 2.3157 37.2446 2.3242 37.2446 2.3327L35.5191 7.2032L33.7511 2.3497C33.7511 2.3412 33.7426 2.3327 33.7426 2.3157L33.7256 2.2732C33.7001 2.2052 33.6831 2.1542 33.6746 2.1117C33.6661 2.0777 33.6576 2.0522 33.6576 2.0437C33.6576 1.9672 33.7086 1.9247 33.8106 1.9247H33.8956V1.6782H32.0851V1.9247H32.1786C32.2466 1.9247 32.3146 1.9332 32.3741 1.9672C32.4336 1.9927 32.4931 2.0352 32.5441 2.0947C32.6036 2.1542 32.6546 2.2392 32.7056 2.3497C32.7566 2.4602 32.8161 2.5877 32.8671 2.7407L33.0031 3.1232L31.5751 7.1777L29.7986 2.2987C29.7731 2.2392 29.7561 2.1882 29.7476 2.1372C29.7391 2.0947 29.7306 2.0522 29.7306 2.0097C29.7306 1.9842 29.7391 1.9587 29.7561 1.9502C29.7816 1.9332 29.8241 1.9247 29.8836 1.9247H29.9686V1.6782H28.1411V1.9247H28.2346C28.3196 1.9247 28.3961 1.9332 28.4556 1.9587C28.5151 1.9842 28.5661 2.0267 28.6086 2.0777C28.6596 2.1372 28.7021 2.2137 28.7531 2.3072C28.8041 2.4007 28.8466 2.5197 28.8976 2.6472L31.1926 8.9457H31.4306L33.2496 3.7692L35.1281 8.9457H35.3576C36.0036 7.1182 36.8536 4.1772 37.6356 2.5367C37.6441 2.5112 37.6611 2.4687 37.6866 2.4092C37.7121 2.3582 37.7376 2.2902 37.7801 2.2137V2.2052C37.7886 2.1882 37.7971 2.1627 37.8226 2.1372C37.8481 2.1032 37.8736 2.0692 37.9161 2.0352C37.9501 2.0012 37.9926 1.9757 38.0436 1.9587C38.0946 1.9417 38.1541 1.9247 38.2221 1.9162L38.3071 1.9077V1.6697H37.1001V1.9247ZM45.7446 3.5397C45.6681 3.3442 45.5661 3.1657 45.4471 2.9872C45.3281 2.8172 45.1921 2.6557 45.0391 2.5027C44.8861 2.3497 44.7161 2.2222 44.5376 2.1032C44.3591 1.9842 44.1636 1.8907 43.9511 1.8057C43.7386 1.7207 43.5176 1.6612 43.2881 1.6187C43.0586 1.5762 42.8121 1.5592 42.5486 1.5592C42.2256 1.5592 41.9196 1.5932 41.6306 1.6527C41.3416 1.7122 41.0696 1.8057 40.8146 1.9332C40.5596 2.0522 40.3301 2.1967 40.1176 2.3582C39.9051 2.5197 39.7181 2.6982 39.5481 2.9022C39.3781 3.0977 39.2336 3.3102 39.1061 3.5312C38.9786 3.7522 38.8766 3.9817 38.7916 4.2197C38.7066 4.4577 38.6471 4.6957 38.6046 4.9252C38.5621 5.1632 38.5451 5.3927 38.5451 5.6222C38.5451 5.8432 38.5621 6.0557 38.6046 6.2682C38.6471 6.4807 38.7066 6.6847 38.7831 6.8802C38.8596 7.0757 38.9616 7.2712 39.0721 7.4497C39.1911 7.6282 39.3186 7.7982 39.4716 7.9512C39.6246 8.1042 39.7946 8.2487 39.9731 8.3677C40.1516 8.4867 40.3471 8.5972 40.5596 8.6822C40.7721 8.7672 40.9846 8.8352 41.2226 8.8777C41.4521 8.9202 41.6901 8.9457 41.9451 8.9457C42.2511 8.9457 42.5486 8.9202 42.8291 8.8607C43.1096 8.8097 43.3816 8.7247 43.6366 8.6142C43.8916 8.5037 44.1296 8.3762 44.3421 8.2232C44.5546 8.0702 44.7501 7.8917 44.9286 7.6962C45.1071 7.5007 45.2601 7.2882 45.3876 7.0672C45.5236 6.8462 45.6341 6.6082 45.7191 6.3532C45.8041 6.0982 45.8721 5.8432 45.9146 5.5797C45.9571 5.3162 45.9826 5.0527 45.9826 4.7807C45.9826 4.5597 45.9656 4.3472 45.9231 4.1347C45.8891 3.9392 45.8296 3.7352 45.7446 3.5397ZM45.3706 5.6477C45.3706 5.8347 45.3536 6.0217 45.3111 6.1917C45.2686 6.3702 45.2091 6.5402 45.1326 6.7187C45.0561 6.8887 44.9626 7.0502 44.8521 7.1947C44.7501 7.3392 44.6311 7.4752 44.4951 7.6027C44.3591 7.7302 44.2146 7.8407 44.0616 7.9342C43.9086 8.0277 43.7471 8.1127 43.5686 8.1892C43.2201 8.3337 42.8716 8.4017 42.5146 8.4017C42.2341 8.4017 41.9621 8.3592 41.6986 8.2742C41.4351 8.1892 41.1801 8.0617 40.9251 7.8917C40.6701 7.7217 40.4491 7.5262 40.2451 7.2967C40.0411 7.0672 39.8626 6.8207 39.7096 6.5402C39.5566 6.2597 39.4376 5.9707 39.3611 5.6732C39.2846 5.3757 39.2421 5.0697 39.2421 4.7552C39.2421 4.5002 39.2761 4.2622 39.3356 4.0327C39.4036 3.8032 39.4971 3.5907 39.6246 3.3867C39.7521 3.1827 39.9051 3.0042 40.0751 2.8427C40.2451 2.6897 40.4321 2.5537 40.6361 2.4432C40.8401 2.3327 41.0526 2.2477 41.2566 2.1967C41.4606 2.1457 41.6731 2.1117 41.8856 2.1117C42.0556 2.1117 42.2341 2.1287 42.4211 2.1712C42.6081 2.2137 42.8036 2.2732 43.0076 2.3582C43.2116 2.4432 43.4071 2.5367 43.6026 2.6557C43.7981 2.7747 43.9766 2.9107 44.1551 3.0637C44.3336 3.2167 44.4951 3.3867 44.6311 3.5737C44.7756 3.7607 44.9031 3.9647 45.0136 4.1857C45.1241 4.4067 45.2091 4.6362 45.2601 4.8742C45.3451 5.1207 45.3706 5.3757 45.3706 5.6477ZM53.8706 8.1807L53.7856 8.2232C53.7601 8.2402 53.7261 8.2572 53.6921 8.2742C53.6581 8.2912 53.6326 8.3082 53.6071 8.3167C53.5816 8.3252 53.5561 8.3422 53.5391 8.3507H53.5306C53.4711 8.3847 53.4031 8.4017 53.3266 8.4187C53.2501 8.4357 53.1736 8.4442 53.0971 8.4442C52.9853 8.44372 52.874 8.42945 52.7656 8.4017C52.6636 8.3762 52.5616 8.3337 52.4681 8.2742C52.3661 8.2147 52.2811 8.1552 52.2046 8.0957C52.1281 8.0362 52.0601 7.9767 52.0091 7.9087C51.8731 7.7557 51.7371 7.5857 51.5926 7.3987C51.4481 7.2117 51.2951 6.9992 51.1336 6.7782C50.9721 6.5487 50.8361 6.3617 50.7426 6.2172C50.6491 6.0812 50.5896 5.9792 50.5556 5.9282C50.4111 5.6732 50.2241 5.4182 50.0626 5.1717C50.1476 5.1207 50.2241 5.0697 50.3091 5.0102C50.4111 4.9337 50.5131 4.8487 50.6066 4.7467C50.7001 4.6532 50.7936 4.5512 50.8701 4.4407C50.9466 4.3302 51.0146 4.2112 51.0741 4.0922C51.1336 3.9647 51.1761 3.8457 51.2101 3.7097C51.2356 3.5822 51.2526 3.4462 51.2526 3.3102C51.2526 3.1147 51.2271 2.9362 51.1761 2.7832C51.1251 2.6217 51.0571 2.4772 50.9551 2.3412C50.8616 2.2137 50.7426 2.1032 50.6151 2.0182C50.4876 1.9332 50.3431 1.8652 50.1816 1.8142C50.0966 1.7887 50.0031 1.7632 49.9096 1.7462C49.8161 1.7292 49.7141 1.7122 49.6206 1.7037C49.5271 1.6952 49.3911 1.6952 49.2381 1.6867C49.0681 1.6867 48.8811 1.6782 48.6771 1.6782H46.6031V1.9162H46.6881C46.7561 1.9162 46.8071 1.9247 46.8581 1.9332C46.9006 1.9417 46.9346 1.9502 46.9601 1.9587C46.9771 1.9672 46.9941 1.9757 47.0111 1.9927C47.0281 2.0097 47.0451 2.0437 47.0621 2.0777C47.0791 2.1117 47.0876 2.1627 47.0961 2.2307C47.1046 2.2987 47.1046 2.3752 47.1046 2.4687V8.0277C47.1046 8.1637 47.0961 8.2657 47.0876 8.3507C47.0791 8.4272 47.0621 8.4782 47.0366 8.5122C47.0196 8.5377 46.9856 8.5547 46.9346 8.5717C46.8751 8.5887 46.7901 8.6057 46.6881 8.6057H46.6031V8.8437H48.5836V8.6057H48.4986C48.4306 8.6057 48.3796 8.5972 48.3371 8.5887C48.2946 8.5802 48.2606 8.5717 48.2351 8.5632C48.2181 8.5547 48.2011 8.5462 48.1841 8.5292C48.1671 8.5122 48.1501 8.4782 48.1331 8.4527C48.1161 8.4187 48.1076 8.3677 48.0991 8.3082C48.0906 8.2487 48.0906 8.1807 48.0906 8.0957V5.5117H48.8131C48.8726 5.5117 48.9151 5.5032 48.9406 5.5032L49.1446 5.4947L49.8246 6.5317L49.8331 6.5402V6.5572L49.8501 6.5827C50.0626 6.8972 50.2666 7.1947 50.4621 7.4667C50.6576 7.7387 50.8531 7.9852 51.0401 8.2147C51.1166 8.3082 51.1931 8.3847 51.2696 8.4612C51.3546 8.5377 51.4396 8.5972 51.5246 8.6567C51.6096 8.7077 51.6946 8.7587 51.7796 8.7927C51.8646 8.8267 51.9411 8.8607 52.0261 8.8777C52.1026 8.8947 52.1791 8.9117 52.2556 8.9202C52.3321 8.9287 52.4086 8.9372 52.4851 8.9372C52.5701 8.9372 52.6636 8.9287 52.7571 8.9287C52.8506 8.9202 52.9441 8.9117 53.0291 8.8947C53.1226 8.8777 53.1991 8.8607 53.2671 8.8437C53.3351 8.8267 53.4031 8.8097 53.4541 8.7842C53.5476 8.7417 53.6496 8.6992 53.7431 8.6397C53.8366 8.5887 53.9301 8.5207 54.0151 8.4527L54.0576 8.4187L53.9811 8.1637L53.8706 8.1807ZM49.6801 4.9507C49.6291 4.9762 49.5696 5.0017 49.5016 5.0187C49.4251 5.0442 49.3401 5.0612 49.2381 5.0782C49.1361 5.0952 49.0426 5.1122 48.9576 5.1207C48.8726 5.1292 48.7961 5.1292 48.7281 5.1292H48.0821V2.0352H48.5666C48.7281 2.0352 48.8726 2.0437 49.0001 2.0607C49.1276 2.0777 49.2381 2.1032 49.3316 2.1372C49.4251 2.1712 49.5186 2.2137 49.6036 2.2647C49.6886 2.3157 49.7651 2.3752 49.8331 2.4432C49.8926 2.5027 49.9436 2.5622 49.9946 2.6302C50.0371 2.6897 50.0796 2.7662 50.1221 2.8342C50.1561 2.9107 50.1901 2.9787 50.2156 3.0552C50.2411 3.1317 50.2666 3.2082 50.2836 3.2932C50.3006 3.3697 50.3176 3.4462 50.3261 3.5227C50.3346 3.5992 50.3431 3.6672 50.3431 3.7352C50.3431 3.8882 50.3261 4.0242 50.2921 4.1517C50.2581 4.2792 50.2156 4.3897 50.1476 4.4832C50.0796 4.5852 50.0116 4.6702 49.9351 4.7467C49.8501 4.8402 49.7651 4.8997 49.6801 4.9507ZM58.8686 7.0672C58.8601 7.2287 58.8431 7.3817 58.8261 7.5092C58.8091 7.6367 58.7751 7.7557 58.7411 7.8577C58.7071 7.9512 58.6646 8.0362 58.6136 8.1042C58.5626 8.1722 58.4946 8.2317 58.4181 8.2827C58.3416 8.3337 58.2481 8.3677 58.1291 8.3932C58.0186 8.4187 57.8826 8.4272 57.7296 8.4272H56.8796C56.7606 8.4272 56.6586 8.4187 56.5566 8.4102C56.4546 8.4017 56.3696 8.3847 56.2846 8.3677C56.1231 8.3337 55.9956 8.2742 55.9021 8.1892C55.8511 8.1467 55.8171 8.1042 55.7831 8.0532C55.7491 8.0022 55.7236 7.9427 55.6981 7.8747C55.6726 7.8067 55.6556 7.7302 55.6471 7.6452C55.6386 7.5602 55.6301 7.4667 55.6301 7.3562V2.4517C55.6301 2.3752 55.6301 2.3072 55.6386 2.2477C55.6386 2.1882 55.6471 2.1457 55.6556 2.1032C55.6641 2.0777 55.6726 2.0522 55.6896 2.0267C55.7066 2.0012 55.7321 1.9842 55.7576 1.9672C55.7831 1.9502 55.8256 1.9332 55.8766 1.9247C55.9361 1.9162 56.0041 1.9077 56.0806 1.9077H56.1741V1.6612H54.1256V1.9077H54.2106C54.3126 1.9077 54.3891 1.9162 54.4571 1.9332C54.5166 1.9502 54.5506 1.9672 54.5761 1.9927C54.6271 2.0437 54.6526 2.1797 54.6526 2.4007V8.1212C54.6526 8.2147 54.6441 8.2912 54.6356 8.3592C54.6271 8.4187 54.6016 8.4612 54.5846 8.4952C54.5676 8.5207 54.5336 8.5377 54.4741 8.5547C54.4146 8.5717 54.3296 8.5802 54.2276 8.5802H54.1426V8.8182H59.1321V6.9822H58.8941L58.8686 7.0672ZM67.3686 4.4747C67.3431 4.2877 67.2921 4.1007 67.2326 3.9307C67.1731 3.7522 67.1051 3.5907 67.0201 3.4377C66.9351 3.2847 66.8416 3.1402 66.7396 3.0042C66.6376 2.8682 66.5186 2.7492 66.3996 2.6387C66.2806 2.5282 66.1531 2.4262 66.0171 2.3412C65.8641 2.2392 65.6941 2.1542 65.5071 2.0692C65.3201 1.9927 65.1246 1.9162 64.9036 1.8567C64.6826 1.7972 64.4191 1.7547 64.0961 1.7207C63.7816 1.6952 63.4161 1.6782 62.9996 1.6782H59.7016V1.9162H59.7866C59.8971 1.9162 59.9821 1.9332 60.0416 1.9502C60.0926 1.9672 60.1266 1.9927 60.1351 2.0182C60.1521 2.0607 60.1691 2.1287 60.1861 2.2222C60.1946 2.3242 60.2031 2.4602 60.2031 2.6302V7.7217C60.2031 7.8577 60.2031 7.9682 60.1946 8.0617C60.1861 8.1552 60.1776 8.2402 60.1691 8.2997C60.1606 8.3592 60.1436 8.4102 60.1266 8.4442C60.1096 8.4782 60.0926 8.5037 60.0756 8.5292C60.0331 8.5632 59.9736 8.5887 59.8801 8.5887H59.7101V8.8352H63.0761C63.3651 8.8352 63.6286 8.8267 63.8666 8.8097C64.1046 8.7927 64.3171 8.7672 64.5126 8.7417C64.6996 8.7077 64.8781 8.6652 65.0396 8.6142C65.2011 8.5632 65.3541 8.4952 65.4901 8.4102C65.6176 8.3337 65.7451 8.2487 65.8641 8.1637C65.9831 8.0702 66.1021 7.9682 66.2126 7.8662C66.3231 7.7557 66.4336 7.6367 66.5356 7.5092C66.6376 7.3817 66.7311 7.2372 66.8246 7.0927C66.9181 6.9397 66.9946 6.7867 67.0711 6.6252C67.1391 6.4637 67.2071 6.3022 67.2581 6.1322C67.3091 5.9622 67.3516 5.7837 67.3771 5.6052C67.4026 5.4267 67.4196 5.2397 67.4196 5.0527C67.4196 4.8572 67.4026 4.6617 67.3686 4.4747ZM66.4081 6.0047C66.3656 6.2172 66.2976 6.4382 66.2126 6.6507C66.1276 6.8632 66.0256 7.0587 65.9066 7.2372C65.7876 7.4157 65.6601 7.5687 65.5241 7.7047C65.4306 7.7982 65.3286 7.8832 65.2181 7.9512C65.1161 8.0277 64.9971 8.0872 64.8781 8.1467C64.7591 8.2062 64.6316 8.2487 64.4956 8.2912C64.3596 8.3337 64.2151 8.3677 64.0621 8.3932C63.9091 8.4187 63.7476 8.4442 63.5691 8.4527C63.3906 8.4697 63.2036 8.4697 63.0081 8.4697C62.7446 8.4697 62.5151 8.4612 62.3196 8.4357C62.1241 8.4102 61.9626 8.3847 61.8266 8.3422C61.6991 8.2997 61.5971 8.2487 61.5121 8.1892C61.4356 8.1297 61.3761 8.0617 61.3336 7.9937C61.2911 7.9172 61.2656 7.8237 61.2401 7.7132C61.2146 7.6027 61.2061 7.4752 61.2061 7.3307V1.9927H62.1921C62.5746 1.9927 62.9401 2.0182 63.2631 2.0692C63.5946 2.1202 63.9006 2.1882 64.1726 2.2902C64.3851 2.3582 64.5806 2.4432 64.7591 2.5367C64.9376 2.6302 65.1076 2.7407 65.2521 2.8597C65.4051 2.9787 65.5411 3.1062 65.6601 3.2337C65.7791 3.3612 65.8811 3.4972 65.9661 3.6332C66.0511 3.7692 66.1276 3.9137 66.1956 4.0582C66.2636 4.2027 66.3146 4.3472 66.3486 4.4917C66.4336 4.7807 66.4676 5.0697 66.4676 5.3587C66.4761 5.5797 66.4506 5.7922 66.4081 6.0047ZM28.4811 13.3827H28.5661C28.6171 13.3827 28.6681 13.3827 28.7106 13.3912C28.7531 13.3997 28.7871 13.4082 28.8126 13.4167C28.8381 13.4252 28.8551 13.4422 28.8721 13.4592C28.8891 13.4847 28.9061 13.5102 28.9231 13.5442C28.9401 13.5782 28.9486 13.6292 28.9571 13.6887C28.9656 13.7482 28.9656 13.8247 28.9656 13.9182V19.6642C28.9656 19.7492 28.9571 19.8172 28.9401 19.8682C28.9316 19.9107 28.9061 19.9447 28.8891 19.9702C28.8636 19.9957 28.8296 20.0127 28.7786 20.0212C28.7191 20.0382 28.6511 20.0467 28.5576 20.0467H28.4726V20.2932H30.4871V20.0467H30.4021C30.3001 20.0467 30.2151 20.0382 30.1556 20.0127C30.1046 19.9957 30.0621 19.9787 30.0366 19.9447C30.0111 19.9107 29.9941 19.8682 29.9771 19.8002C29.9601 19.7237 29.9516 19.6302 29.9516 19.5112V16.8082H32.1361C32.1786 16.8082 32.2041 16.8082 32.2381 16.8167C32.2636 16.8252 32.2806 16.8252 32.2891 16.8337C32.3061 16.8422 32.3146 16.8507 32.3231 16.8592C32.3316 16.8677 32.3401 16.8762 32.3401 16.8847C32.3486 16.9017 32.3486 16.9187 32.3571 16.9272C32.3571 16.9357 32.3656 16.9527 32.3656 16.9612L32.3741 17.0377H32.6121V16.1877H32.3826L32.3741 16.2642C32.3656 16.3067 32.3571 16.3322 32.3486 16.3577C32.3401 16.3747 32.3231 16.3832 32.3061 16.3917C32.2721 16.4002 32.2381 16.4087 32.1786 16.4172C32.1276 16.4257 32.0596 16.4257 31.9746 16.4257H29.9601V13.5187H32.1276C32.2466 13.5187 32.3486 13.5272 32.4336 13.5442C32.5101 13.5612 32.5781 13.5782 32.6206 13.6037C32.6631 13.6292 32.6971 13.6717 32.7311 13.7227C32.7651 13.7907 32.7991 13.8672 32.8246 13.9692V13.9777L32.8331 14.0032V14.0967H33.0796V13.1022H28.4811V13.3827ZM33.4026 13.3912L33.4961 13.3827C33.5726 13.3742 33.6321 13.3827 33.6831 13.3912C33.7341 13.3997 33.7681 13.4167 33.7936 13.4337C33.8191 13.4507 33.8446 13.4762 33.8616 13.5102C33.8786 13.5442 33.8871 13.5782 33.8956 13.6207C33.9126 13.7227 33.9211 13.8757 33.9211 14.0797V19.3922C33.9211 19.5112 33.9211 19.6047 33.9126 19.6812C33.9041 19.7577 33.9041 19.8172 33.8956 19.8597C33.8871 19.8937 33.8786 19.9192 33.8616 19.9447C33.8446 19.9702 33.8276 19.9872 33.8021 19.9957C33.7766 20.0127 33.7341 20.0212 33.6831 20.0297C33.6236 20.0382 33.5641 20.0467 33.4791 20.0467H33.3941V20.2847H35.4341V20.0382H35.3406C35.2641 20.0382 35.1961 20.0382 35.1366 20.0212C35.0856 20.0127 35.0431 19.9957 35.0176 19.9787C34.9921 19.9617 34.9666 19.9447 34.9581 19.9192C34.9411 19.8937 34.9326 19.8597 34.9241 19.8257C34.9156 19.7832 34.9071 19.7237 34.9071 19.6472C34.9071 19.5707 34.8986 19.4772 34.8986 19.3667V13.7652C34.8986 13.7142 34.8986 13.6717 34.9071 13.6632V13.6462C34.9071 13.5782 34.9156 13.5272 34.9411 13.4932C34.9581 13.4592 34.9921 13.4337 35.0346 13.4167C35.0856 13.3912 35.1451 13.3827 35.1961 13.3742C35.2471 13.3657 35.2981 13.3657 35.3406 13.3657L35.4341 13.3742V13.1192H33.3941V13.3912H33.4026ZM41.8771 13.1447H41.7921V13.3912H41.8771C41.9621 13.3912 42.0301 13.3997 42.0811 13.4167C42.1321 13.4337 42.1746 13.4507 42.2001 13.4762C42.2256 13.5017 42.2511 13.5442 42.2681 13.6037C42.2851 13.6717 42.2936 13.7652 42.2936 13.8757V18.5847L37.1766 13.1447H35.7401V13.3912H35.8336C36.0291 13.3827 36.1906 13.4082 36.3181 13.4677C36.4286 13.5187 36.5136 13.6037 36.5561 13.7227C36.6071 13.8502 36.6496 13.9947 36.6751 14.1562C36.7006 14.3177 36.7176 14.4962 36.7176 14.6917V19.4262C36.7176 19.5367 36.7176 19.6302 36.7091 19.7067C36.7091 19.7832 36.7006 19.8342 36.6921 19.8767C36.6836 19.9107 36.6751 19.9362 36.6581 19.9617C36.6411 19.9872 36.6241 20.0042 36.5986 20.0212C36.5731 20.0382 36.5306 20.0552 36.4796 20.0637C36.4201 20.0722 36.3521 20.0807 36.2671 20.0807H36.1821V20.3187H37.7036V20.0722L37.4741 20.0382C37.4316 20.0297 37.3891 20.0212 37.3636 20.0212C37.3551 20.0212 37.3381 20.0127 37.3296 20.0042C37.3126 19.9957 37.2956 19.9872 37.2871 19.9702C37.2701 19.9532 37.2616 19.9362 37.2531 19.9192C37.2446 19.8937 37.2361 19.8682 37.2276 19.8342C37.2191 19.8002 37.2106 19.7577 37.2106 19.7067C37.2106 19.6557 37.2021 19.6047 37.2021 19.5452V14.5982L42.7781 20.5397V13.9522C42.7781 13.8247 42.7866 13.7227 42.8036 13.6462C42.8206 13.5782 42.8376 13.5272 42.8716 13.5017C42.8971 13.4762 42.9396 13.4507 42.9991 13.4337C43.0671 13.4167 43.1436 13.3997 43.2371 13.3997H43.3221V13.1617H41.8771V13.1447ZM50.0626 20.0212C50.0031 19.9957 49.9521 19.9617 49.9096 19.9107C49.8586 19.8512 49.8161 19.7917 49.7736 19.7152C49.7311 19.6387 49.6886 19.5537 49.6546 19.4602L49.6121 19.3497L49.6036 19.3412C49.5951 19.3327 49.5951 19.3242 49.5951 19.3157V19.2902L47.0706 13.0427H46.8326L44.2741 19.4942C44.2316 19.5962 44.1891 19.6897 44.1466 19.7662C44.1041 19.8427 44.0701 19.9022 44.0276 19.9447C43.9936 19.9872 43.9511 20.0127 43.9001 20.0382C43.8406 20.0637 43.7726 20.0722 43.6876 20.0722H43.6026V20.3187H44.8181V20.0722H44.7331C44.6396 20.0722 44.5886 20.0467 44.5886 20.0042C44.5886 19.9787 44.5886 19.9532 44.5971 19.9192C44.6056 19.8852 44.6226 19.8512 44.6396 19.8172L44.6481 19.8002V19.7832C44.6481 19.7747 44.6481 19.7917 44.6566 19.7747C44.6736 19.7322 44.6821 19.7152 44.6906 19.6897L45.7276 17.1057H47.6486L48.6431 19.5537L48.6516 19.5622C48.6516 19.5707 48.6601 19.5707 48.6601 19.5877L48.6686 19.6132C48.6771 19.6302 48.6771 19.6472 48.6856 19.6557C48.7196 19.7322 48.7451 19.8002 48.7621 19.8597C48.7791 19.9107 48.7876 19.9617 48.7876 19.9957C48.7876 20.0042 48.7876 20.0127 48.7791 20.0212C48.7706 20.0297 48.7706 20.0467 48.7536 20.0637C48.7536 20.0637 48.7451 20.0722 48.7281 20.0722C48.7111 20.0807 48.6771 20.0807 48.6431 20.0807H48.5581V20.3272H50.3686V20.0807H50.2836C50.1986 20.0637 50.1306 20.0467 50.0626 20.0212ZM45.8636 16.7147L46.6796 14.6577L47.4956 16.7147H45.8636ZM56.5311 13.1447H56.4461V13.3912H56.5311C56.6161 13.3912 56.6841 13.3997 56.7351 13.4167C56.7861 13.4337 56.8286 13.4507 56.8541 13.4762C56.8796 13.5017 56.9051 13.5442 56.9221 13.6037C56.9391 13.6717 56.9476 13.7652 56.9476 13.8757V18.5847L51.8306 13.1447H50.3941V13.3912H50.4876C50.6831 13.3827 50.8446 13.4082 50.9721 13.4677C51.0826 13.5187 51.1676 13.6037 51.2101 13.7227C51.2611 13.8502 51.3036 13.9947 51.3291 14.1562C51.3546 14.3177 51.3716 14.4962 51.3716 14.6917V19.4262C51.3716 19.5367 51.3716 19.6302 51.3631 19.7067C51.3631 19.7832 51.3546 19.8427 51.3461 19.8767C51.3376 19.9107 51.3291 19.9362 51.3121 19.9617C51.2951 19.9872 51.2781 20.0042 51.2526 20.0212C51.2271 20.0382 51.1846 20.0552 51.1336 20.0637C51.0741 20.0722 51.0061 20.0807 50.9211 20.0807H50.8361V20.3187H52.3576V20.0722L52.1281 20.0382C52.0856 20.0297 52.0431 20.0212 52.0176 20.0212C52.0091 20.0212 51.9921 20.0127 51.9836 20.0042C51.9666 19.9957 51.9496 19.9872 51.9411 19.9702C51.9241 19.9532 51.9156 19.9362 51.9071 19.9192C51.8986 19.8937 51.8901 19.8682 51.8816 19.8342C51.8731 19.8002 51.8646 19.7577 51.8646 19.7067C51.8646 19.6557 51.8561 19.6047 51.8561 19.5452V14.5982L57.4321 20.5397V13.9522C57.4321 13.8247 57.4406 13.7227 57.4576 13.6462C57.4746 13.5782 57.4916 13.5272 57.5256 13.5017C57.5511 13.4762 57.5936 13.4507 57.6531 13.4337C57.7211 13.4167 57.7976 13.3997 57.8911 13.3997H57.9761V13.1617H56.5311V13.1447ZM65.5836 19.1457C65.4646 19.2817 65.3201 19.4007 65.1416 19.5112C64.9631 19.6217 64.7421 19.7152 64.4956 19.8002C64.2491 19.8852 63.9941 19.9447 63.7476 19.9872C63.4926 20.0297 63.2376 20.0467 62.9826 20.0467C62.6596 20.0467 62.3621 20.0127 62.0901 19.9447C61.8181 19.8767 61.5631 19.7832 61.3336 19.6472C61.1041 19.5112 60.8916 19.3667 60.7046 19.1967C60.5176 19.0267 60.3561 18.8482 60.2201 18.6442C60.0756 18.4402 59.9566 18.2362 59.8546 18.0237C59.7526 17.8112 59.6676 17.5902 59.5996 17.3692C59.5316 17.1482 59.4891 16.9357 59.4551 16.7402C59.4211 16.5447 59.4041 16.3662 59.4041 16.1962C59.4041 15.9582 59.4296 15.7287 59.4891 15.5077C59.5486 15.2867 59.6336 15.0657 59.7526 14.8447C59.8716 14.6322 60.0161 14.4367 60.1946 14.2582C60.3731 14.0797 60.5771 13.9267 60.8066 13.7907C61.0361 13.6547 61.2996 13.5527 61.5801 13.4847C61.8606 13.4167 62.1666 13.3827 62.4981 13.3827C62.6851 13.3827 62.8636 13.3997 63.0421 13.4252C63.2121 13.4507 63.3736 13.4932 63.5351 13.5527C63.6966 13.6122 63.8411 13.6717 63.9686 13.7397C64.0961 13.8077 64.2151 13.8757 64.3171 13.9437C64.4191 14.0202 64.5126 14.0882 64.5976 14.1647C64.6826 14.2327 64.7591 14.3092 64.8271 14.3772L64.8526 14.4027H65.0821L64.7761 13.5442L64.7676 13.5272L64.7506 13.5102C64.7336 13.4932 64.7081 13.4762 64.6741 13.4677C64.6656 13.4677 64.6486 13.4592 64.6486 13.4592H64.6316C64.4786 13.3912 64.3256 13.3402 64.1726 13.2892C64.0111 13.2382 63.8581 13.1872 63.7051 13.1532C63.5521 13.1107 63.3821 13.0852 63.2036 13.0682C63.0251 13.0512 62.8296 13.0427 62.6256 13.0427C62.3026 13.0427 62.0051 13.0682 61.7076 13.1277C61.4186 13.1787 61.1466 13.2637 60.8831 13.3742C60.6281 13.4847 60.3901 13.6122 60.1691 13.7567C59.9566 13.9012 59.7611 14.0712 59.5826 14.2582C59.4126 14.4452 59.2596 14.6407 59.1321 14.8447C59.0046 15.0487 58.8941 15.2697 58.8091 15.4992C58.7241 15.7287 58.6561 15.9582 58.6136 16.1877C58.5711 16.4172 58.5456 16.6552 58.5456 16.8847C58.5456 17.1737 58.5711 17.4457 58.6306 17.7177C58.6901 17.9897 58.7751 18.2447 58.8941 18.4912C59.0131 18.7377 59.1491 18.9587 59.3106 19.1627C59.4721 19.3582 59.6506 19.5367 59.8461 19.6812C59.9481 19.7577 60.0501 19.8257 60.1691 19.8852C60.2796 19.9532 60.4071 20.0127 60.5346 20.0637C60.6621 20.1232 60.8066 20.1657 60.9681 20.2167C61.1296 20.2592 61.2996 20.3017 61.4781 20.3272C61.6651 20.3612 61.8606 20.3867 62.0646 20.4037C62.2686 20.4207 62.4896 20.4292 62.7191 20.4292C62.9401 20.4292 63.1441 20.4207 63.3226 20.4122C63.5011 20.4037 63.6541 20.3867 63.7816 20.3697C63.9091 20.3527 64.0876 20.3187 64.3341 20.2677C64.5891 20.2167 64.8866 20.1572 65.2266 20.0807L65.2606 20.0722L65.8301 19.1967L65.6006 19.1287L65.5836 19.1457ZM68.1591 13.1447H66.1191V13.3997L66.2126 13.3912C66.2891 13.3827 66.3486 13.3912 66.3996 13.3997C66.4506 13.4082 66.4846 13.4252 66.5101 13.4422C66.5356 13.4592 66.5611 13.4847 66.5781 13.5187C66.5951 13.5527 66.6036 13.5867 66.6121 13.6292C66.6291 13.7312 66.6376 13.8842 66.6376 14.0882V19.4007C66.6376 19.5197 66.6376 19.6132 66.6291 19.6897C66.6206 19.7662 66.6206 19.8257 66.6121 19.8682C66.6036 19.9022 66.5951 19.9277 66.5781 19.9532C66.5611 19.9787 66.5441 19.9957 66.5186 20.0042C66.4931 20.0212 66.4506 20.0297 66.3996 20.0382C66.3401 20.0467 66.2806 20.0552 66.1956 20.0552H66.1106V20.2932H68.1506V20.0467H68.0571C67.9806 20.0467 67.9126 20.0467 67.8531 20.0297C67.8021 20.0212 67.7596 20.0042 67.7341 19.9872C67.7086 19.9702 67.6831 19.9532 67.6746 19.9277C67.6576 19.9022 67.6491 19.8682 67.6406 19.8342C67.6321 19.7917 67.6236 19.7322 67.6236 19.6557C67.6236 19.5792 67.6151 19.4857 67.6151 19.3752V13.7737C67.6151 13.7227 67.6151 13.6802 67.6236 13.6717V13.6547C67.6236 13.5867 67.6321 13.5357 67.6576 13.5017C67.6746 13.4677 67.7086 13.4422 67.7511 13.4252C67.8021 13.3997 67.8616 13.3912 67.9126 13.3827C67.9636 13.3742 68.0146 13.3742 68.0571 13.3742L68.1506 13.3827V13.1447H68.1591ZM74.8996 20.0212C74.8401 19.9957 74.7891 19.9617 74.7466 19.9107C74.6956 19.8512 74.6531 19.7917 74.6106 19.7152C74.5681 19.6387 74.5256 19.5537 74.4916 19.4602L74.4491 19.3497L74.4406 19.3412C74.4321 19.3327 74.4321 19.3242 74.4321 19.3157V19.2902L71.9076 13.0427H71.6696L69.1111 19.4942C69.0686 19.5962 69.0261 19.6897 68.9836 19.7662C68.9411 19.8427 68.9071 19.9022 68.8646 19.9447C68.8306 19.9872 68.7881 20.0127 68.7371 20.0382C68.6776 20.0637 68.6096 20.0722 68.5246 20.0722H68.4396V20.3187H69.6551V20.0722H69.5701C69.4766 20.0722 69.4256 20.0467 69.4256 20.0042C69.4256 19.9787 69.4256 19.9532 69.4341 19.9192C69.4426 19.8852 69.4596 19.8512 69.4766 19.8172L69.4851 19.8002V19.7832C69.4851 19.7747 69.4851 19.7917 69.4936 19.7747C69.5106 19.7322 69.5191 19.7152 69.5276 19.6897L70.5646 17.1057H72.4856L73.4801 19.5537L73.4886 19.5622C73.4886 19.5707 73.4971 19.5707 73.4971 19.5877L73.5056 19.6132C73.5141 19.6302 73.5141 19.6472 73.5226 19.6557C73.5566 19.7322 73.5821 19.8002 73.5991 19.8597C73.6161 19.9107 73.6246 19.9617 73.6246 19.9957C73.6246 20.0042 73.6246 20.0127 73.6161 20.0212C73.6076 20.0297 73.6076 20.0467 73.5906 20.0637C73.5906 20.0637 73.5821 20.0722 73.5651 20.0722C73.5481 20.0807 73.5141 20.0807 73.4801 20.0807H73.3951V20.3272H75.2056V20.0807H75.1206C75.0356 20.0637 74.9591 20.0467 74.8996 20.0212ZM70.7006 16.7147L71.5166 14.6577L72.3326 16.7147H70.7006ZM80.0336 18.5337C80.0251 18.6952 80.0081 18.8482 79.9911 18.9757C79.9741 19.1032 79.9401 19.2222 79.9061 19.3242C79.8721 19.4177 79.8296 19.5027 79.7786 19.5707C79.7276 19.6387 79.6596 19.6982 79.5831 19.7492C79.5066 19.8002 79.4131 19.8342 79.2941 19.8597C79.1836 19.8852 79.0476 19.8937 78.8946 19.8937H78.0446C77.9256 19.8937 77.8236 19.8852 77.7216 19.8767C77.6196 19.8682 77.5346 19.8512 77.4496 19.8342C77.2881 19.8002 77.1606 19.7407 77.0671 19.6557C77.0246 19.6132 76.9821 19.5707 76.9481 19.5197C76.9141 19.4687 76.8886 19.4092 76.8631 19.3412C76.8376 19.2732 76.8206 19.1967 76.8121 19.1117C76.8036 19.0267 76.7951 18.9332 76.7951 18.8227V13.9182C76.7951 13.8417 76.7951 13.7737 76.8036 13.7142C76.8036 13.6547 76.8121 13.6122 76.8206 13.5697C76.8291 13.5442 76.8376 13.5187 76.8546 13.4932C76.8716 13.4677 76.8971 13.4507 76.9226 13.4337C76.9481 13.4167 76.9906 13.3997 77.0416 13.3912C77.1011 13.3827 77.1691 13.3742 77.2456 13.3742H77.3391V13.1277H75.2906V13.3742H75.3756C75.4776 13.3742 75.5541 13.3827 75.6221 13.3997C75.6816 13.4167 75.7156 13.4337 75.7411 13.4592C75.7921 13.5102 75.8176 13.6462 75.8176 13.8672V19.5877C75.8176 19.6812 75.8091 19.7577 75.8006 19.8257C75.7921 19.8852 75.7666 19.9277 75.7496 19.9617C75.7326 19.9872 75.6986 20.0042 75.6391 20.0212C75.5796 20.0382 75.4946 20.0467 75.3926 20.0467H75.3076V20.2847H80.2801V18.4232H80.0336V18.5337ZM34.6351 31.4877C34.5756 31.4622 34.5246 31.4282 34.4821 31.3772C34.4311 31.3177 34.3886 31.2582 34.3461 31.1817C34.3036 31.1052 34.2611 31.0202 34.2271 30.9267L34.1846 30.8162L34.1761 30.8077C34.1676 30.7992 34.1676 30.7907 34.1676 30.7822V30.7567L31.6431 24.5092H31.4051L28.8466 30.9522C28.8041 31.0542 28.7616 31.1477 28.7191 31.2242C28.6766 31.3007 28.6426 31.3602 28.6001 31.4027C28.5661 31.4452 28.5236 31.4707 28.4726 31.4962C28.4131 31.5217 28.3451 31.5302 28.2601 31.5302H28.1751V31.7767H29.3906V31.5302H29.3056C29.2121 31.5302 29.1611 31.5047 29.1611 31.4622C29.1611 31.4367 29.1611 31.4112 29.1696 31.3772C29.1781 31.3432 29.1951 31.3092 29.2121 31.2752L29.2206 31.2582V31.2412C29.2206 31.2327 29.2206 31.2497 29.2291 31.2327C29.2461 31.1987 29.2546 31.1732 29.2631 31.1477L30.3001 28.5637H32.2211L33.2156 31.0117L33.2241 31.0202L33.2411 31.0627C33.2496 31.0797 33.2496 31.0967 33.2581 31.1052C33.2921 31.1817 33.3176 31.2497 33.3346 31.3092C33.3516 31.3602 33.3601 31.4112 33.3601 31.4452C33.3601 31.4537 33.3601 31.4622 33.3516 31.4707C33.3431 31.4792 33.3431 31.4962 33.3261 31.5132C33.3261 31.5132 33.3176 31.5217 33.3006 31.5217C33.2836 31.5302 33.2496 31.5302 33.2156 31.5302H33.1306V31.7767H34.9411V31.5302H34.8561C34.7711 31.5217 34.6946 31.5132 34.6351 31.4877ZM30.4361 28.1812L31.2521 26.1242L32.0681 28.1812H30.4361ZM43.6366 25.1467V25.1382C43.6451 25.1212 43.6536 25.0957 43.6791 25.0702C43.7046 25.0362 43.7301 25.0022 43.7726 24.9682C43.8066 24.9342 43.8491 24.9087 43.9001 24.8917C43.9511 24.8747 44.0106 24.8577 44.0786 24.8492L44.1636 24.8407V24.6027H42.9651V24.8492H43.0501C43.1096 24.8492 43.1606 24.8577 43.1861 24.8747C43.2031 24.8832 43.2116 24.9087 43.2116 24.9342C43.2116 24.9342 43.2116 24.9427 43.2031 24.9682C43.1946 25.0022 43.1776 25.0447 43.1606 25.1042V25.1212C43.1606 25.1297 43.1521 25.1467 43.1521 25.1467L43.1351 25.1977C43.1266 25.2147 43.1266 25.2232 43.1181 25.2317C43.1181 25.2402 43.1096 25.2487 43.1096 25.2572L41.3841 30.1277L39.6161 25.2742C39.6161 25.2657 39.6076 25.2572 39.6076 25.2402L39.5906 25.1977C39.5651 25.1297 39.5481 25.0787 39.5396 25.0362C39.5311 25.0022 39.5226 24.9767 39.5226 24.9682C39.5226 24.8917 39.5736 24.8492 39.6756 24.8492H39.7606V24.6027H37.9501V24.8492H38.0436C38.1116 24.8492 38.1796 24.8577 38.2391 24.8917C38.2986 24.9172 38.3581 24.9597 38.4091 25.0192C38.4601 25.0787 38.5196 25.1637 38.5706 25.2742C38.6216 25.3847 38.6811 25.5122 38.7321 25.6652L38.8681 26.0477L37.4316 30.1022L35.6551 25.2232C35.6296 25.1637 35.6126 25.1127 35.6041 25.0617C35.5956 25.0192 35.5871 24.9767 35.5871 24.9342C35.5871 24.9087 35.5956 24.8832 35.6126 24.8747C35.6381 24.8577 35.6806 24.8492 35.7401 24.8492H35.8251V24.6027H33.9976V24.8492H34.0911C34.1761 24.8492 34.2526 24.8577 34.3121 24.8832C34.3716 24.9087 34.4226 24.9512 34.4651 25.0022C34.5161 25.0617 34.5586 25.1382 34.6096 25.2317C34.6606 25.3252 34.7031 25.4442 34.7541 25.5717L37.0491 31.8702H37.2871L39.1061 26.6937L40.9846 31.8702H41.2141C41.8686 30.0427 42.7101 27.1017 43.4921 25.4612C43.5006 25.4357 43.5176 25.3932 43.5431 25.3337C43.5686 25.2912 43.5941 25.2232 43.6366 25.1467ZM49.9776 31.4877C49.9181 31.4622 49.8671 31.4282 49.8246 31.3772C49.7736 31.3177 49.7311 31.2582 49.6886 31.1817C49.6461 31.1052 49.6036 31.0202 49.5696 30.9267L49.5271 30.8162L49.5186 30.8077C49.5101 30.7992 49.5101 30.7907 49.5101 30.7822V30.7567L46.9856 24.5092H46.7476L44.1891 30.9522C44.1466 31.0542 44.1041 31.1477 44.0616 31.2242C44.0191 31.3007 43.9851 31.3602 43.9426 31.4027C43.9086 31.4452 43.8661 31.4707 43.8151 31.4962C43.7556 31.5217 43.6876 31.5302 43.6026 31.5302H43.5176V31.7767H44.7331V31.5302H44.6481C44.5546 31.5302 44.5036 31.5047 44.5036 31.4622C44.5036 31.4367 44.5036 31.4112 44.5121 31.3772C44.5206 31.3432 44.5376 31.3092 44.5546 31.2752L44.5631 31.2582V31.2412C44.5631 31.2327 44.5631 31.2497 44.5716 31.2327C44.5886 31.1902 44.5971 31.1732 44.6056 31.1477L45.6426 28.5637H47.5636L48.5581 31.0117L48.5666 31.0202C48.5666 31.0287 48.5751 31.0287 48.5751 31.0457L48.5836 31.0712C48.5921 31.0882 48.5921 31.1052 48.6006 31.1137C48.6346 31.1902 48.6601 31.2582 48.6771 31.3177C48.6941 31.3687 48.7026 31.4197 48.7026 31.4537C48.7026 31.4622 48.7026 31.4707 48.6941 31.4792C48.6856 31.4877 48.6856 31.5047 48.6686 31.5217C48.6686 31.5217 48.6601 31.5302 48.6431 31.5302C48.6261 31.5387 48.5921 31.5387 48.5581 31.5387H48.4731V31.7852H50.2836V31.5387H50.1986C50.1136 31.5217 50.0456 31.5132 49.9776 31.4877ZM45.7786 28.1812L46.5946 26.1242L47.4106 28.1812H45.7786ZM57.8146 31.1477C57.7891 31.1647 57.7636 31.1732 57.7211 31.1987C57.6871 31.2157 57.6616 31.2327 57.6361 31.2412C57.6106 31.2497 57.5851 31.2667 57.5681 31.2752H57.5596C57.5001 31.3092 57.4321 31.3262 57.3556 31.3432C57.2791 31.3602 57.2026 31.3687 57.1261 31.3687C57.0143 31.3682 56.903 31.3539 56.7946 31.3262C56.6926 31.3007 56.5906 31.2582 56.4971 31.1987C56.3951 31.1392 56.3101 31.0797 56.2336 31.0202C56.1571 30.9607 56.0891 30.9012 56.0381 30.8332C55.9021 30.6802 55.7661 30.5102 55.6216 30.3232C55.4771 30.1362 55.3241 29.9237 55.1626 29.7027C55.0011 29.4732 54.8651 29.2862 54.7716 29.1417C54.6781 29.0057 54.6186 28.9037 54.5846 28.8527C54.4401 28.5977 54.2531 28.3427 54.0916 28.0962C54.1766 28.0452 54.2531 27.9942 54.3381 27.9347C54.4401 27.8582 54.5421 27.7732 54.6356 27.6712C54.7291 27.5777 54.8226 27.4757 54.8991 27.3652C54.9756 27.2547 55.0436 27.1357 55.1031 27.0167C55.1626 26.8977 55.2051 26.7702 55.2391 26.6342C55.2646 26.5067 55.2816 26.3707 55.2816 26.2347C55.2816 26.0392 55.2561 25.8607 55.2051 25.7077C55.1541 25.5462 55.0861 25.4017 54.9841 25.2657C54.8906 25.1382 54.7716 25.0277 54.6441 24.9427C54.5166 24.8577 54.3721 24.7897 54.2106 24.7387C54.1256 24.7132 54.0321 24.6877 53.9386 24.6707C53.8451 24.6537 53.7431 24.6367 53.6496 24.6282C53.5561 24.6197 53.4201 24.6197 53.2671 24.6112C53.0971 24.6112 52.9101 24.6027 52.7061 24.6027H50.6321V24.8407H50.7171C50.7766 24.8407 50.8361 24.8492 50.8871 24.8577C50.9296 24.8662 50.9636 24.8747 50.9891 24.8832C51.0061 24.8917 51.0231 24.9002 51.0401 24.9172C51.0571 24.9342 51.0741 24.9682 51.0911 25.0022C51.1081 25.0362 51.1166 25.0872 51.1251 25.1552C51.1336 25.2232 51.1336 25.2997 51.1336 25.3932V30.9522C51.1336 31.0882 51.1251 31.1902 51.1166 31.2752C51.1081 31.3517 51.0911 31.4027 51.0656 31.4367C51.0486 31.4622 51.0146 31.4792 50.9636 31.4962C50.9041 31.5132 50.8191 31.5302 50.7171 31.5302H50.6321V31.7682H52.6126V31.5302H52.5276C52.4596 31.5302 52.4086 31.5217 52.3661 31.5132C52.3236 31.5047 52.2896 31.4962 52.2641 31.4877C52.2471 31.4792 52.2301 31.4707 52.2131 31.4537C52.1961 31.4367 52.1791 31.4027 52.1621 31.3772C52.1451 31.3432 52.1366 31.2922 52.1281 31.2327C52.1196 31.1732 52.1196 31.1052 52.1196 31.0202V28.4362H52.8421C52.9016 28.4362 52.9441 28.4277 52.9696 28.4277L53.1736 28.4192L53.8536 29.4562L53.8621 29.4647V29.4817L53.8791 29.5072C54.0916 29.8217 54.2956 30.1192 54.4911 30.3912C54.6866 30.6632 54.8821 30.9097 55.0691 31.1392C55.1456 31.2327 55.2221 31.3092 55.2986 31.3857C55.3836 31.4622 55.4686 31.5217 55.5536 31.5812C55.6386 31.6322 55.7236 31.6832 55.8086 31.7172C55.8936 31.7512 55.9701 31.7852 56.0551 31.8022C56.1316 31.8192 56.2081 31.8362 56.2846 31.8447C56.3611 31.8532 56.4376 31.8617 56.5141 31.8617C56.5991 31.8617 56.6926 31.8532 56.7861 31.8532C56.8796 31.8447 56.9731 31.8362 57.0581 31.8192C57.1516 31.8022 57.2281 31.7852 57.2961 31.7682C57.3641 31.7512 57.4321 31.7342 57.4831 31.7087C57.5766 31.6662 57.6786 31.6237 57.7721 31.5642C57.8656 31.5132 57.9591 31.4452 58.0441 31.3772L58.0951 31.3432L58.0186 31.0882L57.8146 31.1477ZM53.7091 27.8837C53.6581 27.9092 53.5986 27.9347 53.5306 27.9517C53.4541 27.9772 53.3691 27.9942 53.2671 28.0112C53.1651 28.0282 53.0716 28.0452 52.9866 28.0537C52.9016 28.0622 52.8251 28.0622 52.7571 28.0622H52.1111V24.9682H52.5956C52.7571 24.9682 52.9016 24.9767 53.0291 24.9937C53.1566 25.0107 53.2671 25.0362 53.3606 25.0702C53.4541 25.1042 53.5476 25.1467 53.6326 25.1977C53.7176 25.2487 53.7941 25.3082 53.8621 25.3762C53.9216 25.4357 53.9726 25.4952 54.0236 25.5632C54.0746 25.6312 54.1171 25.6992 54.1511 25.7672C54.1851 25.8437 54.2191 25.9117 54.2446 25.9882C54.2701 26.0647 54.2956 26.1412 54.3126 26.2262C54.3296 26.3027 54.3466 26.3792 54.3551 26.4557C54.3636 26.5322 54.3721 26.6002 54.3721 26.6682C54.3721 26.8212 54.3551 26.9572 54.3211 27.0847C54.2871 27.2122 54.2446 27.3227 54.1766 27.4162C54.1086 27.5182 54.0406 27.6032 53.9641 27.6797C53.8791 27.7647 53.7941 27.8327 53.7091 27.8837ZM66.0511 27.3992C66.0171 27.2122 65.9746 27.0252 65.9151 26.8552C65.8556 26.6767 65.7876 26.5152 65.7026 26.3622C65.6176 26.2092 65.5241 26.0647 65.4221 25.9287C65.3201 25.7927 65.2011 25.6737 65.0821 25.5632C64.9631 25.4527 64.8356 25.3507 64.6996 25.2657C64.5466 25.1637 64.3766 25.0787 64.1896 24.9937C64.0026 24.9172 63.8071 24.8407 63.5861 24.7812C63.3651 24.7217 63.1016 24.6792 62.7786 24.6452C62.4641 24.6197 62.0986 24.6027 61.6821 24.6027H58.3841V24.8407H58.4691C58.5796 24.8407 58.6561 24.8577 58.7241 24.8747C58.7751 24.8917 58.8091 24.9172 58.8176 24.9427C58.8346 24.9852 58.8516 25.0532 58.8686 25.1467C58.8771 25.2487 58.8856 25.3847 58.8856 25.5547V30.6462C58.8856 30.7822 58.8856 30.8927 58.8771 30.9862C58.8686 31.0797 58.8601 31.1647 58.8516 31.2242C58.8431 31.2837 58.8261 31.3347 58.8091 31.3687C58.7921 31.4027 58.7751 31.4282 58.7581 31.4537C58.7156 31.4877 58.6561 31.5132 58.5626 31.5132H58.3926V31.7597H61.7586C62.0476 31.7597 62.3111 31.7512 62.5491 31.7342C62.7871 31.7172 62.9996 31.6917 63.1951 31.6662C63.3821 31.6322 63.5606 31.5897 63.7221 31.5387C63.8836 31.4877 64.0366 31.4197 64.1726 31.3347C64.3001 31.2582 64.4276 31.1732 64.5466 31.0882C64.6656 30.9947 64.7846 30.8927 64.8951 30.7907C65.0056 30.6802 65.1161 30.5612 65.2181 30.4337C65.3201 30.3062 65.4136 30.1617 65.5071 30.0172C65.6006 29.8642 65.6771 29.7112 65.7536 29.5497C65.8216 29.3882 65.8896 29.2267 65.9406 29.0567C65.9916 28.8867 66.0341 28.7082 66.0596 28.5297C66.0851 28.3512 66.1021 28.1642 66.1021 27.9772C66.0936 27.7817 66.0766 27.5862 66.0511 27.3992ZM65.0821 28.9292C65.0396 29.1417 64.9716 29.3627 64.8866 29.5752C64.8016 29.7877 64.6996 29.9832 64.5806 30.1617C64.4616 30.3402 64.3341 30.4932 64.1981 30.6292C64.1046 30.7227 64.0026 30.8077 63.8921 30.8757C63.7901 30.9522 63.6711 31.0117 63.5521 31.0712C63.4331 31.1307 63.3056 31.1732 63.1696 31.2157C63.0336 31.2582 62.8891 31.2922 62.7361 31.3177C62.5831 31.3432 62.4216 31.3687 62.2431 31.3772C62.0646 31.3942 61.8776 31.4027 61.6821 31.4027C61.4186 31.4027 61.1891 31.3942 60.9936 31.3687C60.7981 31.3432 60.6366 31.3177 60.5006 31.2752C60.3731 31.2327 60.2711 31.1817 60.1861 31.1222C60.1096 31.0627 60.0501 30.9947 60.0076 30.9267C59.9651 30.8502 59.9396 30.7567 59.9141 30.6462C59.8886 30.5357 59.8801 30.4082 59.8801 30.2637V24.9257H60.8661C61.2486 24.9257 61.6141 24.9512 61.9371 25.0022C62.2686 25.0532 62.5746 25.1212 62.8466 25.2147C63.0591 25.2827 63.2546 25.3677 63.4331 25.4612C63.6116 25.5547 63.7816 25.6652 63.9261 25.7842C64.0791 25.9032 64.2151 26.0307 64.3341 26.1582C64.4531 26.2857 64.5551 26.4217 64.6401 26.5577C64.7251 26.6937 64.8016 26.8382 64.8696 26.9827C64.9376 27.1272 64.9886 27.2717 65.0226 27.4162C65.1076 27.7052 65.1416 27.9942 65.1416 28.2832C65.1501 28.5042 65.1246 28.7167 65.0821 28.9292Z" fill="#9AA1B3"/>
</svg>
