<svg width="47" height="49" viewBox="0 0 47 49" fill="none" xmlns="http://www.w3.org/2000/svg">
<path d="M5.66191 39.5427H1.94151V43.6314H0V33.7887H6.34094V35.312H1.94151V38.0209H5.66191V39.5427ZM9.50785 43.6314H7.56491V36.3179H9.50785V43.6314ZM9.50785 34.5656H7.56491V33.0872H9.50785V34.5656ZM12.9144 36.3179L13.0014 37.3643C13.2425 36.9918 13.5364 36.7005 13.8873 36.4932C14.2368 36.2845 14.6291 36.1816 15.0656 36.1816C15.7917 36.1816 16.3595 36.4193 16.7689 36.8962C17.1755 37.3716 17.3795 38.1223 17.3795 39.1514V43.6314H15.4308V39.1557C15.4308 38.634 15.3409 38.2629 15.1612 38.0455C14.9815 37.8267 14.7118 37.7151 14.3524 37.7151C14.0642 37.7151 13.8103 37.7716 13.592 37.8817C13.3709 37.9933 13.1897 38.1455 13.0485 38.3383V43.6314H11.107V36.3179H12.9144ZM23.1098 43.6314C23.0385 43.4662 22.9772 43.2908 22.9272 43.1038C22.8759 42.9183 22.8388 42.7299 22.816 42.5357C22.6163 42.8937 22.3524 43.1893 22.0257 43.4212C21.6961 43.6575 21.3067 43.772 20.8545 43.7749C20.0999 43.772 19.5193 43.5763 19.1127 43.1821C18.7033 42.7879 18.4993 42.2501 18.4993 41.5689C18.4993 40.8544 18.7718 40.2978 19.3138 39.9036C19.8573 39.5079 20.6491 39.3123 21.6919 39.3123H22.7846V38.7311C22.7846 38.3803 22.6933 38.1064 22.5121 37.9122C22.3295 37.7209 22.0571 37.6238 21.699 37.6238C21.3852 37.6238 21.1427 37.6991 20.97 37.8571C20.7989 38.0107 20.7161 38.2238 20.7161 38.4934H18.8445L18.8331 38.4542C18.8017 37.8354 19.067 37.302 19.6277 36.8556C20.1883 36.4077 20.9201 36.1816 21.826 36.1816C22.6919 36.1816 23.3909 36.4034 23.9244 36.8454C24.4579 37.2861 24.7261 37.9194 24.7261 38.7441V41.7646C24.7261 42.1096 24.7518 42.4299 24.8031 42.7313C24.8531 43.0343 24.9344 43.3343 25.0457 43.6314H23.1098ZM21.3338 42.3139C21.6719 42.3139 21.9715 42.2284 22.2397 42.0559C22.505 41.8849 22.6862 41.6863 22.7846 41.4631V40.4268H21.6919C21.281 40.4268 20.9672 40.5312 20.7589 40.7385C20.5478 40.9457 20.4408 41.1994 20.4408 41.5023C20.4408 41.7516 20.5207 41.9472 20.6776 42.0922C20.8359 42.24 21.0542 42.3139 21.3338 42.3139ZM27.9943 36.3179L28.0799 37.3643C28.321 36.9918 28.6163 36.7005 28.9658 36.4932C29.3153 36.2845 29.709 36.1816 30.1441 36.1816C30.8716 36.1816 31.4394 36.4193 31.8474 36.8962C32.2539 37.3716 32.4593 38.1223 32.4593 39.1514V43.6314H30.5107V39.1557C30.5107 38.634 30.4194 38.2629 30.2397 38.0455C30.0599 37.8267 29.7903 37.7151 29.4308 37.7151C29.1427 37.7151 28.8887 37.7716 28.6705 37.8817C28.4508 37.9933 28.2682 38.1455 28.1284 38.3383V43.6314H26.1869V36.3179H27.9943ZM36.9501 42.2588C37.2896 42.2588 37.5563 42.1574 37.7575 41.9516C37.9572 41.7472 38.0571 41.4718 38.0571 41.1312H39.826L39.8388 41.1718C39.8573 41.911 39.5877 42.5284 39.0257 43.027C38.4679 43.5256 37.7775 43.772 36.9501 43.7749C35.8873 43.772 35.0628 43.4285 34.4822 42.7371C33.903 42.0443 33.612 41.1602 33.612 40.0833V39.8804C33.612 38.8064 33.9001 37.9238 34.4793 37.2266C35.0585 36.5295 35.8787 36.1816 36.9387 36.1816C37.816 36.1816 38.525 36.4396 39.0599 36.9527C39.5963 37.4672 39.8573 38.1426 39.8388 38.9804L39.826 39.0224H38.0571C38.0571 38.6427 37.9572 38.3296 37.7589 38.0774C37.5621 37.8281 37.2896 37.7035 36.9387 37.7035C36.438 37.7035 36.0813 37.9078 35.8702 38.3151C35.6605 38.7238 35.5535 39.2456 35.5535 39.8804V40.0833C35.5535 40.7312 35.6605 41.2573 35.8702 41.6588C36.0813 42.0588 36.4422 42.2588 36.9501 42.2588ZM44.1241 43.7749C43.0528 43.772 42.2126 43.4386 41.6106 42.769C41.0071 42.0994 40.7047 41.2385 40.7047 40.1848V39.9152C40.7047 38.818 40.9971 37.9209 41.5835 37.2237C42.1698 36.5251 42.9729 36.1773 44 36.1816C44.9643 36.1816 45.7076 36.4831 46.2225 37.086C46.7404 37.6861 47 38.4963 47 39.5152V40.5355H42.7076L42.6876 40.5776C42.719 41.0776 42.8688 41.482 43.137 41.7921C43.4051 42.1038 43.8046 42.2588 44.331 42.2588C44.7646 42.2588 45.1355 42.2154 45.4394 42.1255C45.7432 42.0356 46.0571 41.8965 46.3795 41.7124L46.9058 42.9285C46.6177 43.1676 46.2268 43.3691 45.7347 43.5299C45.2425 43.6923 44.7061 43.772 44.1241 43.7749ZM44 37.7035C43.6091 37.7035 43.3067 37.8397 43.0984 38.1122C42.8873 38.3847 42.7603 38.747 42.7147 39.1978L42.7275 39.2311H45.097V39.0818C45.097 38.6543 45.01 38.318 44.8374 38.0716C44.6633 37.8267 44.3837 37.7035 44 37.7035Z" fill="#9AA1B3"/>
<path d="M20.6277 48.9406V44.7983H21.9743C22.4907 44.7983 22.9116 44.9621 23.2354 45.2911C23.5592 45.6186 23.7218 46.0418 23.7218 46.5564V47.1854C23.7218 47.7028 23.5592 48.1246 23.2354 48.4507C22.9116 48.7768 22.4907 48.9406 21.9743 48.9406H20.6277ZM21.3081 45.3534V48.3884H21.9743C22.301 48.3884 22.5606 48.2768 22.7532 48.0507C22.9458 47.826 23.0414 47.5376 23.0414 47.1854V46.5506C23.0414 46.2027 22.9458 45.9157 22.7532 45.6911C22.5606 45.465 22.301 45.3534 21.9743 45.3534H21.3081ZM25.6847 49C25.2425 49 24.8959 48.858 24.6476 48.5739C24.398 48.2913 24.2739 47.9231 24.2739 47.4724V47.3593C24.2739 46.9071 24.398 46.5361 24.6476 46.2418C24.8959 45.9491 25.2168 45.8041 25.612 45.8056C26.0185 45.8056 26.3267 45.9331 26.5349 46.1882C26.7446 46.4433 26.8488 46.7839 26.8488 47.2115V47.584H24.9772L24.9715 47.597C24.9772 47.8492 25.0442 48.055 25.1669 48.2115C25.2896 48.3695 25.475 48.4478 25.7232 48.4478C25.9087 48.4478 26.0685 48.426 26.204 48.3797C26.3395 48.3347 26.465 48.2695 26.5806 48.184L26.8017 48.6348C26.6862 48.7377 26.5321 48.8246 26.3424 48.8942C26.1512 48.9638 25.9329 49 25.6847 49ZM25.612 46.3607C25.4337 46.3607 25.2924 46.4259 25.1854 46.5549C25.0799 46.6854 25.0143 46.8549 24.9872 47.0622L24.9929 47.0767H26.1769V47.0231C26.1769 46.8259 26.1312 46.6665 26.0414 46.5448C25.9515 46.4216 25.8074 46.3607 25.612 46.3607ZM28.9101 46.4853L28.6177 46.4737C28.4864 46.4737 28.3752 46.5027 28.2867 46.5593C28.1983 46.6158 28.1298 46.6969 28.0813 46.8013V48.9406H27.4009V45.8621H28.0214L28.067 46.3085C28.1426 46.152 28.2411 46.0288 28.3623 45.9389C28.4822 45.8505 28.6205 45.8056 28.7775 45.8056C28.8188 45.8056 28.8573 45.8099 28.893 45.8157C28.9287 45.823 28.9615 45.8302 28.99 45.8404L28.9101 46.4853ZM30.1384 48.9406H29.4579V45.8621H30.1384V48.9406ZM30.1384 45.1099H29.4579V44.504H30.1384V45.1099ZM31.9529 47.8999L32.0028 48.1492H32.02L32.0728 47.8999L32.6747 45.8621H33.378L32.3024 48.9406H31.7118L30.6319 45.8621H31.3338L31.9529 47.8999ZM35.5892 48.9406C35.5649 48.8623 35.5449 48.7869 35.5278 48.713C35.5135 48.6377 35.5021 48.5637 35.4964 48.4913C35.4051 48.6348 35.2824 48.7551 35.1298 48.8536C34.9772 48.9507 34.806 49 34.6177 49C34.301 49 34.0599 48.9174 33.8902 48.7522C33.7218 48.5884 33.6377 48.3608 33.6377 48.0724C33.6377 47.7753 33.7532 47.5434 33.9843 47.3767C34.2168 47.2115 34.5406 47.1289 34.9615 47.1289H35.4907V46.8578C35.4907 46.6969 35.4436 46.5709 35.3523 46.4795C35.2596 46.3882 35.1255 46.3433 34.9501 46.3433C34.796 46.3433 34.6719 46.381 34.5806 46.4564C34.4893 46.5303 34.4436 46.6274 34.4436 46.7477L33.7889 46.7506L33.786 46.7332C33.7732 46.4911 33.8802 46.2752 34.107 46.0868C34.3324 45.8998 34.6277 45.8056 34.9929 45.8056C35.3452 45.8056 35.6291 45.8969 35.8459 46.0795C36.0628 46.2607 36.1712 46.523 36.1712 46.8636V48.2318C36.1712 48.3579 36.1783 48.4811 36.1969 48.5971C36.214 48.7145 36.2397 48.829 36.2767 48.9406H35.5892ZM34.7575 48.4449C34.9272 48.4449 35.0799 48.4014 35.2183 48.3144C35.3552 48.2275 35.4465 48.1275 35.4907 48.0159V47.5608H34.9501C34.7518 47.5608 34.5977 47.6101 34.4864 47.7101C34.3737 47.8086 34.3181 47.926 34.3181 48.0623C34.3181 48.1797 34.3552 48.2724 34.4308 48.3405C34.5064 48.4116 34.6163 48.4449 34.7575 48.4449ZM37.7532 45.1157V45.8621H38.2953V46.3737H37.7532V48.0753C37.7532 48.2028 37.7789 48.2942 37.8345 48.3463C37.8887 48.4014 37.9601 48.4289 38.0499 48.4289C38.087 48.4289 38.1241 48.4246 38.1583 48.4174C38.194 48.4116 38.2282 48.4029 38.2596 48.3913L38.3324 48.8971C38.2739 48.929 38.2054 48.9551 38.127 48.9725C38.0471 48.9913 37.9643 49 37.8787 49C37.6291 49 37.4322 48.9261 37.2896 48.7768C37.1469 48.6275 37.0756 48.3942 37.0756 48.0753V46.3737H36.6134V45.8621H37.0756V45.1157H37.7532ZM39.5706 48.9406H38.8901V45.8621H39.5706V48.9406ZM39.5706 45.1099H38.8901V44.504H39.5706V45.1099ZM41.3852 47.8999L41.4337 48.1492H41.4508L41.505 47.8999L42.1056 45.8621H42.8088L41.7347 48.9406H41.1441L40.0628 45.8621H40.766L41.3852 47.8999ZM44.4864 49C44.0442 49 43.6976 48.858 43.4479 48.5739C43.1997 48.2913 43.0742 47.9231 43.0742 47.4724V47.3593C43.0742 46.9071 43.1997 46.5361 43.4479 46.2418C43.6976 45.9491 44.0185 45.8041 44.4137 45.8056C44.8202 45.8056 45.1284 45.9331 45.3367 46.1882C45.5464 46.4433 45.6505 46.7839 45.6505 47.2115V47.584H43.7775L43.7717 47.597C43.7789 47.8492 43.8445 48.055 43.9686 48.2115C44.0913 48.3695 44.2767 48.4478 44.525 48.4478C44.7104 48.4478 44.8702 48.426 45.0043 48.3797C45.1412 48.3347 45.2653 48.2695 45.3809 48.184L45.6034 48.6348C45.4879 48.7377 45.3338 48.8246 45.1441 48.8942C44.9529 48.9638 44.7347 49 44.4864 49ZM44.4137 46.3607C44.2354 46.3607 44.0941 46.4259 43.9872 46.5549C43.8816 46.6854 43.816 46.8549 43.7889 47.0622L43.7946 47.0767H44.9786V47.0231C44.9786 46.8259 44.9329 46.6665 44.8431 46.5448C44.7532 46.4216 44.6091 46.3607 44.4137 46.3607Z" fill="#9AA1B3"/>
<path fill-rule="evenodd" clip-rule="evenodd" d="M10.374 0H28.3321C28.5527 0 28.732 0.182119 28.732 0.406266V5.02649C28.732 5.25063 28.5527 5.43275 28.3321 5.43275H15.7212C15.5006 5.43275 15.3213 5.61487 15.3213 5.83902V15.9845C15.3213 16.2086 15.5006 16.3935 15.7212 16.3935H28.3321C28.5527 16.3935 28.732 16.5756 28.732 16.7998V21.4172C28.732 21.6414 28.5527 21.8263 28.3321 21.8263H15.7212C15.5006 21.8263 15.3213 22.0084 15.3213 22.2325V29.5229C15.3213 29.7471 15.1421 29.9292 14.9215 29.9292H10.374C10.1534 29.9292 9.97418 29.7471 9.97418 29.5229C9.97418 19.8174 9.97418 10.1118 9.97418 0.406266C9.97418 0.182119 10.1534 0 10.374 0Z" fill="#9AA1B3"/>
<path fill-rule="evenodd" clip-rule="evenodd" d="M18.0349 29.5228V24.9054C18.0349 24.6812 18.2169 24.4963 18.4375 24.4963H31.0457C31.2663 24.4963 31.4455 24.3142 31.4455 24.09V14.0455C31.4455 13.8213 31.2663 13.6364 31.0457 13.6364H18.4375C18.2169 13.6364 18.0349 13.4543 18.0349 13.2301V8.61273C18.0349 8.38858 18.2169 8.20366 18.4375 8.20366H32.1156C34.6913 8.20366 36.7927 10.3415 36.7927 12.9584C36.7927 17.0294 36.7927 21.1033 36.7927 25.1772C36.7927 27.7941 34.6913 29.9291 32.1156 29.9291H18.4375C18.2169 29.9291 18.0349 29.7469 18.0349 29.5228Z" fill="#9AA1B3"/>
</svg>
