<svg width="37" height="57" viewBox="0 0 37 57" fill="none" xmlns="http://www.w3.org/2000/svg">
<path fill-rule="evenodd" clip-rule="evenodd" d="M17.7809 0.83973C16.6718 2.18772 16.5213 2.60973 16.9239 3.24242C17.2646 3.77794 17.2596 3.78712 16.6133 3.78712C16.2518 3.78712 15.9561 3.88786 15.9561 4.011C15.9561 4.13413 16.0994 4.23488 16.2746 4.23488C17.2631 4.23488 17.5487 7.00361 17.2448 13.6379C16.975 19.5232 16.8781 19.9065 15.6576 19.9065C14.3261 19.9065 11.9307 17.6171 10.8233 15.2861C10.3052 14.1956 10.26 13.8962 10.3476 12.1247C10.4485 10.0822 11.0565 8.37824 12.1042 7.20219C12.3505 6.9257 12.49 6.63555 12.4144 6.55742C12.3385 6.47951 11.6546 7.05846 10.8942 7.84383C8.64676 10.1661 7.78133 12.5966 7.96285 16.0782C8.08024 18.3273 8.64481 20.1228 9.79763 21.9127L10.5963 23.1528L9.74372 22.3947C6.38829 19.412 4.71372 15.0559 5.28655 10.8013C5.68176 7.86622 6.74415 5.22018 8.39481 3.05951C9.31611 1.85346 8.84807 2.02518 7.3122 3.45645C1.59481 8.78481 -0.0219328 17.0505 3.23394 24.3076C4.70328 27.5827 7.34089 30.657 10.1218 32.3355C14.4709 34.9605 20.2387 35.4123 24.8598 33.49C30.1807 31.2767 34.1802 26.1873 35.3952 20.0838C36.5761 14.1512 34.7878 8.3001 30.4648 3.95189C28.5335 2.00906 27.8418 1.60518 28.9163 3.04742C29.9285 4.40615 31.2796 7.30249 31.7113 9.03936C32.1374 10.7529 32.1368 14.0688 31.7102 15.7553C31.2181 17.7017 30.1524 19.5965 28.5881 21.3073C27.8235 22.1435 27.1583 22.7863 27.1096 22.7362C27.0607 22.686 27.3196 22.1594 27.6848 21.5664C28.7402 19.8526 29.2546 18.1909 29.3768 16.1006C29.5722 12.7576 28.5715 9.99667 26.3555 7.76346C24.9074 6.30421 24.302 6.04988 25.2837 7.31324C26.3457 8.67958 26.8887 10.204 26.9994 12.1303C27.0911 13.7274 27.045 13.9824 26.4322 15.2646C26.0652 16.0323 25.3959 17.1042 24.945 17.6467C23.3202 19.6012 21.0755 20.5249 20.5248 19.4653C20.2259 18.8903 19.7874 9.80995 19.9437 7.43167C20.0726 5.46757 20.297 4.8004 21.0359 4.18383C21.4963 3.79988 21.4944 3.79697 20.7496 3.79204C20.1663 3.78824 20.0576 3.72734 20.2605 3.51846C20.7713 2.99234 20.5437 2.08518 19.6333 1.02018C19.1448 0.44861 18.6802 -0.010345 18.6007 0.000177384C18.5211 0.0104759 18.1522 0.388386 17.7809 0.83973ZM17.6952 8.04085H19.6518V4.90652H17.6952V8.04085Z" fill="#9AA1B3"/>
<path fill-rule="evenodd" clip-rule="evenodd" d="M1.39084 46.5671H5.73866V31.6094L4.94932 30.6369C3.78019 29.1962 2.5191 27.225 1.92236 25.905L1.39519 24.7388L1.39084 46.5671ZM35.4302 25.8967C34.9076 27.2055 33.1647 29.8999 32.2784 30.7694L31.6082 31.427V46.5671H35.9561V35.7089C35.9561 29.7369 35.9315 24.8512 35.9017 24.8516C35.8719 24.8521 35.6597 25.3224 35.4302 25.8967ZM8.99953 46.5671H13.3474L13.3458 36.3806L8.99953 34.2902V46.5671ZM26.2278 35.2936L24.2169 36.295V46.5671H28.3474V40.4104C28.3474 37.0242 28.3228 34.2624 28.293 34.2729C28.2632 34.2835 27.3339 34.7429 26.2278 35.2936ZM16.6082 46.5671H20.7387V37.0522H16.6082V46.5671ZM0.956055 56.194H3.56475L3.60019 53.6194L3.93301 54.403C4.11605 54.8339 4.36519 55.4384 4.48671 55.7462C4.69888 56.2842 4.73127 56.254 5.32105 54.9627L5.93475 53.6194L5.95605 56.194H8.56475V49.0298H5.96301L4.74236 51.5158L3.48475 49.0298H0.956055V56.194ZM33.5648 56.194H36.1734V48.8059H33.5648V56.194ZM9.43279 50.3171C9.43068 52.3866 10.6579 54.3547 11.478 56.194C12.1736 56.194 12.8692 56.194 13.5648 56.194C13.5648 56.194 14.1304 54.8507 14.2261 54.8507C14.3215 54.8507 14.7604 56.194 14.7604 56.194H16.8341C16.8341 56.194 18.9995 52.8358 18.9995 50.23V49.0298H16.3908V50.3585C16.3908 51.0893 16.2821 51.9709 16.1495 52.3175C15.9252 52.9032 15.8956 52.9159 15.73 52.5C15.6319 52.2537 15.545 51.3723 15.5365 50.541L15.5213 49.0298H12.9126L12.8974 50.541C12.8889 51.3723 12.8019 52.2537 12.7039 52.5C12.5382 52.9159 12.5087 52.9032 12.2843 52.3175C12.1517 51.9709 12.043 51.0893 12.043 50.3585V49.0298H9.43432L9.43279 50.3171ZM20.6482 52.3321C20.0665 54.1484 19.4902 56.0514 19.4343 56.2052C20.1952 56.2052 21.8256 56.2052 22.1517 56.2052L22.2604 55.7462C22.2604 55.7462 23.7821 55.7462 24.2169 55.7462C24.3256 55.9701 24.4343 56.1483 24.4343 56.2052C24.7437 56.2052 27.043 56.194 27.043 56.194C27.043 56.194 25.3245 50.8504 24.9808 49.9813L24.6045 49.0298H21.7056L20.6482 52.3321ZM27.4778 56.194H32.9126V53.9552H30.0865V49.0298H27.4778V56.194ZM22.5865 53.2835H23.9995C23.9995 53.2835 23.6734 52.1641 23.2387 52.1641C22.8039 52.1641 22.5865 53.2835 22.5865 53.2835Z" fill="#9AA1B3"/>
</svg>
