<svg width="60" height="58" viewBox="0 0 60 58" fill="none" xmlns="http://www.w3.org/2000/svg">
<rect width="59.8705" height="57.8705" rx="21" fill="#EAF4FF"/>
<g filter="url(#filter0_d_3831_42)">
<mask id="path-2-inside-1_3831_42" fill="white">
<path d="M20.6709 19.6431C20.2445 19.2155 19.5487 19.212 19.1533 19.6685C17.1012 22.037 15.8361 24.9973 15.5516 28.1366C15.2341 31.64 16.158 35.1436 18.1619 38.0349C20.1657 40.9261 23.122 43.0212 26.5139 43.9537C29.9059 44.8863 33.5177 44.597 36.718 43.1365C39.9182 41.676 42.5034 39.1372 44.0216 35.9639C45.5398 32.7906 45.8943 29.1846 45.0233 25.7763C44.1523 22.3681 42.1111 19.3744 39.2566 17.3185C36.6987 15.4764 33.6336 14.4923 30.4997 14.4904C29.8958 14.49 29.4425 15.0178 29.4861 15.6201C29.5297 16.2225 30.0539 16.6705 30.6577 16.6784C33.2791 16.7126 35.837 17.5508 37.9785 19.0931C40.4169 20.8492 42.1605 23.4065 42.9045 26.3178C43.6485 29.2292 43.3457 32.3094 42.0488 35.0201C40.752 37.7308 38.5437 39.8995 35.81 41.147C33.0763 42.3946 29.9911 42.6417 27.0937 41.8451C24.1963 41.0485 21.671 39.2589 19.9593 36.7891C18.2476 34.3194 17.4584 31.3266 17.7296 28.334C17.9678 25.7056 19.0106 23.2242 20.7025 21.2215C21.0922 20.7602 21.0973 20.0707 20.6709 19.6431Z"/>
</mask>
<path d="M20.6709 19.6431C20.2445 19.2155 19.5487 19.212 19.1533 19.6685C17.1012 22.037 15.8361 24.9973 15.5516 28.1366C15.2341 31.64 16.158 35.1436 18.1619 38.0349C20.1657 40.9261 23.122 43.0212 26.5139 43.9537C29.9059 44.8863 33.5177 44.597 36.718 43.1365C39.9182 41.676 42.5034 39.1372 44.0216 35.9639C45.5398 32.7906 45.8943 29.1846 45.0233 25.7763C44.1523 22.3681 42.1111 19.3744 39.2566 17.3185C36.6987 15.4764 33.6336 14.4923 30.4997 14.4904C29.8958 14.49 29.4425 15.0178 29.4861 15.6201C29.5297 16.2225 30.0539 16.6705 30.6577 16.6784C33.2791 16.7126 35.837 17.5508 37.9785 19.0931C40.4169 20.8492 42.1605 23.4065 42.9045 26.3178C43.6485 29.2292 43.3457 32.3094 42.0488 35.0201C40.752 37.7308 38.5437 39.8995 35.81 41.147C33.0763 42.3946 29.9911 42.6417 27.0937 41.8451C24.1963 41.0485 21.671 39.2589 19.9593 36.7891C18.2476 34.3194 17.4584 31.3266 17.7296 28.334C17.9678 25.7056 19.0106 23.2242 20.7025 21.2215C21.0922 20.7602 21.0973 20.0707 20.6709 19.6431Z" stroke="#0792FF" stroke-width="4" mask="url(#path-2-inside-1_3831_42)"/>
<path d="M24.7905 15.6636C24.6571 15.5866 24.6571 15.3942 24.7905 15.3172L30.1905 12.1995C30.3238 12.1225 30.4905 12.2187 30.4905 12.3727L30.4905 18.6081C30.4905 18.762 30.3238 18.8583 30.1905 18.7813L24.7905 15.6636Z" fill="#0792FF"/>
</g>
<g filter="url(#filter1_d_3831_42)">
<path d="M36.1328 31.9473C36.1328 33.1191 35.7715 34.0599 35.0488 34.7695C34.3327 35.4792 33.3822 35.9251 32.1973 36.1074V37.5137H29.8926V36.1172C28.6361 35.9284 27.64 35.4401 26.9043 34.6523C26.1751 33.8646 25.8105 32.8555 25.8105 31.625H28.75C28.75 32.2174 28.9681 32.6764 29.4043 33.002C29.8405 33.321 30.3743 33.4805 31.0059 33.4805C31.5853 33.4805 32.0898 33.3438 32.5195 33.0703C32.9557 32.7969 33.1738 32.4323 33.1738 31.9766C33.1738 31.4753 32.8581 31.0879 32.2266 30.8145C31.9271 30.6842 31.3542 30.5182 30.5078 30.3164C29.362 30.043 28.5352 29.7826 28.0273 29.5352C26.8099 28.9427 26.1426 28.0182 26.0254 26.7617C26.0124 26.6185 26.0059 26.472 26.0059 26.3223C26.0059 25.235 26.3346 24.3561 26.9922 23.6855C27.6497 23.015 28.5612 22.5951 29.7266 22.4258V21.127H32.0508V22.4258C33.2292 22.6081 34.1374 23.0703 34.7754 23.8125C35.4134 24.5482 35.7324 25.4954 35.7324 26.6543H32.8516C32.8516 26.1139 32.6562 25.7005 32.2656 25.4141C31.8815 25.1276 31.3965 24.9844 30.8105 24.9844C30.2897 24.9844 29.8405 25.0885 29.4629 25.2969C29.0918 25.5052 28.9062 25.8047 28.9062 26.1953C28.9062 26.3451 28.9323 26.4818 28.9844 26.6055C29.0365 26.7292 29.1276 26.8398 29.2578 26.9375C29.388 27.0352 29.5085 27.1198 29.6191 27.1914C29.7298 27.2565 29.9023 27.3281 30.1367 27.4062C30.3776 27.4779 30.5664 27.5332 30.7031 27.5723C30.8464 27.6048 31.071 27.6602 31.377 27.7383C31.429 27.7513 31.4681 27.7611 31.4941 27.7676C31.8001 27.8457 32.0345 27.9076 32.1973 27.9531C32.3665 27.9922 32.6009 28.0573 32.9004 28.1484C33.1999 28.2396 33.4375 28.3242 33.6133 28.4023C33.7956 28.4805 34.0137 28.5879 34.2676 28.7246C34.5215 28.8548 34.7266 28.9883 34.8828 29.125C35.0391 29.2617 35.2051 29.431 35.3809 29.6328C35.5566 29.8281 35.6934 30.0365 35.791 30.2578C35.8887 30.4792 35.9701 30.7363 36.0352 31.0293C36.1003 31.3158 36.1328 31.6217 36.1328 31.9473Z" fill="#0792FF"/>
</g>
<defs>
<filter id="filter0_d_3831_42" x="7.49048" y="8.17239" width="46" height="48.318" filterUnits="userSpaceOnUse" color-interpolation-filters="sRGB">
<feFlood flood-opacity="0" result="BackgroundImageFix"/>
<feColorMatrix in="SourceAlpha" type="matrix" values="0 0 0 0 0 0 0 0 0 0 0 0 0 0 0 0 0 0 127 0" result="hardAlpha"/>
<feOffset dy="4"/>
<feGaussianBlur stdDeviation="4"/>
<feComposite in2="hardAlpha" operator="out"/>
<feColorMatrix type="matrix" values="0 0 0 0 0.027451 0 0 0 0 0.572549 0 0 0 0 1 0 0 0 0.25 0"/>
<feBlend mode="normal" in2="BackgroundImageFix" result="effect1_dropShadow_3831_42"/>
<feBlend mode="normal" in="SourceGraphic" in2="effect1_dropShadow_3831_42" result="shape"/>
</filter>
<filter id="filter1_d_3831_42" x="17.8105" y="17.127" width="26.3223" height="32.3867" filterUnits="userSpaceOnUse" color-interpolation-filters="sRGB">
<feFlood flood-opacity="0" result="BackgroundImageFix"/>
<feColorMatrix in="SourceAlpha" type="matrix" values="0 0 0 0 0 0 0 0 0 0 0 0 0 0 0 0 0 0 127 0" result="hardAlpha"/>
<feOffset dy="4"/>
<feGaussianBlur stdDeviation="4"/>
<feComposite in2="hardAlpha" operator="out"/>
<feColorMatrix type="matrix" values="0 0 0 0 0.027451 0 0 0 0 0.572549 0 0 0 0 1 0 0 0 0.25 0"/>
<feBlend mode="normal" in2="BackgroundImageFix" result="effect1_dropShadow_3831_42"/>
<feBlend mode="normal" in="SourceGraphic" in2="effect1_dropShadow_3831_42" result="shape"/>
</filter>
</defs>
</svg>
