<svg width="60" height="58" viewBox="0 0 60 58" fill="none" xmlns="http://www.w3.org/2000/svg">
<g id="icon-choice">
<rect width="59.8705" height="57.8705" rx="21" fill="#EAF4FF"/>
<g id="Exclude" filter="url(#filter0_d_3831_44)">
<path fill-rule="evenodd" clip-rule="evenodd" d="M24 16C22.3431 16 21 17.3431 21 19V37C21 38.6569 22.3431 40 24 40H38C39.6569 40 41 38.6569 41 37V19C41 17.3431 39.6569 16 38 16H24ZM26 22C25.4477 22 25 22.4477 25 23C25 23.5523 25.4477 24 26 24H36C36.5523 24 37 23.5523 37 23C37 22.4477 36.5523 22 36 22H26ZM26 27C25.4477 27 25 27.4477 25 28C25 28.5523 25.4477 29 26 29H36C36.5523 29 37 28.5523 37 28C37 27.4477 36.5523 27 36 27H26ZM25 33C25 32.4477 25.4477 32 26 32H34C34.5523 32 35 32.4477 35 33C35 33.5523 34.5523 34 34 34H26C25.4477 34 25 33.5523 25 33Z" fill="#0792FF"/>
</g>
</g>
<defs>
<filter id="filter0_d_3831_44" x="13" y="12" width="36" height="40" filterUnits="userSpaceOnUse" color-interpolation-filters="sRGB">
<feFlood flood-opacity="0" result="BackgroundImageFix"/>
<feColorMatrix in="SourceAlpha" type="matrix" values="0 0 0 0 0 0 0 0 0 0 0 0 0 0 0 0 0 0 127 0" result="hardAlpha"/>
<feOffset dy="4"/>
<feGaussianBlur stdDeviation="4"/>
<feComposite in2="hardAlpha" operator="out"/>
<feColorMatrix type="matrix" values="0 0 0 0 0.027451 0 0 0 0 0.572549 0 0 0 0 1 0 0 0 0.25 0"/>
<feBlend mode="normal" in2="BackgroundImageFix" result="effect1_dropShadow_3831_44"/>
<feBlend mode="normal" in="SourceGraphic" in2="effect1_dropShadow_3831_44" result="shape"/>
</filter>
</defs>
</svg>
