<svg width="60" height="60" viewBox="0 0 60 60" fill="none" xmlns="http://www.w3.org/2000/svg">
<g id="icon-1-deposit">
<rect width="60" height="60" rx="21" fill="#EAF4FF"/>
<g id="Group 39336" filter="url(#filter0_d_6985_196)">
<path id="Subtract" fill-rule="evenodd" clip-rule="evenodd" d="M45.0018 20.3908V21.4807C45.0018 21.561 44.9699 21.638 44.9132 21.6948C44.8564 21.7516 44.7794 21.7835 44.6991 21.7835H14.3028C14.2225 21.7835 14.1455 21.7516 14.0887 21.6948C14.0319 21.638 14 21.561 14 21.4807V20.3908C14 18.5181 15.5181 17 17.3908 17H41.611C43.4837 17 45.0018 18.5181 45.0018 20.3908ZM14 34.9229V24.0239C14 23.9436 14.0319 23.8666 14.0887 23.8098C14.1455 23.753 14.2225 23.7211 14.3028 23.7211H44.6991C44.7794 23.7211 44.8564 23.753 44.9132 23.8098C44.9699 23.8666 45.0018 23.9436 45.0018 24.0239V28.5771C43.0233 26.8359 40.4272 25.7798 37.5845 25.7798C31.3811 25.7798 26.3524 30.8086 26.3524 37.0119C26.3524 37.4522 26.3777 37.8867 26.427 38.3138H17.3908C15.5181 38.3138 14 36.7956 14 34.9229ZM20.7817 33.4697C21.3167 33.4697 21.7505 33.0359 21.7505 32.5009V31.5321C21.7505 30.9971 21.3167 30.5633 20.7817 30.5633H19.8128C19.2778 30.5633 18.844 30.9971 18.844 31.5321V32.5009C18.844 33.0359 19.2778 33.4697 19.8128 33.4697H20.7817Z" fill="#0792FF"/>
<path id="Exclude" fill-rule="evenodd" clip-rule="evenodd" d="M37.5845 46.4275C42.7846 46.4275 47.0001 42.212 47.0001 37.0119C47.0001 31.8119 42.7846 27.5963 37.5845 27.5963C32.3845 27.5963 28.1689 31.8119 28.1689 37.0119C28.1689 42.212 32.3845 46.4275 37.5845 46.4275ZM31.5011 36.67L37.021 31.1701C37.1788 31.0126 37.3899 30.9261 37.6149 30.9266C37.8392 30.926 38.0502 31.0126 38.2083 31.1699L43.7281 36.6698C43.8856 36.8268 43.9726 37.0361 43.9726 37.2592C43.9726 37.4826 43.8868 37.6917 43.7292 37.8487L43.2295 38.348C43.0721 38.5049 42.8647 38.5913 42.6409 38.5913C42.4168 38.5913 42.2124 38.5049 42.0549 38.348L38.8096 35.1032L38.8096 42.3351C38.8096 42.7947 38.4121 43.1578 37.9507 43.1578H37.242C36.7806 43.1578 36.4195 42.7947 36.4195 42.3351L36.4195 35.1396L33.1923 38.3482C33.035 38.505 32.8178 38.5915 32.5938 38.5915C32.3698 38.5915 32.1597 38.505 32.0023 38.3482L31.5011 37.8488C31.3436 37.6918 31.257 37.4827 31.257 37.2593C31.257 37.0362 31.3435 36.827 31.5011 36.67Z" fill="#0792FF"/>
</g>
</g>
<defs>
<filter id="filter0_d_6985_196" x="6" y="13" width="49" height="45.4276" filterUnits="userSpaceOnUse" color-interpolation-filters="sRGB">
<feFlood flood-opacity="0" result="BackgroundImageFix"/>
<feColorMatrix in="SourceAlpha" type="matrix" values="0 0 0 0 0 0 0 0 0 0 0 0 0 0 0 0 0 0 127 0" result="hardAlpha"/>
<feOffset dy="4"/>
<feGaussianBlur stdDeviation="4"/>
<feComposite in2="hardAlpha" operator="out"/>
<feColorMatrix type="matrix" values="0 0 0 0 0.027451 0 0 0 0 0.572549 0 0 0 0 1 0 0 0 0.25 0"/>
<feBlend mode="normal" in2="BackgroundImageFix" result="effect1_dropShadow_6985_196"/>
<feBlend mode="normal" in="SourceGraphic" in2="effect1_dropShadow_6985_196" result="shape"/>
</filter>
</defs>
</svg>
