<svg width="60" height="60" viewBox="0 0 60 60" fill="none" xmlns="http://www.w3.org/2000/svg">
<rect width="60" height="60" rx="21" fill="#EAF4FF"/>
<g filter="url(#filter0_d_1646_383)">
<path d="M32.102 29.2543C34.5069 28.9511 36.8784 29.9228 38.3993 31.8037C38.511 31.9417 38.7102 31.9719 38.8532 31.8671C39.5456 31.359 40.138 30.7264 40.6004 30.0014C43.4989 25.4613 40.2802 19.3333 34.7812 19.3333C31.1929 19.3333 28.2353 22.0941 27.9061 25.6111C27.8995 25.6805 27.9148 25.7502 27.9498 25.8104C27.9847 25.8705 28.0377 25.9182 28.101 25.9465C29.6022 26.6131 30.8846 27.7113 31.7855 29.1075C31.8192 29.1593 31.8667 29.2006 31.9227 29.2265C31.9787 29.2525 32.0408 29.2621 32.102 29.2543ZM34.7812 18.2667C35.3681 18.2667 35.8438 17.7891 35.8438 17.2V15.0667C35.8438 14.4776 35.3681 14 34.7812 14C34.1944 14 33.7188 14.4776 33.7188 15.0667V17.2C33.7188 17.7891 34.1944 18.2667 34.7812 18.2667ZM45.9375 25.2H43.8125C43.2257 25.2 42.75 25.6776 42.75 26.2667C42.75 26.8557 43.2257 27.3333 43.8125 27.3333H45.9375C46.5243 27.3333 47 26.8557 47 26.2667C47 25.6776 46.5243 25.2 45.9375 25.2ZM41.9186 31.9235C41.5038 31.507 40.831 31.507 40.416 31.9235C40.001 32.3401 40.001 33.0155 40.416 33.432L41.9186 34.9405C42.0171 35.0397 42.1342 35.1184 42.2631 35.172C42.3921 35.2256 42.5303 35.2531 42.6698 35.2529C43.608 35.2529 44.0923 34.1058 43.4211 33.4321L41.9186 31.9235ZM27.6439 20.6098C28.0588 21.0264 28.7315 21.0264 29.1465 20.6098C29.5615 20.1932 29.5615 19.5179 29.1465 19.1013L27.6439 17.5929C27.2291 17.1763 26.5564 17.1763 26.1413 17.5929C25.7264 18.0095 25.7264 18.6848 26.1413 19.1013L27.6439 20.6098ZM41.1673 20.9222C41.4393 20.9222 41.7111 20.8181 41.9186 20.6097L43.4212 19.1013C43.8361 18.6847 43.8361 18.0093 43.4212 17.5928C43.0063 17.1763 42.3335 17.1762 41.9186 17.5928L40.4161 19.1013C39.7447 19.7753 40.2293 20.9222 41.1673 20.9222ZM37.7383 37.2C38.5574 33.1484 34.3309 30.0247 30.7467 31.8711C29.959 29.2611 27.5444 27.3611 24.6875 27.3611C20.9798 27.3611 18.0526 30.5491 18.3822 34.2849C15.3706 34.5211 13 37.0492 13 40.1333C13 43.3644 15.6074 46 18.8438 46H37.8359C40.2565 46 42.2188 44.0301 42.2188 41.6C42.2188 39.2775 40.3984 37.2 37.7383 37.2Z" fill="#0792FF"/>
</g>
<defs>
<filter id="filter0_d_1646_383" x="5" y="10" width="50" height="48" filterUnits="userSpaceOnUse" color-interpolation-filters="sRGB">
<feFlood flood-opacity="0" result="BackgroundImageFix"/>
<feColorMatrix in="SourceAlpha" type="matrix" values="0 0 0 0 0 0 0 0 0 0 0 0 0 0 0 0 0 0 127 0" result="hardAlpha"/>
<feOffset dy="4"/>
<feGaussianBlur stdDeviation="4"/>
<feComposite in2="hardAlpha" operator="out"/>
<feColorMatrix type="matrix" values="0 0 0 0 0.027451 0 0 0 0 0.572549 0 0 0 0 1 0 0 0 0.25 0"/>
<feBlend mode="normal" in2="BackgroundImageFix" result="effect1_dropShadow_1646_383"/>
<feBlend mode="normal" in="SourceGraphic" in2="effect1_dropShadow_1646_383" result="shape"/>
</filter>
</defs>
</svg>
