<svg width="60" height="60" viewBox="0 0 60 60" fill="none" xmlns="http://www.w3.org/2000/svg">
<rect width="60" height="60" rx="21" fill="#EAF4FF"/>
<g filter="url(#filter0_d_1646_381)">
<path d="M39.1943 39.4834C39.6009 39.89 39.5833 40.5578 39.1277 40.9087C36.5252 42.9127 33.3232 44.006 30.0188 44C21.7334 44 15 37.2666 15 28.9812C15 21.3706 20.6798 15.0717 28.0219 14.1018C28.593 14.0263 29.0801 14.4864 29.0801 15.0624V19.3827C29.0801 19.8944 28.6917 20.3174 28.1911 20.4233C24.2331 21.2609 21.2578 24.7844 21.2578 28.9812C21.2578 33.8123 25.1877 37.7422 30.0188 37.7422C31.7742 37.7422 33.4135 37.2239 34.7857 36.3308C35.2144 36.0518 35.7876 36.0767 36.1493 36.4384L39.1943 39.4834Z" fill="#0792FF"/>
<path d="M43.9399 29.9199C44.5151 29.9199 44.9749 30.4048 44.9007 30.9752C44.5561 33.6249 43.5121 36.0622 41.9464 38.0915C41.5953 38.5465 40.928 38.5638 40.5216 38.1574L37.4765 35.1123C37.1146 34.7504 37.0901 34.1767 37.369 33.7475C37.9505 32.8526 38.3609 31.8573 38.5791 30.8126C38.684 30.3102 39.1077 29.9199 39.6209 29.9199H43.9399ZM44.8991 26.9852C44.9741 27.556 44.5142 28.0425 43.9384 28.0425H39.6161C39.1049 28.0425 38.6822 27.6552 38.576 27.1551C38.2264 25.5087 37.4069 23.9914 36.2078 22.7922C35.0086 21.5931 33.4913 20.7736 31.8449 20.424C31.3448 20.3178 30.9574 19.8951 30.9574 19.3839V15.0616C30.9574 14.4858 31.444 14.0259 32.0148 14.1009C38.7028 14.9803 44.0197 20.2972 44.8991 26.9852Z" fill="#0792FF"/>
</g>
<defs>
<filter id="filter0_d_1646_381" x="7" y="10.0929" width="45.9086" height="45.9071" filterUnits="userSpaceOnUse" color-interpolation-filters="sRGB">
<feFlood flood-opacity="0" result="BackgroundImageFix"/>
<feColorMatrix in="SourceAlpha" type="matrix" values="0 0 0 0 0 0 0 0 0 0 0 0 0 0 0 0 0 0 127 0" result="hardAlpha"/>
<feOffset dy="4"/>
<feGaussianBlur stdDeviation="4"/>
<feComposite in2="hardAlpha" operator="out"/>
<feColorMatrix type="matrix" values="0 0 0 0 0.027451 0 0 0 0 0.572549 0 0 0 0 1 0 0 0 0.25 0"/>
<feBlend mode="normal" in2="BackgroundImageFix" result="effect1_dropShadow_1646_381"/>
<feBlend mode="normal" in="SourceGraphic" in2="effect1_dropShadow_1646_381" result="shape"/>
</filter>
</defs>
</svg>
