<svg width="80" height="80" viewBox="0 0 80 80" fill="none" xmlns="http://www.w3.org/2000/svg">
<g id="icon-user">
<rect width="80" height="80" rx="21" fill="#EAF4FF"/>
<path id="Union" fill-rule="evenodd" clip-rule="evenodd" d="M18.802 34.5737C18.802 26.5333 26.5277 20 36.0255 20C45.5232 20 53.249 26.5333 53.249 34.5737C53.249 42.6141 45.5232 49.1475 36.0255 49.1475H20.1268C19.5886 49.1475 19.1083 48.8245 18.9013 48.3277C18.6943 47.8392 18.8102 47.2678 19.1911 46.8869L22.4868 43.5912C20.102 41.0243 18.802 37.8694 18.802 34.5737ZM28.0758 30.5991H43.9745C44.7031 30.5991 45.2993 31.1953 45.2993 31.924C45.2993 32.6527 44.7031 33.2489 43.9745 33.2489H28.0758C27.3471 33.2489 26.7509 32.6527 26.7509 31.924C26.7509 31.1953 27.3471 30.5991 28.0758 30.5991ZM38.6749 35.8986H28.0758C27.3471 35.8986 26.7509 36.4948 26.7509 37.2235C26.7509 37.9522 27.3471 38.5484 28.0758 38.5484H38.6749C39.4036 38.5484 39.9998 37.9522 39.9998 37.2235C39.9998 36.4948 39.4036 35.8986 38.6749 35.8986ZM61.1982 45.1728C61.1982 48.4684 59.8981 51.6316 57.5133 54.1903L60.809 57.4859C61.1899 57.8586 61.3058 58.4299 61.0988 58.9268C60.8918 59.4236 60.4115 59.7465 59.8733 59.7465H43.9747C37.3006 59.7465 31.4959 56.5088 28.6391 51.7972H36.0254C46.9391 51.7972 55.8241 44.1129 55.8986 34.6648C59.1612 37.3146 61.1982 41.0491 61.1982 45.1728Z" fill="#0792FF"/>
</g>
</svg>
