<svg width="80" height="80" viewBox="0 0 80 80" fill="none" xmlns="http://www.w3.org/2000/svg">
<g id="icon-user">
<rect width="80" height="80" rx="21" fill="#EAF4FF"/>
<g id="Vector" filter="url(#filter0_d_7067_177)">
<path d="M64 36V44C64 46.2063 62.2062 48 60 48H58.9109C57.3813 57.0656 49.4953 64 40 64C39.1156 64 38.4 63.2844 38.4 62.4C38.4 61.5156 39.1156 60.8 40 60.8C48.8219 60.8 56 53.6219 56 44.8V35.2C56 26.3781 48.8219 19.2 40 19.2C31.1781 19.2 24 26.3781 24 35.2V46.4C24 47.2844 23.2844 48 22.4 48H20C17.7938 48 16 46.2063 16 44V36C16 33.7938 17.7938 32 20 32H21.0891C22.6188 22.9344 30.5047 16 40 16C49.4953 16 57.3813 22.9344 58.9109 32H60C62.2062 32 64 33.7938 64 36ZM40 22.4C32.9422 22.4 27.2 28.1422 27.2 35.2V43.2C27.2 50.2578 32.9422 56 40 56C47.0578 56 52.8 50.2578 52.8 43.2V35.2C52.8 28.1422 47.0578 22.4 40 22.4Z" fill="#0792FF"/>
</g>
</g>
<defs>
<filter id="filter0_d_7067_177" x="8" y="12" width="64" height="64" filterUnits="userSpaceOnUse" color-interpolation-filters="sRGB">
<feFlood flood-opacity="0" result="BackgroundImageFix"/>
<feColorMatrix in="SourceAlpha" type="matrix" values="0 0 0 0 0 0 0 0 0 0 0 0 0 0 0 0 0 0 127 0" result="hardAlpha"/>
<feOffset dy="4"/>
<feGaussianBlur stdDeviation="4"/>
<feComposite in2="hardAlpha" operator="out"/>
<feColorMatrix type="matrix" values="0 0 0 0 0.027451 0 0 0 0 0.572549 0 0 0 0 1 0 0 0 0.25 0"/>
<feBlend mode="normal" in2="BackgroundImageFix" result="effect1_dropShadow_7067_177"/>
<feBlend mode="normal" in="SourceGraphic" in2="effect1_dropShadow_7067_177" result="shape"/>
</filter>
</defs>
</svg>
