<svg width="80" height="80" viewBox="0 0 80 80" fill="none" xmlns="http://www.w3.org/2000/svg">
<g id="icon-user">
<rect width="80" height="80" rx="21" fill="#EAF4FF"/>
<g id="Vector" filter="url(#filter0_d_7067_187)">
<path d="M32.2609 58.0714V61.045C32.2609 61.5635 32.0592 62.0608 31.7002 62.4274C31.3412 62.794 30.8542 63 30.3465 63H22.9143C22.4066 63 21.9197 62.794 21.5607 62.4274C21.2017 62.0608 21 61.5635 21 61.045V58.0714H32.2609Z" fill="#0792FF"/>
<path d="M32.2609 27.1693V30.1429H21V27.1693C21 26.6508 21.2017 26.1535 21.5607 25.7869C21.9197 25.4203 22.4066 25.2143 22.9143 25.2143H30.3465C30.8542 25.2143 31.3412 25.4203 31.7002 25.7869C32.0592 26.1535 32.2609 26.6508 32.2609 27.1693Z" fill="#0792FF"/>
<path d="M21 31.7857H32.2609V56.4286H21V31.7857Z" fill="#0792FF"/>
<path d="M45.1304 38.6693V41.6429H33.8696V38.6693C33.8696 38.1508 34.0713 37.6535 34.4303 37.2869C34.7893 36.9203 35.2762 36.7143 35.7839 36.7143H43.2161C43.7238 36.7143 44.2107 36.9203 44.5697 37.2869C44.9287 37.6535 45.1304 38.1508 45.1304 38.6693Z" fill="#0792FF"/>
<path d="M33.8696 43.2857H45.1304V56.4286H33.8696V43.2857Z" fill="#0792FF"/>
<path d="M45.1304 58.0714V61.045C45.1304 61.5635 44.9287 62.0608 44.5697 62.4274C44.2107 62.794 43.7238 63 43.2161 63H35.7839C35.2762 63 34.7893 62.794 34.4303 62.4274C34.0713 62.0608 33.8696 61.5635 33.8696 61.045V58.0714H45.1304Z" fill="#0792FF"/>
<path d="M58 58.0714V61.045C58 61.5635 57.7983 62.0608 57.4393 62.4274C57.0803 62.794 56.5934 63 56.0857 63H48.6535C48.4021 63 48.1531 62.9494 47.9209 62.8512C47.6886 62.7529 47.4776 62.6089 47.2998 62.4274C47.1221 62.2459 46.9811 62.0303 46.8849 61.7931C46.7886 61.556 46.7391 61.3017 46.7391 61.045V58.0714H58Z" fill="#0792FF"/>
<path d="M46.7391 23.5714H58V56.4286H46.7391V23.5714Z" fill="#0792FF"/>
<path d="M58 18.955V21.9286H46.7391V18.955C46.7391 18.4365 46.9408 17.9392 47.2998 17.5726C47.6588 17.206 48.1458 17 48.6535 17H56.0857C56.5934 17 57.0803 17.206 57.4393 17.5726C57.7983 17.9392 58 18.4365 58 18.955Z" fill="#0792FF"/>
</g>
</g>
<defs>
<filter id="filter0_d_7067_187" x="13" y="13" width="53" height="62" filterUnits="userSpaceOnUse" color-interpolation-filters="sRGB">
<feFlood flood-opacity="0" result="BackgroundImageFix"/>
<feColorMatrix in="SourceAlpha" type="matrix" values="0 0 0 0 0 0 0 0 0 0 0 0 0 0 0 0 0 0 127 0" result="hardAlpha"/>
<feOffset dy="4"/>
<feGaussianBlur stdDeviation="4"/>
<feComposite in2="hardAlpha" operator="out"/>
<feColorMatrix type="matrix" values="0 0 0 0 0.027451 0 0 0 0 0.572549 0 0 0 0 1 0 0 0 0.25 0"/>
<feBlend mode="normal" in2="BackgroundImageFix" result="effect1_dropShadow_7067_187"/>
<feBlend mode="normal" in="SourceGraphic" in2="effect1_dropShadow_7067_187" result="shape"/>
</filter>
</defs>
</svg>
