<svg width="60" height="61" viewBox="0 0 60 61" fill="none" xmlns="http://www.w3.org/2000/svg">
<g clip-path="url(#clip0_2176_125)">
<rect y="0.805695" width="60" height="60" rx="21" fill="#EAF4FF"/>
<g filter="url(#filter0_d_2176_125)">
<path d="M32.5177 25.9702C32.1769 25.9702 31.8847 26.1163 31.6413 26.311C31.0083 26.944 30.1805 27.7231 29.4501 28.4048L29.4014 28.4535C28.7197 29.0865 27.9407 29.8169 27.3077 30.4499L25.8469 28.9404C25.5548 28.6483 25.2139 28.5022 24.8731 28.5509C24.3375 28.5996 23.9966 28.8917 23.8018 29.3786C23.6071 29.8656 23.7531 30.3525 24.094 30.6933C24.9704 31.5698 25.5548 32.1541 26.4312 33.0792C26.5773 33.2253 26.7234 33.3227 26.9181 33.3714C27.0642 33.4201 27.2103 33.4201 27.3077 33.4201C27.6485 33.4201 27.9407 33.274 28.2328 33.0306C28.9632 32.3002 29.8397 31.4724 30.8135 30.5472C31.6413 29.7682 32.5664 28.843 33.3455 28.0639C33.3942 28.0153 33.3942 28.0153 33.4429 27.9666C33.7837 27.577 33.8811 26.944 33.589 26.4571C33.3455 26.165 32.956 25.9702 32.5177 25.9702Z" fill="#0792FF"/>
<path d="M44.6905 41.6491L38.9935 37.2668C42.5481 32.4462 42.3046 25.678 38.1171 21.101C33.3452 15.9396 25.2623 15.5988 20.101 20.3706C14.9396 25.1424 14.5988 33.1766 19.3706 38.338C23.5581 42.8664 30.3263 43.6941 35.3903 40.5291L39.2857 46.567C39.4805 46.8104 39.6752 47.0539 39.9187 47.2487C41.4768 48.5634 43.8141 48.3686 45.1287 46.8104C46.4434 45.301 46.2487 42.9638 44.6905 41.6491ZM36.8024 35.4165C36.4128 35.9521 35.9259 36.4877 35.439 36.9746C34.9034 37.4615 34.3678 37.8511 33.7835 38.2406C29.8394 40.5778 24.678 39.8962 21.4643 36.439C17.7637 32.4462 18.0072 26.165 22.0487 22.4643C26.0414 18.7637 32.3227 19.0072 36.0233 23.0487C39.237 26.5058 39.4318 31.7159 36.8024 35.4165Z" fill="#0792FF"/>
</g>
</g>
<defs>
<filter id="filter0_d_2176_125" x="8" y="13" width="46" height="47.1199" filterUnits="userSpaceOnUse" color-interpolation-filters="sRGB">
<feFlood flood-opacity="0" result="BackgroundImageFix"/>
<feColorMatrix in="SourceAlpha" type="matrix" values="0 0 0 0 0 0 0 0 0 0 0 0 0 0 0 0 0 0 127 0" result="hardAlpha"/>
<feOffset dy="4"/>
<feGaussianBlur stdDeviation="4"/>
<feComposite in2="hardAlpha" operator="out"/>
<feColorMatrix type="matrix" values="0 0 0 0 0.027451 0 0 0 0 0.572549 0 0 0 0 1 0 0 0 0.25 0"/>
<feBlend mode="normal" in2="BackgroundImageFix" result="effect1_dropShadow_2176_125"/>
<feBlend mode="normal" in="SourceGraphic" in2="effect1_dropShadow_2176_125" result="shape"/>
</filter>
<clipPath id="clip0_2176_125">
<rect y="0.805695" width="60" height="60" rx="21" fill="white"/>
</clipPath>
</defs>
</svg>
