<svg width="28" height="28" viewBox="0 0 28 28" fill="none" xmlns="http://www.w3.org/2000/svg">
<g clip-path="url(#clip0_1_5197)">
<path d="M27.9852 14.2619C27.9852 13.1148 27.8899 12.2777 27.6838 11.4096H14.2789V16.5872H22.1472C21.9887 17.8739 21.132 19.8117 19.2283 21.1138L19.2016 21.2872L23.44 24.4957L23.7337 24.5244C26.4305 22.0905 27.9852 18.5095 27.9852 14.2619Z" fill="#4285F4"/>
<path d="M14.2788 27.9038C18.1337 27.9038 21.3699 26.6636 23.7337 24.5243L19.2283 21.1138C18.0227 21.9354 16.4045 22.509 14.2788 22.509C10.5033 22.509 7.29879 20.0752 6.15649 16.7113L5.98905 16.7252L1.58191 20.0581L1.52428 20.2147C3.8721 24.7723 8.69471 27.9038 14.2788 27.9038Z" fill="#34A853"/>
<path d="M6.15663 16.7113C5.85522 15.8432 5.68078 14.913 5.68078 13.9519C5.68078 12.9907 5.85522 12.0607 6.14077 11.1925L6.13278 11.0077L1.67042 7.62115L1.52442 7.68902C0.556766 9.5803 0.00152588 11.7041 0.00152588 13.9519C0.00152588 16.1997 0.556766 18.3235 1.52442 20.2147L6.15663 16.7113Z" fill="#FBBC05"/>
<path d="M14.2788 5.39472C16.9598 5.39472 18.7682 6.52637 19.7994 7.47206L23.8288 3.62751C21.3541 1.37971 18.1337 1.52588e-05 14.2788 1.52588e-05C8.69471 1.52588e-05 3.8721 3.13142 1.52428 7.68901L6.14063 11.1925C7.29879 7.82858 10.5033 5.39472 14.2788 5.39472Z" fill="#EB4335"/>
</g>
<defs>
<clipPath id="clip0_1_5197">
<rect width="28" height="28" fill="white"/>
</clipPath>
</defs>
</svg>
