<svg width="20" height="14" viewBox="0 0 20 14" fill="none" xmlns="http://www.w3.org/2000/svg">
<path d="M10 3.1111C9.63199 3.11685 9.2667 3.17531 8.91528 3.28471C9.07783 3.57058 9.16438 3.89336 9.16667 4.22221C9.16667 4.47756 9.11637 4.73041 9.01865 4.96632C8.92093 5.20223 8.77771 5.41658 8.59715 5.59714C8.41659 5.7777 8.20224 5.92093 7.96632 6.01865C7.73041 6.11636 7.47757 6.16666 7.22222 6.16666C6.89336 6.16438 6.57059 6.07782 6.28471 5.91527C6.05917 6.69749 6.08546 7.53085 6.35985 8.2973C6.63425 9.06375 7.14284 9.72444 7.8136 10.1858C8.48435 10.6471 9.28325 10.8857 10.0971 10.8678C10.911 10.8499 11.6987 10.5763 12.3484 10.0859C12.9982 9.59544 13.4772 8.91299 13.7176 8.1352C13.958 7.3574 13.9475 6.5237 13.6877 5.75217C13.428 4.98064 12.932 4.3104 12.2702 3.83639C11.6083 3.36239 10.8141 3.10864 10 3.1111ZM19.8792 6.49305C17.9962 2.81908 14.2684 0.333313 10 0.333313C5.73159 0.333313 2.00276 2.82082 0.120815 6.49339C0.0413845 6.65052 0 6.82411 0 7.00017C0 7.17622 0.0413845 7.34982 0.120815 7.50694C2.0038 11.1809 5.73159 13.6667 10 13.6667C14.2684 13.6667 17.9972 11.1792 19.8792 7.50659C19.9586 7.34947 20 7.17588 20 6.99982C20 6.82376 19.9586 6.65017 19.8792 6.49305ZM10 12C6.57465 12 3.43436 10.0903 1.73853 6.99999C3.43436 3.90971 6.5743 1.99998 10 1.99998C13.4257 1.99998 16.5656 3.90971 18.2615 6.99999C16.566 10.0903 13.4257 12 10 12Z" fill="#474D65"/>
</svg>
