<svg width="30" height="30" viewBox="0 0 30 30" fill="none" xmlns="http://www.w3.org/2000/svg">
<g id="facebook-icon">
<path id="Vector" d="M15.0001 1C7.26813 1 1 7.29434 1 15.0586C1 22.0223 6.0473 27.7893 12.6651 28.9061V17.9916H9.28792V14.064H12.6651V11.1678C12.6651 7.80752 14.709 5.97634 17.6946 5.97634C19.1245 5.97634 20.3533 6.08333 20.7101 6.13046V9.64289L18.6393 9.64389C17.016 9.64389 16.7031 10.4184 16.7031 11.5552V14.0619H20.5765L20.0713 17.9896H16.7031V29C23.6299 28.1534 29 22.2394 29 15.0546C29 7.29434 22.7319 1 15.0001 1Z" fill="#5B81DF"/>
</g>
</svg>
