<svg width="30" height="30" viewBox="0 0 30 30" fill="none" xmlns="http://www.w3.org/2000/svg">
<g id="Instagram-icon">
<path id="Vector" d="M20.7612 2.08342C22.0807 2.14408 22.9928 2.338 23.8357 2.66517C24.6342 2.96523 25.3574 3.43629 25.9547 4.04533C26.5637 4.64259 27.0348 5.36582 27.3348 6.16433C27.662 7.00825 27.8559 7.91933 27.9166 9.23883C27.9913 10.8747 28 11.451 28 15C28 18.549 27.9913 19.1253 27.9166 20.7612C27.8559 22.0807 27.662 22.9928 27.3348 23.8368C27.0346 24.6349 26.5636 25.3577 25.9547 25.9547C25.3574 26.5637 24.6342 27.0348 23.8357 27.3348C22.9918 27.662 22.0807 27.8559 20.7612 27.9166C19.1253 27.9913 18.5501 28 15 28C11.4499 28 10.8736 27.9913 9.23883 27.9166C7.91933 27.8559 7.00717 27.662 6.16325 27.3348C5.36513 27.0346 4.64228 26.5636 4.04533 25.9547C3.43629 25.3574 2.96523 24.6342 2.66517 23.8357C2.338 22.9918 2.14408 22.0807 2.08342 20.7612C2.00867 19.1275 2 18.5512 2 15C2 11.4488 2.00867 10.8725 2.08342 9.23883C2.14408 7.91933 2.338 7.00717 2.66517 6.16433C2.96523 5.36582 3.43629 4.64259 4.04533 4.04533C4.64228 3.43642 5.36513 2.96537 6.16325 2.66517C7.00825 2.338 7.91933 2.14408 9.23883 2.08342C10.8725 2.00867 11.4488 2 15 2C18.5512 2 19.1275 2.00867 20.7612 2.08342ZM15 4.88925C11.49 4.88925 10.9527 4.89683 9.36992 4.96942C8.36567 5.01492 7.76333 5.14275 7.20975 5.35833C6.7385 5.5425 6.43842 5.7375 6.08742 6.08742C5.73642 6.43733 5.5425 6.7385 5.35833 7.21083C5.14383 7.76333 5.01492 8.36675 4.96942 9.371C4.89683 10.9527 4.88925 11.49 4.88925 15C4.88925 18.51 4.89683 19.0473 4.96942 20.6301C5.01492 21.6343 5.14275 22.2367 5.35833 22.7892C5.5425 23.2615 5.7375 23.5616 6.08742 23.9126C6.43733 24.2636 6.7385 24.4586 7.20975 24.6417C7.76225 24.8562 8.36567 24.9851 9.36992 25.0306C10.9538 25.1032 11.4911 25.1108 15 25.1108C18.51 25.1108 19.0463 25.1032 20.6301 25.0306C21.6343 24.9851 22.2367 24.8573 22.7903 24.6417C23.2615 24.4575 23.5616 24.2625 23.9126 23.9126C24.2636 23.5627 24.4586 23.2615 24.6417 22.7903C24.8562 22.2378 24.9851 21.6343 25.0306 20.6301C25.1032 19.0463 25.1108 18.5089 25.1108 15C25.1108 11.4911 25.1032 10.9538 25.0306 9.36992C24.9851 8.36567 24.8573 7.76333 24.6417 7.21083C24.4888 6.78501 24.2392 6.40046 23.9126 6.08742C23.5995 5.76078 23.215 5.51121 22.7892 5.35833C22.2367 5.14383 21.6332 5.01492 20.629 4.96942C19.0462 4.89683 18.5089 4.88925 14.9989 4.88925M14.9989 21.7405C13.2112 21.7405 11.4968 21.0303 10.2327 19.7663C8.96857 18.5022 8.25842 16.7877 8.25842 15C8.25842 13.2123 8.96857 11.4978 10.2327 10.2337C11.4968 8.96966 13.2112 8.2595 14.9989 8.2595C16.7866 8.2595 18.5011 8.96966 19.7652 10.2337C21.0293 11.4978 21.7394 13.2123 21.7394 15C21.7394 16.7877 21.0293 18.5022 19.7652 19.7663C18.5011 21.0303 16.7866 21.7405 14.9989 21.7405ZM14.9989 18.8523C16.0206 18.8523 17.0005 18.4465 17.7229 17.724C18.4454 17.0016 18.8513 16.0217 18.8513 15C18.8513 13.9783 18.4454 12.9984 17.7229 12.276C17.0005 11.5535 16.0206 11.1477 14.9989 11.1477C13.9772 11.1477 12.9974 11.5535 12.2749 12.276C11.5525 12.9984 11.1466 13.9783 11.1466 15C11.1466 16.0217 11.5525 17.0016 12.2749 17.724C12.9974 18.4465 13.9772 18.8523 14.9989 18.8523ZM21.7394 9.70358C21.3563 9.70358 20.9888 9.55138 20.7179 9.28046C20.447 9.00954 20.2948 8.6421 20.2948 8.25896C20.2948 7.87582 20.447 7.50837 20.7179 7.23745C20.9888 6.96653 21.3563 6.81433 21.7394 6.81433C22.1226 6.81433 22.49 6.96653 22.7609 7.23745C23.0318 7.50837 23.184 7.87582 23.184 8.25896C23.184 8.6421 23.0318 9.00954 22.7609 9.28046C22.49 9.55138 22.1226 9.70358 21.7394 9.70358Z" fill="#D54CC7"/>
</g>
</svg>
