<svg width="30" height="30" viewBox="0 0 30 30" fill="none" xmlns="http://www.w3.org/2000/svg">
<g id="TikTok icon">
<g id="Group">
<g id="Group_2">
<path id="Vector" d="M10.5567 15.855C8.27563 15.855 6.43281 17.6978 6.46652 19.9564C6.48899 21.4059 7.2868 22.6644 8.46103 23.3667C8.06213 22.7543 7.82616 22.0296 7.81492 21.2486C7.78121 18.99 9.62403 17.1472 11.9051 17.1472C12.3546 17.1472 12.7872 17.2203 13.1917 17.3495V12.8267C12.7703 12.7649 12.3377 12.7312 11.9051 12.7312C11.8826 12.7312 11.8658 12.7312 11.8433 12.7312V16.0573C11.4388 15.928 11.0061 15.855 10.5567 15.855Z" fill="#F00044"/>
<path id="Vector_2" d="M20.417 2.29224H20.3833H19.2147C19.5518 3.98336 20.5013 5.45537 21.8272 6.45543C20.9563 5.30367 20.4282 3.86537 20.417 2.29224Z" fill="#F00044"/>
<path id="Vector_3" d="M27.2938 9.17463C26.85 9.17463 26.423 9.12968 26.0016 9.05103V12.2928C24.4734 12.2928 22.9902 11.995 21.5968 11.3995C20.6979 11.0174 19.8607 10.5287 19.091 9.93873L19.1135 19.9338C19.1023 22.1811 18.2146 24.288 16.6077 25.878C15.2986 27.1702 13.6412 27.9961 11.8433 28.2602C11.422 28.322 10.9894 28.3557 10.5567 28.3557C8.63527 28.3557 6.80368 27.732 5.31482 26.5803C5.48337 26.7825 5.66316 26.9792 5.8598 27.1702C7.47788 28.7658 9.62409 29.6479 11.9108 29.6479C12.3434 29.6479 12.776 29.6142 13.1974 29.5524C14.9952 29.2883 16.6527 28.4624 17.9617 27.1702C19.5686 25.5802 20.4563 23.4733 20.4675 21.226L20.3832 11.2309C21.1473 11.8209 21.9845 12.3153 22.889 12.6917C24.288 13.2816 25.7712 13.585 27.2938 13.585" fill="#F00044"/>
</g>
<path id="Vector_4" d="M5.84298 15.2201C7.44421 13.6301 9.57356 12.748 11.8434 12.7312V11.5345C11.422 11.4727 10.9894 11.439 10.5568 11.439C8.26449 11.439 6.11266 12.321 4.49457 13.9279C2.90458 15.5067 1.99441 17.6641 2.00003 19.9058C2.00003 22.1644 2.89334 24.2825 4.50581 25.8837C4.76425 26.1366 5.02832 26.3725 5.30923 26.586C4.03949 25.0747 3.34843 23.1869 3.34281 21.198C3.34843 18.9563 4.25298 16.7989 5.84298 15.2201Z" fill="#08FFF9"/>
<path id="Vector_5" d="M26.0016 9.05124V7.84892H25.9903C24.4284 7.84892 22.9901 7.33203 21.8328 6.45557C22.8384 7.7815 24.3105 8.72538 26.0016 9.05124Z" fill="#08FFF9"/>
<path id="Vector_6" d="M11.6748 25.2263C12.2085 25.2544 12.7198 25.1814 13.1917 25.0297C14.821 24.4959 15.9953 22.979 15.9953 21.1924L16.0009 14.5065V2.29222H19.2146C19.1303 1.87084 19.0854 1.44385 19.0797 1H14.6525V13.2087L14.6469 19.8945C14.6469 21.6811 13.4726 23.1981 11.8433 23.7318C11.3714 23.8892 10.8601 23.9622 10.3264 23.9285C9.64653 23.8892 9.01166 23.6869 8.46106 23.361C9.15212 24.4285 10.332 25.1533 11.6748 25.2263Z" fill="#08FFF9"/>
<path id="Vector_7" d="M11.8434 28.2603C13.6412 27.9962 15.2986 27.1703 16.6077 25.8781C18.2146 24.2881 19.1023 22.1812 19.1135 19.9339L19.091 9.93881C19.8551 10.5287 20.6923 11.0232 21.5968 11.3996C22.9958 11.9895 24.479 12.2929 26.0016 12.2929V9.05111C24.3105 8.72525 22.8385 7.78137 21.8328 6.45543C20.5069 5.45537 19.5517 3.98336 19.2203 2.29224H16.0009V14.5009L15.9953 21.1867C15.9953 22.9734 14.8211 24.4903 13.1918 25.0241C12.7198 25.1814 12.2086 25.2544 11.6748 25.2207C10.3264 25.1477 9.15217 24.4229 8.46111 23.3611C7.28688 22.6644 6.48907 21.4002 6.4666 19.9507C6.43289 17.6921 8.27571 15.8493 10.5568 15.8493C11.0062 15.8493 11.4388 15.9224 11.8434 16.0516V12.7255C9.57355 12.7424 7.44419 13.6245 5.84296 15.2144C4.25297 16.7932 3.3428 18.9506 3.34841 21.1867C3.34841 23.1756 4.03947 25.0634 5.31484 26.5747C6.80932 27.7265 8.63528 28.3501 10.5568 28.3501C10.9894 28.3558 11.422 28.3221 11.8434 28.2603Z" fill="black"/>
</g>
</g>
</svg>
