<svg width="30" height="30" viewBox="0 0 30 30" fill="none" xmlns="http://www.w3.org/2000/svg">
<g id="Youtube-icon">
<g id="Group 39399">
<path id="Vector" d="M28.7659 8.28597C28.4391 7.0011 27.4815 5.98831 26.2673 5.64232C24.0488 5 15.1747 5 15.1747 5C15.1747 5 6.3009 5 4.08238 5.61784C2.89148 5.96359 1.91059 7.00133 1.58377 8.28597C1 10.6328 1 15.5 1 15.5C1 15.5 1 20.3917 1.58377 22.714C1.91081 23.9987 2.86812 25.0117 4.0826 25.3577C6.32425 26 15.1749 26 15.1749 26C15.1749 26 24.0488 26 26.2673 25.3822C27.4818 25.0364 28.4391 24.0234 28.7661 22.7387C29.3499 20.3917 29.3499 15.5247 29.3499 15.5247C29.3499 15.5247 29.3732 10.6328 28.7659 8.28597Z" fill="#FF0000"/>
<path id="Vector_2" d="M11.5 19.132C11.5 19.8754 12.2823 20.3589 12.9472 20.0264L19.1611 16.9195C19.8982 16.551 19.8982 15.4991 19.1611 15.1306L12.9472 12.0237C12.2823 11.6912 11.5 12.1747 11.5 12.9181V19.132Z" fill="white"/>
</g>
</g>
</svg>
