<svg width="60" height="60" viewBox="0 0 60 60" fill="none" xmlns="http://www.w3.org/2000/svg">
<g id="icon-earth">
<rect width="60" height="60" rx="21" fill="#EAF4FF"/>
<g id="Vector" filter="url(#filter0_d_6784_13)">
<path d="M33.8407 25.6371L32.3914 27.0625C31.7768 27.6671 31.0469 28.1468 30.2435 28.4741C29.4401 28.8014 28.579 28.9698 27.7093 28.9699C25.9406 28.9699 24.2776 28.2924 23.027 27.0624L22.6526 26.694C22.2221 26.2705 22.2221 25.5839 22.6527 25.1605L27.6375 20.2581C26.1069 19.3189 24.1468 19.2867 22.5568 20.2547C21.6352 20.8159 20.453 20.6733 19.682 19.9081L18.0755 18.3138C17.6553 17.8967 16.9703 17.8952 16.5481 18.3104L11.3156 23.4564C10.8947 23.8703 10.8948 24.5413 11.3157 24.9553L29.0489 42.3939C29.8362 43.0406 30.834 43.1794 31.7244 42.764C32.4326 42.4338 33.18 41.6655 33.1569 40.4987C33.1535 40.3278 33.1874 40.1562 33.2633 40.0025C33.4703 39.5828 33.9064 39.3535 34.3491 39.3889C35.0325 39.444 35.7246 39.1863 36.2488 38.6822C36.7603 38.1902 37.0308 37.5281 36.9908 36.8656C36.955 36.2724 37.4335 35.7603 38.0361 35.718C38.9072 35.6568 39.6177 35.2497 40.1479 34.5078C40.5404 33.9585 40.801 33.254 40.8785 32.5588L33.8407 25.6371Z" fill="#0792FF"/>
<path d="M47.6844 23.5724L42.4447 18.4191C42.0238 18.0052 41.3415 18.0052 40.9207 18.4191L39.0349 20.2738C38.2195 21.0757 36.9571 21.1753 36.0329 20.5106C34.2091 19.1988 31.6315 19.3942 30.0372 20.965L25.0174 25.9018C25.7857 26.4851 26.7227 26.801 27.7092 26.801C28.8889 26.801 29.9981 26.3492 30.8322 25.5288L33.0611 23.3367C33.2764 23.125 33.5586 23.0191 33.8408 23.0191C34.123 23.0191 34.4052 23.125 34.6205 23.3367L42.0118 30.606L47.6845 25.0712C48.1052 24.6572 48.1052 23.9862 47.6844 23.5724Z" fill="#0792FF"/>
</g>
</g>
<defs>
<filter id="filter0_d_6784_13" x="3" y="14" width="53" height="41" filterUnits="userSpaceOnUse" color-interpolation-filters="sRGB">
<feFlood flood-opacity="0" result="BackgroundImageFix"/>
<feColorMatrix in="SourceAlpha" type="matrix" values="0 0 0 0 0 0 0 0 0 0 0 0 0 0 0 0 0 0 127 0" result="hardAlpha"/>
<feOffset dy="4"/>
<feGaussianBlur stdDeviation="4"/>
<feComposite in2="hardAlpha" operator="out"/>
<feColorMatrix type="matrix" values="0 0 0 0 0.027451 0 0 0 0 0.572549 0 0 0 0 1 0 0 0 0.25 0"/>
<feBlend mode="normal" in2="BackgroundImageFix" result="effect1_dropShadow_6784_13"/>
<feBlend mode="normal" in="SourceGraphic" in2="effect1_dropShadow_6784_13" result="shape"/>
</filter>
</defs>
</svg>
