<svg width="60" height="60" viewBox="0 0 60 60" fill="none" xmlns="http://www.w3.org/2000/svg">
<g id="icon-earth">
<g clip-path="url(#clip0_6782_695)">
<rect width="60" height="60" rx="21" fill="#EAF4FF"/>
<g id="Vector" filter="url(#filter0_d_6782_695)">
<path d="M9 36.5547L14.2714 35.6194L16.5896 49.0647L11.3182 50L9 36.5547Z" fill="#0792FF"/>
<path d="M18.6789 46.2696C19.596 45.5066 20.7697 45.1356 21.9518 45.2354L32.8243 46.0685H32.8587C34.9224 46.0548 36.9297 45.3842 38.5977 44.1521L51 31.8185C50.0069 31.1065 48.6714 31.1406 47.7151 31.9024L47.7007 31.9137L41.5277 36.5965C41.682 36.9686 41.7943 37.3566 41.8634 37.7544C41.9314 38.1493 41.6708 38.5259 41.2812 38.5948L31.2646 40.3726C31.2234 40.3795 31.1819 40.3832 31.1403 40.3828C30.7679 40.384 30.4566 40.0953 30.4246 39.7187C30.3926 39.3424 30.6504 39.0039 31.0176 38.9403L40.2637 37.2995C39.6055 35.5257 37.798 34.4773 35.9578 34.8016L29.8643 35.8829C28.6655 36.0941 27.435 36.0289 26.2645 35.6928L25.5828 35.4957C22.2167 34.5158 18.5918 35.4856 16.1401 38.0228L17.7006 47.0732L18.6789 46.2696Z" fill="#0792FF"/>
<path d="M32.1522 30.4363C37.4428 30.4363 41.7311 26.0857 41.7311 20.7182C41.7311 15.3511 37.4428 11 32.1522 11C26.862 11 22.5732 15.3511 22.5732 20.7182C22.5792 26.0832 26.8644 30.4307 32.1522 30.4363ZM30.8182 15.4922C30.8182 15.0908 31.1391 14.7656 31.5344 14.7656C31.93 14.7656 32.2505 15.0908 32.2505 15.4922V20.9513H36.1588C36.554 20.9513 36.8749 21.2769 36.8749 21.6778C36.8749 22.0792 36.554 22.4044 36.1588 22.4044H31.5799C31.1843 22.4044 30.8182 21.9908 30.8182 21.5894V15.4922Z" fill="#0792FF"/>
</g>
</g>
</g>
<defs>
<filter id="filter0_d_6782_695" x="1" y="7" width="58" height="55" filterUnits="userSpaceOnUse" color-interpolation-filters="sRGB">
<feFlood flood-opacity="0" result="BackgroundImageFix"/>
<feColorMatrix in="SourceAlpha" type="matrix" values="0 0 0 0 0 0 0 0 0 0 0 0 0 0 0 0 0 0 127 0" result="hardAlpha"/>
<feOffset dy="4"/>
<feGaussianBlur stdDeviation="4"/>
<feComposite in2="hardAlpha" operator="out"/>
<feColorMatrix type="matrix" values="0 0 0 0 0.027451 0 0 0 0 0.572549 0 0 0 0 1 0 0 0 0.25 0"/>
<feBlend mode="normal" in2="BackgroundImageFix" result="effect1_dropShadow_6782_695"/>
<feBlend mode="normal" in="SourceGraphic" in2="effect1_dropShadow_6782_695" result="shape"/>
</filter>
<clipPath id="clip0_6782_695">
<rect width="60" height="60" rx="21" fill="white"/>
</clipPath>
</defs>
</svg>
