<svg width="60" height="60" viewBox="0 0 60 60" fill="none" xmlns="http://www.w3.org/2000/svg">
<rect width="60" height="60" rx="21" fill="#EAF4FF"/>
<g filter="url(#filter0_d_2994_143)">
<path d="M35.6154 34.4615C36.5334 34.4615 37.4139 34.0968 38.0631 33.4477C38.7122 32.7985 39.0769 31.9181 39.0769 31V19.4615C39.0769 18.5435 38.7122 17.663 38.0631 17.0139C37.4139 16.3647 36.5334 16 35.6154 16H19.4615C18.5435 16 17.663 16.3647 17.0139 17.0139C16.3647 17.663 16 18.5435 16 19.4615V31C16 31.9181 16.3647 32.7985 17.0139 33.4477C17.663 34.0968 18.5435 34.4615 19.4615 34.4615H20.6154V37.9231C20.6154 38.1374 20.6751 38.3474 20.7877 38.5297C20.9004 38.712 21.0616 38.8593 21.2532 38.9551C21.4449 39.0509 21.6594 39.0915 21.8729 39.0723C22.0863 39.053 22.2901 38.9747 22.4615 38.8462L28.2308 34.5158L35.6154 34.4615ZM21.7692 21.7692H33.3077V24.0769H21.7692V21.7692ZM27.5385 28.6923H21.7692V26.3846H27.5385V28.6923Z" fill="#0792FF"/>
<path d="M42.9192 26.3846H41.3846V31C41.3828 32.5295 40.7744 33.9959 39.6928 35.0774C38.6113 36.159 37.1449 36.7674 35.6154 36.7692L29.0119 36.8177L26.3846 38.7885V39.0769C26.3855 39.8937 26.7104 40.6768 27.288 41.2543C27.8655 41.8319 28.6486 42.1568 29.4654 42.1577H35.485L40.3127 45.7692C40.4841 45.8978 40.688 45.9761 40.9014 45.9953C41.1148 46.0146 41.3294 45.974 41.521 45.8782C41.7127 45.7824 41.8739 45.635 41.9865 45.4528C42.0992 45.2705 42.1588 45.0604 42.1588 44.8462V42.1577H42.9204C43.737 42.1565 44.5198 41.8315 45.0971 41.2539C45.6744 40.6764 45.9991 39.8935 46 39.0769V29.4654C45.9991 28.6486 45.6742 27.8655 45.0967 27.288C44.5191 26.7104 43.736 26.3855 42.9192 26.3846Z" fill="#0792FF"/>
</g>
<defs>
<filter id="filter0_d_2994_143" x="8" y="12" width="46" height="46" filterUnits="userSpaceOnUse" color-interpolation-filters="sRGB">
<feFlood flood-opacity="0" result="BackgroundImageFix"/>
<feColorMatrix in="SourceAlpha" type="matrix" values="0 0 0 0 0 0 0 0 0 0 0 0 0 0 0 0 0 0 127 0" result="hardAlpha"/>
<feOffset dy="4"/>
<feGaussianBlur stdDeviation="4"/>
<feComposite in2="hardAlpha" operator="out"/>
<feColorMatrix type="matrix" values="0 0 0 0 0.027451 0 0 0 0 0.572549 0 0 0 0 1 0 0 0 0.25 0"/>
<feBlend mode="normal" in2="BackgroundImageFix" result="effect1_dropShadow_2994_143"/>
<feBlend mode="normal" in="SourceGraphic" in2="effect1_dropShadow_2994_143" result="shape"/>
</filter>
</defs>
</svg>
