<svg width="60" height="60" viewBox="0 0 60 60" fill="none" xmlns="http://www.w3.org/2000/svg">
<g id="icon-earth">
<rect width="60" height="60" rx="21" fill="#EAF4FF"/>
<g id="Vector" filter="url(#filter0_d_6782_697)">
<path d="M35.8426 40.4394L37.6242 42.2557H19.1585C16.6215 42.2557 14.5583 40.1518 14.5583 37.566V22.9606C14.5583 21.7872 14.9859 20.7156 15.6873 19.8923L16.9576 21.1873C16.5769 21.6777 16.34 22.2885 16.34 22.9606V24.3137H20.0244L24.9359 29.3206H16.34V37.566C16.34 39.1504 17.6043 40.4394 19.1585 40.4394H35.8426ZM43.3998 42.2557H43.3588L46.966 45.9331C47.4299 46.4059 47.4299 47.1724 46.966 47.6452C46.7338 47.8819 46.4304 48 46.1263 48C45.8222 48 45.5187 47.8819 45.2865 47.6452L12.3479 14.0668C11.884 13.5939 11.884 12.8275 12.3479 12.3546C12.8117 11.8818 13.5636 11.8818 14.0274 12.3546L19.8308 18.2703H43.3998C45.9362 18.2703 48 20.3748 48 22.9606V37.566C48 40.1524 45.9368 42.2557 43.3998 42.2557ZM21.6125 20.0866L25.7596 24.3137H46.2189V22.9606C46.2189 21.3762 44.9546 20.0866 43.4004 20.0866H21.6125ZM41.5777 40.4394H43.4004C44.9546 40.4394 46.2189 39.1504 46.2189 37.566V29.3206H30.671L41.5777 40.4394Z" fill="#0792FF"/>
</g>
</g>
<defs>
<filter id="filter0_d_6782_697" x="4" y="8" width="52" height="52" filterUnits="userSpaceOnUse" color-interpolation-filters="sRGB">
<feFlood flood-opacity="0" result="BackgroundImageFix"/>
<feColorMatrix in="SourceAlpha" type="matrix" values="0 0 0 0 0 0 0 0 0 0 0 0 0 0 0 0 0 0 127 0" result="hardAlpha"/>
<feOffset dy="4"/>
<feGaussianBlur stdDeviation="4"/>
<feComposite in2="hardAlpha" operator="out"/>
<feColorMatrix type="matrix" values="0 0 0 0 0.027451 0 0 0 0 0.572549 0 0 0 0 1 0 0 0 0.25 0"/>
<feBlend mode="normal" in2="BackgroundImageFix" result="effect1_dropShadow_6782_697"/>
<feBlend mode="normal" in="SourceGraphic" in2="effect1_dropShadow_6782_697" result="shape"/>
</filter>
</defs>
</svg>
