<svg width="60" height="60" viewBox="0 0 60 60" fill="none" xmlns="http://www.w3.org/2000/svg">
<g id="icon-earth">
<rect width="60" height="60" rx="21" fill="#EAF4FF"/>
<g id="Vector" filter="url(#filter0_d_6782_699)">
<path d="M34.6154 33.4615C35.5334 33.4615 36.4139 33.0968 37.0631 32.4477C37.7122 31.7985 38.0769 30.9181 38.0769 30V18.4615C38.0769 17.5435 37.7122 16.663 37.0631 16.0139C36.4139 15.3647 35.5334 15 34.6154 15H18.4615C17.5435 15 16.663 15.3647 16.0139 16.0139C15.3647 16.663 15 17.5435 15 18.4615V30C15 30.9181 15.3647 31.7985 16.0139 32.4477C16.663 33.0968 17.5435 33.4615 18.4615 33.4615H19.6154V36.9231C19.6154 37.1374 19.6751 37.3474 19.7877 37.5297C19.9004 37.712 20.0616 37.8593 20.2532 37.9551C20.4449 38.0509 20.6594 38.0915 20.8729 38.0723C21.0863 38.053 21.2901 37.9747 21.4615 37.8462L27.2308 33.5158L34.6154 33.4615ZM20.7692 20.7692H32.3077V23.0769H20.7692V20.7692ZM26.5385 27.6923H20.7692V25.3846H26.5385V27.6923Z" fill="#0792FF"/>
<path d="M41.9192 25.3846H40.3846V30C40.3828 31.5295 39.7744 32.9959 38.6928 34.0774C37.6113 35.159 36.1449 35.7674 34.6154 35.7692L28.0119 35.8177L25.3846 37.7885V38.0769C25.3855 38.8937 25.7104 39.6768 26.288 40.2543C26.8655 40.8319 27.6486 41.1568 28.4654 41.1577H34.485L39.3127 44.7692C39.4841 44.8978 39.688 44.9761 39.9014 44.9953C40.1148 45.0146 40.3294 44.974 40.521 44.8782C40.7127 44.7824 40.8739 44.635 40.9865 44.4528C41.0992 44.2705 41.1588 44.0604 41.1588 43.8462V41.1577H41.9204C42.737 41.1565 43.5198 40.8315 44.0971 40.2539C44.6744 39.6764 44.9991 38.8935 45 38.0769V28.4654C44.9991 27.6486 44.6742 26.8655 44.0967 26.288C43.5191 25.7104 42.736 25.3855 41.9192 25.3846Z" fill="#0792FF"/>
</g>
</g>
<defs>
<filter id="filter0_d_6782_699" x="7" y="11" width="46" height="46" filterUnits="userSpaceOnUse" color-interpolation-filters="sRGB">
<feFlood flood-opacity="0" result="BackgroundImageFix"/>
<feColorMatrix in="SourceAlpha" type="matrix" values="0 0 0 0 0 0 0 0 0 0 0 0 0 0 0 0 0 0 127 0" result="hardAlpha"/>
<feOffset dy="4"/>
<feGaussianBlur stdDeviation="4"/>
<feComposite in2="hardAlpha" operator="out"/>
<feColorMatrix type="matrix" values="0 0 0 0 0.027451 0 0 0 0 0.572549 0 0 0 0 1 0 0 0 0.25 0"/>
<feBlend mode="normal" in2="BackgroundImageFix" result="effect1_dropShadow_6782_699"/>
<feBlend mode="normal" in="SourceGraphic" in2="effect1_dropShadow_6782_699" result="shape"/>
</filter>
</defs>
</svg>
