<svg width="60" height="60" viewBox="0 0 60 60" fill="none" xmlns="http://www.w3.org/2000/svg">
<g id="icon-earth">
<rect width="60" height="60" rx="21" fill="#EAF4FF"/>
<g id="Vector" filter="url(#filter0_d_6784_15)">
<path d="M42.6331 19.1987C42.5788 18.8119 42.2983 18.4937 41.919 18.3891L29.7649 15.0359C29.5916 14.988 29.4086 14.988 29.2351 15.0359L17.081 18.3891C16.7017 18.4937 16.4212 18.8117 16.3669 19.1987C16.2964 19.7015 14.6882 31.5834 18.8132 37.4943C22.9333 43.3982 29.0113 44.9111 29.268 44.9727C29.3443 44.991 29.422 45 29.5 45C29.578 45 29.6557 44.9908 29.732 44.9727C29.9889 44.9111 36.0669 43.3982 40.1868 37.4943C44.3118 31.5836 42.7036 19.7017 42.6331 19.1987ZM37.3379 26.1354L29.0475 34.3599C28.8546 34.5513 28.6016 34.6471 28.3488 34.6471C28.0959 34.6471 27.8429 34.5514 27.65 34.3599L22.5241 29.2748C22.3387 29.091 22.2346 28.8416 22.2346 28.5816C22.2346 28.3216 22.3389 28.0722 22.5241 27.8884L23.5419 26.8787C23.9278 26.496 24.5536 26.4958 24.9394 26.8787L28.3488 30.2609L34.9226 23.7392C35.1079 23.5553 35.3593 23.452 35.6214 23.452C35.8835 23.452 36.1349 23.5553 36.3201 23.7392L37.3379 24.7489C37.7238 25.1318 37.7238 25.7526 37.3379 26.1354Z" fill="#0792FF"/>
</g>
</g>
<defs>
<filter id="filter0_d_6784_15" x="8" y="11" width="43" height="46" filterUnits="userSpaceOnUse" color-interpolation-filters="sRGB">
<feFlood flood-opacity="0" result="BackgroundImageFix"/>
<feColorMatrix in="SourceAlpha" type="matrix" values="0 0 0 0 0 0 0 0 0 0 0 0 0 0 0 0 0 0 127 0" result="hardAlpha"/>
<feOffset dy="4"/>
<feGaussianBlur stdDeviation="4"/>
<feComposite in2="hardAlpha" operator="out"/>
<feColorMatrix type="matrix" values="0 0 0 0 0.027451 0 0 0 0 0.572549 0 0 0 0 1 0 0 0 0.25 0"/>
<feBlend mode="normal" in2="BackgroundImageFix" result="effect1_dropShadow_6784_15"/>
<feBlend mode="normal" in="SourceGraphic" in2="effect1_dropShadow_6784_15" result="shape"/>
</filter>
</defs>
</svg>
