<svg width="141" height="143" viewBox="0 0 141 143" fill="none" xmlns="http://www.w3.org/2000/svg">
<rect x="0.637451" width="140" height="142.373" rx="50" fill="#EAF4FF"/>
<g filter="url(#filter0_d_1456_274)">
<path d="M66.3453 31.76C60.001 33.1913 54.6626 38.2588 52.9604 44.4095L52.6123 45.6861L49.7303 45.7634C47.2738 45.8214 46.5581 45.9182 45.0881 46.3437C38.9566 48.1811 34.1984 53.0359 32.5929 59.1285C31.974 61.4689 31.8773 64.9891 32.3802 67.3488C32.5929 68.3545 32.9605 69.6891 33.1926 70.2887C33.5601 71.2751 33.6761 71.4105 34.2177 71.4879C34.5659 71.5459 35.6297 71.7006 36.5968 71.836L38.3376 72.0875L37.5252 70.5401C36.3067 68.2385 35.8231 66.3623 35.8425 63.7705C35.8425 59.7281 37.1384 56.6141 40.0591 53.6935C41.5291 52.2042 42.09 51.798 43.6374 51.0437C46.1132 49.8252 47.5059 49.4964 50.1171 49.477C51.7225 49.477 52.6316 49.5737 53.8695 49.9025C54.7593 50.154 55.6103 50.3087 55.7651 50.2507C55.9198 50.1733 56.0165 49.8058 56.0165 49.1676C56.0165 45.8214 57.6606 41.9725 60.1751 39.4193C65.649 33.8489 74.1983 33.6362 80.0204 38.8971C82.8057 41.4115 84.3917 44.719 84.7592 48.8194C84.8173 49.6511 84.914 50.3281 84.9333 50.3281C84.972 50.3281 85.765 50.1346 86.7128 49.9025C89.0726 49.3223 92.09 49.3223 94.2176 49.9219C96.7902 50.6375 98.6083 51.7207 100.601 53.7129C103.502 56.6141 104.798 59.6701 104.798 63.6738C104.817 66.5751 103.986 69.4957 102.651 71.3912C102.419 71.7006 102.245 71.9908 102.245 72.0294C102.245 72.0681 103.057 71.9908 104.044 71.836C105.011 71.7006 106.094 71.5459 106.423 71.4879C106.964 71.4105 107.08 71.2751 107.428 70.2887C108.357 67.7549 108.531 66.7685 108.512 63.7705C108.512 61.3528 108.434 60.5985 108.067 59.2252C106.384 52.9779 101.722 48.1811 95.5716 46.363C94.1596 45.9375 93.2892 45.8214 90.9875 45.7441L88.1441 45.628L87.8347 44.5449C85.9971 37.9687 80.5813 32.9592 73.8502 31.644C71.8772 31.2572 68.2989 31.3152 66.3453 31.76Z" fill="#0792FF"/>
<path d="M69.7302 62.1652C68.4343 63.964 66.7902 67.0393 65.8618 69.4377C63.3086 76.0912 63.3279 82.8608 65.9005 89.0695C66.7128 91.0036 66.7322 91.1197 66.2293 90.4814C63.9856 87.6382 63.2699 86.8065 61.8386 85.3559C55.4556 78.8957 47.3125 75.3562 36.9063 74.4858C35.475 74.3698 34.2757 74.3311 34.2177 74.3891C33.9082 74.6986 37.3705 80.211 39.7303 83.1316C46.2486 91.2357 54.8947 95.7617 66.326 97.0383L67.4285 97.1543V111.061H73.2312V97.1543L74.3531 97.0383C80.0397 96.4 85.0107 94.9687 89.4788 92.667C94.8366 89.9012 99.7302 85.3559 103.483 79.6307C104.837 77.5805 106.5 74.6986 106.5 74.4085C106.5 74.2537 103.85 74.4278 100.891 74.8146C90.2911 76.1879 81.4904 81.1781 75.3588 89.2822C74.4884 90.4234 74.1596 90.5975 74.6432 89.6497C75.1074 88.7407 76.0745 85.5299 76.442 83.6925C76.9449 81.1781 76.9062 76.9616 76.3647 74.3891C75.765 71.6039 75.1074 69.7084 73.8115 67.0006C72.767 64.8537 70.678 61.3528 70.4266 61.3528C70.3685 61.3528 70.0591 61.7203 69.7302 62.1652Z" fill="#0792FF"/>
</g>
<defs>
<filter id="filter0_d_1456_274" x="8.18126" y="12.6265" width="124.208" height="127.428" filterUnits="userSpaceOnUse" color-interpolation-filters="sRGB">
<feFlood flood-opacity="0" result="BackgroundImageFix"/>
<feColorMatrix in="SourceAlpha" type="matrix" values="0 0 0 0 0 0 0 0 0 0 0 0 0 0 0 0 0 0 127 0" result="hardAlpha"/>
<feOffset dy="5.11642"/>
<feGaussianBlur stdDeviation="11.9383"/>
<feComposite in2="hardAlpha" operator="out"/>
<feColorMatrix type="matrix" values="0 0 0 0 0.027451 0 0 0 0 0.572549 0 0 0 0 1 0 0 0 0.29 0"/>
<feBlend mode="normal" in2="BackgroundImageFix" result="effect1_dropShadow_1456_274"/>
<feBlend mode="normal" in="SourceGraphic" in2="effect1_dropShadow_1456_274" result="shape"/>
</filter>
</defs>
</svg>
