<svg width="141" height="143" viewBox="0 0 141 143" fill="none" xmlns="http://www.w3.org/2000/svg">
<rect x="0.637451" width="140" height="142.373" rx="50" fill="#EAF4FF"/>
<g filter="url(#filter0_d_1456_270)">
<path fill-rule="evenodd" clip-rule="evenodd" d="M41.3476 32.5878C40.7582 33.2632 40.1131 34.6236 40.1131 35.1916C40.1131 35.5014 40.771 36.1758 41.8873 37.0101C43.9321 38.5387 44.9698 39.7631 45.8725 41.7119C46.7666 43.6429 46.7071 44.3387 45.5257 45.7616C43.9518 47.6579 41.7132 51.2588 40.5005 53.8449C36.1738 63.0715 35.6796 73.5143 39.1077 83.2775C41.78 90.8886 46.9769 97.92 53.69 103.007C58.0356 106.3 65.3487 109.693 70.3304 110.727L71.9371 111.061L72.5609 110.295C75.0213 107.275 78.4499 100.756 79.8027 96.5256C81.4322 91.4309 81.7137 89.4821 81.7196 83.2642C81.7255 76.9378 81.4137 74.8345 79.7328 69.8616C75.4161 57.0918 65.4635 47.8 52.5844 44.5161L49.8134 43.8095L49.0923 41.7157C47.6516 37.5341 44.0771 32.3563 42.5237 32.2015C42.027 32.1521 41.6081 32.2898 41.3476 32.5878ZM63.9367 41.9256C62.4573 42.1991 60.5553 42.6492 59.71 42.9257L58.1729 43.4284L60.7346 43.4588C68.2964 43.5486 77.2077 46.1533 84.8144 50.4971C95.3687 56.5242 103.658 64.8959 108.811 74.731C109.637 76.3085 110.253 77.3094 110.179 76.9553C110.106 76.6013 109.869 75.4458 109.653 74.3878C108.707 69.7432 106.161 63.7073 103.435 59.646C97.2805 50.4781 88.8549 44.6557 78.154 42.1764C74.7065 41.3776 67.581 41.252 63.9367 41.9256ZM61.247 45.937C67.9275 49.4159 72.5985 53.615 76.7028 59.8314C77.6378 61.2476 78.4781 62.4406 78.57 62.4826C79.0959 62.7223 92.3554 71.624 95.7015 73.9835C98.8967 76.2369 106.937 82.211 110.251 84.795L110.894 85.2959L110.755 83.0654C110.593 80.4548 109.868 78.822 106.956 74.509C97.6927 60.7921 80.9842 49.2827 65.0895 45.6705C63.5397 45.3185 61.5223 44.9641 60.6065 44.8833L58.9414 44.7365L61.247 45.937ZM54.4757 49.9267C55.0743 50.2489 55.7394 51.7573 55.7394 52.7933C55.7394 54.4029 53.6116 55.3961 52.2368 54.4279C51.7324 54.0731 51.6829 54.0906 51.5362 54.6785C51.1698 56.1457 49.359 56.8327 48.1327 55.9693C47.2868 55.3737 46.6802 53.5452 47.0256 52.6321C47.1798 52.2245 47.5031 51.7401 47.7441 51.556C48.3479 51.095 49.8716 51.1218 50.5589 51.6059C51.0966 51.9845 51.1283 51.9747 51.1283 51.4293C51.1283 50.0558 53.0839 49.1779 54.4757 49.9267ZM60.7659 54.9831C62.6748 56.2405 62.5419 59.9295 60.5512 60.9304C57.6557 62.386 55.9881 62.3569 54.5769 60.8263L53.9462 60.1424V61.201C53.9462 62.7375 52.8641 63.886 50.7507 64.5928C49.3987 65.0453 48.9432 65.0932 48.1199 64.8704C46.5465 64.4445 45.4927 63.0362 45.4927 61.3594C45.4927 60.256 46.2419 58.8987 47.085 58.4748C49.9515 57.0336 51.5141 57.0295 53.0783 58.4589L53.6196 58.9533L53.7638 57.8712C53.9493 56.4818 54.9186 55.4935 56.7663 54.8103C58.3277 54.233 59.7184 54.293 60.7659 54.9831ZM68.1814 61.107C70.2497 62.4692 70.4178 65.8157 68.508 67.6038C67.7439 68.3197 61.8269 70.5177 60.6649 70.5177C59.5532 70.5177 58.1781 69.8681 57.5256 69.034L57.0202 68.3882V69.3371C57.0202 70.4405 56.5624 71.4306 55.6605 72.2773C54.7257 73.1551 49.2253 75.1798 47.7275 75.1976C44.0381 75.2414 42.2818 70.5878 45.02 68.0241C45.7698 67.3219 51.6911 65.1102 52.8211 65.1102C53.9521 65.1102 54.958 65.5227 55.8034 66.3336L56.5079 67.009V66.3088C56.5079 65.2588 57.1132 64.0065 57.9719 63.2804C58.7083 62.6572 63.8998 60.609 65.2176 60.4216C66.1016 60.2959 67.4088 60.5982 68.1814 61.107ZM72.87 69.2428C75.5245 70.7425 75.9548 74.6272 73.7064 76.7926C72.9013 77.5679 65.7184 80.3067 64.5151 80.2972C63.4577 80.2887 61.8272 79.4526 61.0443 78.5173L60.3504 77.6884V78.8796C60.3504 81.4094 59.1751 82.5187 54.7398 84.1752C52.8905 84.8658 50.9941 85.5031 50.5253 85.5917C48.3781 85.9965 45.8305 84.3235 45.2406 82.1208C44.7098 80.1394 45.6715 77.6658 47.302 76.8181C48.3033 76.2977 53.9405 74.2214 54.9693 73.9943C56.1423 73.7355 57.9429 74.3182 58.9658 75.288L59.838 76.1148L59.8437 75.3119C59.8521 74.122 60.6908 72.4773 61.6673 71.7365C62.1407 71.3775 64.1416 70.492 66.1141 69.7687C70.073 68.3169 71.091 68.2378 72.87 69.2428ZM81.4499 69.6173C82.2763 71.7715 83.2297 76.6201 83.5328 80.2089L83.7098 82.3037L84.7744 82.737C91.414 85.4395 97.1755 86.9163 103.427 87.5181C106.065 87.7723 106.085 87.7699 108.062 86.9704C109.153 86.5288 110.045 86.0936 110.042 86.0035C110.039 85.9131 108.512 85.0373 106.648 84.0573C100.555 80.8542 87.1757 73.0039 82.0081 69.6003C81.2575 69.1061 81.2539 69.1061 81.4499 69.6173ZM74.7157 79.8584C77.1019 81.4748 77.4301 84.5548 75.4153 86.4199C74.5587 87.213 68.8231 89.3155 67.5164 89.3155C66.3434 89.3155 65.0372 88.7461 64.4229 87.9669C64.0271 87.4648 64.0067 87.4857 63.8348 88.5656C63.4687 90.8664 62.3418 91.694 57.2046 93.4358C54.8932 94.2194 54.6171 94.2601 53.6311 93.9632C51.4565 93.3083 50.0765 91.0124 50.6352 88.9784C51.1296 87.1782 52.1028 86.4078 55.4133 85.1949C59.1966 83.8088 60.1826 83.68 61.5692 84.391C62.1482 84.6881 62.8027 85.19 63.0232 85.5068C63.4177 86.073 63.4244 86.0663 63.4244 85.1112C63.4244 82.9503 64.5523 81.8664 68.1763 80.5439C69.6908 79.9913 70.9893 79.4794 71.0623 79.406C71.1353 79.3329 71.7926 79.2729 72.5232 79.2729C73.4805 79.2729 74.0927 79.4364 74.7157 79.8584ZM83.5558 86.0323C83.4851 86.4927 83.3573 87.5274 83.272 88.3316L83.117 89.7942L84.3499 90.0053C85.028 90.1217 88.0613 90.2137 91.0905 90.2098C95.8611 90.2036 96.9729 90.1228 99.3985 89.6047C103.415 88.7469 103.657 88.5782 100.898 88.5592C96.6273 88.5298 89.9057 87.3026 85.3505 85.7207C84.5185 85.4318 83.8033 85.1954 83.7613 85.1954C83.7193 85.1954 83.6268 85.5719 83.5558 86.0323ZM72.8332 89.8212C74.1078 90.4027 74.9496 91.6364 74.9509 92.9246C74.9535 95.2301 72.8273 96.9118 69.9095 96.9118C68.5057 96.9118 68.2357 96.8256 67.54 96.1555L66.7546 95.3993V96.1818C66.7546 98.6835 62.4825 100.939 60.1029 99.6942C57.6591 98.4151 57.6189 94.694 60.0355 93.4729C62.5316 92.2116 64.0786 92.1663 65.4363 93.3148L66.1825 93.9459L66.4574 92.8482C66.8196 91.4028 67.8855 90.4194 69.7333 89.8261C71.6051 89.2251 71.5275 89.2254 72.8332 89.8212ZM73.5771 98.2694C74.7129 99.1943 74.9699 100.396 74.3071 101.684C73.5033 103.246 71.4304 103.676 70.1045 102.554C69.3567 101.922 69.3162 101.914 69.3162 102.413C69.3162 103.921 68.07 105.023 66.3662 105.023C65.1725 105.023 64.5479 104.675 64.0674 103.741C63.3058 102.26 63.8342 100.74 65.3641 100.01C66.4825 99.4768 67.6199 99.6329 68.4714 100.437L69.0601 100.993V100.278C69.0601 99.8095 69.359 99.2636 69.931 98.6886C70.6578 97.9581 70.9867 97.8141 71.9163 97.8188C72.5831 97.8224 73.2502 98.0031 73.5771 98.2694Z" fill="#0792FF"/>
</g>
<defs>
<filter id="filter0_d_1456_270" x="12.9764" y="13.4314" width="121.794" height="126.623" filterUnits="userSpaceOnUse" color-interpolation-filters="sRGB">
<feFlood flood-opacity="0" result="BackgroundImageFix"/>
<feColorMatrix in="SourceAlpha" type="matrix" values="0 0 0 0 0 0 0 0 0 0 0 0 0 0 0 0 0 0 127 0" result="hardAlpha"/>
<feOffset dy="5.11642"/>
<feGaussianBlur stdDeviation="11.9383"/>
<feComposite in2="hardAlpha" operator="out"/>
<feColorMatrix type="matrix" values="0 0 0 0 0.027451 0 0 0 0 0.572549 0 0 0 0 1 0 0 0 0.29 0"/>
<feBlend mode="normal" in2="BackgroundImageFix" result="effect1_dropShadow_1456_270"/>
<feBlend mode="normal" in="SourceGraphic" in2="effect1_dropShadow_1456_270" result="shape"/>
</filter>
</defs>
</svg>
