<svg width="141" height="143" viewBox="0 0 141 143" fill="none" xmlns="http://www.w3.org/2000/svg">
<g clip-path="url(#clip0_1456_299)">
<rect x="0.800171" width="140" height="142.373" rx="50" fill="#EAF4FF"/>
<g filter="url(#filter0_d_1456_299)">
<path fill-rule="evenodd" clip-rule="evenodd" d="M41.1941 39.1627L60.0442 27.1017C60.2863 26.9462 60.5905 26.9708 60.805 27.1633L75.4531 40.3029C75.6018 40.4361 75.6745 40.6117 75.6638 40.8111C75.6531 41.0105 75.5611 41.1775 75.3995 41.2938L56.9731 54.5181C56.7248 54.6967 56.3938 54.6736 56.1716 54.4634L41.0998 40.1613C40.9535 40.0219 40.8853 39.8402 40.9044 39.6385C40.9236 39.4368 41.024 39.2713 41.1941 39.1627Z" fill="#0792FF"/>
<path fill-rule="evenodd" clip-rule="evenodd" d="M40.6615 44.0946L54.4583 57.6492C54.5894 57.7778 54.6537 57.9387 54.6484 58.1227L54.253 71.8313C54.2453 72.09 54.0951 72.3063 53.8561 72.4025C53.6178 72.4995 53.3596 72.4472 53.1764 72.2655L39.4785 58.7078C39.3505 58.5808 39.2862 58.423 39.2908 58.2413L39.5865 44.5358C39.5926 44.2771 39.7421 44.0584 39.9804 43.9607C40.2187 43.8629 40.4769 43.9137 40.6615 44.0946Z" fill="#0792FF"/>
<path fill-rule="evenodd" clip-rule="evenodd" d="M58.2389 58.1135L75.7228 45.147C75.9182 45.0015 76.1611 44.98 76.3795 45.0885C76.5971 45.1971 76.7273 45.4042 76.7312 45.6482L76.9296 58.4129C76.9327 58.6247 76.8423 58.8079 76.6729 58.9334L58.2956 72.6004C58.0941 72.7497 57.8412 72.7682 57.6198 72.6489C57.3991 72.5303 57.275 72.3078 57.288 72.0561L57.9822 58.5916C57.993 58.3952 58.0811 58.2305 58.2389 58.1135Z" fill="#0792FF"/>
<path fill-rule="evenodd" clip-rule="evenodd" d="M74.8761 72.0492L91.5172 58.5369C91.6696 58.4137 91.8497 58.3698 92.0413 58.4091L102.723 60.6033C102.966 60.6533 103.148 60.8273 103.209 61.069C103.27 61.3108 103.194 61.551 103.004 61.7119L85.1337 76.8486C84.9506 77.0041 84.713 77.0419 84.4901 76.9518L75.0378 73.1331C74.8233 73.0469 74.6823 72.8668 74.6478 72.6381C74.6141 72.4087 74.6968 72.1954 74.8761 72.0492Z" fill="#0792FF"/>
<path fill-rule="evenodd" clip-rule="evenodd" d="M87.3328 78.4623L105.195 63.1693C105.337 63.0484 105.505 62.9984 105.689 63.023C105.873 63.0476 106.022 63.1393 106.127 63.2932L117.888 80.4909C118.07 80.7573 118.026 81.1138 117.785 81.3278L99.9235 97.1505C99.7818 97.276 99.6101 97.3283 99.4232 97.3037C99.2354 97.2791 99.0837 97.1844 98.9787 97.0265L87.2163 79.2984C87.0378 79.0289 87.0868 78.6725 87.3328 78.4623Z" fill="#0792FF"/>
<path fill-rule="evenodd" clip-rule="evenodd" d="M77.2606 76.9672L84.1636 79.8188C84.2862 79.8689 84.3782 79.9451 84.451 80.056L95.2686 96.5331C95.428 96.7756 95.4066 97.0843 95.2158 97.3022C95.025 97.5208 94.7231 97.5816 94.4633 97.4546L87.9963 94.2873C87.896 94.238 87.8201 94.1733 87.7557 94.0802L76.5021 77.9188C76.3381 77.6839 76.3481 77.3814 76.5266 77.1573C76.7044 76.9341 76.9971 76.8579 77.2606 76.9672Z" fill="#0792FF"/>
<path fill-rule="evenodd" clip-rule="evenodd" d="M39.2057 78.9481L47.6343 75.7269C47.786 75.6684 47.9362 75.6692 48.0879 75.7277L67.4805 83.2949C67.7188 83.3873 67.8705 83.5997 67.8835 83.8561C67.8957 84.1117 67.7655 84.3381 67.5379 84.4543L60.9154 87.8264C60.7537 87.9088 60.5844 87.9196 60.4143 87.8572L39.2149 80.1399C38.9613 80.0475 38.8004 79.8181 38.7981 79.5471C38.7958 79.2768 38.9536 79.0443 39.2057 78.9481Z" fill="#0792FF"/>
<path fill-rule="evenodd" clip-rule="evenodd" d="M61.5506 91.0676L55.8782 111.349C55.8115 111.586 55.8935 111.828 56.0896 111.975C56.2866 112.123 56.5402 112.133 56.7486 112.002L64.0968 107.365C64.2255 107.284 64.3121 107.171 64.3489 107.021L69.0183 88.0751C69.0735 87.8495 69.0083 87.6262 68.8313 87.4761C68.6551 87.3268 68.4183 87.2844 68.213 87.3914L61.8686 90.6942C61.7115 90.7758 61.5981 90.8967 61.5506 91.0676Z" fill="#0792FF"/>
<path fill-rule="evenodd" clip-rule="evenodd" d="M37.1491 82.3756L58.5715 90.2808C58.8795 90.394 59.0488 90.722 58.9645 91.0399L53.2875 112.526C53.24 112.707 53.1297 112.844 52.9634 112.929C52.7971 113.014 52.6217 113.022 52.4477 112.955L31.4047 104.765C31.1051 104.648 30.9411 104.33 31.0193 104.017L36.3178 82.8175C36.363 82.6358 36.4718 82.4973 36.6358 82.4103C36.8005 82.3233 36.9752 82.311 37.1491 82.3756Z" fill="#0792FF"/>
</g>
</g>
<defs>
<filter id="filter0_d_1456_299" x="2.99988" y="5" width="143" height="142" filterUnits="userSpaceOnUse" color-interpolation-filters="sRGB">
<feFlood flood-opacity="0" result="BackgroundImageFix"/>
<feColorMatrix in="SourceAlpha" type="matrix" values="0 0 0 0 0 0 0 0 0 0 0 0 0 0 0 0 0 0 127 0" result="hardAlpha"/>
<feOffset dy="6"/>
<feGaussianBlur stdDeviation="14"/>
<feComposite in2="hardAlpha" operator="out"/>
<feColorMatrix type="matrix" values="0 0 0 0 0.027451 0 0 0 0 0.572549 0 0 0 0 1 0 0 0 0.29 0"/>
<feBlend mode="normal" in2="BackgroundImageFix" result="effect1_dropShadow_1456_299"/>
<feBlend mode="normal" in="SourceGraphic" in2="effect1_dropShadow_1456_299" result="shape"/>
</filter>
<clipPath id="clip0_1456_299">
<rect x="0.800171" width="140" height="142.373" rx="50" fill="white"/>
</clipPath>
</defs>
</svg>
