<svg width="141" height="143" viewBox="0 0 141 143" fill="none" xmlns="http://www.w3.org/2000/svg">
<g clip-path="url(#clip0_1456_291)">
<rect x="0.800171" width="140" height="142.373" rx="50" fill="#EAF4FF"/>
<g filter="url(#filter0_d_1456_291)">
<path fill-rule="evenodd" clip-rule="evenodd" d="M66.369 28.2334L65.9102 28.6953V38.4362C65.9102 43.9666 65.9805 48.0995 66.0726 47.9981C66.1621 47.8998 66.8349 46.9942 67.5676 45.9859L68.9002 44.1526V36.4241V28.6953L68.4414 28.2334C68.1523 27.942 67.7692 27.7712 67.4052 27.7712C67.0412 27.7712 66.6581 27.942 66.369 28.2334ZM73.844 28.2334L73.3852 28.6953V36.4241V44.1526L74.7178 45.9859C75.4506 46.9942 76.1233 47.8998 76.2128 47.9981C76.305 48.0995 76.3752 43.9666 76.3752 38.4362V28.6953L75.9165 28.2334C75.6274 27.942 75.2443 27.7712 74.8802 27.7712C74.5162 27.7712 74.1331 27.942 73.844 28.2334ZM59.1333 34.0304C58.9642 34.1599 58.7379 34.5042 58.6305 34.7956C58.501 35.1472 58.4352 40.2166 58.4352 49.8609V64.3962L59.8399 65.0965C60.6125 65.4815 61.2852 65.7966 61.3349 65.7966C61.3845 65.7966 61.4252 58.7657 61.4252 50.1723C61.4252 34.799 61.4192 34.542 61.0514 34.1715C60.6263 33.7433 59.6069 33.6682 59.1333 34.0304ZM81.234 34.1715C80.8662 34.542 80.8602 34.799 80.8602 50.1723C80.8602 58.7657 80.901 65.7966 80.9505 65.7966C81.0002 65.7966 81.673 65.4815 82.4455 65.0965L83.8503 64.3962V49.8768C83.8503 34.8895 83.8258 34.3732 83.0955 33.9793C82.5313 33.6751 81.6348 33.7678 81.234 34.1715ZM51.5208 43.2073C51.1581 43.5727 51.147 43.8347 51.147 52.1468V60.7098L52.6471 61.4696L54.1473 62.2294L54.0954 52.9261C54.0462 44.082 54.026 43.6035 53.6876 43.2268C53.212 42.6975 52.0373 42.687 51.5208 43.2073ZM88.5978 43.2268C88.2594 43.6035 88.2392 44.082 88.1901 52.9261L88.1381 62.2294L89.6383 61.4696L91.1384 60.7098V52.1468C91.1384 43.8347 91.1274 43.5727 90.7646 43.2073C90.2481 42.687 89.0734 42.6975 88.5978 43.2268ZM68.6425 49.6509C67.3549 51.4347 66.039 53.4366 65.7181 54.0995C63.9562 57.7397 63.962 62.4537 65.7327 66.0119C66.3062 67.164 70.9058 73.7028 71.1427 73.7028C71.3797 73.7028 75.9792 67.164 76.5528 66.0119C78.3234 62.4537 78.3292 57.7397 76.5673 54.0995C75.9591 52.8427 71.4206 46.4074 71.1427 46.4074C71.0551 46.4074 69.9301 47.8669 68.6425 49.6509ZM51.184 68.1854C51.2494 72.093 51.2777 72.3637 51.7714 73.797C52.7943 76.7678 54.7149 79.3385 57.0981 80.9269C58.3195 81.7411 69.0912 87.2564 69.4595 87.2564C69.7086 87.2564 69.7075 82.3621 69.458 80.3584C68.994 76.6302 67.1882 73.3747 64.3369 71.1262C63.4489 70.4259 61.1753 69.1626 57.0796 67.0932L51.1151 64.0798L51.184 68.1854ZM85.1584 67.126C81.6799 68.8934 78.7601 70.5066 78.0209 71.0699C75.2319 73.1944 73.3436 76.5244 72.8338 80.2168C72.5789 82.0622 72.5731 87.2564 72.8259 87.2564C73.1942 87.2564 83.9659 81.7411 85.1873 80.9269C87.5728 79.337 89.4959 76.7616 90.5114 73.797C90.9842 72.4164 91.0332 72.009 91.0984 68.9026C91.1375 67.039 91.1414 65.204 91.1072 64.8247L91.045 64.1351L85.1584 67.126ZM51.1502 85.1387C51.1541 89.3809 51.3773 90.6492 52.5331 92.9979C53.4968 94.9562 54.8784 96.6803 56.467 97.9067C57.0865 98.3852 60.1391 100.06 63.3347 101.675L69.0871 104.581V108.635C69.0871 112.968 69.1721 113.442 70.062 114.07C70.6036 114.452 71.6912 114.445 72.2421 114.057C73.081 113.465 73.1983 112.787 73.1983 108.537V104.581L78.9508 101.675C82.1463 100.06 85.1989 98.3852 85.8184 97.9067C87.4226 96.6683 88.8 94.9445 89.7535 92.9826C90.9143 90.5936 91.1313 89.3619 91.1352 85.1357L91.1384 81.6031L84.8304 84.7889C79.2309 87.6169 78.3798 88.1065 77.2507 89.1487C74.5618 91.6305 73.1081 94.655 72.7315 98.5511C72.5682 100.24 72.4514 100.498 71.7104 100.807C71.2543 100.997 71.0312 100.997 70.575 100.807C69.8436 100.502 69.7213 100.241 69.564 98.6452C69.0749 93.6884 66.6895 89.7665 62.7632 87.465C61.5448 86.7506 51.4287 81.6091 51.2418 81.6091C51.1896 81.6091 51.1485 83.1975 51.1502 85.1387Z" fill="#0792FF"/>
</g>
</g>
<defs>
<filter id="filter0_d_1456_291" x="27.2385" y="9.01103" width="87.7766" height="134.334" filterUnits="userSpaceOnUse" color-interpolation-filters="sRGB">
<feFlood flood-opacity="0" result="BackgroundImageFix"/>
<feColorMatrix in="SourceAlpha" type="matrix" values="0 0 0 0 0 0 0 0 0 0 0 0 0 0 0 0 0 0 127 0" result="hardAlpha"/>
<feOffset dy="5.11642"/>
<feGaussianBlur stdDeviation="11.9383"/>
<feComposite in2="hardAlpha" operator="out"/>
<feColorMatrix type="matrix" values="0 0 0 0 0.027451 0 0 0 0 0.572549 0 0 0 0 1 0 0 0 0.29 0"/>
<feBlend mode="normal" in2="BackgroundImageFix" result="effect1_dropShadow_1456_291"/>
<feBlend mode="normal" in="SourceGraphic" in2="effect1_dropShadow_1456_291" result="shape"/>
</filter>
<clipPath id="clip0_1456_291">
<rect x="0.800171" width="140" height="142.373" rx="50" fill="white"/>
</clipPath>
</defs>
</svg>
