<svg width="141" height="143" viewBox="0 0 141 143" fill="none" xmlns="http://www.w3.org/2000/svg">
<g clip-path="url(#clip0_1456_278)">
<rect x="0.637451" width="140" height="142.373" rx="50" fill="#EAF4FF"/>
<g filter="url(#filter0_d_1456_278)">
<path fill-rule="evenodd" clip-rule="evenodd" d="M69.353 26.6654C68.2244 27.0104 67.6278 28.3691 68.153 29.3987C68.251 29.5909 68.2993 29.7483 68.2602 29.7483C68.2211 29.7483 67.8121 29.5804 67.3512 29.3751C66.237 28.879 65.7063 28.8327 65.1213 29.1805C63.9505 29.8767 63.7294 31.211 64.622 32.1951C64.9144 32.5174 65.2035 32.6663 65.9812 32.8949C66.5243 33.0547 67.1961 33.1854 67.474 33.1854C67.9688 33.1854 67.9772 33.192 67.8891 33.5113C67.6118 34.5165 67.9584 35.5157 68.7466 35.9841C69.2311 36.2719 69.3237 36.2841 70.748 36.2468C72.1122 36.2111 72.2742 36.1829 72.6172 35.922C73.2683 35.4267 73.5669 34.4036 73.3208 33.5113C73.2318 33.1887 73.2366 33.1854 73.7884 33.1836C74.5164 33.1813 76.1161 32.6738 76.4794 32.3297C76.906 31.9258 77.0933 31.4818 77.0933 30.8743C77.0933 30.202 76.8662 29.7374 76.3378 29.329C75.6898 28.8278 75.1962 28.8261 74.017 29.3211C73.457 29.5561 72.9717 29.7483 72.9388 29.7483C72.9057 29.7483 72.9647 29.5796 73.0699 29.3733C73.3277 28.8679 73.2459 27.8923 72.905 27.4069C72.4815 26.804 71.7994 26.5466 70.6557 26.5585C70.1134 26.5641 69.5272 26.6122 69.353 26.6654ZM70.6634 30.5187C71.2742 30.5187 71.891 30.4756 72.034 30.4228C72.2923 30.3275 72.2927 30.3298 72.1114 30.77C72.011 31.0135 71.948 31.4167 71.9714 31.6659L72.014 32.1187H70.6957C69.9706 32.1187 69.34 32.1179 69.2943 32.117C69.2486 32.1159 69.2258 31.9094 69.2437 31.658C69.2616 31.4068 69.1963 31.0071 69.0986 30.7702L68.921 30.3393L69.2369 30.429C69.4106 30.4783 70.0526 30.5187 70.6634 30.5187ZM63.5906 34.2719C62.8433 34.6908 62.4559 35.3431 62.4622 36.1714C62.4708 37.2961 63.0092 37.8322 64.4811 38.1818C66.1778 38.5848 67.0505 38.4604 67.6131 37.7353C68.2376 36.9304 68.1671 35.8205 67.4478 35.1327C66.754 34.4693 64.2393 33.9081 63.5906 34.2719ZM75.4327 34.3669C73.9424 34.7698 73.3419 35.277 73.1759 36.273C73.0738 36.8858 73.4783 37.7549 74.0418 38.1335C74.5314 38.4624 75.3911 38.4869 76.6405 38.2077C78.1644 37.8672 78.73 37.3025 78.73 36.1223C78.73 35.373 78.4425 34.8393 77.8038 34.4031C77.3193 34.0719 76.5659 34.0604 75.4327 34.3669ZM68.6263 38.0762C68.033 38.4185 67.6238 39.1842 67.6238 39.9519C67.6238 40.6506 67.7787 41.0837 68.1866 41.526C68.6954 42.0777 69.1132 42.1929 70.605 42.1929C72.0967 42.1929 72.5145 42.0777 73.0233 41.526C73.9653 40.5046 73.7044 38.6501 72.5336 38.0445C72.1457 37.8439 71.847 37.808 70.5804 37.8096C69.25 37.8113 69.0345 37.8407 68.6263 38.0762ZM62.8891 39.469C61.9976 39.6643 61.5529 40.0968 61.3124 41.0021C61.1193 41.7291 61.2624 42.3748 61.7338 42.9039C62.235 43.4663 62.4833 43.5623 64.0114 43.7843C65.6473 44.022 66.3427 43.841 66.8234 43.0524C67.3566 42.1778 67.3221 41.2481 66.7301 40.5348C66.3031 40.0203 65.9615 39.8716 64.6985 39.6496C64.0892 39.5424 63.5116 39.4408 63.4152 39.4235C63.3187 39.4063 63.082 39.4267 62.8891 39.469ZM76.2165 39.691C75.7021 39.8011 75.176 39.9511 75.0474 40.0245C73.4605 40.9289 73.7686 43.3869 75.5257 43.841C75.8827 43.9332 76.2977 43.9201 77.1624 43.7888C78.6445 43.5638 78.9595 43.4543 79.4108 43.0069C80.3221 42.1037 80.0863 40.3787 78.9564 39.6821C78.516 39.4107 77.5103 39.4139 76.2165 39.691ZM68.7937 43.9225C67.8725 44.3274 67.4644 44.9966 67.4633 46.1041C67.4623 47.1315 67.8221 47.7885 68.6145 48.2062C69.0946 48.4593 72.1473 48.4421 72.6405 48.1836C73.3123 47.8314 73.8186 46.9377 73.8186 46.1041C73.8186 45.1229 73.1031 44.109 72.239 43.8658C71.5368 43.6682 69.288 43.7052 68.7937 43.9225ZM61.6915 45.1698C60.2198 45.6007 59.7543 47.9609 60.9413 48.9735C61.4264 49.3873 61.8207 49.4966 63.429 49.6627C64.7007 49.7942 64.8206 49.7881 65.3122 49.5677C66.0891 49.2192 66.468 48.6476 66.5421 47.7121C66.5953 47.0394 66.5661 46.8856 66.2965 46.4192C65.8865 45.71 65.3205 45.4537 63.6537 45.2229C62.1559 45.0154 62.2133 45.017 61.6915 45.1698ZM77.2479 45.2655C75.7449 45.5139 75.2127 45.7825 74.8684 46.4668C74.4114 47.3748 74.6652 48.6984 75.4102 49.2925C75.9497 49.7228 76.4932 49.7991 77.9382 49.6478C79.4968 49.4846 80.0967 49.2548 80.5547 48.6455C80.8552 48.2457 80.8923 48.1026 80.8885 47.3573C80.8835 46.3566 80.669 45.8763 80.038 45.4529C79.4431 45.0537 78.7937 45.0102 77.2479 45.2655ZM43.015 46.8397C44.3277 47.8299 45.3289 49.1744 46.2978 51.2483C48.758 56.5132 49.9691 64.3837 49.972 75.1249C49.9742 83.3031 50.5023 87.1816 52.1994 91.4857C54.5711 97.4999 58.9255 101.762 64.3932 103.421C64.9051 103.577 65.3505 103.731 65.3831 103.764C65.4158 103.797 65.3342 103.944 65.2019 104.09C65.0697 104.237 64.837 104.596 64.6852 104.89C64.4413 105.361 64.4089 105.583 64.4089 106.786C64.4089 107.974 64.4428 108.213 64.6726 108.649C65.0148 109.299 65.5859 109.954 65.9986 110.17L66.3259 110.342L66.1353 110.786C65.87 111.404 65.8748 112.874 66.144 113.436C66.3906 113.951 66.953 114.553 67.4413 114.824C67.9714 115.119 72.634 115.186 73.4512 114.911C74.0944 114.694 74.7749 114.047 75.0417 113.397C75.2788 112.82 75.2783 111.417 75.0407 110.842C74.8647 110.415 74.8675 110.395 75.1257 110.223C76.2125 109.499 76.7568 108.518 76.8354 107.141C76.9018 105.979 76.7133 105.164 76.1996 104.39C75.9804 104.06 75.8156 103.781 75.8334 103.771C75.8513 103.76 76.3129 103.625 76.8595 103.47C84.1622 101.4 89.4382 94.6203 90.8809 85.4526C91.3043 82.7616 91.3741 81.5429 91.4747 75.0821C91.6133 66.1661 92.0156 61.9309 93.1802 57.1264C94.44 51.9294 96.1743 48.5293 98.4284 46.8375C99.1654 46.2842 99.0302 46.2627 97.9356 46.7591C94.5992 48.2718 91.136 53.1106 88.4199 60.0541C86.5972 64.7138 85.0522 70.6935 84.1695 76.5044C83.145 83.2499 81.6118 88.4917 79.7211 91.7141C78.2881 94.1566 76.3353 96.2506 74.0045 97.8443L72.6283 98.7853L73.1363 99.1987C74.6612 100.439 75.2808 101.596 75.0597 102.791L74.9853 103.193L74.3733 102.979C74.0369 102.861 73.6167 102.763 73.4399 102.76C73.1743 102.757 73.1185 102.704 73.1185 102.454C73.1185 101.717 72.6091 101.183 70.8005 100.027C66.6874 97.3968 66.0762 96.9456 64.6413 95.4797C62.2353 93.0217 60.9307 90.7803 59.5985 86.8156C58.7082 84.1653 58.024 81.151 57.3303 76.8207C56.0922 69.0933 54.514 63.3433 52.1425 57.9195C49.6561 52.2329 46.4521 48.0935 43.5022 46.7564C42.4114 46.2619 42.2789 46.2846 43.015 46.8397ZM68.4948 50.182C67.6752 50.5439 67.2195 51.4917 67.2942 52.6798C67.3533 53.6226 67.7428 54.2656 68.4714 54.6231C68.9179 54.8423 69.1917 54.8745 70.605 54.8745C72.0182 54.8745 72.292 54.8423 72.7385 54.6231C73.4671 54.2656 73.8566 53.6226 73.9158 52.6798C73.9914 51.4755 73.5295 50.5328 72.6893 50.1769C72.1682 49.9562 68.9974 49.96 68.4948 50.182ZM60.9017 51.0895C60.4868 51.2133 59.9744 51.6725 59.7486 52.1227C59.6598 52.2999 59.5506 52.7492 59.506 53.1211C59.3567 54.3657 60.0617 55.3497 61.2627 55.5726C61.5786 55.6311 62.3935 55.716 63.0738 55.7609C64.0869 55.8279 64.3935 55.8076 64.769 55.6487C65.7171 55.2471 66.1184 54.5879 66.1288 53.4152C66.135 52.716 65.9359 52.2411 65.4422 51.7777C65.0023 51.3645 64.5544 51.2415 62.9414 51.0901C61.4106 50.9464 61.3807 50.9464 60.9017 51.0895ZM77.8532 51.1337C76.4625 51.2879 76.0011 51.466 75.5335 52.0294C75.1143 52.5346 74.9828 53.1005 75.1062 53.8692C75.2243 54.6048 75.328 54.8322 75.7105 55.1947C76.2765 55.7313 76.8029 55.8547 78.1417 55.7647C78.8189 55.7192 79.6313 55.6334 79.9472 55.574C81.1598 55.3459 81.8448 54.3784 81.7017 53.0962C81.5948 52.1375 81.1925 51.5209 80.4678 51.2048C79.8503 50.9355 79.6826 50.9309 77.8532 51.1337ZM68.3702 56.642C68.1055 56.7638 67.7372 57.0651 67.5518 57.3114C67.2461 57.7174 67.2114 57.8595 67.1799 58.8354C67.1395 60.0887 67.2933 60.504 68.0147 61.0884L68.4639 61.4524H70.605H72.746L73.1953 61.0884C73.9166 60.504 74.0704 60.0887 74.03 58.8354C73.999 57.8754 73.9609 57.7135 73.6769 57.3364C73.0965 56.5654 72.5917 56.4149 70.5972 56.4179C69.1454 56.42 68.7703 56.4578 68.3702 56.642ZM60.051 57.3148C59.2538 57.7306 58.8554 58.5195 58.8591 59.6746C58.8617 60.496 59.1992 61.1878 59.7911 61.585C60.2439 61.8887 60.4031 61.919 62.1256 62.0286C64.222 62.1622 64.7816 62.0492 65.3363 61.3809C66.1773 60.3675 66.0044 58.4256 65.0125 57.7454C64.425 57.3426 64.0523 57.2698 62.1607 57.1888C60.675 57.1253 60.3806 57.143 60.051 57.3148ZM77.895 57.2436C76.0411 57.3946 75.2667 58.1877 75.3589 59.841C75.4143 60.8351 75.7971 61.4992 76.5349 61.8807C76.9984 62.1203 77.1321 62.131 78.7268 62.0548C80.6226 61.9641 81.1239 61.8655 81.5936 61.4909C82.4891 60.7768 82.6106 58.7147 81.8099 57.817C81.2049 57.1388 80.4816 57.0329 77.895 57.2436ZM68.3837 63.4674C68.1265 63.5596 67.7489 63.819 67.5447 64.0437C66.5458 65.1425 66.76 67.4612 67.9348 68.2672C68.3581 68.5577 68.4105 68.5635 70.605 68.5635C72.7994 68.5635 72.8518 68.5577 73.2751 68.2672C74.1437 67.6712 74.5219 66.2241 74.1572 64.8922C73.9916 64.2879 73.3026 63.5894 72.7066 63.4216C72.0206 63.2285 68.9597 63.261 68.3837 63.4674ZM59.5616 63.9653C58.6296 64.4491 58.3585 65.0172 58.409 66.3804C58.4427 67.2884 58.4829 67.4453 58.7848 67.8464C59.3597 68.6102 59.8153 68.7353 62.1503 68.7701L64.187 68.8006L64.6825 68.4699C65.3425 68.0294 65.5895 67.5821 65.6828 66.6584C65.7876 65.6226 65.6077 64.998 65.0496 64.4592C64.4902 63.9192 63.9813 63.7999 61.837 63.7056C60.2109 63.6342 60.1962 63.6358 59.5616 63.9653ZM78.3453 63.7561C77.0836 63.8364 76.9253 63.8731 76.4748 64.1904C76.1974 64.3857 75.8639 64.7691 75.7105 65.0687C75.4735 65.5318 75.447 65.7121 75.5047 66.4634C75.5799 67.4413 75.758 67.8673 76.2761 68.3093C76.855 68.8032 77.4038 68.8898 79.3647 68.7969C81.6338 68.6894 82.1113 68.5026 82.6003 67.5312C82.7571 67.2198 82.8217 66.8416 82.8217 66.2353C82.8217 65.1639 82.5224 64.4724 81.8689 64.0339C81.3337 63.6748 80.5689 63.6146 78.3453 63.7561ZM59.2353 71.0529C58.824 71.2655 58.5979 71.4642 58.5508 71.6544C58.5121 71.8106 58.5891 72.5125 58.7217 73.214C58.8544 73.9155 58.9961 74.7029 59.0366 74.9636C59.1582 75.7482 59.2014 75.8275 59.5795 75.9611C59.787 76.0344 60.8008 76.0885 61.9421 76.0869C64.2328 76.084 64.6569 75.9691 65.2408 75.1934C65.5431 74.7919 65.5822 74.6368 65.619 73.6953C65.6678 72.4453 65.6165 72.195 65.2126 71.7082C64.6249 71.0003 64.2574 70.8996 61.9457 70.8135L59.8495 70.7354L59.2353 71.0529ZM68.1499 70.9809C67.6056 71.2363 67.1066 71.7414 66.9299 72.2157C66.75 72.6984 66.7743 74.4825 66.9669 74.9378C67.1962 75.4796 67.8116 76.0661 68.3096 76.2173C68.5726 76.2972 69.5429 76.3314 70.8481 76.307C72.8566 76.2693 72.9813 76.2532 73.3718 75.9817C74.1105 75.468 74.3407 74.9899 74.3874 73.8717C74.442 72.5639 74.3509 72.1413 73.9028 71.6239C73.2426 70.8616 72.8594 70.7614 70.605 70.7614C68.9168 70.7614 68.5472 70.7944 68.1499 70.9809ZM77.9701 70.8655C77.0175 70.9362 76.664 71.0635 76.1761 71.5117C75.6744 71.9726 75.5378 72.3989 75.5571 73.445C75.5774 74.5452 75.6549 74.821 76.0914 75.347C76.6377 76.0051 77.1322 76.1098 79.4975 76.0676C82.3991 76.0159 82.2021 76.159 82.6247 73.7965L82.9606 71.9184L82.6281 71.5594C82.0395 70.9239 81.5132 70.7592 80.1329 70.7788C79.4577 70.7884 78.4845 70.8275 77.9701 70.8655ZM59.5977 78.0499C59.5262 78.239 60.2672 82.1383 60.5251 82.9297L60.6714 83.3785L62.4232 83.3344C63.8292 83.2991 64.2588 83.2474 64.5988 83.0729C65.4591 82.6315 65.8684 81.8374 65.8695 80.607C65.8705 79.7058 65.6494 79.0657 65.1688 78.5784C64.5635 77.9648 64.0926 77.8673 61.7321 77.8673C59.9802 77.8673 59.6564 77.8951 59.5977 78.0499ZM76.865 78.0184C76.3129 78.2017 75.6561 78.8982 75.483 79.4839C75.1641 80.5632 75.357 81.8758 75.932 82.5398C76.4564 83.1452 76.9369 83.2793 78.9247 83.3745C80.5762 83.4535 80.7055 83.4444 80.8099 83.2411C81.071 82.7324 81.9729 78.1526 81.8386 78.0161C81.6918 77.8669 77.3156 77.8689 76.865 78.0184ZM68.1932 78.3331C67.6899 78.4947 67.1494 78.962 66.8815 79.4673C66.6722 79.862 66.6301 80.1398 66.6301 81.1266C66.6301 82.2047 66.659 82.3617 66.9499 82.8633C67.1873 83.2728 67.4266 83.4941 67.8789 83.7226C68.4674 84.0199 68.5597 84.0303 70.5986 84.0292C72.58 84.0281 72.7462 84.0106 73.3119 83.7435C73.7776 83.5238 73.9902 83.3287 74.2472 82.8855C74.5528 82.3583 74.5798 82.2157 74.5798 81.1266C74.5798 80.048 74.5509 79.8918 74.2593 79.3888C74.083 79.0848 73.7411 78.7114 73.4995 78.5591C73.0822 78.2961 72.9451 78.281 70.7803 78.2583C69.5265 78.2452 68.3622 78.2788 68.1932 78.3331ZM62.5092 84.9528C61.4348 84.9802 61.194 85.0187 61.194 85.1634C61.194 85.5286 62.0639 87.93 62.6618 89.2156L63.282 90.5489L63.8454 90.5463C64.9282 90.5414 65.8459 89.8614 66.1095 88.869C66.268 88.2725 66.1452 86.7212 65.9 86.223C65.365 85.1353 64.7268 84.8963 62.5092 84.9528ZM76.3334 85.1758C75.8236 85.4489 75.5754 85.6958 75.3399 86.1637C75.0628 86.7141 74.9276 88.2186 75.0976 88.8585C75.3673 89.8737 76.2203 90.4958 77.444 90.5694L78.087 90.6082L78.6815 89.4039C79.2621 88.2274 80.2498 85.5638 80.2498 85.1742C80.2498 85.0007 80.0481 84.9791 78.4669 84.9832C77.0719 84.9869 76.6078 85.0289 76.3334 85.1758ZM67.7944 85.9124C67.2218 86.176 66.7406 86.7305 66.5631 87.3311C66.4889 87.5823 66.4493 88.2958 66.4723 88.966C66.5091 90.0359 66.5456 90.2026 66.8364 90.6275C67.0141 90.8872 67.3823 91.2291 67.6547 91.3873C68.1358 91.6667 68.2201 91.6749 70.605 91.6749C72.9899 91.6749 73.0741 91.6667 73.5552 91.3873C73.8276 91.2291 74.1959 90.8872 74.3736 90.6275C74.6643 90.2026 74.7008 90.0359 74.7376 88.966C74.7837 87.6256 74.6605 87.0607 74.2016 86.5078C73.5985 85.7811 73.2165 85.6948 70.605 85.6948C68.5861 85.6948 68.2023 85.7246 67.7944 85.9124ZM64.3006 91.9571C64.2141 92.0988 65.3401 93.4335 66.4456 94.4999C67.3131 95.3367 70.4017 97.5416 70.7063 97.5416C70.8771 97.5416 72.78 96.3171 73.7644 95.5736C74.5933 94.9476 76.4679 93.0605 76.9522 92.3647C77.2614 91.9202 77.1575 91.8086 76.54 91.9222C75.5423 92.1058 74.7251 92.8047 74.5661 93.6108C74.4835 94.0297 74.3884 94.0743 74.1635 93.7996C74.0795 93.6971 73.8122 93.5104 73.5694 93.3848C73.1737 93.1802 72.8686 93.1566 70.6389 93.159C68.4851 93.1612 68.0869 93.1906 67.6823 93.3772C67.4251 93.4958 67.1424 93.6813 67.0543 93.7895C66.8276 94.0671 66.7275 94.0348 66.6532 93.6601C66.551 93.1443 66.077 92.5266 65.5734 92.2527C65.0469 91.9663 64.3882 91.8133 64.3006 91.9571Z" fill="#0792FF"/>
</g>
</g>
<defs>
<filter id="filter0_d_1456_278" x="18.6771" y="7.7979" width="104.089" height="136.28" filterUnits="userSpaceOnUse" color-interpolation-filters="sRGB">
<feFlood flood-opacity="0" result="BackgroundImageFix"/>
<feColorMatrix in="SourceAlpha" type="matrix" values="0 0 0 0 0 0 0 0 0 0 0 0 0 0 0 0 0 0 127 0" result="hardAlpha"/>
<feOffset dy="5.11642"/>
<feGaussianBlur stdDeviation="11.9383"/>
<feComposite in2="hardAlpha" operator="out"/>
<feColorMatrix type="matrix" values="0 0 0 0 0.027451 0 0 0 0 0.572549 0 0 0 0 1 0 0 0 0.29 0"/>
<feBlend mode="normal" in2="BackgroundImageFix" result="effect1_dropShadow_1456_278"/>
<feBlend mode="normal" in="SourceGraphic" in2="effect1_dropShadow_1456_278" result="shape"/>
</filter>
<clipPath id="clip0_1456_278">
<rect x="0.637451" width="140" height="142.373" rx="50" fill="white"/>
</clipPath>
</defs>
</svg>
