<svg width="141" height="143" viewBox="0 0 141 143" fill="none" xmlns="http://www.w3.org/2000/svg">
<rect x="0.800171" width="140" height="142.373" rx="50" fill="#EAF4FF"/>
<g filter="url(#filter0_d_1456_295)">
<path fill-rule="evenodd" clip-rule="evenodd" d="M64.259 35.5215C55.1039 37.1644 46.2996 42.9012 41.1055 50.6081C39.1096 53.5695 37.1008 58.0096 36.1441 61.5744C35.3074 64.6929 35.269 65.0711 35.269 70.2303C35.269 75.4083 35.3049 75.7588 36.1592 78.9451C37.1914 82.7954 39.592 87.866 41.7823 90.8216C46.742 97.5151 53.7901 102.271 61.9616 104.437C65.6316 105.41 73.1631 105.676 76.9854 104.967C88.0845 102.909 97.3294 96.253 102.483 86.6097C105.293 81.3526 106.331 76.9354 106.331 70.2303C106.331 65.0412 106.006 62.8407 104.648 58.8446C100.587 46.8859 90.0434 37.9362 77.1795 35.5293C74.299 34.9904 67.2427 34.9862 64.259 35.5215ZM76.1204 39.6568C82.7279 40.7933 88.3361 43.6366 93.0302 48.2297C104.095 59.056 105.371 76.2532 96.0291 88.6348C91.287 94.9197 84.4046 99.1269 76.3072 100.691C73.4817 101.237 67.6819 101.124 64.5395 100.461C53.8294 98.2037 45.0195 90.6528 41.3815 80.6125C39.9289 76.6031 39.4851 73.6094 39.659 68.9853C39.9709 60.68 43.0548 53.8019 49.0427 48.0562C53.644 43.6413 58.4749 41.0927 64.6797 39.8065C67.816 39.1563 72.8296 39.0907 76.1204 39.6568ZM68.6064 41.1718C61.9767 41.6161 61.4444 43.7688 65.251 54.7401C68.0286 62.7461 70.1372 67.187 71.1607 67.187C71.393 67.187 71.9643 66.7823 72.4302 66.2879C73.4758 65.1779 82.4654 47.5029 82.6746 46.1456C82.7972 45.3499 82.6811 44.9919 82.0677 44.2726C80.7492 42.7269 79.2135 42.0488 76.013 41.5992C71.8097 41.0083 71.3988 40.9848 68.6064 41.1718ZM54.302 45.9832C53.3015 46.4447 51.935 47.6171 49.5338 50.0744C42.8015 56.9638 42.6747 59.6964 48.958 62.4771C53.621 64.5407 65.3887 68.2937 67.1967 68.2937C68.575 68.2937 68.9284 67.7104 68.5082 66.1282C68.1083 64.6202 60.8559 48.7598 59.8207 47.1291C59.4345 46.5205 58.9181 45.8709 58.6735 45.6855C57.9448 45.1333 55.832 45.2774 54.302 45.9832ZM85.924 47.8537C83.4014 49.4473 73.0545 65.4133 73.2834 67.3591C73.4146 68.4749 74.8058 68.7009 78.1068 68.1429C86.1846 66.7776 95.7469 64.7532 97.1962 64.102C98.1815 63.6593 98.5761 62.478 98.4123 60.4639C98.251 58.4808 97.6385 57.1628 95.131 53.4016C93.2265 50.5453 91.1877 48.2562 90.0156 47.6584C88.8915 47.0849 86.9979 47.1753 85.924 47.8537ZM42.5928 65.6709C41.6695 66.5814 40.8937 69.5621 41.1268 71.3023C41.7107 75.6597 43.2769 80.9885 44.3803 82.3723C45.2692 83.4867 46.6477 84.3402 47.5548 84.3372C48.0263 84.3358 49.0624 84.0359 49.8572 83.6707C52.6129 82.4053 59.2816 77.7114 64.7613 73.1809C68.0331 70.4759 68.3284 69.7658 66.5536 68.8727C65.4014 68.2928 63.0644 67.8233 52.692 66.0878C44.6942 64.7496 43.5737 64.7034 42.5928 65.6709ZM90.2033 67.6358C89.7405 67.6991 86.8375 68.0068 83.7522 68.3188C78.0131 68.8995 74.8221 69.4576 74.1652 69.9951C73.0601 70.8998 74.1506 72.1437 81.5959 78.4723C87.6315 83.6024 90.5898 85.964 91.6923 86.5328C92.764 87.0855 93.9788 86.6136 95.538 85.0382C96.693 83.8713 97.1695 83.0753 98.0098 80.9102C100.274 75.0738 100.824 71.4689 99.7586 69.4365C98.9578 67.9094 98.1195 67.6158 94.4104 67.5658C92.5593 67.5406 90.666 67.5721 90.2033 67.6358ZM67.0343 72.7186C65.9127 73.3031 55.5223 82.182 52.1462 85.4408C50.9606 86.5853 49.9086 87.8533 49.8079 88.2589C49.041 91.353 56.7079 96.8187 63.4041 97.9511C65.2614 98.2654 65.5068 98.2491 66.4543 97.7489C67.1294 97.3923 67.6993 96.7756 68.108 95.9597C69.4647 93.2506 70.2511 74.0355 69.063 72.6242C68.5789 72.0493 68.292 72.0629 67.0343 72.7186ZM70.678 72.8942C70.2365 73.9749 70.2124 82.7135 70.6345 88.6282C71.2106 96.6989 71.324 97.1009 73.1617 97.6045C75.7653 98.3177 78.4377 97.7342 83.1972 95.4136C86.7306 93.6905 88.6755 92.2892 89.3691 90.9657C89.9539 89.8502 89.8799 88.2387 89.1921 87.1066C87.4066 84.1684 74.0199 72.6953 71.886 72.2745C71.1024 72.1199 70.9655 72.1901 70.678 72.8942Z" fill="#0792FF"/>
</g>
<defs>
<filter id="filter0_d_1456_295" x="11.3665" y="16.3421" width="118.867" height="118.05" filterUnits="userSpaceOnUse" color-interpolation-filters="sRGB">
<feFlood flood-opacity="0" result="BackgroundImageFix"/>
<feColorMatrix in="SourceAlpha" type="matrix" values="0 0 0 0 0 0 0 0 0 0 0 0 0 0 0 0 0 0 127 0" result="hardAlpha"/>
<feOffset dy="5.12195"/>
<feGaussianBlur stdDeviation="11.9512"/>
<feComposite in2="hardAlpha" operator="out"/>
<feColorMatrix type="matrix" values="0 0 0 0 0.027451 0 0 0 0 0.572549 0 0 0 0 1 0 0 0 0.29 0"/>
<feBlend mode="normal" in2="BackgroundImageFix" result="effect1_dropShadow_1456_295"/>
<feBlend mode="normal" in="SourceGraphic" in2="effect1_dropShadow_1456_295" result="shape"/>
</filter>
</defs>
</svg>
