<svg width="141" height="143" viewBox="0 0 141 143" fill="none" xmlns="http://www.w3.org/2000/svg">
<rect x="0.800171" width="140" height="142.373" rx="50" fill="#EAF4FF"/>
<g filter="url(#filter0_d_1456_287)">
<path fill-rule="evenodd" clip-rule="evenodd" d="M60.6978 37.2376C56.9725 38.091 56.4405 38.4863 56.4405 40.402C56.4405 42.1189 58.5337 46.1586 60.9978 49.1971C62.0257 50.4641 64.6774 52.9963 66.8908 54.8242C69.1042 56.6516 71.7093 58.909 72.6799 59.8404L74.4451 61.5339L76.3823 60.6202C78.784 59.4872 81.4947 58.7577 84.3177 58.4839L86.4814 58.2745L86.2703 56.9587C85.4679 51.9587 80.3854 44.5229 75.4801 41.1726C70.8667 38.0211 64.581 36.348 60.6978 37.2376ZM51.8704 42.9431C49.0054 46.0226 48.4608 54.6698 50.7829 60.2065L51.2662 61.3588L53.2572 60.8977C57.8734 59.8286 63.5695 59.9826 67.465 61.2821L68.8716 61.7514L67.5324 60.6592C61.0254 55.3507 58.4762 52.3265 55.7805 46.7171C54.8719 44.8265 53.814 42.9963 53.4292 42.6496C52.7436 42.0317 52.7129 42.0374 51.8704 42.9431ZM83.1758 61.9099C78.5528 62.8066 75.3551 64.4014 72.5253 67.2207C67.5886 72.1389 67.0093 79.1462 70.9886 85.8149C72.5934 88.5039 76.4021 92.1463 79.4761 93.9314C89.8143 99.9347 103.101 99.2161 109.727 92.2946C111.762 90.1692 112.086 89.098 110.848 88.5833C110.426 88.4079 108.223 88.1066 105.952 87.9135C98.9956 87.3218 95.1368 85.9533 87.3002 81.2988C82.5454 78.4744 80.1957 77.2997 76.6514 75.9754C74.7108 75.2503 74.1158 74.421 75.0486 73.7414C76.9977 72.3218 83.6509 74.3501 91.336 78.7075C100.147 83.7031 104.39 85.1841 109.888 85.1841C113.82 85.1841 114.586 83.9898 113.626 79.3477C112.064 71.7863 104.456 64.8452 95.0959 62.4402C91.5907 61.5393 86.2982 61.3039 83.1758 61.9099ZM56.0312 63.4958C47.8437 64.6918 40.4307 69.5422 36.8928 76.0185C35.1968 79.1231 34.4475 83.984 35.4539 85.3551C36.179 86.3432 39.5756 86.4321 43.2606 85.5591C47.0056 84.6725 49.8579 83.3563 55.9719 79.6949C58.6179 78.1103 61.7828 76.3904 63.0058 75.8726C65.1555 74.9626 65.2363 74.8839 65.4444 73.5029C65.694 71.8433 67.2787 68.3577 68.5211 66.7351C68.9949 66.1162 69.3824 65.5211 69.3824 65.4118C69.3824 65.022 65.7614 63.8768 63.357 63.5066C60.6092 63.0832 58.8719 63.0808 56.0312 63.4958ZM60.1869 81.8043C53.012 86.3961 49.1761 87.8986 42.8175 88.6074C36.6132 89.2989 36.1071 89.9086 39.267 92.8853C43.0215 96.4229 47.6983 97.9091 54.2268 97.64C58.7898 97.4517 61.477 96.766 65.4658 94.7715C67.8764 93.566 70.7447 91.6866 70.7447 91.3123C70.7447 91.2003 70.0558 90.1957 69.2139 89.0794C67.4704 86.768 65.7267 82.8836 65.4147 80.6154C65.2983 79.7692 65.0323 79.0773 64.8235 79.078C64.6147 79.0787 62.5283 80.3056 60.1869 81.8043Z" fill="#0792FF"/>
</g>
<defs>
<filter id="filter0_d_1456_287" x="11.1234" y="18.2398" width="126.753" height="108.753" filterUnits="userSpaceOnUse" color-interpolation-filters="sRGB">
<feFlood flood-opacity="0" result="BackgroundImageFix"/>
<feColorMatrix in="SourceAlpha" type="matrix" values="0 0 0 0 0 0 0 0 0 0 0 0 0 0 0 0 0 0 127 0" result="hardAlpha"/>
<feOffset dy="5.11642"/>
<feGaussianBlur stdDeviation="11.9383"/>
<feComposite in2="hardAlpha" operator="out"/>
<feColorMatrix type="matrix" values="0 0 0 0 0.027451 0 0 0 0 0.572549 0 0 0 0 1 0 0 0 0.29 0"/>
<feBlend mode="normal" in2="BackgroundImageFix" result="effect1_dropShadow_1456_287"/>
<feBlend mode="normal" in="SourceGraphic" in2="effect1_dropShadow_1456_287" result="shape"/>
</filter>
</defs>
</svg>
