<svg width="141" height="144" viewBox="0 0 141 144" fill="none" xmlns="http://www.w3.org/2000/svg">
<rect x="0.637451" y="0.734375" width="140" height="142.373" rx="50" fill="#EAF4FF"/>
<g filter="url(#filter0_d_1456_282)">
<path d="M103.986 33.6865C102.479 33.8928 100.507 34.6069 99.0637 35.4956C97.4925 36.4636 95.5044 38.4156 94.35 40.1453L93.4521 41.4625L90.6623 41.5101C88.4497 41.5419 87.6 41.6212 86.5578 41.891C81.6516 43.1288 78.1404 45.8107 76.3446 49.7146C75.4308 51.6825 75.2383 52.5711 75.2223 54.7611C75.2063 55.8561 75.2704 57.6335 75.3506 58.7285C75.4788 60.5535 75.4628 60.7757 75.1421 61.6009C74.7253 62.6959 74.1641 63.2672 72.3203 64.4891C70.5727 65.6476 69.4343 66.7585 68.7609 67.9328C67.6226 69.9165 66.9973 73.4395 67.1576 76.9943L67.2538 78.9938L65.9391 79.8508C65.2176 80.311 64.0311 81.279 63.3257 81.9773C62.2354 83.0564 61.8827 83.5166 61.2894 84.7703C60.103 87.1984 60.0388 87.6744 59.8945 95.6251C59.7502 103.449 59.7182 103.734 58.5157 107.638C58.195 108.717 58.3393 109.257 59.0448 109.527C59.3975 109.654 59.8144 109.59 61.1772 109.209C65.6986 107.924 67.0774 107.686 71.5186 107.448C76.2164 107.194 77.8678 106.924 80.2407 106.02C85.1629 104.131 88.1772 99.7353 88.9628 93.2605L89.1552 91.6894L90.6142 90.5309C94.2057 87.6744 96.4022 84.6116 97.268 81.279C97.6368 79.819 97.6849 77.4386 97.3963 74.4869C97.1237 71.6939 97.2039 71.4241 98.7431 70.1863C100.186 69.0119 101.164 67.9804 102.046 66.6791C104.259 63.4576 105.172 59.2522 104.563 55.1261C104.226 52.9203 103.986 52.222 102.559 49.3655C101.565 47.3818 101.421 46.9851 101.501 46.509C101.854 44.6681 104.371 41.891 107.385 40.0184C107.882 39.7169 108.379 39.2884 108.475 39.0821C108.828 38.2886 107.994 35.8765 106.952 34.6228C106.183 33.7182 105.461 33.496 103.986 33.6865Z" fill="#0792FF"/>
<path d="M80.8981 38.0982C78.2205 38.4632 76.04 39.5106 74.0359 41.3514C72.641 42.621 71.8874 43.7001 71.1338 45.4934C69.6427 48.9847 69.1618 49.7305 68.0234 50.3812C67.1416 50.889 66.5002 51.0318 63.999 51.3492C60.6802 51.7777 59.0287 52.4759 57.2811 54.2216C56.0466 55.4594 54.7799 57.5542 53.8821 59.8394L53.5454 60.7122L51.7016 60.9026C49.2966 61.1407 48.0941 61.4739 46.3464 62.3626C43.6849 63.6957 42.1297 65.6 40.3821 69.6467C38.1054 74.9154 36.1172 77.8671 33.2313 80.3269C31.9967 81.3584 31.676 81.8504 31.8043 82.4851C31.9005 83.0247 32.2853 83.2151 34.562 83.8816C37.8328 84.8338 39.372 85.4527 44.3583 87.8649C50.2105 90.6897 51.6054 91.1181 55.0846 91.1657L57.2491 91.1816L57.3453 89.674C57.4896 87.5951 57.7461 86.3414 58.3553 84.7545C59.2692 82.3423 61.1291 79.9936 63.4379 78.3591L64.5121 77.6132L64.6083 74.8043C64.6564 73.2491 64.7526 71.678 64.8007 71.313C64.8969 70.6941 64.8648 70.6465 64.3518 70.3767C62.8126 69.615 61.1131 67.5678 60.3755 65.6317C59.9266 64.4574 59.7823 62.2039 60.0549 60.9026C60.3595 59.4268 61.4017 57.5542 62.54 56.4274C63.6784 55.3007 65.5703 54.2692 67.0614 53.9677C68.2158 53.7296 70.6208 53.8407 71.5828 54.1898C71.9676 54.3327 72.3203 54.412 72.3524 54.3803C72.4005 54.3485 72.4967 53.7455 72.5768 53.0631C73.0418 49.3496 75.3345 45.3664 78.3809 42.9384C80.6736 41.1134 83.4474 39.828 86.3333 39.2408C87.1671 39.0821 87.7763 38.8917 87.6801 38.8441C87.5839 38.7806 86.9105 38.5901 86.173 38.4156C84.5697 38.0347 82.3411 37.9078 80.8981 38.0982ZM54.3631 66.7426C58.3874 67.7583 61.1772 71.2971 61.1772 75.3597C61.1772 77.9147 60.3435 79.8825 58.5477 81.6599C56.0947 84.0721 52.7437 84.8973 49.521 83.8816C45.5288 82.628 43.0436 79.0732 43.2681 74.9154C43.4605 71.0274 46.154 67.7741 50.002 66.7426C51.1244 66.457 53.1926 66.4411 54.3631 66.7426Z" fill="#0792FF"/>
<path d="M51.2045 69.2182C47.8856 69.6785 45.3524 73.1221 45.9456 76.3754C46.8916 81.4695 53.0002 83.4373 56.6718 79.8191C59.157 77.3434 59.173 73.4237 56.6879 71.0115C55.1487 69.5198 53.353 68.9326 51.2045 69.2182Z" fill="#0792FF"/>
<path d="M67.9753 56.5068C63.7104 57.1098 61.2734 61.8389 63.2936 65.6C63.7425 66.4252 65.3298 68.0915 65.6665 68.0915C65.7306 68.0915 65.8268 67.9169 65.891 67.7265C66.0513 67.06 67.5264 65.0287 68.4883 64.1083C69.0174 63.6163 70.1077 62.7594 70.9094 62.2357C71.7271 61.6961 72.4806 61.0931 72.5929 60.9026C72.8334 60.4424 72.8013 57.9827 72.5448 57.6811C72.2241 57.2844 70.8773 56.6814 70.1237 56.5861C69.7389 56.5227 69.29 56.4592 69.1136 56.4433C68.9373 56.4116 68.4242 56.4433 67.9753 56.5068Z" fill="#0792FF"/>
</g>
<defs>
<filter id="filter0_d_1456_282" x="7.90141" y="14.8633" width="124.533" height="123.716" filterUnits="userSpaceOnUse" color-interpolation-filters="sRGB">
<feFlood flood-opacity="0" result="BackgroundImageFix"/>
<feColorMatrix in="SourceAlpha" type="matrix" values="0 0 0 0 0 0 0 0 0 0 0 0 0 0 0 0 0 0 127 0" result="hardAlpha"/>
<feOffset dy="5.11642"/>
<feGaussianBlur stdDeviation="11.9383"/>
<feComposite in2="hardAlpha" operator="out"/>
<feColorMatrix type="matrix" values="0 0 0 0 0.027451 0 0 0 0 0.572549 0 0 0 0 1 0 0 0 0.29 0"/>
<feBlend mode="normal" in2="BackgroundImageFix" result="effect1_dropShadow_1456_282"/>
<feBlend mode="normal" in="SourceGraphic" in2="effect1_dropShadow_1456_282" result="shape"/>
</filter>
</defs>
</svg>
