<svg width="60" height="59" viewBox="0 0 60 59" fill="none" xmlns="http://www.w3.org/2000/svg">
<rect y="0.740936" width="60" height="58" rx="21" fill="#EAF4FF"/>
<g filter="url(#filter0_d_2404_169)">
<path d="M29.2071 37.9449C28.8166 38.3354 28.1834 38.3354 27.7929 37.9449L21.8811 32.0331C21.4906 31.6426 21.4906 31.0094 21.8811 30.6189L23.1189 29.3811C23.5094 28.9906 24.1426 28.9906 24.5331 29.3811L28.5 33.348L41.487 20.361C40.0811 18.6815 38.3237 17.3309 36.339 16.4046C34.3542 15.4783 32.1903 14.9988 30 15C21.7155 15 15 21.7155 15 30C15 38.2845 21.7155 45 30 45C38.2845 45 45 38.2845 45 30C44.9981 27.7859 44.5031 25.6 43.551 23.601L29.2071 37.9449Z" fill="#0792FF"/>
</g>
<defs>
<filter id="filter0_d_2404_169" x="7" y="11" width="46" height="46" filterUnits="userSpaceOnUse" color-interpolation-filters="sRGB">
<feFlood flood-opacity="0" result="BackgroundImageFix"/>
<feColorMatrix in="SourceAlpha" type="matrix" values="0 0 0 0 0 0 0 0 0 0 0 0 0 0 0 0 0 0 127 0" result="hardAlpha"/>
<feOffset dy="4"/>
<feGaussianBlur stdDeviation="4"/>
<feComposite in2="hardAlpha" operator="out"/>
<feColorMatrix type="matrix" values="0 0 0 0 0.027451 0 0 0 0 0.572549 0 0 0 0 1 0 0 0 0.25 0"/>
<feBlend mode="normal" in2="BackgroundImageFix" result="effect1_dropShadow_2404_169"/>
<feBlend mode="normal" in="SourceGraphic" in2="effect1_dropShadow_2404_169" result="shape"/>
</filter>
</defs>
</svg>
