<svg width="60" height="61" viewBox="0 0 60 61" fill="none" xmlns="http://www.w3.org/2000/svg">
<g clip-path="url(#clip0_2201_133)">
<rect y="0.740936" width="60" height="60" rx="21" fill="#EAF4FF"/>
<g filter="url(#filter0_d_2201_133)">
<path d="M32.5175 25.9054C32.1766 25.9054 31.8845 26.0515 31.641 26.2463C31.008 26.8793 30.1803 27.6583 29.4499 28.34L29.4012 28.3887C28.7195 29.0217 27.9404 29.7521 27.3074 30.3851L25.8467 28.8756C25.5545 28.5835 25.2137 28.4374 24.8728 28.4861C24.3372 28.5348 23.9964 28.827 23.8016 29.3139C23.6068 29.8008 23.7529 30.2877 24.0937 30.6286C24.9702 31.505 25.5545 32.0893 26.431 33.0145C26.577 33.1606 26.7231 33.2579 26.9179 33.3066C27.064 33.3553 27.21 33.3553 27.3074 33.3553C27.6483 33.3553 27.9404 33.2093 28.2326 32.9658C28.963 32.2354 29.8394 31.4076 30.8133 30.4825C31.641 29.7034 32.5662 28.7783 33.3453 27.9992C33.394 27.9505 33.394 27.9505 33.4426 27.9018C33.7835 27.5123 33.8809 26.8793 33.5887 26.3923C33.3453 26.1002 32.9557 25.9054 32.5175 25.9054Z" fill="#0792FF"/>
<path d="M44.6905 41.5843L38.9935 37.202C42.5481 32.3815 42.3046 25.6133 38.1171 21.0362C33.3452 15.8748 25.2623 15.534 20.101 20.3058C14.9396 25.0777 14.5988 33.1119 19.3706 38.2732C23.5581 42.8016 30.3263 43.6294 35.3903 40.4644L39.2857 46.5022C39.4805 46.7457 39.6752 46.9891 39.9187 47.1839C41.4768 48.4986 43.8141 48.3038 45.1287 46.7457C46.4434 45.2362 46.2487 42.899 44.6905 41.5843ZM36.8024 35.3517C36.4128 35.8873 35.9259 36.4229 35.439 36.9099C34.9034 37.3968 34.3678 37.7863 33.7835 38.1759C29.8394 40.5131 24.678 39.8314 21.4643 36.3742C17.7637 32.3815 18.0072 26.1002 22.0487 22.3996C26.0414 18.699 32.3227 18.9424 36.0233 22.9839C39.237 26.441 39.4318 31.6511 36.8024 35.3517Z" fill="#0792FF"/>
</g>
</g>
<defs>
<filter id="filter0_d_2201_133" x="8" y="12.9352" width="46" height="47.1199" filterUnits="userSpaceOnUse" color-interpolation-filters="sRGB">
<feFlood flood-opacity="0" result="BackgroundImageFix"/>
<feColorMatrix in="SourceAlpha" type="matrix" values="0 0 0 0 0 0 0 0 0 0 0 0 0 0 0 0 0 0 127 0" result="hardAlpha"/>
<feOffset dy="4"/>
<feGaussianBlur stdDeviation="4"/>
<feComposite in2="hardAlpha" operator="out"/>
<feColorMatrix type="matrix" values="0 0 0 0 0.027451 0 0 0 0 0.572549 0 0 0 0 1 0 0 0 0.25 0"/>
<feBlend mode="normal" in2="BackgroundImageFix" result="effect1_dropShadow_2201_133"/>
<feBlend mode="normal" in="SourceGraphic" in2="effect1_dropShadow_2201_133" result="shape"/>
</filter>
<clipPath id="clip0_2201_133">
<rect y="0.740936" width="60" height="60" rx="21" fill="white"/>
</clipPath>
</defs>
</svg>
