<svg width="36" height="36" viewBox="0 0 36 36" fill="none" xmlns="http://www.w3.org/2000/svg">
<path fill-rule="evenodd" clip-rule="evenodd" d="M18 33.4286C26.5209 33.4286 33.4286 26.521 33.4286 18C33.4286 9.47905 26.5209 2.57144 18 2.57144C9.47902 2.57144 2.57141 9.47905 2.57141 18C2.57141 26.521 9.47902 33.4286 18 33.4286ZM18.9219 26H15.8438V19.6763H14L14.3047 16.5342H15.8438V14.9474C15.8438 13.9005 16.2492 12.8964 16.9707 12.1562C17.6923 11.4159 18.671 11 19.6914 11H22V14.1579H19.6914C19.4873 14.1579 19.2916 14.2411 19.1473 14.3891C19.003 14.5372 18.9219 14.738 18.9219 14.9474V16.5342H22L21.6953 19.6763H18.9219V26Z" fill="#C8CDDC"/>
</svg>
