<svg width="110" height="25" viewBox="0 0 110 25" fill="none" xmlns="http://www.w3.org/2000/svg">
<g id="Logo">
<g id="Vector">
<path d="M45.2197 16.0645H46.71V19H44.3842C43.496 19 42.7207 18.8269 42.0584 18.4806C41.4111 18.1344 40.9143 17.6376 40.5681 16.9903C40.2218 16.328 40.0487 15.5452 40.0487 14.6419V9.44839H37.8358V8.74839L42.6681 3.62258H43.2777V6.80645H46.6423V9.44839H43.3455V14.2129C43.3455 14.8 43.5035 15.2591 43.8197 15.5903C44.1509 15.9065 44.6175 16.0645 45.2197 16.0645Z" fill="#C8CDDC"/>
<path d="M54.5158 6.73871H55.5997V9.85484H54.1771C53.2438 9.85484 52.5739 10.0731 52.1674 10.5097C51.7761 10.9462 51.5804 11.6613 51.5804 12.6548V19H48.2836V6.80645H50.4062L50.9933 8.29677C51.8212 7.25806 52.9954 6.73871 54.5158 6.73871Z" fill="#C8CDDC"/>
<path d="M66.495 6.78387H68.9563V18.9774H66.3596L66.0886 17.8935C64.9746 18.857 63.6574 19.3387 62.137 19.3387C60.3004 19.3387 58.7725 18.729 57.5531 17.5097C56.3488 16.2753 55.7467 14.7323 55.7467 12.8806C55.7467 11.0441 56.3488 9.51613 57.5531 8.29677C58.7725 7.07742 60.3004 6.46774 62.137 6.46774C63.6875 6.46774 65.0198 6.96452 66.1338 7.95806L66.495 6.78387ZM60.0144 15.2742C60.6467 15.9065 61.437 16.2226 62.3854 16.2226C63.3488 16.2226 64.1467 15.9065 64.7789 15.2742C65.4112 14.6419 65.7273 13.8441 65.7273 12.8806C65.7273 11.9172 65.4112 11.1194 64.7789 10.4871C64.1467 9.85484 63.3563 9.53871 62.408 9.53871C61.7757 9.53871 61.2037 9.68925 60.6918 9.99032C60.195 10.2763 59.8036 10.6753 59.5176 11.1871C59.2316 11.6839 59.0886 12.2484 59.0886 12.8806C59.0886 13.8441 59.3972 14.6419 60.0144 15.2742Z" fill="#C8CDDC"/>
<path d="M80.4144 2.40323H83.7112V19H81.2725L80.8886 17.9839C79.8047 18.9022 78.5327 19.3613 77.0725 19.3613C75.8531 19.3613 74.7542 19.0828 73.7757 18.5258C72.7972 17.9688 72.0295 17.2011 71.4725 16.2226C70.9306 15.229 70.6596 14.1226 70.6596 12.9032C70.6596 11.6839 70.9306 10.5849 71.4725 9.60645C72.0295 8.62796 72.7972 7.86021 73.7757 7.30323C74.7542 6.74624 75.8531 6.46774 77.0725 6.46774C78.3069 6.46774 79.4209 6.79892 80.4144 7.46129V2.40323ZM74.9499 15.2968C75.5822 15.929 76.3725 16.2452 77.3209 16.2452C78.2843 16.2452 79.0822 15.929 79.7144 15.2968C80.3467 14.6495 80.6628 13.8516 80.6628 12.9032C80.6628 11.9398 80.3467 11.1419 79.7144 10.5097C79.0822 9.87742 78.2843 9.56129 77.3209 9.56129C76.3725 9.56129 75.5822 9.87742 74.9499 10.5097C74.3177 11.1419 74.0015 11.9398 74.0015 12.9032C74.0015 13.8667 74.3177 14.6645 74.9499 15.2968Z" fill="#C8CDDC"/>
<path d="M98.0187 12.8581C98.0187 13.1742 97.9961 13.4978 97.9509 13.829H88.738C88.8735 14.657 89.1972 15.2968 89.709 15.7484C90.2359 16.1849 90.9058 16.4032 91.7187 16.4032C92.2757 16.4032 92.78 16.2828 93.2316 16.0419C93.6832 15.786 94.037 15.4398 94.2929 15.0032H97.7703C97.3187 16.328 96.5509 17.3817 95.4671 18.1645C94.3832 18.9473 93.1337 19.3387 91.7187 19.3387C89.9122 19.3387 88.4069 18.7215 87.2026 17.4871C85.9983 16.2527 85.3961 14.7247 85.3961 12.9032C85.3961 12.1806 85.4939 11.4882 85.6897 10.8258C85.9004 10.1634 86.194 9.56882 86.5703 9.04193C86.9617 8.51505 87.4133 8.06344 87.9251 7.6871C88.437 7.2957 89.0165 6.99462 89.6638 6.78387C90.3112 6.57312 90.9961 6.46774 91.7187 6.46774C92.938 6.46774 94.0294 6.75376 94.9929 7.32581C95.9714 7.89785 96.7165 8.67312 97.2284 9.65161C97.7552 10.6301 98.0187 11.6989 98.0187 12.8581ZM91.7187 9.26774C90.9811 9.26774 90.3563 9.47097 89.8445 9.87742C89.3477 10.2839 89.009 10.8484 88.8284 11.571H94.7219C94.5714 11.0742 94.3531 10.6602 94.0671 10.329C93.7811 9.9828 93.4348 9.71936 93.0284 9.53871C92.637 9.35806 92.2004 9.26774 91.7187 9.26774Z" fill="#C8CDDC"/>
<path d="M109.884 19H106.158L103.742 14.9581L101.258 19H97.6228L101.778 12.7452L97.8938 6.80645H101.62L103.742 10.329L106 6.80645H109.636L105.684 12.5645L109.884 19Z" fill="#C8CDDC"/>
<path fill-rule="evenodd" clip-rule="evenodd" d="M7.03226 0.806641C4.8053 0.806641 3 2.61194 3 4.8389V20.1615C3 22.3884 4.8053 24.1937 7.03226 24.1937H28.8065C31.0334 24.1937 32.8387 22.3884 32.8387 20.1615V4.8389C32.8387 2.61194 31.0334 0.806641 28.8065 0.806641H7.03226ZM16.7774 15.5165H11.6394L16.7774 6.8062V6.35415H7.19607V9.34211H11.893L6.69991 18.1847V18.5486H16.7774V15.5165ZM29.5628 13.3775C29.6069 13.0615 29.629 12.738 29.629 12.4073C29.629 11.2385 29.368 10.169 28.8461 9.19878C28.3243 8.22852 27.5782 7.45672 26.6079 6.88338C25.6377 6.30269 24.5424 6.01235 23.3223 6.01235C22.1315 6.01235 21.051 6.29167 20.0807 6.8503C19.1178 7.40894 18.3607 8.18074 17.8094 9.1657C17.2655 10.1507 16.9935 11.2459 16.9935 12.4514C16.9935 13.6495 17.2692 14.741 17.8204 15.726C18.3717 16.711 19.1288 17.4864 20.0917 18.0524C21.062 18.6111 22.1388 18.8904 23.3223 18.8904C24.7336 18.8904 25.9831 18.5008 27.071 17.7216C28.1589 16.9351 28.9233 15.8767 29.3644 14.5462H25.9023C25.6524 14.9873 25.2995 15.3327 24.8438 15.5827C24.3954 15.8326 23.8883 15.9575 23.3223 15.9575C22.5211 15.9575 21.8558 15.737 21.3266 15.296C20.8047 14.8476 20.474 14.2081 20.3343 13.3775H29.5628ZM21.4699 9.43032C21.9771 9.02604 22.5946 8.8239 23.3223 8.8239C24.0647 8.8239 24.6931 9.02237 25.2077 9.41929C25.7295 9.81622 26.1044 10.3859 26.3323 11.1283H20.4225C20.6136 10.4006 20.9628 9.83459 21.4699 9.43032Z" fill="#C8CDDC"/>
</g>
</g>
</svg>
