<svg width="36" height="36" viewBox="0 0 36 36" fill="none" xmlns="http://www.w3.org/2000/svg">
<path fill-rule="evenodd" clip-rule="evenodd" d="M18 33.4286C26.5209 33.4286 33.4286 26.521 33.4286 18C33.4286 9.47905 26.5209 2.57144 18 2.57144C9.47902 2.57144 2.57141 9.47905 2.57141 18C2.57141 26.521 9.47902 33.4286 18 33.4286ZM16.3029 16.3029C16.753 15.8529 17.3635 15.6 18 15.6C18.6365 15.6 19.247 15.8529 19.6971 16.3029C20.1471 16.753 20.4 17.3635 20.4 18C20.4 18.6365 20.1471 19.247 19.6971 19.6971C19.247 20.1471 18.6365 20.4 18 20.4C17.3635 20.4 16.753 20.1471 16.3029 19.6971C15.8529 19.247 15.6 18.6365 15.6 18C15.6 17.3635 15.8529 16.753 16.3029 16.3029ZM20.8284 15.1716C20.0783 14.4214 19.0609 14 18 14C16.9391 14 15.9217 14.4214 15.1716 15.1716C14.4214 15.9217 14 16.9391 14 18C14 19.0609 14.4214 20.0783 15.1716 20.8284C15.9217 21.5786 16.9391 22 18 22C19.0609 22 20.0783 21.5786 20.8284 20.8284C21.5786 20.0783 22 19.0609 22 18C22 16.9391 21.5786 15.9217 20.8284 15.1716ZM22.9071 14.5071C23.0946 14.3196 23.2 14.0652 23.2 13.8C23.2 13.5348 23.0946 13.2804 22.9071 13.0929C22.7196 12.9054 22.4652 12.8 22.2 12.8C21.9348 12.8 21.6804 12.9054 21.4929 13.0929C21.3054 13.2804 21.2 13.5348 21.2 13.8C21.2 14.0652 21.3054 14.3196 21.4929 14.5071C21.6804 14.6946 21.9348 14.8 22.2 14.8C22.4652 14.8 22.7196 14.6946 22.9071 14.5071ZM14.7768 11.6464C15.6976 11.6056 16.0208 11.6 18 11.6C20.032 11.6 20.34 11.6048 21.2224 11.6464C21.848 11.6752 22.2688 11.7592 22.6608 11.9112C22.9876 12.0313 23.283 12.2239 23.5248 12.4744C23.7744 12.7168 23.9666 13.012 24.0872 13.3384C24.2384 13.7288 24.3232 14.1512 24.3528 14.7768C24.3936 15.6976 24.3992 16.0208 24.3992 18C24.3992 20.0304 24.3944 20.34 24.3528 21.2224C24.324 21.848 24.2392 22.2688 24.0872 22.6624C23.9544 23.0072 23.7936 23.2576 23.524 23.5264C23.2817 23.7761 22.9864 23.9683 22.66 24.0888C22.2688 24.24 21.848 24.324 21.2224 24.3536C20.3016 24.3944 19.9792 24.4 17.9992 24.4C15.968 24.4 15.6592 24.3952 14.776 24.3536C14.152 24.3248 13.7312 24.24 13.336 24.0872C12.992 23.9544 12.7416 23.7936 12.472 23.5248C12.2064 23.2592 12.0464 23.0088 11.9104 22.6608C11.7592 22.2712 11.6752 21.8496 11.6456 21.2232C11.6048 20.3024 11.5992 19.98 11.5992 18C11.5992 15.9688 11.6048 15.66 11.6464 14.7768C11.6752 14.1504 11.7592 13.7304 11.9112 13.3384C12.0315 13.0117 12.224 12.7163 12.4744 12.4744C12.7163 12.2242 13.0117 12.0319 13.3384 11.912C13.7288 11.76 14.1496 11.676 14.7768 11.6464ZM21.2984 10.048C20.4448 10.008 20.1736 10 18 10C15.8264 10 15.5552 10.0104 14.7016 10.048C13.8496 10.088 13.2696 10.2216 12.76 10.42C12.2259 10.6206 11.7421 10.9354 11.3424 11.3424C10.935 11.7419 10.6202 12.2257 10.42 12.76C10.2216 13.2704 10.088 13.8496 10.048 14.7024C10.008 15.5552 10 15.8264 10 18C10 20.1736 10.0096 20.4448 10.048 21.2976C10.088 22.1496 10.2216 22.7304 10.42 23.24C10.6208 23.774 10.9355 24.2577 11.3424 24.6576C11.742 25.0648 12.2259 25.3796 12.76 25.58C13.2704 25.7776 13.8504 25.912 14.7016 25.952C15.5552 25.992 15.8264 26 18 26C20.1736 26 20.4448 25.9896 21.2984 25.952C22.1496 25.912 22.7304 25.7776 23.24 25.58C23.7738 25.379 24.2576 25.0643 24.6576 24.6576C25.0649 24.2581 25.3797 23.7742 25.58 23.24C25.7776 22.7296 25.912 22.1496 25.952 21.2976C25.992 20.4448 26 20.1736 26 18C26 15.8264 25.9896 15.5552 25.952 14.7024C25.912 13.8504 25.7776 13.2696 25.58 12.76C25.3792 12.2261 25.0644 11.7423 24.6576 11.3424C24.2128 10.8984 23.768 10.6232 23.24 10.42C22.7304 10.2216 22.1496 10.088 21.2984 10.048Z" fill="#C8CDDC"/>
</svg>
