<svg width="32" height="51" viewBox="0 0 32 51" fill="none" xmlns="http://www.w3.org/2000/svg">
<g opacity="0.6">
<path fill-rule="evenodd" clip-rule="evenodd" d="M15.1538 0.761962C14.1548 1.98511 14.0193 2.36804 14.3819 2.94213C14.6887 3.42806 14.6842 3.43639 14.1021 3.43639C13.7765 3.43639 13.5102 3.52781 13.5102 3.63954C13.5102 3.75127 13.6392 3.84269 13.7971 3.84269C14.6874 3.84269 14.9446 6.355 14.6709 12.3749C14.4279 17.7152 14.3406 18.063 13.2414 18.063C12.0421 18.063 9.88459 15.9856 8.88719 13.8704C8.4206 12.8809 8.37988 12.6093 8.45878 11.0018C8.54963 9.14848 9.09728 7.60233 10.0408 6.53519C10.2627 6.28431 10.3884 6.02103 10.3202 5.95013C10.2519 5.87944 9.63593 6.40477 8.95102 7.11741C6.92685 9.22466 6.14737 11.43 6.31086 14.5892C6.41659 16.63 6.92509 18.2592 7.96341 19.8834L8.68278 21.0086L7.91485 20.3207C4.89269 17.6142 3.38444 13.6616 3.90038 9.80098C4.25634 7.13773 5.21321 4.73673 6.69992 2.77616C7.52971 1.68181 7.10816 1.83763 5.72483 3.13634C0.575309 7.97124 -0.880851 15.4714 2.05164 22.0564C3.37505 25.0283 5.75068 27.8179 8.25535 29.3409C12.1725 31.7228 17.3675 32.1327 21.5296 30.3885C26.322 28.3802 29.9243 23.7621 31.0186 18.2239C32.0822 12.8407 30.4715 7.53143 26.5779 3.58591C24.8384 1.823 24.2154 1.45652 25.1832 2.76519C26.0948 3.99809 27.3117 6.6262 27.7006 8.20222C28.0843 9.7571 28.0838 12.7659 27.6996 14.2962C27.2563 16.0624 26.2965 17.7816 24.8875 19.3341C24.1989 20.0928 23.5998 20.6761 23.5559 20.6305C23.5118 20.585 23.745 20.1072 24.074 19.5691C25.0246 18.014 25.4879 16.5063 25.5979 14.6095C25.7739 11.5761 24.8727 9.07088 22.8767 7.04448C21.5725 5.72037 21.0271 5.4896 21.9114 6.63596C22.8679 7.87576 23.357 9.25899 23.4566 11.0069C23.5393 12.4561 23.4977 12.6875 22.9458 13.8509C22.6153 14.5475 22.0124 15.5202 21.6063 16.0124C20.1429 17.7859 18.1211 18.6241 17.6251 17.6626C17.3559 17.1409 16.961 8.90145 17.1018 6.74342C17.2179 4.96121 17.4199 4.35583 18.0855 3.79637C18.5002 3.44797 18.4984 3.44533 17.8276 3.44086C17.3023 3.43741 17.2044 3.38215 17.387 3.19262C17.8472 2.71522 17.6422 1.89207 16.8222 0.925698C16.3822 0.407064 15.9638 -0.00938695 15.8921 0.000160956C15.8205 0.00950572 15.4882 0.352418 15.1538 0.761962ZM15.0766 7.29618H16.8388V4.45213H15.0766V7.29618Z" fill="#C8CDDC"/>
<path fill-rule="evenodd" clip-rule="evenodd" d="M0.391599 42.2545H4.30759V28.6821L3.59664 27.7996C2.54363 26.4924 1.4078 24.7036 0.870328 23.5059L0.395515 22.4477L0.391599 42.2545ZM31.0501 23.4984C30.5794 24.686 29.0096 27.1308 28.2114 27.9199L27.6077 28.5165V42.2545H31.5237V32.4019C31.5237 26.983 31.5016 22.5497 31.4748 22.5501C31.4479 22.5505 31.2568 22.9773 31.0501 23.4984ZM7.24458 42.2545H11.1606L11.1592 33.0113L7.24458 31.1146V42.2545ZM22.7617 32.0251L20.9505 32.9337V42.2545H24.6707V36.668C24.6707 33.5954 24.6486 31.0894 24.6218 31.0989C24.595 31.1085 23.7579 31.5253 22.7617 32.0251ZM14.0976 42.2545H17.8178V33.6208H14.0976V42.2545ZM0 50.9898H2.34959L2.38151 48.6537L2.68128 49.3647C2.84614 49.7557 3.07053 50.3042 3.17998 50.5835C3.37108 51.0717 3.40025 51.0443 3.93146 49.8725L4.4842 48.6537L4.50339 50.9898H6.85298V44.4891H4.50965L3.41024 46.7449L2.27754 44.4891H0V50.9898ZM29.3699 50.9898H31.7195V44.286H29.3699V50.9898ZM7.63481 45.6572C7.6329 47.5351 8.7382 49.3209 9.47689 50.9898C10.1034 50.9898 10.7299 50.9898 11.3564 50.9898C11.3564 50.9898 11.8658 49.771 11.952 49.771C12.0379 49.771 12.4333 50.9898 12.4333 50.9898H14.301C14.301 50.9898 16.2514 47.9426 16.2514 45.5782V44.4891H13.9018V45.6948C13.9018 46.3579 13.8039 47.1579 13.6844 47.4724C13.4824 48.0038 13.4557 48.0154 13.3065 47.6379C13.2182 47.4145 13.1399 46.6147 13.1323 45.8604L13.1186 44.4891H10.769L10.7553 45.8604C10.7476 46.6147 10.6693 47.4145 10.581 47.6379C10.4318 48.0154 10.4052 48.0038 10.2031 47.4724C10.0837 47.1579 9.98577 46.3579 9.98577 45.6948V44.4891H7.63618L7.63481 45.6572ZM17.7363 47.4856C17.2123 49.1337 16.6933 50.8604 16.643 51C17.3283 51 18.7967 51 19.0904 51L19.1883 50.5835C19.1883 50.5835 20.5589 50.5835 20.9505 50.5835C21.0484 50.7867 21.1463 50.9483 21.1463 51C21.425 51 23.4959 50.9898 23.4959 50.9898C23.4959 50.9898 21.9481 46.1411 21.6386 45.3525L21.2997 44.4891H18.6887L17.7363 47.4856ZM23.8875 50.9898H28.7825V48.9584H26.2371V44.4891H23.8875V50.9898ZM19.482 48.3489H20.7547C20.7547 48.3489 20.461 47.3332 20.0694 47.3332C19.6778 47.3332 19.482 48.3489 19.482 48.3489Z" fill="#C8CDDC"/>
</g>
</svg>
