<svg width="36" height="36" viewBox="0 0 36 36" fill="none" xmlns="http://www.w3.org/2000/svg">
<path fill-rule="evenodd" clip-rule="evenodd" d="M18 33.4286C26.5209 33.4286 33.4286 26.521 33.4286 18C33.4286 9.47905 26.5209 2.57144 18 2.57144C9.47902 2.57144 2.57141 9.47905 2.57141 18C2.57141 26.521 9.47902 33.4286 18 33.4286ZM9.55872 17.8711L24.6199 12.1591C25.7455 11.7147 26.187 12.2258 25.9281 13.3857L23.4344 24.9986C23.2444 25.9409 22.7639 26.2727 21.8809 25.7586L18.079 22.9587L15.8591 25.0245C15.5864 25.2565 15.159 25.2543 14.9255 24.7875L15.1775 21.7638L23.2013 14.6189C23.6507 14.2267 23.1285 14.1317 22.6184 14.4882L13.2761 20.1664L9.41223 18.9588C8.74763 18.6697 8.95263 18.1371 9.55872 17.8711Z" fill="#C8CDDC"/>
</svg>
