<svg width="36" height="36" viewBox="0 0 36 36" fill="none" xmlns="http://www.w3.org/2000/svg">
<path fill-rule="evenodd" clip-rule="evenodd" d="M18 33.4286C26.5209 33.4286 33.4286 26.521 33.4286 18C33.4286 9.47905 26.5209 2.57144 18 2.57144C9.47902 2.57144 2.57141 9.47905 2.57141 18C2.57141 26.521 9.47902 33.4286 18 33.4286ZM23.7917 13.2381C23.9019 13.3045 24.0157 13.3657 24.1325 13.4215L24.1317 13.4223C24.8924 13.7721 25.6346 13.8787 26 13.8418V16.5701C26 16.5701 24.9562 16.5295 24.1825 16.3397C23.1033 16.073 22.4111 15.6628 22.4111 15.6628C22.4111 15.6628 21.9304 15.3691 21.8942 15.3492V20.9871C21.8942 21.2999 21.805 22.0835 21.5358 22.7376C21.2999 23.2966 20.9628 23.8143 20.539 24.2685C20.539 24.2685 19.8759 25.0286 18.7107 25.5392C17.7414 25.9636 16.8789 25.9874 16.5342 25.9969C16.5053 25.9977 16.48 25.9984 16.4586 25.9992C16.4586 25.9992 14.8625 26.0582 13.4242 25.1552L13.4173 25.1481V25.1552C12.9308 24.8412 12.4969 24.4626 12.1297 24.0317C11.6744 23.4949 11.3944 22.8578 11.3229 22.6715V22.6644C11.2083 22.348 10.9675 21.5801 11.0037 20.8406C11.0606 19.5365 11.5344 18.7323 11.6598 18.5325C11.9896 17.9842 12.4203 17.4934 12.9327 17.082C13.5173 16.6286 14.1973 16.2921 14.9296 16.0939C15.662 15.8956 16.4309 15.8398 17.1877 15.9301L17.1839 18.7288C16.9347 18.6534 16.6739 18.615 16.4116 18.615C15.0271 18.615 13.9042 19.6588 13.9042 20.9487C13.9042 22.2378 15.0271 23.2816 16.4116 23.2816C16.8431 23.2822 17.2673 23.1788 17.6423 22.9815C18.0018 22.7927 18.3055 22.525 18.5268 22.2022C18.7481 21.8793 18.8802 21.5111 18.9114 21.13V21.1236C18.9137 21.1158 18.9137 21.1072 18.9137 21.1001C18.914 21.0919 18.9147 21.0843 18.9153 21.0769C18.916 21.0672 18.9168 21.0579 18.9168 21.0482C18.9229 20.9088 18.9229 20.7673 18.9229 20.6251V10H21.8958C21.8904 10 21.8596 10.2631 21.9342 10.6705H21.9311C22.0204 11.1604 22.2642 11.8608 22.9172 12.5512C23.1779 12.8118 23.4715 13.0424 23.7917 13.2381Z" fill="#C8CDDC"/>
</svg>
