<svg width="36" height="36" viewBox="0 0 36 36" fill="none" xmlns="http://www.w3.org/2000/svg">
<path fill-rule="evenodd" clip-rule="evenodd" d="M18 33.4286C26.5209 33.4286 33.4286 26.521 33.4286 18C33.4286 9.47905 26.5209 2.57144 18 2.57144C9.47902 2.57144 2.57141 9.47905 2.57141 18C2.57141 26.521 9.47902 33.4286 18 33.4286ZM26.0417 12.9146C26.321 13.1805 26.5219 13.5115 26.6243 13.8745C27 15.2102 27 18 27 18C27 18 27 20.7898 26.6243 22.1255C26.4174 22.8631 25.8087 23.4439 25.0333 23.6408C23.629 24 18 24 18 24C18 24 12.371 24 10.9667 23.6408C10.1933 23.4439 9.58259 22.8631 9.37567 22.1255C9 20.7898 9 18 9 18C9 18 9 15.2102 9.37567 13.8726C9.4778 13.5095 9.67859 13.1783 9.95787 12.9123C10.2371 12.6463 10.5851 12.4549 10.9667 12.3573C12.371 12 18 12 18 12C18 12 23.629 12 25.0333 12.3592C25.4147 12.4572 25.7625 12.6487 26.0417 12.9146ZM20.8728 17.9809L16.2121 15.4395V20.5605L20.8728 17.9809Z" fill="#C8CDDC"/>
</svg>
