<svg width="31" height="35" viewBox="0 0 31 35" fill="none" xmlns="http://www.w3.org/2000/svg">
<path fill-rule="evenodd" clip-rule="evenodd" d="M14.4073 2.68597C14.7862 2.10885 14.6254 1.33389 14.0483 0.955045C13.4712 0.576205 12.6962 0.736944 12.3174 1.31407L9.32362 5.87471L8.56324 7.03308L9.79354 7.67054L14.3909 10.0525C15.0038 10.3701 15.7582 10.1307 16.0758 9.51771C16.3934 8.90474 16.1539 8.15038 15.541 7.83278L13.8356 6.9492C15.8897 6.68013 17.9953 6.91122 19.9649 7.64413C22.9163 8.74236 25.3508 10.8885 26.7994 13.6653C28.248 16.4419 28.6086 19.6528 27.8122 22.6776C27.0158 25.7026 25.1182 28.3285 22.4843 30.0459C19.8502 31.7635 16.6675 32.4498 13.5524 31.9706C10.4373 31.4915 7.61349 29.8816 5.62627 27.4545C3.63922 25.0277 2.6294 21.956 2.79034 18.8339C2.95128 15.7117 4.27171 12.7582 6.49836 10.5454C6.98804 10.0588 6.9905 9.26733 6.50387 8.77766C6.01724 8.28799 5.22579 8.28552 4.73611 8.77215C2.07035 11.4214 0.486687 14.9604 0.293656 18.7052C0.100624 22.4499 1.31211 26.1317 3.69194 29.0383C6.07159 31.9446 9.44987 33.8691 13.1723 34.4416C16.8947 35.0141 20.6991 34.1945 23.8498 32.1401C27.0007 30.0855 29.2748 26.9412 30.2298 23.3141C31.1848 19.6869 30.752 15.8367 29.0159 12.509C27.28 9.18144 24.365 6.61398 20.8368 5.30109C18.3855 4.38896 15.7585 4.12704 13.2079 4.51315L14.4073 2.68597ZM14.5013 13.4662V13.4664C13.5307 13.4666 12.5999 13.8523 11.9136 14.5386C11.2271 15.2251 10.8414 16.1562 10.8414 17.127C10.8414 18.0979 11.2271 19.029 11.9136 19.7155C12.6001 20.402 13.5312 20.7876 14.502 20.7876H16.9424C17.2661 20.7876 17.5764 20.9162 17.8052 21.1451C18.0341 21.3739 18.1626 21.6842 18.1626 22.0078C18.1626 22.3315 18.0341 22.6418 17.8052 22.8706C17.5764 23.0995 17.2661 23.228 16.9424 23.228H14.502C14.1784 23.228 13.868 23.0995 13.6392 22.8706C13.5979 22.8294 13.5562 22.7867 13.5139 22.7434L13.5137 22.7432C13.1725 22.3944 12.7943 22.0078 12.3235 22.0078H11.8414C11.2891 22.0078 10.8281 22.4637 10.9772 22.9955C11.1452 23.5954 11.4653 24.148 11.9136 24.5963C12.5999 25.2826 13.5307 25.6683 14.5013 25.6685C14.5018 26.3419 15.0479 26.8877 15.7215 26.8877C16.3951 26.8877 16.9412 26.3419 16.9417 25.6685H16.9424C17.9133 25.6685 18.8444 25.2828 19.5309 24.5963C20.2174 23.9098 20.603 22.9787 20.603 22.0078C20.603 21.037 20.2174 20.1059 19.5309 19.4194C18.8444 18.7329 17.9133 18.3472 16.9424 18.3472H14.502C14.1784 18.3472 13.868 18.2187 13.6392 17.9898C13.4104 17.761 13.2818 17.4507 13.2818 17.127C13.2818 16.8034 13.4104 16.4931 13.6392 16.2642C13.868 16.0354 14.1784 15.9068 14.502 15.9068H16.9424C17.2661 15.9068 17.5764 16.0354 17.8052 16.2642C17.8465 16.3055 17.8882 16.3482 17.9305 16.3914L17.9307 16.3916C18.2719 16.7404 18.6501 17.127 19.1209 17.127H19.603C20.1553 17.127 20.6163 16.6712 20.4673 16.1394C20.2992 15.5395 19.9792 14.9869 19.5309 14.5386C18.8444 13.8521 17.9133 13.4664 16.9424 13.4664H16.9417V13.4662C16.9417 12.7923 16.3954 12.246 15.7215 12.246C15.0476 12.246 14.5013 12.7923 14.5013 13.4662Z" fill="#C8CDDC"/>
</svg>
