<svg width="32" height="27" viewBox="0 0 32 27" fill="none" xmlns="http://www.w3.org/2000/svg">
<path fill-rule="evenodd" clip-rule="evenodd" d="M18.25 2C18.25 2.69036 18.8096 3.25 19.5 3.25H20.9822L16 8.23223L13.3839 5.61612C12.8957 5.12796 12.1043 5.12796 11.6161 5.61612L4.11612 13.1161C3.62796 13.6043 3.62796 14.3957 4.11612 14.8839C4.60427 15.372 5.39573 15.372 5.88388 14.8839L12.5 8.26777L15.1161 10.8839C15.6043 11.372 16.3957 11.372 16.8839 10.8839L22.75 5.01777V6.5C22.75 7.19036 23.3096 7.75 24 7.75C24.6904 7.75 25.25 7.19036 25.25 6.5V2C25.25 1.30964 24.6904 0.75 24 0.75H19.5C18.8096 0.75 18.25 1.30964 18.25 2ZM23 10.25C21.7574 10.25 20.75 11.2574 20.75 12.5V24.25H19.25V16.5C19.25 15.2574 18.2426 14.25 17 14.25H14C12.7574 14.25 11.75 15.2574 11.75 16.5V24.25H10.25V20.5C10.25 19.2574 9.24264 18.25 8 18.25H5C3.75736 18.25 2.75 19.2574 2.75 20.5V24.25H2C1.30964 24.25 0.75 24.8096 0.75 25.5C0.75 26.1904 1.30964 26.75 2 26.75H2.75H4H9H10.25H11.75H13H18H19.25H20.75H22H27H28.25H30C30.6904 26.75 31.25 26.1904 31.25 25.5C31.25 24.8096 30.6904 24.25 30 24.25H28.25V12.5C28.25 11.2574 27.2426 10.25 26 10.25H23ZM25.75 24.25H23.25V12.75H25.75V24.25ZM14.25 16.75H16.75V24.25H14.25V16.75ZM7.75 20.75V24.25H5.25V20.75H7.75Z" fill="#C8CDDC"/>
</svg>
