<svg width="22" height="32" viewBox="0 0 22 32" fill="none" xmlns="http://www.w3.org/2000/svg">
<path fill-rule="evenodd" clip-rule="evenodd" d="M5 0.75C2.65279 0.75 0.75 2.65279 0.75 5V6V24V27C0.75 29.3472 2.65279 31.25 5 31.25H17C19.3472 31.25 21.25 29.3472 21.25 27V24V6V5C21.25 2.65279 19.3472 0.75 17 0.75H5ZM3.25 22.75V7.25H18.75V22.75H3.25ZM3.26772 4.75H18.7323C18.611 3.90193 17.8816 3.25 17 3.25H5C4.11838 3.25 3.38903 3.90193 3.26772 4.75ZM3.25 27V25.25H18.75V27C18.75 27.9665 17.9665 28.75 17 28.75H5C4.0335 28.75 3.25 27.9665 3.25 27ZM9.75 18C9.75 18.6904 10.3096 19.25 11 19.25C11.6904 19.25 12.25 18.6904 12.25 18V14C12.25 13.3096 11.6904 12.75 11 12.75C10.3096 12.75 9.75 13.3096 9.75 14V18ZM16 17.25C15.3096 17.25 14.75 16.6904 14.75 16V13C14.75 12.3096 15.3096 11.75 16 11.75C16.6904 11.75 17.25 12.3096 17.25 13V16C17.25 16.6904 16.6904 17.25 16 17.25ZM4.75 16C4.75 16.6904 5.30964 17.25 6 17.25C6.69036 17.25 7.25 16.6904 7.25 16V13C7.25 12.3096 6.69036 11.75 6 11.75C5.30964 11.75 4.75 12.3096 4.75 13V16Z" fill="#0792FF"/>
</svg>
