<svg width="32" height="32" viewBox="0 0 32 32" fill="none" xmlns="http://www.w3.org/2000/svg">
<path fill-rule="evenodd" clip-rule="evenodd" d="M11.3738 1.84424C14.0005 0.756228 16.8909 0.471556 19.6793 1.02622C22.4678 1.58088 25.0292 2.94997 27.0396 4.96035C29.05 6.97073 30.419 9.53211 30.9737 12.3206C31.5284 15.1091 31.2437 17.9994 30.1557 20.6261C29.0677 23.2528 27.2252 25.4978 24.8612 27.0774C23.1073 28.2494 21.1246 29.0159 19.057 29.3334C17.0783 29.6373 15.6249 27.9832 15.6249 26.25L15.6249 16.375L5.74992 16.375C4.01671 16.375 2.36261 14.9216 2.66649 12.9429C2.98404 10.8753 3.75057 8.89267 4.92254 7.13868C6.50209 4.77473 8.74716 2.93225 11.3738 1.84424ZM15.6249 3.31598C14.4984 3.43523 13.3886 3.71569 12.3306 4.15394C10.1607 5.05273 8.30606 6.57478 7.00122 8.52761C6.03307 9.97654 5.39984 11.6143 5.13752 13.3224C5.11702 13.4559 5.15498 13.5723 5.25344 13.6756C5.36034 13.7877 5.53641 13.875 5.74992 13.875L15.6249 13.875V3.31598ZM18.1249 3.31597V13.875V14.6072L26.109 22.5914C26.8213 21.7104 27.4077 20.7274 27.846 19.6694C28.7448 17.4995 28.9799 15.1118 28.5217 12.8083C28.0635 10.5048 26.9326 8.38886 25.2718 6.72811C23.6111 5.06737 21.4951 3.93638 19.1916 3.47818C18.8377 3.40778 18.4817 3.35374 18.1249 3.31597ZM24.3413 24.3591L18.1249 18.1428V26.25C18.1249 26.4635 18.2123 26.6396 18.3244 26.7465C18.4276 26.8449 18.544 26.8829 18.6775 26.8624C20.3856 26.6001 22.0234 25.9669 23.4723 24.9987C23.7724 24.7982 24.0623 24.5847 24.3413 24.3591ZM3.32917 20.25C3.88978 24.6344 7.36553 28.1101 11.7499 28.6708V20.25H3.32917ZM0.79973 20.1114C0.677625 18.7553 1.78974 17.75 2.99992 17.75H11.9999C13.2426 17.75 14.2499 18.7574 14.2499 20V29C14.2499 30.2102 13.2446 31.3223 11.8886 31.2002C6.00903 30.6708 1.32916 25.9909 0.79973 20.1114Z" fill="#C8CDDC"/>
</svg>
