<svg width="32" height="29" viewBox="0 0 32 29" fill="none" xmlns="http://www.w3.org/2000/svg">
<path fill-rule="evenodd" clip-rule="evenodd" d="M5 0.749878C2.65279 0.749878 0.75 2.65267 0.75 4.99988V16.5184V19.7406C0.75 22.0878 2.65279 23.9906 5 23.9906H11.1204V25.6388H10.2964C9.60603 25.6388 9.04639 26.1984 9.04639 26.8888C9.04639 27.5791 9.60603 28.1388 10.2964 28.1388H21.7038C22.3941 28.1388 22.9538 27.5791 22.9538 26.8888C22.9538 26.1984 22.3941 25.6388 21.7038 25.6388H20.8796V23.9906H27C29.3472 23.9906 31.25 22.0878 31.25 19.7406V16.5184V4.99988C31.25 2.65267 29.3472 0.749878 27 0.749878H5ZM19.6362 21.4906C19.634 21.4906 19.6318 21.4906 19.6296 21.4906C19.6274 21.4906 19.6252 21.4906 19.623 21.4906H12.377C12.3748 21.4906 12.3726 21.4906 12.3704 21.4906C12.3682 21.4906 12.3659 21.4906 12.3637 21.4906H5C4.0335 21.4906 3.25 20.7071 3.25 19.7406V17.7684H28.75V19.7406C28.75 20.7071 27.9665 21.4906 27 21.4906H19.6362ZM13.6204 23.9906H18.3796V25.6387H13.6204V23.9906ZM28.75 15.2684V4.99988C28.75 4.03338 27.9665 3.24988 27 3.24988H5C4.0335 3.24988 3.25 4.03338 3.25 4.99988V15.2684H28.75ZM12.75 9.99988C12.75 10.6902 13.3096 11.2499 14 11.2499C14.6904 11.2499 15.25 10.6902 15.25 9.99988V6.99988C15.25 6.30952 14.6904 5.74988 14 5.74988C13.3096 5.74988 12.75 6.30952 12.75 6.99988V9.99988ZM7.75 11.9999C7.75 12.6902 8.30964 13.2499 9 13.2499C9.69036 13.2499 10.25 12.6902 10.25 11.9999V7.99988C10.25 7.30952 9.69036 6.74988 9 6.74988C8.30964 6.74988 7.75 7.30952 7.75 7.99988V11.9999ZM19 14.2499C18.3096 14.2499 17.75 13.6902 17.75 12.9999V9.99988C17.75 9.30952 18.3096 8.74988 19 8.74988C19.6904 8.74988 20.25 9.30952 20.25 9.99988V12.9999C20.25 13.6902 19.6904 14.2499 19 14.2499ZM22.75 11.9999C22.75 12.6902 23.3096 13.2499 24 13.2499C24.6904 13.2499 25.25 12.6902 25.25 11.9999V7.99988C25.25 7.30952 24.6904 6.74988 24 6.74988C23.3096 6.74988 22.75 7.30952 22.75 7.99988V11.9999Z" fill="#C8CDDC"/>
</svg>
