<svg
   width="30"
   height="30"
   fill="#c8cddc"
   image-rendering="optimizeQuality"
   shape-rendering="geometricPrecision"
   viewBox="0 0 2.1497415 2.1497415"
   version="1.1"
   id="svg16"
   xmlns="http://www.w3.org/2000/svg">
  <defs
     id="defs20" />
  <path
     d="m 1.3198707,0.12987072 0.03,0.06 c 0.02,0.03 0.04,0.05 0.07,0.06 0.02,0.01 0.05,0.01 0.08,0.01 l 0.07,-0.02 c 0.05,-0.01 0.1,-0.01 0.14,0 h 0.01 c 0.04,0.02 0.08,0.04 0.12,0.07 0.03,0.04 0.06,0.08 0.07,0.13 0.01,0.04 0.01,0.09 0,0.14 l -0.02,0.06 c 0,0.04 0,0.07 0.01,0.09 0.01,0.03 0.03,0.05 0.06,0.07 l 0.06,0.04 c 0.04,0.02 0.07,0.06 0.1,0.1 a 0.32,0.32 0 0 1 0,0.26999998 c -0.03,0.04 -0.06,0.08 -0.1,0.11 l -0.06,0.03 c -0.03,0.02 -0.05,0.04 -0.06,0.07 -0.01,0.02 -0.01,0.05 0,0.08 l 0.01,0.07 c 0.01,0.05 0.01,0.1 0,0.14 v 0.01 c -0.01,0.04 -0.04,0.08 -0.07,0.12 -0.04,0.03 -0.08,0.06 -0.13,0.07 a 0.33,0.33 0 0 1 -0.14,0 l -0.06,-0.02 c -0.03,0 -0.07,0 -0.09,0.01 -0.03,0.01 -0.05,0.03 -0.07,0.06 l -0.04,0.06 c -0.02,0.04 -0.06,0.07 -0.1,0.1 a 0.32,0.32 0 0 1 -0.26999998,0 c -0.04,-0.03 -0.08,-0.06 -0.1,-0.1 l -0.04,-0.06 a 0.134,0.134 0 0 0 -0.07,-0.06 c -0.02,-0.01 -0.05,-0.01 -0.08,0 l -0.07,0.01 a 0.33,0.33 0 0 1 -0.14,0 h -0.01 a 0.375,0.375 0 0 1 -0.12,-0.07 c -0.03,-0.04 -0.06,-0.08 -0.07,-0.13 a 0.33,0.33 0 0 1 0,-0.14 l 0.02,-0.06 c 0,-0.03 0,-0.07 -0.01,-0.09 a 0.134,0.134 0 0 0 -0.06,-0.07 l -0.06,-0.04 a 0.318,0.318 0 0 1 -0.1,-0.1 0.32,0.32 0 0 1 0,-0.26999998 c 0.03,-0.04 0.06,-0.08 0.1,-0.1 l 0.06,-0.04 c 0.03,-0.02 0.05,-0.04 0.06,-0.07 0.01,-0.02 0.01,-0.05 0.01,-0.08 l -0.02,-0.07 a 0.33,0.33 0 0 1 0,-0.14 v -0.01 c 0.02,-0.04 0.04,-0.08 0.07,-0.12 0.04,-0.03 0.08,-0.06 0.13,-0.07 a 0.33,0.33 0 0 1 0.14,0 l 0.06,0.02 c 0.04,0 0.07,0 0.09,-0.01 0.03,-0.01 0.05,-0.03 0.07,-0.06 l 0.04,-0.06 c 0.02,-0.04 0.06,-0.07 0.1,-0.1 a 0.32,0.32 0 0 1 0.26999998,0 c 0.04,0.03 0.08,0.06 0.11,0.1 z m -0.09,0.13 -0.03,-0.05 c -0.02,-0.02 -0.04,-0.04 -0.06,-0.05 -0.02,-0.01 -0.04,-0.02 -0.06,-0.02 -0.03,0 -0.05,0.01 -0.07,0.02 -0.02,0.01 -0.04,0.03 -0.06,0.05 l -0.03,0.06 a 0.276,0.276 0 0 1 -0.31,0.12 l -0.06,-0.01 a 0.11,0.11 0 0 0 -0.08,0 c -0.02,0 -0.04,0.02 -0.06,0.03 -0.01,0.02 -0.03,0.04 -0.03,0.06 v 0.01 c -0.01,0.02 -0.01,0.04 0,0.07 l 0.01,0.06 c 0.02,0.06 0.01,0.12 -0.01,0.18 a 0.25,0.25 0 0 1 -0.12,0.13 l -0.05,0.04 a 0.145,0.145 0 0 0 -0.07,0.11999998 c 0,0.02 0.01,0.04 0.02,0.07 0.01,0.01 0.02,0.03 0.04,0.04 l 0.07,0.04 a 0.276,0.276 0 0 1 0.12,0.31 l -0.01,0.06 a 0.11,0.11 0 0 0 0,0.08 c 0,0.02 0.02,0.04 0.03,0.06 0.02,0.01 0.04,0.03 0.06,0.03 h 0.01 c 0.02,0.01 0.04,0.01 0.07,0 l 0.06,-0.01 c 0.06,-0.02 0.12,-0.01 0.18,0.01 0.05,0.02 0.1,0.06 0.13,0.12 l 0.04,0.05 c 0.01,0.03 0.03,0.04 0.05,0.05 0.02,0.02 0.04,0.02 0.07,0.02 0.02,0 0.04,0 0.07,-0.02 0.01,-0.01 0.03,-0.02 0.04,-0.04 l 0.04,-0.07 a 0.276,0.276 0 0 1 0.31,-0.12 l 0.06,0.01 c 0.03,0.01 0.05,0.01 0.08,0 0.02,0 0.04,-0.01 0.06,-0.03 0.01,-0.02 0.03,-0.04 0.03,-0.06 a 0.11,0.11 0 0 0 0,-0.08 l -0.01,-0.06 a 0.279,0.279 0 0 1 0.01,-0.18 c 0.02,-0.05 0.06,-0.1 0.12,-0.13 l 0.05,-0.03 c 0.03,-0.02 0.04,-0.04 0.05,-0.06 0.02,-0.02 0.02,-0.04 0.02,-0.06 0,-0.03 0,-0.05 -0.02,-0.07 -0.01,-0.02 -0.02,-0.04 -0.04,-0.05 l -0.07,-0.04 a 0.276,0.276 0 0 1 -0.12,-0.31 l 0.01,-0.06 a 0.11,0.11 0 0 0 0,-0.08 c 0,-0.02 -0.01,-0.04 -0.03,-0.06 -0.02,-0.01 -0.04,-0.03 -0.06,-0.03 a 0.11,0.11 0 0 0 -0.08,0 l -0.06,0.01 c -0.06,0.02 -0.12,0.01 -0.18,-0.01 a 0.25,0.25 0 0 1 -0.13,-0.12 z"
     id="path12" />
  <path
     d="m 1.0798707,1.4298707 c 0.09,0 0.18,-0.04 0.24,-0.11 a 0.32,0.32 0 0 0 0.11,-0.24 c 0,-0.1 -0.04,-0.18999998 -0.11,-0.24999998 v -0.01 a 0.35,0.35 0 0 0 -0.24,-0.1 c -0.1,0 -0.18999998,0.04 -0.24999998,0.11 -0.07,0.06 -0.11,0.15 -0.11,0.24999998 0,0.09 0.04,0.18 0.11,0.24 0.06,0.07 0.15,0.11 0.24999998,0.11 z m 0.34,-0.01 c -0.09,0.09 -0.21,0.15 -0.34,0.15 a 0.49,0.49 0 0 1 -0.34999998,-0.15 0.486,0.486 0 0 1 -0.15,-0.34 c 0,-0.13999998 0.06,-0.25999998 0.15,-0.34999998 a 0.49,0.49 0 0 1 0.34999998,-0.15 c 0.13,0 0.25,0.06 0.34,0.14 v 0.01 c 0.09,0.09 0.15,0.21 0.15,0.34999998 0,0.13 -0.06,0.25 -0.15,0.34 z"
     id="path14" />
</svg>
