<svg width="80" height="80" viewBox="0 0 80 80" fill="none" xmlns="http://www.w3.org/2000/svg">
<g id="icon-choice">
<rect width="80" height="80" rx="21" fill="#EAF4FF"/>
<g id="Vector" filter="url(#filter0_d_6610_112)">
<path d="M36.4607 31.8406C35.8849 31.8406 35.2555 32.0459 34.8211 32.5325C34.2521 33.1697 34.0737 35.074 34.0948 36.035C35.0555 36.058 36.8923 36.0328 37.6364 35.2982C38.4144 34.5301 38.6273 33.1879 37.7999 32.371C37.4399 32.0155 36.9591 31.8406 36.4607 31.8406Z" fill="#0792FF"/>
<path d="M29.1278 31.8406C29.7036 31.8406 30.333 32.0459 30.7675 32.5325C31.3364 33.1697 31.5148 35.074 31.4937 36.035C30.533 36.058 28.6962 36.0328 27.9522 35.2982C27.1741 34.5301 26.9612 33.1879 27.7886 32.371C28.1486 32.0155 28.6294 31.8406 29.1278 31.8406Z" fill="#0792FF"/>
<path d="M39.6129 30.5677C41.0739 32.0098 41.2685 34.2828 40.2676 36.035H60.0001V29.6364C60.0001 27.6281 58.3571 26 56.3304 26H34.0769V29.9262C35.8753 28.9188 38.1478 29.1215 39.6129 30.5677C40.4452 31.3893 38.1478 29.1215 39.6129 30.5677Z" fill="#0792FF"/>
<path d="M28.6939 43.1919L26.8733 41.3963L29.7018 38.5804H20V50.3636C20 52.372 21.643 54 23.6697 54H31.5081V40.3904L28.6939 43.1919Z" fill="#0792FF"/>
<path d="M35.8718 38.5804L38.6626 41.373L36.8373 43.164L34.0769 40.4018V54H56.3304C58.3571 54 60.0001 52.372 60.0001 50.3637V38.5804H35.8718Z" fill="#0792FF"/>
<path d="M25.3174 36.035C24.3162 34.2825 24.5112 32.0097 25.972 30.5677C27.437 29.1215 29.7095 28.9189 31.5081 29.9262V26H23.6697C21.643 26 20 27.6281 20 29.6364V36.035H25.3174Z" fill="#0792FF"/>
</g>
</g>
<defs>
<filter id="filter0_d_6610_112" x="12" y="22" width="56" height="44.0001" filterUnits="userSpaceOnUse" color-interpolation-filters="sRGB">
<feFlood flood-opacity="0" result="BackgroundImageFix"/>
<feColorMatrix in="SourceAlpha" type="matrix" values="0 0 0 0 0 0 0 0 0 0 0 0 0 0 0 0 0 0 127 0" result="hardAlpha"/>
<feOffset dy="4"/>
<feGaussianBlur stdDeviation="4"/>
<feComposite in2="hardAlpha" operator="out"/>
<feColorMatrix type="matrix" values="0 0 0 0 0.027451 0 0 0 0 0.572549 0 0 0 0 1 0 0 0 0.25 0"/>
<feBlend mode="normal" in2="BackgroundImageFix" result="effect1_dropShadow_6610_112"/>
<feBlend mode="normal" in="SourceGraphic" in2="effect1_dropShadow_6610_112" result="shape"/>
</filter>
</defs>
</svg>
