<svg width="80" height="80" viewBox="0 0 80 80" fill="none" xmlns="http://www.w3.org/2000/svg">
<g id="icon-choice">
<rect width="80" height="80" rx="21" fill="#EAF4FF"/>
<g id="Vector" filter="url(#filter0_d_6610_114)">
<path d="M54.3579 26.3258C54.1478 26.2235 53.9142 26.1813 53.6822 26.2039C53.4503 26.2264 53.2288 26.3127 53.0413 26.4537C48.6054 29.8413 44.8435 28.2114 40.5016 26.3099C36.1597 24.4083 31.0498 22.1712 25.454 26.4537C25.2982 26.5728 25.1718 26.7272 25.0848 26.9047C24.9977 27.0822 24.9524 27.2779 24.9524 27.4763V54.3217C24.9524 54.6607 25.0845 54.9858 25.3197 55.2256C25.5548 55.4653 25.8738 55.6 26.2064 55.6C26.5389 55.6 26.8579 55.4653 27.0931 55.2256C27.3282 54.9858 27.4603 54.6607 27.4603 54.3217V47.3067C31.6768 44.4145 35.3133 45.9964 39.4984 47.8341C42.0534 48.9366 44.7964 50.1351 47.7433 50.1351C49.9064 50.1351 52.1792 49.4959 54.546 47.6743C54.7009 47.5542 54.8267 47.3997 54.9136 47.2224C55.0006 47.0451 55.0464 46.8497 55.0476 46.6516V27.4763C55.0457 27.2389 54.9805 27.0064 54.859 26.8037C54.7376 26.6011 54.5644 26.4359 54.3579 26.3258ZM44.3889 47.0191V38.4702C41.4264 37.6073 38.5736 35.9295 35.6111 35.0666V43.6315C33.0562 42.9604 30.3445 42.8645 27.4603 44.3506V35.9135C30.3288 34.2197 33.0091 34.3156 35.6111 35.0666V27.1088C36.9337 27.5528 38.2314 28.0702 39.4984 28.6588C41.0659 29.3299 42.696 30.049 44.3889 30.4964V38.4702C46.9909 39.2212 49.6712 39.3171 52.5397 37.6233V45.9964C49.6712 47.9619 47.0693 47.866 44.3889 47.0191Z" fill="#0792FF"/>
</g>
</g>
<defs>
<filter id="filter0_d_6610_114" x="16.9524" y="20" width="46.0952" height="47.6" filterUnits="userSpaceOnUse" color-interpolation-filters="sRGB">
<feFlood flood-opacity="0" result="BackgroundImageFix"/>
<feColorMatrix in="SourceAlpha" type="matrix" values="0 0 0 0 0 0 0 0 0 0 0 0 0 0 0 0 0 0 127 0" result="hardAlpha"/>
<feOffset dy="4"/>
<feGaussianBlur stdDeviation="4"/>
<feComposite in2="hardAlpha" operator="out"/>
<feColorMatrix type="matrix" values="0 0 0 0 0.027451 0 0 0 0 0.572549 0 0 0 0 1 0 0 0 0.25 0"/>
<feBlend mode="normal" in2="BackgroundImageFix" result="effect1_dropShadow_6610_114"/>
<feBlend mode="normal" in="SourceGraphic" in2="effect1_dropShadow_6610_114" result="shape"/>
</filter>
</defs>
</svg>
