<svg width="80" height="80" viewBox="0 0 80 80" fill="none" xmlns="http://www.w3.org/2000/svg">
<g id="icon-choice">
<rect width="80" height="80" rx="21" fill="#EAF4FF"/>
<g id="Group" filter="url(#filter0_d_6610_146)">
<path id="Vector" d="M37.3905 36.2478C38.636 34.8969 39.3222 33.0847 39.3222 31.1447C39.3222 27.4509 36.6839 23.7117 31.6404 23.7117C29.2932 23.7117 27.3131 24.5178 25.9138 26.043C24.6744 27.3942 23.9919 29.2059 23.9919 31.1447C23.9919 34.8389 26.6191 38.578 31.6404 38.578C33.9963 38.5781 35.985 37.7725 37.3905 36.2478ZM31.6404 27.1678C34.4038 27.1678 35.6623 29.2307 35.6623 31.1473C35.6623 32.1899 35.3115 33.1551 34.6739 33.8647C33.9625 34.6573 32.9288 35.0764 31.6852 35.0764C28.8519 35.0764 27.5611 33.0137 27.5611 31.0973C27.5611 29.1416 28.8227 27.1678 31.6404 27.1678Z" fill="#0792FF"/>
<path id="Vector_2" d="M49.9831 26.5797C49.5261 26.5879 48.9021 26.8729 48.5963 27.2127L25.9077 52.4385C25.6021 52.7786 25.8186 53.2553 26.2757 53.2553H29.2452C29.7023 53.2553 30.3257 52.9765 30.6308 52.6362L53.1792 27.4155C53.4842 27.0749 53.4639 26.5206 52.7087 26.5208L49.9831 26.5797Z" fill="#0792FF"/>
<path id="Vector_3" d="M47.5026 41.4165C45.2007 41.4165 43.2582 42.2077 41.8854 43.7038C40.6696 45.0288 39.9998 46.8064 39.9998 48.7083C39.9998 52.3318 42.577 56 47.5027 56C49.8144 56 51.7648 55.2095 53.1437 53.7141C54.3657 52.3887 55.0386 50.611 55.0386 48.7083C55.0385 45.0849 52.4501 41.4165 47.5026 41.4165ZM47.5471 52.6538C44.7905 52.6538 43.5345 50.5838 43.5345 48.6614C43.5345 47.6145 43.8851 46.6457 44.5223 45.9333C45.2325 45.1384 46.263 44.7183 47.5027 44.7183C50.2595 44.7183 51.5148 46.7879 51.5148 48.711C51.5148 49.7577 51.1641 50.7267 50.5275 51.439C49.8171 52.2337 48.7865 52.6538 47.5471 52.6538Z" fill="#0792FF"/>
</g>
</g>
<defs>
<filter id="filter0_d_6610_146" x="15.9919" y="19.7117" width="47.0466" height="48.2883" filterUnits="userSpaceOnUse" color-interpolation-filters="sRGB">
<feFlood flood-opacity="0" result="BackgroundImageFix"/>
<feColorMatrix in="SourceAlpha" type="matrix" values="0 0 0 0 0 0 0 0 0 0 0 0 0 0 0 0 0 0 127 0" result="hardAlpha"/>
<feOffset dy="4"/>
<feGaussianBlur stdDeviation="4"/>
<feComposite in2="hardAlpha" operator="out"/>
<feColorMatrix type="matrix" values="0 0 0 0 0.027451 0 0 0 0 0.572549 0 0 0 0 1 0 0 0 0.25 0"/>
<feBlend mode="normal" in2="BackgroundImageFix" result="effect1_dropShadow_6610_146"/>
<feBlend mode="normal" in="SourceGraphic" in2="effect1_dropShadow_6610_146" result="shape"/>
</filter>
</defs>
</svg>
