<svg width="48" height="48" viewBox="0 0 48 48" fill="none" xmlns="http://www.w3.org/2000/svg">
<g id="clarity:success-standard-line" clip-path="url(#clip0_8406_83)">
<path id="Vector" d="M24.0003 2.66663C19.781 2.66663 15.6564 3.9178 12.1482 6.26194C8.63992 8.60608 5.90557 11.9379 4.2909 15.836C2.67624 19.7342 2.25376 24.0236 3.07692 28.1619C3.90007 32.3001 5.93187 36.1014 8.91539 39.0849C11.8989 42.0684 15.7001 44.1002 19.8384 44.9234C23.9767 45.7465 28.2661 45.3241 32.1642 43.7094C36.0624 42.0947 39.3942 39.3604 41.7384 35.8521C44.0825 32.3439 45.3337 28.2193 45.3337 24C45.3337 18.342 43.0861 12.9158 39.0853 8.91501C35.0845 4.91424 29.6583 2.66663 24.0003 2.66663ZM24.0003 42.6666C20.3084 42.6666 16.6994 41.5718 13.6297 39.5207C10.56 37.4696 8.16742 34.5543 6.75458 31.1434C5.34175 27.7325 4.97209 23.9793 5.69234 20.3583C6.4126 16.7373 8.19043 13.4112 10.801 10.8006C13.4116 8.19005 16.7377 6.41222 20.3586 5.69197C23.9796 4.97171 27.7329 5.34137 31.1438 6.75421C34.5546 8.16704 37.47 10.5596 39.5211 13.6293C41.5722 16.699 42.667 20.308 42.667 24C42.667 28.9507 40.7003 33.6986 37.1997 37.1993C33.699 40.7 28.951 42.6666 24.0003 42.6666Z" fill="#0792FF"/>
<path id="Vector_2" d="M37.3329 16.1333C37.0831 15.885 36.7452 15.7456 36.3929 15.7456C36.0407 15.7456 35.7027 15.885 35.4529 16.1333L20.6529 30.8667L12.6529 22.8667C12.4089 22.6032 12.0703 22.4475 11.7114 22.4337C11.3526 22.42 11.003 22.5493 10.7396 22.7933C10.4761 23.0373 10.3204 23.376 10.3067 23.7348C10.2929 24.0936 10.4223 24.4432 10.6663 24.7067L20.6529 34.6667L37.3329 18.0267C37.4579 17.9027 37.5571 17.7552 37.6248 17.5928C37.6925 17.4303 37.7273 17.256 37.7273 17.08C37.7273 16.904 37.6925 16.7297 37.6248 16.5672C37.5571 16.4047 37.4579 16.2573 37.3329 16.1333Z" fill="#0792FF"/>
</g>
<defs>
<clipPath id="clip0_8406_83">
<rect width="48" height="48" fill="white"/>
</clipPath>
</defs>
</svg>
