<svg width="22" height="24" viewBox="0 0 22 24" fill="none" xmlns="http://www.w3.org/2000/svg">
<path d="M3.64894 0.377687C3.10065 0.0243903 2.44209 -0.0823909 1.82437 0.0630153L12.6797 10.888L16.198 7.37959L3.64894 0.377687Z" fill="white"/>
<path d="M0.477023 0.942952C0.174254 1.34434 0 1.83719 0 2.35853V21.6409C0 22.1623 0.174301 22.6551 0.477023 23.0565L11.5648 11.9998L0.477023 0.942952Z" fill="white"/>
<path d="M20.7896 9.94159L17.6277 8.17735L13.7946 11.9997L17.6279 15.8223L20.7901 14.0579C21.5477 13.6346 22 12.8653 22 11.9997C22 11.1341 21.5477 10.3649 20.7896 9.94159Z" fill="white"/>
<path d="M12.6797 13.1115L1.82499 23.9357C2.00295 23.9775 2.18407 24 2.36519 24C2.81278 24 3.25883 23.8731 3.64894 23.6217L16.1981 16.6199L12.6797 13.1115Z" fill="white"/>
</svg>
