<svg width="315" height="55" viewBox="0 0 315 55" fill="none" xmlns="http://www.w3.org/2000/svg">
<path d="M27.5 0L33.6741 19.002H53.6541L37.49 30.7459L43.6641 49.748L27.5 38.0041L11.3359 49.748L17.51 30.7459L1.34595 19.002H21.3259L27.5 0Z" fill="black"/>
<path d="M92.5 0L98.6741 19.002H118.654L102.49 30.7459L108.664 49.748L92.5 38.0041L76.3359 49.748L82.51 30.7459L66.3459 19.002H86.3259L92.5 0Z" fill="black"/>
<path d="M157.5 0L163.674 19.002H183.654L167.49 30.7459L173.664 49.748L157.5 38.0041L141.336 49.748L147.51 30.7459L131.346 19.002H151.326L157.5 0Z" fill="black"/>
<path d="M222.5 0L228.674 19.002H248.654L232.49 30.7459L238.664 49.748L222.5 38.0041L206.336 49.748L212.51 30.7459L196.346 19.002H216.326L222.5 0Z" fill="black"/>
<path d="M287.5 0L293.674 19.002H313.654L297.49 30.7459L303.664 49.748L287.5 38.0041L271.336 49.748L277.51 30.7459L261.346 19.002H281.326L287.5 0Z" fill="black"/>
<mask id="mask0_8676_447" style="mask-type:alpha" maskUnits="userSpaceOnUse" x="261" y="0" width="53" height="50">
<path d="M287.5 0L293.674 19.002H313.654L297.49 30.7459L303.664 49.748L287.5 38.0041L271.336 49.748L277.51 30.7459L261.346 19.002H281.326L287.5 0Z" fill="black"/>
</mask>
<g mask="url(#mask0_8676_447)">
<rect x="288" y="-2" width="27" height="53" fill="#7ECFC9"/>
</g>
</svg>
