<svg width="60" height="58" viewBox="0 0 60 58" fill="none" xmlns="http://www.w3.org/2000/svg">
<rect width="59.8705" height="57.8705" rx="21" fill="#EAF4FF"/>
<g filter="url(#filter0_d_1383_182)">
<path d="M43.6331 18.1987C43.5788 17.8119 43.2983 17.4937 42.919 17.3891L30.7649 14.0359C30.5916 13.988 30.4086 13.988 30.2351 14.0359L18.081 17.3891C17.7017 17.4937 17.4212 17.8117 17.3669 18.1987C17.2964 18.7015 15.6882 30.5834 19.8132 36.4943C23.9333 42.3982 30.0113 43.9111 30.268 43.9727C30.3443 43.991 30.422 44 30.5 44C30.578 44 30.6557 43.9908 30.732 43.9727C30.9889 43.9111 37.0669 42.3982 41.1868 36.4943C45.3118 30.5836 43.7036 18.7017 43.6331 18.1987ZM38.3379 25.1354L30.0475 33.3599C29.8546 33.5513 29.6016 33.6471 29.3488 33.6471C29.0959 33.6471 28.8429 33.5514 28.65 33.3599L23.5241 28.2748C23.3387 28.091 23.2346 27.8416 23.2346 27.5816C23.2346 27.3216 23.3389 27.0722 23.5241 26.8884L24.5419 25.8787C24.9278 25.496 25.5536 25.4958 25.9394 25.8787L29.3488 29.2609L35.9226 22.7392C36.1079 22.5553 36.3593 22.452 36.6214 22.452C36.8835 22.452 37.1349 22.5553 37.3201 22.7392L38.3379 23.7489C38.7238 24.1318 38.7238 24.7526 38.3379 25.1354Z" fill="#0792FF"/>
</g>
<defs>
<filter id="filter0_d_1383_182" x="9" y="10" width="43" height="46" filterUnits="userSpaceOnUse" color-interpolation-filters="sRGB">
<feFlood flood-opacity="0" result="BackgroundImageFix"/>
<feColorMatrix in="SourceAlpha" type="matrix" values="0 0 0 0 0 0 0 0 0 0 0 0 0 0 0 0 0 0 127 0" result="hardAlpha"/>
<feOffset dy="4"/>
<feGaussianBlur stdDeviation="4"/>
<feComposite in2="hardAlpha" operator="out"/>
<feColorMatrix type="matrix" values="0 0 0 0 0.027451 0 0 0 0 0.572549 0 0 0 0 1 0 0 0 0.25 0"/>
<feBlend mode="normal" in2="BackgroundImageFix" result="effect1_dropShadow_1383_182"/>
<feBlend mode="normal" in="SourceGraphic" in2="effect1_dropShadow_1383_182" result="shape"/>
</filter>
</defs>
</svg>
