<svg width="28" height="20" viewBox="0 0 28 20" fill="none" xmlns="http://www.w3.org/2000/svg">
<g clip-path="url(#clip0_615_4)">
<rect width="28" height="20" rx="2" fill="white"/>
<mask id="mask0_615_4" style="mask-type:luminance" maskUnits="userSpaceOnUse" x="0" y="0" width="28" height="20">
<rect width="28" height="20" rx="2" fill="white"/>
</mask>
<g mask="url(#mask0_615_4)">
<g filter="url(#filter0_d_615_4)">
<rect width="28" height="20" fill="#4189DD"/>
</g>
<path d="M5.63067 2.51247L5.33515 1.94612L5.03963 2.51247L4.40232 3.73384L3.18094 4.37115L2.61459 4.66667L3.18094 4.96219L4.40232 5.5995L5.03963 6.82087L5.33515 7.38722L5.63067 6.82087L6.26798 5.5995L7.48935 4.96219L8.0557 4.66667L7.48935 4.37115L6.26798 3.73384L5.63067 2.51247Z" fill="#D21034" stroke="white" stroke-width="0.666667"/>
<rect y="14.6667" width="28" height="1.33333" fill="#F9D616"/>
<rect y="12" width="28" height="1.33333" fill="#F9D616"/>
</g>
</g>
<defs>
<filter id="filter0_d_615_4" x="-1" y="0" width="30" height="22" filterUnits="userSpaceOnUse" color-interpolation-filters="sRGB">
<feFlood flood-opacity="0" result="BackgroundImageFix"/>
<feColorMatrix in="SourceAlpha" type="matrix" values="0 0 0 0 0 0 0 0 0 0 0 0 0 0 0 0 0 0 127 0" result="hardAlpha"/>
<feOffset dy="1"/>
<feGaussianBlur stdDeviation="0.5"/>
<feColorMatrix type="matrix" values="0 0 0 0 0 0 0 0 0 0 0 0 0 0 0 0 0 0 0.16 0"/>
<feBlend mode="normal" in2="BackgroundImageFix" result="effect1_dropShadow_615_4"/>
<feBlend mode="normal" in="SourceGraphic" in2="effect1_dropShadow_615_4" result="shape"/>
</filter>
<clipPath id="clip0_615_4">
<rect width="28" height="20" fill="white"/>
</clipPath>
</defs>
</svg>
