<svg width="28" height="20" viewBox="0 0 28 20" fill="none" xmlns="http://www.w3.org/2000/svg">
<g clip-path="url(#clip0_615_202)">
<rect x="0.25" y="0.25" width="27.5" height="19.5" rx="1.75" fill="white" stroke="#F5F5F5" stroke-width="0.5"/>
<mask id="mask0_615_202" style="mask-type:luminance" maskUnits="userSpaceOnUse" x="0" y="0" width="28" height="20">
<rect x="0.25" y="0.25" width="27.5" height="19.5" rx="1.75" fill="white" stroke="white" stroke-width="0.5"/>
</mask>
<g mask="url(#mask0_615_202)">
<path fill-rule="evenodd" clip-rule="evenodd" d="M20 3.33332C20.3631 3.15177 20.7317 3.56922 20.5065 3.907L20.0673 4.56579C20.0229 4.63237 19.9658 4.68951 19.8992 4.7339L18.055 5.96337C18.0184 5.98772 17.9844 6.01562 17.9534 6.04667L17.8048 6.19525C17.5444 6.4556 17.5444 6.87771 17.8048 7.13806L18.1953 7.52858C18.4557 7.78893 18.4557 8.21104 18.1953 8.47139L17.6731 8.99355C17.4702 9.19646 17.1603 9.24676 16.9036 9.11843L16.5963 8.9648C16.267 8.80014 15.8666 8.93362 15.7019 9.26294L15.4569 9.753C15.3778 9.91115 15.2391 10.0314 15.0714 10.0873L13.436 10.6324C13.368 10.6551 13.2968 10.6667 13.2252 10.6667H12.4121C12.1595 10.6667 11.9287 10.8093 11.8158 11.0352L11.6315 11.4037C11.4669 11.733 11.0664 11.8665 10.7371 11.7018L8.76347 10.715C8.69938 10.683 8.64088 10.6408 8.59021 10.5902L7.52864 9.52858C7.40361 9.40356 7.33337 9.23399 7.33337 9.05718V8.47139C7.33337 8.21105 7.54443 7.99999 7.80478 7.99999C7.9298 7.99999 8.04971 7.95032 8.13811 7.86192L9.13811 6.86192C9.26314 6.73689 9.43271 6.66666 9.60952 6.66666H10.1862C10.4732 6.66666 10.7279 6.48304 10.8187 6.21081L11.1473 5.22498C11.2536 4.90601 11.5808 4.71614 11.9105 4.78208L14.5197 5.30392C14.6165 5.32328 14.7164 5.3209 14.8121 5.29696L17.2624 4.68441C17.3096 4.67261 17.3553 4.65568 17.3988 4.63393L18.6667 3.99999L20 3.33332Z" fill="#E7832C"/>
<path fill-rule="evenodd" clip-rule="evenodd" d="M14 16C14.3682 16 14.6667 15.7015 14.6667 15.3333C14.6667 14.9651 14.3682 14.6667 14 14.6667C13.6319 14.6667 13.3334 14.9651 13.3334 15.3333C13.3334 15.7015 13.6319 16 14 16Z" fill="#445128"/>
<path opacity="0.75" d="M16 14.6667C16 14.6667 18 14 18.6667 12.6667" stroke="#445128" stroke-width="1.33333" stroke-linecap="round"/>
<path opacity="0.75" d="M12 14.6667C12 14.6667 10 14 9.33333 12.6667" stroke="#445128" stroke-width="1.33333" stroke-linecap="round"/>
</g>
</g>
<defs>
<clipPath id="clip0_615_202">
<rect width="28" height="20" fill="white"/>
</clipPath>
</defs>
</svg>
