<svg id="Layer_1" data-name="Layer 1" xmlns="http://www.w3.org/2000/svg" viewBox="0 0 48 48"><defs><style>.cls-1{fill:#ffba55;}.cls-2{fill:#72aaed;}.cls-3{fill:#9fd367;}.cls-4{fill:#e79165;}.cls-5{fill:#ffbf8e;}</style></defs><title>globe, geography, global, international, education</title><path class="cls-1" d="M22.05,37.7a20.53,20.53,0,0,1-14.54-6l-.7-.7L35.89,1.91l.7.7A20.55,20.55,0,0,1,22.05,37.7ZM9.6,31A18.61,18.61,0,0,0,35.88,4.7Z"/><path class="cls-2" d="M38.69,17.15A16.64,16.64,0,0,1,11.84,30.29a15.6,15.6,0,0,1-2.52-2.42A16.65,16.65,0,0,1,16.41,1.48,16.65,16.65,0,0,1,38.69,17.15Z"/><path class="cls-3" d="M15.19,14.21v3.31h2.57l2.57,2.56v4.16l-4.16,4.17H13.72l-1.88,1.88a15.6,15.6,0,0,1-2.52-2.42v-.93l2-2V21.06l2-2v-2L10.3,14.21V10.29L8.08,8.09a16.63,16.63,0,0,1,8.33-6.61h3.92V6.62L17.64,9.31v2.45Z"/><path class="cls-3" d="M38.69,17.15a16.55,16.55,0,0,1-4,10.77H31.84L27.92,24V22L23,17.15V15.68h2.44l3.43-3.43V3.44h2.59A16.62,16.62,0,0,1,38.69,17.15Z"/><rect class="cls-1" x="21.07" y="36.73" width="1.96" height="5.88"/><path class="cls-4" d="M15.78,44.56H28.32a2.54,2.54,0,0,1,2.54,2.54v.39a0,0,0,0,1,0,0H13.23a0,0,0,0,1,0,0v-.39A2.54,2.54,0,0,1,15.78,44.56Z"/><path class="cls-5" d="M18.25,41.63h7.6a2.08,2.08,0,0,1,2.08,2.08v.86a0,0,0,0,1,0,0H16.17a0,0,0,0,1,0,0V43.7A2.08,2.08,0,0,1,18.25,41.63Z"/></svg>