<svg width="60" height="60" viewBox="0 0 60 60" fill="none" xmlns="http://www.w3.org/2000/svg">
<rect width="60" height="60" rx="21" fill="#EAF4FF"/>
<g filter="url(#filter0_d_2933_57)">
<path fill-rule="evenodd" clip-rule="evenodd" d="M17.0973 18.0267H39.8325C40.6644 18.0267 41.3414 18.6966 41.3414 19.5198V20.3368C41.3414 20.5872 41.1321 20.786 40.8816 20.786C35.548 20.786 31.2242 25.1097 31.2242 30.4434C31.2242 31.7727 31.4928 33.0393 31.9787 34.1918C32.29 34.9304 31.7933 35.8444 30.9918 35.8444H17.0973C16.2654 35.8444 15.5884 35.1745 15.5884 34.3513V19.5198C15.5884 18.6966 16.2654 18.0267 17.0973 18.0267ZM32.4385 38.5274C32.4385 39.0797 32.8862 39.5274 33.4385 39.5274H36.5127C36.9292 39.5274 37.2672 39.8619 37.2672 40.274C37.2672 40.6861 36.9292 41.0205 36.5127 41.0205H20.4171C20.0006 41.0205 19.6626 40.6861 19.6626 40.274C19.6626 39.8619 20.0006 39.5274 20.4171 39.5274H23.4913C24.0436 39.5274 24.4913 39.0797 24.4913 38.5274V38.3375C24.4913 37.7853 24.939 37.3375 25.4913 37.3375H31.4385C31.9908 37.3375 32.4385 37.7853 32.4385 38.3375V38.5274Z" fill="#0792FF"/>
</g>
<g filter="url(#filter1_d_2933_57)">
<path d="M48.2629 32.9619L46.8518 31.6079C46.9329 31.2391 46.9803 30.8633 46.9938 30.4856C47.4781 30.2171 48.4965 29.6516 48.4965 29.6516C48.6912 29.5436 48.7871 29.3168 48.7296 29.102L48.2275 27.2282C48.1702 27.013 47.9741 26.8648 47.7508 26.8687L46.0304 26.8966C45.8308 26.5784 45.6028 26.2789 45.3497 26.0021L45.8948 24.124C45.956 23.9099 45.864 23.6818 45.6712 23.5704L43.991 22.6004C43.7982 22.4891 43.5542 22.5233 43.3999 22.6835C43.3999 22.6835 42.457 23.6696 42.0466 24.0944C41.656 24.0084 41.2585 23.9599 40.8588 23.9501L39.9927 22.3896C39.8838 22.1954 39.6583 22.0992 39.443 22.1565L37.5692 22.6586C37.3544 22.7161 37.206 22.9126 37.2098 23.1353L37.2391 24.9773C36.9566 25.1615 36.6893 25.3687 36.4408 25.5955L34.562 25.0517C34.3479 24.9904 34.1198 25.0824 34.0085 25.2752L33.0384 26.9554C32.9271 27.1482 32.9613 27.3922 33.1216 27.5465L34.5331 28.9007C34.4502 29.2745 34.4024 29.6566 34.3892 30.0422L32.9501 30.8412C32.7554 30.9491 32.6594 31.176 32.717 31.3908L33.2191 33.2646C33.2764 33.4788 33.4732 33.6268 33.6957 33.624C33.6957 33.624 34.8028 33.6058 35.3449 33.5972C35.5468 33.921 35.7779 34.2256 36.035 34.5069L35.4897 36.3844C35.428 36.5982 35.5205 36.8266 35.7133 36.9379L37.3934 37.9079C37.5862 38.0193 37.8298 37.9848 37.9845 37.8248L39.3379 36.4139C39.7207 36.4982 40.109 36.5457 40.4984 36.5561C40.769 37.0432 41.3119 38.0212 41.3119 38.0212C41.4201 38.2155 41.6465 38.3123 41.8615 38.2543L43.7353 37.7522C43.9501 37.6947 44.0986 37.4982 44.0948 37.2755L44.0659 35.5815C44.378 35.3848 44.6722 35.1603 44.9444 34.9116L46.8224 35.4567C47.0365 35.5179 47.2646 35.4259 47.376 35.2331L48.346 33.553C48.4573 33.3602 48.4229 33.1166 48.2629 32.9619ZM38.9946 33.1945C37.3735 32.2585 36.816 30.1777 37.7519 28.5566C38.6879 26.9355 40.7687 26.3779 42.3898 27.3139C44.0109 28.2498 44.5685 30.3306 43.6325 31.9518C42.6966 33.5729 40.6158 34.1304 38.9946 33.1945Z" fill="#0792FF"/>
</g>
<defs>
<filter id="filter0_d_2933_57" x="7.58838" y="14.0267" width="41.7529" height="38.9938" filterUnits="userSpaceOnUse" color-interpolation-filters="sRGB">
<feFlood flood-opacity="0" result="BackgroundImageFix"/>
<feColorMatrix in="SourceAlpha" type="matrix" values="0 0 0 0 0 0 0 0 0 0 0 0 0 0 0 0 0 0 127 0" result="hardAlpha"/>
<feOffset dy="4"/>
<feGaussianBlur stdDeviation="4"/>
<feComposite in2="hardAlpha" operator="out"/>
<feColorMatrix type="matrix" values="0 0 0 0 0.027451 0 0 0 0 0.572549 0 0 0 0 1 0 0 0 0.25 0"/>
<feBlend mode="normal" in2="BackgroundImageFix" result="effect1_dropShadow_2933_57"/>
<feBlend mode="normal" in="SourceGraphic" in2="effect1_dropShadow_2933_57" result="shape"/>
</filter>
<filter id="filter1_d_2933_57" x="24.7004" y="18.14" width="32.0457" height="32.131" filterUnits="userSpaceOnUse" color-interpolation-filters="sRGB">
<feFlood flood-opacity="0" result="BackgroundImageFix"/>
<feColorMatrix in="SourceAlpha" type="matrix" values="0 0 0 0 0 0 0 0 0 0 0 0 0 0 0 0 0 0 127 0" result="hardAlpha"/>
<feOffset dy="4"/>
<feGaussianBlur stdDeviation="4"/>
<feComposite in2="hardAlpha" operator="out"/>
<feColorMatrix type="matrix" values="0 0 0 0 0.027451 0 0 0 0 0.572549 0 0 0 0 1 0 0 0 0.25 0"/>
<feBlend mode="normal" in2="BackgroundImageFix" result="effect1_dropShadow_2933_57"/>
<feBlend mode="normal" in="SourceGraphic" in2="effect1_dropShadow_2933_57" result="shape"/>
</filter>
</defs>
</svg>
