<svg width="60" height="60" viewBox="0 0 60 60" fill="none" xmlns="http://www.w3.org/2000/svg">
<rect width="60" height="60" rx="21" fill="#EAF4FF"/>
<g filter="url(#filter0_d_2996_177)">
<path d="M30 29.7157C32.8353 29.7157 35.134 26.8692 35.134 23.3579C35.134 19.8465 34.3791 17 30 17C25.6207 17 24.866 19.8465 24.866 23.3579C24.8661 26.8692 27.1647 29.7157 30 29.7157ZM39.6857 39.1667C39.5908 33.0498 38.8072 31.3069 32.8115 30.2035C32.8115 30.2035 31.9673 31.3 30.0002 31.3C28.033 31.3 27.189 30.2035 27.189 30.2035C21.2586 31.2947 20.4273 33.0119 20.318 38.9679C20.3091 39.4543 20.3051 39.4798 20.3034 39.4233C20.3037 39.5291 20.3042 39.7248 20.3042 40.066C20.3042 40.066 21.7317 43 30.0002 43C38.2688 43 39.6964 40.066 39.6964 40.066C39.6964 39.8468 39.6966 39.6943 39.6967 39.5907C39.6951 39.6256 39.6918 39.5579 39.6857 39.1667ZM37.1247 28.5806C39.4276 28.5806 41.2944 26.2687 41.2944 23.4168C41.2944 20.5649 40.6814 18.2531 37.1247 18.2531C36.5265 18.2531 36.0117 18.3187 35.5688 18.4412C36.3903 19.9853 36.5029 21.8608 36.5029 23.3578C36.5029 25.0529 36.0522 26.6712 35.2223 28.0111C35.7927 28.3744 36.4391 28.5806 37.1247 28.5806Z" fill="#0792FF"/>
<path d="M44.9911 36.2564C44.9138 31.2884 44.2776 29.8728 39.4079 28.9767C39.4079 28.9767 38.7224 29.8673 37.1246 29.8673C37.0586 29.8673 36.9945 29.8653 36.9315 29.8624C37.9466 30.329 38.8701 30.9788 39.5502 31.9296C40.7259 33.5734 40.9962 35.7815 41.052 39.0254C44.3282 38.3654 44.9997 36.987 44.9997 36.987C44.9997 36.8073 44.9997 36.6841 45 36.5999C44.9987 36.6295 44.996 36.5764 44.9911 36.2564ZM22.8752 28.5806C23.5609 28.5806 24.2071 28.3744 24.7778 28.0112C23.9479 26.6713 23.4972 25.053 23.4972 23.3579C23.4972 21.8608 23.6098 19.9853 24.4311 18.4413C23.9883 18.3188 23.4736 18.2531 22.8752 18.2531C19.3185 18.2531 18.7057 20.565 18.7057 23.4169C18.7057 26.2687 20.5725 28.5806 22.8752 28.5806ZM23.0684 29.8623C23.0055 29.8652 22.9414 29.8672 22.8752 29.8672C21.2775 29.8672 20.592 28.9766 20.592 28.9766C15.7224 29.8728 15.086 31.2883 15.0089 36.2563C15.0039 36.5764 15.0013 36.6294 15 36.5997C15.0002 36.6839 15.0003 36.8072 15.0003 36.9868C15.0003 36.9868 15.6718 38.3652 18.9478 39.0253C19.0038 35.7814 19.274 33.5733 20.4499 31.9294C21.1299 30.9788 22.0532 30.3289 23.0684 29.8623Z" fill="#0792FF"/>
</g>
<defs>
<filter id="filter0_d_2996_177" x="7" y="13" width="46" height="42" filterUnits="userSpaceOnUse" color-interpolation-filters="sRGB">
<feFlood flood-opacity="0" result="BackgroundImageFix"/>
<feColorMatrix in="SourceAlpha" type="matrix" values="0 0 0 0 0 0 0 0 0 0 0 0 0 0 0 0 0 0 127 0" result="hardAlpha"/>
<feOffset dy="4"/>
<feGaussianBlur stdDeviation="4"/>
<feComposite in2="hardAlpha" operator="out"/>
<feColorMatrix type="matrix" values="0 0 0 0 0.027451 0 0 0 0 0.572549 0 0 0 0 1 0 0 0 0.25 0"/>
<feBlend mode="normal" in2="BackgroundImageFix" result="effect1_dropShadow_2996_177"/>
<feBlend mode="normal" in="SourceGraphic" in2="effect1_dropShadow_2996_177" result="shape"/>
</filter>
</defs>
</svg>
