<svg width="20" height="18" viewBox="0 0 20 18" fill="none" xmlns="http://www.w3.org/2000/svg">
<path d="M19.375 15.125H2.5V0.625C2.5 0.279687 2.22031 0 1.875 0H0.625C0.279687 0 0 0.279687 0 0.625V16.375C0 17.0652 0.559766 17.625 1.25 17.625H19.375C19.7203 17.625 20 17.3453 20 17V15.75C20 15.4047 19.7203 15.125 19.375 15.125ZM18.125 1.72578H13.5133C12.6781 1.72578 12.2598 2.73555 12.8504 3.32617L14.116 4.5918L11.25 7.4582L8.38398 4.59219C7.8957 4.10391 7.1043 4.10391 6.61641 4.59219L3.9332 7.27539C3.68906 7.51953 3.68906 7.91523 3.9332 8.15937L4.8168 9.04297C5.06094 9.28711 5.45664 9.28711 5.70078 9.04297L7.5 7.24336L10.366 10.1094C10.8543 10.5977 11.6457 10.5977 12.1336 10.1094L15.8836 6.35937L17.1492 7.625C17.7398 8.21562 18.7496 7.79727 18.7496 6.96211V2.35078C18.75 2.00547 18.4703 1.72578 18.125 1.72578Z" fill="#767E9C"/>
</svg>
