<svg
   width="30"
   height="30"
   fill="#c8cddc"
   image-rendering="optimizeQuality"
   shape-rendering="geometricPrecision"
   viewBox="0 0 4.2402189 3.25"
   version="1.1"
   id="svg16"
   xmlns="http://www.w3.org/2000/svg">
  <defs
     id="defs20" />
  <path
     d="m 2.1002188,1.68 1.78,-0.7 -1.78,-0.7 -1.77000005,0.7 z m 1.97,-0.5 -1.9,0.75 c -0.02,0.01 -0.05,0.02 -0.08,0.02 a 0.31,0.31 0 0 1 -0.08,-0.02 L 0.14021875,1.18 a 0.272,0.272 0 0 1 -0.1,-0.08 0.201,0.201 0 0 1 -0.0399999975,-0.13 c 0,-0.04 0.009999998,-0.08 0.0399999975,-0.12 0.02,-0.03 0.05,-0.06 0.1,-0.08 L 2.0402188,0.01 c 0.03,-0.01 0.06,-0.01 0.08,-0.01 0.03,0 0.06,0 0.08,0.01 l 1.9,0.76 c 0.04,0.02 0.08,0.05 0.1,0.08 0.02,0.04 0.04,0.08 0.04,0.12 0,0.05 -0.02,0.1 -0.04,0.13 -0.02,0.03 -0.05,0.05 -0.1,0.07 v 0.01 z"
     id="path12" />
  <path
     d="m 0.27021875,1.18 c 0,-0.07 0.06,-0.13 0.13,-0.13 0.07,0 0.13,0.06 0.13,0.13 v 1 c 0,0.07 -0.06,0.13 -0.13,0.13 -0.07,0 -0.13,-0.05 -0.13,-0.13 z m 2.82000005,0.7 c 0,-0.08 0.06,-0.13 0.13,-0.13 0.07,0 0.13,0.05 0.13,0.13 v 0.6 c 0,0.23 -0.15,0.43 -0.4,0.57 -0.22,0.13 -0.53,0.2 -0.86,0.2 -0.33,0 -0.63,-0.08 -0.85,-0.2 -0.24,-0.14 -0.40000005,-0.34 -0.40000005,-0.57 v -0.6 c 0,-0.07 0.05,-0.13 0.13,-0.13 0.0700001,0 0.13000005,0.06 0.13000005,0.13 v 0.57 c 0,0.13 0.1,0.25 0.26,0.35 a 1.53,1.53 0 0 0 0.72,0.17 c 0.3,0 0.54,-0.07 0.73,-0.17 0.16,-0.1 0.26,-0.22 0.26,-0.35 V 1.88 Z"
     id="path14" />
</svg>
