<svg width="17" height="20" viewBox="0 0 17 20" fill="none" xmlns="http://www.w3.org/2000/svg">
<path d="M8.12774 0.00211146C7.56935 0.00211146 7.3584 0.389611 7.14745 0.589611C6.83723 0.889611 6.62628 0.977111 5.98103 1.02711C5.06278 1.10211 4.29344 1.51461 3.73504 2.22711C3.18906 2.91461 2.97811 3.61461 2.97811 4.68961V5.625H0.930657C0.416669 5.625 0 6.04474 0 6.5625C0 7.08027 0.41667 7.5 0.930657 7.5H16.0693C16.5833 7.5 17 7.08027 17 6.5625C17 6.04474 16.5833 5.625 16.0693 5.625H4.74015V4.68961C4.78979 3.65211 4.88906 3.2 5.64599 2.875C6.0803 2.68853 6.73796 2.70211 7.13504 3.11461C7.63139 3.73961 8.11533 3.73961 9.80293 3.73961C11.0438 3.73961 11.3168 3.70211 11.7883 3.45211C13.0292 2.79422 13.1161 0.952112 11.7883 0.264612C11.3044 0.0271117 11.0686 -0.0103885 9.74088 0.00211146H8.12774Z" fill="#767E9C"/>
<path fill-rule="evenodd" clip-rule="evenodd" d="M2.83558 17.8026C2.98774 19.0567 4.04489 20 5.29908 20H11.7009C12.9551 20 14.0122 19.0574 14.1643 17.8033L15.2628 8.75H1.73723L2.83558 17.8026ZM8.89362 10.7795C8.75546 10.5068 8.36863 10.5068 8.23047 10.7795L7.38341 12.4515C7.32932 12.5583 7.22781 12.6326 7.11029 12.6514L5.26995 12.9463C4.96977 12.9944 4.85025 13.365 5.06502 13.5816L6.38185 14.9098C6.46595 14.9946 6.50471 15.1148 6.48617 15.2332L6.19584 17.0875C6.14849 17.3899 6.46145 17.619 6.73234 17.4801L8.39326 16.629C8.49932 16.5746 8.62477 16.5746 8.73083 16.629L10.3917 17.4801C10.6626 17.619 10.9756 17.3899 10.9283 17.0875L10.6379 15.2332C10.6194 15.1148 10.6581 14.9946 10.7422 14.9098L12.0591 13.5816C12.2738 13.365 12.1543 12.9944 11.8541 12.9463L10.0138 12.6514C9.89627 12.6326 9.79477 12.5583 9.74068 12.4515L8.89362 10.7795Z" fill="#767E9C"/>
</svg>
