<svg width="23" height="19" viewBox="0 0 23 19" fill="none" xmlns="http://www.w3.org/2000/svg">
<path d="M5.75 2.375C5.75 1.06504 6.78141 0 8.05 0H20.7C21.9686 0 23 1.06504 23 2.375V13.0625C23 14.3725 21.9686 15.4375 20.7 15.4375H12.1037C11.6797 14.4912 11.0292 13.6748 10.2206 13.0625H13.8V11.875C13.8 11.2182 14.3139 10.6875 14.95 10.6875H17.25C17.8861 10.6875 18.4 11.2182 18.4 11.875V13.0625H20.7V2.375H8.05V4.19707C7.37437 3.79258 6.58734 3.5625 5.75 3.5625V2.375ZM5.75 4.75C6.20306 4.75 6.65168 4.84215 7.07026 5.02118C7.48883 5.20021 7.86916 5.46262 8.18952 5.79343C8.50988 6.12424 8.76401 6.51697 8.93738 6.94919C9.11076 7.38141 9.2 7.84467 9.2 8.3125C9.2 8.78033 9.11076 9.24359 8.93738 9.67581C8.76401 10.108 8.50988 10.5008 8.18952 10.8316C7.86916 11.1624 7.48883 11.4248 7.07026 11.6038C6.65168 11.7829 6.20306 11.875 5.75 11.875C5.29694 11.875 4.84832 11.7829 4.42974 11.6038C4.01117 11.4248 3.63084 11.1624 3.31048 10.8316C2.99012 10.5008 2.73599 10.108 2.56262 9.67581C2.38924 9.24359 2.3 8.78033 2.3 8.3125C2.3 7.84467 2.38924 7.38141 2.56262 6.94919C2.73599 6.51697 2.99012 6.12424 3.31048 5.79343C3.63084 5.46262 4.01117 5.20021 4.42974 5.02118C4.84832 4.84215 5.29694 4.75 5.75 4.75ZM4.79047 13.0625H6.70594C9.35453 13.0625 11.5 15.2779 11.5 18.0092C11.5 18.5547 11.0723 19 10.5405 19H0.959531C0.427656 19 0 18.5584 0 18.0092C0 15.2779 2.14547 13.0625 4.79047 13.0625Z" fill="#767E9C"/>
</svg>
