<svg width="60" height="61" viewBox="0 0 60 61" fill="none" xmlns="http://www.w3.org/2000/svg">
<g id="icon-apply">
<rect y="0.805664" width="60" height="60" rx="21" fill="#EAF4FF"/>
<path id="Vector" d="M29.2071 38.9449C28.8166 39.3354 28.1834 39.3354 27.7929 38.9449L21.8811 33.0331C21.4906 32.6426 21.4906 32.0094 21.8811 31.6189L23.1189 30.3811C23.5094 29.9906 24.1426 29.9906 24.5331 30.3811L28.5 34.348L41.487 21.361C40.0811 19.6815 38.3237 18.3309 36.339 17.4046C34.3542 16.4783 32.1903 15.9988 30 16C21.7155 16 15 22.7155 15 31C15 39.2845 21.7155 46 30 46C38.2845 46 45 39.2845 45 31C44.9981 28.7859 44.5031 26.6 43.551 24.601L29.2071 38.9449Z" fill="#0792FF"/>
</g>
</svg>
