<svg width="60" height="59" viewBox="0 0 60 59" fill="none" xmlns="http://www.w3.org/2000/svg">
<g id="icon-deposit">
<g clip-path="url(#clip0_7896_124)">
<rect y="0.740723" width="60" height="58" rx="21" fill="#EAF4FF"/>
<g id="Group 39336" filter="url(#filter0_d_7896_124)">
<path id="Subtract" fill-rule="evenodd" clip-rule="evenodd" d="M46.9413 20.4936V21.6165C46.9413 21.6992 46.9084 21.7786 46.8499 21.8371C46.7914 21.8956 46.7121 21.9284 46.6294 21.9284H15.3119C15.2292 21.9284 15.1499 21.8956 15.0914 21.8371C15.0329 21.7786 15 21.6992 15 21.6165V20.4936C15 18.5641 16.5641 17 18.4936 17H43.4477C45.3772 17 46.9413 18.5641 46.9413 20.4936ZM15 35.4661V24.2367C15 24.154 15.0329 24.0746 15.0914 24.0161C15.1499 23.9576 15.2292 23.9248 15.3119 23.9248H46.6294C46.7121 23.9248 46.7914 23.9576 46.8499 24.0161C46.9084 24.0746 46.9413 24.154 46.9413 24.2367V28.928C44.9028 27.134 42.228 26.0459 39.2991 26.0459C32.9078 26.0459 27.7266 31.2271 27.7266 37.6184C27.7266 38.072 27.7527 38.5196 27.8035 38.9596H18.4936C16.5641 38.9596 15 37.3955 15 35.4661ZM21.9872 33.9688C22.5384 33.9688 22.9853 33.5219 22.9853 32.9706V31.9725C22.9853 31.4212 22.5384 30.9743 21.9872 30.9743H20.989C20.4378 30.9743 19.9908 31.4212 19.9908 31.9725V32.9706C19.9908 33.5219 20.4378 33.9688 20.989 33.9688H21.9872Z" fill="#0792FF"/>
<path id="Exclude" fill-rule="evenodd" clip-rule="evenodd" d="M39.2991 47.3193C44.6567 47.3193 49 42.9761 49 37.6184C49 32.2607 44.6567 27.9175 39.2991 27.9175C33.9414 27.9175 29.5981 32.2607 29.5981 37.6184C29.5981 42.9761 33.9414 47.3193 39.2991 47.3193ZM33.0313 37.2659L38.7184 31.5993C38.881 31.437 39.0985 31.348 39.3304 31.3485C39.5615 31.3479 39.7789 31.437 39.9417 31.5992L45.6288 37.2657C45.7911 37.4275 45.8807 37.6431 45.8807 37.873C45.8807 38.1031 45.7923 38.3186 45.6299 38.4803L45.1151 38.9948C44.9529 39.1564 44.7392 39.2455 44.5086 39.2455C44.2778 39.2455 44.0672 39.1564 43.9049 38.9948L40.5613 35.6516V43.1026C40.5613 43.5762 40.1517 43.9503 39.6763 43.9503H38.9462C38.4708 43.9503 38.0988 43.5762 38.0988 43.1026L38.0988 35.6891L34.7737 38.9949C34.6116 39.1565 34.3878 39.2456 34.1571 39.2456C33.9263 39.2456 33.7098 39.1565 33.5477 38.9949L33.0313 38.4804C32.869 38.3187 32.7798 38.1032 32.7798 37.8731C32.7798 37.6432 32.8689 37.4276 33.0313 37.2659Z" fill="#0792FF"/>
</g>
</g>
</g>
<defs>
<filter id="filter0_d_7896_124" x="4.33333" y="11.6667" width="55.3333" height="51.6527" filterUnits="userSpaceOnUse" color-interpolation-filters="sRGB">
<feFlood flood-opacity="0" result="BackgroundImageFix"/>
<feColorMatrix in="SourceAlpha" type="matrix" values="0 0 0 0 0 0 0 0 0 0 0 0 0 0 0 0 0 0 127 0" result="hardAlpha"/>
<feOffset dy="5.33333"/>
<feGaussianBlur stdDeviation="5.33333"/>
<feComposite in2="hardAlpha" operator="out"/>
<feColorMatrix type="matrix" values="0 0 0 0 0.027451 0 0 0 0 0.572549 0 0 0 0 1 0 0 0 0.25 0"/>
<feBlend mode="normal" in2="BackgroundImageFix" result="effect1_dropShadow_7896_124"/>
<feBlend mode="normal" in="SourceGraphic" in2="effect1_dropShadow_7896_124" result="shape"/>
</filter>
<clipPath id="clip0_7896_124">
<rect y="0.740723" width="60" height="58" rx="21" fill="white"/>
</clipPath>
</defs>
</svg>
