<svg width="60" height="60" viewBox="0 0 60 60" fill="none" xmlns="http://www.w3.org/2000/svg">
<rect width="60" height="60" rx="21" fill="#EAF4FF"/>
<g filter="url(#filter0_d_1512_777)">
<path d="M41.0931 21.6257C40.9627 21.3974 40.8023 21.2384 40.5555 21.1507L33.3999 18.5462C33.427 17.7688 33.1453 16.9832 32.553 16.3915C31.3345 15.1723 29.2991 15.2699 28.2121 16.6577L21.0675 14.0576L21.0662 14.057C20.5657 13.8782 20.0614 14.1432 19.8731 14.5307L15.3453 23.5219H17.5103L20.7413 17.105L24.0117 23.5219H26.1818L22.7123 16.7137L27.5979 18.492C27.6179 19.7342 28.4114 20.7853 29.5334 21.1823V39.9601C29.5334 40.4937 29.9665 40.9269 30.5002 40.9269C31.0339 40.9269 31.467 40.4937 31.467 39.9601V21.1823C31.9416 21.0154 32.3642 20.7272 32.6929 20.3463L38.8765 22.597L34.8063 30.6827H36.9713L40.2294 24.2103L43.4901 30.6827H45.655L41.0931 21.6257ZM31.186 19.1301C30.8076 19.5084 30.1927 19.5084 29.8144 19.1301C29.4361 18.7518 29.4361 18.1369 29.8144 17.7585C30.1927 17.3802 30.8076 17.3802 31.186 17.7585C31.5649 18.1375 31.5655 18.7505 31.186 19.1301Z" fill="#0792FF"/>
<path d="M31.6384 39.0576H29.3617C26.6149 39.0576 24.3802 41.2923 24.3802 44.0391C24.3802 44.573 24.813 45.0059 25.347 45.0059H35.653C36.187 45.0059 36.6198 44.573 36.6198 44.0391C36.6198 41.2923 34.3852 39.0576 31.6384 39.0576ZM46.0332 32.6159H34.4284C33.8945 32.6159 33.4616 33.0488 33.4616 33.5827C33.4616 37.3153 36.4983 40.3519 40.2308 40.3519C43.9634 40.3519 47 37.3153 47 33.5827C47 33.0488 46.5671 32.6159 46.0332 32.6159ZM26.5748 25.4556H14.9668C14.4329 25.4556 14 25.8885 14 26.4224C14 30.1558 17.0374 33.1932 20.7708 33.1932C24.5042 33.1932 27.5416 30.1558 27.5416 26.4224C27.5416 25.8885 27.1087 25.4556 26.5748 25.4556Z" fill="#0792FF"/>
</g>
<defs>
<filter id="filter0_d_1512_777" x="6" y="10" width="49" height="47.0059" filterUnits="userSpaceOnUse" color-interpolation-filters="sRGB">
<feFlood flood-opacity="0" result="BackgroundImageFix"/>
<feColorMatrix in="SourceAlpha" type="matrix" values="0 0 0 0 0 0 0 0 0 0 0 0 0 0 0 0 0 0 127 0" result="hardAlpha"/>
<feOffset dy="4"/>
<feGaussianBlur stdDeviation="4"/>
<feComposite in2="hardAlpha" operator="out"/>
<feColorMatrix type="matrix" values="0 0 0 0 0.027451 0 0 0 0 0.572549 0 0 0 0 1 0 0 0 0.25 0"/>
<feBlend mode="normal" in2="BackgroundImageFix" result="effect1_dropShadow_1512_777"/>
<feBlend mode="normal" in="SourceGraphic" in2="effect1_dropShadow_1512_777" result="shape"/>
</filter>
</defs>
</svg>
