<svg width="38" height="38" viewBox="0 0 38 38" fill="none" xmlns="http://www.w3.org/2000/svg">
<path d="M33.7129 1.80856L1.85671 33.6648C1.18724 34.3342 1.18724 35.4197 1.85671 36.0891C2.52618 36.7586 3.61161 36.7586 4.28108 36.0891L36.1373 4.23293C36.8068 3.56346 36.8068 2.47804 36.1373 1.80857C35.4678 1.13909 34.3824 1.13909 33.7129 1.80856Z" fill="#474D65"/>
<path d="M8.71425 17.2858C7.01899 17.2858 5.36182 16.7831 3.95226 15.8412C2.54269 14.8994 1.44406 13.5607 0.795309 11.9945C0.146558 10.4283 -0.0232144 8.7048 0.307516 7.04211C0.638247 5.37941 1.45462 3.85212 2.65336 2.65338C3.85209 1.45465 5.37934 0.638321 7.04203 0.307591C8.70472 -0.0231398 10.4281 0.14658 11.9944 0.795331C13.5606 1.44408 14.8993 2.54271 15.8411 3.95228C16.783 5.36184 17.2857 7.01906 17.2857 8.71433C17.2857 10.9876 16.3826 13.1678 14.7752 14.7752C13.1677 16.3827 10.9875 17.2858 8.71425 17.2858ZM8.71425 3.57147C7.69709 3.57147 6.70282 3.87308 5.85708 4.43819C5.01134 5.00329 4.35208 5.80647 3.96282 6.74621C3.57357 7.68594 3.47173 8.72003 3.67017 9.71764C3.86861 10.7153 4.35843 11.6316 5.07768 12.3509C5.79692 13.0701 6.71332 13.5599 7.71094 13.7584C8.70856 13.9568 9.74264 13.855 10.6824 13.4657C11.6221 13.0765 12.4252 12.4172 12.9903 11.5715C13.5554 10.7258 13.8571 9.73149 13.8571 8.71433C13.8571 7.35036 13.3153 6.04222 12.3508 5.07775C11.3864 4.11328 10.0782 3.57147 8.71425 3.57147Z" fill="#50CBE6"/>
<path d="M27.5714 37.8572C25.8762 37.8572 24.219 37.3545 22.8094 36.4126C21.3999 35.4708 20.3012 34.1321 19.6525 32.5659C19.0037 30.9997 18.834 29.2762 19.1647 27.6135C19.4954 25.9508 20.3118 24.4235 21.5105 23.2248C22.7093 22.0261 24.2365 21.2097 25.8992 20.879C27.5619 20.5483 29.2853 20.718 30.8515 21.3667C32.4178 22.0155 33.7565 23.1141 34.6983 24.5237C35.6402 25.9333 36.1429 27.5905 36.1429 29.2857C36.1429 31.559 35.2398 33.7392 33.6323 35.3466C32.0249 36.9541 29.8447 37.8572 27.5714 37.8572ZM27.5714 24.1429C26.5543 24.1429 25.56 24.4445 24.7143 25.0096C23.8685 25.5747 23.2093 26.3779 22.82 27.3176C22.4308 28.2574 22.3289 29.2914 22.5273 30.2891C22.7258 31.2867 23.2156 32.203 23.9349 32.9223C24.6541 33.6415 25.5705 34.1313 26.5681 34.3298C27.5657 34.5282 28.5998 34.4264 29.5396 34.0371C30.4793 33.6479 31.2824 32.9887 31.8475 32.1429C32.4126 31.2972 32.7143 30.3029 32.7143 29.2857C32.7143 27.9218 32.1725 26.6136 31.208 25.6492C30.2435 24.6847 28.9354 24.1429 27.5714 24.1429Z" fill="#474D65"/>
</svg>
