<svg width="36" height="40" viewBox="0 0 36 40" fill="none" xmlns="http://www.w3.org/2000/svg">
<path d="M19.0518 39.4856C18.4331 39.9664 17.567 39.9664 16.9482 39.4856L1.51965 27.4976C1.10169 27.1729 0.857178 26.6732 0.857178 26.1439V3.85716C0.857178 2.91039 1.62469 2.14287 2.57146 2.14287H9.42861C10.3754 2.14287 11.1429 2.91039 11.1429 3.85716V5.57145H12.8572V2.14287C12.8572 1.1961 13.6247 0.428589 14.5715 0.428589H21.4286C22.3754 0.428589 23.1429 1.1961 23.1429 2.14287V5.57145H24.8572V3.85716C24.8572 2.91039 25.6247 2.14287 26.5715 2.14287H33.4286C34.3754 2.14287 35.1429 2.91039 35.1429 3.85716V26.1439C35.1429 26.6732 34.8984 27.1729 34.4804 27.4976L19.0518 39.4856ZM4.28575 25.3029L18 35.9657L31.7143 25.3029V5.57145H28.2857V7.28573C28.2857 8.23251 27.5182 9.00002 26.5715 9.00002H21.4286C20.4818 9.00002 19.7143 8.23251 19.7143 7.28573V3.85716H16.2857V7.28573C16.2857 8.23251 15.5182 9.00002 14.5715 9.00002H9.42861C8.48183 9.00002 7.71432 8.23251 7.71432 7.28573V5.57145H4.28575V25.3029Z" fill="#474D65"/>
<path d="M18 22.7143H16.2857C15.3764 22.7143 14.5044 22.3531 13.8614 21.7101C13.2185 21.0671 12.8572 20.1951 12.8572 19.2857V17.5715C12.8572 16.6621 13.2185 15.7901 13.8614 15.1471C14.5044 14.5041 15.3764 14.1429 16.2857 14.1429H21.4286C22.3754 14.1429 23.1429 14.9104 23.1429 15.8572L-nan -nanL23.1429 15.8572C23.1429 16.8039 22.3754 17.5715 21.4286 17.5715H16.2857V19.2857H18V22.7143Z" fill="#07A6FF"/>
<path d="M19.7143 27.8571H14.5715C13.6247 27.8571 12.8572 27.0896 12.8572 26.1428L-nan -nanL12.8572 26.1428C12.8572 25.1961 13.6247 24.4286 14.5715 24.4286H19.7143V22.7143H16.2857V19.2857H19.7143C20.6236 19.2857 21.4958 19.6469 22.1387 20.2899C22.7817 20.9329 23.1429 21.805 23.1429 22.7143V24.4286C23.1429 25.3379 22.7817 26.2099 22.1387 26.8529C21.4958 27.4959 20.6236 27.8571 19.7143 27.8571Z" fill="#07A6FF"/>
<path d="M16.286 14.1429C16.286 15.0896 17.0535 15.8572 18.0003 15.8572C18.9471 15.8572 19.7146 15.0896 19.7146 14.1429C19.7146 13.1961 18.9471 12.4286 18.0003 12.4286C17.0535 12.4286 16.286 13.1961 16.286 14.1429Z" fill="#07A6FF"/>
<path d="M16.286 27.8572C16.286 28.8039 17.0535 29.5715 18.0003 29.5715C18.9471 29.5715 19.7146 28.8039 19.7146 27.8572C19.7146 26.9104 18.9471 26.1429 18.0003 26.1429C17.0535 26.1429 16.286 26.9104 16.286 27.8572Z" fill="#07A6FF"/>
</svg>
