<svg width="44" height="40" viewBox="0 0 44 40" fill="none" xmlns="http://www.w3.org/2000/svg">
<path d="M6.07132 33.0172H4.35704C3.44772 33.0172 2.57565 32.656 1.93267 32.013C1.28969 31.37 0.928467 30.4979 0.928467 29.5886V9.01719C0.928467 8.10788 1.28969 7.23581 1.93267 6.59283C2.57565 5.94984 3.44772 5.58862 4.35704 5.58862H35.2142C36.1235 5.58862 36.9956 5.94984 37.6385 6.59283C38.2815 7.23581 38.6428 8.10788 38.6428 9.01719V12.4458H35.2142V9.01719H4.35704V29.5886H6.07132V33.0172Z" fill="#474D65"/>
<path d="M26.5741 7.28573H23.1456V3.85716H16.2884V7.28573H12.8599V3.85716C12.8599 1.96361 14.3949 0.428589 16.2884 0.428589H23.1456C25.0391 0.428589 26.5741 1.96361 26.5741 3.85716V7.28573Z" fill="#474D65"/>
<path d="M6.00269 5.57146C6.00269 6.51824 6.7702 7.28575 7.71697 7.28575C8.66375 7.28575 9.43126 6.51824 9.43126 5.57146C9.43126 4.62469 8.66375 3.85718 7.71697 3.85718C6.7702 3.85718 6.00269 4.62469 6.00269 5.57146Z" fill="#474D65"/>
<path d="M30.0027 5.57146C30.0027 6.51824 30.7702 7.28575 31.717 7.28575C32.6637 7.28575 33.4313 6.51824 33.4313 5.57146C33.4313 4.62469 32.6637 3.85718 31.717 3.85718C30.7702 3.85718 30.0027 4.62469 30.0027 5.57146Z" fill="#474D65"/>
<path d="M43.717 36.4286H6.00269V39.8572H43.717V36.4286Z" fill="#474D65"/>
<path d="M19.7169 38.1429H16.2883V33H12.8597V38.1429H9.43115V33C9.43115 31.1065 10.9662 29.5715 12.8597 29.5715H16.2883C18.1818 29.5715 19.7169 31.1065 19.7169 33V38.1429Z" fill="#6F3ED8"/>
<path d="M31.7169 38.1429H28.2883V26.1429H24.8597V38.1429H21.4312V26.1429C21.4312 24.2493 22.9662 22.7143 24.8597 22.7143H28.2883C30.1818 22.7143 31.7169 24.2493 31.7169 26.1429V38.1429Z" fill="#6F3ED8"/>
<path d="M43.7169 38.1429H40.2883V19.2857H36.8597V38.1429H33.4312V19.2857C33.4312 17.3922 34.9662 15.8572 36.8597 15.8572H40.2883C42.1818 15.8572 43.7169 17.3922 43.7169 19.2857V38.1429Z" fill="#6F3ED8"/>
</svg>
