<svg width="37" height="40" viewBox="0 0 37 40" fill="none" xmlns="http://www.w3.org/2000/svg">
<path d="M17.1892 31.8974L14.3572 36.4286H22.9286L20.0966 31.8974C19.4252 30.8231 17.8606 30.8231 17.1892 31.8974Z" fill="#474D65"/>
<path fill-rule="evenodd" clip-rule="evenodd" d="M7.17994 30.7306C7.0033 29.8005 7.61414 28.9033 8.54429 28.7266L29.176 24.8086C30.1062 24.632 31.0034 25.2428 31.18 26.173C31.3567 27.1031 30.7458 28.0003 29.8157 28.177L9.18395 32.095C8.2538 32.2716 7.35658 31.6608 7.17994 30.7306Z" fill="#474D65"/>
<path fill-rule="evenodd" clip-rule="evenodd" d="M10.9285 9.85718C11.8753 9.85718 12.6428 10.6247 12.6428 11.5715V20.1429L13.1157 19.6463C13.7686 18.9607 14.8537 18.9343 15.5393 19.5872C16.2249 20.2402 16.2514 21.3253 15.5985 22.0109L12.1699 25.6109C11.8463 25.9506 11.3977 26.1429 10.9285 26.1429C10.4593 26.1429 10.0107 25.9506 9.68713 25.6109L6.25855 22.0109C5.60561 21.3253 5.63207 20.2402 6.31767 19.5872C7.00326 18.9343 8.08837 18.9607 8.74131 19.6463L9.21422 20.1429V11.5715C9.21422 10.6247 9.98173 9.85718 10.9285 9.85718Z" fill="#FF8D07"/>
<path d="M26.3572 15.8572H24.6429C23.7336 15.8572 22.8616 15.496 22.2186 14.853C21.5756 14.21 21.2144 13.3379 21.2144 12.4286V10.7143C21.2144 9.80502 21.5756 8.93295 22.2186 8.28997C22.8616 7.64699 23.7336 7.28577 24.6429 7.28577H29.7858C30.7326 7.28577 31.5001 8.05328 31.5001 9.00005L-nan -nanL31.5001 9.00005C31.5001 9.94683 30.7326 10.7143 29.7858 10.7143H24.6429V12.4286H26.3572V15.8572Z" fill="#FF8D07"/>
<path d="M28.0715 21H22.9286C21.9819 21 21.2144 20.2325 21.2144 19.2857L-nan -nanL21.2144 19.2857C21.2144 18.339 21.9819 17.5714 22.9286 17.5714H28.0715V15.8572H24.6429V12.4286H28.0715C28.9808 12.4286 29.8529 12.7898 30.4959 13.4328C31.1389 14.0758 31.5001 14.9478 31.5001 15.8572V17.5714C31.5001 18.4808 31.1389 19.3528 30.4959 19.9958C29.8529 20.6388 28.9808 21 28.0715 21Z" fill="#FF8D07"/>
<path d="M28.0716 9.00004V7.28576C28.0716 6.33898 27.3041 5.57147 26.3574 5.57147C25.4106 5.57147 24.6431 6.33898 24.6431 7.28576V9.00004H28.0716Z" fill="#FF8D07"/>
<path d="M28.0716 19.2858H24.6431V21.0001C24.6431 21.9468 25.4106 22.7143 26.3574 22.7143C27.3041 22.7143 28.0716 21.9468 28.0716 21.0001V19.2858Z" fill="#FF8D07"/>
<path fill-rule="evenodd" clip-rule="evenodd" d="M0.642822 5.57145C0.642822 2.73112 2.94536 0.428589 5.78568 0.428589H31.5C34.3403 0.428589 36.6428 2.73112 36.6428 5.57145V34.7143C36.6428 37.5546 34.3403 39.8572 31.5 39.8572H5.78568C2.94536 39.8572 0.642822 37.5546 0.642822 34.7143V5.57145ZM5.78568 3.85716C4.83891 3.85716 4.07139 4.62467 4.07139 5.57145V34.7143C4.07139 35.6611 4.83891 36.4286 5.78568 36.4286H31.5C32.4467 36.4286 33.2143 35.6611 33.2143 34.7143V5.57145C33.2143 4.62467 32.4467 3.85716 31.5 3.85716H5.78568Z" fill="#474D65"/>
</svg>
