<svg width="30" height="42" viewBox="0 0 30 42" fill="none" xmlns="http://www.w3.org/2000/svg">
<path d="M29.7144 34.7143C29.7144 36.6079 28.1794 38.1429 26.2858 38.1429H21.143V34.7143H26.2858V3.85716H9.84577L4.0001 9.70288V34.7143H9.14296V38.1429H4.0001C2.10656 38.1429 0.571533 36.6079 0.571533 34.7143V8.99123C0.571533 8.53592 0.752659 8.09932 1.07496 7.77772L7.93828 0.929369C8.25966 0.608687 8.69513 0.428589 9.14914 0.428589H26.2858C28.1794 0.428589 29.7144 1.96361 29.7144 3.85716V34.7143Z" fill="#474D65"/>
<path d="M12.5714 9.00003C12.5714 10.8936 11.0364 12.4286 9.14286 12.4286H4V9.00003H9.14286V3.85718H12.5714V9.00003Z" fill="#474D65"/>
<path d="M10.8572 31.2857V41.5714L15.1429 37.2857L19.4286 41.5714V31.2857H10.8572Z" fill="#35BB1F"/>
<path d="M15.1259 34.7143C13.6001 34.7143 12.1087 34.2619 10.8401 33.4142C9.57146 32.5665 8.58267 31.3617 7.9988 29.9521C7.41492 28.5425 7.26221 26.9915 7.55987 25.495C7.85752 23.9986 8.59216 22.6241 9.67102 21.5452C10.7499 20.4663 12.1244 19.7316 13.6209 19.4339C15.1173 19.1363 16.6684 19.289 18.078 19.8729C19.4876 20.4568 20.6925 21.4456 21.5401 22.7142C22.3878 23.9828 22.8402 25.4743 22.8402 27C22.8356 29.0446 22.0215 31.0041 20.5757 32.4499C19.13 33.8956 17.1705 34.7098 15.1259 34.7143ZM15.1259 22.7143C14.2783 22.7143 13.4497 22.9657 12.7449 23.4366C12.0401 23.9075 11.4908 24.5769 11.1664 25.36C10.842 26.1431 10.7572 27.0048 10.9225 27.8361C11.0879 28.6675 11.4961 29.4311 12.0954 30.0305C12.6948 30.6298 13.4584 31.038 14.2898 31.2034C15.1211 31.3687 15.9829 31.2839 16.766 30.9595C17.5491 30.6351 18.2184 30.0858 18.6893 29.381C19.1603 28.6762 19.4116 27.8476 19.4116 27C19.4071 25.8648 18.9541 24.7773 18.1513 23.9745C17.3486 23.1718 16.2611 22.7188 15.1259 22.7143Z" fill="#35BB1F"/>
</svg>
