<svg width="80" height="80" viewBox="0 0 80 80" fill="none" xmlns="http://www.w3.org/2000/svg">
<g id="icon-earth">
<rect width="80" height="80" rx="28.35" fill="#EAF4FF"/>
<g id="Earth" filter="url(#filter0_d_8396_329)">
<path d="M31.9117 40.5C31.9117 38.4841 32.021 36.5108 32.2314 34.627H22.5262C21.9168 36.4985 21.5996 38.4748 21.5996 40.5C21.5996 42.0487 21.7854 43.5687 22.145 45.0352H32.1C31.9756 43.5625 31.9117 42.0437 31.9117 40.5Z" fill="#0792FF"/>
<path d="M32.3377 47.2493H22.8357C23.7719 49.7023 25.2232 51.9523 27.1355 53.8645C29.6578 56.3869 32.768 58.1072 36.1567 58.9002C35.4208 57.8799 34.7525 56.5852 34.1728 55.0348C33.3357 52.7959 32.715 50.1404 32.3377 47.2493Z" fill="#0792FF"/>
<path d="M48.4668 32.4128H57.5929C56.6758 30.4779 55.4229 28.6945 53.8638 27.1356C51.3415 24.6132 48.2313 22.8929 44.8426 22.0998C45.5785 23.1201 46.2468 24.4147 46.8265 25.9653C47.5328 27.8541 48.0848 30.0397 48.4668 32.4128Z" fill="#0792FF"/>
<path d="M32.5324 32.4128C32.9145 30.0397 33.4665 27.8541 34.1728 25.9653C34.7525 24.4148 35.4207 23.1201 36.1567 22.0998C32.768 22.8929 29.6579 24.6132 27.1355 27.1356C25.5765 28.6945 24.3236 30.4779 23.4065 32.4128H32.5324Z" fill="#0792FF"/>
<path d="M48.6615 47.2493C48.2843 50.1404 47.6636 52.7959 46.8265 55.0348C46.2468 56.5852 45.5785 57.8799 44.8426 58.9002C48.2313 58.1072 51.3414 56.3869 53.8638 53.8645C55.776 51.9523 57.2274 49.7023 58.1635 47.2493H48.6615Z" fill="#0792FF"/>
<path d="M58.4731 34.627H48.7678C48.9783 36.5109 49.0875 38.4842 49.0875 40.5C49.0875 42.0436 49.0236 43.5625 48.8992 45.0352H58.8542C59.2138 43.5687 59.3996 42.0487 59.3996 40.5C59.3996 38.4748 59.0825 36.4985 58.4731 34.627Z" fill="#0792FF"/>
<path d="M46.4285 47.2493H34.5708C34.9281 49.8582 35.4944 52.2454 36.2475 54.2595C37.4509 57.4783 39.0405 59.4 40.4997 59.4C41.9588 59.4 43.5484 57.4783 44.7519 54.2595C45.5049 52.2454 46.0712 49.8582 46.4285 47.2493Z" fill="#0792FF"/>
<path d="M34.7757 32.4128H46.2237C45.8688 30.3244 45.3742 28.4049 44.7519 26.7404C43.5483 23.5217 41.9587 21.6 40.4996 21.6C39.0405 21.6 37.451 23.5217 36.2474 26.7404C35.6251 28.4049 35.1305 30.3244 34.7757 32.4128Z" fill="#0792FF"/>
<path d="M46.5396 34.627H34.4596C34.2406 36.5002 34.1265 38.4751 34.1265 40.5C34.1265 42.0487 34.1935 43.568 34.3227 45.0352H46.6765C46.8057 43.568 46.8727 42.0488 46.8727 40.5C46.8728 38.4751 46.7587 36.5002 46.5396 34.627Z" fill="#0792FF"/>
</g>
</g>
<defs>
<filter id="filter0_d_8396_329" x="10.7996" y="16.2" width="59.3998" height="59.4" filterUnits="userSpaceOnUse" color-interpolation-filters="sRGB">
<feFlood flood-opacity="0" result="BackgroundImageFix"/>
<feColorMatrix in="SourceAlpha" type="matrix" values="0 0 0 0 0 0 0 0 0 0 0 0 0 0 0 0 0 0 127 0" result="hardAlpha"/>
<feOffset dy="5.4"/>
<feGaussianBlur stdDeviation="5.4"/>
<feComposite in2="hardAlpha" operator="out"/>
<feColorMatrix type="matrix" values="0 0 0 0 0.027451 0 0 0 0 0.572549 0 0 0 0 1 0 0 0 0.25 0"/>
<feBlend mode="normal" in2="BackgroundImageFix" result="effect1_dropShadow_8396_329"/>
<feBlend mode="normal" in="SourceGraphic" in2="effect1_dropShadow_8396_329" result="shape"/>
</filter>
</defs>
</svg>
