<svg width="80" height="80" viewBox="0 0 80 80" fill="none" xmlns="http://www.w3.org/2000/svg">
<g id="icon-earth">
<rect width="80" height="80" rx="28.35" fill="#EAF4FF"/>
<g id="Vector" filter="url(#filter0_d_8396_331)">
<path d="M44.5275 61.1007H36.4725C35.6571 61.1007 34.996 61.7498 34.996 62.5503C34.996 63.3509 35.6571 64 36.4725 64H44.5275C45.3429 64 46.004 63.3509 46.004 62.5503C46.004 61.7498 45.3429 61.1007 44.5275 61.1007Z" fill="#0792FF"/>
<path d="M40.5 21.7375C41.3153 21.7375 41.9765 21.0883 41.9765 20.2878V17.4497C41.9765 16.6491 41.3153 16 40.5 16C39.6847 16 39.0235 16.6491 39.0235 17.4497V20.2878C39.0235 21.0883 39.6847 21.7375 40.5 21.7375Z" fill="#0792FF"/>
<path d="M61.5235 35.0212H58.6329C57.8175 35.0212 57.1564 35.6703 57.1564 36.4709C57.1564 37.2714 57.8175 37.9205 58.6329 37.9205H61.5235C62.3389 37.9205 63 37.2714 63 36.4709C63 35.6703 62.3405 35.0212 61.5235 35.0212Z" fill="#0792FF"/>
<path d="M22.3655 35.0212H19.4765C18.6611 35.0212 18 35.6703 18 36.4709C18 37.2714 18.6611 37.9205 19.4765 37.9205H22.3671C23.1825 37.9205 23.8436 37.2714 23.8436 36.4709C23.8436 35.6703 23.1808 35.0212 22.3655 35.0212Z" fill="#0792FF"/>
<path d="M27.8006 26.0526C28.0893 26.3361 28.4666 26.4779 28.8456 26.4779C29.2246 26.4779 29.6019 26.3361 29.8906 26.0526C30.4681 25.4872 30.4681 24.5691 29.8906 24.0038L27.8449 21.9952C27.2674 21.4282 26.3323 21.4282 25.7565 21.9952C25.179 22.5605 25.179 23.4787 25.7565 24.044L27.8006 26.0526Z" fill="#0792FF"/>
<path d="M53.1551 21.9952L51.111 24.0021C50.5335 24.5675 50.5335 25.4856 51.111 26.051C51.3997 26.3345 51.7771 26.4762 52.156 26.4762C52.535 26.4762 52.9123 26.3345 53.2011 26.051L55.2452 24.044C55.8226 23.4787 55.8226 22.5605 55.2452 21.9952C54.6677 21.4298 53.731 21.4298 53.1551 21.9952Z" fill="#0792FF"/>
<path d="M40.5 26.2153C33.0766 26.204 27.0377 32.1315 27.0377 39.433C27.0377 42.9477 28.442 46.145 30.7388 48.5047C32.2629 50.0719 33.2094 52.0934 33.2094 54.2599V55.4953C33.2094 56.3844 33.9444 57.106 34.85 57.106H46.15C47.0556 57.106 47.7906 56.3844 47.7906 55.4953V54.2599C47.7906 52.0934 48.7355 50.0719 50.2612 48.5047C52.5563 46.145 53.9623 42.9493 53.9623 39.433C53.9623 32.1315 47.9234 26.2024 40.5 26.2153ZM39.1794 34.2626C37.2534 34.7329 35.7047 36.2615 35.2322 38.1573C35.0665 38.8193 34.4628 39.2639 33.8 39.2639C33.6836 39.2639 33.5638 39.2494 33.4473 39.222C32.6549 39.0319 32.171 38.2475 32.3646 37.4695C33.1061 34.4945 35.4439 32.1879 38.4657 31.4486C39.2565 31.2585 40.0603 31.7273 40.2556 32.5052C40.4524 33.2832 39.9701 34.0693 39.1794 34.2626Z" fill="#0792FF"/>
</g>
</g>
<defs>
<filter id="filter0_d_8396_331" x="10" y="12" width="61" height="64" filterUnits="userSpaceOnUse" color-interpolation-filters="sRGB">
<feFlood flood-opacity="0" result="BackgroundImageFix"/>
<feColorMatrix in="SourceAlpha" type="matrix" values="0 0 0 0 0 0 0 0 0 0 0 0 0 0 0 0 0 0 127 0" result="hardAlpha"/>
<feOffset dy="4"/>
<feGaussianBlur stdDeviation="4"/>
<feComposite in2="hardAlpha" operator="out"/>
<feColorMatrix type="matrix" values="0 0 0 0 0.027451 0 0 0 0 0.572549 0 0 0 0 1 0 0 0 0.25 0"/>
<feBlend mode="normal" in2="BackgroundImageFix" result="effect1_dropShadow_8396_331"/>
<feBlend mode="normal" in="SourceGraphic" in2="effect1_dropShadow_8396_331" result="shape"/>
</filter>
</defs>
</svg>
