<svg width="80" height="80" viewBox="0 0 80 80" fill="none" xmlns="http://www.w3.org/2000/svg">
<g id="icon-earth">
<rect width="80" height="80" rx="28.35" fill="#EAF4FF"/>
<g id="Vector" filter="url(#filter0_d_8396_326)">
<path d="M58.2203 21.0033C50.8025 20.8703 42.343 24.748 36.9882 30.7634C31.871 30.8599 26.8884 32.9579 23.2199 36.6267C23.0061 36.8372 22.9301 37.1523 23.0235 37.4374C23.1185 37.7239 23.3655 37.9314 23.6632 37.9741L29.7652 38.8482L29.0116 39.6921C28.7313 40.0056 28.7456 40.4822 29.0432 40.7799L39.2191 50.9564C39.3727 51.11 39.5754 51.1875 39.7796 51.1875C39.968 51.1875 40.1564 51.121 40.3068 50.9864L41.1507 50.2327L42.0247 56.3351C42.0675 56.6328 42.3018 56.8513 42.5852 56.9463C42.658 56.9701 42.734 56.9812 42.8116 56.9812C43.0364 56.9812 43.266 56.883 43.4244 56.7262C47.0422 53.1082 49.1401 48.1253 49.2366 43.0077C55.2579 37.6416 59.1671 29.1847 58.9945 21.776C58.9834 21.3548 58.643 21.0144 58.2203 21.0033ZM50.9244 34.6712C50.1534 35.4423 49.1401 35.8286 48.1252 35.8286C47.1103 35.8286 46.097 35.4423 45.3259 34.6712C43.7838 33.1274 43.7838 30.6161 45.3259 29.0723C46.8696 27.5285 49.3807 27.5285 50.9244 29.0723C52.4682 30.6161 52.4682 33.1289 50.9244 34.6712Z" fill="#0792FF"/>
<path d="M25.313 47.7658C23.6189 49.4601 21.293 57.1142 21.0333 57.9803C20.9494 58.259 21.027 58.5614 21.2313 58.7672C21.3832 58.9192 21.5843 59 21.7917 59C21.8677 59 21.9437 58.9889 22.0197 58.9667C22.8858 58.7071 30.5395 56.3811 32.2336 54.6868C34.1415 52.7788 34.1415 49.6738 32.2336 47.7658C30.3241 45.8578 27.2209 45.8594 25.313 47.7658Z" fill="#0792FF"/>
</g>
</g>
<defs>
<filter id="filter0_d_8396_326" x="13" y="17" width="54" height="54" filterUnits="userSpaceOnUse" color-interpolation-filters="sRGB">
<feFlood flood-opacity="0" result="BackgroundImageFix"/>
<feColorMatrix in="SourceAlpha" type="matrix" values="0 0 0 0 0 0 0 0 0 0 0 0 0 0 0 0 0 0 127 0" result="hardAlpha"/>
<feOffset dy="4"/>
<feGaussianBlur stdDeviation="4"/>
<feComposite in2="hardAlpha" operator="out"/>
<feColorMatrix type="matrix" values="0 0 0 0 0.027451 0 0 0 0 0.572549 0 0 0 0 1 0 0 0 0.25 0"/>
<feBlend mode="normal" in2="BackgroundImageFix" result="effect1_dropShadow_8396_326"/>
<feBlend mode="normal" in="SourceGraphic" in2="effect1_dropShadow_8396_326" result="shape"/>
</filter>
</defs>
</svg>
