<svg width="60" height="58" viewBox="0 0 60 58" fill="none" xmlns="http://www.w3.org/2000/svg">
<rect width="59.8705" height="57.8705" rx="21" fill="#EAF4FF"/>
<g filter="url(#filter0_d_1282_113)">
<path d="M16.8125 29.3838V40.1977C16.8125 41.1926 17.6263 42 18.625 42H27.6875V29.3838H16.8125Z" fill="#0792FF"/>
<path d="M42.1875 22.1746H36.4528C36.8642 21.8952 37.2176 21.6176 37.4641 21.3689C38.9268 19.9072 38.9268 17.5282 37.4641 16.0665C36.0431 14.6427 33.5673 14.6463 32.1481 16.0665C31.3614 16.8505 29.2771 20.0424 29.5653 22.1746H29.4348C29.7211 20.0424 27.6368 16.8505 26.8519 16.0665C25.4309 14.6463 22.9551 14.6463 21.5359 16.0665C20.075 17.5282 20.075 19.9072 21.5341 21.3689C21.7824 21.6176 22.1358 21.8952 22.5473 22.1746H16.8125C15.8138 22.1746 15 22.9838 15 23.9769V26.6803C15 27.1778 15.406 27.5815 15.9062 27.5815H27.6875V23.9769H31.3125V27.5815H43.0938C43.594 27.5815 44 27.1778 44 26.6803V23.9769C44 22.9838 43.188 22.1746 42.1875 22.1746ZM27.5806 22.1151C27.5806 22.1151 27.5044 22.1746 27.2453 22.1746C25.9928 22.1746 23.6021 20.8805 22.8209 20.0983C22.0615 19.3377 22.0615 18.0977 22.8209 17.3371C23.1889 16.9695 23.6764 16.7676 24.1948 16.7676C24.7114 16.7676 25.1989 16.9695 25.5669 17.3371C26.7885 18.5591 28.0029 21.6807 27.5806 22.1151ZM31.7529 22.1746C31.4956 22.1746 31.4194 22.1169 31.4194 22.1151C30.9971 21.6807 32.2115 18.5591 33.4331 17.3371C34.1636 16.6036 35.4414 16.6 36.1791 17.3371C36.9403 18.0977 36.9403 19.3377 36.1791 20.0983C35.3979 20.8805 33.0072 22.1746 31.7529 22.1746Z" fill="#0792FF"/>
<path d="M31.3125 29.3838V42H40.375C41.3755 42 42.1875 41.1926 42.1875 40.1977V29.3838H31.3125Z" fill="#0792FF"/>
</g>
<defs>
<filter id="filter0_d_1282_113" x="7" y="11" width="45" height="43" filterUnits="userSpaceOnUse" color-interpolation-filters="sRGB">
<feFlood flood-opacity="0" result="BackgroundImageFix"/>
<feColorMatrix in="SourceAlpha" type="matrix" values="0 0 0 0 0 0 0 0 0 0 0 0 0 0 0 0 0 0 127 0" result="hardAlpha"/>
<feOffset dy="4"/>
<feGaussianBlur stdDeviation="4"/>
<feComposite in2="hardAlpha" operator="out"/>
<feColorMatrix type="matrix" values="0 0 0 0 0.027451 0 0 0 0 0.572549 0 0 0 0 1 0 0 0 0.25 0"/>
<feBlend mode="normal" in2="BackgroundImageFix" result="effect1_dropShadow_1282_113"/>
<feBlend mode="normal" in="SourceGraphic" in2="effect1_dropShadow_1282_113" result="shape"/>
</filter>
</defs>
</svg>
