<svg width="60" height="58" viewBox="0 0 60 58" fill="none" xmlns="http://www.w3.org/2000/svg">
<g clip-path="url(#clip0_1282_92)">
<rect width="59.8705" height="57.8705" rx="21" fill="#EAF4FF"/>
<g filter="url(#filter0_d_1282_92)">
<path fill-rule="evenodd" clip-rule="evenodd" d="M31.1873 12.4404C30.4559 11.8532 29.4146 11.8532 28.6832 12.4404L26.7627 13.9822C26.3253 14.3333 25.7605 14.4846 25.2062 14.3992L22.7721 14.0243C21.8451 13.8814 20.9433 14.4021 20.6035 15.2763L19.7112 17.5717C19.508 18.0946 19.0946 18.508 18.5717 18.7112L16.2763 19.6035C15.4021 19.9433 14.8814 20.8451 15.0243 21.7721L15.3992 24.2062C15.4846 24.7605 15.3333 25.3253 14.9822 25.7627L13.4404 27.6832C12.8532 28.4146 12.8532 29.4559 13.4404 30.1873L14.9822 32.1077C15.3333 32.5451 15.4846 33.1099 15.3992 33.6643L15.0243 36.0983C14.8814 37.0254 15.4021 37.9271 16.2763 38.267L18.5717 39.1592C19.0946 39.3625 19.508 39.7759 19.7112 40.2987L20.6035 42.5941C20.9433 43.4684 21.8451 43.989 22.7721 43.8462L25.2062 43.4712C25.7605 43.3858 26.3253 43.5372 26.7627 43.8883L28.6832 45.4301C29.4146 46.0173 30.4559 46.0173 31.1873 45.4301L33.1077 43.8883C33.5451 43.5372 34.1099 43.3858 34.6643 43.4712L37.0983 43.8462C38.0254 43.989 38.9271 43.4684 39.267 42.5941L40.1592 40.2987C40.3625 39.7759 40.7759 39.3625 41.2987 39.1592L43.5941 38.267C44.4684 37.9271 44.989 37.0254 44.8462 36.0983L44.4712 33.6643C44.3858 33.1099 44.5372 32.5451 44.8883 32.1077L46.4301 30.1873C47.0173 29.4559 47.0173 28.4146 46.4301 27.6832L44.8883 25.7627C44.5372 25.3253 44.3858 24.7605 44.4712 24.2062L44.8462 21.7721C44.989 20.8451 44.4684 19.9433 43.5941 19.6035L41.2987 18.7112C40.7759 18.508 40.3625 18.0946 40.1592 17.5717L39.267 15.2763C38.9271 14.4021 38.0254 13.8814 37.0983 14.0243L34.6643 14.3992C34.1099 14.4846 33.5451 14.3333 33.1077 13.9822L31.1873 12.4404ZM30 41C36.6274 41 42 35.6274 42 29C42 22.3726 36.6274 17 30 17C23.3726 17 18 22.3726 18 29C18 35.6274 23.3726 41 30 41Z" fill="#0792FF"/>
<path fill-rule="evenodd" clip-rule="evenodd" d="M30 39C35.5228 39 40 34.5228 40 29C40 23.4772 35.5228 19 30 19C24.4772 19 20 23.4772 20 29C20 34.5228 24.4772 39 30 39ZM35.7215 26.053C36.0627 25.6188 35.9873 24.9901 35.553 24.6489C35.1187 24.3077 34.4901 24.3831 34.1489 24.8174L29.2636 31.0349L25.5491 28.1459C25.1132 27.8068 24.4849 27.8853 24.1458 28.3213C23.8068 28.7572 23.8853 29.3855 24.3212 29.7246L28.8212 33.2246L29.6067 33.8355L30.2215 33.053L35.7215 26.053Z" fill="#0792FF"/>
</g>
</g>
<defs>
<filter id="filter0_d_1282_92" x="5" y="8" width="49.8705" height="49.8704" filterUnits="userSpaceOnUse" color-interpolation-filters="sRGB">
<feFlood flood-opacity="0" result="BackgroundImageFix"/>
<feColorMatrix in="SourceAlpha" type="matrix" values="0 0 0 0 0 0 0 0 0 0 0 0 0 0 0 0 0 0 127 0" result="hardAlpha"/>
<feOffset dy="4"/>
<feGaussianBlur stdDeviation="4"/>
<feComposite in2="hardAlpha" operator="out"/>
<feColorMatrix type="matrix" values="0 0 0 0 0.027451 0 0 0 0 0.572549 0 0 0 0 1 0 0 0 0.25 0"/>
<feBlend mode="normal" in2="BackgroundImageFix" result="effect1_dropShadow_1282_92"/>
<feBlend mode="normal" in="SourceGraphic" in2="effect1_dropShadow_1282_92" result="shape"/>
</filter>
<clipPath id="clip0_1282_92">
<rect width="59.8705" height="57.8705" rx="21" fill="white"/>
</clipPath>
</defs>
</svg>
