<svg width="60" height="58" viewBox="0 0 60 58" fill="none" xmlns="http://www.w3.org/2000/svg">
<g clip-path="url(#clip0_1282_108)">
<rect width="59.8705" height="57.8705" rx="21" fill="#EAF4FF"/>
<g filter="url(#filter0_d_1282_108)">
<path d="M29.5 36.2083C33.7572 36.2083 37.2083 32.7572 37.2083 28.5C37.2083 24.2428 33.7572 20.7917 29.5 20.7917C25.2428 20.7917 21.7917 24.2428 21.7917 28.5C21.7917 32.7572 25.2428 36.2083 29.5 36.2083Z" fill="#0792FF"/>
<path d="M46.4583 26.9583H44.838C44.1135 19.6863 38.3137 13.8865 31.0417 13.162V11.5417C31.0417 11.1328 30.8792 10.7407 30.5901 10.4515C30.301 10.1624 29.9089 10 29.5 10C29.0911 10 28.699 10.1624 28.4099 10.4515C28.1208 10.7407 27.9583 11.1328 27.9583 11.5417V13.162C20.6863 13.8865 14.8865 19.6863 14.162 26.9583H12.5417C12.1328 26.9583 11.7407 27.1208 11.4515 27.4099C11.1624 27.699 11 28.0911 11 28.5C11 28.9089 11.1624 29.301 11.4515 29.5901C11.7407 29.8792 12.1328 30.0417 12.5417 30.0417H14.162C14.8881 37.3137 20.6863 43.1135 27.9583 43.838V45.4583C27.9583 45.8672 28.1208 46.2593 28.4099 46.5485C28.699 46.8376 29.0911 47 29.5 47C29.9089 47 30.301 46.8376 30.5901 46.5485C30.8792 46.2593 31.0417 45.8672 31.0417 45.4583V43.838C38.3137 43.1119 44.1135 37.3137 44.838 30.0417H46.4583C46.8672 30.0417 47.2593 29.8792 47.5485 29.5901C47.8376 29.301 48 28.9089 48 28.5C48 28.0911 47.8376 27.699 47.5485 27.4099C47.2593 27.1208 46.8672 26.9583 46.4583 26.9583ZM31.0201 40.73C30.9646 39.9299 30.3155 39.2917 29.5 39.2917C28.6845 39.2917 28.0354 39.9299 27.9799 40.73C25.2591 40.3881 22.7297 39.1499 20.7907 37.2109C18.8516 35.2719 17.6135 32.7424 17.2715 30.0216C18.0716 29.9646 18.7083 29.314 18.7083 28.5C18.7083 27.686 18.0716 27.0354 17.27 26.9799C17.6119 24.2591 18.8501 21.7297 20.7891 19.7907C22.7281 17.8516 25.2576 16.6135 27.9784 16.2715C28.0354 17.0701 28.6845 17.7083 29.5 17.7083C30.3155 17.7083 30.9646 17.0701 31.0201 16.27C33.7409 16.6119 36.2703 17.8501 38.2093 19.7891C40.1484 21.7281 41.3865 24.2576 41.7285 26.9784C40.9284 27.0354 40.2917 27.686 40.2917 28.5C40.2917 29.314 40.9284 29.9646 41.73 30.0201C41.3876 32.7411 40.1491 35.2706 38.2098 37.2098C36.2706 39.1491 33.7411 40.3876 31.0201 40.73Z" fill="#0792FF"/>
</g>
</g>
<defs>
<filter id="filter0_d_1282_108" x="3" y="6" width="53" height="53" filterUnits="userSpaceOnUse" color-interpolation-filters="sRGB">
<feFlood flood-opacity="0" result="BackgroundImageFix"/>
<feColorMatrix in="SourceAlpha" type="matrix" values="0 0 0 0 0 0 0 0 0 0 0 0 0 0 0 0 0 0 127 0" result="hardAlpha"/>
<feOffset dy="4"/>
<feGaussianBlur stdDeviation="4"/>
<feComposite in2="hardAlpha" operator="out"/>
<feColorMatrix type="matrix" values="0 0 0 0 0.027451 0 0 0 0 0.572549 0 0 0 0 1 0 0 0 0.25 0"/>
<feBlend mode="normal" in2="BackgroundImageFix" result="effect1_dropShadow_1282_108"/>
<feBlend mode="normal" in="SourceGraphic" in2="effect1_dropShadow_1282_108" result="shape"/>
</filter>
<clipPath id="clip0_1282_108">
<rect width="59.8705" height="57.8705" rx="21" fill="white"/>
</clipPath>
</defs>
</svg>
