<svg width="60" height="60" viewBox="0 0 60 60" fill="none" xmlns="http://www.w3.org/2000/svg">
<rect width="60" height="60" rx="21" fill="#EAF4FF"/>
<g filter="url(#filter0_d_3018_83)">
<path d="M45.0331 44.0664H13.9668C13.4324 44.0664 13 44.4988 13 45.0332C13 45.5676 13.4324 46 13.9668 46H45.0331C45.5675 46 45.9999 45.5676 45.9999 45.0332C45.9999 44.4988 45.5675 44.0664 45.0331 44.0664ZM21.83 34.3984H15.9004C15.366 34.3984 14.9336 34.8309 14.9336 35.3652V42.1328H22.7968V35.3652C22.7968 34.8309 22.3644 34.3984 21.83 34.3984ZM31.498 28.5976H25.6972C25.1628 28.5976 24.7304 29.03 24.7304 29.5644V42.1328H32.4647V29.5644C32.4648 29.03 32.0323 28.5976 31.498 28.5976Z" fill="#0792FF"/>
<path d="M45.7166 21.0176L38.9491 13.2832C38.5714 12.9056 37.9596 12.9056 37.582 13.2832L30.8144 21.0176C30.679 21.1527 30.5868 21.325 30.5495 21.5126C30.5122 21.7002 30.5314 21.8946 30.6048 22.0713C30.6778 22.248 30.8017 22.399 30.9607 22.5052C31.1197 22.6115 31.3067 22.6681 31.4979 22.668H34.3983V42.1328H42.1327V22.668H45.0331C45.2243 22.6681 45.4113 22.6115 45.5703 22.5052C45.7293 22.399 45.8531 22.248 45.9262 22.0713C45.9995 21.8946 46.0188 21.7002 45.9814 21.5126C45.9441 21.325 45.852 21.1527 45.7166 21.0176Z" fill="#0792FF"/>
</g>
<defs>
<filter id="filter0_d_3018_83" x="5" y="9" width="49" height="49" filterUnits="userSpaceOnUse" color-interpolation-filters="sRGB">
<feFlood flood-opacity="0" result="BackgroundImageFix"/>
<feColorMatrix in="SourceAlpha" type="matrix" values="0 0 0 0 0 0 0 0 0 0 0 0 0 0 0 0 0 0 127 0" result="hardAlpha"/>
<feOffset dy="4"/>
<feGaussianBlur stdDeviation="4"/>
<feComposite in2="hardAlpha" operator="out"/>
<feColorMatrix type="matrix" values="0 0 0 0 0.027451 0 0 0 0 0.572549 0 0 0 0 1 0 0 0 0.25 0"/>
<feBlend mode="normal" in2="BackgroundImageFix" result="effect1_dropShadow_3018_83"/>
<feBlend mode="normal" in="SourceGraphic" in2="effect1_dropShadow_3018_83" result="shape"/>
</filter>
</defs>
</svg>
