<svg width="60" height="60" viewBox="0 0 60 60" fill="none" xmlns="http://www.w3.org/2000/svg">
<rect width="60" height="60" rx="21" fill="#EAF4FF"/>
<g filter="url(#filter0_d_3018_85)">
<path d="M14.2978 24.7755C14.4818 25.4128 14.7371 26.0273 15.06 26.6038L14.1401 27.7759C13.8397 28.159 13.8735 28.7053 14.2114 29.0504L15.7959 30.6512C16.1376 30.9964 16.6783 31.0267 17.0575 30.7232L18.2101 29.8015C18.8034 30.1467 19.4342 30.416 20.0912 30.6056L20.2639 32.1039C20.3203 32.5895 20.7258 32.9536 21.2064 32.9536H23.4479C23.9285 32.9536 24.334 32.5894 24.3903 32.1039L24.5555 30.6587C25.2614 30.4729 25.9372 30.196 26.5717 29.8356L27.6869 30.727C28.0661 31.0305 28.6068 30.9963 28.9484 30.6549L30.5329 29.0542C30.8746 28.709 30.9046 28.1628 30.6042 27.7797L29.7369 26.6683C30.0974 26.0386 30.379 25.3672 30.5667 24.6655L31.9033 24.51C32.384 24.4531 32.7444 24.0434 32.7444 23.5579V21.2933C32.7444 20.8078 32.3839 20.3981 31.9033 20.3412L30.5855 20.1857C30.4052 19.4916 30.1349 18.8277 29.7895 18.2057L30.6005 17.1701C30.9009 16.787 30.8671 16.2408 30.5292 15.8956L28.9485 14.2987C28.6068 13.9535 28.0661 13.9231 27.6869 14.2266L26.6919 15.0232C26.0461 14.6401 25.3552 14.348 24.6306 14.1507L24.4804 12.8497C24.4241 12.3641 24.0186 12 23.538 12H21.2965C20.8159 12 20.4104 12.3641 20.3541 12.8497L20.2039 14.1507C19.4605 14.3518 18.7509 14.6552 18.09 15.0535L17.0575 14.2266C16.6783 13.9231 16.1376 13.9573 15.7959 14.2987L14.2115 15.8994C13.8698 16.2446 13.8398 16.7908 14.1401 17.1739L15.0037 18.2777C14.6583 18.9074 14.3955 19.5788 14.2228 20.2767L12.841 20.4361C12.3604 20.493 12 20.9026 12 21.3882V23.6527C12 24.1382 12.3604 24.5479 12.841 24.6048L14.2978 24.7755ZM22.4191 18.6495C24.4616 18.6495 26.1249 20.3299 26.1249 22.3934C26.1249 24.4569 24.4616 26.1373 22.4191 26.1373C20.3766 26.1373 18.7133 24.4569 18.7133 22.3934C18.7133 20.3299 20.3766 18.6495 22.4191 18.6495Z" fill="#0792FF"/>
<path d="M44.579 25.3331L43.3963 24.3241C43.0321 24.0131 42.4952 24.0283 42.1498 24.3583L41.4965 24.9766C40.9446 24.7072 40.3589 24.5176 39.7543 24.4076L39.5704 23.4972C39.4766 23.0269 39.0448 22.7006 38.5716 22.7386L37.0284 22.8713C36.5554 22.9131 36.1836 23.3038 36.1686 23.7855L36.1386 24.711C35.5454 24.9272 34.9859 25.2231 34.4753 25.5948L33.6944 25.0714C33.2963 24.8059 32.7669 24.8817 32.4591 25.2497L31.4603 26.4521C31.1524 26.82 31.1674 27.3625 31.4941 27.7114L32.1774 28.4473C31.9409 28.9859 31.7719 29.5511 31.6743 30.1315L30.6981 30.3325C30.2325 30.4273 29.9096 30.8636 29.9472 31.3415L30.0786 32.9005C30.1199 33.3785 30.5066 33.754 30.9835 33.7692L32.0385 33.8033C32.2301 34.3116 32.4816 34.7933 32.7857 35.2447L32.1963 36.1437C31.9334 36.5458 32.0085 37.0806 32.3727 37.3916L33.5554 38.4006C33.9196 38.7117 34.4565 38.6965 34.802 38.3665L35.5754 37.6344C36.0823 37.8734 36.6154 38.0517 37.1636 38.1579L37.3777 39.2275C37.4715 39.6979 37.9033 40.0241 38.3764 39.9862L39.9196 39.8534C40.3926 39.8117 40.7644 39.421 40.7794 38.9393L40.8132 37.8923C41.3764 37.6913 41.9095 37.4182 42.4013 37.0806L43.2537 37.6496C43.6517 37.9151 44.181 37.8392 44.489 37.4713L45.4877 36.2764C45.7955 35.9085 45.7805 35.3661 45.4539 35.0171L44.7668 34.2813C45.0184 33.7426 45.2024 33.1736 45.3074 32.5895L46.2461 32.396C46.7117 32.3012 47.0346 31.865 46.997 31.387L46.8656 29.828C46.8243 29.35 46.4376 28.9745 45.9608 28.9593L45.0183 28.929C44.8231 28.3752 44.5602 27.8518 44.2336 27.3662L44.748 26.5848C45.0183 26.1828 44.9432 25.6442 44.579 25.3331ZM38.7631 34.3457C37.0961 34.4899 35.6242 33.2343 35.4853 31.5502C35.3426 29.866 36.5854 28.379 38.2524 28.2387C39.9195 28.0945 41.3914 29.3501 41.5303 31.0342C41.673 32.7185 40.4301 34.2054 38.7631 34.3457Z" fill="#0792FF"/>
<path d="M19.697 38.541C19.2239 38.5903 18.8597 38.9924 18.8559 39.4741L18.8447 40.4338C18.8372 40.9156 19.1901 41.3252 19.6632 41.386L20.3616 41.477C20.478 41.9056 20.6432 42.3153 20.8572 42.7022L20.4066 43.2636C20.1062 43.6391 20.1288 44.1777 20.4629 44.5229L21.1275 45.2095C21.4617 45.5547 21.9948 45.5926 22.3741 45.2967L22.9335 44.8605C23.3277 45.0957 23.7445 45.2816 24.18 45.4105L24.2551 46.1388C24.3039 46.6168 24.7019 46.9847 25.1787 46.9885L26.1287 46.9999C26.6055 47.0075 27.011 46.6509 27.0711 46.173L27.1575 45.4826C27.6306 45.365 28.0812 45.1867 28.5091 44.9516L29.0348 45.3802C29.4065 45.6836 29.9397 45.6609 30.2814 45.3233L30.961 44.6519C31.3026 44.3143 31.3402 43.7757 31.0474 43.3926L30.6455 42.8653C30.8934 42.448 31.0849 42.0042 31.2163 41.5376L31.8396 41.4732C32.3126 41.4238 32.6768 41.0218 32.6806 40.54L32.6918 39.5803C32.6994 39.0986 32.3464 38.6889 31.8734 38.6282L31.2651 38.5486C31.1487 38.0858 30.976 37.6382 30.7507 37.221L31.1299 36.7506C31.4303 36.3751 31.4078 35.8364 31.0736 35.4913L30.4091 34.8047C30.0749 34.4595 29.5417 34.4215 29.1625 34.7174L28.7081 35.0702C28.2802 34.8085 27.822 34.6074 27.3415 34.4709L27.2814 33.8754C27.2326 33.3974 26.8346 33.0295 26.3577 33.0257L25.4078 33.0143C24.931 33.0067 24.5255 33.3633 24.4654 33.8412L24.3903 34.433C23.8947 34.5619 23.4178 34.7592 22.9748 35.0171L22.5055 34.6302C22.1338 34.3267 21.6006 34.3495 21.2589 34.6871L20.5755 35.3623C20.2339 35.6999 20.1963 36.2386 20.4892 36.6216L20.8909 37.1451C20.6581 37.5624 20.4742 38.0061 20.354 38.4727L19.697 38.541ZM25.8283 37.4561C27.1913 37.4713 28.2838 38.6055 28.2689 39.9824C28.2538 41.3594 27.1312 42.4631 25.7682 42.448C24.4053 42.4328 23.3127 41.2987 23.3277 39.9217C23.3428 38.5448 24.4654 37.441 25.8283 37.4561Z" fill="#0792FF"/>
</g>
<defs>
<filter id="filter0_d_3018_85" x="4" y="8" width="51" height="51" filterUnits="userSpaceOnUse" color-interpolation-filters="sRGB">
<feFlood flood-opacity="0" result="BackgroundImageFix"/>
<feColorMatrix in="SourceAlpha" type="matrix" values="0 0 0 0 0 0 0 0 0 0 0 0 0 0 0 0 0 0 127 0" result="hardAlpha"/>
<feOffset dy="4"/>
<feGaussianBlur stdDeviation="4"/>
<feComposite in2="hardAlpha" operator="out"/>
<feColorMatrix type="matrix" values="0 0 0 0 0.027451 0 0 0 0 0.572549 0 0 0 0 1 0 0 0 0.25 0"/>
<feBlend mode="normal" in2="BackgroundImageFix" result="effect1_dropShadow_3018_85"/>
<feBlend mode="normal" in="SourceGraphic" in2="effect1_dropShadow_3018_85" result="shape"/>
</filter>
</defs>
</svg>
