<svg width="136" height="32" viewBox="0 0 136 32" fill="none" xmlns="http://www.w3.org/2000/svg">
<path d="M52.3516 21.3633H54.2109V25H51.3125C49.6536 25 48.3411 24.5215 47.375 23.5645C46.418 22.5983 45.9395 21.2767 45.9395 19.5996V13.1602H43.2051V12.2852L49.1797 5.92773H49.959V9.87891H54.1289V13.1602H50.0273V19.0527C50.0273 19.791 50.2279 20.3607 50.6289 20.7617C51.0299 21.1628 51.6042 21.3633 52.3516 21.3633ZM63.8846 9.79688H65.2245V13.6523H63.4608C62.3123 13.6523 61.4875 13.9258 60.9862 14.4727C60.494 15.0104 60.2479 15.8991 60.2479 17.1387V25H56.16V9.87891H58.7713L59.4959 11.7383C60.535 10.444 61.9979 9.79688 63.8846 9.79688ZM78.6989 9.85156H81.7614V24.9727H78.5485L78.193 23.6191C76.8167 24.8223 75.1852 25.4238 73.2985 25.4238C71.8037 25.4238 70.4502 25.0775 69.238 24.3848C68.0257 23.6921 67.0778 22.735 66.3942 21.5137C65.7106 20.2832 65.3688 18.916 65.3688 17.4121C65.3688 15.9173 65.7106 14.5638 66.3942 13.3516C67.0778 12.1302 68.0257 11.1777 69.238 10.4941C70.4502 9.80143 71.8037 9.45508 73.2985 9.45508C75.2217 9.45508 76.876 10.0703 78.2614 11.3008L78.6989 9.85156ZM70.6735 20.3789C71.4574 21.1628 72.4417 21.5547 73.6266 21.5547C74.8115 21.5547 75.7914 21.1628 76.5661 20.3789C77.3499 19.5951 77.7419 18.6061 77.7419 17.4121C77.7419 16.2181 77.3499 15.2292 76.5661 14.4453C75.7914 13.6615 74.8115 13.2695 73.6266 13.2695C72.4417 13.2695 71.4574 13.666 70.6735 14.459C69.8988 15.2428 69.5114 16.2272 69.5114 17.4121C69.5114 18.597 69.8988 19.5859 70.6735 20.3789ZM95.9605 4.42383H100.048V25H97.0269L96.5484 23.7422C95.2085 24.8815 93.6271 25.4512 91.8042 25.4512C89.5165 25.4512 87.6206 24.6901 86.1167 23.168C84.6128 21.6458 83.8609 19.7363 83.8609 17.4395C83.8609 16.3092 84.0614 15.252 84.4624 14.2676C84.8635 13.2741 85.4103 12.4264 86.103 11.7246C86.8049 11.0228 87.648 10.4714 88.6323 10.0703C89.6167 9.66016 90.674 9.45508 91.8042 9.45508C93.3446 9.45508 94.73 9.86979 95.9605 10.6992V4.42383ZM89.1929 20.4062C89.9767 21.1901 90.9611 21.582 92.146 21.582C93.3309 21.582 94.3107 21.1901 95.0855 20.4062C95.8693 19.6133 96.2612 18.6243 96.2612 17.4395C96.2612 16.2546 95.8693 15.2702 95.0855 14.4863C94.3107 13.6934 93.3309 13.2969 92.146 13.2969C90.9611 13.2969 89.9767 13.6888 89.1929 14.4727C88.4182 15.2565 88.0308 16.2454 88.0308 17.4395C88.0308 18.6335 88.4182 19.6224 89.1929 20.4062ZM117.802 17.3848C117.802 17.7949 117.775 18.196 117.72 18.5879H106.277C106.45 19.6178 106.86 20.4108 107.507 20.9668C108.163 21.5137 108.988 21.7871 109.982 21.7871C110.684 21.7871 111.313 21.6322 111.869 21.3223C112.434 21.0124 112.871 20.584 113.181 20.0371H117.474C116.927 21.6868 115.979 22.9993 114.63 23.9746C113.281 24.9408 111.732 25.4238 109.982 25.4238C108.514 25.4238 107.179 25.0775 105.976 24.3848C104.782 23.6829 103.843 22.7214 103.16 21.5C102.476 20.2786 102.134 18.9251 102.134 17.4395C102.134 15.9447 102.471 14.5866 103.146 13.3652C103.829 12.1439 104.768 11.1868 105.962 10.4941C107.165 9.80143 108.505 9.45508 109.982 9.45508C111.495 9.45508 112.853 9.8151 114.056 10.5352C115.259 11.2461 116.184 12.2031 116.831 13.4062C117.479 14.6094 117.802 15.9355 117.802 17.3848ZM109.982 12.9414C109.079 12.9414 108.314 13.1921 107.685 13.6934C107.056 14.1947 106.623 14.8965 106.386 15.7988H113.714C113.432 14.8783 112.967 14.1719 112.32 13.6797C111.682 13.1875 110.902 12.9414 109.982 12.9414ZM132.507 25H127.872L124.878 19.9961L121.816 25H117.318L122.458 17.2344L117.646 9.87891H122.267L124.892 14.2539L127.695 9.87891H132.193L127.312 17.0293L132.507 25Z" fill="#202121"/>
<path fill-rule="evenodd" clip-rule="evenodd" d="M5 3C2.23858 3 0 5.23858 0 8V27C0 29.7614 2.23858 32 5 32H32C34.7614 32 37 29.7614 37 27V8C37 5.23858 34.7614 3 32 3H5ZM17.084 21.2402H10.7129L17.084 10.4395V9.87891H5.20312V13.584H11.0273L4.58789 24.5488V25H17.084V21.2402ZM32.9379 18.5879C32.9926 18.196 33.0199 17.7949 33.0199 17.3848C33.0199 15.9355 32.6964 14.6094 32.0492 13.4062C31.4021 12.2031 30.477 11.2461 29.2738 10.5352C28.0707 9.8151 26.7126 9.45508 25.1996 9.45508C23.723 9.45508 22.3832 9.80143 21.1801 10.4941C19.9861 11.1868 19.0473 12.1439 18.3637 13.3652C17.6892 14.5866 17.352 15.9447 17.352 17.4395C17.352 18.9251 17.6938 20.2786 18.3773 21.5C19.0609 22.7214 19.9997 23.6829 21.1938 24.3848C22.3969 25.0775 23.7322 25.4238 25.1996 25.4238C26.9496 25.4238 28.4991 24.9408 29.848 23.9746C31.197 22.9993 32.1449 21.6868 32.6918 20.0371H28.3988C28.0889 20.584 27.6514 21.0124 27.0863 21.3223C26.5303 21.6322 25.9014 21.7871 25.1996 21.7871C24.2061 21.7871 23.3813 21.5137 22.725 20.9668C22.0779 20.4108 21.6677 19.6178 21.4945 18.5879H32.9379ZM22.9027 13.6934C23.5316 13.1921 24.2973 12.9414 25.1996 12.9414C26.1202 12.9414 26.8995 13.1875 27.5375 13.6797C28.1846 14.1719 28.6495 14.8783 28.932 15.7988H21.6039C21.8409 14.8965 22.2738 14.1947 22.9027 13.6934Z" fill="#0792FF"/>
</svg>
