<svg width="10" height="10" viewBox="0 0 10 10" fill="none" xmlns="http://www.w3.org/2000/svg">
<path d="M4.25176 0.779538L4.74724 0.284058C4.95704 0.0742595 5.29628 0.0742595 5.50385 0.284058L9.84265 4.62063C10.0525 4.83043 10.0525 5.16967 9.84265 5.37724L5.50385 9.71604C5.29405 9.92584 4.9548 9.92584 4.74724 9.71604L4.25176 9.22056C4.03973 9.00853 4.04419 8.66259 4.26069 8.45502L6.95012 5.89281H0.535655C0.238813 5.89281 0 5.65399 0 5.35715V4.64295C0 4.3461 0.238813 4.10729 0.535655 4.10729H6.95012L4.26069 1.54508C4.04196 1.33751 4.0375 0.991568 4.25176 0.779538Z" fill="#0792FF"/>
</svg>
