<svg width="24" height="24" viewBox="0 0 24 24" fill="none" xmlns="http://www.w3.org/2000/svg">
<path fill-rule="evenodd" clip-rule="evenodd" d="M3 12C3 7.02944 7.02944 3 12 3C16.9706 3 21 7.02944 21 12C21 16.9706 16.9706 21 12 21C7.02944 21 3 16.9706 3 12ZM12 1C5.92487 1 1 5.92487 1 12C1 18.0751 5.92487 23 12 23C18.0751 23 23 18.0751 23 12C23 5.92487 18.0751 1 12 1ZM11.3029 6.54541C11.3029 5.99313 10.8552 5.54541 10.3029 5.54541C9.75064 5.54541 9.30292 5.99313 9.30292 6.54541V6.90905H8.36353C7.81124 6.90905 7.36353 7.35676 7.36353 7.90905C7.36353 8.45119 7.79496 8.89258 8.33322 8.9086V12V15.0913C7.79496 15.1073 7.36353 15.5487 7.36353 16.0909C7.36353 16.6431 7.81124 17.0909 8.36353 17.0909H9.30292V17.4545C9.30292 18.0068 9.75064 18.4545 10.3029 18.4545C10.8552 18.4545 11.3029 18.0068 11.3029 17.4545V17.0909H11.7272V17.4545C11.7272 18.0068 12.1749 18.4545 12.7272 18.4545C13.2794 18.4545 13.7272 18.0068 13.7272 17.4545V17.0909H14.4241C15.6459 17.0909 16.6363 16.1005 16.6363 14.8787V13.2121C16.6363 12.3502 16.1434 11.6035 15.4241 11.2384V9.9545V8.90905C15.4241 7.90749 14.6879 7.07789 13.7272 6.93185V6.54541C13.7272 5.99313 13.2794 5.54541 12.7272 5.54541C12.1749 5.54541 11.7272 5.99313 11.7272 6.54541V6.90905H11.3029V6.54541ZM10.3332 11V8.90905H12.7272H13.4241V9.9545V11H13.1514H11.8787H10.3332ZM13.1514 13H13.4241H14.4241C14.5413 13 14.6363 13.0949 14.6363 13.2121V14.8787C14.6363 14.9959 14.5413 15.0909 14.4241 15.0909H12.7272H10.3332V13H11.8787H13.1514Z" fill="#C8CDDC"/>
</svg>
