<svg width="24" height="24" viewBox="0 0 24 24" fill="none" xmlns="http://www.w3.org/2000/svg">
<rect x="1" y="1" width="22" height="22" rx="6" fill="#C8CDDC"/>
<path fill-rule="evenodd" clip-rule="evenodd" d="M12.8661 5.49995C13.1422 5.02167 12.9783 4.41015 12.5001 4.13403C12.0218 3.85789 11.4102 4.02177 11.134 4.50006L10.6341 5.36598L6.63403 12.2943L4.13403 16.6244C3.85789 17.1027 4.02177 17.7143 4.50006 17.9904C4.97835 18.2666 5.58994 18.1027 5.86608 17.6244L7.86608 14.1603L14.7943 18.1603C15.7509 18.7126 16.9741 18.3848 17.5263 17.4283L20.5264 12.232C21.0787 11.2754 20.7509 10.0522 19.7943 9.49995L12.8661 5.49995ZM12.3301 14.4282L15.7943 16.4283L17.2943 13.8301L13.8301 11.83L15.3301 9.23191L11.8661 7.232L10.3661 9.83016L13.8301 11.8301L12.3301 14.4282Z" fill="white"/>
</svg>
