<svg width="24" height="24" viewBox="0 0 24 24" fill="none" xmlns="http://www.w3.org/2000/svg">
<path fill-rule="evenodd" clip-rule="evenodd" d="M5 5H19C20.1046 5 21 5.89543 21 7V17C21 18.1046 20.1046 19 19 19H5C3.89543 19 3 18.1046 3 17V7C3 5.89543 3.89543 5 5 5ZM1 7C1 4.79086 2.79086 3 5 3H19C21.2091 3 23 4.79086 23 7V17C23 19.2091 21.2091 21 19 21H5C2.79086 21 1 19.2091 1 17V7ZM13.848 7.47C13.5553 7.00166 12.9383 6.85929 12.47 7.152C12.0017 7.44471 11.8593 8.06166 12.152 8.53L14.3208 12L12.152 15.47C11.8593 15.9383 12.0017 16.5553 12.47 16.848C12.9383 17.1407 13.5553 16.9983 13.848 16.53L15.5 13.8868L17.152 16.53C17.4447 16.9983 18.0617 17.1407 18.53 16.848C18.9983 16.5553 19.1407 15.9383 18.848 15.47L16.6792 12L18.848 8.53C19.1407 8.06166 18.9983 7.44471 18.53 7.152C18.0617 6.85929 17.4447 7.00166 17.152 7.47L15.5 10.1132L13.848 7.47ZM7 7C5.89543 7 5 7.89543 5 9V12V16C5 16.5523 5.44772 17 6 17C6.55228 17 7 16.5523 7 16V13H9C9.55228 13 10 12.5523 10 12C10 11.4477 9.55228 11 9 11H7V9H10.5C11.0523 9 11.5 8.55228 11.5 8C11.5 7.44772 11.0523 7 10.5 7H7Z" fill="#C8CDDC"/>
</svg>
