<svg width="51" height="13" viewBox="0 0 51 13" fill="none" xmlns="http://www.w3.org/2000/svg">
<rect width="51" height="13" rx="4" fill="#5607FF"/>
<path d="M5.83132 3.45455L5.83132 10H4.6456L4.6456 3.45455L5.83132 3.45455ZM7.06419 10L7.06419 5.09091H8.17001V5.92507H8.22754C8.32981 5.64382 8.4992 5.42436 8.73571 5.26669C8.97221 5.10689 9.25453 5.02699 9.58265 5.02699C9.91504 5.02699 10.1952 5.10795 10.4232 5.26989C10.6533 5.42969 10.8153 5.64808 10.909 5.92507H10.9601C11.0688 5.65234 11.252 5.43501 11.5099 5.27308C11.7698 5.10902 12.0777 5.02699 12.4335 5.02699C12.8852 5.02699 13.2538 5.16974 13.5393 5.45526C13.8248 5.74077 13.9676 6.15732 13.9676 6.7049V10H12.8074V6.88388C12.8074 6.57919 12.7265 6.35653 12.5645 6.21591C12.4026 6.07315 12.2045 6.00178 11.9701 6.00178C11.691 6.00178 11.4726 6.08913 11.3149 6.26385C11.1594 6.43643 11.0816 6.66122 11.0816 6.93821L11.0816 10H9.947L9.947 6.83594C9.947 6.58239 9.87029 6.37997 9.71689 6.22869C9.56561 6.07741 9.36745 6.00178 9.12243 6.00178C8.95623 6.00178 8.80495 6.04439 8.66859 6.12962C8.53223 6.21271 8.42356 6.33097 8.3426 6.48438C8.26163 6.63565 8.22115 6.8125 8.22115 7.01491L8.22115 10H7.06419ZM15.1413 11.8409L15.1413 5.09091H16.2791V5.9027H16.3462C16.4059 5.78338 16.4901 5.6566 16.5987 5.52237C16.7074 5.38601 16.8544 5.26989 17.0398 5.17401C17.2251 5.07599 17.4616 5.02699 17.7493 5.02699C18.1286 5.02699 18.4705 5.12393 18.7752 5.31783C19.082 5.50959 19.3249 5.79403 19.5039 6.17116C19.685 6.54616 19.7756 7.00639 19.7756 7.55185C19.7756 8.09091 19.6871 8.54901 19.5103 8.92614C19.3335 9.30327 19.0927 9.59091 18.788 9.78906C18.4833 9.98722 18.1381 10.0863 17.7525 10.0863C17.4712 10.0863 17.2379 10.0394 17.0526 9.94567C16.8672 9.85192 16.718 9.73899 16.6051 9.60689C16.4943 9.47266 16.408 9.34588 16.3462 9.22656H16.2983V11.8409H15.1413ZM16.2759 7.54545C16.2759 7.86293 16.3207 8.14098 16.4102 8.37962C16.5018 8.61825 16.6328 8.80469 16.8033 8.93892C16.9759 9.07102 17.1847 9.13707 17.4297 9.13707C17.6854 9.13707 17.8995 9.06889 18.0721 8.93253C18.2447 8.79403 18.3746 8.60547 18.462 8.36683C18.5515 8.12607 18.5962 7.85227 18.5962 7.54545C18.5962 7.24077 18.5526 6.97017 18.4652 6.73366C18.3778 6.49716 18.2479 6.31179 18.0753 6.17756C17.9027 6.04332 17.6875 5.97621 17.4297 5.97621C17.1825 5.97621 16.9727 6.04119 16.8001 6.17116C16.6275 6.30114 16.4964 6.48331 16.407 6.71768C16.3196 6.95206 16.2759 7.22798 16.2759 7.54545ZM22.9077 10.0959C22.4283 10.0959 22.0128 9.99041 21.6612 9.77947C21.3097 9.56854 21.0369 9.27344 20.843 8.89418C20.6513 8.51491 20.5554 8.07173 20.5554 7.56463C20.5554 7.05753 20.6513 6.61328 20.843 6.23189C21.0369 5.8505 21.3097 5.55433 21.6612 5.34339C22.0128 5.13246 22.4283 5.02699 22.9077 5.02699C23.3871 5.02699 23.8026 5.13246 24.1541 5.34339C24.5057 5.55433 24.7773 5.8505 24.9691 6.23189C25.163 6.61328 25.2599 7.05753 25.2599 7.56463C25.2599 8.07173 25.163 8.51491 24.9691 8.89418C24.7773 9.27344 24.5057 9.56854 24.1541 9.77947C23.8026 9.99041 23.3871 10.0959 22.9077 10.0959ZM22.9141 9.16903C23.174 9.16903 23.3913 9.09766 23.5661 8.9549C23.7408 8.81001 23.8707 8.61612 23.956 8.37322C24.0433 8.13033 24.087 7.85973 24.087 7.56143C24.087 7.26101 24.0433 6.98935 23.956 6.74645C23.8707 6.50142 23.7408 6.30646 23.5661 6.16158C23.3913 6.01669 23.174 5.94425 22.9141 5.94425C22.6477 5.94425 22.4261 6.01669 22.2493 6.16158C22.0746 6.30646 21.9435 6.50142 21.8562 6.74645C21.771 6.98935 21.7283 7.26101 21.7283 7.56143C21.7283 7.85973 21.771 8.13033 21.8562 8.37322C21.9435 8.61612 22.0746 8.81001 22.2493 8.9549C22.4261 9.09766 22.6477 9.16903 22.9141 9.16903ZM26.2419 10V5.09091H27.3637V5.90909H27.4149C27.5044 5.62571 27.6578 5.40732 27.8751 5.25391C28.0945 5.09837 28.3449 5.0206 28.6262 5.0206C28.6901 5.0206 28.7615 5.02379 28.8403 5.03018C28.9213 5.03445 28.9884 5.0419 29.0416 5.05256V6.11683C28.9926 6.09979 28.9149 6.08487 28.8083 6.07209C28.7039 6.05717 28.6027 6.04972 28.5047 6.04972C28.2938 6.04972 28.1041 6.09553 27.9358 6.18714C27.7696 6.27663 27.6386 6.40128 27.5427 6.56108C27.4468 6.72088 27.3989 6.90518 27.3989 7.11399V10H26.2419ZM32.5253 5.09091V5.9858H29.7032V5.09091H32.5253ZM30.3999 3.91477H31.5569V8.52344C31.5569 8.67898 31.5803 8.7983 31.6272 8.88139C31.6762 8.96236 31.7401 9.01776 31.819 9.04759C31.8978 9.07741 31.9852 9.09233 32.0811 9.09233C32.1535 9.09233 32.2195 9.087 32.2792 9.07635C32.341 9.0657 32.3879 9.05611 32.4198 9.04759L32.6148 9.95206C32.553 9.97337 32.4646 9.9968 32.3495 10.0224C32.2366 10.0479 32.0981 10.0629 31.934 10.0671C31.6443 10.0756 31.3833 10.032 31.151 9.93608C30.9188 9.83807 30.7345 9.68679 30.5981 9.48224C30.4639 9.2777 30.3978 9.02202 30.3999 8.7152V3.91477ZM34.9055 10.0991C34.5945 10.0991 34.3143 10.0437 34.065 9.93288C33.8178 9.81996 33.6218 9.65376 33.4769 9.4343C33.3342 9.21484 33.2628 8.94425 33.2628 8.62251C33.2628 8.34553 33.3139 8.11648 33.4162 7.93537C33.5185 7.75426 33.658 7.60938 33.8349 7.50071C34.0117 7.39205 34.2109 7.31001 34.4325 7.25462C34.6563 7.19709 34.8874 7.15554 35.1261 7.12997C35.4137 7.10014 35.647 7.07351 35.826 7.05007C36.005 7.0245 36.1349 6.98615 36.2159 6.93501C36.299 6.88175 36.3406 6.79972 36.3406 6.68892V6.66974C36.3406 6.42898 36.2692 6.24254 36.1264 6.11044C35.9837 5.97834 35.7781 5.91229 35.5096 5.91229C35.2262 5.91229 35.0014 5.97408 34.8352 6.09766C34.6712 6.22124 34.5604 6.36719 34.5028 6.53551L33.4226 6.3821C33.5078 6.08381 33.6484 5.83452 33.8445 5.63423C34.0405 5.43182 34.2802 5.28054 34.5636 5.1804C34.8469 5.07813 35.1602 5.02699 35.5032 5.02699C35.7397 5.02699 35.9751 5.05469 36.2095 5.11009C36.4439 5.16548 36.658 5.2571 36.8519 5.38494C37.0458 5.51065 37.2013 5.68217 37.3185 5.8995C37.4379 6.11683 37.4975 6.38849 37.4975 6.71449V10H36.3853V9.32564H36.3469C36.2766 9.462 36.1776 9.58984 36.0497 9.70916C35.924 9.82635 35.7653 9.92116 35.5735 9.99361C35.3839 10.0639 35.1612 10.0991 34.9055 10.0991ZM35.206 9.24893C35.4382 9.24893 35.6396 9.20312 35.81 9.11151C35.9805 9.01776 36.1115 8.89418 36.2031 8.74077C36.2969 8.58736 36.3438 8.4201 36.3438 8.23899V7.66051C36.3075 7.69034 36.2457 7.71804 36.1584 7.74361C36.0732 7.76918 35.9773 7.79155 35.8707 7.81072C35.7642 7.8299 35.6587 7.84695 35.5543 7.86186C35.4499 7.87678 35.3594 7.88956 35.2827 7.90021C35.1101 7.92365 34.9556 7.962 34.8192 8.01527C34.6829 8.06854 34.5753 8.14311 34.4964 8.23899C34.4176 8.33274 34.3782 8.45419 34.3782 8.60334C34.3782 8.81641 34.456 8.97727 34.6115 9.08594C34.767 9.1946 34.9652 9.24893 35.206 9.24893ZM39.8178 7.12358V10H38.6609V5.09091H39.7667V5.92507H39.8242C39.9371 5.65021 40.1172 5.43182 40.3643 5.26989C40.6136 5.10795 40.9215 5.02699 41.288 5.02699C41.6268 5.02699 41.9219 5.09943 42.1733 5.24432C42.4268 5.3892 42.6229 5.59908 42.7614 5.87393C42.902 6.14879 42.9712 6.48224 42.9691 6.87429V10L41.8121 10V7.05327C41.8121 6.72514 41.7269 6.46839 41.5565 6.28303C41.3881 6.09766 41.1548 6.00497 40.8565 6.00497C40.6541 6.00497 40.4741 6.04972 40.3164 6.1392C40.1609 6.22656 40.0384 6.35334 39.9489 6.51953C39.8615 6.68572 39.8178 6.88707 39.8178 7.12358ZM46.5966 5.09091V5.9858L43.7745 5.9858V5.09091L46.5966 5.09091ZM44.4712 3.91477H45.6282V8.52344C45.6282 8.67898 45.6516 8.7983 45.6985 8.88139C45.7475 8.96236 45.8114 9.01776 45.8903 9.04759C45.9691 9.07741 46.0565 9.09233 46.1523 9.09233C46.2248 9.09233 46.2908 9.087 46.3505 9.07635C46.4123 9.0657 46.4592 9.05611 46.4911 9.04759L46.6861 9.95206C46.6243 9.97337 46.5359 9.9968 46.4208 10.0224C46.3079 10.0479 46.1694 10.0629 46.0053 10.0671C45.7156 10.0756 45.4545 10.032 45.2223 9.93608C44.9901 9.83807 44.8058 9.68679 44.6694 9.48224C44.5352 9.2777 44.4691 9.02202 44.4712 8.7152V3.91477Z" fill="white"/>
</svg>
