<svg width="24" height="24" viewBox="0 0 24 24" fill="none" xmlns="http://www.w3.org/2000/svg">
<path d="M16.207 6.89648H19.1036V9.79304" stroke="#C8CDDC" stroke-width="2" stroke-linecap="round" stroke-linejoin="round"/>
<path fill-rule="evenodd" clip-rule="evenodd" d="M5.89648 3C4.23963 3 2.89648 4.34314 2.89648 6V9.7931C2.89648 10.3454 3.3442 10.7931 3.89648 10.7931C4.44877 10.7931 4.89648 10.3454 4.89648 9.7931V6C4.89648 5.44771 5.3442 5 5.89648 5H19.9999C20.5522 5 20.9999 5.44771 20.9999 6V17.2069C20.9999 17.7592 20.5522 18.2069 19.9999 18.2069H5.89648C5.3442 18.2069 4.89648 17.7592 4.89648 17.2069V16.3103C4.89648 15.7581 4.44877 15.3103 3.89648 15.3103C3.3442 15.3103 2.89648 15.7581 2.89648 16.3103V17.2069C2.89648 18.8638 4.23963 20.2069 5.89648 20.2069H19.9999C21.6568 20.2069 22.9999 18.8638 22.9999 17.2069V6C22.9999 4.34315 21.6568 3 19.9999 3H5.89648ZM19.7922 6.17148C20.1926 6.55187 20.2088 7.18483 19.8284 7.58523L12.9491 14.8266C12.7526 15.0335 12.4769 15.1466 12.1916 15.1373C11.9064 15.1281 11.6386 14.9973 11.4559 14.778L8.78244 11.5699L6.94944 14.974C6.81137 15.2305 6.56837 15.4139 6.28395 15.4765C5.99953 15.5392 5.70195 15.4747 5.46897 15.2999L3.26625 13.6479L1.70711 15.207C1.31658 15.5976 0.683417 15.5976 0.292893 15.207C-0.0976311 14.8165 -0.0976311 14.1833 0.292893 13.7928L2.46531 11.6204C2.8172 11.2685 3.37429 11.2289 3.77241 11.5275L5.73939 13.0027L7.72298 9.31894C7.88043 9.02652 8.17278 8.83136 8.50322 8.79807C8.83366 8.76478 9.15906 8.89772 9.37167 9.15285L12.273 12.6345L18.3785 6.20773C18.7588 5.80733 19.3918 5.7911 19.7922 6.17148ZM20 15C20 16.1046 19.1046 17 18 17C16.8954 17 16 16.1046 16 15C16 13.8954 16.8954 13 18 13C19.1046 13 20 13.8954 20 15Z" fill="#C8CDDC"/>
</svg>
