<svg width="24" height="24" viewBox="0 0 24 24" fill="none" xmlns="http://www.w3.org/2000/svg">
<path fill-rule="evenodd" clip-rule="evenodd" d="M8.50386 5C8.07072 5 7.68682 5.27885 7.55288 5.69076L6.41475 9.19076C6.24396 9.71598 6.53128 10.2802 7.05649 10.451C7.5817 10.6218 8.14593 10.3345 8.31671 9.80925L9.23023 7H14.2816L15.1952 9.80928C15.3661 10.3345 15.9303 10.6218 16.4555 10.451C16.9807 10.2802 17.268 9.71593 17.0972 9.19072L15.9589 5.69072C15.8249 5.27883 15.4411 5 15.0079 5H8.50386ZM3.62602 11.5002C3.18293 11.5002 2.79268 11.7918 2.66706 12.2167L1.04104 17.7167C0.95162 18.0192 1.01013 18.3461 1.19891 18.5988C1.38769 18.8515 1.68461 19.0003 2.00001 19.0003H11.7561C12.3084 19.0003 12.7561 18.5525 12.7561 18.0003C12.7561 17.448 12.3084 17.0003 11.7561 17.0003H3.33843L4.37317 13.5002H9.38294L9.98413 15.5338C10.1407 16.0634 10.697 16.3658 11.2266 16.2092C11.7562 16.0526 12.0586 15.4964 11.9021 14.9667L11.0891 12.2167C10.9634 11.7918 10.5732 11.5002 10.1301 11.5002H3.62602ZM13.4634 11.5002C12.9111 11.5002 12.4634 11.948 12.4634 12.5002C12.4634 13.0525 12.9111 13.5002 13.4634 13.5002H19.6268L20.6616 17.0003H14.6829C14.1307 17.0003 13.6829 17.448 13.6829 18.0003C13.6829 18.5525 14.1307 19.0003 14.6829 19.0003H22C22.3154 19.0003 22.6123 18.8515 22.8011 18.5988C22.9899 18.3461 23.0484 18.0192 22.959 17.7167L21.333 12.2167C21.2073 11.7918 20.8171 11.5002 20.374 11.5002H13.4634Z" fill="#C8CDDC"/>
</svg>
