<svg width="24" height="24" viewBox="0 0 24 24" fill="none" xmlns="http://www.w3.org/2000/svg">
<path fill-rule="evenodd" clip-rule="evenodd" d="M11.6074 4.34491C11.9495 4.68529 12.3997 5.15348 12.8829 5.71C13.245 6.12702 13.8766 6.17153 14.2936 5.80943C14.7107 5.44732 14.7552 4.81573 14.3931 4.39871C13.843 3.7652 13.3336 3.23891 12.9576 2.86719C12.2408 2.15851 11.1082 2.12003 10.347 2.78983L11.0075 3.54061L10.347 2.78983C9.42363 3.6022 7.67944 5.24733 6.15847 7.32125C4.65515 9.3711 3.2666 11.9783 3.2666 14.6923C3.2666 19.284 6.95671 23 11.6461 23C16.2587 23 20.4666 19.3575 20.4666 14.6923C20.4666 14.14 20.0189 13.6923 19.4666 13.6923C18.9143 13.6923 18.4666 14.14 18.4666 14.6923C18.4666 18.099 15.3146 21 11.6461 21C8.05435 21 5.2666 18.1725 5.2666 14.6923C5.2666 12.619 6.35224 10.4389 7.77124 8.50403C9.14063 6.6368 10.7248 5.12645 11.6074 4.34491ZM10.0548 10.6679C10.5143 10.9743 10.6385 11.5952 10.3321 12.0547C9.47628 13.3382 9.44746 14.7795 9.86468 15.4977C10.1421 15.9752 9.97987 16.5872 9.50232 16.8647C9.02477 17.1421 8.41275 16.9799 8.13532 16.5023C7.2266 14.9381 7.52368 12.6614 8.66805 10.9452C8.97444 10.4857 9.59532 10.3616 10.0548 10.6679ZM17.5666 13.1333C19.3155 13.1333 20.7332 11.6064 20.7332 9.72299C20.7332 8.03956 19.1584 6.01695 18.2299 4.97071C17.8714 4.56673 17.2617 4.56673 16.9032 4.97071C15.9747 6.01695 14.3999 8.03956 14.3999 9.72299C14.3999 11.6064 15.8177 13.1333 17.5666 13.1333Z" fill="#C8CDDC"/>
</svg>
