<svg width="24" height="24" viewBox="0 0 24 24" fill="none" xmlns="http://www.w3.org/2000/svg">
<path fill-rule="evenodd" clip-rule="evenodd" d="M6 1C4.34315 1 3 2.34315 3 4V19C3 20.6569 4.34314 22 6 22H10.8571C11.4094 22 11.8571 21.5523 11.8571 21C11.8571 20.4477 11.4094 20 10.8571 20H6C5.44771 20 5 19.5523 5 19V4C5 3.44772 5.44772 3 6 3H18C18.5523 3 19 3.44772 19 4V12.5C19 13.0523 19.4477 13.5 20 13.5C20.5523 13.5 21 13.0523 21 12.5V4C21 2.34315 19.6569 1 18 1H6ZM7 6C6.44772 6 6 6.44772 6 7C6 7.55228 6.44772 8 7 8H17C17.5523 8 18 7.55228 18 7C18 6.44772 17.5523 6 17 6H7ZM6 11C6 10.4477 6.44772 10 7 10H17C17.5523 10 18 10.4477 18 11C18 11.5523 17.5523 12 17 12H7C6.44772 12 6 11.5523 6 11ZM7 14C6.44772 14 6 14.4477 6 15C6 15.5523 6.44772 16 7 16H11C11.5523 16 12 15.5523 12 15C12 14.4477 11.5523 14 11 14H7ZM14.0012 19.9507C13.3819 19.3193 13 18.4543 13 17.5C13 15.567 14.567 14 16.5 14C18.433 14 20 15.567 20 17.5C20 18.4543 19.6181 19.3193 18.9988 19.9507C18.9996 19.967 19 19.9835 19 20V22C19 23.1046 18.1046 24 17 24H16.5H16C14.8954 24 14 23.1046 14 22V20C14 19.9835 14.0004 19.967 14.0012 19.9507ZM17 20.9646V22H16.5H16V20.9646C16.1633 20.9879 16.3302 21 16.5 21C16.6698 21 16.8367 20.9879 17 20.9646ZM18 17.5C18 18.3284 17.3284 19 16.5 19C15.6716 19 15 18.3284 15 17.5C15 16.6716 15.6716 16 16.5 16C17.3284 16 18 16.6716 18 17.5Z" fill="#0792FF"/>
</svg>
