
<svg
   width="30"
   height="30"
   fill="#c8cddc"
   fill-rule="evenodd"
   image-rendering="optimizeQuality"
   shape-rendering="geometricPrecision"
   viewBox="0 0 3.3400001 3.7200001"
   version="1.1"
   id="svg12"
   xmlns="http://www.w3.org/2000/svg">
  <defs
     id="defs16" />

  <path
     fill-rule="nonzero"
     d="M 1.66,1.82 A 0.77,0.77 0 0 0 2.21,1.59 L 2.22,1.58 A 0.77,0.77 0 0 0 2.21,0.49 0.731,0.731 0 0 0 1.66,0.26 0.73,0.73 0 0 0 1.11,0.49 a 0.77,0.77 0 0 0 0,1.1 0.77,0.77 0 0 0 0.55,0.23 z M 2.39,1.77 C 2.21,1.97 1.95,2.07 1.66,2.07 1.37,2.07 1.11,1.97 0.93,1.77 0.73,1.57 0.63,1.32 0.63,1.04 A 1.043,1.043 0 0 1 1.67,0 1.043,1.043 0 0 1 2.71,1.04 1.03,1.03 0 0 1 2.41,1.76 L 2.4,1.77 Z M 0.26,3.59 C 0.26,3.66 0.2,3.72 0.13,3.72 0.06,3.72 0,3.66 0,3.59 0,3.22 0.2,2.89 0.5,2.65 0.8,2.42 1.2,2.27 1.67,2.27 c 0.47,0 0.87,0.15 1.17,0.38 0.3,0.24 0.5,0.57 0.5,0.94 0,0.07 -0.06,0.13 -0.13,0.13 C 3.14,3.72 3.08,3.66 3.08,3.59 3.08,3.31 2.92,3.04 2.68,2.85 2.42,2.65 2.06,2.53 1.66,2.53 1.26,2.53 0.9,2.66 0.64,2.85 0.4,3.05 0.24,3.31 0.24,3.59 Z"
     id="path10" />
</svg>
