<svg width="24" height="24" viewBox="0 0 24 24" fill="none" xmlns="http://www.w3.org/2000/svg">
<rect x="1" y="1" width="22" height="22" rx="6" fill="#C8CDDC"/>
<path fill-rule="evenodd" clip-rule="evenodd" d="M15 11.4029V16C15 16.5523 15.4477 17 16 17C16.5523 17 17 16.5523 17 16V9.70144C17 8.20462 15.0483 7.63106 14.2385 8.88991L11.9338 12.4725L9.77665 8.97543C8.98302 7.68887 7 8.25129 7 9.76294V16C7 16.5523 7.44772 17 8 17C8.55228 17 9 16.5523 9 16V11.5259L10.6483 14.198C11.2278 15.1374 12.5893 15.1503 13.1865 14.222L15 11.4029Z" fill="white"/>
</svg>
