<svg width="24" height="24" viewBox="0 0 24 24" fill="none" xmlns="http://www.w3.org/2000/svg">
<rect x="1" y="1" width="22" height="22" rx="6" fill="#0792FF"/>
<path fill-rule="evenodd" clip-rule="evenodd" d="M3.25 10C3.25 9.0335 4.0335 8.25 5 8.25H6.10526C7.56591 8.25 8.75 9.43409 8.75 10.8947C8.75 12.3554 7.56591 13.5395 6.10526 13.5395H4.75V15C4.75 15.4142 4.41421 15.75 4 15.75C3.58579 15.75 3.25 15.4142 3.25 15V12.7895V10ZM4.75 12.0395H6.10526C6.73748 12.0395 7.25 11.527 7.25 10.8947C7.25 10.2625 6.73748 9.75 6.10526 9.75H5C4.86193 9.75 4.75 9.86193 4.75 10V12.0395ZM15.25 11C15.25 9.48122 16.4812 8.25 18 8.25C19.5188 8.25 20.75 9.48122 20.75 11V13C20.75 14.5188 19.5188 15.75 18 15.75C16.4812 15.75 15.25 14.5188 15.25 13V12.7895V11ZM18 9.75C17.3096 9.75 16.75 10.3096 16.75 11V12.7895V13C16.75 13.6904 17.3096 14.25 18 14.25C18.6904 14.25 19.25 13.6904 19.25 13V11C19.25 10.3096 18.6904 9.75 18 9.75ZM11 8.25C10.0335 8.25 9.25 9.0335 9.25 10V12.7895V15C9.25 15.4142 9.58579 15.75 10 15.75C10.4142 15.75 10.75 15.4142 10.75 15V13.5395H11.6672L13.4438 15.5032C13.7217 15.8103 14.196 15.8341 14.5032 15.5562C14.8103 15.2783 14.8341 14.804 14.5562 14.4968L13.3895 13.2073C14.201 12.7557 14.75 11.8893 14.75 10.8947C14.75 9.43409 13.5659 8.25 12.1053 8.25H11ZM12 12.0395H10.75V10C10.75 9.86193 10.8619 9.75 11 9.75H12.1053C12.7375 9.75 13.25 10.2625 13.25 10.8947C13.25 11.527 12.7375 12.0395 12.1053 12.0395H12Z" fill="white"/>
</svg>
