<svg width="24" height="24" viewBox="0 0 24 24" fill="none" xmlns="http://www.w3.org/2000/svg">
<rect x="1" y="1" width="22" height="22" rx="6" fill="#C8CDDC"/>
<path fill-rule="evenodd" clip-rule="evenodd" d="M9.46647 10.1152C9.61148 9.77503 9.78521 9.46732 9.98028 9.19908C10.5677 8.39139 11.2942 8 12 8C12.7058 8 13.4323 8.39139 14.0197 9.19908C14.6064 10.0058 15 11.1696 15 12.5C15 12.6271 14.9964 12.7527 14.9894 12.8767L9.46647 10.1152ZM7.67513 9.21955L7.44719 9.10557C6.95321 8.85858 6.35254 9.05881 6.10555 9.55279C5.85856 10.0468 6.05878 10.6474 6.55276 10.8944L7.10362 11.1699C7.03542 11.6012 6.99997 12.0463 6.99997 12.5C6.99997 14.2072 7.5018 15.7934 8.36281 16.9773C9.22311 18.1602 10.4966 19 12 19C13.5033 19 14.7768 18.1602 15.6371 16.9773C15.9016 16.6136 16.1322 16.2119 16.3248 15.7805L16.5528 15.8944C17.0467 16.1414 17.6474 15.9412 17.8944 15.4472C18.1414 14.9532 17.9412 14.3526 17.4472 14.1056L16.8963 13.8301C16.9645 13.3988 17 12.9537 17 12.5C17 10.7928 16.4982 9.20663 15.6371 8.02274C14.7768 6.83983 13.5033 6 12 6C10.4966 6 9.22311 6.83983 8.36281 8.02274C8.09831 8.38643 7.86771 8.78808 7.67513 9.21955ZM14.5335 14.8848C14.3885 15.225 14.2147 15.5327 14.0197 15.8009C13.4323 16.6086 12.7058 17 12 17C11.2942 17 10.5677 16.6086 9.98028 15.8009C9.39358 14.9942 8.99997 13.8304 8.99997 12.5C8.99997 12.3729 9.00357 12.2473 9.01058 12.1233L14.5335 14.8848Z" fill="white"/>
</svg>
