<svg width="30" height="30" viewBox="0 0 30 30" fill="none" xmlns="http://www.w3.org/2000/svg">
<path d="M21.7151 15.2037C21.6764 12.2791 24.2657 10.9071 24.3817 10.8349C22.9518 8.84907 20.6717 8.59632 19.8987 8.56023C17.9664 8.3797 16.1501 9.60729 15.184 9.60729C14.2178 9.60729 12.7106 8.59632 11.1261 8.59632C9.03926 8.63241 7.10693 9.71561 6.02486 11.4848C3.86067 14.9871 5.48382 20.2224 7.57071 23.0748C8.61415 24.4829 9.85078 26.0355 11.4739 25.9994C13.0197 25.9272 13.6381 25.0606 15.4931 25.0606C17.3868 25.0606 17.8891 25.9994 19.5509 25.9633C21.2127 25.9272 22.2948 24.5551 23.2996 23.147C24.4976 21.5222 24.9614 19.9697 25 19.8614C24.9614 19.8614 21.7151 18.706 21.7151 15.2037Z" fill="#9AA3AD"/>
<path d="M19.8601 3C20.0147 4.37204 19.435 5.70795 18.5848 6.68279C17.7346 7.65767 16.3433 8.41589 14.9134 8.27145C14.7202 6.97164 15.4158 5.59963 16.2274 4.7331C17.1163 3.75822 18.6234 3.03609 19.8601 3Z" fill="#9AA3AD"/>
</svg>
