<svg width="30" height="30" viewBox="0 0 30 30" fill="none" xmlns="http://www.w3.org/2000/svg">
<path d="M28 11C28 15.9705 23.9705 20 19 20C14.0295 20 10 15.9705 10 11C10 11.0021 19 2.00098 19 2C23.9705 2 28 6.02947 28 11Z" fill="#0052B4"/>
<path d="M18.9766 11H19.0006C19.0006 10.9919 19.0006 10.984 19.0006 10.9759C18.9926 10.984 18.9846 10.992 18.9766 11Z" fill="#F0F0F0"/>
<path d="M19 6.69564C19 5.11203 19 4.07439 19 2H18.9985C14.0286 2.00084 10 6.02993 10 11H14.6956V8.35586L17.3398 11H18.976C18.984 10.992 18.992 10.984 19 10.9759C19 10.3696 19 9.82856 19 9.33985L16.3558 6.69564H19Z" fill="#F0F0F0"/>
<path d="M14.5532 3.1739C13.1456 3.97543 11.9754 5.14564 11.1738 6.55326V11H13.5217V5.52181V5.52174H18.9999C18.9999 4.78125 18.9999 4.0758 18.9999 3.1739H14.5532Z" fill="#D80027"/>
<path d="M18.9996 9.89326L15.8021 6.69569C15.8021 6.69569 14.6953 6.69576 14.6953 6.69569V6.69576L18.9996 11H18.9996C18.9996 11 18.9996 10.2369 18.9996 9.89326Z" fill="#D80027"/>
<path d="M25.5866 8.67826L25.7808 9.27613H26.4095L25.9009 9.64562L26.0952 10.2435L25.5866 9.87399L25.078 10.2435L25.2723 9.64562L24.7637 9.27613H25.3923L25.5866 8.67826Z" fill="#D80027"/>
<path d="M23.3379 12.9826L23.6293 13.8794H24.5722L23.8093 14.4336L24.1007 15.3304L23.3379 14.7762L22.575 15.3304L22.8664 14.4336L22.1035 13.8794H23.0464L23.3379 12.9826Z" fill="#D80027"/>
<path d="M23.4231 5.93913L23.666 6.68652H24.4517L23.816 7.1483L24.0588 7.89565L23.4231 7.43373L22.7874 7.89565L23.0302 7.1483L22.3945 6.68652H23.1803L23.4231 5.93913Z" fill="#D80027"/>
<path d="M21.2617 8.65218L21.5531 9.54901H22.496L21.7331 10.1032L22.0246 11L21.2617 10.4458L20.4988 11L20.7902 10.1032L20.0273 9.54901H20.9703L21.2617 8.65218Z" fill="#D80027"/>
<circle cx="11" cy="19" r="9.5" fill="#D9D9D9" stroke="white"/>
<path d="M20 19C20 23.9705 15.9705 28 11 28C6.02947 28 2 23.9705 2 19C2 19.0021 11 10.001 11 10C15.9705 10 20 14.0295 20 19Z" fill="#0052B4"/>
<path d="M10.9996 10C10.9991 10 10.9985 10 10.998 10L10.9996 10Z" fill="#F0F0F0"/>
<path d="M10.9766 19H11.0006C11.0006 18.9918 11.0006 18.984 11.0006 18.9759C10.9926 18.984 10.9846 18.992 10.9766 19Z" fill="#F0F0F0"/>
<path d="M11 14.6957C11 13.1121 11 12.0744 11 10H10.9985C6.02863 10.0008 2 14.0299 2 19H6.69564V16.3558L9.33982 19H10.976C10.984 18.992 10.992 18.984 11 18.9759C11 18.3696 11 17.8286 11 17.3399L8.35583 14.6957H11Z" fill="#F0F0F0"/>
<path d="M6.55319 11.1739C5.14557 11.9754 3.97536 13.1456 3.17383 14.5533V19H5.52167V13.5218L10.9999 13.5217C10.9999 12.7812 10.9999 12.0758 10.9999 11.1739H6.55319Z" fill="#D80027"/>
<path d="M10.9996 17.8932L7.80207 14.6957H6.69531L10.9996 19H10.9996C10.9996 19 10.9996 18.2369 10.9996 17.8932Z" fill="#D80027"/>
<path d="M7.4287 20.5652L7.92264 21.5981L9.03805 21.3403L8.53855 22.3704L9.43552 23.0817L8.31871 23.3334L8.32184 24.4783L7.4287 23.762L6.53559 24.4783L6.53872 23.3334L5.42188 23.0817L6.31889 22.3704L5.81932 21.3403L6.93479 21.5981L7.4287 20.5652Z" fill="#F0F0F0"/>
<path d="M15.4761 22.5217L15.723 23.0382L16.2807 22.9092L16.031 23.4243L16.4795 23.78L15.9211 23.9058L15.9226 24.4783L15.4761 24.1201L15.0295 24.4783L15.031 23.9058L14.4727 23.78L14.9211 23.4243L14.6714 22.9092L15.2291 23.0382L15.4761 22.5217Z" fill="#F0F0F0"/>
<path d="M13.1792 17.0435L13.4261 17.5599L13.9839 17.431L13.7341 17.9461L14.1826 18.3017L13.6242 18.4276L13.6257 19L13.1792 18.6419L12.7327 19L12.7342 18.4276L12.1758 18.3017L12.6243 17.9461L12.3745 17.431L12.9322 17.5599L13.1792 17.0435Z" fill="#F0F0F0"/>
<path d="M15.4761 13.913L15.723 14.4295L16.2807 14.3006L16.031 14.8156L16.4794 15.1713L15.9211 15.2972L15.9226 15.8696L15.4761 15.5115L15.0295 15.8696L15.031 15.2972L14.4727 15.1713L14.9211 14.8156L14.6714 14.3006L15.2291 14.4295L15.4761 13.913Z" fill="#F0F0F0"/>
<path d="M17.4819 16.2609L17.7289 16.7773L18.2866 16.6484L18.0369 17.1634L18.4853 17.5191L17.9269 17.645L17.9285 18.2174L17.4819 17.8593L17.0354 18.2174L17.0369 17.645L16.4785 17.5191L16.927 17.1634L16.6773 16.6484L17.2349 16.7773L17.4819 16.2609Z" fill="#F0F0F0"/>
<path d="M16.0475 19L16.2418 19.5979H16.8704L16.3618 19.9674L16.5561 20.5652L16.0475 20.1957L15.5389 20.5652L15.7332 19.9674L15.2246 19.5979H15.8532L16.0475 19Z" fill="#F0F0F0"/>
</svg>
