<svg width="30" height="30" viewBox="0 0 30 30" fill="none" xmlns="http://www.w3.org/2000/svg">
<circle cx="15" cy="15" r="12" fill="#F7931A"/>
<path d="M20.5667 15.394C20.213 14.9133 19.6793 14.5831 18.9657 14.4037C19.8745 13.9165 20.2739 13.0895 20.1642 11.9227C20.1275 11.4996 20.0163 11.1329 19.8302 10.8221C19.644 10.5112 19.3926 10.2613 19.0753 10.0722C18.7582 9.8829 18.4133 9.73879 18.0414 9.63944C17.6695 9.54009 17.2424 9.46795 16.7606 9.42312V7H15.3518V9.35579C15.1079 9.35579 14.7359 9.36219 14.2358 9.37503V7H12.8269V9.42312C12.6255 9.42955 12.3298 9.43282 11.9395 9.43282L10 9.42312V11.0001H11.0154C11.479 11.0001 11.7504 11.2181 11.8296 11.6539V14.4136C11.8907 14.4136 11.9395 14.4169 11.9761 14.4233H11.8296V18.2886C11.7809 18.6155 11.6041 18.779 11.2991 18.779H10.2837L10.0001 20.5387H11.8298C11.9457 20.5387 12.1133 20.5403 12.333 20.5432C12.5525 20.5465 12.7171 20.5481 12.8269 20.5481V23H14.2361V20.5769C14.4922 20.5835 14.8642 20.5866 15.3521 20.5866V23H16.7609V20.5481C17.2611 20.5225 17.7048 20.4747 18.0919 20.4039C18.4792 20.3331 18.8499 20.2227 19.2035 20.072C19.5571 19.9215 19.8529 19.7338 20.0907 19.5095C20.3287 19.2853 20.5252 18.9999 20.681 18.6537C20.8363 18.3075 20.9355 17.9068 20.9781 17.4516C21.0577 16.5608 20.9204 15.8748 20.5667 15.394ZM14.2632 11.1056C14.3059 11.1056 14.4264 11.104 14.6246 11.1007C14.8229 11.0974 14.9875 11.0943 15.1186 11.091C15.2498 11.0879 15.4267 11.0959 15.6494 11.1151C15.872 11.1343 16.0595 11.16 16.2119 11.192C16.3643 11.224 16.5322 11.2769 16.715 11.3507C16.8982 11.4243 17.0444 11.5141 17.1541 11.6198C17.264 11.7256 17.357 11.8603 17.4331 12.0238C17.5094 12.1872 17.5475 12.3747 17.5475 12.5862C17.5475 12.7657 17.5201 12.9292 17.4653 13.0767C17.4106 13.2241 17.328 13.3476 17.2184 13.4469C17.1087 13.5463 16.9956 13.6329 16.8797 13.7066C16.764 13.7802 16.6159 13.8396 16.4361 13.8844C16.2562 13.9293 16.0992 13.9646 15.9651 13.9902C15.8309 14.0158 15.6632 14.0335 15.4619 14.0431C15.2606 14.0526 15.1081 14.0592 15.0044 14.0623C14.9007 14.0655 14.7589 14.0655 14.579 14.0623C14.3989 14.0592 14.2939 14.0575 14.2633 14.0575V11.1055L14.2632 11.1056ZM18.1103 17.6536C18.0522 17.8011 17.9776 17.9294 17.8862 18.0385C17.7946 18.1473 17.6741 18.2435 17.5248 18.3267C17.3754 18.4102 17.2304 18.4774 17.0903 18.5287C16.9499 18.5802 16.7806 18.6248 16.5826 18.6634C16.3841 18.7019 16.2104 18.729 16.0608 18.7451C15.9115 18.7612 15.7332 18.7739 15.5257 18.7836C15.3184 18.7931 15.1567 18.7979 15.0409 18.7979C14.925 18.7979 14.7786 18.7962 14.6017 18.7931C14.4247 18.7901 14.312 18.7884 14.2631 18.7884V15.5383C14.3119 15.5383 14.4567 15.5351 14.6977 15.5286C14.9387 15.5221 15.1353 15.5191 15.2878 15.5191C15.4403 15.5191 15.6507 15.5286 15.9192 15.548C16.1874 15.5671 16.4131 15.5958 16.5962 15.6343C16.7791 15.6728 16.9787 15.732 17.1954 15.8122C17.4118 15.8923 17.5873 15.99 17.7215 16.1054C17.8557 16.221 17.9685 16.3682 18.0599 16.5478C18.1516 16.7272 18.1973 16.9324 18.1973 17.1632C18.1973 17.3429 18.1684 17.5061 18.1103 17.6536Z" fill="white"/>
</svg>
