<svg width="30" height="30" viewBox="0 0 30 30" fill="none" xmlns="http://www.w3.org/2000/svg">
<path d="M18.1438 20.1027C17.6592 21.854 16.3547 23.507 14.569 24.6349C13.1154 25.5529 11.5297 26 10.0761 26C8.20907 26 6.55554 25.265 5.65762 23.8457C4.36665 21.8032 5.02399 18.8562 7.25016 16.6782C7.70081 16.2345 8.21584 15.828 8.78509 15.4655C9.52376 15.0015 10.3031 14.6492 11.0994 14.4189C11.5534 14.2868 12.0142 14.1919 12.4649 14.1445C13.173 14.0632 13.8643 14.0869 14.5182 14.2122C14.8842 14.28 15.2467 14.385 15.5957 14.5307C15.9718 14.6831 16.3276 14.8829 16.6495 15.1268C16.9579 15.3605 17.0934 15.7365 17.0019 16.1125C16.9138 16.4817 16.6224 16.7527 16.2463 16.8205C16.0701 16.8543 15.9041 16.8848 15.7347 16.9255C15.5618 16.9627 15.3924 17.0034 15.2298 17.0508C15.0299 17.105 14.8333 17.1626 14.6402 17.2269C13.9524 17.4573 13.2781 17.7587 12.6343 18.1246C11.0722 18.9985 9.68301 20.2586 8.60889 21.7693L8.0532 22.5517C8.03965 22.5721 8.04304 22.5992 8.06337 22.6127H8.12097L10.2556 20.5871C11.8007 19.1204 13.705 18.0941 15.7584 17.6199C15.9888 17.5657 16.2294 17.5149 16.4936 17.4708C16.5953 17.4539 16.7444 17.4166 16.8833 17.3827C16.9884 17.3556 17.0934 17.3319 17.1679 17.3184C17.4322 17.2608 17.7169 17.3184 17.9371 17.4844C18.1573 17.647 18.2997 17.8976 18.3234 18.172C18.3844 18.7919 18.3234 19.4456 18.1336 20.1129L18.1438 20.1027ZM24.5309 12.041C22.8875 9.56489 20.3123 8.14562 17.971 8.42338C17.6999 8.45725 17.4526 8.6029 17.2967 8.82646C17.1374 9.05341 17.0832 9.33456 17.1476 9.59876C17.1645 9.67667 17.1917 9.78168 17.2221 9.89007C17.2594 10.0256 17.2967 10.1712 17.3136 10.2661C17.7643 12.6101 18.8926 14.7441 20.5733 16.4343L22.6469 18.5209C22.6469 18.5209 22.6605 18.5446 22.6571 18.5751C22.6402 18.5988 22.6131 18.6056 22.5893 18.5886L21.7931 18.0534C19.262 16.3395 17.4831 13.8532 16.7884 11.0485L16.7681 10.9638C16.7342 10.8182 16.7003 10.6759 16.6698 10.5303C16.5987 10.1814 16.3547 9.91378 16.0159 9.81216C15.677 9.71393 15.3145 9.80539 15.0909 10.0357C15.04 10.0798 15.0028 10.1272 14.9723 10.1712C14.3319 11.0621 14.01 12.2002 14.0201 13.4535C14.2302 13.4738 14.4403 13.5043 14.6436 13.5416C15.0502 13.6161 15.4602 13.7346 15.8532 13.8972C16.2802 14.0666 16.6902 14.2969 17.0595 14.5781C17.5847 14.9744 17.8151 15.618 17.6626 16.2616C17.6321 16.3835 17.5915 16.5021 17.5373 16.6104C17.8287 16.6409 18.1133 16.7493 18.3505 16.9221C18.7266 17.1998 18.9706 17.6266 19.0112 18.0941C19.079 18.7952 19.0112 19.5337 18.7977 20.2789C18.7401 20.4855 18.669 20.6921 18.5944 20.8954C19.55 21.4035 20.5461 21.6643 21.4881 21.6643C22.3793 21.6643 23.2264 21.4306 23.9447 20.9563C26.4351 19.3067 26.6994 15.303 24.5343 12.0308L24.5309 12.041ZM14.4233 9.78168C14.4708 9.72071 14.5318 9.63603 14.6267 9.55134C14.7995 9.37859 15.0197 9.25665 15.2569 9.18213C13.9727 6.24874 11.3806 4.528 8.9003 5.114C5.98968 5.79484 4.34971 9.4565 5.24424 13.274C5.51531 14.4223 5.9829 15.4723 6.60975 16.3666C6.66736 16.309 6.71818 16.248 6.77578 16.1938C7.25693 15.7196 7.81263 15.2826 8.42253 14.8931C9.21541 14.3918 10.0523 14.0158 10.913 13.7685C11.079 13.7211 11.2484 13.6838 11.4145 13.6432C11.2484 12.5694 10.9367 11.5261 10.4861 10.5269L9.25946 7.83399C9.25946 7.83399 9.25946 7.80689 9.27979 7.79673C9.30012 7.78657 9.34078 7.80689 9.34417 7.80689L9.90325 8.58935C10.9774 10.0933 11.6957 11.7836 12.021 13.5314C12.143 13.5111 12.2683 13.4874 12.3903 13.4738C12.6885 13.4399 12.9901 13.423 13.2849 13.423H13.3492C13.3458 12.0308 13.7152 10.7742 14.4267 9.78507L14.4233 9.78168Z" fill="#633E3E"/>
</svg>
