<svg width="30" height="30" viewBox="0 0 30 30" fill="none" xmlns="http://www.w3.org/2000/svg">
<path d="M18.2623 8.4239C18.1588 8.1661 17.928 8 17.6734 8H12.3246C12.0698 8 11.8389 8.16638 11.7355 8.42452C11.1866 9.795 9.3866 14.2857 9.3866 14.2857H20.6126C20.6126 14.2857 18.9439 10.1215 18.2623 8.4239Z" fill="#E28856"/>
<path d="M25.9445 20.9958C25.9445 20.9958 24.3752 17.0805 23.827 15.7143H16.4951C16.0843 16.7395 15 19.4449 15 19.4449C14.5016 18.2012 14.003 16.9577 13.5041 15.7143H6.17216C5.75756 16.749 4.05548 20.9958 4.05548 20.9958C3.96692 21.2168 3.98527 21.4723 4.10416 21.675C4.22306 21.8777 4.42639 22 4.64454 22H25.3555C25.5736 22 25.7769 21.8777 25.8958 21.675C26.0147 21.4723 26.0331 21.2168 25.9445 20.9958Z" fill="#E28856"/>
</svg>
