<svg width="30" height="30" viewBox="0 0 30 30" fill="none" xmlns="http://www.w3.org/2000/svg">
<path d="M20.9973 23V16.0027C21.5467 16.0027 21.9947 15.5493 21.9947 15C21.9947 14.4507 21.5467 14.0027 20.992 14.0027V8.00267C21.5413 8.00267 21.9947 7.55467 21.9947 7.00533C21.9947 6.456 21.5467 6.008 20.992 6.008H17.9947V5H14.9973V5.99733H8.99733C8.448 5.99733 8 6.44533 8 6.99467C8 7.544 8.448 7.992 8.99733 7.992V13.992C8.448 13.992 8 14.44 8 14.9893C8 15.5387 8.448 15.992 8.99733 15.992V23C8.448 23 8 23.448 8 24.0027C8 24.552 8.448 25 8.99733 25H20.9973C21.5467 25 22 24.552 22 24.0027C22 23.4533 21.552 23 20.9973 23ZM14.9973 17.9973C13.888 17.9973 12.9973 17.1067 12.9973 15.9973C12.9973 14.8987 14.9973 11.9973 14.9973 11.9973C14.9973 11.9973 16.9973 14.8987 16.9973 15.9973C16.9973 17.112 16.096 17.9973 14.9973 17.9973Z" fill="#202121"/>
</svg>
