<svg width="30" height="30" viewBox="0 0 30 30" fill="none" xmlns="http://www.w3.org/2000/svg">
<path d="M6.83041 10.142C8.18236 10.142 9.30899 10.6161 10.2103 11.5644C11.121 12.5126 11.5763 13.6815 11.5763 15.071C11.5763 16.4605 11.121 17.6294 10.2103 18.5776C9.30899 19.5259 8.18236 20 6.83041 20H2.91538V10.142H6.83041ZM6.83041 18.1411C7.68477 18.1411 8.37952 17.8594 8.91467 17.2961C9.44982 16.7234 9.71739 15.9817 9.71739 15.071C9.71739 14.1603 9.44982 13.4233 8.91467 12.86C8.37952 12.2873 7.68477 12.001 6.83041 12.001H4.85882V18.1411H6.83041ZM16.7357 14.1415C17.4023 14.3387 17.9421 14.6861 18.3552 15.1837C18.7777 15.6719 18.989 16.2634 18.989 16.9581C18.989 17.9721 18.6463 18.7654 17.9609 19.3381C17.2849 19.9108 16.454 20.1972 15.4682 20.1972C14.6984 20.1972 14.0083 20.0235 13.3981 19.6761C12.7972 19.3193 12.3606 18.7983 12.0884 18.1129L13.7501 17.1553C13.9942 17.9157 14.5669 18.296 15.4682 18.296C15.9658 18.296 16.3508 18.1786 16.623 17.9439C16.9047 17.6998 17.0455 17.3712 17.0455 16.9581C17.0455 16.5544 16.9047 16.2305 16.623 15.9864C16.3508 15.7423 15.9658 15.6202 15.4682 15.6202H15.0458L14.2994 14.4936L16.2428 11.9587H12.3841V10.142H18.5806V11.7475L16.7357 14.1415ZM23.8746 20.1972C22.6447 20.1972 21.6777 19.7324 20.9735 18.803C20.2788 17.8641 19.9314 16.6201 19.9314 15.071C19.9314 13.5219 20.2788 12.2826 20.9735 11.3531C21.6777 10.4143 22.6447 9.94486 23.8746 9.94486C25.1139 9.94486 26.0809 10.4143 26.7757 11.3531C27.4704 12.2826 27.8178 13.5219 27.8178 15.071C27.8178 16.6201 27.4704 17.8641 26.7757 18.803C26.0809 19.7324 25.1139 20.1972 23.8746 20.1972ZM22.3818 17.4792C22.7198 18.0237 23.2174 18.296 23.8746 18.296C24.5318 18.296 25.0294 18.019 25.3674 17.4651C25.7148 16.9112 25.8884 16.1131 25.8884 15.071C25.8884 14.0195 25.7148 13.2168 25.3674 12.6628C25.0294 12.1089 24.5318 11.832 23.8746 11.832C23.2174 11.832 22.7198 12.1089 22.3818 12.6628C22.0438 13.2168 21.8748 14.0195 21.8748 15.071C21.8748 16.1225 22.0438 16.9252 22.3818 17.4792Z" fill="#0792FF"/>
</svg>
