<svg width="30" height="30" viewBox="0 0 30 30" fill="none" xmlns="http://www.w3.org/2000/svg">
<g clip-path="url(#clip0_903_43)">
<path d="M4.83041 10.142C6.18236 10.142 7.30899 10.6161 8.21029 11.5644C9.12098 12.5126 9.57633 13.6815 9.57633 15.071C9.57633 16.4605 9.12098 17.6294 8.21029 18.5776C7.30899 19.5259 6.18236 20 4.83041 20H0.915384V10.142H4.83041ZM4.83041 18.1411C5.68477 18.1411 6.37952 17.8594 6.91467 17.2961C7.44982 16.7234 7.71739 15.9817 7.71739 15.071C7.71739 14.1603 7.44982 13.4233 6.91467 12.86C6.37952 12.2873 5.68477 12.001 4.83041 12.001H2.85882V18.1411H4.83041ZM12.8635 20.1972C11.3143 20.1972 10.23 19.5728 9.61032 18.3241L11.2862 17.3665C11.596 17.9862 12.1218 18.296 12.8635 18.296C13.3798 18.296 13.7648 18.1739 14.0183 17.9298C14.2717 17.6857 14.3985 17.3524 14.3985 16.9299V10.142H16.3278V16.9299C16.3278 17.9627 16.0039 18.7654 15.3561 19.3381C14.7083 19.9108 13.8774 20.1972 12.8635 20.1972ZM18.0788 10.142H20.0223V20H18.0788V10.142ZM28.1844 20L27.5929 18.2256H23.6638L23.0723 20H20.974L24.4243 10.142H26.8324L30.2968 20H28.1844ZM24.2834 16.4089H26.9873L25.6354 12.3812L24.2834 16.4089Z" fill="#0792FF"/>
</g>
<defs>
<clipPath id="clip0_903_43">
<rect width="30" height="30" fill="white"/>
</clipPath>
</defs>
</svg>
