<svg width="30" height="30" viewBox="0 0 30 30" fill="none" xmlns="http://www.w3.org/2000/svg">
<path d="M4.49982 19.4001C2.56694 19.4001 1 17.654 1 15.5001C1 13.3462 2.56694 11.6001 4.49982 11.6001C6.43271 11.6001 7.99965 13.3462 7.99965 15.5001C7.99965 15.8591 7.73847 16.1501 7.41633 16.1501H2.24009C2.50613 17.2983 3.43566 18.1004 4.49982 18.1001C5.9814 18.1001 6.39323 17.8505 6.9567 17.0484C7.15548 16.7659 7.52214 16.7164 7.77566 16.9379C8.02918 17.1594 8.07358 17.568 7.8748 17.8505C7.49029 18.4244 6.97346 18.8715 6.37922 19.1443C5.78498 19.4171 5.13552 19.5055 4.49982 19.4001ZM2.24009 14.8501H6.75951C6.43736 13.4598 5.16479 12.6237 3.9171 12.9826C3.51354 13.0988 3.14526 13.3332 2.85054 13.6616C2.55582 13.99 2.34543 14.4004 2.24123 14.8501H2.24009Z" fill="#F44336"/>
<path d="M11.4998 19.4001C9.56694 19.4001 8 17.654 8 15.5001C8 13.3462 9.56694 11.6001 11.4998 11.6001C13.4327 11.6001 14.9996 13.3462 14.9996 15.5001C14.9996 17.654 13.4327 19.4001 11.4998 19.4001ZM11.4998 12.9001C10.2112 12.9001 9.16659 14.0642 9.16659 15.5001C9.16659 16.9361 10.2112 18.1002 11.4998 18.1002C12.7884 18.1002 13.8331 16.9361 13.8331 15.5001C13.8331 14.0642 12.7884 12.9001 11.4998 12.9001Z" fill="#2196F3"/>
<path d="M8.58332 19.4C8.26117 19.4 8 19.1089 8 18.75V9.65002C8 9.29104 8.26117 9 8.58332 9C8.90547 9 9.16664 9.29104 9.16664 9.65002V18.75C9.16659 19.109 8.90547 19.4 8.58332 19.4Z" fill="#2196F3"/>
<path d="M21.4185 19.4001C21.0964 19.4001 20.8352 19.109 20.8352 18.7501V14.8501C20.8352 13.5644 19.2019 12.9001 18.502 12.9001C18.1467 12.8445 17.7846 12.9062 17.4605 13.0777C17.1364 13.2491 16.8645 13.5228 16.6786 13.8647C16.5196 14.1769 16.1636 14.2863 15.8834 14.1092C15.6075 13.9347 15.5073 13.5466 15.6578 13.2355C15.9433 12.6897 16.3625 12.246 16.8663 11.9563C17.37 11.6667 17.9375 11.5431 18.502 11.6001C19.7585 11.6001 22.0019 12.6856 22.0019 14.8501V18.7501C22.0019 19.1091 21.7407 19.4001 21.4185 19.4001Z" fill="#FFC107"/>
<path d="M17.9146 19.4C15.3772 19.4 14.9981 17.7711 14.9981 16.8C14.997 16.5871 15.0354 16.3763 15.1109 16.1808C15.1863 15.9853 15.2973 15.8093 15.4367 15.6638C16.3222 14.7161 18.3532 14.7226 20.5418 14.8214C20.8848 14.837 21.1846 14.85 21.4144 14.85C21.5169 14.8499 21.6177 14.8799 21.7065 14.9371C21.7953 14.9942 21.8691 15.0764 21.9203 15.1754C21.9715 15.2744 21.9984 15.3867 21.9983 15.501C21.9982 15.6152 21.971 15.7275 21.9196 15.8263C21.9608 15.9057 21.9864 15.9938 21.9949 16.085C22.0033 16.1762 21.9943 16.2684 21.9686 16.3554C21.3313 18.2237 19.7078 19.4429 17.9146 19.4ZM18.9925 16.0785C18.0516 15.9654 17.1009 16.1454 16.2463 16.5985C16.2196 16.6227 16.1983 16.6535 16.1841 16.6885C16.1699 16.7235 16.1633 16.7617 16.1647 16.8C16.1647 17.4422 16.3723 18.1 17.9146 18.1C18.5141 18.1219 19.1061 17.9471 19.6173 17.5975C20.1285 17.2478 20.5364 16.7387 20.7903 16.1331L20.4951 16.1188C20.0985 16.1032 19.5572 16.0785 18.9925 16.0785Z" fill="#FFC107"/>
<path d="M24.9153 18.75C24.8193 18.75 24.7247 18.7235 24.64 18.6729C24.5554 18.6224 24.4832 18.5493 24.43 18.4602L20.9302 12.6102C20.7514 12.3115 20.8237 11.9079 21.0918 11.7086C21.3598 11.5093 21.722 11.59 21.9008 11.8887L25.4007 17.7387C25.5791 18.0375 25.5064 18.441 25.2382 18.6399C25.1425 18.7108 25.0302 18.7487 24.9153 18.7488V18.75Z" fill="#4CAF50"/>
<path d="M23.7484 22C23.4262 22.0006 23.1646 21.7101 23.1641 21.3511C23.1639 21.2376 23.1904 21.1261 23.2409 21.0276L27.9073 11.9276C28.0684 11.6157 28.4259 11.5083 28.7059 11.6878C28.9858 11.8673 29.0822 12.2656 28.9211 12.5776L24.2547 21.6776C24.2031 21.7761 24.1292 21.8578 24.0403 21.9144C23.9514 21.971 23.8507 22.0005 23.7484 22Z" fill="#4CAF50"/>
</svg>
