<svg width="30" height="30" viewBox="0 0 30 30" fill="none" xmlns="http://www.w3.org/2000/svg">
<path d="M19 20C23.9706 20 28 15.9706 28 11C28 6.02944 23.9706 2 19 2C14.0294 2 10 6.02944 10 11C10 15.9706 14.0294 20 19 20Z" fill="#F0F0F0"/>
<path d="M18.6094 11H28.0007C28.0007 10.1877 27.8924 9.40074 27.6906 8.65215H18.6094V11Z" fill="#D80027"/>
<path d="M18.6094 6.30435H26.6797C26.1288 5.40534 25.4243 4.6107 24.603 3.95651H18.6094V6.30435Z" fill="#D80027"/>
<path d="M18.9998 20C21.1179 20 23.0648 19.2679 24.6022 18.0435H13.3975C14.9348 19.2679 16.8817 20 18.9998 20Z" fill="#D80027"/>
<path d="M11.3215 15.6956H26.6795C27.1218 14.9739 27.4649 14.185 27.6905 13.3478H10.3105C10.5361 14.185 10.8792 14.9739 11.3215 15.6956Z" fill="#D80027"/>
<path d="M14.169 3.40548H14.9891L14.2262 3.95971L14.5176 4.85652L13.7548 4.30228L12.9919 4.85652L13.2437 4.08178C12.572 4.64129 11.9832 5.29681 11.4981 6.02722H11.7609L11.2753 6.38001C11.1996 6.50622 11.127 6.63444 11.0575 6.76455L11.2894 7.47826L10.8568 7.16393C10.7492 7.39177 10.6508 7.62475 10.5624 7.86259L10.8179 8.64896H11.7609L10.998 9.2032L11.2894 10.1L10.5265 9.54576L10.0696 9.87778C10.0238 10.2454 10 10.6199 10 11H19C19 6.02947 19 5.44348 19 2C17.2221 2 15.5647 2.51574 14.169 3.40548ZM14.5176 10.1L13.7548 9.54576L12.9919 10.1L13.2833 9.2032L12.5205 8.64896H13.4634L13.7548 7.75216L14.0462 8.64896H14.9891L14.2262 9.2032L14.5176 10.1ZM14.2262 6.58146L14.5176 7.47826L13.7548 6.92402L12.9919 7.47826L13.2833 6.58146L12.5205 6.02722H13.4634L13.7548 5.13042L14.0462 6.02722H14.9891L14.2262 6.58146ZM17.7459 10.1L16.9831 9.54576L16.2202 10.1L16.5116 9.2032L15.7487 8.64896H16.6917L16.9831 7.75216L17.2744 8.64896H18.2174L17.4545 9.2032L17.7459 10.1ZM17.4545 6.58146L17.7459 7.47826L16.9831 6.92402L16.2202 7.47826L16.5116 6.58146L15.7487 6.02722H16.6917L16.9831 5.13042L17.2744 6.02722H18.2174L17.4545 6.58146ZM17.4545 3.95971L17.7459 4.85652L16.9831 4.30228L16.2202 4.85652L16.5116 3.95971L15.7487 3.40548H16.6917L16.9831 2.50868L17.2744 3.40548H18.2174L17.4545 3.95971Z" fill="#0052B4"/>
<path d="M11 28.5C16.2467 28.5 20.5 24.2467 20.5 19C20.5 13.7533 16.2467 9.5 11 9.5C5.75329 9.5 1.5 13.7533 1.5 19C1.5 24.2467 5.75329 28.5 11 28.5Z" fill="#0052B4" stroke="white"/>
<path d="M11.0009 13.5218L11.2923 14.4186H12.2352L11.4724 14.9728L11.7638 15.8696L11.0009 15.3153L10.238 15.8696L10.5295 14.9728L9.7666 14.4186H10.7095L11.0009 13.5218Z" fill="#FFDA44"/>
<path d="M7.12728 15.1263L7.96751 15.5543L8.63425 14.8876L8.4867 15.8189L9.3269 16.247L8.39557 16.3945L8.24806 17.3259L7.81996 16.4857L6.88867 16.6333L7.55541 15.9665L7.12728 15.1263Z" fill="#FFDA44"/>
<path d="M5.52246 19L6.41926 18.7086V17.7657L6.97346 18.5286L7.8703 18.2372L7.31599 19L7.8703 19.7629L6.97346 19.4715L6.41926 20.2343V19.2914L5.52246 19Z" fill="#FFDA44"/>
<path d="M7.12728 22.8737L7.55538 22.0335L6.88867 21.3668L7.82 21.5144L8.24802 20.6742L8.39557 21.6055L9.32686 21.753L8.48677 22.1811L8.63425 23.1124L7.96751 22.4456L7.12728 22.8737Z" fill="#FFDA44"/>
<path d="M11.0009 24.4783L10.7095 23.5815H9.7666L10.5295 23.0272L10.238 22.1305L11.0009 22.6847L11.7638 22.1305L11.4724 23.0272L12.2352 23.5815H11.2923L11.0009 24.4783Z" fill="#FFDA44"/>
<path d="M14.8744 22.8737L14.0342 22.4457L13.3674 23.1124L13.5149 22.1811L12.6748 21.753L13.6061 21.6055L13.7536 20.6742L14.1817 21.5144L15.113 21.3668L14.4462 22.0336L14.8744 22.8737Z" fill="#FFDA44"/>
<path d="M16.4786 19L15.5818 19.2914V20.2343L15.0276 19.4715L14.1309 19.7629L14.6851 19L14.1309 18.2372L15.0276 18.5286L15.5818 17.7657V18.7086L16.4786 19Z" fill="#FFDA44"/>
<path d="M14.8744 15.1263L14.4463 15.9665L15.113 16.6333L14.1816 16.4857L13.7536 17.3259L13.6061 16.3945L12.6748 16.247L13.5149 15.8189L13.3674 14.8877L14.0342 15.5544L14.8744 15.1263Z" fill="#FFDA44"/>
</svg>
