<svg width="30" height="30" viewBox="0 0 30 30" fill="none" xmlns="http://www.w3.org/2000/svg">
<path d="M19 20C23.9706 20 28 15.9706 28 11C28 6.02944 23.9706 2 19 2C14.0294 2 10 6.02944 10 11C10 15.9706 14.0294 20 19 20Z" fill="#F0F0F0"/>
<path d="M19.0009 14.913C21.162 14.913 22.914 13.1611 22.914 11C22.914 8.83889 21.162 7.08697 19.0009 7.08697C16.8398 7.08697 15.0879 8.83889 15.0879 11C15.0879 13.1611 16.8398 14.913 19.0009 14.913Z" fill="#D80027"/>
<path d="M11 28.5C16.2467 28.5 20.5 24.2467 20.5 19C20.5 13.7533 16.2467 9.5 11 9.5C5.75329 9.5 1.5 13.7533 1.5 19C1.5 24.2467 5.75329 28.5 11 28.5Z" fill="#F0F0F0" stroke="white"/>
<path d="M3.86097 13.5206C3.15402 14.4404 2.62094 15.5006 2.31055 16.6522H6.99259L3.86097 13.5206Z" fill="#0052B4"/>
<path d="M19.6917 16.6522C19.3813 15.5006 18.8482 14.4405 18.1413 13.5207L15.0098 16.6522H19.6917Z" fill="#0052B4"/>
<path d="M2.31055 21.3479C2.62098 22.4995 3.15405 23.5597 3.86097 24.4794L6.99248 21.3479H2.31055Z" fill="#0052B4"/>
<path d="M16.4792 11.8605C15.5594 11.1535 14.4993 10.6205 13.3477 10.31V14.992L16.4792 11.8605Z" fill="#0052B4"/>
<path d="M5.51953 26.1395C6.43932 26.8464 7.49946 27.3795 8.65111 27.69V23.008L5.51953 26.1395Z" fill="#0052B4"/>
<path d="M8.65107 10.31C7.49943 10.6205 6.43929 11.1535 5.51953 11.8605L8.65107 14.992V10.31Z" fill="#0052B4"/>
<path d="M13.3477 27.69C14.4993 27.3795 15.5594 26.8464 16.4792 26.1395L13.3477 23.008V27.69Z" fill="#0052B4"/>
<path d="M15.0098 21.3479L18.1413 24.4794C18.8482 23.5597 19.3813 22.4995 19.6917 21.3479H15.0098Z" fill="#0052B4"/>
<path d="M19.9238 17.8261H12.174H12.1739V10.0762C11.7896 10.0262 11.3979 10 11 10C10.6021 10 10.2104 10.0262 9.8261 10.0762V17.826V17.8261H2.07618C2.02616 18.2104 2 18.6021 2 19C2 19.3979 2.02616 19.7896 2.07618 20.1739H9.82603H9.82606V27.9238C10.2104 27.9738 10.6021 28 11 28C11.3979 28 11.7896 27.9739 12.1739 27.9238V20.174V20.1739H19.9238C19.9738 19.7896 20 19.3979 20 19C20 18.6021 19.9738 18.2104 19.9238 17.8261Z" fill="#D80027"/>
<path d="M13.3477 21.3479L17.3638 25.364C17.5485 25.1793 17.7247 24.9863 17.8928 24.7862L14.4544 21.3478H13.3477V21.3479Z" fill="#D80027"/>
<path d="M8.65286 21.3479H8.65279L4.63672 25.3639C4.82136 25.5486 5.0144 25.7248 5.21451 25.893L8.65286 22.4545V21.3479Z" fill="#D80027"/>
<path d="M8.65256 16.6522V16.6521L4.63645 12.636C4.45174 12.8206 4.27554 13.0137 4.10742 13.2138L7.54581 16.6522L8.65256 16.6522Z" fill="#D80027"/>
<path d="M13.3477 16.6522L17.3638 12.6361C17.1792 12.4514 16.9861 12.2751 16.786 12.1071L13.3477 15.5455V16.6522Z" fill="#D80027"/>
</svg>
