<svg width="30" height="30" viewBox="0 0 30 30" fill="none" xmlns="http://www.w3.org/2000/svg">
<path d="M19 20C23.9706 20 28 15.9706 28 11C28 6.02944 23.9706 2 19 2C14.0294 2 10 6.02944 10 11C10 15.9706 14.0294 20 19 20Z" fill="#F0F0F0"/>
<path d="M18.6094 11H28.0007C28.0007 10.1877 27.8924 9.40074 27.6906 8.65215H18.6094V11Z" fill="#D80027"/>
<path d="M18.6094 6.30435H26.6797C26.1288 5.40534 25.4243 4.6107 24.603 3.95651H18.6094V6.30435Z" fill="#D80027"/>
<path d="M18.9988 20C21.117 20 23.0638 19.2679 24.6012 18.0435H13.3965C14.9339 19.2679 16.8807 20 18.9988 20Z" fill="#D80027"/>
<path d="M11.3215 15.6956H26.6795C27.1218 14.9739 27.4649 14.185 27.6905 13.3478H10.3105C10.5361 14.185 10.8792 14.9739 11.3215 15.6956Z" fill="#D80027"/>
<path d="M14.169 3.40548H14.9891L14.2262 3.95971L14.5176 4.85652L13.7548 4.30228L12.9919 4.85652L13.2437 4.08178C12.572 4.64129 11.9832 5.29681 11.4981 6.02722H11.7609L11.2753 6.38001C11.1996 6.50622 11.127 6.63444 11.0575 6.76455L11.2894 7.47826L10.8568 7.16393C10.7492 7.39177 10.6508 7.62475 10.5624 7.86259L10.8179 8.64896H11.7609L10.998 9.2032L11.2894 10.1L10.5265 9.54576L10.0696 9.87778C10.0238 10.2454 10 10.6199 10 11H19C19 6.02947 19 5.44348 19 2C17.2221 2 15.5647 2.51574 14.169 3.40548ZM14.5176 10.1L13.7548 9.54576L12.9919 10.1L13.2833 9.2032L12.5205 8.64896H13.4634L13.7548 7.75216L14.0462 8.64896H14.9891L14.2262 9.2032L14.5176 10.1ZM14.2262 6.58146L14.5176 7.47826L13.7548 6.92402L12.9919 7.47826L13.2833 6.58146L12.5205 6.02722H13.4634L13.7548 5.13042L14.0462 6.02722H14.9891L14.2262 6.58146ZM17.7459 10.1L16.9831 9.54576L16.2202 10.1L16.5116 9.2032L15.7487 8.64896H16.6917L16.9831 7.75216L17.2744 8.64896H18.2174L17.4545 9.2032L17.7459 10.1ZM17.4545 6.58146L17.7459 7.47826L16.9831 6.92402L16.2202 7.47826L16.5116 6.58146L15.7487 6.02722H16.6917L16.9831 5.13042L17.2744 6.02722H18.2174L17.4545 6.58146ZM17.4545 3.95971L17.7459 4.85652L16.9831 4.30228L16.2202 4.85652L16.5116 3.95971L15.7487 3.40548H16.6917L16.9831 2.50868L17.2744 3.40548H18.2174L17.4545 3.95971Z" fill="#0052B4"/>
<path d="M11 28.5C16.2467 28.5 20.5 24.2467 20.5 19C20.5 13.7533 16.2467 9.5 11 9.5C5.75329 9.5 1.5 13.7533 1.5 19C1.5 24.2467 5.75329 28.5 11 28.5Z" fill="#F0F0F0" stroke="white"/>
<path d="M3.86097 13.5206C3.15402 14.4404 2.62094 15.5006 2.31055 16.6522H6.99259L3.86097 13.5206Z" fill="#0052B4"/>
<path d="M19.6917 16.6522C19.3813 15.5006 18.8482 14.4405 18.1413 13.5207L15.0098 16.6522H19.6917Z" fill="#0052B4"/>
<path d="M2.31055 21.3479C2.62098 22.4995 3.15405 23.5597 3.86097 24.4794L6.99248 21.3479H2.31055Z" fill="#0052B4"/>
<path d="M16.4792 11.8605C15.5594 11.1535 14.4993 10.6205 13.3477 10.31V14.992L16.4792 11.8605Z" fill="#0052B4"/>
<path d="M5.51953 26.1395C6.43932 26.8465 7.49946 27.3795 8.65111 27.69V23.008L5.51953 26.1395Z" fill="#0052B4"/>
<path d="M8.65107 10.31C7.49943 10.6205 6.43929 11.1535 5.51953 11.8605L8.65107 14.992V10.31Z" fill="#0052B4"/>
<path d="M13.3477 27.69C14.4993 27.3795 15.5594 26.8465 16.4792 26.1395L13.3477 23.008V27.69Z" fill="#0052B4"/>
<path d="M15.0098 21.3479L18.1413 24.4794C18.8482 23.5597 19.3813 22.4995 19.6917 21.3479H15.0098Z" fill="#0052B4"/>
<path d="M19.9238 17.8261H12.174H12.1739V10.0762C11.7896 10.0262 11.3979 10 11 10C10.6021 10 10.2104 10.0262 9.8261 10.0762V17.826V17.8261H2.07618C2.02616 18.2104 2 18.6021 2 19C2 19.3979 2.02616 19.7896 2.07618 20.1739H9.82603H9.82606V27.9238C10.2104 27.9738 10.6021 28 11 28C11.3979 28 11.7896 27.9739 12.1739 27.9238V20.174V20.1739H19.9238C19.9738 19.7896 20 19.3979 20 19C20 18.6021 19.9738 18.2104 19.9238 17.8261Z" fill="#D80027"/>
<path d="M13.3477 21.3479L17.3638 25.364C17.5485 25.1793 17.7247 24.9863 17.8928 24.7862L14.4544 21.3478H13.3477V21.3479Z" fill="#D80027"/>
<path d="M8.65286 21.3479H8.65279L4.63672 25.3639C4.82136 25.5486 5.0144 25.7249 5.21451 25.893L8.65286 22.4545V21.3479Z" fill="#D80027"/>
<path d="M8.65256 16.6522V16.6521L4.63645 12.636C4.45174 12.8206 4.27554 13.0137 4.10742 13.2138L7.54581 16.6522L8.65256 16.6522Z" fill="#D80027"/>
<path d="M13.3477 16.6522L17.3638 12.6361C17.1792 12.4514 16.9861 12.2752 16.786 12.1071L13.3477 15.5455V16.6522Z" fill="#D80027"/>
</svg>
