<svg width="30" height="30" viewBox="0 0 30 30" fill="none" xmlns="http://www.w3.org/2000/svg">
<path d="M9.43242 17.0862L8.73625 19.6852L6.19176 19.739C5.43133 18.3286 5 16.7148 5 15C5 13.3418 5.40328 11.778 6.11812 10.4011H6.11867L8.38398 10.8164L9.37633 13.0681C9.16863 13.6736 9.05543 14.3236 9.05543 15C9.05551 15.7341 9.18848 16.4374 9.43242 17.0862Z" fill="#FBBB00"/>
<path d="M24.8253 13.1319C24.9401 13.7368 25 14.3615 25 15C25 15.7159 24.9247 16.4143 24.7813 17.0879C24.2945 19.3802 23.0225 21.3819 21.2605 22.7984L21.2599 22.7978L18.4066 22.6522L18.0028 20.1313C19.172 19.4456 20.0858 18.3725 20.5671 17.0879H15.2198V13.1319H24.8253Z" fill="#518EF8"/>
<path d="M21.2599 22.7978L21.2604 22.7984C19.5467 24.1758 17.3698 25 15 25C11.1918 25 7.88078 22.8714 6.19176 19.739L9.43242 17.0863C10.2769 19.3401 12.4511 20.9445 15 20.9445C16.0956 20.9445 17.122 20.6484 18.0027 20.1313L21.2599 22.7978Z" fill="#28B446"/>
<path d="M21.383 7.30219L18.1434 9.95438C17.2319 9.38461 16.1544 9.05547 15 9.05547C12.3934 9.05547 10.1786 10.7335 9.37637 13.0681L6.11867 10.4011H6.11812C7.78242 7.19231 11.1352 5 15 5C17.4264 5 19.6511 5.8643 21.383 7.30219Z" fill="#F14336"/>
</svg>
