<svg width="30" height="30" viewBox="0 0 30 30" fill="none" xmlns="http://www.w3.org/2000/svg">
<path d="M8.52035 10.142H10.4497V20H8.52035V15.916H4.85882V20H2.91538V10.142H4.85882V14.057H8.52035V10.142ZM15.3088 13.7331C16.2571 13.7331 17.0551 14.0195 17.7029 14.5922C18.3507 15.1555 18.6746 15.9441 18.6746 16.9581C18.6746 17.9721 18.3319 18.7654 17.6466 19.3381C16.9706 19.9108 16.1397 20.1972 15.1539 20.1972C14.3559 20.1972 13.6517 20.0188 13.0415 19.662C12.4312 19.3052 11.99 18.7795 11.7177 18.0847L13.3795 17.113C13.6236 17.9017 14.2151 18.296 15.1539 18.296C15.6515 18.296 16.0364 18.1786 16.3087 17.9439C16.5904 17.6998 16.7312 17.3712 16.7312 16.9581C16.7312 16.5544 16.5951 16.2305 16.3228 15.9864C16.0505 15.7423 15.6797 15.6202 15.2102 15.6202H12.2247L12.619 10.142H18.2099V11.9587H14.4216L14.2949 13.7331H15.3088ZM23.4345 20.1972C22.2046 20.1972 21.2376 19.7324 20.5334 18.803C19.8387 17.8641 19.4913 16.6201 19.4913 15.071C19.4913 13.5219 19.8387 12.2826 20.5334 11.3531C21.2376 10.4143 22.2046 9.94486 23.4345 9.94486C24.6738 9.94486 25.6408 10.4143 26.3356 11.3531C27.0303 12.2826 27.3777 13.5219 27.3777 15.071C27.3777 16.6201 27.0303 17.8641 26.3356 18.803C25.6408 19.7324 24.6738 20.1972 23.4345 20.1972ZM21.9417 17.4792C22.2797 18.0237 22.7773 18.296 23.4345 18.296C24.0917 18.296 24.5893 18.019 24.9273 17.4651C25.2747 16.9112 25.4484 16.1131 25.4484 15.071C25.4484 14.0195 25.2747 13.2168 24.9273 12.6628C24.5893 12.1089 24.0917 11.832 23.4345 11.832C22.7773 11.832 22.2797 12.1089 21.9417 12.6628C21.6037 13.2168 21.4348 14.0195 21.4348 15.071C21.4348 16.1225 21.6037 16.9252 21.9417 17.4792Z" fill="#0792FF"/>
</svg>
