<svg width="30" height="30" viewBox="0 0 30 30" fill="none" xmlns="http://www.w3.org/2000/svg">
<path d="M14.9999 26.9999C21.6273 26.9999 26.9999 21.6273 26.9999 14.9999C26.9999 8.37256 21.6273 3 14.9999 3C8.37256 3 3 8.37256 3 14.9999C3 21.6273 8.37256 26.9999 14.9999 26.9999Z" fill="#F0EFEB"/>
<path d="M20.0722 21.4295H25.1337C23.0051 24.7782 19.2621 26.9999 15.0004 26.9999C10.7388 26.9999 6.99582 24.7782 4.86719 21.4295H9.92821V15.0623L15.0005 20.1316L20.0722 15.0623V21.4295Z" fill="#4C4C4C"/>
<path d="M26.9997 15.0001C26.9997 16.3407 26.7798 17.6298 26.3743 18.8337H22.744V8.744L14.9999 16.4092L7.25581 8.744V18.8337H3.62545C3.21989 17.6298 3 16.3407 3 15.0001C3 8.37275 8.3725 3.00024 14.9998 3.00024C21.6272 3.00024 26.9997 8.3727 26.9997 15.0001Z" fill="#FF6600"/>
</svg>
