<svg width="30" height="30" viewBox="0 0 30 30" fill="none" xmlns="http://www.w3.org/2000/svg">
<path d="M14.1923 11.3068C14.3374 10.9819 14.6527 10.7645 15.0093 10.7485H9.77772L9.70252 10.7515C9.33011 10.7813 9.0176 11.0302 8.89501 11.3728L4 24.954H9.27013L14.1656 11.3732L14.1923 11.3068Z" fill="#0792FF"/>
<path d="M21.1034 19.5817L26.0002 6H20.73L15.835 19.5813L15.8079 19.6481C15.6705 19.9536 15.3819 20.1648 15.0479 20.1991V20.2056H20.2224L20.2977 20.2025C20.6701 20.1726 20.9824 19.9226 21.1034 19.5817Z" fill="#0792FF"/>
<path d="M15.4915 10.9618L15.4178 10.9567C15.1236 10.9486 14.8425 11.0888 14.6703 11.3338L14.66 11.3487C14.634 11.3876 14.579 11.4765 14.5533 11.5537L12.7578 16.536L13.8129 19.4583L13.8432 19.5224C13.9956 19.814 14.2963 19.9994 14.6266 19.9995C14.9267 19.9995 15.1895 19.8488 15.3502 19.6207L15.3507 19.62C15.3681 19.5953 15.4261 19.5126 15.4673 19.4007L17.2627 14.4167L16.2124 11.5061L16.1834 11.4432C16.0482 11.1771 15.789 10.9951 15.4915 10.9618Z" fill="#0792FF"/>
</svg>
