<svg width="30" height="30" viewBox="0 0 30 30" fill="none" xmlns="http://www.w3.org/2000/svg">
<path d="M21.1038 12.35C21.0438 12.2756 20.9712 12.2902 20.9331 12.3054C20.9012 12.3182 20.8281 12.3591 20.8382 12.4616C20.8504 12.5847 20.8572 12.7102 20.8585 12.8347C20.8639 13.3511 20.6547 13.857 20.2844 14.2227C19.9165 14.5861 19.4326 14.7818 18.9174 14.7762C18.2136 14.7673 17.6298 14.4039 17.2292 13.7253C16.898 13.1642 17.0436 12.4404 17.1977 11.6742C17.2879 11.2257 17.3812 10.7619 17.3812 10.3205C17.3812 6.88345 15.0471 4.90054 13.6557 4.02445C13.6269 4.00636 13.5996 4 13.5753 4C13.5358 4 13.5046 4.01684 13.4892 4.02716C13.4593 4.04718 13.4115 4.09281 13.4269 4.17359C13.9587 6.96921 12.3725 8.65062 10.6931 10.4307C8.96201 12.2656 7 14.3453 7 18.0961C7 22.4544 10.5818 26 14.9844 26C18.6094 26 21.8054 23.4982 22.7565 19.9161C23.4051 17.4736 22.7255 14.3623 21.1038 12.35ZM15.1836 24.3129C14.0811 24.3627 13.0327 23.9713 12.2319 23.2133C11.4397 22.4634 10.9853 21.4169 10.9853 20.3421C10.9853 18.3251 11.7644 16.8444 13.8598 14.8787C13.8941 14.8465 13.9292 14.8363 13.9598 14.8363C13.9875 14.8363 14.0116 14.8447 14.0281 14.8526C14.063 14.8692 14.1203 14.9104 14.1125 14.9994C14.0376 15.8624 14.0389 16.5788 14.1164 17.1286C14.3143 18.533 15.3529 19.4766 16.7009 19.4766C17.3618 19.4766 17.9913 19.2304 18.4735 18.7833C18.4921 18.7656 18.5148 18.7527 18.5396 18.7457C18.5645 18.7387 18.5907 18.7378 18.6159 18.7431C18.6476 18.7499 18.6901 18.7691 18.7124 18.8223C18.9123 19.3001 19.0145 19.8074 19.0161 20.3298C19.0224 22.4321 17.3032 24.2189 15.1836 24.3129Z" fill="#FF4242"/>
</svg>
