<svg width="30" height="30" viewBox="0 0 30 30" fill="none" xmlns="http://www.w3.org/2000/svg">
<path d="M18.3307 11.3843C18.2267 11.1506 17.9948 11 17.739 11H12.3645C12.1085 11 11.8765 11.1508 11.7726 11.3849C11.2211 12.6275 9.41242 16.6991 9.41242 16.6991H20.6922C20.6922 16.6991 19.0155 12.9235 18.3307 11.3843Z" fill="#CBCBCB"/>
<path d="M26.0497 22.7829C26.0497 22.7829 24.4729 19.233 23.9221 17.9943H16.555C16.1423 18.9238 15.0528 21.3767 15.0528 21.3767C14.552 20.2491 14.051 19.1217 13.5497 17.9943H6.18258C5.76598 18.9325 4.05575 22.7829 4.05575 22.7829C3.96676 22.9832 3.9852 23.2149 4.10466 23.3987C4.22413 23.5825 4.42843 23.6934 4.64763 23.6934H25.4578C25.677 23.6934 25.8813 23.5825 26.0008 23.3987C26.1203 23.2149 26.1387 22.9832 26.0497 22.7829Z" fill="#CBCBCB"/>
<path d="M23.5 6L24.4453 8.18973L27 9L24.4453 9.81027L23.5 12L22.5547 9.81027L20 9L22.5547 8.18973L23.5 6Z" fill="#CBCBCB"/>
</svg>
