<svg width="30" height="30" viewBox="0 0 30 30" fill="none" xmlns="http://www.w3.org/2000/svg">
<path d="M15.4723 26L18.4089 9.40055C21.1794 9.40055 22.0659 9.73475 22.2322 10.9602C22.2322 10.9602 24.116 10.2361 25.058 8.84352C21.3456 7.11672 17.6332 7.06104 17.6332 7.06104L15.4723 9.73475L13.3113 7.06104C13.3113 7.06104 9.59889 7.11672 5.88649 8.84352C6.82844 10.2918 8.71236 10.9602 8.71236 10.9602C8.82318 9.67906 9.70971 9.40055 12.4802 9.40055L15.4723 26Z" fill="#F74F4F"/>
<path d="M15.4723 6.28115C18.4644 6.28115 21.8443 6.7268 25.3905 8.28646C25.8338 7.45093 26 7.061 26 7.061C22.1214 5.55703 18.5752 5 15.4723 5C12.3694 5 8.82322 5.55703 5 7.061C5 7.061 5.16623 7.50661 5.60952 8.28646C9.04486 6.7268 12.4802 6.28115 15.4723 6.28115Z" fill="#F74F4F"/>
</svg>
