<svg width="30" height="30" viewBox="0 0 30 30" fill="none" xmlns="http://www.w3.org/2000/svg">
<path d="M22.4183 15.7844C22.275 15.7946 18.8917 16.0452 17.5034 17.2788C16.115 18.5124 15.833 21.5188 15.8215 21.6464C15.7961 21.9354 16.0763 22.1848 16.4017 22.1618C16.5451 22.1518 19.9284 21.9012 21.3167 20.6674C22.7051 19.4338 22.9871 16.4274 22.9984 16.3C23.024 16.011 22.7438 15.7616 22.4184 15.7844H22.4183ZM15.8216 15.7758C15.7961 16.0648 16.0763 16.3142 16.4017 16.2914C16.5451 16.2814 19.9284 16.0306 21.3167 14.7971C22.7051 13.5634 22.9871 10.557 22.9984 10.4296C23.024 10.1403 22.7438 9.89144 22.4184 9.91404C22.275 9.92406 18.8917 10.1746 17.5034 11.4084C16.115 12.642 15.833 15.6485 15.8215 15.7759L15.8216 15.7758ZM15.9105 12.4553C16.0036 12.3581 18.1968 10.0551 18.1968 8.31037C18.1968 6.5656 16.0036 4.26268 15.9105 4.16542C15.6983 3.94486 15.3018 3.94486 15.09 4.16542C14.9967 4.26268 12.8036 6.5656 12.8036 8.31037C12.8036 10.0551 14.9965 12.3581 15.0899 12.4553C15.3018 12.6759 15.6983 12.6761 15.9104 12.4553H15.9105ZM15.1786 21.6464C15.1671 21.519 14.8851 18.5126 13.4969 17.279C12.1087 16.0452 8.72538 15.7946 8.58181 15.7844C8.25634 15.7627 7.97618 16.0101 8.00161 16.3C8.01308 16.4274 8.29507 19.4338 9.68331 20.6674C11.0718 21.9012 14.4549 22.1518 14.5984 22.1618C14.9239 22.1844 15.204 21.9356 15.1786 21.6464ZM14.5984 16.2912C14.9241 16.314 15.2043 16.0648 15.1786 15.7757C15.1673 15.6485 14.8854 12.642 13.4969 11.4084C12.1087 10.1746 8.72538 9.92406 8.58201 9.91404C8.25655 9.89108 7.97613 10.1402 8.00181 10.4296C8.01308 10.5568 8.29527 13.5633 9.68351 14.7969C11.0717 16.0306 14.455 16.2812 14.5984 16.2912ZM14.4215 22.6871H16.5787V27H14.4215V22.6871Z" fill="#F7B91A"/>
</svg>
