<svg width="80" height="80" viewBox="0 0 80 80" fill="none" xmlns="http://www.w3.org/2000/svg">
<g id="icon-choice">
<g clip-path="url(#clip0_7220_93)">
<rect width="80" height="80" rx="21" fill="#EAF4FF"/>
<g id="$" filter="url(#filter0_d_7220_93)">
<path d="M51.8085 45.6715C51.8085 48.3427 50.9849 50.487 49.3377 52.1045C47.7915 53.6366 45.7661 54.6295 43.2613 55.0832C43.0184 55.1272 42.8379 55.3362 42.8379 55.583V57.8594C42.8379 58.1355 42.6141 58.3594 42.3379 58.3594H38.0847C37.8086 58.3594 37.5847 58.1355 37.5847 57.8594V55.6068C37.5847 55.3593 37.4032 55.1499 37.1596 55.1066C34.4951 54.633 32.3664 53.5432 30.7733 51.8374C29.2111 50.1497 28.3831 48.0162 28.2893 45.437C28.2792 45.161 28.5041 44.937 28.7803 44.937H34.4804C34.7565 44.937 34.9771 45.1614 35.0044 45.4362C35.1145 46.5479 35.6036 47.4277 36.4717 48.0755C37.466 48.8027 38.6829 49.1663 40.1223 49.1663C41.443 49.1663 42.5931 48.8546 43.5725 48.2314C44.5668 47.6081 45.0639 46.7771 45.0639 45.7383C45.0639 44.5956 44.3442 43.7127 42.9047 43.0894C42.2221 42.7926 40.9162 42.4142 38.9871 41.9542C36.3753 41.3309 34.4907 40.7373 33.3332 40.1734C30.5582 38.823 29.0371 36.7158 28.77 33.8518C28.7403 33.5253 28.7255 33.1914 28.7255 32.8501C28.7255 30.3719 29.4749 28.3685 30.9737 26.84C32.3911 25.3945 34.3261 24.46 36.7788 24.0365C37.0235 23.9942 37.2063 23.7843 37.2063 23.5359V21.5081C37.2063 21.2319 37.4302 21.0081 37.7063 21.0081H42.0041C42.2802 21.0081 42.5041 21.2319 42.5041 21.5081V23.54C42.5041 23.7866 42.6844 23.9955 42.9269 24.0402C45.4082 24.4978 47.3374 25.5276 48.7144 27.1294C50.0759 28.6992 50.8001 30.6918 50.887 33.1069C50.8969 33.3829 50.672 33.6069 50.3959 33.6069H44.8293C44.5532 33.6069 44.3329 33.3822 44.3033 33.1076C44.1963 32.1176 43.7598 31.3417 42.9938 30.78C42.1182 30.127 41.0127 29.8005 39.6771 29.8005C38.4899 29.8005 37.466 30.038 36.6053 30.5128C35.7594 30.9877 35.3365 31.6703 35.3365 32.5607C35.3365 32.902 35.3959 33.2137 35.5146 33.4956C35.6333 33.7776 35.8411 34.0298 36.1379 34.2524C36.4346 34.475 36.7092 34.6679 36.9615 34.8312C37.2137 34.9796 37.607 35.1428 38.1412 35.3209C38.6903 35.4841 39.1206 35.6103 39.4323 35.6993C39.7587 35.7735 40.2707 35.8996 40.9682 36.0777C41.0869 36.1074 41.1759 36.1296 41.2353 36.1445C41.9327 36.3226 42.467 36.4635 42.8379 36.5674C43.2238 36.6564 43.758 36.8048 44.4406 37.0126C45.1233 37.2204 45.6649 37.4133 46.0656 37.5913C46.4811 37.7694 46.9782 38.0143 47.5569 38.3259C48.1357 38.6227 48.6031 38.9269 48.9593 39.2385C49.3154 39.5502 49.6939 39.936 50.0945 40.396C50.4952 40.8412 50.8068 41.3161 51.0294 41.8206C51.252 42.3252 51.4375 42.9113 51.5859 43.5791C51.7343 44.2321 51.8085 44.9295 51.8085 45.6715Z" fill="#0792FF"/>
</g>
</g>
</g>
<defs>
<filter id="filter0_d_7220_93" x="12.2656" y="12.9963" width="55.5664" height="69.3982" filterUnits="userSpaceOnUse" color-interpolation-filters="sRGB">
<feFlood flood-opacity="0" result="BackgroundImageFix"/>
<feColorMatrix in="SourceAlpha" type="matrix" values="0 0 0 0 0 0 0 0 0 0 0 0 0 0 0 0 0 0 127 0" result="hardAlpha"/>
<feOffset dy="8.01172"/>
<feGaussianBlur stdDeviation="8.01172"/>
<feComposite in2="hardAlpha" operator="out"/>
<feColorMatrix type="matrix" values="0 0 0 0 0.027451 0 0 0 0 0.572549 0 0 0 0 1 0 0 0 0.25 0"/>
<feBlend mode="normal" in2="BackgroundImageFix" result="effect1_dropShadow_7220_93"/>
<feBlend mode="normal" in="SourceGraphic" in2="effect1_dropShadow_7220_93" result="shape"/>
</filter>
<clipPath id="clip0_7220_93">
<rect width="80" height="80" rx="21" fill="white"/>
</clipPath>
</defs>
</svg>
