<svg width="80" height="80" viewBox="0 0 80 80" fill="none" xmlns="http://www.w3.org/2000/svg">
<g id="icon-choice">
<rect width="80" height="80" rx="21" fill="#EAF4FF"/>
<g id="Union" filter="url(#filter0_d_7220_68)">
<path fill-rule="evenodd" clip-rule="evenodd" d="M31 24.5C31 23.6716 31.6716 23 32.5 23C33.3284 23 34 23.6716 34 24.5V28H49V24.5C49 23.6716 49.6716 23 50.5 23C51.3284 23 52 23.6716 52 24.5V28H54C56.2091 28 58 29.7909 58 32V36H25V32C25 29.7909 26.7909 28 29 28H31V24.5ZM58 39H25V54C25 56.2091 26.7909 58 29 58H54C56.2091 58 58 56.2091 58 54V39Z" fill="#0792FF"/>
</g>
</g>
<defs>
<filter id="filter0_d_7220_68" x="17" y="19" width="49" height="51" filterUnits="userSpaceOnUse" color-interpolation-filters="sRGB">
<feFlood flood-opacity="0" result="BackgroundImageFix"/>
<feColorMatrix in="SourceAlpha" type="matrix" values="0 0 0 0 0 0 0 0 0 0 0 0 0 0 0 0 0 0 127 0" result="hardAlpha"/>
<feOffset dy="4"/>
<feGaussianBlur stdDeviation="4"/>
<feComposite in2="hardAlpha" operator="out"/>
<feColorMatrix type="matrix" values="0 0 0 0 0.027451 0 0 0 0 0.572549 0 0 0 0 1 0 0 0 0.25 0"/>
<feBlend mode="normal" in2="BackgroundImageFix" result="effect1_dropShadow_7220_68"/>
<feBlend mode="normal" in="SourceGraphic" in2="effect1_dropShadow_7220_68" result="shape"/>
</filter>
</defs>
</svg>
