<svg width="80" height="80" viewBox="0 0 80 80" fill="none" xmlns="http://www.w3.org/2000/svg">
<g id="icon-choice">
<rect width="80" height="80" rx="21" fill="#EAF4FF"/>
<g id="Exclude" filter="url(#filter0_d_7220_77)">
<path fill-rule="evenodd" clip-rule="evenodd" d="M40 58C49.9411 58 58 49.9411 58 40C58 30.0589 49.9411 22 40 22C30.0589 22 22 30.0589 22 40C22 49.9411 30.0589 58 40 58ZM41.5 27C41.5 26.1716 40.8284 25.5 40 25.5C39.1716 25.5 38.5 26.1716 38.5 27V40.75V41.3713L38.9393 41.8107L46.9393 49.8107C47.5251 50.3964 48.4749 50.3964 49.0607 49.8107C49.6464 49.2249 49.6464 48.2751 49.0607 47.6893L41.5 40.1287V27Z" fill="#0792FF"/>
</g>
</g>
<defs>
<filter id="filter0_d_7220_77" x="14" y="18" width="52" height="52" filterUnits="userSpaceOnUse" color-interpolation-filters="sRGB">
<feFlood flood-opacity="0" result="BackgroundImageFix"/>
<feColorMatrix in="SourceAlpha" type="matrix" values="0 0 0 0 0 0 0 0 0 0 0 0 0 0 0 0 0 0 127 0" result="hardAlpha"/>
<feOffset dy="4"/>
<feGaussianBlur stdDeviation="4"/>
<feComposite in2="hardAlpha" operator="out"/>
<feColorMatrix type="matrix" values="0 0 0 0 0.027451 0 0 0 0 0.572549 0 0 0 0 1 0 0 0 0.25 0"/>
<feBlend mode="normal" in2="BackgroundImageFix" result="effect1_dropShadow_7220_77"/>
<feBlend mode="normal" in="SourceGraphic" in2="effect1_dropShadow_7220_77" result="shape"/>
</filter>
</defs>
</svg>
