<svg width="165" height="65" viewBox="0 0 165 65" fill="none" xmlns="http://www.w3.org/2000/svg">
<g id="Frame Payeer">
<g id="PAYEER">
<path fill-rule="evenodd" clip-rule="evenodd" d="M118.42 25.6568C121.998 25.161 121.891 31.1642 118.795 30.9096L115.74 30.8426L115.767 25.6836L118.42 25.6568ZM111.64 42.9026H115.593L115.606 34.5276L117.214 34.5008C117.375 34.8358 121.529 42.7686 122.078 42.9026H126.473C126.313 42.2862 122.293 35.2914 121.596 34.0854C121.931 33.7906 122.306 33.67 122.654 33.4556C126.045 31.3652 126.393 27.1442 124.463 24.2766C123.472 22.8026 121.623 22.0656 119.251 22.0388C116.732 22.012 114.186 22.0388 111.666 22.0388L111.64 42.9026Z" fill="#3598D9"/>
<path fill-rule="evenodd" clip-rule="evenodd" d="M55.6812 28.5914C56.1502 29.0872 56.5924 30.9632 56.9006 31.8074C57.1552 32.5042 57.919 34.3668 57.9592 35.01L53.564 34.9966L55.6812 28.5914ZM46.864 42.9026L50.6964 42.916C51.1386 42.7954 52.2374 38.9764 52.3178 38.6682L59.1786 38.561L60.6794 42.8758H64.7262C64.3644 41.2678 63.5336 39.2846 62.9976 37.7168C62.3946 35.9748 57.919 22.4944 57.584 22.0656H53.7918L46.864 42.9026Z" fill="#3F3F3F"/>
<path fill-rule="evenodd" clip-rule="evenodd" d="M38.0736 25.5228C41.3164 25.3218 43.2326 25.6434 43.2192 29.1006C43.2058 32.4104 41.236 32.7454 38.0468 32.5578L38.0736 25.5228ZM34 42.8758L38.0602 42.916L38.0468 36.1624L40.7268 36.1356C45.8322 36.1356 47.869 33.3216 47.869 28.5646C47.869 21.2348 40.4722 21.9852 34.6566 22.0522L34 22.0656V42.8758Z" fill="#3F3F3F"/>
<path fill-rule="evenodd" clip-rule="evenodd" d="M107.191 34.005V30.5076L101.161 30.4674C100.933 29.2882 101.08 27.0236 101.107 25.7372L107.928 25.7104C108.705 25.5362 108.115 25.7238 108.357 25.4558L108.316 22.0924L96.8728 22.0656L96.8326 42.849C97.047 43.1304 96.7388 42.9294 97.1274 43.0768L103.05 43.0902C104.283 43.0902 108.504 43.2376 109.388 42.9964C109.643 42.2996 109.616 40.2092 109.415 39.4856C108.263 39.164 102.742 39.4052 101.08 39.365L101.094 34.2864L105.891 34.2462C107.164 34.2596 107.07 34.3534 107.191 34.005Z" fill="#3598D9"/>
<path fill-rule="evenodd" clip-rule="evenodd" d="M93.4558 25.3888L93.429 22.0656H81.9854V42.916H94.4072C94.6216 42.6078 94.5948 42.581 94.5948 42.0718L94.501 39.5526C93.6434 39.1372 87.6134 39.365 86.1394 39.365L86.2064 34.2596L92.3436 34.1926C92.625 33.6164 92.6116 31.0704 92.4106 30.4674C91.754 30.253 87.3186 30.4004 86.1528 30.3468L86.1796 25.7506C87.8814 25.5764 90.8696 25.7908 92.6652 25.7372C92.9332 25.7238 92.9332 25.764 93.1744 25.6568C93.5362 25.4826 93.3084 25.7506 93.4558 25.3888Z" fill="#3598D9"/>
<path fill-rule="evenodd" clip-rule="evenodd" d="M73.6774 34.9296C73.932 33.9514 74.7092 32.6784 75.1246 31.6734C75.5266 30.6818 76.143 29.449 76.6254 28.444C77.6036 26.4072 78.5818 24.1694 79.5198 22.079L75.2586 22.0656C74.7762 22.4006 71.9354 28.6718 71.654 29.5696L71.0644 28.5914C70.4882 27.305 68.4246 22.5748 67.969 22.0656H63.6408C63.9356 23.0304 64.686 24.4508 65.1014 25.3486C65.624 26.4742 66.026 27.3988 66.5486 28.4976C67.0578 29.5964 67.5268 30.6282 68.036 31.727C68.3978 32.5042 69.2152 34.1524 69.4296 34.9162C69.577 36.7118 69.1884 41.6564 69.5368 42.9562L73.5702 42.916C73.865 42.0182 73.5702 36.4572 73.6774 34.9296Z" fill="#3F3F3F"/>
<path d="M129.314 42.0718V40.1154H130.185C130.359 40.1154 130.493 40.1288 130.587 40.169C130.681 40.2092 130.748 40.2628 130.802 40.3566C130.855 40.4504 130.882 40.5442 130.882 40.6514C130.882 40.7854 130.842 40.906 130.748 40.9998C130.654 41.0936 130.52 41.1606 130.333 41.1874C130.4 41.2142 130.453 41.2544 130.493 41.2812C130.574 41.3482 130.641 41.442 130.708 41.5358L131.043 42.0718H130.721L130.467 41.6698C130.386 41.5492 130.333 41.4688 130.279 41.4018C130.225 41.3348 130.185 41.2946 130.145 41.2678C130.105 41.241 130.065 41.2276 130.024 41.2142C129.998 41.2142 129.944 41.2008 129.877 41.2008H129.582V42.0718H129.314ZM129.569 40.973H130.118C130.239 40.973 130.333 40.9596 130.4 40.9328C130.467 40.906 130.52 40.8658 130.547 40.8122C130.587 40.7586 130.601 40.705 130.601 40.638C130.601 40.5442 130.574 40.4638 130.507 40.4102C130.44 40.3566 130.333 40.3164 130.185 40.3164H129.569V40.973Z" fill="#3F3F3F"/>
<path fill-rule="evenodd" clip-rule="evenodd" d="M130.051 39.2712C131.056 39.2712 131.874 40.0886 131.874 41.0936C131.874 42.0986 131.056 42.916 130.051 42.916C129.046 42.916 128.229 42.0986 128.229 41.0936C128.229 40.0752 129.046 39.2712 130.051 39.2712ZM130.051 39.5526C130.895 39.5526 131.592 40.236 131.592 41.0936C131.592 41.9378 130.909 42.6346 130.051 42.6346C129.207 42.6346 128.51 41.9512 128.51 41.0936C128.51 40.236 129.194 39.5526 130.051 39.5526Z" fill="#3F3F3F"/>
</g>
</g>
</svg>
