<svg width="165" height="65" viewBox="0 0 165 65" fill="none" xmlns="http://www.w3.org/2000/svg">
<g id="Frame Astropay">
<g id="AstroPay">
<path d="M33.5376 17.8017L26 40.1466H30.4204L32.5539 33.6293H38.6734L40.858 40.1466H45.3806L37.8302 17.8017H33.5376ZM37.6002 29.9181H33.6398L35.3006 25.0043C35.4156 24.6552 35.5306 24.3319 35.62 24.0086C35.735 24.3578 35.8244 24.694 35.965 25.056L37.6002 29.9181ZM52.8287 29.9698C50.7974 29.1552 50.5674 28.7672 50.5674 28.1724C50.5674 27.4095 51.1934 26.9569 52.2027 26.9569C53.3908 26.9569 54.3362 27.4353 54.7834 27.7198L55.6521 28.2759L56.8019 24.7328L56.2781 24.3836C55.2816 23.7112 53.7741 23.3362 52.241 23.3362C48.83 23.3362 46.3643 25.5086 46.3643 28.5216C46.3643 31.2888 48.7789 32.75 50.8102 33.5C52.8287 34.2629 52.9948 34.7931 52.9948 35.4397C52.9948 36.6552 51.73 36.8362 50.9763 36.8362C49.8137 36.8362 48.5489 36.3448 47.8335 35.9052L46.9647 35.3879L45.8405 38.9957L46.3898 39.319C47.6291 40.069 49.2899 40.4828 50.9252 40.4828C54.6684 40.4828 57.198 38.3491 57.198 35.181C57.198 31.9871 54.6939 30.681 52.8287 29.9698ZM63.8413 19.7931L59.6253 21.0862V23.6466H57.3513V27.3319H59.6253V34.6379C59.6253 36.681 60.0214 38.1293 60.8646 39.0991C61.695 39.9914 62.9214 40.5086 64.3523 40.5086C65.6298 40.5086 66.5625 40.2371 66.9841 40.0948L67.5462 39.9009L67.3162 36.2026L66.3325 36.4871C66.0514 36.5647 65.7065 36.6422 65.0166 36.6422C64.5056 36.6422 63.8157 36.6422 63.8157 34.5603V27.3319H67.6356V23.6466H63.8413V19.7931ZM77.9583 23.4914L77.1917 23.375C76.9618 23.3362 76.7446 23.3233 76.438 23.3233C75.0966 23.3233 73.8701 23.8793 72.9375 24.8491L72.8864 23.6466H68.9259L68.9771 24.5C69.0537 25.7802 69.1048 27.2284 69.1048 29.0905V40.1466H73.3846V31.4181C73.3846 31.0172 73.423 30.6034 73.4613 30.306C73.7807 28.5862 74.841 27.5259 76.2719 27.5259C76.6168 27.5259 76.8213 27.5259 77.0129 27.5647L77.9966 27.7716L77.9583 23.4914ZM85.7386 23.3362C80.9733 23.3362 77.6389 26.9052 77.6389 32.0259C77.6389 37.0172 80.8583 40.4957 85.4959 40.4957C89.418 40.4957 93.6084 37.7672 93.6084 31.7802C93.6211 26.8017 90.3889 23.3362 85.7386 23.3362ZM89.2902 31.8578C89.2902 34.7414 87.7444 36.8362 85.6364 36.8362C83.5284 36.8362 81.9954 34.7543 81.9954 31.9353C81.9954 30.0991 82.7619 26.9957 85.6875 26.9957C88.5365 26.9698 89.2902 30.1767 89.2902 31.8578ZM107.636 19.5733C106.243 18.2931 104.11 17.6466 101.363 17.6466C99.5235 17.6466 97.7604 17.7759 96.1507 18.0474L95.4864 18.1638V40.1466H99.7279V31.9871C100.162 32.0259 100.609 32.0388 101.069 32.0388C103.931 32.0388 106.358 31.1466 107.904 29.5172C109.105 28.2629 109.718 26.5819 109.718 24.5259C109.693 22.5345 108.965 20.7759 107.636 19.5733ZM105.451 24.6681C105.451 27.7974 102.743 28.25 101.12 28.25C100.571 28.25 100.124 28.2371 99.7406 28.1724V21.4612C100.149 21.4095 100.724 21.3836 101.44 21.3836C103.254 21.3836 105.451 21.9655 105.451 24.6681ZM122.686 35.7629V30.1897C122.686 25.7414 120.412 23.3233 116.298 23.3233C114.394 23.3233 112.401 23.8534 111.021 24.7328L110.472 25.0819L111.622 28.5086L112.491 27.9138C113.372 27.306 114.663 26.944 115.902 26.944C116.77 26.931 117.384 27.1379 117.805 27.5388C118.15 27.8879 118.355 28.3922 118.431 29.0388C115.097 29.1293 112.67 29.931 111.162 31.444C110.127 32.4914 109.603 33.8103 109.603 35.3879C109.603 37.9224 111.418 40.4828 114.918 40.4828C116.4 40.4828 117.805 40.0043 118.891 39.1638L119.006 40.1595H123.056L122.903 39.2284C122.762 38.3233 122.686 37.1595 122.686 35.7629ZM115.57 36.875C114.931 36.875 113.87 36.6422 113.87 35.1034C113.87 34.5086 114.037 34.0302 114.42 33.6681C114.905 33.1767 116.017 32.5948 118.508 32.556V34.3276C118.508 34.4569 118.495 34.6897 118.431 34.9224C118.137 35.8276 117.205 36.875 115.57 36.875ZM134.465 23.6336L131.36 32.9052C131.284 33.1379 131.207 33.3836 131.13 33.6164C131.054 33.3836 130.977 33.1638 130.888 32.944L127.502 23.6207H122.852L128.69 38.4397L128.703 38.4784C128.792 38.6724 128.831 38.7888 128.831 38.8276C128.792 38.9052 128.741 39.0603 128.703 39.1509C128.192 40.2371 127.438 41.2715 126.684 41.8793L126.672 41.8922C125.828 42.6422 124.96 42.9655 124.602 43.056L123.848 43.3017L124.947 47L125.65 46.8707C126.084 46.7931 127.591 46.431 129.329 44.9698C131.399 43.1078 132.778 40.1465 134.58 35.3362L139 23.6336H134.465Z" fill="black"/>
<path d="M41.599 23.944C44.3457 21.0991 49.0216 19.4052 54.0935 19.4052C56.0737 19.4052 57.9901 19.6509 59.817 20.1681L59.9703 20.2069L63.2153 19.2112L61.7589 18.6422C58.9865 17.569 55.8054 17 52.5349 17C47.7696 17 43.3237 18.1638 40.0276 20.2845L39.6699 20.5172L41.0496 24.5776L41.599 23.944Z" fill="#FF0000"/>
</g>
</g>
</svg>
