<svg width="165" height="65" viewBox="0 0 165 65" fill="none" xmlns="http://www.w3.org/2000/svg">
<g id="Frame Sticpay">
<g id="STICPAY">
<path d="M60.9808 22.1879H47.3512L46.282 26.5295H50.7208L47.3404 42.0923H52.6L55.9804 26.5295H59.9116L60.9808 22.1879Z" fill="#F35822"/>
<path d="M99.2884 30.3635C99.7204 28.9811 99.6772 27.3611 99.2776 26.1407C98.878 24.9203 98.122 24.0995 97.2904 23.5163C96.4588 22.9331 95.5516 22.5875 94.558 22.4039C93.8668 22.2743 93.1324 22.2311 92.4736 22.2203V22.1771H87.214L83.2072 42.0815H88.4668L89.7952 35.5043C90.3136 35.4827 90.9076 35.4503 91.4692 35.4071C92.4628 35.3315 93.316 35.2235 94.2232 34.9859C95.1412 34.7591 96.1132 34.4027 97.042 33.6467C97.9708 32.8907 98.8672 31.7459 99.2884 30.3635ZM95.0764 28.6679C95.0332 29.2835 94.8172 29.7803 94.4824 30.2015C94.1476 30.6227 93.6832 30.9575 92.83 31.1195C92.182 31.2491 91.3072 31.2707 90.6484 31.2707L91.6528 26.2055C91.858 26.1947 92.0524 26.2055 92.2576 26.2163C93.0676 26.2703 93.9532 26.4323 94.4716 26.8751C94.99 27.3179 95.1196 28.0523 95.0764 28.6679Z" fill="#F35822"/>
<path d="M84.514 24.4127C84.838 23.7107 84.838 23.7107 84.7948 23.6675C84.7624 23.6135 84.6868 23.5271 84.2008 23.2571C83.7148 22.9763 82.8292 22.5227 81.5008 22.2635C80.1724 22.0043 78.4012 21.9395 76.9648 22.1015C75.5284 22.2635 74.416 22.6523 73.5196 23.1923C72.6232 23.7431 71.932 24.4235 71.2516 25.2443C70.5712 26.0651 69.8908 27.0047 69.34 28.3763C68.7784 29.7479 68.3464 31.5407 68.2492 33.2255C68.152 34.9103 68.3788 36.4763 68.9836 37.8587C69.5992 39.2411 70.582 40.4507 71.8564 41.1743C73.1308 41.8979 74.6968 42.1571 75.9172 42.2219C77.1268 42.2867 77.9908 42.1679 78.8224 41.9411C79.654 41.7251 80.4532 41.4011 80.8528 41.2391C81.2524 41.0663 81.2524 41.0555 81.2524 41.0339C81.2524 41.0123 81.2524 40.9799 81.2524 40.2779C81.2524 39.5759 81.2524 38.1935 81.2524 37.4915C81.2524 36.7787 81.2524 36.7463 81.2524 36.7247C81.2524 36.7139 81.2524 36.7139 80.8204 36.8651C80.3992 37.0163 79.546 37.3295 78.5092 37.5347C77.4832 37.7399 76.2628 37.8263 75.3664 37.4915C74.47 37.1567 73.8868 36.3899 73.6276 35.4503C73.3576 34.5107 73.4116 33.4091 73.5952 32.3507C73.7788 31.2923 74.0812 30.2987 74.632 29.3051C75.1828 28.3115 75.9604 27.3287 76.8784 26.8319C77.7856 26.3351 78.8332 26.3243 79.6756 26.4647C80.518 26.6051 81.1552 26.8967 81.652 27.1667C82.1488 27.4367 82.5268 27.6851 82.7104 27.7823C82.894 27.9119 82.894 27.9119 83.218 27.2099C83.542 26.5079 84.19 25.1147 84.514 24.4127Z" fill="#F35822"/>
<path d="M45.2884 23.2247C44.9644 23.0411 44.3164 22.6847 43.5496 22.4471C42.7828 22.1987 41.8864 22.0799 40.99 22.0259C40.0936 21.9719 39.1756 21.9935 38.3008 22.1771C37.426 22.3607 36.5836 22.6955 35.7952 23.2355C35.0068 23.7755 34.2616 24.5207 33.7648 25.3415C33.2572 26.1731 32.998 27.0695 33.0304 28.1063C33.052 29.1431 33.3652 30.2987 34.2076 31.4651C35.05 32.6315 36.4216 33.7871 37.2208 34.6727C38.02 35.5583 38.236 36.1631 38.1496 36.6923C38.0632 37.2215 37.6744 37.6751 37.1236 37.9019C36.5836 38.1287 35.8816 38.1287 35.104 37.9667C34.3264 37.8155 33.4624 37.4915 32.7712 37.1783C32.08 36.8651 31.5616 36.5519 31.2916 36.3899C31.0324 36.2279 31.0216 36.2279 31.0108 36.2495C31 36.2711 31 36.3143 31 37.1135C31 37.9127 31 39.4679 31 40.2671C31 41.0663 31 41.0987 31.0108 41.1203C31.0108 41.1419 31.0324 41.1419 31.4968 41.3147C31.9612 41.4767 32.89 41.8223 33.7648 42.0275C34.6396 42.2327 35.4604 42.2975 36.3244 42.2759C37.1884 42.2543 38.0956 42.1463 38.9164 41.9411C39.7372 41.7359 40.4824 41.4227 41.2492 40.7747C42.016 40.1267 42.7828 39.1547 43.1608 38.0963C43.5388 37.0379 43.5064 35.8823 43.3228 34.9211C43.1392 33.9599 42.7828 33.1715 42.0916 32.3291C41.4004 31.4867 40.3636 30.5795 39.6292 29.8991C38.884 29.2187 38.452 28.7543 38.29 28.1819C38.128 27.6095 38.2468 26.9183 38.6572 26.5079C39.0676 26.0867 39.748 25.9571 40.4068 26.0219C41.0548 26.0867 41.6812 26.3459 42.2428 26.6051C42.8044 26.8643 43.312 27.1019 43.5712 27.2315C43.8196 27.3611 43.8196 27.3611 43.8304 27.3395C43.8412 27.3287 43.852 27.2963 44.1436 26.6483C44.4352 26.0111 44.9968 24.7583 45.2884 24.1103C45.58 23.4623 45.5908 23.4299 45.6016 23.4191C45.6124 23.3975 45.6124 23.3975 45.2884 23.2247Z" fill="#F35822"/>
<path d="M107.151 22.1231L97.096 42.1031H102.788L104.386 38.3447H110.164L110.24 42.0923H115.337L113.814 22.1231H107.151ZM106.136 34.0571L109.829 25.6331L110.013 34.0571H106.136Z" fill="#F35822"/>
<path d="M129.053 22.1987L124.863 29.7587L123.329 22.1771H118.113L121.407 34.0571L119.906 42.0815H125.09L126.677 34.1219L134.518 22.1987H129.053Z" fill="#F35822"/>
<path d="M63.0976 22.1879L58.54 42.0923H63.7996L68.3572 22.1879H63.0976Z" fill="#F35822"/>
</g>
</g>
</svg>
