<svg width="165" height="65" viewBox="0 0 165 65" fill="none" xmlns="http://www.w3.org/2000/svg">
<g id="Frame PerfectMoney" clip-path="url(#clip0_6626_334)">
<g id="Group">
<path id="Vector" fill-rule="evenodd" clip-rule="evenodd" d="M80.7501 18.6794C81.9801 19.2684 83.5046 18.229 83.1928 21.9363L82.8809 27.3239C82.8983 28.4673 82.7423 28.8657 82.725 29.9398C82.7077 30.6501 82.6211 31.88 82.5171 32.6769C82.2226 34.929 82.4652 35.6046 79.9532 35.8298V36.4881C80.5769 36.8346 84.9598 36.644 85.9992 36.644C86.6228 36.644 86.0512 36.696 86.4843 36.4881C86.415 35.5873 86.0685 35.8645 85.1503 35.6912C84.3361 35.5526 84.1802 35.4487 84.0416 34.6691C83.7644 33.0407 84.3534 24.3616 84.3534 22.1095C84.7865 22.6119 84.9425 23.2182 85.2196 23.8419C85.5315 24.5348 85.7047 24.9852 86.0338 25.6435C86.363 26.3018 86.5189 26.7869 86.848 27.4452C87.2118 28.1728 87.4024 28.5712 87.7316 29.3335C88.667 31.5162 90.538 34.6518 91.0404 36.7999C92.0451 36.7826 91.6987 36.8173 92.3569 35.3274C93.3964 32.9887 94.072 31.88 95.1287 29.7839L98.6627 22.5599C98.8533 22.2481 98.732 22.4387 98.8706 22.2828C98.8706 23.9458 99.0265 25.0026 99.0265 26.683C99.0265 28.45 99.321 34.2014 98.6974 35.5007C98.195 35.6219 97.3115 35.8125 96.7398 35.8298V36.644H103.427C103.964 36.644 103.912 36.3495 103.912 35.8298C103.444 35.8298 102.872 35.7605 102.474 35.6393C101.227 35.2928 101.469 33.3872 101.469 31.2564C101.469 29.9225 101.296 29.1949 101.296 27.9995V20.3252C101.296 19.4937 101.746 19.0952 102.526 18.9393C103.756 18.6968 104.05 19.1992 103.739 17.8652C102.838 18.0731 99.8408 18.2637 99.0092 17.8652C98.9053 19.0779 98.1257 20.7236 97.658 21.7284C97.069 22.9757 96.48 24.0671 95.8563 25.3144L91.9932 32.5557C91.4908 30.3902 85.6354 21.3126 85.6354 17.8652C84.7865 18.2637 81.8069 18.0731 80.906 17.8652C80.8368 18.2464 80.8021 18.2464 80.7501 18.6794Z" fill="#F00F0F"/>
<path id="Vector_2" fill-rule="evenodd" clip-rule="evenodd" d="M154.705 20.4811C154.705 28.8138 166.138 27.8956 166.138 21.2953C166.138 19.2511 166.086 18.1078 164.302 16.4447C162.483 14.747 159.295 14.4871 157.217 15.977C155.744 17.0337 154.705 18.5582 154.705 20.4811Z" fill="#F00F0F"/>
<path id="Vector_3" fill-rule="evenodd" clip-rule="evenodd" d="M116.333 26.0246V26.6829C117.095 26.8908 117.476 27.5144 117.476 28.4846C117.476 29.524 117.615 34.5305 117.234 35.2581C117.008 35.7085 116.246 35.7778 115.675 35.8298V36.644H120.906C121.53 36.644 120.958 36.696 121.391 36.4881C121.322 35.6046 120.75 35.7085 119.919 35.5006C119.555 33.9762 119.763 30.2516 119.763 28.4846C119.763 26.5616 123.089 25.7128 124.458 27.5491C125.22 28.5712 125.064 33.9588 124.821 35.0156C124.7 35.5526 124.492 35.7432 123.193 35.8471V36.5054C123.817 36.8519 127.905 36.6613 128.91 36.6613V35.8471C126.554 35.6565 127.108 34.7557 127.108 29.9744C127.108 27.5491 127.229 25.0718 123.678 25.0718C122.604 25.0718 121.513 25.5049 120.681 25.99C120.265 26.2152 120.248 26.2671 119.763 26.3884V24.76C118.654 24.7427 117.511 25.7474 116.333 26.0246Z" fill="#F00F0F"/>
<path id="Vector_4" fill-rule="evenodd" clip-rule="evenodd" d="M2.23952 18.8527C3.38287 19.4071 4.63017 18.6968 4.69947 20.4811L4.85538 27.6704H7.1421V19.9961C7.1421 18.8007 7.78307 19.0086 8.94375 19.0086C13.4825 19.0086 14.366 25.1585 11.1092 27.2027C8.42404 28.8831 1.94501 27.8263 -1 27.8263L-0.289732 28.0862C4.61285 29.2642 15.8039 30.4422 15.8039 23.2529C15.8039 20.3599 13.7944 18.6275 10.9879 18.1251C8.37207 17.6574 6.44915 18.0558 4.05849 18.0385C2.98443 18.0212 2.32613 17.8826 2.23952 18.8527Z" fill="#F00F0F"/>
<path id="Vector_5" fill-rule="evenodd" clip-rule="evenodd" d="M36.0379 25.3837C35.6914 25.4703 35.137 25.7129 34.8772 25.8688C34.3055 26.2326 34.4095 26.2152 34.5654 26.8562C36.7655 26.8562 36.0379 26.6483 36.0379 27.8437C36.0379 28.6405 36.2631 35.1369 35.882 35.518C35.0331 35.9165 34.3402 35.4314 34.2535 36.5055C34.9292 36.8346 38.0301 36.6614 39.3294 36.6787C40.4554 36.696 40.2648 36.8519 40.6286 36.1763C39.7971 35.0503 38.3419 36.8173 38.3419 33.8896C38.3419 23.9112 37.6143 27.757 42.1011 26.7003C42.3437 25.6609 42.3263 26.3885 42.1011 25.401C38.6018 25.401 38.3419 25.7995 38.3419 24.4136C38.3419 22.1962 38.6018 16.7392 41.7027 17.9519C42.5516 18.281 42.9327 19.3551 43.7296 19.3551C44.6997 19.3551 45.2194 18.5409 44.8729 17.744C44.0587 15.873 37.649 15.4053 36.4363 22.0056C36.2284 22.8891 36.0379 24.4482 36.0379 25.3837Z" fill="#F00F0F"/>
<path id="Vector_6" fill-rule="evenodd" clip-rule="evenodd" d="M109.49 26.0247C113.925 26.0247 114.029 35.9858 109.975 35.9858C106.303 35.9858 105.523 30.2343 106.944 27.7224C107.411 26.8909 108.277 26.0247 109.49 26.0247ZM103.773 30.5981V31.7415C103.773 38.5324 115.519 39.156 115.519 30.9273C115.519 22.7679 103.773 23.5301 103.773 30.5981Z" fill="#F00F0F"/>
<path id="Vector_7" fill-rule="evenodd" clip-rule="evenodd" d="M139.512 26.1979C140.863 26.3191 141.227 26.6829 141.677 27.7743L143.704 33.2659C144.917 36.3495 144.986 36.7479 143.115 39.9182C142.717 40.6111 142.63 40.9749 141.643 41.0442C140.465 41.1308 140.17 41.2348 140.17 42.3435C140.17 43.4349 140.863 43.4868 141.643 43.4868C143.15 43.4868 143.773 41.2694 144.64 39.4678L149.161 29.9398C150.079 28.0861 150.547 26.3365 152.418 26.1805V25.3663H147.359V26.1805C147.879 26.2152 148.52 26.3884 148.988 26.5097C148.97 27.3412 148.07 29.3681 147.723 30.1477C147.429 30.8406 146.493 33.1966 146.043 33.5258L144.83 30.165C144.536 29.3334 143.773 27.3066 143.756 26.5097C145.384 26.1286 145.055 26.2325 145.055 25.3663H139.997C139.477 25.3837 139.512 25.6608 139.512 26.1979Z" fill="#F00F0F"/>
<path id="Vector_8" fill-rule="evenodd" clip-rule="evenodd" d="M45.3406 28.4846C42.5169 28.4846 46.0509 26.0419 47.2982 26.0419C48.5974 26.0419 49.2557 26.7349 49.2557 27.8436C49.2557 28.6058 48.3203 28.2767 47.5061 28.3806C46.8478 28.4499 46.2414 28.4846 45.3406 28.4846ZM41.9105 31.0831C41.9105 37.5968 47.7659 37.7354 50.1739 36.0723C50.9361 35.5526 51.733 34.7557 51.5425 33.8549C49.7581 33.8895 51.2826 35.1542 47.9565 35.1542C45.1847 35.1542 43.5736 31.6375 44.0413 29.4374C46.2934 29.4374 49.6369 29.7146 51.5425 29.2815C51.5425 27.6184 51.5425 27.116 50.6936 26.2152C48.8573 24.2576 45.0807 24.8813 43.435 26.8735C42.5861 27.8782 41.9105 29.3334 41.9105 31.0831Z" fill="#F00F0F"/>
<path id="Vector_9" fill-rule="evenodd" clip-rule="evenodd" d="M132.669 28.4847H131.682C131.699 27.5492 132.063 27.272 132.634 26.8216C134.055 25.6956 136.584 25.6956 136.584 27.8264C136.584 28.5886 135.649 28.2595 134.834 28.3634C134.176 28.45 133.57 28.4847 132.669 28.4847ZM129.239 31.0832C129.239 33.1101 129.637 34.5826 131.058 35.7952C132.877 37.337 135.891 37.3024 137.589 36.0031C137.831 35.8299 139.962 33.855 138.542 33.855C137.485 33.855 138.386 35.1543 135.285 35.1543C132.842 35.1543 131.508 32.677 131.231 30.3556C131.075 29.0564 131.664 29.4375 134.644 29.4375C136.047 29.4375 137.745 29.5414 138.888 29.2816C138.905 28.5713 139.304 27.6185 138.109 26.3019C136.272 24.2404 132.461 24.864 130.763 26.8736C129.966 27.8264 129.239 29.4028 129.239 31.0832Z" fill="#F00F0F"/>
<path id="Vector_10" fill-rule="evenodd" clip-rule="evenodd" d="M17.4323 28.4846C17.6575 25.8514 22.4907 25.0892 22.4907 27.6704C22.4907 28.7445 18.5063 28.4846 17.4323 28.4846ZM15.1455 30.5981C15.1455 32.4344 15.0243 34.1841 16.7393 35.7086C18.8181 37.5622 22.7506 37.4063 24.379 35.0849C25.0027 34.2014 24.8468 33.3179 23.8593 34.2187C20.9316 36.8519 17.1204 34.0282 17.1204 29.9571C17.1204 29.1429 19.4591 29.4721 21.0356 29.4721C24.3617 29.4721 24.7948 29.8359 24.7948 28.3287C24.7948 26.3018 22.8892 25.0719 20.5505 25.0719C17.6575 25.0545 15.1455 27.757 15.1455 30.5981Z" fill="#F00F0F"/>
<path id="Vector_11" fill-rule="evenodd" clip-rule="evenodd" d="M52.3567 30.7713V31.9147C52.3567 36.5921 57.779 38.1339 60.8106 36.1243C61.3476 35.7779 62.4737 34.7904 62.4737 34.0282C62.4737 33.4045 62.5256 33.9762 62.3178 33.5431C61.4343 33.6124 61.85 33.8723 61.1224 34.4613C58.9223 36.1763 54.4875 34.9983 54.4875 30.2863C54.4875 28.1208 55.9773 26.1979 58.2467 26.1979C60.1696 26.1979 60.6893 27.8263 61.3476 27.8263C61.9366 27.8263 62.439 26.9428 61.954 25.9207C61.4862 24.9679 59.7885 25.0545 58.7491 25.0545C56.8608 25.0545 55.3537 25.7302 54.2969 26.6483C53.3268 27.4798 52.3567 29.0563 52.3567 30.7713Z" fill="#F00F0F"/>
<path id="Vector_12" fill-rule="evenodd" clip-rule="evenodd" d="M63.1321 26.683C63.5825 26.9428 63.825 26.8389 64.6046 26.8389V33.5258C64.6046 38.9827 70.6505 36.6614 70.6505 35.4833C70.6505 34.6865 70.0096 35.1369 69.6804 35.3101C69.1607 35.5873 68.9182 35.6912 68.2425 35.466C67.2897 35.1542 66.9086 34.1494 66.9086 32.8675V26.8215C70.7891 26.8215 71.0836 27.168 70.6679 25.349C66.7007 25.349 66.9606 25.7128 66.9086 24.3616C66.8913 23.7899 66.8913 23.2702 66.3369 23.4608C65.7999 23.6686 65.8346 25.0026 63.8943 25.7475C63.0455 26.1113 63.1494 25.8341 63.1321 26.683Z" fill="#F00F0F"/>
<path id="Vector_13" fill-rule="evenodd" clip-rule="evenodd" d="M25.9209 26.3538C25.9209 27.168 26.9083 26.8388 26.9083 27.653C26.9083 29.524 27.1162 33.9242 26.7524 35.4833C26.2674 35.6046 25.8169 35.7605 25.2799 35.8124V36.6267H30.9967C31.5337 36.6267 31.4818 36.3322 31.4818 35.8124C31.1699 35.8124 30.1305 35.6912 29.888 35.6046C29.4549 35.466 29.195 35.1368 29.195 34.4958V28.9523C29.195 28.1208 29.5588 26.9947 30.4943 26.9947C31.1873 26.9947 31.9148 27.653 32.1227 27.653C34.652 27.653 33.8897 23.478 30.4597 25.6608C29.9746 25.9726 29.7494 26.3711 29.195 26.5097V24.708C28.3289 24.7253 27.6186 25.2797 26.6138 25.7301C26.1807 25.9207 25.9209 25.8167 25.9209 26.3538Z" fill="#F00F0F"/>
<path id="Vector_14" fill-rule="evenodd" clip-rule="evenodd" d="M2.41272 35.8298V36.644H9.91384V35.8298C6.63968 35.7605 7.14207 34.5998 7.14207 29.628C5.80815 29.628 5.96406 29.7319 4.85535 29.472C4.85535 31.0658 4.69944 32.3304 4.69944 33.7163C4.69944 35.57 4.07579 35.6912 2.41272 35.8298Z" fill="#F00F0F"/>
<path id="Vector_15" fill-rule="evenodd" clip-rule="evenodd" d="M104.431 45.1326C104.431 43.2789 106.545 43.2443 106.545 45.1326C106.545 46.761 104.431 47.0382 104.431 45.1326ZM103.115 49.3769H104.414V47.0901C108.087 49.5501 109.126 42.6899 106.043 42.6899C104.414 42.6899 105.159 42.9325 104.241 43.175V42.6899H103.098V49.3769H103.115Z" fill="black"/>
<path id="Vector_16" fill-rule="evenodd" clip-rule="evenodd" d="M111.274 43.6602H111.43C111.967 43.6602 112.054 44.1279 112.244 44.4744H110.443C110.581 44.0586 110.772 43.6602 111.274 43.6602ZM109.161 44.6303C109.161 45.9642 109.143 47.5753 111.603 47.5753C112.244 47.5753 112.816 47.454 113.232 47.2462L113.041 46.276C112.036 46.5186 110.581 46.8997 110.46 45.4618H113.405C113.405 43.5909 113.336 42.69 111.118 42.69C110.131 42.6727 109.161 43.6602 109.161 44.6303Z" fill="black"/>
<path id="Vector_17" fill-rule="evenodd" clip-rule="evenodd" d="M85.6527 45.6176C85.6527 48.6666 88.4591 47.2114 88.6843 47.246L89.897 47.4193V42.6899H88.5977C88.5977 44.2837 88.9615 46.4492 87.7835 46.4492C86.6402 46.4492 86.9693 44.0065 86.9693 42.6899H85.67V45.6176H85.6527Z" fill="black"/>
<path id="Vector_18" fill-rule="evenodd" clip-rule="evenodd" d="M124.821 43.6601H124.977C125.48 43.6601 125.688 44.0585 125.791 44.4743H123.99C124.128 44.0585 124.319 43.6601 124.821 43.6601ZM122.708 44.9594C122.708 48.6839 126.796 47.5233 126.796 47.0728C126.796 45.9295 126.38 46.4319 125.445 46.5012C124.7 46.5531 124.094 46.2933 124.024 45.4444H127.125C127.108 41.3387 122.708 42.2222 122.708 44.9594Z" fill="black"/>
<path id="Vector_19" fill-rule="evenodd" clip-rule="evenodd" d="M119.434 42.6726H118.775V43.816H119.434V47.402H120.733V43.816H121.72V42.6726H120.733C120.768 42.2396 120.802 42.2222 120.889 41.8584C121.305 41.6159 121.322 41.7025 122.032 41.7025V40.5592C120.924 40.5592 119.486 40.4032 119.434 42.6726Z" fill="black"/>
<path id="Vector_20" fill-rule="evenodd" clip-rule="evenodd" d="M96.584 41.8584V42.6727H95.9257V43.816H96.584C96.584 46.7437 96.3068 47.5752 98.5415 47.5752C99.1478 47.5752 99.0266 47.2288 99.0266 46.4319C97.6407 46.4319 97.8832 46.276 97.8832 43.816H99.0266V42.6727H97.8832V41.5293C97.3635 41.6506 97.173 41.8065 96.584 41.8584Z" fill="black"/>
<path id="Vector_21" fill-rule="evenodd" clip-rule="evenodd" d="M133.812 41.8583V42.6725H133.154V43.8159H133.812C133.812 46.4837 133.535 47.5751 135.77 47.5751C136.376 47.5751 136.255 47.2287 136.255 46.4318C134.973 46.4318 135.735 46.5011 135.268 46.2759C135.008 45.1325 135.112 45.1845 135.112 43.8332H136.255V42.6899H135.112V41.5465C134.575 41.6505 134.401 41.8064 133.812 41.8583Z" fill="black"/>
<path id="Vector_22" fill-rule="evenodd" clip-rule="evenodd" d="M91.6986 43.9893C91.6986 45.8429 92.9459 45.1326 93.6562 46.1027C93.0845 46.9516 93.0672 46.5878 91.6986 46.2586C91.56 46.813 91.023 47.5579 92.9979 47.5579C95.094 47.5579 95.5444 45.6004 94.1412 44.7861C93.8121 44.5956 93.2924 44.509 93.0498 44.2491C92.6687 43.816 93.0845 43.6428 93.6042 43.6428C94.1066 43.6428 93.7947 43.7467 94.453 43.7987C94.6436 43.4176 94.5916 43.2097 94.7822 42.8112C94.1066 42.7766 91.6986 42.101 91.6986 43.9893Z" fill="black"/>
<path id="Vector_23" fill-rule="evenodd" clip-rule="evenodd" d="M128.252 45.1327C128.252 46.7264 129.291 47.5753 130.867 47.5753C131.422 47.5753 131.491 47.454 132.011 47.4194V46.276C128.494 47.0902 129.412 43.6602 131.023 43.6602C131.439 43.6602 131.197 43.7641 131.838 43.8161C132.461 42.5341 131.942 42.6727 130.365 42.6727C129.204 42.6727 128.252 43.868 128.252 45.1327Z" fill="black"/>
<path id="Vector_24" fill-rule="evenodd" clip-rule="evenodd" d="M82.5518 45.2885C82.5518 46.8649 81.2699 46.3799 80.7501 46.2759C80.7501 46.9169 80.6982 46.9342 80.5942 47.4193C84.6653 48.3721 83.8511 45.2712 83.8511 41.0615H82.5518V45.2885Z" fill="black"/>
<path id="Vector_25" fill-rule="evenodd" clip-rule="evenodd" d="M115.033 47.4193H116.333C116.333 44.994 116.004 44.3184 117.216 43.9372C117.667 43.7986 117.649 44.4569 117.649 42.6899C116.748 42.6899 116.697 42.8285 116.177 43.175V42.6899H115.033V47.4193Z" fill="black"/>
<path id="Vector_26" fill-rule="evenodd" clip-rule="evenodd" d="M159.607 18.922C160.058 18.9739 159.988 18.7487 159.988 20.0827C159.988 20.4465 159.988 22.1268 159.867 22.3694C159.763 22.5599 159.521 22.5253 159.278 22.5253V22.7505H160.803V22.5253C160.179 22.5253 160.214 22.6292 160.214 21.3646C160.214 21.0701 160.214 19.7015 160.231 19.5456C160.369 19.8055 160.508 20.0827 160.647 20.3425C160.716 20.4811 160.785 20.6024 160.855 20.741L161.877 22.7158C161.929 22.8198 161.981 22.6639 162.033 22.5599L163.141 20.3772C163.193 20.2905 163.522 19.6149 163.54 19.5803V22.0575C163.54 22.5773 163.505 22.4733 163.037 22.508V22.7332C163.245 22.7505 164.267 22.7332 164.562 22.7332V22.508C164.025 22.508 164.094 22.4906 164.094 21.9709C164.077 20.9662 164.094 20.1519 164.094 19.1645C164.094 18.8873 164.198 18.922 164.51 18.922V18.7141H163.574C163.54 18.7141 163.522 18.7661 163.522 18.8007L163.384 19.0952C163.314 19.2338 163.263 19.3551 163.193 19.4937C163.124 19.6322 163.072 19.7708 163.003 19.8921C162.933 20.0307 162.881 20.1693 162.812 20.2905C162.673 20.5504 162.552 20.8276 162.431 21.0874C162.362 21.226 162.31 21.3473 162.24 21.4859C162.206 21.5552 162.067 21.8497 162.05 21.8843L160.525 18.6794H159.677V18.922H159.607Z" fill="#FEFDFD"/>
<path id="Vector_27" fill-rule="evenodd" clip-rule="evenodd" d="M156.87 18.9393C156.939 18.922 157.182 18.922 157.251 18.9393C157.372 18.974 157.338 19.1299 157.338 19.2512V20.7583C157.424 20.7757 157.736 20.7583 157.857 20.7583V18.9047C158.325 18.9047 158.568 18.8874 158.845 19.1299C159.07 19.3205 159.191 19.5976 159.139 20.0481C159.105 20.4119 158.862 20.6544 158.62 20.7583C158.135 20.9835 157.113 20.9316 156.558 20.8449C156.472 20.8276 156.368 20.8103 156.281 20.793C156.402 20.8796 156.766 20.9489 156.939 20.9835C157.251 21.0355 157.546 21.0355 157.875 21.0355C158.585 21.0355 159.434 20.9662 159.659 20.2213C159.728 19.9788 159.746 19.7016 159.642 19.4591C159.486 19.026 159.07 18.7661 158.602 18.7488C158.013 18.7315 157.424 18.7488 156.853 18.7488L156.87 18.9393Z" fill="#FEFDFD"/>
<path id="Vector_28" fill-rule="evenodd" clip-rule="evenodd" d="M156.853 22.5253V22.7505H158.36V22.5253C157.771 22.5253 157.857 22.5426 157.84 21.6591C157.84 21.5379 157.857 21.3127 157.84 21.1914H157.338L157.32 22.0922C157.338 22.5773 157.268 22.4907 156.853 22.5253Z" fill="#FEFDFD"/>
</g>
</g>
<defs>
<clipPath id="clip0_6626_334">
<rect width="165" height="65" fill="white"/>
</clipPath>
</defs>
</svg>
