<svg width="645" height="242" viewBox="0 0 645 242" fill="none" xmlns="http://www.w3.org/2000/svg">
<path d="M511.604 148.014C512.279 148.366 512.807 148.85 513.188 149.466C513.569 150.082 513.76 150.793 513.76 151.6C513.76 152.861 513.313 153.91 512.418 154.746C511.523 155.582 510.431 156 509.14 156H502.54V140.6H508.656C509.917 140.6 510.981 141.011 511.846 141.832C512.726 142.639 513.166 143.651 513.166 144.868C513.166 146.203 512.645 147.251 511.604 148.014ZM508.656 142.976H505.07V147.024H508.656C509.213 147.024 509.683 146.833 510.064 146.452C510.445 146.056 510.636 145.572 510.636 145C510.636 144.428 510.445 143.951 510.064 143.57C509.683 143.174 509.213 142.976 508.656 142.976ZM509.14 153.624C509.727 153.624 510.218 153.419 510.614 153.008C511.025 152.583 511.23 152.069 511.23 151.468C511.23 150.867 511.025 150.361 510.614 149.95C510.218 149.525 509.727 149.312 509.14 149.312H505.07V153.624H509.14ZM524.633 145H527.009V156H524.633V154.416C523.738 155.663 522.455 156.286 520.783 156.286C519.272 156.286 517.982 155.729 516.911 154.614C515.84 153.485 515.305 152.113 515.305 150.5C515.305 148.872 515.84 147.501 516.911 146.386C517.982 145.271 519.272 144.714 520.783 144.714C522.455 144.714 523.738 145.33 524.633 146.562V145ZM518.671 153.03C519.331 153.69 520.16 154.02 521.157 154.02C522.154 154.02 522.983 153.69 523.643 153.03C524.303 152.355 524.633 151.512 524.633 150.5C524.633 149.488 524.303 148.652 523.643 147.992C522.983 147.317 522.154 146.98 521.157 146.98C520.16 146.98 519.331 147.317 518.671 147.992C518.011 148.652 517.681 149.488 517.681 150.5C517.681 151.512 518.011 152.355 518.671 153.03ZM531.848 148.036C531.848 148.403 532.046 148.696 532.442 148.916C532.853 149.121 533.344 149.305 533.916 149.466C534.503 149.613 535.089 149.789 535.676 149.994C536.263 150.199 536.754 150.551 537.15 151.05C537.561 151.534 537.766 152.15 537.766 152.898C537.766 153.954 537.355 154.783 536.534 155.384C535.727 155.985 534.708 156.286 533.476 156.286C532.391 156.286 531.459 156.059 530.682 155.604C529.905 155.149 529.34 154.519 528.988 153.712L531.034 152.524C531.415 153.58 532.229 154.108 533.476 154.108C534.723 154.108 535.346 153.697 535.346 152.876C535.346 152.524 535.141 152.238 534.73 152.018C534.334 151.798 533.843 151.615 533.256 151.468C532.684 151.307 532.105 151.123 531.518 150.918C530.931 150.713 530.433 150.375 530.022 149.906C529.626 149.422 529.428 148.813 529.428 148.08C529.428 147.068 529.809 146.254 530.572 145.638C531.349 145.022 532.31 144.714 533.454 144.714C534.363 144.714 535.17 144.919 535.874 145.33C536.593 145.726 537.143 146.283 537.524 147.002L535.522 148.124C535.141 147.288 534.451 146.87 533.454 146.87C532.999 146.87 532.618 146.973 532.31 147.178C532.002 147.369 531.848 147.655 531.848 148.036ZM541.445 151.512C541.621 152.348 542.025 152.993 542.655 153.448C543.286 153.888 544.056 154.108 544.965 154.108C546.227 154.108 547.173 153.653 547.803 152.744L549.761 153.888C548.676 155.487 547.07 156.286 544.943 156.286C543.154 156.286 541.709 155.743 540.609 154.658C539.509 153.558 538.959 152.172 538.959 150.5C538.959 148.857 539.502 147.486 540.587 146.386C541.673 145.271 543.066 144.714 544.767 144.714C546.381 144.714 547.701 145.279 548.727 146.408C549.769 147.537 550.289 148.909 550.289 150.522C550.289 150.771 550.26 151.101 550.201 151.512H541.445ZM541.423 149.576H547.891C547.73 148.681 547.356 148.007 546.769 147.552C546.197 147.097 545.523 146.87 544.745 146.87C543.865 146.87 543.132 147.112 542.545 147.596C541.959 148.08 541.585 148.74 541.423 149.576ZM563.072 156.286C561.415 156.286 560.029 155.729 558.914 154.614C557.814 153.499 557.264 152.128 557.264 150.5C557.264 148.857 557.814 147.486 558.914 146.386C560.029 145.271 561.415 144.714 563.072 144.714C564.143 144.714 565.118 144.971 565.998 145.484C566.878 145.997 567.538 146.687 567.978 147.552L565.932 148.74C565.683 148.212 565.301 147.801 564.788 147.508C564.289 147.2 563.71 147.046 563.05 147.046C562.082 147.046 561.268 147.376 560.608 148.036C559.963 148.696 559.64 149.517 559.64 150.5C559.64 151.483 559.963 152.304 560.608 152.964C561.268 153.624 562.082 153.954 563.05 153.954C563.695 153.954 564.275 153.8 564.788 153.492C565.316 153.184 565.712 152.773 565.976 152.26L568.022 153.426C567.553 154.306 566.878 155.003 565.998 155.516C565.118 156.029 564.143 156.286 563.072 156.286ZM577.218 145H579.594V156H577.218V154.592C576.499 155.721 575.363 156.286 573.808 156.286C572.547 156.286 571.527 155.883 570.75 155.076C569.973 154.269 569.584 153.162 569.584 151.754V145H571.96V151.512C571.96 152.333 572.18 152.964 572.62 153.404C573.06 153.844 573.661 154.064 574.424 154.064C575.26 154.064 575.935 153.807 576.448 153.294C576.961 152.766 577.218 151.967 577.218 150.896V145ZM584.748 146.848C585.35 145.484 586.479 144.802 588.136 144.802V147.376C587.227 147.317 586.435 147.537 585.76 148.036C585.086 148.52 584.748 149.327 584.748 150.456V156H582.372V145H584.748V146.848ZM592.268 146.848C592.869 145.484 593.999 144.802 595.656 144.802V147.376C594.747 147.317 593.955 147.537 593.28 148.036C592.605 148.52 592.268 149.327 592.268 150.456V156H589.892V145H592.268V146.848ZM598.766 151.512C598.942 152.348 599.345 152.993 599.976 153.448C600.606 153.888 601.376 154.108 602.286 154.108C603.547 154.108 604.493 153.653 605.124 152.744L607.082 153.888C605.996 155.487 604.39 156.286 602.264 156.286C600.474 156.286 599.03 155.743 597.93 154.658C596.83 153.558 596.28 152.172 596.28 150.5C596.28 148.857 596.822 147.486 597.908 146.386C598.993 145.271 600.386 144.714 602.088 144.714C603.701 144.714 605.021 145.279 606.048 146.408C607.089 147.537 607.61 148.909 607.61 150.522C607.61 150.771 607.58 151.101 607.522 151.512H598.766ZM598.744 149.576H605.212C605.05 148.681 604.676 148.007 604.09 147.552C603.518 147.097 602.843 146.87 602.066 146.87C601.186 146.87 600.452 147.112 599.866 147.596C599.279 148.08 598.905 148.74 598.744 149.576ZM615.486 144.714C616.748 144.714 617.767 145.117 618.544 145.924C619.322 146.731 619.71 147.838 619.71 149.246V156H617.334V149.488C617.334 148.667 617.114 148.036 616.674 147.596C616.234 147.156 615.633 146.936 614.87 146.936C614.034 146.936 613.36 147.2 612.846 147.728C612.333 148.241 612.076 149.033 612.076 150.104V156H609.7V145H612.076V146.408C612.795 145.279 613.932 144.714 615.486 144.714ZM627.461 156.286C625.803 156.286 624.417 155.729 623.303 154.614C622.203 153.499 621.653 152.128 621.653 150.5C621.653 148.857 622.203 147.486 623.303 146.386C624.417 145.271 625.803 144.714 627.461 144.714C628.531 144.714 629.507 144.971 630.387 145.484C631.267 145.997 631.927 146.687 632.367 147.552L630.321 148.74C630.071 148.212 629.69 147.801 629.177 147.508C628.678 147.2 628.099 147.046 627.439 147.046C626.471 147.046 625.657 147.376 624.997 148.036C624.351 148.696 624.029 149.517 624.029 150.5C624.029 151.483 624.351 152.304 624.997 152.964C625.657 153.624 626.471 153.954 627.439 153.954C628.084 153.954 628.663 153.8 629.177 153.492C629.705 153.184 630.101 152.773 630.365 152.26L632.411 153.426C631.941 154.306 631.267 155.003 630.387 155.516C629.507 156.029 628.531 156.286 627.461 156.286ZM641.607 145H644.137L639.913 156.352C638.857 159.197 637.067 160.547 634.545 160.4V158.178C635.293 158.222 635.894 158.061 636.349 157.694C636.803 157.342 637.177 156.785 637.471 156.022L637.581 155.802L632.917 145H635.513L638.791 152.986L641.607 145Z" fill="#0792FF"/>
<path d="M6.666 156.286C5.18467 156.286 3.92333 155.949 2.882 155.274C1.85533 154.599 1.13667 153.675 0.726 152.502L2.904 151.226C3.52 152.957 4.796 153.822 6.732 153.822C7.68533 153.822 8.39667 153.639 8.866 153.272C9.35 152.891 9.592 152.399 9.592 151.798C9.592 151.167 9.33533 150.691 8.822 150.368C8.30867 150.031 7.39933 149.664 6.094 149.268C5.36067 149.048 4.76667 148.843 4.312 148.652C3.85733 148.461 3.37333 148.197 2.86 147.86C2.36133 147.508 1.98733 147.075 1.738 146.562C1.48867 146.049 1.364 145.447 1.364 144.758C1.364 143.394 1.848 142.316 2.816 141.524C3.784 140.717 4.95 140.314 6.314 140.314C7.546 140.314 8.624 140.615 9.548 141.216C10.472 141.817 11.1833 142.646 11.682 143.702L9.548 144.934C8.90267 143.497 7.82467 142.778 6.314 142.778C5.58067 142.778 4.994 142.954 4.554 143.306C4.114 143.643 3.894 144.105 3.894 144.692C3.894 145.264 4.114 145.719 4.554 146.056C5.00867 146.379 5.82267 146.723 6.996 147.09C7.58267 147.281 8.008 147.427 8.272 147.53C8.55067 147.618 8.932 147.765 9.416 147.97C9.91467 148.175 10.2887 148.381 10.538 148.586C10.7873 148.791 11.0513 149.048 11.33 149.356C11.6233 149.664 11.8287 150.016 11.946 150.412C12.0633 150.808 12.122 151.255 12.122 151.754C12.122 153.147 11.616 154.255 10.604 155.076C9.60667 155.883 8.294 156.286 6.666 156.286ZM19.9635 147.288H17.2355V152.568C17.2355 153.023 17.3381 153.353 17.5435 153.558C17.7488 153.749 18.0495 153.859 18.4455 153.888C18.8561 153.903 19.3621 153.895 19.9635 153.866V156C18.1448 156.22 16.8395 156.066 16.0475 155.538C15.2555 154.995 14.8595 154.005 14.8595 152.568V147.288H12.8355V145H14.8595V142.624L17.2355 141.92V145H19.9635V147.288ZM30.3793 145H32.7553V156H30.3793V154.416C29.4846 155.663 28.2013 156.286 26.5293 156.286C25.0186 156.286 23.7279 155.729 22.6573 154.614C21.5866 153.485 21.0513 152.113 21.0513 150.5C21.0513 148.872 21.5866 147.501 22.6573 146.386C23.7279 145.271 25.0186 144.714 26.5293 144.714C28.2013 144.714 29.4846 145.33 30.3793 146.562V145ZM24.4173 153.03C25.0773 153.69 25.9059 154.02 26.9033 154.02C27.9006 154.02 28.7293 153.69 29.3893 153.03C30.0493 152.355 30.3793 151.512 30.3793 150.5C30.3793 149.488 30.0493 148.652 29.3893 147.992C28.7293 147.317 27.9006 146.98 26.9033 146.98C25.9059 146.98 25.0773 147.317 24.4173 147.992C23.7573 148.652 23.4273 149.488 23.4273 150.5C23.4273 151.512 23.7573 152.355 24.4173 153.03ZM41.3107 144.714C42.572 144.714 43.5913 145.117 44.3687 145.924C45.146 146.731 45.5347 147.838 45.5347 149.246V156H43.1587V149.488C43.1587 148.667 42.9387 148.036 42.4987 147.596C42.0587 147.156 41.4573 146.936 40.6947 146.936C39.8587 146.936 39.184 147.2 38.6707 147.728C38.1573 148.241 37.9007 149.033 37.9007 150.104V156H35.5247V145H37.9007V146.408C38.6193 145.279 39.756 144.714 41.3107 144.714ZM56.805 140.6H59.181V156H56.805V154.416C55.9104 155.663 54.627 156.286 52.955 156.286C51.4444 156.286 50.1537 155.729 49.083 154.614C48.0124 153.485 47.477 152.113 47.477 150.5C47.477 148.872 48.0124 147.501 49.083 146.386C50.1537 145.271 51.4444 144.714 52.955 144.714C54.627 144.714 55.9104 145.33 56.805 146.562V140.6ZM50.843 153.03C51.503 153.69 52.3317 154.02 53.329 154.02C54.3264 154.02 55.155 153.69 55.815 153.03C56.475 152.355 56.805 151.512 56.805 150.5C56.805 149.488 56.475 148.652 55.815 147.992C55.155 147.317 54.3264 146.98 53.329 146.98C52.3317 146.98 51.503 147.317 50.843 147.992C50.183 148.652 49.853 149.488 49.853 150.5C49.853 151.512 50.183 152.355 50.843 153.03ZM70.6625 145H73.0385V156H70.6625V154.416C69.7678 155.663 68.4845 156.286 66.8125 156.286C65.3018 156.286 64.0111 155.729 62.9405 154.614C61.8698 153.485 61.3345 152.113 61.3345 150.5C61.3345 148.872 61.8698 147.501 62.9405 146.386C64.0111 145.271 65.3018 144.714 66.8125 144.714C68.4845 144.714 69.7678 145.33 70.6625 146.562V145ZM64.7005 153.03C65.3605 153.69 66.1891 154.02 67.1865 154.02C68.1838 154.02 69.0125 153.69 69.6725 153.03C70.3325 152.355 70.6625 151.512 70.6625 150.5C70.6625 149.488 70.3325 148.652 69.6725 147.992C69.0125 147.317 68.1838 146.98 67.1865 146.98C66.1891 146.98 65.3605 147.317 64.7005 147.992C64.0405 148.652 63.7105 149.488 63.7105 150.5C63.7105 151.512 64.0405 152.355 64.7005 153.03ZM78.1839 146.848C78.7852 145.484 79.9145 144.802 81.5719 144.802V147.376C80.6625 147.317 79.8705 147.537 79.1959 148.036C78.5212 148.52 78.1839 149.327 78.1839 150.456V156H75.8079V145H78.1839V146.848ZM91.5238 140.6H93.8998V156H91.5238V154.416C90.6291 155.663 89.3458 156.286 87.6738 156.286C86.1631 156.286 84.8724 155.729 83.8018 154.614C82.7311 153.485 82.1958 152.113 82.1958 150.5C82.1958 148.872 82.7311 147.501 83.8018 146.386C84.8724 145.271 86.1631 144.714 87.6738 144.714C89.3458 144.714 90.6291 145.33 91.5238 146.562V140.6ZM85.5618 153.03C86.2218 153.69 87.0504 154.02 88.0478 154.02C89.0451 154.02 89.8738 153.69 90.5338 153.03C91.1938 152.355 91.5238 151.512 91.5238 150.5C91.5238 149.488 91.1938 148.652 90.5338 147.992C89.8738 147.317 89.0451 146.98 88.0478 146.98C87.0504 146.98 86.2218 147.317 85.5618 147.992C84.9018 148.652 84.5718 149.488 84.5718 150.5C84.5718 151.512 84.9018 152.355 85.5618 153.03ZM102.169 156V139.94H104.545V156H102.169ZM112.496 156.286C110.883 156.286 109.511 155.729 108.382 154.614C107.253 153.499 106.688 152.128 106.688 150.5C106.688 148.872 107.253 147.501 108.382 146.386C109.511 145.271 110.883 144.714 112.496 144.714C114.124 144.714 115.495 145.271 116.61 146.386C117.739 147.501 118.304 148.872 118.304 150.5C118.304 152.128 117.739 153.499 116.61 154.614C115.495 155.729 114.124 156.286 112.496 156.286ZM110.054 152.986C110.714 153.646 111.528 153.976 112.496 153.976C113.464 153.976 114.278 153.646 114.938 152.986C115.598 152.326 115.928 151.497 115.928 150.5C115.928 149.503 115.598 148.674 114.938 148.014C114.278 147.354 113.464 147.024 112.496 147.024C111.528 147.024 110.714 147.354 110.054 148.014C109.394 148.674 109.064 149.503 109.064 150.5C109.064 151.497 109.394 152.326 110.054 152.986ZM126.376 147.288H123.648V152.568C123.648 153.023 123.75 153.353 123.956 153.558C124.161 153.749 124.462 153.859 124.858 153.888C125.268 153.903 125.774 153.895 126.376 153.866V156C124.557 156.22 123.252 156.066 122.46 155.538C121.668 154.995 121.272 154.005 121.272 152.568V147.288H119.248V145H121.272V142.624L123.648 141.92V145H126.376V147.288ZM133.852 147.156V144.912H143.312V147.156H133.852ZM133.852 151.666V149.422H143.312V151.666H133.852Z" fill="#0792FF"/>
<g filter="url(#filter0_d_1512_768)">
<rect x="415" y="114" width="65" height="65" rx="12" fill="#0792FF"/>
</g>
<g filter="url(#filter1_d_1512_768)">
<rect x="159" y="114" width="189" height="65" rx="12" fill="#0792FF"/>
</g>
<path d="M450.317 152.744C450.317 155.181 449.529 157.173 447.952 158.721C446.404 160.24 444.369 161.158 441.846 161.473V165.3H439.051V161.516C436.672 161.373 434.636 160.728 432.945 159.581C431.254 158.434 430.035 156.872 429.29 154.894L433.547 152.443C434.55 154.966 436.385 156.37 439.051 156.657V147.713C437.761 147.226 436.715 146.796 435.912 146.423C435.109 146.022 434.249 145.477 433.332 144.789C432.443 144.101 431.77 143.27 431.311 142.295C430.881 141.292 430.666 140.131 430.666 138.812C430.666 136.404 431.469 134.455 433.074 132.964C434.679 131.473 436.672 130.613 439.051 130.384V126.6H441.846V130.427C445.687 130.943 448.353 132.907 449.844 136.318L445.673 138.726C444.928 136.863 443.652 135.73 441.846 135.329V143.843C442.763 144.187 443.451 144.459 443.91 144.66C444.397 144.861 445.028 145.162 445.802 145.563C446.605 145.964 447.221 146.366 447.651 146.767C448.081 147.168 448.525 147.656 448.984 148.229C449.471 148.802 449.815 149.476 450.016 150.25C450.217 150.995 450.317 151.827 450.317 152.744ZM435.611 138.812C435.611 139.701 435.869 140.432 436.385 141.005C436.93 141.578 437.818 142.152 439.051 142.725V135.243C437.99 135.415 437.145 135.816 436.514 136.447C435.912 137.078 435.611 137.866 435.611 138.812ZM441.846 156.614C442.993 156.385 443.867 155.926 444.469 155.238C445.071 154.55 445.372 153.733 445.372 152.787C445.372 151.841 445.085 151.081 444.512 150.508C443.939 149.906 443.05 149.333 441.846 148.788V156.614ZM460.071 130.9H464.371V161H459.426V136.189L453.363 137.909L452.159 133.695L460.071 130.9Z" fill="white"/>
<path d="M180.471 130.9H184.771V161H179.826V136.189L173.763 137.909L172.559 133.695L180.471 130.9ZM210.23 157.302C208.166 160.14 205.271 161.559 201.544 161.559C197.817 161.559 194.908 160.14 192.815 157.302C190.751 154.464 189.719 150.68 189.719 145.95C189.719 141.22 190.751 137.436 192.815 134.598C194.908 131.76 197.817 130.341 201.544 130.341C205.271 130.341 208.166 131.76 210.23 134.598C212.323 137.436 213.369 141.22 213.369 145.95C213.369 150.68 212.323 154.464 210.23 157.302ZM201.544 156.743C203.78 156.743 205.486 155.811 206.661 153.948C207.836 152.085 208.424 149.419 208.424 145.95C208.424 142.481 207.836 139.815 206.661 137.952C205.486 136.089 203.78 135.157 201.544 135.157C199.337 135.157 197.631 136.089 196.427 137.952C195.252 139.815 194.664 142.481 194.664 145.95C194.664 149.419 195.252 152.085 196.427 153.948C197.631 155.811 199.337 156.743 201.544 156.743ZM237.315 157.302C235.251 160.14 232.356 161.559 228.629 161.559C224.902 161.559 221.993 160.14 219.9 157.302C217.836 154.464 216.804 150.68 216.804 145.95C216.804 141.22 217.836 137.436 219.9 134.598C221.993 131.76 224.902 130.341 228.629 130.341C232.356 130.341 235.251 131.76 237.315 134.598C239.408 137.436 240.454 141.22 240.454 145.95C240.454 150.68 239.408 154.464 237.315 157.302ZM228.629 156.743C230.865 156.743 232.571 155.811 233.746 153.948C234.921 152.085 235.509 149.419 235.509 145.95C235.509 142.481 234.921 139.815 233.746 137.952C232.571 136.089 230.865 135.157 228.629 135.157C226.422 135.157 224.716 136.089 223.512 137.952C222.337 139.815 221.749 142.481 221.749 145.95C221.749 149.419 222.337 152.085 223.512 153.948C224.716 155.811 226.422 156.743 228.629 156.743ZM250.026 155.84L247.016 167.02H243.146L244.866 155.84H250.026ZM273.176 157.302C271.112 160.14 268.217 161.559 264.49 161.559C260.764 161.559 257.854 160.14 255.761 157.302C253.697 154.464 252.665 150.68 252.665 145.95C252.665 141.22 253.697 137.436 255.761 134.598C257.854 131.76 260.764 130.341 264.49 130.341C268.217 130.341 271.112 131.76 273.176 134.598C275.269 137.436 276.315 141.22 276.315 145.95C276.315 150.68 275.269 154.464 273.176 157.302ZM264.49 156.743C266.726 156.743 268.432 155.811 269.607 153.948C270.783 152.085 271.37 149.419 271.37 145.95C271.37 142.481 270.783 139.815 269.607 137.952C268.432 136.089 266.726 135.157 264.49 135.157C262.283 135.157 260.577 136.089 259.373 137.952C258.198 139.815 257.61 142.481 257.61 145.95C257.61 149.419 258.198 152.085 259.373 153.948C260.577 155.811 262.283 156.743 264.49 156.743ZM300.261 157.302C298.197 160.14 295.302 161.559 291.575 161.559C287.849 161.559 284.939 160.14 282.846 157.302C280.782 154.464 279.75 150.68 279.75 145.95C279.75 141.22 280.782 137.436 282.846 134.598C284.939 131.76 287.849 130.341 291.575 130.341C295.302 130.341 298.197 131.76 300.261 134.598C302.354 137.436 303.4 141.22 303.4 145.95C303.4 150.68 302.354 154.464 300.261 157.302ZM291.575 156.743C293.811 156.743 295.517 155.811 296.692 153.948C297.868 152.085 298.455 149.419 298.455 145.95C298.455 142.481 297.868 139.815 296.692 137.952C295.517 136.089 293.811 135.157 291.575 135.157C289.368 135.157 287.662 136.089 286.458 137.952C285.283 139.815 284.695 142.481 284.695 145.95C284.695 149.419 285.283 152.085 286.458 153.948C287.662 155.811 289.368 156.743 291.575 156.743ZM327.346 157.302C325.282 160.14 322.387 161.559 318.66 161.559C314.934 161.559 312.024 160.14 309.931 157.302C307.867 154.464 306.835 150.68 306.835 145.95C306.835 141.22 307.867 137.436 309.931 134.598C312.024 131.76 314.934 130.341 318.66 130.341C322.387 130.341 325.282 131.76 327.346 134.598C329.439 137.436 330.485 141.22 330.485 145.95C330.485 150.68 329.439 154.464 327.346 157.302ZM318.66 156.743C320.896 156.743 322.602 155.811 323.777 153.948C324.953 152.085 325.54 149.419 325.54 145.95C325.54 142.481 324.953 139.815 323.777 137.952C322.602 136.089 320.896 135.157 318.66 135.157C316.453 135.157 314.747 136.089 313.543 137.952C312.368 139.815 311.78 142.481 311.78 145.95C311.78 149.419 312.368 152.085 313.543 153.948C314.747 155.811 316.453 156.743 318.66 156.743Z" fill="white"/>
<path d="M390.46 144.46V148.78L385.06 148.42L388.24 152.74L384.52 155.02L381.88 150.04L379.24 155.02L375.52 152.74L378.76 148.42L373.3 148.78V144.46L378.76 144.82L375.52 140.5L379.24 138.22L381.88 143.2L384.52 138.22L388.24 140.5L385.06 144.82L390.46 144.46Z" fill="#0792FF"/>
<path d="M454.144 200.9L445.63 215.649H450.446V218.788H443.781L443.652 219.046V220.938H450.446V224.077H443.652V231H438.707V224.077H431.096V220.938H438.707V219.046L438.578 218.788H431.096V215.649H436.729L428.215 200.9H433.848L441.201 214.23L448.511 200.9H454.144ZM461.96 200.9H466.26V231H461.315V206.189L455.252 207.909L454.048 203.695L461.96 200.9Z" fill="#202121"/>
<path d="M448.941 88.873L453.069 91.238C451.177 95.452 447.981 97.559 443.48 97.559C440.298 97.559 437.689 96.5127 435.654 94.42C433.647 92.3273 432.372 89.4607 431.827 85.82H428.774V82.767H431.569V81.95C431.569 81.434 431.583 81.047 431.612 80.789H428.774V77.736H431.913C432.486 74.21 433.776 71.4293 435.783 69.394C437.79 67.3587 440.355 66.341 443.48 66.341C447.895 66.341 451.048 68.3763 452.94 72.447L448.855 74.812C447.737 72.3753 445.945 71.157 443.48 71.157C441.76 71.157 440.341 71.7303 439.223 72.877C438.105 73.995 437.331 75.6147 436.901 77.736H446.404V80.789H436.557C436.528 81.047 436.514 81.434 436.514 81.95V82.767H446.404V85.82H436.815C437.216 88.056 437.99 89.776 439.137 90.98C440.284 92.1553 441.731 92.743 443.48 92.743C446.003 92.743 447.823 91.453 448.941 88.873ZM462.506 66.9H466.806V97H461.861V72.189L455.798 73.909L454.594 69.695L462.506 66.9Z" fill="#202121"/>
<path d="M437.89 35.227H452.51V40H429.505V35.227H432.945V28.003H430.15V23.66H432.945V18.586C432.945 15.6047 433.862 13.3257 435.697 11.749C437.532 10.1437 439.696 9.341 442.19 9.341C444.311 9.341 446.146 9.87133 447.694 10.932C449.242 11.9927 450.403 13.4833 451.177 15.404L446.963 17.812C446.132 15.3753 444.584 14.157 442.319 14.157C441.058 14.157 439.997 14.544 439.137 15.318C438.306 16.092 437.89 17.2387 437.89 18.758V23.66H447.049V28.003H437.89V35.227ZM461.96 9.9H466.26V40H461.315V15.189L455.252 16.909L454.048 12.695L461.96 9.9Z" fill="#202121"/>
<defs>
<filter id="filter0_d_1512_768" x="387" y="92" width="121" height="121" filterUnits="userSpaceOnUse" color-interpolation-filters="sRGB">
<feFlood flood-opacity="0" result="BackgroundImageFix"/>
<feColorMatrix in="SourceAlpha" type="matrix" values="0 0 0 0 0 0 0 0 0 0 0 0 0 0 0 0 0 0 127 0" result="hardAlpha"/>
<feOffset dy="6"/>
<feGaussianBlur stdDeviation="14"/>
<feComposite in2="hardAlpha" operator="out"/>
<feColorMatrix type="matrix" values="0 0 0 0 0.027451 0 0 0 0 0.572549 0 0 0 0 1 0 0 0 0.29 0"/>
<feBlend mode="normal" in2="BackgroundImageFix" result="effect1_dropShadow_1512_768"/>
<feBlend mode="normal" in="SourceGraphic" in2="effect1_dropShadow_1512_768" result="shape"/>
</filter>
<filter id="filter1_d_1512_768" x="131" y="92" width="245" height="121" filterUnits="userSpaceOnUse" color-interpolation-filters="sRGB">
<feFlood flood-opacity="0" result="BackgroundImageFix"/>
<feColorMatrix in="SourceAlpha" type="matrix" values="0 0 0 0 0 0 0 0 0 0 0 0 0 0 0 0 0 0 127 0" result="hardAlpha"/>
<feOffset dy="6"/>
<feGaussianBlur stdDeviation="14"/>
<feComposite in2="hardAlpha" operator="out"/>
<feColorMatrix type="matrix" values="0 0 0 0 0.027451 0 0 0 0 0.572549 0 0 0 0 1 0 0 0 0.29 0"/>
<feBlend mode="normal" in2="BackgroundImageFix" result="effect1_dropShadow_1512_768"/>
<feBlend mode="normal" in="SourceGraphic" in2="effect1_dropShadow_1512_768" result="shape"/>
</filter>
</defs>
</svg>
