<svg width="238" height="136" viewBox="0 0 238 136" fill="none" xmlns="http://www.w3.org/2000/svg">
<path d="M42.955 35.27H56.285V40H38.01V9.9H56.07V14.63H42.955V22.456H54.995V27.143H42.955V35.27ZM80.1188 37.721C77.9974 39.613 75.2598 40.559 71.9058 40.559C68.5518 40.559 65.8141 39.613 63.6928 37.721C61.5714 35.8003 60.5108 33.2347 60.5108 30.024V9.9H65.4558V29.723C65.4558 31.5577 65.9861 33.0197 67.0468 34.109C68.1361 35.1983 69.7558 35.743 71.9058 35.743C74.0558 35.743 75.6611 35.1983 76.7218 34.109C77.8111 33.0197 78.3558 31.5577 78.3558 29.723V9.9H83.3008V30.024C83.3008 33.2347 82.2401 35.8003 80.1188 37.721ZM106.146 40L99.7815 29.035H93.9335V40H88.9885V9.9H101.029C103.723 9.9 106.002 10.846 107.866 12.738C109.758 14.6013 110.704 16.8803 110.704 19.575C110.704 21.4957 110.145 23.2587 109.027 24.864C107.937 26.4407 106.504 27.5873 104.727 28.304L111.564 40H106.146ZM93.9335 14.544V24.606H101.029C102.347 24.606 103.465 24.1187 104.383 23.144C105.3 22.1693 105.759 20.9797 105.759 19.575C105.759 18.1703 105.3 16.9807 104.383 16.006C103.465 15.0313 102.347 14.544 101.029 14.544H93.9335ZM116.22 44.3H113.855L131.055 5.6H133.42L116.22 44.3ZM157.258 37.721C155.137 39.613 152.399 40.559 149.045 40.559C145.691 40.559 142.954 39.613 140.832 37.721C138.711 35.8003 137.65 33.2347 137.65 30.024V9.9H142.595V29.723C142.595 31.5577 143.126 33.0197 144.186 34.109C145.276 35.1983 146.895 35.743 149.045 35.743C151.195 35.743 152.801 35.1983 153.861 34.109C154.951 33.0197 155.495 31.5577 155.495 29.723V9.9H160.44V30.024C160.44 33.2347 159.38 35.8003 157.258 37.721ZM176.147 40.559C173.252 40.559 170.786 39.8997 168.751 38.581C166.744 37.2623 165.34 35.4563 164.537 33.163L168.794 30.669C169.998 34.0517 172.492 35.743 176.276 35.743C178.139 35.743 179.53 35.3847 180.447 34.668C181.393 33.9227 181.866 32.9623 181.866 31.787C181.866 30.5543 181.364 29.6227 180.361 28.992C179.358 28.3327 177.58 27.616 175.029 26.842C173.596 26.412 172.435 26.0107 171.546 25.638C170.657 25.2653 169.711 24.7493 168.708 24.09C167.733 23.402 167.002 22.5563 166.515 21.553C166.028 20.5497 165.784 19.3743 165.784 18.027C165.784 15.361 166.73 13.254 168.622 11.706C170.514 10.1293 172.793 9.341 175.459 9.341C177.867 9.341 179.974 9.92866 181.78 11.104C183.586 12.2793 184.976 13.899 185.951 15.963L181.78 18.371C180.519 15.5617 178.412 14.157 175.459 14.157C174.026 14.157 172.879 14.501 172.019 15.189C171.159 15.8483 170.729 16.7513 170.729 17.898C170.729 19.016 171.159 19.9047 172.019 20.564C172.908 21.1947 174.499 21.8683 176.792 22.585C177.939 22.9577 178.77 23.2443 179.286 23.445C179.831 23.617 180.576 23.9037 181.522 24.305C182.497 24.7063 183.228 25.1077 183.715 25.509C184.202 25.9103 184.718 26.412 185.263 27.014C185.836 27.616 186.238 28.304 186.467 29.078C186.696 29.852 186.811 30.7263 186.811 31.701C186.811 34.4243 185.822 36.5887 183.844 38.194C181.895 39.7707 179.329 40.559 176.147 40.559ZM202.687 9.9C206.815 9.9 210.24 11.3477 212.964 14.243C215.716 17.1383 217.092 20.7073 217.092 24.95C217.092 29.164 215.716 32.733 212.964 35.657C210.24 38.5523 206.815 40 202.687 40H190.862V9.9H202.687ZM202.687 35.27C205.525 35.27 207.832 34.2953 209.61 32.346C211.416 30.3967 212.319 27.9313 212.319 24.95C212.319 21.94 211.416 19.4747 209.61 17.554C207.832 15.6047 205.525 14.63 202.687 14.63H195.807V35.27H202.687Z" fill="#0792FF"/>
<path d="M4.334 63.6H6.534V79H4.004V66.306L0.902 67.186L0.286 65.03L4.334 63.6ZM12.1675 78.78C11.8449 79.1027 11.4562 79.264 11.0015 79.264C10.5469 79.264 10.1582 79.1027 9.83555 78.78C9.51288 78.4573 9.35155 78.0687 9.35155 77.614C9.35155 77.1593 9.50555 76.7707 9.81355 76.448C10.1362 76.1253 10.5322 75.964 11.0015 75.964C11.4562 75.964 11.8449 76.1253 12.1675 76.448C12.4902 76.7707 12.6515 77.1593 12.6515 77.614C12.6515 78.0687 12.4902 78.4573 12.1675 78.78ZM21.141 69.892C22.2556 70.156 23.1576 70.6767 23.847 71.454C24.551 72.2167 24.903 73.1773 24.903 74.336C24.903 75.876 24.3823 77.086 23.341 77.966C22.2996 78.846 21.0236 79.286 19.513 79.286C18.3396 79.286 17.2836 79.0147 16.345 78.472C15.421 77.9293 14.7536 77.1373 14.343 76.096L16.499 74.842C16.9536 76.162 17.9583 76.822 19.513 76.822C20.393 76.822 21.0896 76.602 21.603 76.162C22.1163 75.7073 22.373 75.0987 22.373 74.336C22.373 73.5733 22.1163 72.972 21.603 72.532C21.0896 72.092 20.393 71.872 19.513 71.872H18.941L17.929 70.354L21.251 65.976H14.805V63.6H24.265V65.756L21.141 69.892ZM31.6164 69.408C33.0831 69.408 34.3224 69.848 35.3344 70.728C36.3464 71.5933 36.8524 72.796 36.8524 74.336C36.8524 75.876 36.3317 77.086 35.2904 77.966C34.2491 78.846 32.9731 79.286 31.4624 79.286C30.2451 79.286 29.1671 79.0073 28.2284 78.45C27.2897 77.878 26.6224 77.0567 26.2264 75.986L28.4044 74.732C28.8151 76.1253 29.8344 76.822 31.4624 76.822C32.3277 76.822 33.0171 76.602 33.5304 76.162C34.0584 75.7073 34.3224 75.0987 34.3224 74.336C34.3224 73.5733 34.0657 72.972 33.5524 72.532C33.0391 72.092 32.3571 71.872 31.5064 71.872H27.0184L27.6124 63.6H36.1924V65.976H29.9444L29.6804 69.408H31.6164ZM44.6878 69.892C45.8025 70.156 46.7045 70.6767 47.3938 71.454C48.0978 72.2167 48.4498 73.1773 48.4498 74.336C48.4498 75.876 47.9292 77.086 46.8878 77.966C45.8465 78.846 44.5705 79.286 43.0598 79.286C41.8865 79.286 40.8305 79.0147 39.8918 78.472C38.9678 77.9293 38.3005 77.1373 37.8898 76.096L40.0458 74.842C40.5005 76.162 41.5052 76.822 43.0598 76.822C43.9398 76.822 44.6365 76.602 45.1498 76.162C45.6632 75.7073 45.9198 75.0987 45.9198 74.336C45.9198 73.5733 45.6632 72.972 45.1498 72.532C44.6365 72.092 43.9398 71.872 43.0598 71.872H42.4878L41.4758 70.354L44.7978 65.976H38.3518V63.6H47.8118V65.756L44.6878 69.892ZM65.543 63.6H67.743V79H65.213V66.306L62.111 67.186L61.495 65.03L65.543 63.6Z" fill="#474D65"/>
<path d="M55.2267 68.77C56.8254 68.77 58.1307 69.2613 59.1427 70.244C60.1547 71.212 60.6607 72.4733 60.6607 74.028C60.6607 75.5827 60.1547 76.8513 59.1427 77.834C58.1307 78.802 56.8254 79.286 55.2267 79.286C53.6134 79.286 52.3007 78.802 51.2887 77.834C50.2767 76.8513 49.7707 75.5827 49.7707 74.028C49.7707 72.8547 50.0787 71.8207 50.6947 70.926L55.5787 63.6H58.4607L54.9407 68.77H55.2267ZM55.2267 76.888C56.0774 76.888 56.774 76.6313 57.3167 76.118C57.8594 75.59 58.1307 74.8933 58.1307 74.028C58.1307 73.1627 57.8594 72.4733 57.3167 71.96C56.774 71.432 56.0774 71.168 55.2267 71.168C54.3614 71.168 53.6574 71.432 53.1147 71.96C52.572 72.4733 52.3007 73.1627 52.3007 74.028C52.3007 74.8933 52.572 75.59 53.1147 76.118C53.6574 76.6313 54.3614 76.888 55.2267 76.888Z" fill="#0792FF"/>
<path d="M118.862 127.326C117.602 128.586 116.06 129.216 114.236 129.216C112.412 129.216 110.87 128.586 109.61 127.326C108.35 126.054 107.72 124.512 107.72 122.7C107.72 120.888 108.35 119.352 109.61 118.092C110.87 116.82 112.412 116.184 114.236 116.184C116.06 116.184 117.602 116.82 118.862 118.092C120.122 119.352 120.752 120.888 120.752 122.7C120.752 124.512 120.122 126.054 118.862 127.326ZM110.492 126.462C111.5 127.482 112.748 127.992 114.236 127.992C115.724 127.992 116.972 127.482 117.98 126.462C118.988 125.43 119.492 124.176 119.492 122.7C119.492 121.224 118.988 119.976 117.98 118.956C116.972 117.924 115.724 117.408 114.236 117.408C112.748 117.408 111.5 117.924 110.492 118.956C109.484 119.976 108.98 121.224 108.98 122.7C108.98 124.176 109.484 125.43 110.492 126.462ZM126.939 119.784C128.031 119.784 128.889 120.12 129.513 120.792C130.149 121.452 130.467 122.346 130.467 123.474V129H129.279V123.474C129.279 122.67 129.063 122.046 128.631 121.602C128.211 121.158 127.611 120.936 126.831 120.936C125.967 120.936 125.265 121.212 124.725 121.764C124.185 122.304 123.915 123.144 123.915 124.284V129H122.727V120H123.915V121.404C124.587 120.324 125.595 119.784 126.939 119.784ZM136.922 119.784C138.254 119.784 139.328 120.258 140.144 121.206C140.972 122.142 141.386 123.252 141.386 124.536C141.386 124.668 141.374 124.854 141.35 125.094H133.448C133.568 126.006 133.952 126.732 134.6 127.272C135.26 127.8 136.07 128.064 137.03 128.064C137.714 128.064 138.302 127.926 138.794 127.65C139.298 127.362 139.676 126.99 139.928 126.534L140.972 127.146C140.576 127.782 140.036 128.286 139.352 128.658C138.668 129.03 137.888 129.216 137.012 129.216C135.596 129.216 134.444 128.772 133.556 127.884C132.668 126.996 132.224 125.868 132.224 124.5C132.224 123.156 132.662 122.034 133.538 121.134C134.414 120.234 135.542 119.784 136.922 119.784ZM136.922 120.936C135.986 120.936 135.2 121.218 134.564 121.782C133.94 122.334 133.568 123.054 133.448 123.942H140.162C140.042 122.994 139.676 122.256 139.064 121.728C138.452 121.2 137.738 120.936 136.922 120.936ZM152.6 119.784C153.884 119.784 154.976 120.24 155.876 121.152C156.788 122.064 157.244 123.18 157.244 124.5C157.244 125.82 156.788 126.936 155.876 127.848C154.976 128.76 153.884 129.216 152.6 129.216C151.004 129.216 149.792 128.556 148.964 127.236V132.6H147.776V120H148.964V121.764C149.792 120.444 151.004 119.784 152.6 119.784ZM149.99 127.038C150.674 127.722 151.514 128.064 152.51 128.064C153.506 128.064 154.346 127.722 155.03 127.038C155.714 126.342 156.056 125.496 156.056 124.5C156.056 123.504 155.714 122.664 155.03 121.98C154.346 121.284 153.506 120.936 152.51 120.936C151.514 120.936 150.674 121.284 149.99 121.98C149.306 122.664 148.964 123.504 148.964 124.5C148.964 125.496 149.306 126.342 149.99 127.038ZM160.425 117.84C160.257 118.008 160.053 118.092 159.813 118.092C159.573 118.092 159.369 118.008 159.201 117.84C159.033 117.672 158.949 117.468 158.949 117.228C158.949 116.988 159.033 116.784 159.201 116.616C159.369 116.448 159.573 116.364 159.813 116.364C160.053 116.364 160.257 116.448 160.425 116.616C160.593 116.784 160.677 116.988 160.677 117.228C160.677 117.468 160.593 117.672 160.425 117.84ZM159.219 129V120H160.407V129H159.219ZM167.752 119.784C169.036 119.784 170.128 120.24 171.028 121.152C171.94 122.064 172.396 123.18 172.396 124.5C172.396 125.82 171.94 126.936 171.028 127.848C170.128 128.76 169.036 129.216 167.752 129.216C166.156 129.216 164.944 128.556 164.116 127.236V132.6H162.928V120H164.116V121.764C164.944 120.444 166.156 119.784 167.752 119.784ZM165.142 127.038C165.826 127.722 166.666 128.064 167.662 128.064C168.658 128.064 169.498 127.722 170.182 127.038C170.866 126.342 171.208 125.496 171.208 124.5C171.208 123.504 170.866 122.664 170.182 121.98C169.498 121.284 168.658 120.936 167.662 120.936C166.666 120.936 165.826 121.284 165.142 121.98C164.458 122.664 164.116 123.504 164.116 124.5C164.116 125.496 164.458 126.342 165.142 127.038Z" fill="#202121"/>
<path d="M173.334 63.6H175.534V79H173.004V66.306L169.902 67.186L169.286 65.03L173.334 63.6ZM181.168 78.78C180.845 79.1027 180.456 79.264 180.002 79.264C179.547 79.264 179.158 79.1027 178.836 78.78C178.513 78.4573 178.352 78.0687 178.352 77.614C178.352 77.1593 178.506 76.7707 178.814 76.448C179.136 76.1253 179.532 75.964 180.002 75.964C180.456 75.964 180.845 76.1253 181.168 76.448C181.49 76.7707 181.652 77.1593 181.652 77.614C181.652 78.0687 181.49 78.4573 181.168 78.78ZM190.141 69.892C191.256 70.156 192.158 70.6767 192.847 71.454C193.551 72.2167 193.903 73.1773 193.903 74.336C193.903 75.876 193.382 77.086 192.341 77.966C191.3 78.846 190.024 79.286 188.513 79.286C187.34 79.286 186.284 79.0147 185.345 78.472C184.421 77.9293 183.754 77.1373 183.343 76.096L185.499 74.842C185.954 76.162 186.958 76.822 188.513 76.822C189.393 76.822 190.09 76.602 190.603 76.162C191.116 75.7073 191.373 75.0987 191.373 74.336C191.373 73.5733 191.116 72.972 190.603 72.532C190.09 72.092 189.393 71.872 188.513 71.872H187.941L186.929 70.354L190.251 65.976H183.805V63.6H193.265V65.756L190.141 69.892ZM200.616 69.408C202.083 69.408 203.322 69.848 204.334 70.728C205.346 71.5933 205.852 72.796 205.852 74.336C205.852 75.876 205.332 77.086 204.29 77.966C203.249 78.846 201.973 79.286 200.462 79.286C199.245 79.286 198.167 79.0073 197.228 78.45C196.29 77.878 195.622 77.0567 195.226 75.986L197.404 74.732C197.815 76.1253 198.834 76.822 200.462 76.822C201.328 76.822 202.017 76.602 202.53 76.162C203.058 75.7073 203.322 75.0987 203.322 74.336C203.322 73.5733 203.066 72.972 202.552 72.532C202.039 72.092 201.357 71.872 200.506 71.872H196.018L196.612 63.6H205.192V65.976H198.944L198.68 69.408H200.616ZM213.688 69.892C214.803 70.156 215.705 70.6767 216.394 71.454C217.098 72.2167 217.45 73.1773 217.45 74.336C217.45 75.876 216.929 77.086 215.888 77.966C214.847 78.846 213.571 79.286 212.06 79.286C210.887 79.286 209.831 79.0147 208.892 78.472C207.968 77.9293 207.301 77.1373 206.89 76.096L209.046 74.842C209.501 76.162 210.505 76.822 212.06 76.822C212.94 76.822 213.637 76.602 214.15 76.162C214.663 75.7073 214.92 75.0987 214.92 74.336C214.92 73.5733 214.663 72.972 214.15 72.532C213.637 72.092 212.94 71.872 212.06 71.872H211.488L210.476 70.354L213.798 65.976H207.352V63.6H216.812V65.756L213.688 69.892ZM233.34 63.6H235.54V79H233.01V66.306L229.908 67.186L229.292 65.03L233.34 63.6Z" fill="#474D65"/>
<path d="M218.551 63.6H228.341V65.8L222.929 79H220.267L225.591 66.02H218.551V63.6Z" fill="#0792FF"/>
<path d="M150.707 70.7071C151.098 70.3166 151.098 69.6834 150.707 69.2929L144.343 62.9289C143.953 62.5384 143.319 62.5384 142.929 62.9289C142.538 63.3195 142.538 63.9526 142.929 64.3431L148.586 70L142.929 75.6569C142.538 76.0474 142.538 76.6805 142.929 77.0711C143.319 77.4616 143.953 77.4616 144.343 77.0711L150.707 70.7071ZM90 71H150V69H90V71Z" fill="#474D65"/>
<path d="M55.5 88.5V107H225.5V88.5" stroke="#0792FF"/>
</svg>
