<svg width="642" height="574" viewBox="0 0 642 574" fill="none" xmlns="http://www.w3.org/2000/svg">
<g id="Map">
<path id="Nigeria" d="M550.538 476.135L547.543 458.181L517.599 415.789L497.635 412.298V398.333H523.587V384.369L518.597 371.901L520.593 376.389L511.11 374.893C511.11 374.893 511.11 364.919 506.12 357.936C501.129 350.954 504.123 344.969 504.123 344.969L502.127 337.489L498.135 333L484.659 337.489L479.669 343.972L486.656 347.962V360.929V368.908L474.678 383.87L467.691 391.85C467.691 391.85 461.702 391.85 456.711 391.85C451.72 391.85 447.728 389.356 447.728 389.356L432.755 380.878L427.764 389.356L412.792 391.85L409.797 404.817L389.834 403.819L377.856 391.85H369.871L363.882 397.835L353.901 396.837L347.912 378.883L324.954 376.888L300 421.774L303.993 428.756L315.971 434.242C315.971 434.242 325.952 438.232 328.947 441.224C331.941 444.216 331.941 444.216 331.941 444.216V451.697C331.941 451.697 336.932 467.158 339.926 466.659C342.921 466.16 355.897 466.659 355.897 466.659V489.102C355.897 489.102 371.867 497.58 375.86 500.573C379.853 503.565 395.823 507.555 395.823 507.555L408.799 500.573L417.783 497.081L425.768 508.053L431.757 517.031C431.757 517.031 432.755 525.509 438.744 527.504C444.733 529 444.733 529 444.733 529L451.72 527.504L464.696 523.015L470.685 527.504H486.656L498.135 522.018L510.112 520.023L524.087 514.038V506.059L533.569 501.071H563.514H571L564.013 477.132H550.538V476.135Z" fill="#EAF4FF" stroke="#0792FF" stroke-width="2" stroke-miterlimit="10" stroke-linejoin="round"/>
<g id="Zambia" filter="url(#filter0_d_1932_263)">
<path d="M484.529 337.712L497.979 333.223L501.964 337.712L503.957 345.193C503.957 345.193 500.968 351.178 505.95 358.16C510.931 365.143 510.931 375.118 510.931 375.118L520.397 376.614L518.404 372.125L523.386 342.201L532.851 341.702L539.327 349.682V305.293L553.275 300.804L567.224 286.84L563.737 277.363L574.198 271.378V250.431L567.224 224.995L583.165 205.544L578.682 193.075L584.66 179.11H592.132L601.099 168.637L611.56 165.145L623.018 152.677L628 172.128L623.018 152.178C623.018 152.178 614.051 150.183 611.062 148.687C608.073 147.19 602.095 137.216 602.095 137.216L595.619 136.717L581.671 82.3534L584.161 73.3759L577.685 59.9098L575.693 47.4411L561.246 35.9699L552.777 35.4712L544.807 24L536.338 33.4762H529.363V41.4561L522.389 47.4411H511.43V57.416L502.463 63.401H496.485L491.005 55.4211H293.732V106.792H274.802V116.767H269.82V213.025H246.905V229.982C246.905 229.982 227.974 234.471 227.974 238.461C227.974 242.451 227.974 252.426 227.974 252.426V260.406V276.366L221 282.351L234.949 295.318V314.271L246.905 331.228L250.89 337.712V347.188L262.846 357.163C262.846 357.163 269.82 366.14 266.831 372.125C263.842 378.11 255.872 389.581 258.86 392.075C261.849 394.07 267.827 398.06 267.827 398.06H275.798L280.78 403.048C280.78 403.048 273.805 408.035 280.78 408.035C287.754 408.035 299.71 422 299.71 422L324.618 377.113L347.534 379.108L353.512 397.063L363.475 398.06L369.453 392.075H377.423L389.379 404.045L409.306 405.043L412.295 392.075L427.24 389.581L432.221 381.103L447.166 389.581C447.166 389.581 451.152 392.075 456.133 392.075C461.115 392.075 467.093 392.075 467.093 392.075L474.067 384.095L486.023 369.133V361.153V348.185L479.049 344.195L484.529 337.712Z" fill="#0792FF"/>
<path d="M484.529 337.712L497.979 333.223L501.964 337.712L503.957 345.193C503.957 345.193 500.968 351.178 505.95 358.16C510.931 365.143 510.931 375.118 510.931 375.118L520.397 376.614L518.404 372.125L523.386 342.201L532.851 341.702L539.327 349.682V305.293L553.275 300.804L567.224 286.84L563.737 277.363L574.198 271.378V250.431L567.224 224.995L583.165 205.544L578.682 193.075L584.66 179.11H592.132L601.099 168.637L611.56 165.145L623.018 152.677L628 172.128L623.018 152.178C623.018 152.178 614.051 150.183 611.062 148.687C608.073 147.19 602.095 137.216 602.095 137.216L595.619 136.717L581.671 82.3534L584.161 73.3759L577.685 59.9098L575.693 47.4411L561.246 35.9699L552.777 35.4712L544.807 24L536.338 33.4762H529.363V41.4561L522.389 47.4411H511.43V57.416L502.463 63.401H496.485L491.005 55.4211H293.732V106.792H274.802V116.767H269.82V213.025H246.905V229.982C246.905 229.982 227.974 234.471 227.974 238.461C227.974 242.451 227.974 252.426 227.974 252.426V260.406V276.366L221 282.351L234.949 295.318V314.271L246.905 331.228L250.89 337.712V347.188L262.846 357.163C262.846 357.163 269.82 366.14 266.831 372.125C263.842 378.11 255.872 389.581 258.86 392.075C261.849 394.07 267.827 398.06 267.827 398.06H275.798L280.78 403.048C280.78 403.048 273.805 408.035 280.78 408.035C287.754 408.035 299.71 422 299.71 422L324.618 377.113L347.534 379.108L353.512 397.063L363.475 398.06L369.453 392.075H377.423L389.379 404.045L409.306 405.043L412.295 392.075L427.24 389.581L432.221 381.103L447.166 389.581C447.166 389.581 451.152 392.075 456.133 392.075C461.115 392.075 467.093 392.075 467.093 392.075L474.067 384.095L486.023 369.133V361.153V348.185L479.049 344.195L484.529 337.712Z" stroke="#0792FF" stroke-width="2" stroke-miterlimit="10" stroke-linejoin="round"/>
</g>
<g id="Kenya">
<path d="M340.569 466.701C337.582 467.2 332.603 451.732 332.603 451.732V444.248C332.603 444.248 332.603 444.248 329.615 441.255C326.628 438.261 316.67 434.27 316.67 434.27L304.72 428.781L300.737 421.796C300.737 421.796 288.787 407.826 281.816 407.826C274.846 407.826 281.816 402.836 281.816 402.836L276.837 397.847H268.871C268.871 397.847 262.896 393.856 259.908 391.86C256.921 389.864 264.887 377.89 267.875 371.902C270.862 365.915 263.892 356.934 263.892 356.934L251.942 346.955V337.476L247.959 330.989L245.469 337.974H229.038L222.068 346.955V360.926L193.189 380.883L172.775 385.374H152.361L149.373 389.365L158.336 394.355L153.357 403.834L145.888 413.314C145.888 413.314 118.503 414.811 114.022 414.811C109.541 414.811 101.575 419.8 99.085 421.297C97.0934 422.794 93.1102 413.314 93.1102 413.314L80.6625 421.297H68.7128C68.7128 421.297 45.8092 457.221 43.3196 460.214C41.328 463.208 49.2945 471.191 49.2945 473.686C49.2945 475.682 47.3029 490.65 47.3029 493.643C47.3029 496.637 59.7505 500.129 59.7505 500.129L64.2317 518.59L81.1604 544.535V561L90.6207 557.507L94.6039 527.571L106.056 525.575L120.993 520.586L140.909 527.571L143.897 524.079V507.115L147.382 503.622L156.344 492.146C156.344 492.146 160.825 482.168 163.813 482.168C166.8 482.168 173.273 482.168 173.273 482.168L184.725 488.155L194.185 503.622H203.645L208.624 507.115H226.549L236.507 510.607L245.469 507.115L250.448 493.643L260.406 495.14L269.369 497.136L283.31 489.153C283.31 489.153 284.306 481.669 286.297 482.168C288.289 482.667 291.277 482.168 291.277 482.168L296.256 487.157H305.716L311.193 475.682C311.193 475.682 322.147 479.673 324.138 480.172C326.13 480.671 335.092 486.159 337.084 486.658C338.08 487.157 348.536 486.658 357 486.658V465.204C356.502 466.701 343.557 466.202 340.569 466.701Z" fill="#EAF4FF"/>
<path d="M247.959 330.989L251.942 337.476V346.955L263.892 356.934C263.892 356.934 270.862 365.915 267.875 371.902C264.887 377.89 256.921 389.864 259.908 391.86C262.896 393.856 268.871 397.847 268.871 397.847H276.837L281.816 402.836C281.816 402.836 274.846 407.826 281.816 407.826C288.787 407.826 300.737 421.796 300.737 421.796L304.72 428.781L316.67 434.27C316.67 434.27 326.628 438.261 329.615 441.255C332.603 444.248 332.603 444.248 332.603 444.248V451.732C332.603 451.732 337.582 467.2 340.569 466.701C343.557 466.202 356.502 466.701 357 465.204V486.658C348.536 486.658 338.08 487.157 337.084 486.658C335.092 486.159 326.13 480.671 324.138 480.172C322.147 479.673 311.193 475.682 311.193 475.682L305.716 487.157H296.256L291.277 482.168C291.277 482.168 288.289 482.667 286.297 482.168C284.306 481.669 283.31 489.153 283.31 489.153L269.369 497.136L260.406 495.14L250.448 493.643L245.469 507.115L236.507 510.607L226.549 507.115H208.624L203.645 503.622H194.185L184.725 488.155L173.273 482.168C173.273 482.168 166.8 482.168 163.813 482.168C160.825 482.168 156.344 492.146 156.344 492.146L147.382 503.622L143.897 507.115V524.079L140.909 527.571L120.993 520.586L106.056 525.575L94.6039 527.571L90.6207 557.507L81.1604 561V544.535L64.2317 518.59L59.7505 500.129C59.7505 500.129 47.3029 496.637 47.3029 493.643C47.3029 490.65 49.2945 475.682 49.2945 473.686C49.2945 471.191 41.328 463.208 43.3196 460.214C45.8092 457.221 68.7128 421.297 68.7128 421.297H80.6625L93.1102 413.314C93.1102 413.314 97.0934 422.794 99.085 421.297C101.575 419.8 109.541 414.811 114.022 414.811C118.503 414.811 145.888 413.314 145.888 413.314L153.357 403.834L158.336 394.355L149.373 389.365L152.361 385.374H172.775L193.189 380.883L222.068 360.926V346.955L229.038 337.974H245.469L247.959 330.989ZM247.959 330.989L244.473 326" stroke="#0792FF" stroke-width="2" stroke-miterlimit="10" stroke-linejoin="round"/>
</g>
<path id="Botswana" d="M237.069 315.015V296.046L223.096 283.068L230.083 277.078V261.104V253.117C230.083 253.117 230.083 243.133 230.083 239.14C230.083 235.146 249.045 230.654 249.045 230.654V213.682H272V117.34L80.3772 20L56.4244 25.491L61.4145 66.9229L67.9018 72.913V83.3958L76.8841 91.3827L70.8958 111.849L66.4047 184.729L40.9548 207.192L27.4813 227.16V246.128H18V263.1C18 263.1 28.9784 292.053 30.4754 291.554C31.9725 291.055 39.9568 301.038 39.9568 301.038L53.9293 306.03L63.4106 361.938H36.4636L32.9705 368.427L47.442 383.902L59.9175 394.385L69.3988 421.84H81.3752L93.8507 413.853C93.8507 413.853 97.3438 423.337 99.8389 421.84C101.835 420.342 110.318 415.35 114.809 415.35C119.301 415.35 146.747 413.853 146.747 413.853L154.232 404.368L159.222 394.884L150.24 389.892L153.234 385.899H173.694L194.153 381.406L223.096 361.439V347.462L230.083 338.477H246.55L249.045 331.488L237.069 315.015Z" fill="#EAF4FF" stroke="#0792FF" stroke-width="2" stroke-miterlimit="10" stroke-linejoin="round"/>
</g>
<defs>
<filter id="filter0_d_1932_263" x="212" y="19" width="425" height="416" filterUnits="userSpaceOnUse" color-interpolation-filters="sRGB">
<feFlood flood-opacity="0" result="BackgroundImageFix"/>
<feColorMatrix in="SourceAlpha" type="matrix" values="0 0 0 0 0 0 0 0 0 0 0 0 0 0 0 0 0 0 127 0" result="hardAlpha"/>
<feOffset dy="4"/>
<feGaussianBlur stdDeviation="4"/>
<feComposite in2="hardAlpha" operator="out"/>
<feColorMatrix type="matrix" values="0 0 0 0 0.027451 0 0 0 0 0.572549 0 0 0 0 1 0 0 0 0.25 0"/>
<feBlend mode="normal" in2="BackgroundImageFix" result="effect1_dropShadow_1932_263"/>
<feBlend mode="normal" in="SourceGraphic" in2="effect1_dropShadow_1932_263" result="shape"/>
</filter>
</defs>
</svg>
