<svg width="24" height="24" viewBox="0 0 24 24" fill="none" xmlns="http://www.w3.org/2000/svg">
<path id="Vector" d="M19.0781 0H4.92188C2.20795 0 0 2.20795 0 4.92188V19.0781C0 21.792 2.20795 24 4.92188 24H19.0781C21.792 24 24 21.792 24 19.0781V4.92188C24 2.20795 21.792 0 19.0781 0ZM7.3898 18.4929C7.173 18.8684 6.77827 19.0785 6.37294 19.0786C6.16788 19.0787 5.96643 19.0246 5.78897 18.9218C5.22937 18.5988 5.03695 17.8807 5.36002 17.3211L5.5905 16.9219H8.29683L7.3898 18.4929ZM5.17969 15.9844C4.53352 15.9844 4.00781 15.4587 4.00781 14.8125C4.00781 14.1663 4.53352 13.6406 5.17969 13.6406H7.48491L10.6468 8.16403L9.78989 6.67978C9.46683 6.12019 9.6592 5.40206 10.2188 5.07895C10.7784 4.75589 11.4966 4.94836 11.8196 5.50791L12 5.82033L12.1804 5.50795C12.5036 4.94831 13.2217 4.75594 13.7812 5.079C14.0522 5.23552 14.2462 5.48822 14.3272 5.79056C14.4082 6.09291 14.3666 6.40875 14.2101 6.67983L10.1912 13.6406H12.7262L14.0794 15.9844H5.17969ZM18.8203 15.9844H17.8682L18.6399 17.321C18.963 17.8806 18.7706 18.5987 18.2111 18.9218C18.0305 19.026 17.83 19.0793 17.627 19.0793C17.5252 19.0793 17.4228 19.066 17.3218 19.0389C17.0194 18.9578 16.7667 18.7639 16.6102 18.4928L12.5412 11.4452L13.8944 9.10148L16.5151 13.6406H18.8203C19.4665 13.6406 19.9922 14.1663 19.9922 14.8125C19.9922 15.4587 19.4665 15.9844 18.8203 15.9844Z" fill="white"/>
</svg>
