<svg width="80" height="80" viewBox="0 0 80 80" fill="none" xmlns="http://www.w3.org/2000/svg">
<g id="icon-withdrawal">
<rect width="80" height="80" rx="23" fill="#EAF4FF"/>
<g id="Group 39336" filter="url(#filter0_d_7896_92)">
<path id="Subtract" fill-rule="evenodd" clip-rule="evenodd" d="M58.4151 29.8735V31.1186C58.4151 31.2103 58.3787 31.2983 58.3138 31.3631C58.249 31.428 58.161 31.4644 58.0693 31.4644H23.3459C23.2541 31.4644 23.1662 31.428 23.1013 31.3631C23.0364 31.2983 23 31.2103 23 31.1186V29.8735C23 27.7342 24.7342 26 26.8735 26H54.5416C56.6809 26 58.4151 27.7342 58.4151 29.8735ZM23 46.4744V34.0237C23 33.932 23.0364 33.844 23.1013 33.7792C23.1662 33.7143 23.2541 33.6779 23.3459 33.6779H58.0693C58.161 33.6779 58.249 33.7143 58.3138 33.7792C58.3787 33.844 58.4151 33.932 58.4151 34.0237V39.2252C56.1549 37.2361 53.1892 36.0296 49.9418 36.0296C42.8554 36.0296 37.1107 41.7743 37.1107 48.8607C37.1107 49.3637 37.1397 49.86 37.196 50.3479H26.8735C24.7342 50.3479 23 48.6137 23 46.4744ZM30.7471 44.8143C31.3582 44.8143 31.8538 44.3187 31.8538 43.7076V42.6008C31.8538 41.9896 31.3582 41.4941 30.7471 41.4941H29.6403C29.0291 41.4941 28.5336 41.9896 28.5336 42.6008V43.7076C28.5336 44.3187 29.0291 44.8143 29.6403 44.8143H30.7471Z" fill="#0792FF"/>
<path id="Exclude" fill-rule="evenodd" clip-rule="evenodd" d="M49.9417 59.6164C55.8821 59.6164 60.6977 54.8008 60.6977 48.8604C60.6977 42.9201 55.8821 38.1045 49.9417 38.1045C44.0014 38.1045 39.1858 42.9201 39.1858 48.8604C39.1858 54.8008 44.0014 59.6164 49.9417 59.6164ZM42.9923 49.3203L49.298 55.6032C49.4782 55.7831 49.7194 55.8818 49.9765 55.8813C50.2327 55.882 50.4737 55.7831 50.6543 55.6033L56.9599 49.3205C57.1398 49.1411 57.2392 48.9021 57.2392 48.6472C57.2392 48.3921 57.1411 48.1532 56.9611 47.9738L56.3903 47.4034C56.2105 47.2242 55.9736 47.1254 55.7179 47.1254C55.462 47.1254 55.2285 47.2242 55.0485 47.4034L51.3412 51.1102L51.3412 42.8488C51.3412 42.3237 50.8871 41.9089 50.36 41.9089H49.5505C49.0234 41.9089 48.6109 42.3237 48.6109 42.8488L48.6109 51.0686L44.9243 47.4032C44.7445 47.224 44.4964 47.1253 44.2406 47.1253C43.9847 47.1253 43.7446 47.224 43.5649 47.4032L42.9923 47.9737C42.8124 48.153 42.7135 48.3919 42.7135 48.6471C42.7135 48.902 42.8123 49.141 42.9923 49.3203Z" fill="#0792FF"/>
</g>
</g>
<defs>
<filter id="filter0_d_7896_92" x="12.4667" y="20.7333" width="58.7644" height="54.6829" filterUnits="userSpaceOnUse" color-interpolation-filters="sRGB">
<feFlood flood-opacity="0" result="BackgroundImageFix"/>
<feColorMatrix in="SourceAlpha" type="matrix" values="0 0 0 0 0 0 0 0 0 0 0 0 0 0 0 0 0 0 127 0" result="hardAlpha"/>
<feOffset dy="5.26667"/>
<feGaussianBlur stdDeviation="5.26667"/>
<feComposite in2="hardAlpha" operator="out"/>
<feColorMatrix type="matrix" values="0 0 0 0 0.027451 0 0 0 0 0.572549 0 0 0 0 1 0 0 0 0.25 0"/>
<feBlend mode="normal" in2="BackgroundImageFix" result="effect1_dropShadow_7896_92"/>
<feBlend mode="normal" in="SourceGraphic" in2="effect1_dropShadow_7896_92" result="shape"/>
</filter>
</defs>
</svg>
