<svg width="252" height="55" viewBox="0 0 252 55" fill="none" xmlns="http://www.w3.org/2000/svg">
<g id="ze Holding logo">
<g id="Vector">
<path d="M91.9063 17.4561C94.8503 17.4561 97.1703 18.4321 98.8663 20.3841C100.562 22.3361 101.41 24.9601 101.41 28.2561V44.0001H94.4023V29.4081C94.4023 27.4561 94.0343 26.0001 93.2983 25.0401C92.5943 24.0801 91.4583 23.6001 89.8903 23.6001C88.1303 23.6001 86.7223 24.2081 85.6663 25.4241C84.6103 26.6401 84.0823 28.2881 84.0823 30.3681V44.0001H77.0743V8.72005H84.0823V20.4801C86.1943 18.4641 88.8023 17.4561 91.9063 17.4561Z" fill="#202121"/>
<path d="M118.72 44.7201C116.064 44.7201 113.664 44.1281 111.52 42.9441C109.376 41.7601 107.696 40.1281 106.48 38.0481C105.296 35.9361 104.704 33.6001 104.704 31.0401C104.704 27.1041 106.032 23.8401 108.688 21.2481C111.344 18.6561 114.688 17.3601 118.72 17.3601C122.72 17.3601 126.048 18.6561 128.704 21.2481C131.36 23.8401 132.688 27.1041 132.688 31.0401C132.688 34.9441 131.344 38.2081 128.656 40.8321C126 43.4241 122.688 44.7201 118.72 44.7201ZM118.72 38.1441C120.736 38.1441 122.384 37.4881 123.664 36.1761C124.944 34.8321 125.584 33.1201 125.584 31.0401C125.584 28.9601 124.944 27.2641 123.664 25.9521C122.384 24.6081 120.72 23.9361 118.672 23.9361C116.656 23.9361 115.008 24.6081 113.728 25.9521C112.448 27.2641 111.808 28.9601 111.808 31.0401C111.808 32.0641 111.968 33.0241 112.288 33.9201C112.64 34.8161 113.12 35.5681 113.728 36.1761C114.336 36.7841 115.056 37.264 115.888 37.6161C116.752 37.9681 117.696 38.1441 118.72 38.1441Z" fill="#202121"/>
<path d="M136.304 44.0001V8.72005H143.312V44.0001H136.304Z" fill="#202121"/>
<path d="M167.654 8.72005H174.662V44.0001H169.478L168.662 41.8401C166.358 43.7921 163.654 44.7681 160.55 44.7681C157.958 44.7681 155.622 44.1761 153.542 42.9921C151.462 41.8081 149.83 40.1761 148.646 38.0961C147.494 35.9841 146.918 33.6321 146.918 31.0401C146.918 28.4481 147.494 26.1121 148.646 24.0321C149.83 21.952 151.462 20.3201 153.542 19.1361C155.622 17.9521 157.958 17.3601 160.55 17.3601C163.174 17.3601 165.542 18.0641 167.654 19.4721V8.72005ZM156.038 36.1281C157.382 37.4721 159.062 38.1441 161.078 38.1441C163.126 38.1441 164.822 37.4721 166.166 36.1281C167.51 34.7521 168.182 33.0561 168.182 31.0401C168.182 28.9921 167.51 27.2961 166.166 25.9521C164.822 24.6081 163.126 23.9361 161.078 23.9361C159.062 23.9361 157.382 24.6081 156.038 25.9521C154.694 27.2961 154.022 28.9921 154.022 31.0401C154.022 33.0881 154.694 34.7841 156.038 36.1281Z" fill="#202121"/>
<path d="M179.924 14.6241V8.09605H186.932V14.6241H179.924ZM179.924 44.0001V18.0801H186.932V44.0001H179.924Z" fill="#202121"/>
<path d="M207.002 17.4561C209.946 17.4561 212.266 18.4481 213.962 20.4321C215.69 22.3841 216.554 25.0081 216.554 28.3041V44.0001H209.546V29.4081C209.546 25.5361 208.042 23.6001 205.034 23.6001C203.85 23.6001 202.81 23.8721 201.914 24.4161C201.05 24.9601 200.378 25.7441 199.898 26.7681C199.45 27.7921 199.226 28.9921 199.226 30.3681V44.0001H192.218V18.0801H197.018L198.41 21.2961C198.89 20.6881 199.434 20.1601 200.042 19.7121C200.682 19.2321 201.37 18.8321 202.106 18.5121C202.842 18.1601 203.61 17.904 204.41 17.7441C205.242 17.5521 206.106 17.4561 207.002 17.4561Z" fill="#202121"/>
<path d="M242.456 18.0801H247.016V40.9761C247.016 43.6641 246.472 45.9841 245.384 47.9361C244.328 49.9201 242.808 51.4401 240.824 52.4961C238.84 53.5521 236.488 54.0801 233.768 54.0801C230.248 54.0801 227.304 53.2321 224.936 51.5361C222.6 49.8401 221.144 47.5201 220.568 44.5761H227.528C227.912 45.6641 228.68 46.5121 229.832 47.1201C230.984 47.7601 232.248 48.0801 233.624 48.0801C235.48 48.0801 237.016 47.5201 238.232 46.4001C239.48 45.312 240.104 43.84 240.104 41.9841V41.0241C237.96 42.5601 235.496 43.3281 232.712 43.3281C230.344 43.3281 228.168 42.7681 226.184 41.6481C224.2 40.4961 222.648 38.9281 221.528 36.9441C220.408 34.9601 219.848 32.7681 219.848 30.3681C219.848 26.7521 221.08 23.6801 223.544 21.1521C226.04 18.6241 229.096 17.3601 232.712 17.3601C236.072 17.3601 238.952 18.4641 241.352 20.6721L242.456 18.0801ZM233.528 37.0881C235.448 37.0881 237.032 36.4641 238.28 35.2161C239.528 33.9361 240.152 32.3201 240.152 30.3681C240.152 28.4481 239.528 26.8641 238.28 25.6161C237.064 24.3361 235.48 23.6961 233.528 23.6961C231.64 23.6961 230.072 24.3361 228.824 25.6161C227.576 26.8641 226.952 28.4481 226.952 30.3681C226.952 32.3201 227.56 33.9361 228.776 35.2161C230.024 36.4641 231.608 37.0881 233.528 37.0881Z" fill="#202121"/>
<path fill-rule="evenodd" clip-rule="evenodd" d="M8.57143 5.28577C3.83756 5.28577 0 9.12332 0 13.8572V46.4286C0 51.1625 3.83756 55.0001 8.57143 55.0001H54.8571C59.591 55.0001 63.4286 51.1625 63.4286 46.4286V13.8572C63.4286 9.12333 59.591 5.28577 54.8571 5.28577H8.57143ZM29.2868 36.5547H18.365L29.2868 18.0391V17.0782H8.91964V23.4297H18.904L7.86495 42.2266V43.0001H29.2868V36.5547ZM56.465 32.0079C56.5587 31.336 56.6056 30.6485 56.6056 29.9454C56.6056 27.461 56.0509 25.1876 54.9415 23.1251C53.8321 21.0626 52.2462 19.4219 50.1837 18.2032C48.1212 16.9688 45.7931 16.3516 43.1993 16.3516C40.6681 16.3516 38.3712 16.9454 36.3087 18.1329C34.2618 19.3204 32.6525 20.961 31.4806 23.0547C30.3243 25.1485 29.7462 27.4766 29.7462 30.0391C29.7462 32.586 30.3321 34.9063 31.504 37.0001C32.6759 39.0938 34.2853 40.7422 36.3321 41.9454C38.3946 43.1329 40.6837 43.7266 43.1993 43.7266C46.1993 43.7266 48.8556 42.8985 51.1681 41.2422C53.4806 39.5704 55.1056 37.3204 56.0431 34.4922H48.6837C48.1525 35.4297 47.4025 36.1641 46.4337 36.6954C45.4806 37.2266 44.4025 37.4922 43.1993 37.4922C41.4962 37.4922 40.0821 37.0235 38.9571 36.086C37.8478 35.1329 37.1446 33.7735 36.8478 32.0079H56.465ZM39.2618 23.6172C40.34 22.7579 41.6525 22.3282 43.1993 22.3282C44.7775 22.3282 46.1134 22.7501 47.2071 23.5938C48.3165 24.4376 49.1134 25.6485 49.5978 27.2266H37.0353C37.4415 25.6797 38.1837 24.4766 39.2618 23.6172Z" fill="url(#paint0_linear_8004_18)"/>
</g>
</g>
<defs>
<linearGradient id="paint0_linear_8004_18" x1="6.1158e-07" y1="54.8867" x2="54.6504" y2="-4.84672" gradientUnits="userSpaceOnUse">
<stop offset="0.0576086" stop-color="#00DED1"/>
<stop offset="0.317062" stop-color="#1E7FE8"/>
<stop offset="0.596144" stop-color="#772CB2"/>
<stop offset="0.86467" stop-color="#DD385B"/>
<stop offset="1" stop-color="#FDB035"/>
</linearGradient>
</defs>
</svg>
