<svg width="545" height="545" viewBox="0 0 545 545" fill="none" xmlns="http://www.w3.org/2000/svg">
<path d="M353.628 100.102C355.041 97.1048 358.621 95.8115 361.574 97.3147C390.758 112.171 415.797 134.102 434.38 161.144C454.097 189.836 465.837 223.251 468.399 257.97C470.961 292.689 464.253 327.465 448.962 358.741C433.671 390.016 410.345 416.667 381.372 435.968C352.399 455.269 318.818 466.526 284.066 468.587C249.313 470.648 214.637 463.44 183.586 447.699C152.534 431.959 126.222 408.251 107.341 379.002C89.5459 351.436 78.9544 319.88 76.4892 287.225C76.2397 283.921 78.8125 281.115 82.1229 280.967L129.026 278.863C132.336 278.715 135.126 281.28 135.419 284.581C137.389 306.8 144.738 328.24 156.868 347.031C170.085 367.505 188.503 384.1 210.24 395.119C231.976 406.137 256.249 411.183 280.575 409.74C304.902 408.297 328.409 400.418 348.69 386.907C368.971 373.397 385.299 354.741 396.003 332.848C406.707 310.955 411.402 286.612 409.609 262.308C407.815 238.005 399.597 214.615 385.796 194.53C373.128 176.097 356.175 161.055 336.43 150.677C333.497 149.135 332.204 145.572 333.617 142.574L353.628 100.102Z" fill="#DFEAFF"/>
<path d="M90.0095 217.546C86.8363 216.592 85.0289 213.242 86.08 210.099C90.6849 196.332 96.8013 183.118 104.317 170.698C106.033 167.863 109.756 167.073 112.537 168.875L151.944 194.397C154.726 196.198 155.508 199.907 153.83 202.764C149.292 210.489 145.52 218.638 142.568 227.096C141.475 230.224 138.142 232.028 134.969 231.073L90.0095 217.546Z" fill="#0792FF"/>
<path d="M115.585 164.314C112.857 162.434 112.163 158.69 114.126 156.021C139.843 121.046 176.463 95.5231 218.304 83.5338C260.144 71.5445 304.724 73.8004 345.061 89.847C348.141 91.0718 349.534 94.6145 348.216 97.6547L329.538 140.73C328.22 143.77 324.691 145.153 321.596 143.968C293.804 133.331 263.252 131.976 234.542 140.203C205.832 148.43 180.634 165.76 162.693 189.501C160.695 192.145 156.969 192.841 154.241 190.96L115.585 164.314Z" fill="#BCDEFD"/>
<path d="M81.9444 274.649C78.6309 274.688 75.904 272.033 75.9666 268.719C76.2323 254.661 78.0062 240.671 81.258 226.99C82.0243 223.767 85.3278 221.876 88.5267 222.74L133.851 234.987C137.05 235.851 138.929 239.143 138.205 242.377C136.317 250.808 135.228 259.398 134.952 268.034C134.846 271.346 132.205 274.064 128.891 274.103L81.9444 274.649Z" fill="#A8BFFD"/>
</svg>
