<svg width="200" height="80" viewBox="0 0 200 80" fill="none" xmlns="http://www.w3.org/2000/svg">
<path fill-rule="evenodd" clip-rule="evenodd" d="M75.894 16.9456C71.8616 13.7054 66.7423 11.7646 61.1765 11.7646C48.1986 11.7646 37.6471 22.3162 37.6471 35.2941C37.6471 48.2719 48.1986 58.8235 61.1765 58.8235C67.8323 58.8235 73.8498 56.0483 78.1332 51.5937C74.3036 46.2588 72.0362 39.6399 72.0362 32.4705C72.0362 26.8372 73.4362 21.5437 75.894 16.9456ZM80.5472 48.6409C83.1691 44.8464 84.7059 40.2469 84.7059 35.2941C84.7059 29.2476 82.4154 23.7276 78.6563 19.5563C76.7389 23.4266 75.6561 27.8172 75.6561 32.4705C75.6561 38.485 77.4647 44.0606 80.5472 48.6409ZM59.7961 43.8812L61.3298 36.9678L64.9805 35.3669L65.9009 31.2916L65.8701 31.219L62.2809 32.7834L64.8578 21.1764H57.4952L54.09 36.3128L51.2677 37.5501L50.3168 41.7343L53.1698 40.4973L51.145 49.4117H70.7785L72.0362 43.8812H59.7961Z" fill="#D8D8D8"/>
<path fill-rule="evenodd" clip-rule="evenodd" d="M129.074 51.7466C133.126 46.3853 135.529 39.7084 135.529 32.4705C135.529 26.758 134.032 21.3948 131.409 16.7521C135.403 13.6282 140.428 11.7646 145.882 11.7646C158.86 11.7646 169.412 22.3162 169.412 35.2941C169.412 48.2719 158.86 58.8235 145.882 58.8235C139.303 58.8235 133.347 56.1116 129.074 51.7466ZM126.595 48.7599C129.851 44.1571 131.765 38.5372 131.765 32.4705C131.765 27.7492 130.606 23.2984 128.557 19.387C124.706 23.5777 122.353 29.1653 122.353 35.2941C122.353 40.2989 123.922 44.9426 126.595 48.7599ZM137.412 34.1281L145.882 19.2941L154.353 34.1281L145.882 39.5224L137.412 34.1281ZM145.882 41.7699L137.412 36.3757L145.882 49.4117L154.353 36.3757L145.882 41.7699Z" fill="#5AB5F7"/>
<path fill-rule="evenodd" clip-rule="evenodd" d="M103.529 61.1766C119.122 61.1766 131.765 48.5342 131.765 32.9413C131.765 17.3485 119.122 4.70605 103.529 4.70605C87.9366 4.70605 75.2942 17.3485 75.2942 32.9413C75.2942 48.5342 87.9366 61.1766 103.529 61.1766ZM118.588 37.9358C118.588 33.9234 115.329 32.1822 112.976 31.5829C114.912 30.8834 117.167 28.0128 116.257 24.5931C115.489 21.7005 112.809 19.1343 106.039 18.9052V14.1178H102.902V18.8237H101.333V14.1178H98.1962V18.8237H90.353V23.5296H92.9162C94.2997 23.5296 95.0589 24.4269 95.0589 25.7319V39.674C95.0589 41.0198 94.2651 42.3531 92.8786 42.3531H91.1875L90.4033 47.0246H98.1962V51.7649H101.333V47.0246H102.902V51.7649H106.039V47.059C114.372 47.059 118.588 43.3978 118.588 37.9358ZM110.083 27.4511C110.083 24.314 106.824 23.5296 101.333 23.5296V31.3728C104.8 31.3728 110.083 31.1281 110.083 27.4511ZM101.333 34.5005V42.3531C107.558 42.3531 111.824 41.7634 111.824 38.4064C111.824 34.8049 107.216 34.5005 101.333 34.5005Z" fill="#F2B072"/>
<path d="M156.077 72.941C155.552 72.941 155.179 72.9135 154.96 72.8586C154.74 72.8037 154.63 72.7488 154.63 72.6939L155.101 71.4586C155.195 71.4822 155.473 71.5096 155.936 71.541C156.407 71.5645 157.089 71.5763 157.983 71.5763H158.818C159.015 71.5763 159.136 71.5567 159.183 71.5175C159.238 71.4704 159.266 71.392 159.266 71.2822C159.266 71.1488 159.234 71.0665 159.171 71.0351C159.117 70.9959 158.999 70.9763 158.818 70.9763H156.43C155.858 70.9763 155.415 70.8704 155.101 70.6586C154.787 70.439 154.63 70.0508 154.63 69.4939V69.2586C154.63 68.9684 154.669 68.7057 154.748 68.4704C154.826 68.2273 154.995 68.0351 155.254 67.8939C155.513 67.7449 155.905 67.6704 156.43 67.6704H159.913C160.383 67.6704 160.717 67.6979 160.913 67.7528C161.109 67.8077 161.207 67.8626 161.207 67.9175L161.089 69.1645C160.964 69.141 160.646 69.1175 160.136 69.0939C159.634 69.0626 158.94 69.0469 158.054 69.0469H157.218C157.022 69.0469 156.897 69.0704 156.842 69.1175C156.795 69.1567 156.771 69.2273 156.771 69.3292C156.771 69.4312 156.795 69.5057 156.842 69.5528C156.897 69.592 157.022 69.6116 157.218 69.6116H159.654C160.266 69.6116 160.717 69.7449 161.007 70.0116C161.297 70.2783 161.442 70.6508 161.442 71.1292V71.3528C161.442 71.6351 161.407 71.8979 161.336 72.141C161.266 72.3763 161.105 72.5685 160.854 72.7175C160.603 72.8665 160.203 72.941 159.654 72.941H156.077Z" fill="#474747"/>
<path d="M151.223 72.9409C150.627 72.9409 150.219 72.8155 149.999 72.5645C149.78 72.3135 149.67 71.937 149.67 71.4351V69.1527H148.705V67.6704H149.199C149.333 67.6704 149.438 67.6468 149.517 67.5998C149.603 67.5449 149.658 67.4508 149.682 67.3174L149.905 66.0586H151.834V67.6704H153.799V69.1527H151.834V70.9762C151.834 71.1723 151.882 71.3017 151.976 71.3645C152.07 71.4272 152.211 71.4586 152.399 71.4586H153.576L153.811 72.8233C153.646 72.8468 153.395 72.8743 153.058 72.9057C152.721 72.9292 152.352 72.9409 151.952 72.9409H151.223Z" fill="#474747"/>
<path d="M140.996 72.941V67.6704H142.701L143.172 67.9057C143.501 67.843 143.898 67.7881 144.36 67.741C144.831 67.6939 145.27 67.6704 145.678 67.6704H146.266C146.658 67.6704 146.96 67.7253 147.172 67.8351C147.384 67.9449 147.533 68.0822 147.619 68.2469C147.713 68.4116 147.768 68.5802 147.784 68.7528C147.807 68.9175 147.819 69.0586 147.819 69.1763V72.941H145.666V69.6234C145.666 69.3096 145.478 69.1528 145.101 69.1528H143.525C143.376 69.1528 143.278 69.1684 143.231 69.1998C143.192 69.2234 143.172 69.2939 143.172 69.4116V72.941H140.996Z" fill="#474747"/>
<path d="M134.995 72.941C134.477 72.941 134.077 72.8665 133.795 72.7175C133.52 72.5685 133.332 72.3645 133.23 72.1057C133.128 71.839 133.077 71.5332 133.077 71.1881V69.4116C133.077 69.0979 133.128 68.8116 133.23 68.5528C133.34 68.2861 133.532 68.0743 133.806 67.9175C134.081 67.7528 134.477 67.6704 134.995 67.6704H137.43C138.042 67.6704 138.508 67.7449 138.83 67.8939C139.159 68.0351 139.383 68.239 139.5 68.5057C139.626 68.7645 139.689 69.0665 139.689 69.4116V70.9175H137.63C136.924 70.9175 136.387 70.9018 136.018 70.8704C135.657 70.839 135.402 70.8194 135.253 70.8116V70.9881C135.246 71.3018 135.434 71.4586 135.818 71.4586H136.183C136.81 71.4586 137.391 71.4469 137.924 71.4234C138.457 71.392 138.853 71.3645 139.112 71.341L139.818 72.4586C139.818 72.5371 139.751 72.6116 139.618 72.6822C139.485 72.7528 139.249 72.8155 138.912 72.8704C138.583 72.9175 138.112 72.941 137.5 72.941H134.995ZM135.253 69.7881H137.512V69.6234C137.512 69.4665 137.497 69.3567 137.465 69.2939C137.442 69.2312 137.359 69.192 137.218 69.1763C137.077 69.1606 136.838 69.1528 136.5 69.1528H135.818C135.442 69.1528 135.253 69.3096 135.253 69.6234V69.7881Z" fill="#474747"/>
<path d="M122.257 72.941V67.6704H123.963L124.257 67.8116C124.485 67.7724 124.739 67.741 125.022 67.7175C125.312 67.6861 125.622 67.6704 125.951 67.6704H126.586C126.814 67.6704 127.034 67.7018 127.245 67.7645C127.457 67.8194 127.614 67.9018 127.716 68.0116C127.849 67.941 127.994 67.8822 128.151 67.8351C128.308 67.7802 128.508 67.741 128.751 67.7175C129.002 67.6861 129.32 67.6704 129.704 67.6704H130.292C130.685 67.6704 130.986 67.7253 131.198 67.8351C131.41 67.9449 131.559 68.0822 131.645 68.2469C131.739 68.4116 131.794 68.5802 131.81 68.7528C131.834 68.9175 131.845 69.0586 131.845 69.1763V72.941H129.692V69.6234C129.692 69.3096 129.504 69.1528 129.128 69.1528H128.469C128.343 69.1528 128.257 69.1684 128.21 69.1998C128.163 69.2312 128.139 69.3018 128.139 69.4116V72.941H125.951V69.6234C125.951 69.3096 125.763 69.1528 125.386 69.1528H124.786C124.637 69.1528 124.539 69.1684 124.492 69.1998C124.453 69.2234 124.434 69.2939 124.434 69.4116V72.941H122.257Z" fill="#474747"/>
<path d="M115.553 75.2469C115.122 75.2469 114.73 75.2037 114.377 75.1175C114.024 75.039 113.781 74.9606 113.647 74.8822L114.118 73.4351C114.353 73.5371 114.604 73.6155 114.871 73.6704C115.145 73.7253 115.404 73.7528 115.647 73.7528H115.777C116.459 73.7528 116.953 73.4822 117.259 72.941H116.541L114.235 67.6704H116.6L117.612 70.7998L117.788 71.5175H117.906L118.083 70.7998L119.106 67.6704H121.435L121.247 68.3881C121.098 68.6939 120.926 69.0469 120.73 69.4469C120.541 69.839 120.345 70.2469 120.141 70.6704C119.937 71.0939 119.737 71.5018 119.541 71.8939C119.353 72.2861 119.184 72.6351 119.035 72.941C118.651 73.7253 118.208 74.3057 117.706 74.6822C117.204 75.0586 116.592 75.2469 115.871 75.2469H115.553Z" fill="#474747"/>
<path d="M108.672 72.941C107.982 72.941 107.488 72.8116 107.19 72.5528C106.892 72.2939 106.743 71.8626 106.743 71.2586C106.743 70.7018 106.896 70.2979 107.202 70.0469C107.515 69.7959 108.006 69.6704 108.672 69.6704H109.037C109.476 69.6704 109.896 69.6861 110.296 69.7175C110.696 69.7488 111.041 69.7802 111.331 69.8116V69.6234C111.331 69.5135 111.308 69.4077 111.26 69.3057C111.213 69.2037 111.049 69.1528 110.766 69.1528H110.178C109.323 69.1528 108.664 69.1684 108.202 69.1998C107.739 69.2234 107.453 69.2469 107.343 69.2704L107.213 68.0234C107.213 67.9449 107.351 67.8822 107.625 67.8351C107.9 67.7802 108.276 67.741 108.755 67.7175C109.233 67.6861 109.778 67.6704 110.39 67.6704H111.566C112.084 67.6704 112.48 67.7488 112.755 67.9057C113.029 68.0547 113.217 68.2586 113.319 68.5175C113.421 68.7763 113.472 69.0743 113.472 69.4116V72.941H111.802L111.343 72.7057C111.155 72.7449 110.853 72.7959 110.437 72.8586C110.029 72.9135 109.558 72.941 109.025 72.941H108.672ZM109.355 71.5528H110.978C111.151 71.5528 111.253 71.5371 111.284 71.5057C111.315 71.4743 111.331 71.3763 111.331 71.2116V70.7998H109.355C109.206 70.7998 109.096 70.8273 109.025 70.8822C108.955 70.9371 108.919 71.043 108.919 71.1998C108.919 71.3488 108.955 71.4469 109.025 71.4939C109.096 71.5332 109.206 71.5528 109.355 71.5528Z" fill="#474747"/>
<path d="M97.8054 72.9411V66.9647L97.6877 66.0117H103.135C103.66 66.0117 104.08 66.0705 104.394 66.1882C104.715 66.298 104.954 66.4509 105.111 66.647C105.276 66.8352 105.382 67.0588 105.429 67.3176C105.484 67.5686 105.511 67.8352 105.511 68.1176V69.047C105.511 69.4235 105.449 69.7725 105.323 70.0941C105.205 70.4078 104.982 70.6627 104.652 70.8588C104.331 71.047 103.864 71.1411 103.252 71.1411H102.441C101.947 71.1411 101.484 71.1294 101.052 71.1058C100.629 71.0823 100.311 71.0627 100.1 71.047V72.9411H97.8054ZM100.1 69.5411H102.535C102.794 69.5411 102.974 69.4902 103.076 69.3882C103.178 69.2862 103.229 69.1215 103.229 68.8941V68.2941C103.229 68.0666 103.182 67.9019 103.088 67.8C102.994 67.6902 102.813 67.6352 102.547 67.6352H100.1V69.5411Z" fill="#474747"/>
<path d="M88.519 72.941C88.0013 72.941 87.6131 72.8665 87.3543 72.7175C87.0955 72.5685 86.9229 72.3645 86.8366 72.1057C86.7582 71.839 86.719 71.5332 86.719 71.1881V69.4116C86.719 69.0822 86.7621 68.7881 86.8484 68.5292C86.9347 68.2626 87.1033 68.0547 87.3543 67.9057C87.6131 67.7488 88.0013 67.6704 88.519 67.6704H91.7896C92.3072 67.6704 92.6915 67.7488 92.9425 67.9057C93.2013 68.0547 93.37 68.2626 93.4484 68.5292C93.5347 68.7881 93.5778 69.0822 93.5778 69.4116V71.1881C93.5778 71.5332 93.5347 71.839 93.4484 72.1057C93.37 72.3645 93.2013 72.5685 92.9425 72.7175C92.6915 72.8665 92.3072 72.941 91.7896 72.941H88.519ZM89.4602 71.4586H90.8602C91.2366 71.4586 91.421 71.3018 91.4131 70.9881V69.6234C91.4131 69.4665 91.37 69.3488 91.2837 69.2704C91.2053 69.192 91.0641 69.1528 90.8602 69.1528H89.4719C89.268 69.1528 89.1229 69.192 89.0366 69.2704C88.9504 69.3488 88.9072 69.4665 88.9072 69.6234V70.9881C88.8994 71.3018 89.0837 71.4586 89.4602 71.4586Z" fill="#474747"/>
<path d="M83.3115 72.9409C82.7154 72.9409 82.3075 72.8155 82.0879 72.5645C81.8683 72.3135 81.7585 71.937 81.7585 71.4351V69.1527H80.7938V67.6704H81.2879C81.4213 67.6704 81.5272 67.6468 81.6056 67.5998C81.6919 67.5449 81.7468 67.4508 81.7703 67.3174L81.9938 66.0586H83.9232V67.6704H85.8879V69.1527H83.9232V70.9762C83.9232 71.1723 83.9703 71.3017 84.0644 71.3645C84.1585 71.4272 84.2997 71.4586 84.4879 71.4586H85.6644L85.8997 72.8233C85.735 72.8468 85.484 72.8743 85.1468 72.9057C84.8095 72.9292 84.4409 72.9409 84.0409 72.9409H83.3115Z" fill="#474747"/>
<path d="M73.1532 75.1292V67.6704H74.8238L75.1179 67.8234C75.4708 67.7841 75.8512 67.7488 76.2591 67.7175C76.6669 67.6861 77.1846 67.6704 77.812 67.6704H78.165C78.6905 67.6704 79.0787 67.7528 79.3297 67.9175C79.5885 68.0822 79.7571 68.2979 79.8356 68.5645C79.9218 68.8234 79.965 69.1057 79.965 69.4116V71.1881C79.965 71.5332 79.9022 71.839 79.7767 72.1057C79.6591 72.3724 79.4512 72.5802 79.1532 72.7292C78.8552 72.8704 78.4473 72.941 77.9297 72.941H77.5767C77.1532 72.941 76.7297 72.9253 76.3061 72.8939C75.8905 72.8547 75.5532 72.8234 75.2944 72.7998V75.1292H73.1532ZM75.6591 71.4586H77.2238C77.6003 71.4586 77.7885 71.3018 77.7885 70.9881V69.6234C77.7885 69.4665 77.7571 69.3488 77.6944 69.2704C77.6316 69.192 77.4748 69.1528 77.2238 69.1528H77.1179C76.6159 69.1528 76.2238 69.1645 75.9414 69.1881C75.6669 69.2116 75.4512 69.2312 75.2944 69.2469V71.0939C75.2944 71.2665 75.3101 71.3724 75.3414 71.4116C75.3806 71.443 75.4865 71.4586 75.6591 71.4586Z" fill="#474747"/>
<path d="M66.4492 75.2469C66.0178 75.2469 65.6257 75.2037 65.2727 75.1175C64.9198 75.039 64.6767 74.9606 64.5433 74.8822L65.0139 73.4351C65.2492 73.5371 65.5002 73.6155 65.7669 73.6704C66.0414 73.7253 66.3002 73.7528 66.5433 73.7528H66.6727C67.3551 73.7528 67.8492 73.4822 68.1551 72.941H67.4375L65.1316 67.6704H67.4963L68.508 70.7998L68.6845 71.5175H68.8022L68.9786 70.7998L70.0022 67.6704H72.3316L72.1433 68.3881C71.9943 68.6939 71.8218 69.0469 71.6257 69.4469C71.4375 69.839 71.2414 70.2469 71.0375 70.6704C70.8335 71.0939 70.6335 71.5018 70.4375 71.8939C70.2492 72.2861 70.0806 72.6351 69.9316 72.941C69.5473 73.7253 69.1041 74.3057 68.6022 74.6822C68.1002 75.0586 67.4884 75.2469 66.7669 75.2469H66.4492Z" fill="#474747"/>
<path d="M59.2401 72.941V67.6704H60.9107L61.3578 67.9057C61.7185 67.6704 62.197 67.5527 62.7931 67.5527C63.1852 67.5527 63.5303 67.5959 63.8283 67.6821C64.1264 67.7606 64.3656 67.8469 64.546 67.941C64.7342 68.0351 64.8519 68.1018 64.8989 68.141L64.3107 69.6704C64.2323 69.6155 64.0832 69.541 63.8636 69.4469C63.6519 69.3527 63.4009 69.2665 63.1107 69.188C62.8205 69.1018 62.5146 69.0586 62.1931 69.0586H62.0636C61.844 69.0586 61.6754 69.0978 61.5578 69.1763C61.4401 69.2469 61.3813 69.4076 61.3813 69.6586V72.941H59.2401Z" fill="#474747"/>
<path d="M52.6237 72.9411C51.7845 72.9411 51.1767 72.7568 50.8002 72.3882C50.4237 72.0196 50.2355 71.4235 50.2355 70.6V68.447C50.2355 67.6 50.4433 66.9843 50.859 66.6C51.2747 66.2078 51.8629 66.0117 52.6237 66.0117H56.059C56.6002 66.0117 57.0119 66.0431 57.2943 66.1058C57.5845 66.1607 57.7296 66.2196 57.7296 66.2823L57.3649 67.7529C57.1688 67.7294 56.7845 67.7058 56.2119 67.6823C55.6472 67.6509 54.9335 67.6352 54.0708 67.6352H53.4708C53.1021 67.6352 52.8512 67.7058 52.7178 67.847C52.5923 67.9803 52.5296 68.1882 52.5296 68.4705V70.4823C52.5296 70.749 52.5845 70.9568 52.6943 71.1058C52.8119 71.247 53.0708 71.3176 53.4708 71.3176H53.9531C55.0747 71.3176 55.9296 71.3058 56.5178 71.2823C57.1061 71.2509 57.459 71.2196 57.5767 71.1882L58.2943 72.4588C58.2943 72.498 58.2119 72.5568 58.0472 72.6352C57.8904 72.7137 57.6198 72.7843 57.2355 72.847C56.859 72.9098 56.3335 72.9411 55.659 72.9411H52.6237Z" fill="#474747"/>
</svg>
