<svg width="200" height="80" viewBox="0 0 200 80" fill="none" xmlns="http://www.w3.org/2000/svg">
<path d="M75.2152 36.976H82.1613V39H73.0762V22.9H75.2152V36.976ZM93.1265 37.551C91.9458 38.7163 90.5122 39.299 88.8255 39.299C87.1388 39.299 85.7052 38.7163 84.5245 37.551C83.3592 36.3857 82.7765 34.952 82.7765 33.25C82.7765 31.548 83.3592 30.1143 84.5245 28.949C85.7052 27.7837 87.1388 27.201 88.8255 27.201C90.5122 27.201 91.9458 27.7837 93.1265 28.949C94.3072 30.1143 94.8975 31.548 94.8975 33.25C94.8975 34.952 94.3072 36.3857 93.1265 37.551ZM88.8255 37.344C89.9755 37.344 90.9415 36.953 91.7235 36.171C92.5055 35.389 92.8965 34.4153 92.8965 33.25C92.8965 32.0847 92.5055 31.111 91.7235 30.329C90.9415 29.547 89.9755 29.156 88.8255 29.156C87.6908 29.156 86.7325 29.547 85.9505 30.329C85.1685 31.111 84.7775 32.0847 84.7775 33.25C84.7775 34.4153 85.1685 35.389 85.9505 36.171C86.7325 36.953 87.6908 37.344 88.8255 37.344ZM102.431 39.299C100.699 39.299 99.2574 38.724 98.1074 37.574C96.9574 36.4087 96.3824 34.9673 96.3824 33.25C96.3824 31.5327 96.9574 30.099 98.1074 28.949C99.2574 27.7837 100.699 27.201 102.431 27.201C103.566 27.201 104.586 27.477 105.49 28.029C106.395 28.5657 107.07 29.294 107.514 30.214L105.835 31.18C105.544 30.5667 105.092 30.076 104.478 29.708C103.88 29.34 103.198 29.156 102.431 29.156C101.281 29.156 100.315 29.547 99.5334 30.329C98.7668 31.111 98.3834 32.0847 98.3834 33.25C98.3834 34.4 98.7668 35.366 99.5334 36.148C100.315 36.93 101.281 37.321 102.431 37.321C103.198 37.321 103.888 37.1447 104.501 36.792C105.115 36.424 105.582 35.9333 105.904 35.32L107.606 36.309C107.116 37.2137 106.41 37.942 105.49 38.494C104.57 39.0307 103.551 39.299 102.431 39.299ZM118.717 27.5H120.718V39H118.717V37.022C117.72 38.54 116.271 39.299 114.37 39.299C112.76 39.299 111.388 38.7163 110.253 37.551C109.118 36.3703 108.551 34.9367 108.551 33.25C108.551 31.5633 109.118 30.1373 110.253 28.972C111.388 27.7913 112.76 27.201 114.37 27.201C116.271 27.201 117.72 27.96 118.717 29.478V27.5ZM114.623 37.367C115.788 37.367 116.762 36.976 117.544 36.194C118.326 35.3967 118.717 34.4153 118.717 33.25C118.717 32.0847 118.326 31.111 117.544 30.329C116.762 29.5317 115.788 29.133 114.623 29.133C113.473 29.133 112.507 29.5317 111.725 30.329C110.943 31.111 110.552 32.0847 110.552 33.25C110.552 34.4153 110.943 35.3967 111.725 36.194C112.507 36.976 113.473 37.367 114.623 37.367ZM123.52 39V22.21H125.521V39H123.52ZM143.27 30.651C144.006 31.0037 144.589 31.5097 145.018 32.169C145.463 32.8283 145.685 33.5873 145.685 34.446C145.685 35.734 145.233 36.815 144.328 37.689C143.424 38.563 142.32 39 141.016 39H134.07V22.9H140.51C141.768 22.9 142.833 23.3217 143.707 24.165C144.581 25.0083 145.018 26.051 145.018 27.293C145.018 28.719 144.436 29.8383 143.27 30.651ZM140.51 24.901H136.209V29.823H140.51C141.185 29.823 141.752 29.5853 142.212 29.11C142.672 28.6347 142.902 28.052 142.902 27.362C142.902 26.6873 142.665 26.1123 142.189 25.637C141.729 25.1463 141.17 24.901 140.51 24.901ZM141.016 36.999C141.737 36.999 142.343 36.746 142.833 36.24C143.324 35.734 143.569 35.113 143.569 34.377C143.569 33.6563 143.316 33.043 142.81 32.537C142.32 32.031 141.722 31.778 141.016 31.778H136.209V36.999H141.016ZM157.373 27.5H159.374V39H157.373V37.022C156.376 38.54 154.927 39.299 153.026 39.299C151.416 39.299 150.044 38.7163 148.909 37.551C147.774 36.3703 147.207 34.9367 147.207 33.25C147.207 31.5633 147.774 30.1373 148.909 28.972C150.044 27.7913 151.416 27.201 153.026 27.201C154.927 27.201 156.376 27.96 157.373 29.478V27.5ZM153.279 37.367C154.444 37.367 155.418 36.976 156.2 36.194C156.982 35.3967 157.373 34.4153 157.373 33.25C157.373 32.0847 156.982 31.111 156.2 30.329C155.418 29.5317 154.444 29.133 153.279 29.133C152.129 29.133 151.163 29.5317 150.381 30.329C149.599 31.111 149.208 32.0847 149.208 33.25C149.208 34.4153 149.599 35.3967 150.381 36.194C151.163 36.976 152.129 37.367 153.279 37.367ZM167.903 27.201C169.252 27.201 170.333 27.6303 171.146 28.489C171.958 29.3323 172.365 30.4823 172.365 31.939V39H170.364V32.054C170.364 31.1187 170.111 30.398 169.605 29.892C169.099 29.3707 168.401 29.11 167.512 29.11C166.515 29.11 165.71 29.4243 165.097 30.053C164.483 30.6663 164.177 31.617 164.177 32.905V39H162.176V27.5H164.177V29.156C164.989 27.8527 166.231 27.201 167.903 27.201ZM184.657 39H182.173L176.929 33.549V39H174.928V22.9H176.929V32.583L181.897 27.5H184.473L178.976 33.066L184.657 39ZM115.286 44.9V46.924H110.525V61H108.409V46.924H103.671V44.9H115.286ZM117.395 51.432C118.054 50.006 119.25 49.293 120.983 49.293V51.386C120.002 51.34 119.158 51.6007 118.453 52.168C117.748 52.7353 117.395 53.6477 117.395 54.905V61H115.394V49.5H117.395V51.432ZM131.604 49.5H133.605V61H131.604V59.022C130.607 60.54 129.158 61.299 127.257 61.299C125.647 61.299 124.275 60.7163 123.14 59.551C122.005 58.3703 121.438 56.9367 121.438 55.25C121.438 53.5633 122.005 52.1373 123.14 50.972C124.275 49.7913 125.647 49.201 127.257 49.201C129.158 49.201 130.607 49.96 131.604 51.478V49.5ZM127.51 59.367C128.675 59.367 129.649 58.976 130.431 58.194C131.213 57.3967 131.604 56.4153 131.604 55.25C131.604 54.0847 131.213 53.111 130.431 52.329C129.649 51.5317 128.675 51.133 127.51 51.133C126.36 51.133 125.394 51.5317 124.612 52.329C123.83 53.111 123.439 54.0847 123.439 55.25C123.439 56.4153 123.83 57.3967 124.612 58.194C125.394 58.976 126.36 59.367 127.51 59.367ZM142.134 49.201C143.483 49.201 144.564 49.6303 145.377 50.489C146.189 51.3323 146.596 52.4823 146.596 53.939V61H144.595V54.054C144.595 53.1187 144.342 52.398 143.836 51.892C143.33 51.3707 142.632 51.11 141.743 51.11C140.746 51.11 139.941 51.4243 139.328 52.053C138.714 52.6663 138.408 53.617 138.408 54.905V61H136.407V49.5H138.408V51.156C139.22 49.8527 140.462 49.201 142.134 49.201ZM150.884 52.605C150.884 53.0497 151.107 53.41 151.551 53.686C151.996 53.9467 152.533 54.1613 153.161 54.33C153.79 54.4833 154.419 54.6673 155.047 54.882C155.676 55.0813 156.213 55.434 156.657 55.94C157.102 56.4307 157.324 57.067 157.324 57.849C157.324 58.8917 156.918 59.7273 156.105 60.356C155.308 60.9847 154.281 61.299 153.023 61.299C151.904 61.299 150.946 61.0537 150.148 60.563C149.351 60.0723 148.784 59.4207 148.446 58.608L150.171 57.619C150.355 58.171 150.7 58.608 151.206 58.93C151.712 59.252 152.318 59.413 153.023 59.413C153.683 59.413 154.227 59.2903 154.656 59.045C155.086 58.7843 155.3 58.3857 155.3 57.849C155.3 57.4043 155.078 57.0517 154.633 56.791C154.189 56.515 153.652 56.3003 153.023 56.147C152.395 55.9783 151.766 55.7867 151.137 55.572C150.509 55.3573 149.972 55.0047 149.527 54.514C149.083 54.0233 148.86 53.3947 148.86 52.628C148.86 51.6313 149.244 50.811 150.01 50.167C150.792 49.523 151.766 49.201 152.931 49.201C153.867 49.201 154.695 49.4157 155.415 49.845C156.151 50.259 156.703 50.8417 157.071 51.593L155.392 52.536C154.978 51.5547 154.158 51.064 152.931 51.064C152.364 51.064 151.881 51.202 151.482 51.478C151.084 51.7387 150.884 52.1143 150.884 52.605ZM165.127 46.533C163.103 46.3643 162.091 47.2383 162.091 49.155V49.5H165.127V51.432H162.091V61H160.09V51.432H158.25V49.5H160.09V49.155C160.09 47.6063 160.52 46.4333 161.378 45.636C162.252 44.8387 163.502 44.4937 165.127 44.601V46.533ZM167.195 56.17C167.394 57.1973 167.862 57.9947 168.598 58.562C169.349 59.1293 170.269 59.413 171.358 59.413C172.876 59.413 173.98 58.8533 174.67 57.734L176.372 58.7C175.253 60.4327 173.566 61.299 171.312 61.299C169.487 61.299 168 60.7317 166.85 59.597C165.715 58.447 165.148 56.998 165.148 55.25C165.148 53.5173 165.708 52.076 166.827 50.926C167.946 49.776 169.395 49.201 171.174 49.201C172.861 49.201 174.233 49.799 175.291 50.995C176.364 52.1757 176.901 53.6017 176.901 55.273C176.901 55.5643 176.878 55.8633 176.832 56.17H167.195ZM171.174 51.087C170.101 51.087 169.211 51.3937 168.506 52.007C167.801 52.605 167.364 53.41 167.195 54.422H174.877C174.708 53.3333 174.279 52.5053 173.589 51.938C172.899 51.3707 172.094 51.087 171.174 51.087ZM180.972 51.432C181.631 50.006 182.827 49.293 184.56 49.293V51.386C183.579 51.34 182.735 51.6007 182.03 52.168C181.325 52.7353 180.972 53.6477 180.972 54.905V61H178.971V49.5H180.972V51.432Z" fill="#202121"/>
<path fill-rule="evenodd" clip-rule="evenodd" d="M36.265 7.80447C36.4931 7.65892 36.7849 7.65893 37.013 7.80448L57.511 20.8848C58.097 21.2587 57.8322 22.1661 57.137 22.1661H16.1409C15.4458 22.1661 15.181 21.2587 15.7669 20.8848L36.265 7.80447ZM39.4193 15.9087C39.4193 17.4446 38.1742 18.6897 36.6383 18.6897C35.1024 18.6897 33.8573 17.4446 33.8573 15.9087C33.8573 14.3728 35.1024 13.1277 36.6383 13.1277C38.1742 13.1277 39.4193 14.3728 39.4193 15.9087ZM13 24.9472C13 24.5632 13.3113 24.2519 13.6953 24.2519H59.5819C59.9659 24.2519 60.2772 24.5632 60.2772 24.9472V26.3377C60.2772 26.7217 59.9659 27.0329 59.5819 27.0329H13.6953C13.3113 27.0329 13 26.7217 13 26.3377V24.9472ZM19.9524 28.4233C19.1844 28.4233 18.5619 29.0459 18.5619 29.8138V50.6714C18.5619 51.4394 19.1844 52.0619 19.9524 52.0619H24.1239C24.8918 52.0619 25.5144 51.4394 25.5144 50.6714V29.8138C25.5144 29.0459 24.8918 28.4233 24.1239 28.4233H19.9524ZM34.7432 28.4233C33.9752 28.4233 33.3527 29.0459 33.3527 29.8138V50.6714C33.3527 51.4394 33.9752 52.0619 34.7432 52.0619H38.9147C39.6826 52.0619 40.3052 51.4394 40.3052 50.6714V29.8138C40.3052 29.0459 39.6826 28.4233 38.9147 28.4233H34.7432ZM47.2573 29.8138C47.2573 29.0459 47.8799 28.4233 48.6478 28.4233H52.8193C53.5873 28.4233 54.2098 29.0459 54.2098 29.8138V50.6714C54.2098 51.4394 53.5873 52.0619 52.8193 52.0619H48.6478C47.8799 52.0619 47.2573 51.4394 47.2573 50.6714V29.8138ZM15.781 53.4525C15.013 53.4525 14.3905 54.075 14.3905 54.843V57.624C14.3905 58.3919 15.013 59.0145 15.781 59.0145H57.4961C58.2641 59.0145 58.8866 58.3919 58.8866 57.624V54.843C58.8866 54.075 58.2641 53.4525 57.4961 53.4525H15.781Z" fill="#C8E3FC"/>
<g filter="url(#filter0_b_5935_9)">
<rect x="28.2959" y="45.1096" width="40.7039" height="27.1359" rx="2.78101" fill="url(#paint0_linear_5935_9)"/>
<rect x="28.6435" y="45.4572" width="40.0086" height="26.4407" rx="2.43338" stroke="url(#paint1_linear_5935_9)" stroke-width="0.695252"/>
</g>
<rect width="11.6297" height="1.93828" rx="0.96914" transform="matrix(-1 0 0 1 63.1855 50.9246)" fill="white"/>
<rect width="5.81484" height="1.93828" rx="0.96914" transform="matrix(-1 0 0 1 63.1855 54.801)" fill="white"/>
<rect width="5.81484" height="1.93828" rx="0.96914" transform="matrix(-1 0 0 1 39.9248 64.4924)" fill="white"/>
<rect width="5.81484" height="1.93828" rx="0.96914" transform="matrix(-1 0 0 1 47.6787 64.4924)" fill="white"/>
<rect width="5.81484" height="1.93828" rx="0.96914" transform="matrix(-1 0 0 1 55.4326 64.4924)" fill="white"/>
<rect width="5.81484" height="1.93828" rx="0.96914" transform="matrix(-1 0 0 1 63.1855 64.4924)" fill="white"/>
<rect x="34.1113" y="50.9246" width="7.75312" height="5.81484" rx="0.695252" fill="#FFEEB3"/>
<defs>
<filter id="filter0_b_5935_9" x="21.3434" y="38.1571" width="54.6091" height="41.041" filterUnits="userSpaceOnUse" color-interpolation-filters="sRGB">
<feFlood flood-opacity="0" result="BackgroundImageFix"/>
<feGaussianBlur in="BackgroundImageFix" stdDeviation="3.47626"/>
<feComposite in2="SourceAlpha" operator="in" result="effect1_backgroundBlur_5935_9"/>
<feBlend mode="normal" in="SourceGraphic" in2="effect1_backgroundBlur_5935_9" result="shape"/>
</filter>
<linearGradient id="paint0_linear_5935_9" x1="61.668" y1="45.1096" x2="40.8104" y2="72.9197" gradientUnits="userSpaceOnUse">
<stop stop-color="#0075FF"/>
<stop offset="1" stop-color="#64BBFF"/>
</linearGradient>
<linearGradient id="paint1_linear_5935_9" x1="48.6478" y1="45.1096" x2="48.6478" y2="72.2455" gradientUnits="userSpaceOnUse">
<stop stop-color="white" stop-opacity="0.47"/>
<stop offset="1" stop-color="#0792FF" stop-opacity="0.45"/>
</linearGradient>
</defs>
</svg>
