<svg width="200" height="80" viewBox="0 0 200 80" fill="none" xmlns="http://www.w3.org/2000/svg">
<g id="QRIS-icon">
<g id="Vector">
<path d="M82.6383 23.6729L114.616 23.6729L114.616 42.8572L101.201 42.8572L114.616 55.1346L103.22 55.1346L90.0633 42.8572L90.0634 55.1346L82.6384 55.1346L82.6383 35.632L106.084 35.632L106.084 30.9636L82.6383 30.9636L82.6383 23.6729Z" fill="#0792FF"/>
<path d="M117.937 55.1346L125.752 55.1346L125.752 23.6091L117.937 23.6091L117.937 55.1346Z" fill="#0792FF"/>
<path d="M55.351 47.525L55.3509 23.6728L49.229 23.6728C48.1219 23.6728 47.2751 24.5047 47.2751 25.5266C47.2751 31.1557 47.2101 47.7169 47.2101 53.2161C47.2101 54.2393 48.0569 55.1345 49.0989 55.1345C53.332 55.1345 65.5104 55.1345 67.2681 55.1345L67.2681 47.525L55.351 47.525Z" fill="#0792FF"/>
<path d="M71.3061 63C72.0234 63 77.4936 63 79.3177 63C79.3177 63 79.3177 47.4611 79.3177 47.2054C76.7121 47.2054 73.9781 47.2054 71.306 47.2054C71.3061 52.4489 71.3061 57.6923 71.3061 63Z" fill="#0792FF"/>
<path d="M59.2585 23.6728C59.2585 23.8017 59.2585 31.5378 59.2585 31.5378C62.8406 31.5378 67.3987 31.5378 71.306 31.5378C71.306 36.9748 71.306 43.3048 71.306 43.3048C73.1302 43.3048 78.6004 43.3048 79.3177 43.3048L79.3176 25.5922C79.3176 24.5681 78.4697 23.7361 77.4293 23.6728C73.522 23.6728 64.2729 23.6728 59.2585 23.6728Z" fill="#0792FF"/>
<path d="M59.2585 35.3742C59.2585 37.9966 59.2585 40.619 59.2585 43.368C59.9098 43.368 60.6262 43.368 61.2775 43.368C63.1019 43.368 65.3798 43.368 67.2039 43.368C67.2039 43.368 67.2039 35.503 67.2039 35.3742C64.5983 35.3742 61.9287 35.3742 59.2585 35.3742ZM64.8596 40.9378C64.0781 40.9378 63.166 40.9377 62.4487 40.9377C62.1893 40.9377 61.9287 40.9377 61.6031 40.9377C61.6031 39.8504 61.6031 38.8285 61.6031 37.7411C62.71 37.7411 63.7527 37.7411 64.8596 37.7411C64.8596 37.8044 64.8596 40.9378 64.8596 40.9378Z" fill="#0792FF"/>
<path d="M164.112 47.2054L164.112 58.9714C164.112 59.9944 163.2 60.8259 162.159 60.8259L150.176 60.8259V62.7441H164.178C165.154 62.7441 166 61.9128 166 60.8896L166 47.2054H164.112Z" fill="#0792FF"/>
<path d="M43.9539 31.4745L43.9539 19.7076C43.9539 18.6857 44.7353 17.9171 45.7774 17.9171L57.7607 17.9171C57.8258 17.9171 57.8258 17.8538 57.8258 17.8538L57.8258 16.0633C57.8258 16.0633 57.8258 16 57.7607 16L43.9539 16C42.8468 16 42 16.8319 42 17.9171L42 31.4745C42 31.5378 42.0651 31.5378 42.0651 31.5378H43.8888C43.8888 31.5378 43.9539 31.5378 43.9539 31.4745Z" fill="#0792FF"/>
<path d="M160.725 31.4745L160.725 23.6729L129.138 23.6729L129.139 43.2415L150.176 43.2415L150.176 47.1414L129.139 47.1414L129.139 55.0066L160.725 55.0066L160.725 35.4398L139.689 35.4398V31.4745L160.725 31.4745Z" fill="#0792FF"/>
</g>
</g>
</svg>
