<svg width="200" height="80" viewBox="0 0 200 80" fill="none" xmlns="http://www.w3.org/2000/svg">
<path fill-rule="evenodd" clip-rule="evenodd" d="M83.6524 38.456C85.3078 39.2419 87.3645 37.8541 86.9298 42.837L86.495 50.094C86.5117 51.6323 86.2944 52.1674 86.2777 53.6054C86.2609 54.5585 86.1272 56.2139 85.9934 57.2673C85.6088 60.2939 85.9265 61.2135 82.5488 61.4978V62.384C83.4016 62.8522 89.2707 62.6014 90.6753 62.6014C91.5114 62.6014 90.7589 62.6683 91.3274 62.384C91.2271 61.1801 90.7589 61.548 89.5383 61.3139C88.4514 61.1132 88.2173 60.9962 88.0501 59.9427C87.6822 57.7523 88.4848 46.0809 88.4848 43.0711C89.0701 43.7399 89.2875 44.5592 89.6553 45.412C90.0734 46.3317 90.3075 46.9504 90.7589 47.8199C91.2104 48.6894 91.4111 49.3582 91.8458 50.2444C92.3307 51.2143 92.5815 51.7494 93.033 52.7861C94.2871 55.729 96.812 59.926 97.4808 62.8188C98.8353 62.7853 98.3503 62.8355 99.2366 60.8457C100.624 57.7021 101.544 56.2139 102.965 53.388L107.731 43.673C107.998 43.2717 107.815 43.5225 108.015 43.2884C108.015 45.5291 108.233 46.9336 108.233 49.2077C108.233 51.5821 108.634 59.3073 107.798 61.063C107.112 61.2135 105.942 61.4811 105.173 61.4978V62.6014H114.169C114.904 62.6014 114.804 62.2001 114.821 61.4978C114.202 61.4978 113.433 61.3975 112.881 61.247C111.192 60.7788 111.527 58.2037 111.527 55.3611C111.527 53.5552 111.293 52.5854 111.309 50.9802V40.6632C111.309 39.5429 111.928 39.0078 112.965 38.8072C114.62 38.4895 115.021 39.175 114.603 37.3691C113.383 37.6534 109.37 37.9209 108.233 37.3691C108.099 38.9911 107.029 41.1983 106.41 42.5694C105.624 44.2583 104.838 45.7297 104.002 47.4018L98.8018 57.1336C98.133 54.2241 90.2406 42.0176 90.2406 37.3859C89.1035 37.9377 85.0904 37.6701 83.8698 37.3859C83.7528 37.8541 83.7026 37.8708 83.6524 38.456ZM131.492 48.3382V49.2245C132.512 49.492 133.03 50.3448 133.03 51.6323C133.03 53.0369 133.214 59.7588 132.712 60.7453C132.395 61.364 131.391 61.4309 130.622 61.4978V62.6014H137.645C138.481 62.6014 137.729 62.6683 138.297 62.384C138.197 61.1801 137.444 61.3306 136.324 61.063C135.839 59.0063 136.107 54.0067 136.107 51.6323C136.107 49.0405 140.588 47.9035 142.411 50.3615C143.431 51.7326 143.23 58.9729 142.896 60.3942C142.728 61.1299 142.444 61.364 140.722 61.4978V62.384C141.558 62.8522 147.059 62.6014 148.397 62.6014V61.4978C145.237 61.2303 145.989 60.0263 145.989 53.6054C145.989 50.3448 146.156 47.0173 141.374 47.0173C139.936 47.0173 138.464 47.6025 137.327 48.2379C136.776 48.5556 136.742 48.6225 136.107 48.773V46.5825C134.602 46.6159 133.08 47.9704 131.492 48.3382Z" fill="#F00F0F"/>
<path fill-rule="evenodd" clip-rule="evenodd" d="M122.278 48.3383C128.231 48.3383 128.382 61.7319 122.93 61.7319C117.998 61.7319 116.944 53.99 118.85 50.6291C119.486 49.492 120.64 48.3383 122.278 48.3383ZM114.587 54.4749V56.0133C114.587 65.1431 130.388 65.9791 130.388 54.9097C130.388 43.9406 114.587 44.9773 114.587 54.4749ZM162.66 48.5556C164.483 48.7061 164.984 49.2078 165.586 50.6792L168.312 58.0533C169.934 62.1834 170.034 62.7352 167.509 66.9991C166.957 67.9188 166.857 68.4371 165.519 68.5207C163.947 68.6211 163.546 68.7716 163.546 70.2765C163.546 71.7479 164.483 71.8148 165.519 71.8148C167.543 71.8148 168.379 68.8384 169.549 66.3972L175.619 53.5887C176.856 51.114 177.475 48.7563 180 48.5389V47.4353H173.194V48.5389C173.897 48.5891 174.749 48.8232 175.385 48.9737C175.368 50.094 174.147 52.8196 173.696 53.8563C173.295 54.7759 172.041 57.9697 171.439 58.4044L169.817 53.873C169.432 52.7694 168.395 50.0271 168.362 48.957C170.552 48.4386 170.118 48.5891 170.118 47.4186H163.312C162.593 47.4521 162.66 47.8534 162.66 48.5556ZM153.43 51.6323H152.126C152.159 50.3783 152.644 50.0104 153.396 49.3917C155.303 47.8701 158.697 47.8701 158.697 50.7461C158.697 51.7661 157.443 51.3314 156.339 51.4651C155.47 51.5822 154.651 51.6323 153.43 51.6323ZM148.832 55.1438C148.832 57.8693 149.383 59.8592 151.273 61.4811C153.714 63.5713 157.761 63.5044 160.068 61.7654C160.386 61.5313 163.262 58.8726 161.339 58.8726C159.934 58.8726 161.122 60.6283 156.958 60.6283C153.664 60.6283 151.875 57.3008 151.507 54.1907C151.29 52.4517 152.075 52.9533 156.089 52.9533C157.961 52.9533 160.252 53.0871 161.79 52.7359C161.807 51.7828 162.342 50.512 160.754 48.7229C158.279 45.9471 153.146 46.7832 150.872 49.492C149.801 50.7461 148.832 52.8697 148.832 55.1438Z" fill="#F00F0F"/>
<path fill-rule="evenodd" clip-rule="evenodd" d="M83.6693 10.4983C85.2076 11.234 86.8965 10.2809 86.9801 12.6888L87.1807 22.3536H90.2574V12.0367C90.2574 10.4314 91.1102 10.7157 92.6653 10.7157C98.7518 10.7157 99.939 18.9927 95.5747 21.7349C91.9797 23.9923 83.2512 22.5543 79.2883 22.5543L80.2582 22.9054C86.8463 24.4939 101.895 26.0657 101.895 16.4009C101.895 12.5049 99.1865 10.1806 95.4075 9.49504C91.8961 8.85964 89.3043 9.41144 86.0771 9.37799C84.6558 9.39472 83.7696 9.19406 83.6693 10.4983ZM129.101 19.2769C128.633 19.394 127.88 19.7117 127.546 19.9291C126.776 20.414 126.927 20.3972 127.128 21.25C130.087 21.25 129.101 20.9825 129.101 22.571C129.101 23.6412 129.402 32.3696 128.883 32.888C127.746 33.4398 126.81 32.7709 126.693 34.2089C127.596 34.6437 131.759 34.4263 133.515 34.443C135.037 34.4598 134.769 34.6771 135.254 33.7742C134.134 32.2526 132.177 34.627 132.177 30.6975C132.177 17.2704 131.208 22.4372 137.227 21.0494C137.562 19.6448 137.545 20.6313 137.227 19.2936C132.512 19.2936 132.177 19.8287 132.177 17.9727C132.177 14.9796 132.512 7.65571 136.692 9.27767C137.829 9.71242 138.348 11.1672 139.418 11.1672C140.705 11.1672 141.407 10.0636 140.939 9.01013C139.836 6.50195 131.224 5.86655 129.586 14.7455C129.368 15.9494 129.101 18.0228 129.101 19.2769Z" fill="#F00F0F"/>
<path fill-rule="evenodd" clip-rule="evenodd" d="M141.608 23.4572C137.812 23.4572 142.561 20.1631 144.233 20.1631C145.989 20.1631 146.859 21.0828 146.859 22.571C146.859 23.591 145.604 23.1562 144.501 23.29C143.631 23.407 142.812 23.4572 141.608 23.4572ZM136.993 26.9686C136.993 35.7305 144.869 35.8977 148.096 33.6906C149.116 32.9883 150.203 31.9181 149.935 30.7142C147.527 30.7643 149.584 32.4699 145.103 32.4699C141.374 32.4699 139.217 27.7545 139.836 24.7949C142.879 24.7949 147.36 25.1795 149.935 24.5775C149.935 22.3369 149.919 21.6513 148.798 20.4474C146.324 17.8222 141.257 18.6582 139.033 21.3336C137.913 22.6546 136.993 24.5942 136.993 26.9686ZM104.069 23.4572C104.37 19.9123 110.875 18.8923 110.875 22.3536C110.875 23.8083 105.524 23.4572 104.069 23.4572ZM101.009 26.2998C101.009 28.7745 100.842 31.1155 103.149 33.1555C105.959 35.6469 111.226 35.4296 113.416 32.3194C114.252 31.1322 114.052 29.945 112.714 31.1489C108.784 34.6771 103.668 30.8981 103.668 25.4136C103.668 24.3267 106.811 24.7614 108.935 24.7614C113.416 24.7614 113.985 25.2631 113.985 23.2231C113.985 20.4975 111.426 18.8422 108.283 18.8422C104.404 18.8422 101.009 22.4874 101.009 26.2998ZM151.039 26.5172V28.0555C151.039 34.3427 158.313 36.4161 162.409 33.724C163.128 33.2558 164.633 31.9348 164.633 30.8981C164.633 30.0621 164.7 30.8145 164.416 30.246C163.229 30.3463 163.797 30.6975 162.794 31.4834C159.851 33.7909 153.881 32.2024 153.881 25.865C153.881 22.9556 155.888 20.3805 158.931 20.3805C161.523 20.3805 162.209 22.571 163.095 22.571C163.881 22.571 164.55 21.367 163.897 20.0126C163.279 18.7251 160.971 18.8422 159.583 18.8422C157.042 18.8422 155.002 19.7451 153.597 20.9825C152.343 22.1028 151.039 24.2264 151.039 26.5172ZM165.519 21.0326C166.121 21.3671 166.456 21.25 167.493 21.25V30.2627C167.493 37.6033 175.619 34.4764 175.619 32.8879C175.619 31.8178 174.749 32.4197 174.315 32.6538C173.612 33.0384 173.295 33.1555 172.375 32.8545C171.088 32.4365 170.586 31.082 170.586 29.3598V21.2333C175.803 21.2333 176.204 21.7015 175.636 19.2602C170.302 19.2602 170.653 19.7451 170.586 17.9392C170.552 17.1868 170.569 16.4677 169.833 16.7353C169.114 17.0028 169.165 18.792 166.539 19.812C165.419 20.2635 165.553 19.8956 165.519 21.0326ZM115.49 20.5979C115.49 21.6848 116.811 21.2667 116.811 22.3536C116.811 24.8618 117.078 30.7978 116.593 32.8879C115.941 33.0384 115.339 33.2725 114.62 33.3227V34.4263H122.295C123.031 34.4263 122.931 34.025 122.947 33.3227C122.529 33.3227 121.141 33.1555 120.807 33.0551C120.222 32.8712 119.871 32.4365 119.871 31.567V24.1093C119.871 23.0057 120.372 21.4841 121.626 21.4841C122.546 21.4841 123.533 22.3536 123.817 22.3536C127.228 22.3536 126.174 16.7353 121.576 19.6782C120.924 20.0962 120.623 20.6313 119.871 20.832V18.4241C118.7 18.4576 117.747 19.1933 116.409 19.7953C115.841 20.0126 115.49 19.8789 115.49 20.5979ZM83.8866 33.3227V34.4263H93.9862V33.3227C89.5886 33.2224 90.2574 31.6673 90.2574 24.9788C88.4515 24.9788 88.6856 25.1126 87.1807 24.7614C87.1807 26.9185 86.9633 28.6073 86.9633 30.4801C86.9633 33.005 86.1273 33.1388 83.8866 33.3227Z" fill="#F00F0F"/>
<path fill-rule="evenodd" clip-rule="evenodd" d="M75.2418 36.2824C75.2418 51.1505 63.1889 63.2035 48.3207 63.2035C33.4526 63.2035 21.3997 51.1505 21.3997 36.2824C21.3997 21.4143 33.4526 9.36133 48.3207 9.36133C63.1889 9.36133 75.2418 21.4143 75.2418 36.2824ZM65.2204 42.7499C65.231 44.4951 65.2313 44.5595 67.55 44.5595L67.4998 45.7132C67.1583 45.7132 66.5994 45.7162 65.9345 45.7197H65.9339H65.9334C63.8635 45.7307 60.768 45.7471 60.0088 45.6965L60.0255 44.6096C60.3893 44.5829 60.6992 44.5728 60.9633 44.5643H60.9633H60.9634C62.3496 44.5193 62.4721 44.5153 62.5002 42.3523L62.5169 30.1793C62.4073 30.2615 61.2983 32.5222 60.7818 33.5749C60.6681 33.8068 60.5831 33.9801 60.5438 34.0586L55.1262 44.827C55.0847 44.9128 55.0437 45.0054 55.0027 45.0978L55.0027 45.0979C54.7961 45.5642 54.5915 46.026 54.3403 45.5795L49.3407 35.8645C48.9895 35.1789 48.6718 34.5602 48.3207 33.8914C48.1277 33.5148 47.9373 33.1409 47.7478 32.7685L47.7459 32.7648L47.7452 32.7635C47.2623 31.8147 46.7844 30.8759 46.2807 29.9284C46.174 30.6141 46.1784 36.2977 46.1801 38.3897V38.3899L46.1804 38.891C46.1804 39.1814 46.18 39.4572 46.1797 39.7192C46.1761 42.8097 46.1747 43.9786 46.7376 44.4082C47.08 44.6695 47.6312 44.6572 48.5179 44.6374L48.5188 44.6374C48.7051 44.6332 48.9062 44.6287 49.1233 44.6264L49.14 45.7467H41.6322V44.6264C41.7937 44.6286 41.9551 44.6337 42.1149 44.6388C43.1629 44.6721 44.1376 44.7032 44.5584 43.8906C45.1604 42.6867 45.1771 34.4264 45.1771 32.6038C45.1771 31.8386 45.181 31.1775 45.1843 30.6065V30.6064V30.6064C45.1989 28.131 45.2036 27.3462 44.8378 27.09C44.6681 26.971 44.4185 26.966 44.053 26.9586C43.8358 26.9543 43.5776 26.9491 43.2709 26.9186V25.9488H47.4846L55.0258 41.7002C55.1463 41.5529 55.5885 40.6016 55.8457 40.048L55.8458 40.0478C55.9098 39.9101 55.9624 39.797 55.9957 39.7271C56.1228 39.4595 56.2498 39.1974 56.3769 38.9352L56.377 38.9351C56.5676 38.5418 56.7582 38.1486 56.9488 37.7372L57.0788 37.4517L57.0789 37.4516C57.6399 36.2197 58.2163 34.9538 58.8216 33.7743C58.9971 33.4408 59.1588 33.0889 59.3212 32.7355L59.3212 32.7354L59.3212 32.7353L59.3213 32.7351L59.3214 32.735C59.4683 32.4152 59.6158 32.0942 59.7747 31.7845C59.9753 31.4033 60.1579 31.0039 60.3405 30.6046C60.4622 30.3384 60.584 30.0722 60.711 29.8114C60.9594 29.3146 61.1894 28.827 61.4215 28.3349L61.4217 28.3345L61.4218 28.3341L61.4222 28.3333C61.5023 28.1634 61.5827 27.9931 61.6641 27.8216L62.3664 26.3501C62.3893 26.3091 62.4083 26.2593 62.4277 26.2086L62.4278 26.2086L62.4278 26.2085C62.4795 26.0735 62.5337 25.9321 62.6674 25.9321H67.2992V26.9186C67.1258 26.9186 66.9654 26.9163 66.8173 26.9141L66.817 26.9141C65.6503 26.8971 65.2406 26.8912 65.2257 28.1226C65.2194 28.7355 65.2128 29.3357 65.2063 29.9264C65.1614 34.0084 65.1214 37.6376 65.209 41.9175C65.2172 42.2306 65.2189 42.5066 65.2204 42.7499ZM43.6555 33.2225C42.5351 36.9179 38.3381 37.2356 34.8434 37.2356C33.2549 37.2356 31.8169 37.2188 30.2451 36.9847C29.3756 36.8677 27.5697 36.4831 27.0179 36.0651C27.2414 36.0845 27.5215 36.1435 27.8022 36.2026L27.8022 36.2026C28.0044 36.2452 28.207 36.2879 28.389 36.3159C31.1647 36.7507 36.1309 36.9848 38.5555 35.8812C39.8096 35.3126 40.9466 34.1254 41.1306 32.3697C41.3479 30.196 40.7794 28.8583 39.6424 27.8717C38.3091 26.7266 37.1671 26.7293 35.1535 26.734C35.0206 26.7344 34.8839 26.7347 34.7431 26.7347V35.8812C34.6203 35.8812 34.4429 35.8838 34.2374 35.8869H34.2373C33.5473 35.8971 32.5403 35.9121 32.2182 35.8477L32.1847 28.457C32.1847 28.3761 32.1871 28.2906 32.1895 28.2029L32.1895 28.2028C32.2042 27.6737 32.2209 27.0668 31.7333 26.952C31.4156 26.8684 30.1782 26.8684 29.8605 26.9186L29.8438 26.0157C30.8018 26.0157 31.7636 26.0101 32.726 26.0045C34.6526 25.9934 36.5818 25.9822 38.4886 26.0157C40.7794 26.0491 42.8194 27.3868 43.6053 29.4937C44.04 30.6641 44.0233 32.0186 43.6555 33.2225ZM34.7526 39.7686V39.7687L34.7526 39.7687C34.7477 39.978 34.7431 40.1713 34.7431 40.329C34.7469 40.8262 34.7455 41.2653 34.7443 41.6531V41.6532C34.7393 43.2346 34.7371 43.9625 35.099 44.3013C35.4077 44.5902 35.9812 44.5961 37.044 44.607H37.044L37.2847 44.6096L37.268 45.7132L29.827 45.6965V44.6096C30.1383 44.5811 30.4098 44.567 30.6462 44.5548H30.6463C31.9337 44.4882 32.1821 44.4753 32.168 42.4693L32.2015 38.0549H34.7096C34.7837 38.4621 34.7666 39.179 34.7526 39.7686Z" fill="#F00F0F"/>
</svg>
