<svg width="200" height="80" viewBox="0 0 200 80" fill="none" xmlns="http://www.w3.org/2000/svg">
<g clip-path="url(#clip0_1557_1395)">
<path d="M60.3308 31.8361H50.6869C50.6869 30.2738 50.5007 29.2257 50.1302 28.6917C49.5562 27.9024 47.9726 27.5068 45.3802 27.5068C42.8622 27.5068 41.1933 27.734 40.379 28.1893C39.5647 28.6464 39.1566 29.6393 39.1566 31.1681C39.1566 32.552 39.5179 33.4644 40.2414 33.9007C40.7595 34.2112 41.4445 34.3931 42.2973 34.4474L44.2422 34.5832C48.4109 34.8556 51.0142 35.0484 52.0523 35.1579C55.3488 35.4856 57.7385 36.3509 59.2213 37.7529C60.3877 38.8472 61.0837 40.2773 61.3056 42.0423C61.4358 43.0986 61.5 44.2943 61.5 45.6221C61.5 48.6833 61.2038 50.9244 60.6124 52.3445C59.5386 54.9513 57.126 56.5978 53.3727 57.2893C51.8001 57.5816 49.3948 57.7274 46.1588 57.7274C40.7577 57.7274 36.9944 57.4106 34.8688 56.7724C32.2609 55.9913 30.5406 54.4082 29.7089 52.025C29.2449 50.6981 29.0156 48.4878 29.0156 45.394H38.6596C38.6596 45.7389 38.6605 46.0032 38.6605 46.1851C38.6605 47.8361 39.141 48.8969 40.1011 49.3703C40.7659 49.6961 41.5683 49.8672 42.5119 49.888H46.0579C47.8671 49.888 49.0216 49.7966 49.5195 49.6129C50.4063 49.2689 50.9885 48.715 51.2664 47.9483C51.414 47.4758 51.4874 46.8658 51.4874 46.1182C51.4874 44.4446 50.8684 43.4263 49.6323 43.0606C49.1692 42.9167 47.0198 42.7149 43.1813 42.4605C40.0984 42.2433 37.9572 42.0342 36.7587 41.8314C33.6015 41.2485 31.497 40.0492 30.447 38.229C29.5236 36.6831 29.0624 34.3433 29.0624 31.2125C29.0624 28.8292 29.3118 26.9176 29.8107 25.4803C30.3095 24.042 31.1137 22.9504 32.2233 22.2037C33.8491 21.0569 35.9297 20.3844 38.4615 20.1834C40.5688 20.0015 42.9062 19.9092 45.4774 19.9092C49.525 19.9092 52.4099 20.1391 54.1292 20.5944C58.3263 21.7077 60.4244 24.8249 60.4244 29.948C60.4244 30.368 60.3932 30.9961 60.3308 31.8361Z" fill="#10298E"/>
<path d="M102.406 57.7274V19.9092H117.453H119.815H121.641C124.279 19.9092 126.292 20.1208 127.675 20.5457C130.839 21.5226 132.961 23.5241 134.049 26.5474C134.609 28.1348 134.891 30.5243 134.891 33.7151C134.891 37.5515 134.579 40.3074 133.963 41.9866C132.729 45.3053 130.19 47.2176 126.356 47.7128C125.904 47.7875 123.986 47.8533 120.599 47.9073L118.885 47.9631H112.73V57.7274H102.406ZM112.73 39.1901H119.166C121.207 39.1181 122.448 38.9632 122.894 38.721C123.505 38.3906 123.915 37.728 124.118 36.7349C124.249 36.074 124.314 35.0908 124.314 33.7853C124.314 32.1854 124.184 30.9997 123.924 30.2254C123.553 29.1404 122.663 28.4805 121.255 28.2401C120.976 28.2041 120.309 28.1843 119.253 28.1843H112.73V39.1901Z" fill="#10298E"/>
<path d="M156.237 51.1917H142.528L140.686 57.7274H130.078L141.525 19.9092H156.992L168.578 57.7274H158.193L156.237 51.1917ZM154.201 43.8242L149.397 27.4307L144.735 43.8242H154.201Z" fill="#10298E"/>
<path d="M88.3527 24.9672C92.6331 24.9672 96.4544 26.9297 98.9656 30.0033L101.203 25.2294C97.704 21.9384 92.9416 19.9092 87.6888 19.9092C79.5099 19.9092 72.5136 24.8247 69.6425 31.7831H65.2795L62.7031 37.2788H68.3158C68.2736 37.7886 68.246 38.2984 68.246 38.8192C68.246 39.4487 68.2791 40.0718 68.3415 40.6867H65.5209L62.9455 46.1842H69.7766C72.7294 52.9663 79.6385 57.7274 87.6888 57.7274C91.7461 57.7274 95.5106 56.5177 98.6277 54.451V47.7137C96.1175 50.5579 92.4458 52.355 88.3527 52.355C83.5682 52.355 79.3593 49.9 76.9088 46.1842H91.2118L93.7881 40.6867H74.8044C74.7061 40.0252 74.6538 39.3491 74.6538 38.6602C74.6538 38.1942 74.6777 37.7338 74.7236 37.2788H95.3848L97.9602 31.7831H76.5094C78.8819 27.7091 83.2964 24.9672 88.3527 24.9672Z" fill="#FFBE00"/>
<path d="M88.3066 25.2497C92.3378 25.2497 96.114 27.0485 98.6672 30.1826L98.8323 30.3854L98.9439 30.149L101.154 25.4163L101.203 25.3085L101.119 25.227C97.484 21.7977 92.7007 19.9092 87.6506 19.9092C83.7065 19.9092 79.9121 21.0595 76.6757 23.2361C73.5156 25.3611 71.0912 28.3166 69.6668 31.7813L69.8174 31.6798H65.5058H65.4006L65.357 31.774L62.812 37.2232L62.7031 37.456H62.9599H68.5063L68.343 37.2784C68.2967 37.8446 68.274 38.3473 68.274 38.8192C68.274 39.4306 68.3058 40.0601 68.3684 40.6869L68.5317 40.5076H65.7444H65.641L65.5975 40.6018L63.0506 46.0509L62.9427 46.2837H63.1994H69.9498L69.7992 46.185C72.8423 53.1966 79.8495 57.7274 87.6506 57.7274C91.5611 57.7274 95.3292 56.596 98.5511 54.453L98.6227 54.405V54.3162V47.637V47.2031L98.3369 47.5292C95.7955 50.4177 92.14 52.0735 88.3066 52.0735C83.7972 52.0735 79.6209 49.8136 77.1339 46.0301L76.9978 46.2837H91.132H91.2372L91.2808 46.1904L93.8267 40.7394L93.9356 40.5076H93.6779H74.9183L75.0807 40.647C74.9836 39.9867 74.9337 39.3201 74.9337 38.6616C74.9337 38.2132 74.9564 37.7585 75.0017 37.3083L74.8384 37.456H95.2557H95.3609L95.4045 37.3618L97.9495 31.9126L98.0593 31.6798H97.8007H76.6032L76.7447 31.9253C79.1346 27.8076 83.5659 25.2497 88.3066 25.2497ZM76.6032 32.0068H97.8007L97.6519 31.774L95.1078 37.2232L95.2557 37.129H74.8384H74.6905L74.6742 37.2766C74.6288 37.7368 74.6062 38.2032 74.6062 38.6616C74.6062 39.3355 74.657 40.0202 74.7559 40.695L74.7776 40.8345H74.9183H93.6779L93.53 40.6018L90.985 46.0509L91.132 45.9567H76.9978H76.6939L76.8608 46.2085C79.4077 50.0871 83.6875 52.3996 88.3066 52.3996C92.2334 52.3996 95.9797 50.7039 98.5837 47.7447L98.2961 47.637V54.3162L98.3687 54.1812C95.2013 56.2872 91.4958 57.4004 87.6506 57.4004C79.9793 57.4004 73.0909 52.9466 70.1004 46.0546L70.0569 45.9567H69.9498H63.1994L63.3491 46.1904L65.8932 40.7394L65.7444 40.8345H68.5317H68.7123L68.695 40.6543C68.6333 40.0384 68.6007 39.4197 68.6007 38.8192C68.6007 38.3572 68.6233 37.8618 68.6696 37.3056L68.6841 37.129H68.5063H62.9599L63.1078 37.3618L65.6537 31.9126L65.5058 32.0068H69.8174H69.9271L69.968 31.9053C71.3698 28.5005 73.7524 25.5966 76.859 23.5069C80.0401 21.3684 83.7727 20.2371 87.6506 20.2371C92.6172 20.2371 97.3189 22.093 100.893 25.4652L100.857 25.2768L98.6472 30.0105L98.9221 29.976C96.3045 26.765 92.4367 24.9227 88.3066 24.9227C83.4479 24.9227 78.9104 27.5431 76.4607 31.7613L76.3183 32.0068H76.6032Z" fill="#10298E"/>
</g>
<defs>
<clipPath id="clip0_1557_1395">
<rect width="200" height="80" fill="white"/>
</clipPath>
</defs>
</svg>
