<svg width="200" height="80" viewBox="0 0 200 80" fill="none" xmlns="http://www.w3.org/2000/svg">
<g clip-path="url(#clip0_1557_2513)">
<g clip-path="url(#clip1_1557_2513)">
<path d="M58.0167 18C53.6647 18 49.4407 19.2754 45.8567 21.6986C42.2727 24.1217 39.4567 27.5652 37.7927 31.5188C36.1287 35.6 35.7447 39.9362 36.5127 44.2725C37.2807 48.6087 39.3287 52.4348 42.4007 55.4957C45.4727 58.5565 49.4407 60.7246 53.6647 61.4899C57.8887 62.3826 62.3687 61.8725 66.3367 60.2145C70.3047 58.5565 73.7607 55.7507 76.1927 52.0522C78.6247 48.4812 79.9047 44.1449 79.9047 39.8087C79.9047 33.942 77.6007 28.3304 73.5047 24.2493C69.4087 20.2957 63.7767 18 58.0167 18ZM37.5367 40.829H44.3207C44.3207 43.8899 44.8327 46.9507 45.7287 49.8841H40.0967C38.5607 47.0783 37.6647 43.8899 37.5367 40.829ZM58.7847 28.5855V19.658C62.6247 20.0406 65.9527 23.4841 68.0007 28.5855H58.7847ZM68.5127 30.1159C69.4087 33.0493 69.9207 36.1101 70.0487 39.171H58.7847V30.1159H68.5127ZM57.1207 19.658V28.5855H47.9047C49.9527 23.4841 53.4087 20.0406 57.1207 19.658ZM57.1207 30.1159V39.171H45.8567C45.8567 36.1101 46.3687 33.0493 47.3927 30.1159H57.1207ZM44.3207 39.171H37.5367C37.6647 35.9826 38.5607 32.9217 40.0967 30.1159H45.7287C44.8327 33.0493 44.4487 36.1101 44.3207 39.171ZM45.8567 40.829H57.1207V49.8841H47.3927C46.4967 46.9507 45.9847 43.8899 45.8567 40.829ZM57.1207 51.4145V60.342C53.2807 59.9594 49.9527 56.5159 47.9047 51.4145H57.1207ZM58.7847 60.342V51.287H68.0007C65.9527 56.5159 62.6247 59.9594 58.7847 60.342ZM58.7847 49.7565V40.7014H70.0487C70.0487 43.7623 69.5367 46.8232 68.5127 49.7565H58.7847ZM71.5847 40.829H78.3687C78.2407 44.0174 77.3447 47.0783 75.8087 49.8841H70.1767C71.0727 46.8232 71.5847 43.8899 71.5847 40.829ZM71.5847 39.171C71.5847 36.1101 71.0727 33.0493 70.1767 30.1159H75.8087C77.3447 32.9217 78.2407 35.9826 78.3687 39.171H71.5847ZM74.9127 28.5855H69.6647C69.1527 27.1826 68.5127 25.9072 67.7447 24.6319C66.8487 23.1014 65.8247 21.8261 64.5447 20.6783C68.7687 22.0812 72.3527 24.887 74.9127 28.5855ZM51.3607 20.6783C50.2087 21.8261 49.0567 23.1014 48.1607 24.6319C47.3927 25.9072 46.7527 27.1826 46.2407 28.5855H40.9927C43.5527 24.887 47.1367 22.0812 51.3607 20.6783ZM40.9927 51.4145H46.2407C46.7527 52.8174 47.3927 54.0928 48.1607 55.3681C49.0567 56.771 50.0807 58.1739 51.3607 59.3217C47.1367 57.9188 43.5527 55.113 40.9927 51.4145ZM64.5447 59.3217C65.8247 58.1739 66.8487 56.8985 67.7447 55.3681C68.5127 54.0928 69.1527 52.6899 69.6647 51.4145H74.9127C72.3527 55.113 68.7687 57.9188 64.5447 59.3217Z" fill="#333D3E"/>
<path d="M135.827 33.4074H139.411V53.048H135.827V33.4074Z" fill="#333D3E"/>
<path d="M140.051 28.306C140.051 29.7089 138.899 30.7292 137.619 30.7292C136.339 30.7292 135.187 29.7089 135.187 28.306C135.187 26.9031 136.339 25.8828 137.619 25.8828C139.027 25.8828 140.051 26.9031 140.051 28.306Z" fill="#333D3E"/>
<path d="M151.955 38.6364H146.707V53.1756H143.123V32.6422C143.123 28.5611 145.939 26.0103 150.547 26.0103H151.955V29.5814H150.547C148.115 29.5814 146.707 30.7292 146.707 32.7698V35.5756H151.955V38.6364Z" fill="#333D3E"/>
<path d="M163.091 53.1756H161.683C157.075 53.048 154.259 50.4973 154.259 46.5437V26.0103H157.843V35.5756H163.091V38.6364H157.843V46.4161C157.843 48.4567 159.251 49.6046 161.683 49.6046H163.091V53.1756Z" fill="#333D3E"/>
<path d="M119.955 38.5089L116.371 53.1756H112.275L106.771 33.535H110.355L114.195 48.5843L117.907 33.535H121.875L125.587 48.5843L129.427 33.535H133.139L127.635 53.1756H123.539L119.955 38.5089Z" fill="#333D3E"/>
<path d="M90.3873 46.0335C91.2833 47.9466 93.8433 49.8596 96.9153 49.8596C100.371 49.8596 102.675 48.2017 102.675 45.906C102.675 38.764 87.5713 43.8654 87.5713 33.535C87.5713 29.7089 91.1553 26.1379 96.9153 26.1379C100.627 26.1379 104.083 27.6683 106.003 30.3466L103.187 32.7698C101.779 30.9843 99.4753 29.5814 96.9153 29.5814C93.7153 29.5814 91.4113 30.8567 91.4113 33.535C91.4113 39.6567 106.387 35.193 106.387 45.7785C106.387 50.3698 102.419 53.5582 96.7873 53.5582C92.4353 53.5582 88.5953 51.2625 87.0593 47.819L90.3873 46.0335Z" fill="#333D3E"/>
</g>
</g>
<defs>
<clipPath id="clip0_1557_2513">
<rect width="200" height="80" fill="white"/>
</clipPath>
<clipPath id="clip1_1557_2513">
<rect width="128" height="44" fill="white" transform="translate(36 18)"/>
</clipPath>
</defs>
</svg>
