<svg width="200" height="80" viewBox="0 0 200 80" fill="none" xmlns="http://www.w3.org/2000/svg">
<g clip-path="url(#clip0_3872_695)">
<path d="M51.7279 57.1082V57.2202H51.7839V57.1082H51.7279ZM51.6719 57.2202V57.3322H51.7279V57.2202H51.6719ZM51.6159 57.3182V57.4302H51.6719V57.3182H51.6159ZM51.5739 57.4862V57.5982H51.6299V57.4862H51.5739ZM51.5179 57.6402V57.7522H51.5739V57.6402H51.5179ZM51.4619 57.9062V58.0182H51.5179V57.9062H51.4619ZM51.7839 57.0102V57.1222H51.8399V57.0102H51.7839ZM52.1479 56.3242V56.4362H52.2039V56.3242H52.1479Z" fill="#D10010"/>
<path d="M52.1485 56.3661V56.4221H52.0925V56.4781H52.0365V56.5901H51.9805V56.7021H51.9245V56.7581H51.8685V56.8701H51.8405V56.9821H51.7845V57.0941H51.8405V57.0381H51.8965V56.9261H51.9525V56.8001H52.0085V56.7441H52.0645V56.6321H52.1205V56.5201H52.1765V56.4641H52.2325V56.3521H52.1485V56.3661ZM51.7285 57.0521V57.1641H51.7845V57.1081H51.8405V57.0521H51.7285Z" fill="#D10010"/>
<path d="M39.4363 56.7998H40.3603L39.4923 60.3838C39.3663 60.9158 39.3943 61.3218 39.5623 61.5878C39.7443 61.8538 40.0663 61.9798 40.5423 61.9798C41.0043 61.9798 41.4103 61.8538 41.7183 61.5878C42.0263 61.3218 42.2363 60.9158 42.3623 60.3838L43.2303 56.7998H44.1683L43.2863 60.4678C43.0903 61.2518 42.7543 61.8538 42.2643 62.2458C41.7883 62.6378 41.1443 62.8478 40.3463 62.8478C39.5623 62.8478 39.0163 62.6518 38.7223 62.2598C38.4283 61.8678 38.3723 61.2658 38.5683 60.4818L39.4363 56.7998Z" fill="#202121"/>
<path d="M44.0283 62.694L45.4843 56.562L48.2703 60.16C48.3403 60.258 48.4103 60.37 48.4943 60.482C48.5643 60.594 48.6343 60.734 48.7323 60.874L49.7123 56.8H50.5803L49.1243 62.918L46.2823 59.25C46.2123 59.152 46.1423 59.04 46.0583 58.942C45.9883 58.83 45.9323 58.718 45.8763 58.592L44.8963 62.694H44.0283Z" fill="#202121"/>
<path d="M50.4961 62.6938L51.8961 56.7998H52.8341L51.4341 62.6938H50.4961Z" fill="#202121"/>
<path d="M52.7646 62.6938L54.1646 56.7998H57.3706L57.1746 57.6258H54.9066L54.5566 59.0818H56.8246L56.6146 59.9218H54.3606L53.7026 62.6798H52.7646V62.6938Z" fill="#202121"/>
<path d="M57.0068 62.6938L58.4068 56.7998H59.3448L57.9448 62.6938H57.0068Z" fill="#202121"/>
<path d="M59.2744 62.6938L60.6744 56.7998H63.8804L63.6844 57.6258H61.4164L61.0664 59.1098H63.3344L63.1244 59.9498H60.8564L60.4084 61.8538H62.6764L62.4664 62.7218H59.2744V62.6938Z" fill="#202121"/>
<path d="M63.5579 62.6938L64.9579 56.7998H66.2179C67.0439 56.7998 67.6039 56.8418 67.9119 56.9258C68.2199 57.0098 68.4859 57.1498 68.6819 57.3458C68.9479 57.6118 69.1159 57.9478 69.1999 58.3398C69.2699 58.7458 69.2419 59.2218 69.1299 59.7258C69.0039 60.2578 68.8079 60.7058 68.5419 61.1118C68.2759 61.5178 67.9399 61.8398 67.5479 62.1058C67.2539 62.3158 66.9319 62.4418 66.5819 62.5258C66.2459 62.6098 65.7279 62.6518 65.0559 62.6518H63.5439V62.6938H63.5579ZM64.6919 61.8118H65.4759C65.8959 61.8118 66.2319 61.7838 66.4699 61.7278C66.7079 61.6718 66.9039 61.5598 67.0999 61.4338C67.3659 61.2378 67.5759 61.0138 67.7579 60.7198C67.9399 60.4398 68.0659 60.1038 68.1499 59.7258C68.2339 59.3478 68.2619 59.0258 68.2199 58.7458C68.1779 58.4658 68.0799 58.2138 67.8979 58.0318C67.7719 57.8918 67.6039 57.7938 67.3799 57.7378C67.1559 57.6818 66.8199 57.6538 66.3439 57.6538H65.6719L64.6919 61.8118Z" fill="#202121"/>
<path d="M73.429 60.0478L72.799 62.6938H71.917L73.317 56.7998H74.731C75.151 56.7998 75.445 56.8278 75.641 56.8698C75.837 56.9118 75.977 56.9818 76.089 57.1078C76.229 57.2338 76.341 57.4298 76.383 57.6678C76.425 57.9058 76.411 58.1438 76.355 58.4238C76.285 58.7038 76.173 58.9698 76.019 59.1938C75.865 59.4318 75.669 59.6138 75.459 59.7538C75.277 59.8518 75.095 59.9498 74.885 59.9918C74.675 60.0338 74.353 60.0618 73.947 60.0618H73.401V60.0478H73.429ZM73.681 59.2498H73.919C74.437 59.2498 74.801 59.1938 74.997 59.0678C75.207 58.9558 75.333 58.7458 75.403 58.4518C75.473 58.1438 75.431 57.9058 75.291 57.7938C75.137 57.6678 74.815 57.5978 74.325 57.5978H74.087L73.681 59.2498Z" fill="#202121"/>
<path d="M79.5467 62.694L79.2527 61.168H76.9707L75.9488 62.694H74.9688L79.2107 56.562L80.5267 62.694H79.5467ZM77.5167 60.37H79.1127L78.8467 59.026C78.8327 58.942 78.8188 58.83 78.8188 58.732C78.8048 58.62 78.8047 58.494 78.8047 58.368C78.7487 58.494 78.6928 58.62 78.6088 58.732C78.5528 58.844 78.4967 58.956 78.4267 59.04L77.5167 60.37Z" fill="#202121"/>
<path d="M81.8699 62.694L82.5139 60.006L81.3379 56.814H82.3179L83.0459 58.816C83.0599 58.872 83.0739 58.928 83.1019 59.026C83.1299 59.11 83.1439 59.208 83.1719 59.292C83.2279 59.208 83.2839 59.11 83.3539 59.026C83.4099 58.942 83.4659 58.872 83.5359 58.788L85.2439 56.814H86.1819L83.4519 59.992L82.8079 62.68H81.8699V62.694Z" fill="#202121"/>
<path d="M90.7739 59.782C90.7739 59.74 90.7879 59.6 90.8159 59.404C90.8299 59.222 90.8439 59.096 90.8579 58.984C90.8019 59.11 90.7459 59.25 90.6619 59.39C90.5919 59.516 90.5079 59.67 90.3959 59.796L88.1419 62.946L87.4139 59.74C87.3859 59.614 87.3579 59.474 87.3439 59.362C87.3299 59.25 87.3159 59.11 87.3159 58.998C87.2879 59.11 87.2459 59.25 87.2039 59.39C87.1619 59.516 87.1059 59.67 87.0219 59.81L85.7059 62.708H84.8379L87.6659 56.562L88.4639 60.272C88.4779 60.328 88.4919 60.426 88.5059 60.566C88.5199 60.692 88.5479 60.874 88.5759 61.084C88.6739 60.902 88.8139 60.706 88.9819 60.44C89.0239 60.37 89.0659 60.328 89.0799 60.286L91.6279 56.576L91.5439 62.722H90.6759L90.7739 59.782Z" fill="#202121"/>
<path d="M92.3291 62.6938L93.7291 56.7998H96.9351L96.7391 57.6258H94.4711L94.1211 59.1098H96.3891L96.1791 59.9498H93.9111L93.4631 61.8538H95.7311L95.5211 62.7218H92.3291V62.6938Z" fill="#202121"/>
<path d="M96.5986 62.694L98.0546 56.562L100.841 60.16C100.911 60.258 100.981 60.37 101.065 60.482C101.135 60.594 101.205 60.734 101.303 60.874L102.283 56.8H103.151L101.695 62.918L98.8526 59.25C98.7826 59.152 98.7126 59.04 98.6286 58.942C98.5586 58.83 98.5026 58.718 98.4466 58.592L97.4666 62.694H96.5986Z" fill="#202121"/>
<path d="M106.118 57.598L104.9 62.68H103.962L105.18 57.598H103.654L103.85 56.772H107.826L107.63 57.598H106.118Z" fill="#202121"/>
<path d="M107.099 61.5042L107.939 61.1542C107.953 61.4202 108.023 61.6162 108.191 61.7562C108.345 61.8822 108.569 61.9662 108.863 61.9662C109.143 61.9662 109.381 61.8962 109.577 61.7282C109.787 61.5602 109.913 61.3642 109.969 61.0982C110.053 60.7482 109.857 60.4402 109.353 60.1742C109.283 60.1322 109.241 60.1042 109.185 60.0902C108.625 59.7682 108.275 59.4882 108.135 59.2222C107.995 58.9562 107.953 58.6482 108.051 58.2842C108.163 57.8082 108.415 57.4162 108.807 57.1082C109.199 56.8142 109.647 56.6602 110.165 56.6602C110.585 56.6602 110.921 56.7442 111.173 56.9122C111.425 57.0802 111.551 57.3182 111.593 57.6262L110.781 58.0042C110.711 57.8082 110.613 57.6822 110.501 57.5982C110.389 57.5142 110.235 57.4722 110.067 57.4722C109.815 57.4722 109.605 57.5422 109.423 57.6822C109.241 57.8082 109.129 57.9902 109.073 58.2282C108.989 58.5782 109.241 58.9142 109.801 59.2222C109.843 59.2502 109.871 59.2642 109.899 59.2782C110.403 59.5442 110.739 59.8102 110.879 60.0622C111.019 60.3282 111.061 60.6362 110.963 61.0282C110.837 61.5882 110.557 62.0222 110.123 62.3582C109.703 62.6802 109.199 62.8622 108.611 62.8622C108.135 62.8622 107.743 62.7502 107.491 62.5122C107.211 62.2742 107.085 61.9382 107.099 61.5042Z" fill="#202121"/>
<path d="M113.986 62.6938L115.386 56.7998H116.324L114.924 62.6938H113.986Z" fill="#202121"/>
<path d="M116.269 62.694L117.725 56.562L120.497 60.16C120.567 60.258 120.637 60.37 120.721 60.482C120.791 60.594 120.861 60.734 120.959 60.874L121.939 56.8H122.807L121.351 62.918L118.509 59.25C118.439 59.152 118.369 59.04 118.285 58.942C118.215 58.83 118.159 58.718 118.103 58.592L117.123 62.694H116.255H116.269Z" fill="#202121"/>
<path d="M125.788 57.598L124.57 62.68H123.632L124.85 57.598H123.324L123.52 56.772H127.496L127.3 57.598H125.788Z" fill="#202121"/>
<path d="M126.796 62.6938L128.196 56.7998H131.416L131.22 57.6258H128.952L128.602 59.1098H130.87L130.66 59.9498H128.392L127.944 61.8538H130.212L130.002 62.7218H126.796V62.6938Z" fill="#202121"/>
<path d="M132.578 60.0479L131.948 62.6799H131.066L132.466 56.7859H133.768C134.146 56.7859 134.44 56.8139 134.636 56.8559C134.846 56.8979 135 56.9819 135.112 57.1079C135.252 57.2479 135.35 57.4299 135.392 57.6679C135.434 57.8919 135.42 58.1299 135.364 58.4099C135.252 58.8719 135.056 59.2639 134.762 59.5159C134.468 59.7819 134.104 59.9359 133.67 60.0059L135 62.6799H133.95L132.676 60.0479H132.578ZM132.816 59.2919H132.998C133.502 59.2919 133.838 59.2359 134.02 59.1099C134.216 58.9979 134.342 58.7879 134.412 58.4799C134.482 58.1579 134.454 57.9199 134.314 57.7939C134.174 57.6679 133.866 57.5839 133.39 57.5839H133.208L132.816 59.2919Z" fill="#202121"/>
<path d="M135.575 62.6938L136.975 56.7998H140.181L139.985 57.6258H137.717L137.367 59.0818H139.635L139.425 59.9218H137.157L136.499 62.6798H135.561V62.6938H135.575Z" fill="#202121"/>
<path d="M143.303 62.694L143.009 61.168H140.727L139.705 62.694H138.725L142.967 56.562L144.283 62.694H143.303ZM141.273 60.37H142.869L142.603 59.026C142.589 58.942 142.575 58.83 142.575 58.732C142.561 58.62 142.561 58.494 142.561 58.368C142.505 58.494 142.449 58.62 142.365 58.732C142.309 58.844 142.253 58.956 142.183 59.04L141.273 60.37Z" fill="#202121"/>
<path d="M150.359 58.228C150.149 57.99 149.911 57.822 149.645 57.71C149.379 57.598 149.085 57.528 148.749 57.528C148.119 57.528 147.559 57.738 147.069 58.144C146.565 58.55 146.243 59.096 146.089 59.754C145.949 60.384 146.005 60.916 146.299 61.336C146.579 61.742 147.013 61.952 147.601 61.952C147.937 61.952 148.273 61.896 148.609 61.756C148.945 61.644 149.281 61.448 149.631 61.196L149.365 62.274C149.071 62.47 148.763 62.596 148.441 62.68C148.119 62.764 147.797 62.806 147.447 62.806C147.013 62.806 146.607 62.736 146.271 62.582C145.935 62.442 145.655 62.218 145.431 61.924C145.207 61.644 145.081 61.308 145.025 60.93C144.969 60.552 144.983 60.146 145.095 59.698C145.193 59.264 145.375 58.858 145.613 58.48C145.851 58.102 146.159 57.766 146.509 57.486C146.859 57.192 147.237 56.968 147.657 56.828C148.063 56.688 148.469 56.604 148.903 56.604C149.239 56.604 149.547 56.646 149.841 56.744C150.121 56.842 150.387 56.996 150.611 57.192L150.359 58.228Z" fill="#202121"/>
<path d="M150.456 62.6938L151.856 56.7998H155.062L154.866 57.6258H152.598L152.248 59.1098H154.516L154.306 59.9498H152.038L151.59 61.8538H153.858L153.648 62.7218H150.456V62.6938Z" fill="#202121"/>
<path d="M133.435 51.6623H127.009L135.927 19.4343H142.353L133.435 51.6623Z" fill="#474D65"/>
<path d="M130.089 20.4565C129.655 19.8405 128.969 19.5325 128.031 19.5325H92.7513L91.0153 25.8465H123.103L121.227 32.5945H95.5653V32.5805H89.1393L83.8193 51.8165H90.2453L93.8153 38.9225H122.669C123.579 38.9225 124.419 38.6145 125.217 37.9985C126.001 37.3825 126.533 36.6265 126.785 35.7165L130.355 22.8225C130.621 21.8425 130.537 21.0585 130.089 20.4565Z" fill="#474D65"/>
<path d="M80.0664 49.6465C79.7164 50.9205 78.5404 51.8165 77.2244 51.8165H44.1284C43.2184 51.8165 42.5464 51.5085 42.1124 50.8925C41.6784 50.2765 41.5664 49.5205 41.8324 48.6105L49.9104 19.5325H56.3364L49.1264 45.5165H74.8024L82.0124 19.5325H88.4384L80.0664 49.6465Z" fill="#474D65"/>
<path d="M153.439 19.5042L161.559 35.6462L144.479 51.8022L153.439 19.5042Z" fill="#098041"/>
<path d="M147.728 19.5042L155.848 35.6462L138.768 51.8022L147.728 19.5042Z" fill="#E97626"/>
</g>
<defs>
<clipPath id="clip0_3872_695">
<rect width="140" height="70" fill="white" transform="translate(30 5)"/>
</clipPath>
</defs>
</svg>
