<svg width="60" height="60" viewBox="0 0 60 60" fill="none" xmlns="http://www.w3.org/2000/svg">
<rect width="60" height="60" rx="21" fill="#EAF4FF"/>
<g filter="url(#filter0_d_2933_30)">
<path d="M27.1032 12C23 12 19.6561 15.4639 19.6561 19.7143C19.6561 21.3884 20.1359 23.174 21.0524 24.4955C21.1161 24.587 21.1965 24.6647 21.2891 24.7239C21.3817 24.7832 21.4847 24.8231 21.5922 24.8411C21.6997 24.8592 21.8095 24.8551 21.9155 24.8292C22.0215 24.8032 22.1214 24.7559 22.2097 24.69C22.298 24.624 22.3729 24.5407 22.4302 24.4447C22.4873 24.3488 22.5257 24.242 22.5431 24.1307C22.5605 24.0194 22.5566 23.9056 22.5315 23.7958C22.5065 23.6861 22.4608 23.5825 22.3971 23.4911C21.7529 22.5623 21.311 21.0225 21.311 19.7143C21.311 16.3904 23.8944 13.7142 27.1032 13.7142C30.312 13.7142 32.8954 16.3904 32.8954 19.7143C32.8954 21.0225 32.4535 22.5623 31.8094 23.4911C31.7457 23.5825 31.7001 23.686 31.675 23.7958C31.6499 23.9055 31.646 24.0193 31.6634 24.1306C31.6808 24.242 31.7192 24.3486 31.7764 24.4445C31.8336 24.5405 31.9085 24.6238 31.9968 24.6898C32.0851 24.7558 32.1851 24.8031 32.291 24.829C32.397 24.8549 32.5068 24.859 32.6143 24.841C32.7217 24.8229 32.8247 24.7831 32.9173 24.7238C33.0099 24.6646 33.0904 24.587 33.154 24.4955C34.0705 23.174 34.5504 21.3884 34.5504 19.7143C34.5504 15.4639 31.2064 12 27.1032 12ZM27.1032 17.1428C25.7282 17.1428 24.6209 18.2897 24.6209 19.7143V35.1428L22.9659 31.7142C21.6101 29.1082 20.2768 29.3791 19.2423 30C18.0451 30.8272 17.5989 31.6813 18.4148 33.8571C19.8947 37.6215 21.9992 41.9537 24.3409 45.4186C25.4913 47.1209 27.4267 48 29.4327 48H35.152C36.6421 48 38.1428 47.5246 38.9656 46.2377C42.065 41.39 43.803 30.5702 39.1014 30C38.6034 30 37.8061 30.0827 37.4465 30.4286C37.4465 28.7143 36.0023 28.275 35.3779 28.2857C34.6613 28.2981 34.1365 28.7143 33.7229 29.5714C33.7229 27.8571 32.3732 27.4286 31.6543 27.4286C30.8629 27.4286 29.945 27.9401 29.5856 28.7143V19.7143C29.5856 18.2897 28.4782 17.1428 27.1032 17.1428Z" fill="#0792FF"/>
</g>
<defs>
<filter id="filter0_d_2933_30" x="10" y="8" width="40" height="52" filterUnits="userSpaceOnUse" color-interpolation-filters="sRGB">
<feFlood flood-opacity="0" result="BackgroundImageFix"/>
<feColorMatrix in="SourceAlpha" type="matrix" values="0 0 0 0 0 0 0 0 0 0 0 0 0 0 0 0 0 0 127 0" result="hardAlpha"/>
<feOffset dy="4"/>
<feGaussianBlur stdDeviation="4"/>
<feComposite in2="hardAlpha" operator="out"/>
<feColorMatrix type="matrix" values="0 0 0 0 0.027451 0 0 0 0 0.572549 0 0 0 0 1 0 0 0 0.25 0"/>
<feBlend mode="normal" in2="BackgroundImageFix" result="effect1_dropShadow_2933_30"/>
<feBlend mode="normal" in="SourceGraphic" in2="effect1_dropShadow_2933_30" result="shape"/>
</filter>
</defs>
</svg>
