<svg width="60" height="60" viewBox="0 0 60 60" fill="none" xmlns="http://www.w3.org/2000/svg">
<rect width="60" height="60" rx="21" fill="#EAF4FF"/>
<g filter="url(#filter0_d_2933_35)">
<path d="M30 33.5882V22.9103C29.6972 22.9383 29.398 22.9856 29.0935 22.9996H20.375C19.892 22.9996 19.5 23.3915 19.5 23.8745V24.7495H16.875C16.392 24.7495 16 25.1414 16 25.6244V30.8741C16 31.357 16.392 31.749 16.875 31.749H19.5V32.624C19.5 33.1069 19.892 33.4989 20.375 33.4989H20.9053L24.4227 42.8748C24.638 43.4365 25.1192 43.8443 25.7107 43.9633C25.828 43.9878 25.9452 44 26.0607 44C26.528 44 26.9725 43.8145 27.291 43.482L29.3928 41.3979C29.93 40.8607 30.0577 40.0225 29.7147 39.3733L26.7782 33.4989H29.1023C29.4032 33.5129 29.7007 33.5602 30 33.5882Z" fill="#0792FF"/>
<path d="M43.8565 16.4235C43.839 16.3937 43.8232 16.3692 43.8005 16.3412C43.7043 16.2187 43.5835 16.119 43.4347 16.0612C43.4295 16.0595 43.426 16.0525 43.4207 16.0507C43.4032 16.0455 43.3875 16.0542 43.37 16.049C43.2913 16.0262 43.2125 16 43.125 16C43.0655 16 43.013 16.0227 42.9552 16.035C42.922 16.042 42.8905 16.0437 42.8572 16.0542C42.7067 16.1032 42.5772 16.1872 42.474 16.3027C42.467 16.3097 42.4565 16.3115 42.4495 16.3185C39.7213 19.631 35.9167 21.8464 31.75 22.6583V33.8419C35.9167 34.6538 39.7213 36.8674 42.4495 40.18C42.4565 40.1887 42.4688 40.1922 42.4775 40.2027C42.5387 40.271 42.614 40.3252 42.6945 40.3707C42.7207 40.3865 42.7418 40.4092 42.768 40.4215C42.8783 40.4687 42.9972 40.4985 43.125 40.4985C43.2247 40.4985 43.3228 40.481 43.4207 40.4477C43.426 40.446 43.4295 40.439 43.4347 40.4372C43.5835 40.3795 43.7043 40.2815 43.8005 40.1572C43.8215 40.1292 43.8372 40.1047 43.8565 40.075C43.9405 39.9403 44 39.7915 44 39.6235V16.8749C44 16.707 43.9405 16.5582 43.8565 16.4235Z" fill="#0792FF"/>
</g>
<defs>
<filter id="filter0_d_2933_35" x="8" y="12" width="44" height="44" filterUnits="userSpaceOnUse" color-interpolation-filters="sRGB">
<feFlood flood-opacity="0" result="BackgroundImageFix"/>
<feColorMatrix in="SourceAlpha" type="matrix" values="0 0 0 0 0 0 0 0 0 0 0 0 0 0 0 0 0 0 127 0" result="hardAlpha"/>
<feOffset dy="4"/>
<feGaussianBlur stdDeviation="4"/>
<feComposite in2="hardAlpha" operator="out"/>
<feColorMatrix type="matrix" values="0 0 0 0 0.027451 0 0 0 0 0.572549 0 0 0 0 1 0 0 0 0.25 0"/>
<feBlend mode="normal" in2="BackgroundImageFix" result="effect1_dropShadow_2933_35"/>
<feBlend mode="normal" in="SourceGraphic" in2="effect1_dropShadow_2933_35" result="shape"/>
</filter>
</defs>
</svg>
