<svg width="80" height="80" viewBox="0 0 80 80" fill="none" xmlns="http://www.w3.org/2000/svg">
<g id="icon-user">
<rect width="80" height="80" rx="21" fill="#EAF4FF"/>
<g id="Group 39338">
<g id="Vector" filter="url(#filter0_d_6623_210)">
<path d="M36.9827 24C32.562 24 28.9654 27.5965 28.9654 32.0172C28.9654 36.4379 32.562 40.0345 36.9827 40.0345C41.4034 40.0345 44.9999 36.4379 44.9999 32.0172C44.9999 27.5965 41.4034 24 36.9827 24Z" fill="#0792FF"/>
<path d="M46.9577 45.6936C44.7627 43.4229 41.8529 42.1724 38.7643 42.1724H35.2011C32.1125 42.1724 29.2026 43.4229 27.0077 45.6936C24.8235 47.9532 23.6206 50.9359 23.6206 54.0924C23.6206 54.5936 24.0194 55 24.5114 55H49.4539C49.9459 55 50.3447 54.5936 50.3447 54.0924C50.3447 50.9359 49.1419 47.9532 46.9577 45.6936Z" fill="#0792FF"/>
</g>
<g id="Group 39337" filter="url(#filter1_d_6623_210)">
<rect id="Rectangle 1895" x="55" y="30" width="3" height="17" rx="1.5" fill="#0792FF"/>
<rect id="Rectangle 1896" x="48" y="40" width="3" height="17" rx="1.5" transform="rotate(-90 48 40)" fill="#0792FF"/>
</g>
</g>
</g>
<defs>
<filter id="filter0_d_6623_210" x="15.6206" y="20" width="42.7241" height="47" filterUnits="userSpaceOnUse" color-interpolation-filters="sRGB">
<feFlood flood-opacity="0" result="BackgroundImageFix"/>
<feColorMatrix in="SourceAlpha" type="matrix" values="0 0 0 0 0 0 0 0 0 0 0 0 0 0 0 0 0 0 127 0" result="hardAlpha"/>
<feOffset dy="4"/>
<feGaussianBlur stdDeviation="4"/>
<feComposite in2="hardAlpha" operator="out"/>
<feColorMatrix type="matrix" values="0 0 0 0 0.027451 0 0 0 0 0.572549 0 0 0 0 1 0 0 0 0.25 0"/>
<feBlend mode="normal" in2="BackgroundImageFix" result="effect1_dropShadow_6623_210"/>
<feBlend mode="normal" in="SourceGraphic" in2="effect1_dropShadow_6623_210" result="shape"/>
</filter>
<filter id="filter1_d_6623_210" x="40" y="26" width="33" height="33" filterUnits="userSpaceOnUse" color-interpolation-filters="sRGB">
<feFlood flood-opacity="0" result="BackgroundImageFix"/>
<feColorMatrix in="SourceAlpha" type="matrix" values="0 0 0 0 0 0 0 0 0 0 0 0 0 0 0 0 0 0 127 0" result="hardAlpha"/>
<feOffset dy="4"/>
<feGaussianBlur stdDeviation="4"/>
<feComposite in2="hardAlpha" operator="out"/>
<feColorMatrix type="matrix" values="0 0 0 0 0.027451 0 0 0 0 0.572549 0 0 0 0 1 0 0 0 0.25 0"/>
<feBlend mode="normal" in2="BackgroundImageFix" result="effect1_dropShadow_6623_210"/>
<feBlend mode="normal" in="SourceGraphic" in2="effect1_dropShadow_6623_210" result="shape"/>
</filter>
</defs>
</svg>
