<svg width="80" height="80" viewBox="0 0 80 80" fill="none" xmlns="http://www.w3.org/2000/svg">
<g id="icon-user">
<rect width="80" height="80" rx="21" fill="#EAF4FF"/>
<g id="Group 39336" filter="url(#filter0_d_6623_216)">
<path id="Subtract" fill-rule="evenodd" clip-rule="evenodd" d="M58.7119 29.6872V30.8724C58.7119 30.9597 58.6772 31.0435 58.6155 31.1052C58.5538 31.167 58.47 31.2016 58.3827 31.2016H25.3292C25.2419 31.2016 25.1582 31.167 25.0964 31.1052C25.0347 31.0435 25 30.9597 25 30.8724V29.6872C25 27.6508 26.6508 26 28.6872 26H55.0247C57.0611 26 58.7119 27.6508 58.7119 29.6872ZM25 45.4897V33.6379C25 33.5505 25.0347 33.4668 25.0964 33.4051C25.1582 33.3433 25.2419 33.3086 25.3292 33.3086H58.3827C58.47 33.3086 58.5538 33.3433 58.6155 33.4051C58.6772 33.4668 58.7119 33.5505 58.7119 33.6379V38.5892C56.5604 36.6957 53.7374 35.5473 50.6461 35.5473C43.9005 35.5473 38.4321 41.0157 38.4321 47.7613C38.4321 48.2401 38.4596 48.7125 38.5132 49.177H28.6872C26.6508 49.177 25 47.5261 25 45.4897ZM32.3745 43.9095C32.9563 43.9095 33.428 43.4378 33.428 42.856V41.8025C33.428 41.2207 32.9563 40.749 32.3745 40.749H31.321C30.7392 40.749 30.2675 41.2207 30.2675 41.8025V42.856C30.2675 43.4378 30.7392 43.9095 31.321 43.9095H32.3745Z" fill="#0792FF"/>
<path id="Exclude" fill-rule="evenodd" clip-rule="evenodd" d="M50.6462 58.0001C56.3008 58.0001 60.8848 53.4161 60.8848 47.7614C60.8848 42.1067 56.3008 37.5227 50.6462 37.5227C44.9915 37.5227 40.4075 42.1067 40.4075 47.7614C40.4075 53.4161 44.9915 58.0001 50.6462 58.0001ZM44.0309 47.3895L50.0333 41.4089C50.205 41.2376 50.4345 41.1436 50.6792 41.1442C50.9232 41.1435 51.1526 41.2376 51.3245 41.4087L57.3268 47.3894C57.4981 47.5601 57.5927 47.7877 57.5927 48.0303C57.5927 48.2732 57.4993 48.5006 57.328 48.6713L56.7846 49.2143C56.6134 49.3849 56.3879 49.4789 56.1446 49.4789C55.9009 49.4789 55.6786 49.3849 55.5073 49.2143L51.9783 45.6858V53.5499C51.9783 54.0497 51.5461 54.4446 51.0444 54.4446H50.2737C49.772 54.4446 49.3793 54.0497 49.3793 53.5499V45.7254L45.87 49.2145C45.6989 49.385 45.4627 49.479 45.2192 49.479C44.9756 49.479 44.7471 49.385 44.576 49.2145L44.0309 48.6715C43.8597 48.5007 43.7655 48.2733 43.7655 48.0304C43.7655 47.7878 43.8596 47.5603 44.0309 47.3895Z" fill="#0792FF"/>
</g>
</g>
<defs>
<filter id="filter0_d_6623_216" x="14.3333" y="20.6667" width="57.2181" height="53.3333" filterUnits="userSpaceOnUse" color-interpolation-filters="sRGB">
<feFlood flood-opacity="0" result="BackgroundImageFix"/>
<feColorMatrix in="SourceAlpha" type="matrix" values="0 0 0 0 0 0 0 0 0 0 0 0 0 0 0 0 0 0 127 0" result="hardAlpha"/>
<feOffset dy="5.33333"/>
<feGaussianBlur stdDeviation="5.33333"/>
<feComposite in2="hardAlpha" operator="out"/>
<feColorMatrix type="matrix" values="0 0 0 0 0.027451 0 0 0 0 0.572549 0 0 0 0 1 0 0 0 0.25 0"/>
<feBlend mode="normal" in2="BackgroundImageFix" result="effect1_dropShadow_6623_216"/>
<feBlend mode="normal" in="SourceGraphic" in2="effect1_dropShadow_6623_216" result="shape"/>
</filter>
</defs>
</svg>
