<svg width="80" height="80" viewBox="0 0 80 80" fill="none" xmlns="http://www.w3.org/2000/svg">
<g id="icon-user">
<rect width="80" height="80" rx="21" fill="#EAF4FF"/>
<g id="Group 18">
<path id="Vector" d="M26.4749 50.3252V52.9351C26.4749 53.4129 26.9518 53.8002 27.54 53.8002H53.2098C53.7981 53.8002 54.275 53.4129 54.275 52.9351V50.3252H26.4749Z" fill="#0792FF"/>
<path id="Vector_2" d="M57.2818 30.3043C56.9142 30.0655 56.4372 30.0907 56.096 30.367L48.684 36.3717C48.3245 36.663 48.2027 37.1623 48.387 37.5895C48.5002 37.8519 48.5577 38.131 48.5577 38.4188C48.5577 39.5629 47.6386 40.4937 46.5089 40.4937C45.3792 40.4937 44.46 39.5629 44.46 38.4188C44.46 37.7458 44.7855 37.1115 45.3307 36.7221C45.742 36.4285 45.8797 35.8744 45.6546 35.4185L41.2856 26.5699C41.1132 26.2206 40.7606 26 40.375 26C39.9893 26 39.6368 26.2206 39.4644 26.5699L35.0954 35.4186C34.8703 35.8744 35.008 36.4285 35.4193 36.7222C35.9645 37.1116 36.29 37.7458 36.29 38.4189C36.29 39.563 35.3709 40.4938 34.2411 40.4938C33.1113 40.4938 32.1922 39.563 32.1922 38.4189C32.1922 38.1311 32.2496 37.852 32.3629 37.5896C32.5472 37.1624 32.4255 36.663 32.0659 36.3717L24.6541 30.367C24.3131 30.0906 23.836 30.0655 23.4683 30.3043C23.1007 30.5432 22.9245 30.9929 23.0305 31.4221L26.475 48.5876H54.2751L57.7197 31.4221C57.8256 30.9929 57.6494 30.5432 57.2818 30.3043Z" fill="#0792FF"/>
</g>
</g>
</svg>
