<svg width="60" height="60" viewBox="0 0 60 60" fill="none" xmlns="http://www.w3.org/2000/svg">
<rect width="60" height="60" rx="21" fill="#EAF4FF"/>
<g filter="url(#filter0_d_1579_220)">
<path d="M30 38.0526C34.4473 38.0526 38.0526 34.4473 38.0526 30C38.0526 25.5527 34.4473 21.9474 30 21.9474C25.5527 21.9474 21.9474 25.5527 21.9474 30C21.9474 34.4473 25.5527 38.0526 30 38.0526Z" fill="#0792FF"/>
<path d="M25.9257 17.5377C26.4149 17.0572 26.7187 16.3884 26.7187 15.6485C26.7187 14.1857 25.5329 13 24.0702 13C22.6075 13 21.4217 14.1857 21.4217 15.6485C21.4217 17.1112 22.6075 18.297 24.0702 18.297C24.0747 18.297 24.0792 18.2966 24.0837 18.2966L25.4553 21.6262C26.0401 21.3076 26.6568 21.0517 27.2953 20.8625L25.9257 17.5377ZM18.3069 24.0687C18.3069 24.0608 18.3075 24.0529 18.3075 24.045C18.3075 22.5822 17.1217 21.3965 15.659 21.3965C14.1962 21.3965 13.0105 22.5822 13.0105 24.045C13.0105 25.5077 14.1962 26.6934 15.659 26.6934C16.3952 26.6934 17.0611 26.3928 17.5411 25.9079L20.8636 27.2918C21.0531 26.6534 21.3093 26.0367 21.6281 25.452L18.3069 24.0687ZM17.5377 34.0743C17.0572 33.5851 16.3884 33.2813 15.6485 33.2813C14.1857 33.2813 13 34.4671 13 35.9298C13 37.3925 14.1857 38.5783 15.6485 38.5783C17.1112 38.5783 18.297 37.3925 18.297 35.9298C18.297 35.9253 18.2966 35.9208 18.2966 35.9163L21.6262 34.5447C21.3076 33.9599 21.0517 33.3432 20.8625 32.7047L17.5377 34.0743ZM24.0837 41.7033C24.0792 41.7033 24.0747 41.703 24.0702 41.703C22.6075 41.703 21.4217 42.8887 21.4217 44.3515C21.4217 45.8142 22.6075 47 24.0702 47C25.5329 47 26.7187 45.8143 26.7187 44.3515C26.7187 43.6116 26.4149 42.9428 25.9256 42.4623L27.2951 39.1375C26.6567 38.9483 26.0399 38.6923 25.4552 38.3738L24.0837 41.7033ZM34.0743 42.4623C33.5851 42.9428 33.2813 43.6116 33.2813 44.3515C33.2813 45.8143 34.467 47 35.9297 47C37.3925 47 38.5782 45.8143 38.5782 44.3515C38.5782 42.8888 37.3925 41.703 35.9297 41.703C35.9252 41.703 35.9207 41.7034 35.9162 41.7034L34.5447 38.3738C33.9599 38.6924 33.3432 38.9483 32.7047 39.1375L34.0743 42.4623ZM42.4589 25.9079C42.939 26.3928 43.6048 26.6934 44.3411 26.6934C45.8038 26.6934 46.9896 25.5077 46.9896 24.045C46.9896 22.5822 45.8038 21.3965 44.3411 21.3965C42.8784 21.3965 41.6926 22.5822 41.6926 24.045C41.6926 24.053 41.6931 24.0608 41.6932 24.0689L38.3721 25.4522C38.6909 26.0368 38.9471 26.6534 39.1365 27.2918L42.4589 25.9079ZM35.9163 18.2966C35.9208 18.2966 35.9253 18.297 35.9298 18.297C37.3925 18.297 38.5783 17.1112 38.5783 15.6485C38.5783 14.1857 37.3925 13 35.9298 13C34.4671 13 33.2813 14.1857 33.2813 15.6485C33.2813 16.3884 33.5851 17.0572 34.0744 17.5377L32.7048 20.8625C33.3433 21.0517 33.96 21.3077 34.5448 21.6262L35.9163 18.2966ZM44.3515 33.2813C43.6116 33.2813 42.9428 33.585 42.4623 34.0743L39.1375 32.7048C38.9483 33.3433 38.6923 33.96 38.3738 34.5448L41.7034 35.9163C41.7034 35.9208 41.703 35.9252 41.703 35.9297C41.703 37.3925 42.8888 38.5782 44.3515 38.5782C45.8143 38.5782 47 37.3925 47 35.9297C47 34.467 45.8143 33.2813 44.3515 33.2813Z" fill="#0792FF"/>
</g>
<defs>
<filter id="filter0_d_1579_220" x="5" y="9" width="50" height="50" filterUnits="userSpaceOnUse" color-interpolation-filters="sRGB">
<feFlood flood-opacity="0" result="BackgroundImageFix"/>
<feColorMatrix in="SourceAlpha" type="matrix" values="0 0 0 0 0 0 0 0 0 0 0 0 0 0 0 0 0 0 127 0" result="hardAlpha"/>
<feOffset dy="4"/>
<feGaussianBlur stdDeviation="4"/>
<feComposite in2="hardAlpha" operator="out"/>
<feColorMatrix type="matrix" values="0 0 0 0 0.027451 0 0 0 0 0.572549 0 0 0 0 1 0 0 0 0.25 0"/>
<feBlend mode="normal" in2="BackgroundImageFix" result="effect1_dropShadow_1579_220"/>
<feBlend mode="normal" in="SourceGraphic" in2="effect1_dropShadow_1579_220" result="shape"/>
</filter>
</defs>
</svg>
