<svg width="60" height="61" viewBox="0 0 60 61" fill="none" xmlns="http://www.w3.org/2000/svg">
<g id="icon-deposit">
<g clip-path="url(#clip0_6133_137)">
<rect y="0.870468" width="60" height="60" rx="21" fill="#EAF4FF"/>
<g id="Group 39336" filter="url(#filter0_d_6133_137)">
<path id="Subtract" fill-rule="evenodd" clip-rule="evenodd" d="M45.0018 21.4556V22.5455C45.0018 22.6258 44.9699 22.7028 44.9132 22.7596C44.8564 22.8164 44.7794 22.8483 44.6991 22.8483H14.3028C14.2225 22.8483 14.1455 22.8164 14.0887 22.7596C14.0319 22.7028 14 22.6258 14 22.5455V21.4556C14 19.5829 15.5181 18.0648 17.3908 18.0648H41.611C43.4837 18.0648 45.0018 19.5829 45.0018 21.4556ZM14 35.9877V25.0886C14 25.0083 14.0319 24.9313 14.0887 24.8745C14.1455 24.8178 14.2225 24.7859 14.3028 24.7859H44.6991C44.7794 24.7859 44.8564 24.8178 44.9132 24.8745C44.9699 24.9313 45.0018 25.0083 45.0018 25.0886V29.6419C43.0233 27.9007 40.4272 26.8446 37.5844 26.8446C31.3811 26.8446 26.3523 31.8734 26.3523 38.0767C26.3523 38.517 26.3776 38.9514 26.4269 39.3785H17.3908C15.5181 39.3785 14 37.8604 14 35.9877ZM20.7817 34.5345C21.3167 34.5345 21.7505 34.1007 21.7505 33.5657V32.5969C21.7505 32.0619 21.3167 31.6281 20.7817 31.6281H19.8128C19.2778 31.6281 18.844 32.0619 18.844 32.5969V33.5657C18.844 34.1007 19.2778 34.5345 19.8128 34.5345H20.7817Z" fill="#0792FF"/>
<path id="Exclude" fill-rule="evenodd" clip-rule="evenodd" d="M37.5844 47.4923C42.7845 47.4923 47 43.2768 47 38.0767C47 32.8766 42.7845 28.6611 37.5844 28.6611C32.3843 28.6611 28.1688 32.8766 28.1688 38.0767C28.1688 43.2768 32.3843 47.4923 37.5844 47.4923ZM31.5009 37.7347L37.0208 32.2348C37.1786 32.0773 37.3898 31.9909 37.6148 31.9914C37.8391 31.9908 38.0501 32.0773 38.2082 32.2347L43.7279 37.7346C43.8855 37.8916 43.9725 38.1008 43.9725 38.324C43.9725 38.5473 43.8866 38.7564 43.729 38.9134L43.2294 39.4128C43.0719 39.5697 42.8645 39.6561 42.6407 39.6561C42.4167 39.6561 42.2123 39.5697 42.0547 39.4128L38.8095 36.1679L38.8095 43.3998C38.8095 43.8594 38.4119 44.2226 37.9506 44.2226H37.2419C36.7805 44.2226 36.4194 43.8594 36.4194 43.3998L36.4194 36.2043L33.1921 39.4129C33.0348 39.5698 32.8176 39.6562 32.5937 39.6562C32.3697 39.6562 32.1595 39.5698 32.0022 39.4129L31.5009 38.9136C31.3435 38.7566 31.2569 38.5474 31.2569 38.3241C31.2569 38.101 31.3434 37.8917 31.5009 37.7347Z" fill="#0792FF"/>
</g>
</g>
</g>
<defs>
<filter id="filter0_d_6133_137" x="3.33333" y="12.7314" width="54.3333" height="50.7608" filterUnits="userSpaceOnUse" color-interpolation-filters="sRGB">
<feFlood flood-opacity="0" result="BackgroundImageFix"/>
<feColorMatrix in="SourceAlpha" type="matrix" values="0 0 0 0 0 0 0 0 0 0 0 0 0 0 0 0 0 0 127 0" result="hardAlpha"/>
<feOffset dy="5.33333"/>
<feGaussianBlur stdDeviation="5.33333"/>
<feComposite in2="hardAlpha" operator="out"/>
<feColorMatrix type="matrix" values="0 0 0 0 0.027451 0 0 0 0 0.572549 0 0 0 0 1 0 0 0 0.25 0"/>
<feBlend mode="normal" in2="BackgroundImageFix" result="effect1_dropShadow_6133_137"/>
<feBlend mode="normal" in="SourceGraphic" in2="effect1_dropShadow_6133_137" result="shape"/>
</filter>
<clipPath id="clip0_6133_137">
<rect y="0.870468" width="60" height="60" rx="21" fill="white"/>
</clipPath>
</defs>
</svg>
