<svg width="80" height="80" viewBox="0 0 80 80" fill="none" xmlns="http://www.w3.org/2000/svg">
<g id="icon-choice">
<rect width="80" height="80" rx="21" fill="#EAF4FF"/>
<g id="Group">
<g id="Vector" filter="url(#filter0_d_6637_293)">
<path fill-rule="evenodd" clip-rule="evenodd" d="M40.0002 25C40.4422 25 40.8661 25.1756 41.1787 25.4882C41.4912 25.8007 41.6668 26.2246 41.6668 26.6667V28.3333H42.9402C43.4574 28.3334 43.9675 28.4538 44.4302 28.685L47.0602 30H53.3335C53.7755 30 54.1994 30.1756 54.512 30.4882C54.8246 30.8007 55.0002 31.2246 55.0002 31.6667C55.0002 32.1087 54.8246 32.5326 54.512 32.8452C54.1994 33.1577 53.7755 33.3333 53.3335 33.3333H52.6968L56.4902 40.9217C56.6068 41.1533 56.6668 41.4083 56.6668 41.6667C56.6668 43.4348 55.9644 45.1305 54.7142 46.3807C53.464 47.631 51.7683 48.3333 50.0002 48.3333C48.2321 48.3333 46.5364 47.631 45.2861 46.3807C44.0359 45.1305 43.3335 43.4348 43.3335 41.6667C43.3335 41.4083 43.3935 41.1533 43.5102 40.9217L47.3035 33.3333H47.0602C46.5429 33.3333 46.0328 33.2129 45.5702 32.9817L42.9402 31.6667H41.6668V51.6667H46.6668C47.1089 51.6667 47.5328 51.8423 47.8453 52.1548C48.1579 52.4674 48.3335 52.8913 48.3335 53.3333C48.3335 53.7754 48.1579 54.1993 47.8453 54.5118C47.5328 54.8244 47.1089 55 46.6668 55H33.3335C32.8915 55 32.4675 54.8244 32.155 54.5118C31.8424 54.1993 31.6668 53.7754 31.6668 53.3333C31.6668 52.8913 31.8424 52.4674 32.155 52.1548C32.4675 51.8423 32.8915 51.6667 33.3335 51.6667H38.3335V31.6667H37.0602L34.4302 32.9817C33.9675 33.2129 33.4574 33.3333 32.9402 33.3333H32.6968L36.4902 40.9217C36.6061 41.1529 36.6666 41.408 36.6668 41.6667C36.6668 43.4348 35.9645 45.1305 34.7142 46.3807C33.464 47.631 31.7683 48.3333 30.0002 48.3333C28.2321 48.3333 26.5364 47.631 25.2861 46.3807C24.0359 45.1305 23.3335 43.4348 23.3335 41.6667C23.3338 41.408 23.3943 41.1529 23.5102 40.9217L27.3035 33.3333H26.6668C26.2248 33.3333 25.8009 33.1577 25.4883 32.8452C25.1758 32.5326 25.0002 32.1087 25.0002 31.6667C25.0002 31.2246 25.1758 30.8007 25.4883 30.4882C25.8009 30.1756 26.2248 30 26.6668 30H32.9402L35.5702 28.685C36.0328 28.4538 36.5429 28.3334 37.0602 28.3333H38.3335V26.6667C38.3335 26.2246 38.5091 25.8007 38.8217 25.4882C39.1342 25.1756 39.5581 25 40.0002 25ZM30.0002 35.3933L26.6852 42.0217C26.7714 42.8407 27.1579 43.5989 27.77 44.1499C28.3821 44.701 29.1766 45.0059 30.0002 45.0059C30.8238 45.0059 31.6182 44.701 32.2303 44.1499C32.8425 43.5989 33.2289 42.8407 33.3152 42.0217L30.0002 35.3933ZM50.0002 35.3933L46.6852 42.0217C46.7692 42.8179 47.1371 43.5573 47.7215 44.1047C48.3059 44.652 49.0678 44.9707 49.8679 45.0025C50.6679 45.0342 51.4527 44.7769 52.0786 44.2776C52.7046 43.7784 53.1299 43.0704 53.2768 42.2833L53.3152 42.0233L50.0002 35.3933Z" fill="#0792FF"/>
</g>
</g>
</g>
<defs>
<filter id="filter0_d_6637_293" x="15.3335" y="21" width="49.3335" height="46" filterUnits="userSpaceOnUse" color-interpolation-filters="sRGB">
<feFlood flood-opacity="0" result="BackgroundImageFix"/>
<feColorMatrix in="SourceAlpha" type="matrix" values="0 0 0 0 0 0 0 0 0 0 0 0 0 0 0 0 0 0 127 0" result="hardAlpha"/>
<feOffset dy="4"/>
<feGaussianBlur stdDeviation="4"/>
<feComposite in2="hardAlpha" operator="out"/>
<feColorMatrix type="matrix" values="0 0 0 0 0.027451 0 0 0 0 0.572549 0 0 0 0 1 0 0 0 0.25 0"/>
<feBlend mode="normal" in2="BackgroundImageFix" result="effect1_dropShadow_6637_293"/>
<feBlend mode="normal" in="SourceGraphic" in2="effect1_dropShadow_6637_293" result="shape"/>
</filter>
</defs>
</svg>
