<svg width="80" height="80" viewBox="0 0 80 80" fill="none" xmlns="http://www.w3.org/2000/svg">
<g id="icon-choice">
<rect width="80" height="80" rx="21" fill="#EAF4FF"/>
<g id="Vector" filter="url(#filter0_d_6637_285)">
<path d="M51.561 33.5099H31.8673C31.632 33.5554 31.3897 33.5484 31.1575 33.4893C30.9253 33.4302 30.7091 33.3205 30.5243 33.168C30.3395 33.0156 30.1907 32.8242 30.0886 32.6076C29.9865 32.3909 29.9336 32.1544 29.9336 31.9149V31.884L50.7486 31.0735V29.1406C50.7825 28.8522 50.7504 28.5598 50.6548 28.2856C50.5592 28.0114 50.4025 27.7626 50.1965 27.5578C49.9905 27.353 49.7407 27.1977 49.4659 27.1035C49.1911 27.0094 48.8985 26.9789 48.6102 27.0143L30.1286 30.0177C29.5049 30.2479 28.9666 30.6634 28.586 31.2084C28.2055 31.7534 28.001 32.4019 28 33.0665V50.5635C28 51.2097 28.2568 51.8295 28.7139 52.2864C29.171 52.7433 29.7909 53 30.4373 53H51.561C52.2075 53 52.8274 52.7433 53.2845 52.2864C53.7416 51.8295 53.9984 51.2097 53.9984 50.5635V35.9285L54 35.8619C54 35.2373 53.7518 34.6382 53.3099 34.1965C52.8681 33.7548 52.2688 33.5067 51.6439 33.5067L51.5578 33.5083L51.561 33.5099ZM49.1237 44.8801C48.477 44.8799 47.857 44.6229 47.3999 44.1657C46.9428 43.7084 46.6861 43.0884 46.6863 42.442C46.6865 41.7956 46.9436 41.1758 47.401 40.7188C47.8584 40.2619 48.4787 40.0053 49.1253 40.0055C49.4455 40.0057 49.7625 40.0688 50.0583 40.1914C50.3541 40.314 50.6228 40.4936 50.8491 40.72C51.0754 40.9464 51.2549 41.2151 51.3774 41.5109C51.4998 41.8066 51.5628 42.1236 51.5627 42.4436C51.5625 42.7637 51.4994 43.0806 51.3767 43.3763C51.2541 43.6719 51.0744 43.9406 50.848 44.1668C50.6215 44.3931 50.3526 44.5725 50.0568 44.6949C49.7609 44.8173 49.4439 44.8802 49.1237 44.8801Z" fill="#0792FF"/>
</g>
</g>
<defs>
<filter id="filter0_d_6637_285" x="20" y="23" width="42" height="42" filterUnits="userSpaceOnUse" color-interpolation-filters="sRGB">
<feFlood flood-opacity="0" result="BackgroundImageFix"/>
<feColorMatrix in="SourceAlpha" type="matrix" values="0 0 0 0 0 0 0 0 0 0 0 0 0 0 0 0 0 0 127 0" result="hardAlpha"/>
<feOffset dy="4"/>
<feGaussianBlur stdDeviation="4"/>
<feComposite in2="hardAlpha" operator="out"/>
<feColorMatrix type="matrix" values="0 0 0 0 0.027451 0 0 0 0 0.572549 0 0 0 0 1 0 0 0 0.25 0"/>
<feBlend mode="normal" in2="BackgroundImageFix" result="effect1_dropShadow_6637_285"/>
<feBlend mode="normal" in="SourceGraphic" in2="effect1_dropShadow_6637_285" result="shape"/>
</filter>
</defs>
</svg>
