<svg width="80" height="80" viewBox="0 0 80 80" fill="none" xmlns="http://www.w3.org/2000/svg">
<g id="icon-choice">
<rect width="80" height="80" rx="21" fill="#EAF4FF"/>
<g id="Vector" filter="url(#filter0_d_6637_290)">
<path d="M27.8125 40.3838V51.1977C27.8125 52.1926 28.6263 53 29.625 53H38.6875V40.3838H27.8125Z" fill="#0792FF"/>
<path d="M53.1875 33.1746H47.4528C47.8642 32.8952 48.2176 32.6176 48.4641 32.3689C49.9268 30.9072 49.9268 28.5282 48.4641 27.0665C47.0431 25.6427 44.5673 25.6463 43.1481 27.0665C42.3614 27.8505 40.2771 31.0424 40.5653 33.1746H40.4348C40.7211 31.0424 38.6368 27.8505 37.8519 27.0665C36.4309 25.6463 33.9551 25.6463 32.5359 27.0665C31.075 28.5282 31.075 30.9072 32.5341 32.3689C32.7824 32.6176 33.1358 32.8952 33.5473 33.1746H27.8125C26.8138 33.1746 26 33.9838 26 34.9769V37.6803C26 38.1778 26.406 38.5815 26.9062 38.5815H38.6875V34.9769H42.3125V38.5815H54.0938C54.594 38.5815 55 38.1778 55 37.6803V34.9769C55 33.9838 54.188 33.1746 53.1875 33.1746ZM38.5806 33.1151C38.5806 33.1151 38.5044 33.1746 38.2452 33.1746C36.9928 33.1746 34.6021 31.8805 33.8209 31.0983C33.0615 30.3377 33.0615 29.0977 33.8209 28.3371C34.1889 27.9695 34.6764 27.7676 35.1948 27.7676C35.7114 27.7676 36.1989 27.9695 36.5669 28.3371C37.7885 29.5591 39.0029 32.6807 38.5806 33.1151ZM42.7529 33.1746C42.4956 33.1746 42.4194 33.1169 42.4194 33.1151C41.9971 32.6807 43.2115 29.5591 44.4331 28.3371C45.1636 27.6036 46.4414 27.6 47.1791 28.3371C47.9403 29.0977 47.9403 30.3377 47.1791 31.0983C46.3979 31.8805 44.0072 33.1746 42.7529 33.1746Z" fill="#0792FF"/>
<path d="M42.3125 40.3838V53H51.375C52.3755 53 53.1875 52.1926 53.1875 51.1977V40.3838H42.3125Z" fill="#0792FF"/>
</g>
</g>
<defs>
<filter id="filter0_d_6637_290" x="18" y="22" width="45" height="43" filterUnits="userSpaceOnUse" color-interpolation-filters="sRGB">
<feFlood flood-opacity="0" result="BackgroundImageFix"/>
<feColorMatrix in="SourceAlpha" type="matrix" values="0 0 0 0 0 0 0 0 0 0 0 0 0 0 0 0 0 0 127 0" result="hardAlpha"/>
<feOffset dy="4"/>
<feGaussianBlur stdDeviation="4"/>
<feComposite in2="hardAlpha" operator="out"/>
<feColorMatrix type="matrix" values="0 0 0 0 0.027451 0 0 0 0 0.572549 0 0 0 0 1 0 0 0 0.25 0"/>
<feBlend mode="normal" in2="BackgroundImageFix" result="effect1_dropShadow_6637_290"/>
<feBlend mode="normal" in="SourceGraphic" in2="effect1_dropShadow_6637_290" result="shape"/>
</filter>
</defs>
</svg>
