<svg width="60" height="60" viewBox="0 0 60 60" fill="none" xmlns="http://www.w3.org/2000/svg">
<rect width="60" height="60" rx="21" fill="#EAF4FF"/>
<g filter="url(#filter0_d_1551_246)">
<path d="M24.3573 45.9596L24.9654 45.7902C25.1045 45.7514 25.2346 45.6857 25.3482 45.5967C25.4618 45.5078 25.5568 45.3973 25.6276 45.2717C25.6985 45.1461 25.7439 45.0079 25.7611 44.8648C25.7784 44.7217 25.7673 44.5766 25.7284 44.4378L18.777 19.612C18.7284 19.4385 18.646 19.2763 18.5346 19.1345C18.4232 18.9928 18.2848 18.8743 18.1275 18.7859C17.9702 18.6976 17.797 18.641 17.6178 18.6194C17.4386 18.5978 17.2568 18.6117 17.083 18.6602L17.0044 18.6818C16.6534 18.7797 16.3558 19.0128 16.1769 19.3297C15.998 19.6466 15.9526 20.0215 16.0506 20.3718L23.0026 45.1981C23.0811 45.4783 23.2679 45.716 23.5219 45.8588C23.776 46.0016 24.0764 46.0378 24.3573 45.9596ZM48.8375 28.6105C46.633 27.5135 44.5936 26.1133 42.7789 24.4508C42.7041 24.3825 42.6501 24.2946 42.6229 24.1972C42.5957 24.0997 42.5965 23.9966 42.6252 23.8996C43.5243 20.5049 44.1921 17.0533 44.6238 13.5685C44.6922 12.9889 44.379 12.8184 44.0487 13.2162C37.5688 20.9503 26.357 11.8012 19.6835 18.8307C19.7632 18.9801 19.8264 19.1387 19.8714 19.3023L24.3812 35.4183C31.0661 28.4741 42.238 37.5663 48.7065 29.8493C49.0368 29.4515 49.0994 28.7241 48.8375 28.6105Z" fill="#0792FF"/>
</g>
<defs>
<filter id="filter0_d_1551_246" x="8" y="9" width="49" height="49" filterUnits="userSpaceOnUse" color-interpolation-filters="sRGB">
<feFlood flood-opacity="0" result="BackgroundImageFix"/>
<feColorMatrix in="SourceAlpha" type="matrix" values="0 0 0 0 0 0 0 0 0 0 0 0 0 0 0 0 0 0 127 0" result="hardAlpha"/>
<feOffset dy="4"/>
<feGaussianBlur stdDeviation="4"/>
<feComposite in2="hardAlpha" operator="out"/>
<feColorMatrix type="matrix" values="0 0 0 0 0.027451 0 0 0 0 0.572549 0 0 0 0 1 0 0 0 0.25 0"/>
<feBlend mode="normal" in2="BackgroundImageFix" result="effect1_dropShadow_1551_246"/>
<feBlend mode="normal" in="SourceGraphic" in2="effect1_dropShadow_1551_246" result="shape"/>
</filter>
</defs>
</svg>
