<svg width="60" height="60" viewBox="0 0 60 60" fill="none" xmlns="http://www.w3.org/2000/svg">
<rect width="60" height="60" rx="21" fill="#EAF4FF"/>
<g filter="url(#filter0_d_2918_78)">
<path d="M41.4496 22.3556C41.1197 18.2439 37.6276 15 33.3909 15C32.0347 15.0006 30.7003 15.3379 29.5102 15.9811C28.3201 16.6243 27.3124 17.5527 26.5795 18.6812C26.0554 18.5358 25.5138 18.4611 24.9695 18.4592C22.0328 18.4592 19.5305 20.5739 19.0097 23.3805C17.6593 23.4467 16.3864 24.0235 15.4539 24.9916C14.5215 25.9597 14.001 27.2452 14 28.5821C14.0018 29.9628 14.5574 31.2864 15.5448 32.2627C16.5322 33.2389 17.8708 33.788 19.2671 33.7896H29.8392V36.8098H20.3727C20.1976 36.8098 20.0298 36.8785 19.906 37.0009C19.7823 37.1233 19.7128 37.2892 19.7128 37.4623V39.5403C18.9681 39.6918 18.299 40.0924 17.8182 40.6748C17.3374 41.2571 17.0743 41.9855 17.0732 42.7373C17.0743 43.6023 17.4223 44.4315 18.0408 45.0431C18.6594 45.6548 19.4979 45.9989 20.3727 46C21.2475 45.9991 22.0863 45.6551 22.705 45.0434C23.3238 44.4318 23.6719 43.6024 23.673 42.7373C23.6719 41.9855 23.4088 41.2571 22.928 40.6748C22.4472 40.0924 21.7781 39.6918 21.0334 39.5403V38.114H29.8392V39.5403C29.0944 39.6916 28.4251 40.0922 27.9441 40.6745C27.4632 41.2569 27.1999 41.9854 27.1988 42.7373C27.1999 43.6026 27.5482 44.4321 28.1671 45.0437C28.786 45.6554 29.625 45.9993 30.5 46C31.3747 45.9989 32.2133 45.6548 32.8318 45.0431C33.4503 44.4315 33.7983 43.6023 33.7995 42.7373C33.7984 41.9855 33.5353 41.2571 33.0545 40.6748C32.5737 40.0924 31.9046 39.6918 31.1599 39.5403V38.114H39.9666V39.5403C39.2218 39.6916 38.5525 40.0922 38.0715 40.6745C37.5905 41.2569 37.3273 41.9854 37.3261 42.7373C37.3273 43.6023 37.6753 44.4315 38.2938 45.0431C38.9123 45.6548 39.7509 45.9989 40.6256 46C41.5005 45.9991 42.3393 45.6551 42.958 45.0434C43.5767 44.4318 43.9248 43.6024 43.926 42.7373C43.9249 41.9855 43.6617 41.2571 43.1809 40.6748C42.7001 40.0924 42.031 39.6918 41.2864 39.5403V37.4614C41.2864 37.3757 41.2693 37.2909 41.2361 37.2117C41.203 37.1326 41.1544 37.0606 41.0931 37C41.0318 36.9394 40.9591 36.8914 40.879 36.8586C40.7989 36.8258 40.7131 36.8089 40.6265 36.8089H31.1599V33.7888H41.2129C44.4071 33.7888 47 31.2239 47 28.0722C46.9989 26.5955 46.4209 25.1763 45.3868 24.111C44.3528 23.0456 42.9425 22.4164 41.4505 22.3548L41.4496 22.3556Z" fill="#0792FF"/>
</g>
<defs>
<filter id="filter0_d_2918_78" x="6" y="11" width="49" height="47" filterUnits="userSpaceOnUse" color-interpolation-filters="sRGB">
<feFlood flood-opacity="0" result="BackgroundImageFix"/>
<feColorMatrix in="SourceAlpha" type="matrix" values="0 0 0 0 0 0 0 0 0 0 0 0 0 0 0 0 0 0 127 0" result="hardAlpha"/>
<feOffset dy="4"/>
<feGaussianBlur stdDeviation="4"/>
<feComposite in2="hardAlpha" operator="out"/>
<feColorMatrix type="matrix" values="0 0 0 0 0.027451 0 0 0 0 0.572549 0 0 0 0 1 0 0 0 0.25 0"/>
<feBlend mode="normal" in2="BackgroundImageFix" result="effect1_dropShadow_2918_78"/>
<feBlend mode="normal" in="SourceGraphic" in2="effect1_dropShadow_2918_78" result="shape"/>
</filter>
</defs>
</svg>
