<svg width="60" height="60" viewBox="0 0 60 60" fill="none" xmlns="http://www.w3.org/2000/svg">
<rect width="60" height="60" rx="21" fill="#EAF4FF"/>
<g filter="url(#filter0_d_2918_66)">
<path d="M43 26.1058C43 34.1286 30.9529 40.6224 30.4399 40.8906C30.3047 40.9624 30.1535 41 30 41C29.8465 41 29.6953 40.9624 29.5601 40.8906C29.0471 40.6224 17 34.1286 17 26.1058C17.0022 24.2219 17.761 22.4157 19.1102 21.0836C20.4593 19.7515 22.2885 19.0021 24.1964 19C26.5933 19 28.6919 20.0177 30 21.738C31.3081 20.0177 33.4067 19 35.8036 19C37.7115 19.0021 39.5407 19.7515 40.8898 21.0836C42.239 22.4157 42.9978 24.2219 43 26.1058Z" fill="#0792FF"/>
</g>
<defs>
<filter id="filter0_d_2918_66" x="9" y="15" width="42" height="38" filterUnits="userSpaceOnUse" color-interpolation-filters="sRGB">
<feFlood flood-opacity="0" result="BackgroundImageFix"/>
<feColorMatrix in="SourceAlpha" type="matrix" values="0 0 0 0 0 0 0 0 0 0 0 0 0 0 0 0 0 0 127 0" result="hardAlpha"/>
<feOffset dy="4"/>
<feGaussianBlur stdDeviation="4"/>
<feComposite in2="hardAlpha" operator="out"/>
<feColorMatrix type="matrix" values="0 0 0 0 0.027451 0 0 0 0 0.572549 0 0 0 0 1 0 0 0 0.25 0"/>
<feBlend mode="normal" in2="BackgroundImageFix" result="effect1_dropShadow_2918_66"/>
<feBlend mode="normal" in="SourceGraphic" in2="effect1_dropShadow_2918_66" result="shape"/>
</filter>
</defs>
</svg>
