<svg width="60" height="60" viewBox="0 0 60 60" fill="none" xmlns="http://www.w3.org/2000/svg">
<rect width="60" height="60" rx="21" fill="#EAF4FF"/>
<g filter="url(#filter0_d_2921_12)">
<path d="M16.2978 24.7755C16.4818 25.4128 16.7371 26.0273 17.06 26.6038L16.1401 27.7759C15.8397 28.159 15.8735 28.7053 16.2114 29.0504L17.7959 30.6512C18.1376 30.9964 18.6783 31.0267 19.0575 30.7232L20.2101 29.8015C20.8034 30.1467 21.4342 30.416 22.0912 30.6056L22.2639 32.1039C22.3203 32.5895 22.7258 32.9536 23.2064 32.9536H25.4479C25.9285 32.9536 26.334 32.5894 26.3903 32.1039L26.5555 30.6587C27.2614 30.4729 27.9372 30.196 28.5717 29.8356L29.6869 30.727C30.0661 31.0305 30.6068 30.9963 30.9484 30.6549L32.5329 29.0542C32.8746 28.709 32.9046 28.1628 32.6042 27.7797L31.7369 26.6683C32.0974 26.0386 32.379 25.3672 32.5667 24.6655L33.9033 24.51C34.384 24.4531 34.7444 24.0434 34.7444 23.5579V21.2933C34.7444 20.8078 34.3839 20.3981 33.9033 20.3412L32.5855 20.1857C32.4052 19.4916 32.1349 18.8277 31.7895 18.2057L32.6005 17.1701C32.9009 16.787 32.8671 16.2408 32.5292 15.8956L30.9485 14.2987C30.6068 13.9535 30.0661 13.9231 29.6869 14.2266L28.6919 15.0232C28.0461 14.6401 27.3552 14.348 26.6306 14.1507L26.4804 12.8497C26.4241 12.3641 26.0186 12 25.538 12H23.2965C22.8159 12 22.4104 12.3641 22.3541 12.8497L22.2039 14.1507C21.4605 14.3518 20.7509 14.6552 20.09 15.0535L19.0575 14.2266C18.6783 13.9231 18.1376 13.9573 17.7959 14.2987L16.2115 15.8994C15.8698 16.2446 15.8398 16.7908 16.1401 17.1739L17.0037 18.2777C16.6583 18.9074 16.3955 19.5788 16.2228 20.2767L14.841 20.4361C14.3604 20.493 14 20.9026 14 21.3882V23.6527C14 24.1382 14.3604 24.5479 14.841 24.6048L16.2978 24.7755ZM24.4191 18.6495C26.4616 18.6495 28.1249 20.3299 28.1249 22.3934C28.1249 24.4569 26.4616 26.1373 24.4191 26.1373C22.3766 26.1373 20.7133 24.4569 20.7133 22.3934C20.7133 20.3299 22.3766 18.6495 24.4191 18.6495Z" fill="#0792FF"/>
<path d="M46.579 25.3331L45.3963 24.3241C45.0321 24.0131 44.4952 24.0283 44.1498 24.3583L43.4965 24.9766C42.9446 24.7072 42.3589 24.5176 41.7543 24.4076L41.5704 23.4972C41.4766 23.0269 41.0448 22.7006 40.5716 22.7386L39.0284 22.8713C38.5554 22.9131 38.1836 23.3038 38.1686 23.7855L38.1386 24.711C37.5454 24.9272 36.9859 25.2231 36.4753 25.5948L35.6944 25.0714C35.2963 24.8059 34.7669 24.8817 34.4591 25.2497L33.4603 26.4521C33.1524 26.82 33.1674 27.3625 33.4941 27.7114L34.1774 28.4473C33.9409 28.9859 33.7719 29.5511 33.6743 30.1315L32.6981 30.3325C32.2325 30.4273 31.9096 30.8636 31.9472 31.3415L32.0786 32.9005C32.1199 33.3785 32.5066 33.754 32.9835 33.7692L34.0385 33.8033C34.2301 34.3116 34.4816 34.7933 34.7857 35.2447L34.1963 36.1437C33.9334 36.5458 34.0085 37.0806 34.3727 37.3916L35.5554 38.4006C35.9196 38.7117 36.4565 38.6965 36.802 38.3665L37.5754 37.6344C38.0823 37.8734 38.6154 38.0517 39.1636 38.1579L39.3777 39.2275C39.4715 39.6979 39.9033 40.0241 40.3764 39.9862L41.9196 39.8534C42.3926 39.8117 42.7644 39.421 42.7794 38.9393L42.8132 37.8923C43.3764 37.6913 43.9095 37.4182 44.4013 37.0806L45.2537 37.6496C45.6517 37.9151 46.181 37.8392 46.489 37.4713L47.4877 36.2764C47.7955 35.9085 47.7805 35.3661 47.4539 35.0171L46.7668 34.2813C47.0184 33.7426 47.2024 33.1736 47.3074 32.5895L48.2461 32.396C48.7117 32.3012 49.0346 31.865 48.997 31.387L48.8656 29.828C48.8243 29.35 48.4376 28.9745 47.9608 28.9593L47.0183 28.929C46.8231 28.3752 46.5602 27.8518 46.2336 27.3662L46.748 26.5848C47.0183 26.1828 46.9432 25.6442 46.579 25.3331ZM40.7631 34.3457C39.0961 34.4899 37.6242 33.2343 37.4853 31.5502C37.3426 29.866 38.5854 28.379 40.2524 28.2387C41.9195 28.0945 43.3914 29.3501 43.5303 31.0342C43.673 32.7185 42.4301 34.2054 40.7631 34.3457Z" fill="#0792FF"/>
<path d="M21.697 38.541C21.2239 38.5903 20.8597 38.9924 20.8559 39.4741L20.8447 40.4338C20.8372 40.9156 21.1901 41.3252 21.6632 41.386L22.3616 41.477C22.478 41.9056 22.6432 42.3153 22.8572 42.7022L22.4066 43.2636C22.1062 43.6391 22.1288 44.1777 22.4629 44.5229L23.1275 45.2095C23.4617 45.5547 23.9948 45.5926 24.3741 45.2967L24.9335 44.8605C25.3277 45.0957 25.7445 45.2816 26.18 45.4105L26.2551 46.1388C26.3039 46.6168 26.7019 46.9847 27.1787 46.9885L28.1287 46.9999C28.6055 47.0075 29.011 46.6509 29.0711 46.173L29.1575 45.4826C29.6306 45.365 30.0812 45.1867 30.5091 44.9516L31.0348 45.3802C31.4065 45.6836 31.9397 45.6609 32.2814 45.3233L32.961 44.6519C33.3026 44.3143 33.3402 43.7757 33.0474 43.3926L32.6455 42.8653C32.8934 42.448 33.0849 42.0042 33.2163 41.5376L33.8396 41.4732C34.3126 41.4238 34.6768 41.0218 34.6806 40.54L34.6918 39.5803C34.6994 39.0986 34.3464 38.6889 33.8734 38.6282L33.2651 38.5486C33.1487 38.0858 32.976 37.6382 32.7507 37.221L33.1299 36.7506C33.4303 36.3751 33.4078 35.8364 33.0736 35.4913L32.4091 34.8047C32.0749 34.4595 31.5417 34.4215 31.1625 34.7174L30.7081 35.0702C30.2802 34.8085 29.822 34.6074 29.3415 34.4709L29.2814 33.8754C29.2326 33.3974 28.8346 33.0295 28.3577 33.0257L27.4078 33.0143C26.931 33.0067 26.5255 33.3633 26.4654 33.8412L26.3903 34.433C25.8947 34.5619 25.4178 34.7592 24.9748 35.0171L24.5055 34.6302C24.1338 34.3267 23.6006 34.3495 23.2589 34.6871L22.5755 35.3623C22.2339 35.6999 22.1963 36.2386 22.4892 36.6216L22.8909 37.1451C22.6581 37.5624 22.4742 38.0061 22.354 38.4727L21.697 38.541ZM27.8283 37.4561C29.1913 37.4713 30.2838 38.6055 30.2689 39.9824C30.2538 41.3594 29.1312 42.4631 27.7682 42.448C26.4053 42.4328 25.3127 41.2987 25.3277 39.9217C25.3428 38.5448 26.4654 37.441 27.8283 37.4561Z" fill="#0792FF"/>
</g>
<defs>
<filter id="filter0_d_2921_12" x="6" y="8" width="51" height="51" filterUnits="userSpaceOnUse" color-interpolation-filters="sRGB">
<feFlood flood-opacity="0" result="BackgroundImageFix"/>
<feColorMatrix in="SourceAlpha" type="matrix" values="0 0 0 0 0 0 0 0 0 0 0 0 0 0 0 0 0 0 127 0" result="hardAlpha"/>
<feOffset dy="4"/>
<feGaussianBlur stdDeviation="4"/>
<feComposite in2="hardAlpha" operator="out"/>
<feColorMatrix type="matrix" values="0 0 0 0 0.027451 0 0 0 0 0.572549 0 0 0 0 1 0 0 0 0.25 0"/>
<feBlend mode="normal" in2="BackgroundImageFix" result="effect1_dropShadow_2921_12"/>
<feBlend mode="normal" in="SourceGraphic" in2="effect1_dropShadow_2921_12" result="shape"/>
</filter>
</defs>
</svg>
