<svg width="60" height="60" viewBox="0 0 60 60" fill="none" xmlns="http://www.w3.org/2000/svg">
<rect width="60" height="60" rx="21" fill="#EAF4FF"/>
<g filter="url(#filter0_d_2945_25)">
<path fill-rule="evenodd" clip-rule="evenodd" d="M32.5886 43.7612C31.7497 43.918 30.8844 44 30 44C22.268 44 16 37.732 16 30C16 22.268 22.268 16 30 16C37.6197 16 43.8176 22.0872 43.996 29.6639C42.914 29.2355 41.7345 29 40.5 29C35.2533 29 31 33.2533 31 38.5C31 40.4458 31.585 42.2549 32.5886 43.7612ZM30 19C29.4477 19 29 19.4477 29 20V29H22C21.4477 29 21 29.4477 21 30C21 30.5523 21.4477 31 22 31H30C30.5523 31 31 30.5523 31 30V20C31 19.4477 30.5523 19 30 19Z" fill="#0792FF"/>
</g>
<g filter="url(#filter1_d_2945_25)">
<path fill-rule="evenodd" clip-rule="evenodd" d="M40.5 46C44.6421 46 48 42.6421 48 38.5C48 34.3579 44.6421 31 40.5 31C36.3579 31 33 34.3579 33 38.5C33 42.6421 36.3579 46 40.5 46ZM43.1213 36.0306C43.4672 35.6848 44.0279 35.6848 44.3738 36.0306C44.7196 36.3765 44.7196 36.9372 44.3738 37.2831L40.6164 41.0404C40.3427 41.3142 39.9343 41.3712 39.6044 41.2116C39.4025 41.1951 39.2053 41.1096 39.0508 40.9552L37.1722 39.0765C36.8263 38.7307 36.8263 38.1699 37.1722 37.8241C37.518 37.4782 38.0788 37.4782 38.4246 37.8241L39.8762 39.2757L43.1213 36.0306Z" fill="#0792FF"/>
</g>
<defs>
<filter id="filter0_d_2945_25" x="8" y="12" width="43.996" height="44" filterUnits="userSpaceOnUse" color-interpolation-filters="sRGB">
<feFlood flood-opacity="0" result="BackgroundImageFix"/>
<feColorMatrix in="SourceAlpha" type="matrix" values="0 0 0 0 0 0 0 0 0 0 0 0 0 0 0 0 0 0 127 0" result="hardAlpha"/>
<feOffset dy="4"/>
<feGaussianBlur stdDeviation="4"/>
<feComposite in2="hardAlpha" operator="out"/>
<feColorMatrix type="matrix" values="0 0 0 0 0.027451 0 0 0 0 0.572549 0 0 0 0 1 0 0 0 0.25 0"/>
<feBlend mode="normal" in2="BackgroundImageFix" result="effect1_dropShadow_2945_25"/>
<feBlend mode="normal" in="SourceGraphic" in2="effect1_dropShadow_2945_25" result="shape"/>
</filter>
<filter id="filter1_d_2945_25" x="25" y="27" width="31" height="31" filterUnits="userSpaceOnUse" color-interpolation-filters="sRGB">
<feFlood flood-opacity="0" result="BackgroundImageFix"/>
<feColorMatrix in="SourceAlpha" type="matrix" values="0 0 0 0 0 0 0 0 0 0 0 0 0 0 0 0 0 0 127 0" result="hardAlpha"/>
<feOffset dy="4"/>
<feGaussianBlur stdDeviation="4"/>
<feComposite in2="hardAlpha" operator="out"/>
<feColorMatrix type="matrix" values="0 0 0 0 0.027451 0 0 0 0 0.572549 0 0 0 0 1 0 0 0 0.25 0"/>
<feBlend mode="normal" in2="BackgroundImageFix" result="effect1_dropShadow_2945_25"/>
<feBlend mode="normal" in="SourceGraphic" in2="effect1_dropShadow_2945_25" result="shape"/>
</filter>
</defs>
</svg>
