<svg width="81" height="80" viewBox="0 0 81 80" fill="none" xmlns="http://www.w3.org/2000/svg">
<rect x="0.5" width="80" height="80" rx="23" fill="#EAF4FF"/>
<g filter="url(#filter0_d_2201_95)">
<path d="M30.3468 31C25.2207 31 21 35.2183 21 40.5C21 45.7817 25.2207 50 30.3468 50C33.2105 50 35.6497 48.6965 37.5321 46.9978C38.2969 46.3075 38.3755 45.1072 37.7075 44.3169C37.0395 43.5265 35.878 43.4453 35.1131 44.1356C33.6935 45.4167 32.0798 46.2 30.3468 46.2C27.1802 46.2 24.6774 43.6099 24.6774 40.5C24.6774 37.3901 27.1802 34.8 30.3468 34.8C32.5585 34.8 34.5126 36.2207 36.0519 37.9759C36.797 38.8255 37.3815 39.6833 37.7801 40.3315C38.2556 41.1047 38.6403 41.9327 39.1161 42.7065C39.5937 43.4833 40.302 44.5255 41.2232 45.5759C43.0166 47.6207 45.8891 50 49.6532 50C54.7793 50 59 45.7817 59 40.5C59 35.2183 54.7793 31 49.6532 31C46.8294 31 44.3304 32.3563 42.4824 33.9894C41.7106 34.6714 41.62 35.8707 42.28 36.6682C42.94 37.4657 44.1007 37.5593 44.8725 36.8773C46.2943 35.6208 47.9768 34.8 49.6532 34.8C52.8198 34.8 55.3226 37.3901 55.3226 40.5C55.3226 43.6099 52.8198 46.2 49.6532 46.2C47.4415 46.2 45.4874 44.7793 43.9481 43.0241C43.203 42.1745 42.6185 41.3167 42.2199 40.6685C41.7442 39.895 41.3598 39.0674 40.8839 38.2935C40.4063 37.5167 39.698 36.4745 38.7768 35.4241C36.9834 33.3793 34.1109 31 30.3468 31Z" fill="#0792FF"/>
</g>
<defs>
<filter id="filter0_d_2201_95" x="13" y="27" width="54" height="35" filterUnits="userSpaceOnUse" color-interpolation-filters="sRGB">
<feFlood flood-opacity="0" result="BackgroundImageFix"/>
<feColorMatrix in="SourceAlpha" type="matrix" values="0 0 0 0 0 0 0 0 0 0 0 0 0 0 0 0 0 0 127 0" result="hardAlpha"/>
<feOffset dy="4"/>
<feGaussianBlur stdDeviation="4"/>
<feComposite in2="hardAlpha" operator="out"/>
<feColorMatrix type="matrix" values="0 0 0 0 0.027451 0 0 0 0 0.572549 0 0 0 0 1 0 0 0 0.25 0"/>
<feBlend mode="normal" in2="BackgroundImageFix" result="effect1_dropShadow_2201_95"/>
<feBlend mode="normal" in="SourceGraphic" in2="effect1_dropShadow_2201_95" result="shape"/>
</filter>
</defs>
</svg>
