<svg width="81" height="80" viewBox="0 0 81 80" fill="none" xmlns="http://www.w3.org/2000/svg">
<rect x="0.5" width="80" height="80" rx="23" fill="#EAF4FF"/>
<g filter="url(#filter0_d_2201_100)">
<path d="M47.1279 26.96C46.8705 26.9 46.6027 26.8991 46.3449 26.9574C46.087 27.0158 45.8457 27.1318 45.6392 27.2968C45.4326 27.4618 45.2661 27.6715 45.1523 27.9101C45.0384 28.1487 44.9801 28.41 44.9818 28.6744V42.2306C44.9818 42.4606 44.9366 42.6883 44.8486 42.9008C44.7606 43.1133 44.6316 43.3064 44.469 43.469C44.3064 43.6316 44.1134 43.7606 43.9009 43.8487C43.6884 43.9367 43.4607 43.982 43.2307 43.982H29.6745C29.4101 43.9803 29.1489 44.0386 28.9103 44.1525C28.6717 44.2663 28.4621 44.4328 28.2971 44.6393C28.1321 44.8459 28.016 45.0871 27.9577 45.3449C27.8993 45.6028 27.9002 45.8705 27.9602 46.1279C28.6477 48.8249 30.037 51.2918 31.987 53.2778C33.937 55.2638 36.378 56.6981 39.062 57.4348C41.746 58.1716 44.5772 58.1845 47.2678 57.4724C49.9584 56.7602 52.4125 55.3483 54.3805 53.3803C56.3486 51.4122 57.7604 48.9581 58.4726 46.2675C59.1847 43.5769 59.1717 40.7457 58.435 38.0617C57.6982 35.3777 56.2639 32.9367 54.2779 30.9867C52.2919 29.0368 49.8249 27.6475 47.1279 26.96Z" fill="#0792FF"/>
<path d="M24.6473 41.6323H40.9963C41.4302 41.6323 41.8463 41.4599 42.1532 41.1531C42.46 40.8463 42.6323 40.4302 42.6323 39.9963V23.6469C42.6342 23.2203 42.4693 22.8098 42.1729 22.5029C41.8764 22.1961 41.4719 22.0171 41.0454 22.0042C40.9088 22.0011 40.7716 21.9997 40.6336 22C35.9747 22.0486 31.5201 23.9199 28.2241 27.213C24.9281 30.5061 23.0528 34.959 23.0001 39.6179C22.9997 39.7609 23.001 39.9031 23.0041 40.0444C23.017 40.4711 23.1959 40.8758 23.5029 41.1724C23.8098 41.469 24.2205 41.634 24.6473 41.6323Z" fill="#0792FF"/>
</g>
<defs>
<filter id="filter0_d_2201_100" x="15" y="18" width="51.9971" height="51.9971" filterUnits="userSpaceOnUse" color-interpolation-filters="sRGB">
<feFlood flood-opacity="0" result="BackgroundImageFix"/>
<feColorMatrix in="SourceAlpha" type="matrix" values="0 0 0 0 0 0 0 0 0 0 0 0 0 0 0 0 0 0 127 0" result="hardAlpha"/>
<feOffset dy="4"/>
<feGaussianBlur stdDeviation="4"/>
<feComposite in2="hardAlpha" operator="out"/>
<feColorMatrix type="matrix" values="0 0 0 0 0.027451 0 0 0 0 0.572549 0 0 0 0 1 0 0 0 0.25 0"/>
<feBlend mode="normal" in2="BackgroundImageFix" result="effect1_dropShadow_2201_100"/>
<feBlend mode="normal" in="SourceGraphic" in2="effect1_dropShadow_2201_100" result="shape"/>
</filter>
</defs>
</svg>
