<svg width="80" height="80" viewBox="0 0 80 80" fill="none" xmlns="http://www.w3.org/2000/svg">
<rect width="80" height="80" rx="23" fill="#EAF4FF"/>
<g filter="url(#filter0_d_2201_107)">
<path fill-rule="evenodd" clip-rule="evenodd" d="M40.0868 22.0834H39.9135C38.4152 22.0834 37.1668 22.0834 36.1768 22.2167C35.1302 22.3567 34.1852 22.6667 33.4268 23.425C32.6668 24.185 32.3568 25.13 32.2168 26.175C32.1218 26.8867 32.0935 28.585 32.0868 30.0417C28.7168 30.1534 26.6918 30.5467 25.2868 31.9534C23.3335 33.905 23.3335 37.0484 23.3335 43.3334C23.3335 49.6184 23.3335 52.7617 25.2868 54.7134C27.2385 56.6667 30.3818 56.6667 36.6668 56.6667H43.3335C49.6185 56.6667 52.7618 56.6667 54.7135 54.7134C56.6668 52.7617 56.6668 49.6184 56.6668 43.3334C56.6668 37.0484 56.6668 33.905 54.7135 31.9534C53.3085 30.5467 51.2835 30.1534 47.9135 30.0434C47.9068 28.585 47.8802 26.8867 47.7835 26.1767C47.6435 25.13 47.3335 24.185 46.5735 23.4267C45.8152 22.6667 44.8702 22.3567 43.8235 22.2167C42.8335 22.0834 41.5835 22.0834 40.0868 22.0834ZM45.4135 30.0034C45.4052 28.5917 45.3818 27.0734 45.3068 26.5084C45.2018 25.74 45.0235 25.41 44.8068 25.1934C44.5902 24.9767 44.2602 24.7984 43.4902 24.6934C42.6868 24.5867 41.6068 24.5834 40.0002 24.5834C38.3935 24.5834 37.3135 24.5867 36.5085 24.695C35.7402 24.7984 35.4102 24.9767 35.1935 25.195C34.9768 25.4117 34.7985 25.74 34.6935 26.5084C34.6185 27.075 34.5935 28.5917 34.5868 30.0034C35.2385 30 35.9335 30 36.6668 30H43.3335C44.0685 30 44.7618 30 45.4135 30.0034ZM40.0002 35.4167C40.3317 35.4167 40.6496 35.5484 40.884 35.7828C41.1185 36.0172 41.2502 36.3352 41.2502 36.6667V36.6834C43.0652 37.14 44.5835 38.5717 44.5835 40.555C44.5835 40.8866 44.4518 41.2045 44.2174 41.4389C43.983 41.6733 43.665 41.805 43.3335 41.805C43.002 41.805 42.684 41.6733 42.4496 41.4389C42.2152 41.2045 42.0835 40.8866 42.0835 40.555C42.0835 39.915 41.3735 39.0284 40.0002 39.0284C38.6268 39.0284 37.9168 39.915 37.9168 40.555C37.9168 41.195 38.6268 42.0834 40.0002 42.0834C42.3085 42.0834 44.5835 43.6834 44.5835 46.1117C44.5835 48.095 43.0652 49.525 41.2502 49.9834V50C41.2502 50.3316 41.1185 50.6495 40.884 50.8839C40.6496 51.1183 40.3317 51.25 40.0002 51.25C39.6686 51.25 39.3507 51.1183 39.1163 50.8839C38.8819 50.6495 38.7502 50.3316 38.7502 50V49.9834C36.9352 49.5267 35.4168 48.095 35.4168 46.1117C35.4168 45.7802 35.5485 45.4622 35.7829 45.2278C36.0174 44.9934 36.3353 44.8617 36.6668 44.8617C36.9984 44.8617 37.3163 44.9934 37.5507 45.2278C37.7851 45.4622 37.9168 45.7802 37.9168 46.1117C37.9168 46.7517 38.6268 47.6384 40.0002 47.6384C41.3735 47.6384 42.0835 46.7517 42.0835 46.1117C42.0835 45.4717 41.3735 44.5834 40.0002 44.5834C37.6918 44.5834 35.4168 42.9834 35.4168 40.555C35.4168 38.5717 36.9352 37.14 38.7502 36.6834V36.6667C38.7502 36.3352 38.8819 36.0172 39.1163 35.7828C39.3507 35.5484 39.6686 35.4167 40.0002 35.4167Z" fill="#0792FF"/>
</g>
<defs>
<filter id="filter0_d_2201_107" x="13" y="17" width="54.9336" height="53.1648" filterUnits="userSpaceOnUse" color-interpolation-filters="sRGB">
<feFlood flood-opacity="0" result="BackgroundImageFix"/>
<feColorMatrix in="SourceAlpha" type="matrix" values="0 0 0 0 0 0 0 0 0 0 0 0 0 0 0 0 0 0 127 0" result="hardAlpha"/>
<feOffset dy="4"/>
<feGaussianBlur stdDeviation="4"/>
<feComposite in2="hardAlpha" operator="out"/>
<feColorMatrix type="matrix" values="0 0 0 0 0.027451 0 0 0 0 0.572549 0 0 0 0 1 0 0 0 0.25 0"/>
<feBlend mode="normal" in2="BackgroundImageFix" result="effect1_dropShadow_2201_107"/>
<feBlend mode="normal" in="SourceGraphic" in2="effect1_dropShadow_2201_107" result="shape"/>
</filter>
</defs>
</svg>
