<svg width="81" height="80" viewBox="0 0 81 80" fill="none" xmlns="http://www.w3.org/2000/svg">
<rect x="0.5" width="80" height="80" rx="23" fill="#EAF4FF"/>
<g filter="url(#filter0_d_2176_90)">
<path d="M50.9073 23.1287C50.9073 21.3549 49.5933 19 46.4335 19C44.5877 19 42.3665 20.2233 41.3028 23.1899C40.2391 20.2233 38.0178 19 36.172 19C33.0122 19 31.6983 21.3549 31.6983 23.1287C31.6983 26.7376 35.5776 28.175 39.0503 28.175H43.5553C47.0279 28.175 50.9073 26.7376 50.9073 23.1287ZM33.6379 23.1287C33.6379 22.0278 34.6391 20.8962 36.172 20.8962C37.6424 20.8962 39.8324 22.3642 39.8949 26.2788C38.0178 26.2788 33.6379 26.2788 33.6379 23.1287ZM46.4335 20.8962C47.9665 20.8962 48.9676 22.0278 48.9676 23.1287C48.9676 26.2788 44.5877 26.2788 42.7106 26.2788C42.7106 22.2724 44.9631 20.8962 46.4335 20.8962ZM27.2245 32.7625H55.381V29.7653C55.381 26.6458 55.381 26.6458 52.19 26.6458H30.4156C27.2245 26.6458 27.2245 26.6458 27.2245 29.7653V32.7625ZM53.8168 34.2916H28.7888V44.9346C28.7888 48.0541 28.7888 48.0541 31.9798 48.0541H50.6257C53.8168 48.0541 53.8168 48.0541 53.8168 44.9346V34.2916ZM53.1285 50.734L47.1843 53.6088C46.5899 54.8016 45.2134 55.3215 43.5866 55.3215H36.0469C36.172 54.5569 36.8603 53.2112 39.5195 53.2112H43.6491C46.5274 53.2112 46.3397 49.9694 43.6179 50L31.5731 50.0917C23.9083 50.1529 23.2826 60.9182 35.2022 60.9182C41.2089 60.9182 44.6815 60.4595 47.6849 58.5327L54.8805 53.9452C57.1017 52.5078 55.7564 49.4495 53.1285 50.734Z" fill="#0792FF"/>
</g>
<defs>
<filter id="filter0_d_2176_90" x="18" y="15" width="46" height="57.9182" filterUnits="userSpaceOnUse" color-interpolation-filters="sRGB">
<feFlood flood-opacity="0" result="BackgroundImageFix"/>
<feColorMatrix in="SourceAlpha" type="matrix" values="0 0 0 0 0 0 0 0 0 0 0 0 0 0 0 0 0 0 127 0" result="hardAlpha"/>
<feOffset dy="4"/>
<feGaussianBlur stdDeviation="4"/>
<feComposite in2="hardAlpha" operator="out"/>
<feColorMatrix type="matrix" values="0 0 0 0 0.027451 0 0 0 0 0.572549 0 0 0 0 1 0 0 0 0.25 0"/>
<feBlend mode="normal" in2="BackgroundImageFix" result="effect1_dropShadow_2176_90"/>
<feBlend mode="normal" in="SourceGraphic" in2="effect1_dropShadow_2176_90" result="shape"/>
</filter>
</defs>
</svg>
