<svg width="81" height="80" viewBox="0 0 81 80" fill="none" xmlns="http://www.w3.org/2000/svg">
<rect x="0.5" width="80" height="80" rx="23" fill="#EAF4FF"/>
<g filter="url(#filter0_d_2176_95)">
<path d="M37.4774 20C32.7549 20 28.906 23.8488 28.906 28.5714C28.906 30.4315 29.4583 32.4155 30.5132 33.8839C30.5864 33.9855 30.679 34.0718 30.7856 34.1376C30.8922 34.2035 31.0107 34.2478 31.1344 34.2678C31.2581 34.2879 31.3846 34.2834 31.5065 34.2546C31.6285 34.2258 31.7436 34.1732 31.8452 34.0999C31.9469 34.0266 32.0331 33.934 32.0989 33.8274C32.1647 33.7208 32.2089 33.6022 32.229 33.4785C32.249 33.3548 32.2444 33.2284 32.2156 33.1064C32.1867 32.9845 32.1341 32.8694 32.0608 32.7678C31.3194 31.7358 30.8108 30.025 30.8108 28.5714C30.8108 24.8782 33.7843 21.9048 37.4774 21.9048C41.1706 21.9048 44.1441 24.8782 44.1441 28.5714C44.1441 30.025 43.6354 31.7358 42.8941 32.7678C42.8208 32.8694 42.7682 32.9845 42.7394 33.1064C42.7105 33.2283 42.706 33.3548 42.726 33.4784C42.7461 33.6021 42.7903 33.7206 42.8561 33.8272C42.922 33.9338 43.0081 34.0264 43.1098 34.0997C43.2114 34.173 43.3265 34.2256 43.4484 34.2544C43.5703 34.2832 43.6968 34.2877 43.8204 34.2677C43.9441 34.2476 44.0626 34.2034 44.1692 34.1376C44.2758 34.0717 44.3684 33.9855 44.4417 33.8839C45.4966 32.4155 46.0488 30.4315 46.0488 28.5714C46.0488 23.8488 42.2 20 37.4774 20ZM37.4774 25.7143C35.8949 25.7143 34.6203 26.9885 34.6203 28.5714V45.7142L32.7156 41.9046C31.1551 39.009 29.6204 39.31 28.4299 39.9999C27.0518 40.919 26.5384 41.868 27.4775 44.2856C29.1808 48.4683 31.603 53.2817 34.2981 57.1316C35.6222 59.023 37.8497 59.9998 40.1585 59.9998H46.7413C48.4564 59.9998 50.1835 59.4716 51.1305 58.0417C54.6978 52.6554 56.6982 40.6335 51.2869 39.9999C50.7137 39.9999 49.796 40.0918 49.3821 40.4761C49.3821 38.5713 47.7199 38.0833 47.0012 38.0951C46.1766 38.109 45.5724 38.5713 45.0964 39.5237C45.0964 37.6189 43.5429 37.1428 42.7155 37.1428C41.8046 37.1428 40.7483 37.7111 40.3346 38.5713V28.5714C40.3346 26.9885 39.06 25.7143 37.4774 25.7143Z" fill="#0792FF"/>
</g>
<defs>
<filter id="filter0_d_2176_95" x="19" y="16" width="43.623" height="55.9998" filterUnits="userSpaceOnUse" color-interpolation-filters="sRGB">
<feFlood flood-opacity="0" result="BackgroundImageFix"/>
<feColorMatrix in="SourceAlpha" type="matrix" values="0 0 0 0 0 0 0 0 0 0 0 0 0 0 0 0 0 0 127 0" result="hardAlpha"/>
<feOffset dy="4"/>
<feGaussianBlur stdDeviation="4"/>
<feComposite in2="hardAlpha" operator="out"/>
<feColorMatrix type="matrix" values="0 0 0 0 0.027451 0 0 0 0 0.572549 0 0 0 0 1 0 0 0 0.25 0"/>
<feBlend mode="normal" in2="BackgroundImageFix" result="effect1_dropShadow_2176_95"/>
<feBlend mode="normal" in="SourceGraphic" in2="effect1_dropShadow_2176_95" result="shape"/>
</filter>
</defs>
</svg>
