<svg width="60" height="58" viewBox="0 0 60 58" fill="none" xmlns="http://www.w3.org/2000/svg">
<g clip-path="url(#clip0_1164_344)">
<rect y="0.0647583" width="59.8705" height="57.8705" rx="21" fill="#EAF4FF"/>
<g filter="url(#filter0_d_1164_344)">
<path fill-rule="evenodd" clip-rule="evenodd" d="M31.1873 12.5052C30.4559 11.918 29.4146 11.918 28.6832 12.5052L26.7627 14.0469C26.3253 14.3981 25.7605 14.5494 25.2062 14.464L22.7721 14.089C21.8451 13.9462 20.9433 14.4668 20.6035 15.3411L19.7112 17.6365C19.508 18.1593 19.0946 18.5728 18.5717 18.776L16.2763 19.6683C15.4021 20.0081 14.8814 20.9098 15.0243 21.8369L15.3992 24.2709C15.4846 24.8253 15.3333 25.3901 14.9822 25.8275L13.4404 27.7479C12.8532 28.4794 12.8532 29.5206 13.4404 30.2521L14.9822 32.1725C15.3333 32.6099 15.4846 33.1747 15.3992 33.7291L15.0243 36.1631C14.8814 37.0901 15.4021 37.9919 16.2763 38.3317L18.5717 39.224C19.0946 39.4272 19.508 39.8407 19.7112 40.3635L20.6035 42.6589C20.9433 43.5332 21.8451 44.0538 22.7721 43.911L25.2062 43.536C25.7605 43.4506 26.3253 43.6019 26.7627 43.9531L28.6832 45.4948C29.4146 46.082 30.4559 46.082 31.1873 45.4948L33.1077 43.9531C33.5451 43.6019 34.1099 43.4506 34.6643 43.536L37.0983 43.911C38.0254 44.0538 38.9271 43.5332 39.267 42.6589L40.1592 40.3635C40.3625 39.8407 40.7759 39.4272 41.2987 39.224L43.5941 38.3317C44.4684 37.9919 44.989 37.0901 44.8462 36.1631L44.4712 33.7291C44.3858 33.1747 44.5372 32.6099 44.8883 32.1725L46.4301 30.2521C47.0173 29.5206 47.0173 28.4794 46.4301 27.7479L44.8883 25.8275C44.5372 25.3901 44.3858 24.8253 44.4712 24.2709L44.8462 21.8369C44.989 20.9099 44.4684 20.0081 43.5941 19.6683L41.2987 18.776C40.7759 18.5728 40.3625 18.1593 40.1592 17.6365L39.267 15.3411C38.9271 14.4668 38.0254 13.9462 37.0983 14.089L34.6643 14.464C34.1099 14.5494 33.5451 14.3981 33.1077 14.0469L31.1873 12.5052ZM29.9352 40.5C36.2865 40.5 41.4352 35.3513 41.4352 29C41.4352 22.6487 36.2865 17.5 29.9352 17.5C23.584 17.5 18.4352 22.6487 18.4352 29C18.4352 35.3513 23.584 40.5 29.9352 40.5Z" fill="#0792FF"/>
<path fill-rule="evenodd" clip-rule="evenodd" d="M29.9351 39.4999C35.734 39.4999 40.4351 34.7989 40.4351 28.9999C40.4351 23.2009 35.734 18.4999 29.9351 18.4999C24.1361 18.4999 19.4351 23.2009 19.4351 28.9999C19.4351 34.7989 24.1361 39.4999 29.9351 39.4999ZM35.7214 26.1178C36.0626 25.6835 35.9872 25.0549 35.5529 24.7137C35.1186 24.3725 34.49 24.4479 34.1487 24.8822L29.2635 31.0997L25.549 28.2106C25.1131 27.8716 24.4848 27.9501 24.1457 28.3861C23.8066 28.822 23.8852 29.4503 24.3211 29.7894L28.8211 33.2894L29.6066 33.9003L30.2214 33.1178L35.7214 26.1178Z" fill="#0792FF"/>
</g>
</g>
<defs>
<filter id="filter0_d_1164_344" x="5" y="8.06476" width="49.8704" height="49.8705" filterUnits="userSpaceOnUse" color-interpolation-filters="sRGB">
<feFlood flood-opacity="0" result="BackgroundImageFix"/>
<feColorMatrix in="SourceAlpha" type="matrix" values="0 0 0 0 0 0 0 0 0 0 0 0 0 0 0 0 0 0 127 0" result="hardAlpha"/>
<feOffset dy="4"/>
<feGaussianBlur stdDeviation="4"/>
<feComposite in2="hardAlpha" operator="out"/>
<feColorMatrix type="matrix" values="0 0 0 0 0.027451 0 0 0 0 0.572549 0 0 0 0 1 0 0 0 0.25 0"/>
<feBlend mode="normal" in2="BackgroundImageFix" result="effect1_dropShadow_1164_344"/>
<feBlend mode="normal" in="SourceGraphic" in2="effect1_dropShadow_1164_344" result="shape"/>
</filter>
<clipPath id="clip0_1164_344">
<rect y="0.0647583" width="59.8705" height="57.8705" rx="21" fill="white"/>
</clipPath>
</defs>
</svg>
