<svg width="80" height="80" viewBox="0 0 80 80" fill="none" xmlns="http://www.w3.org/2000/svg">
<g id="icon-choice">
<rect width="80" height="80" rx="21" fill="#EAF4FF"/>
<g id="Group 39363" filter="url(#filter0_d_6131_26)">
<path id="Vector" fill-rule="evenodd" clip-rule="evenodd" d="M21 30.3339C21 29.7149 21.2269 29.1213 21.6308 28.6836C22.0347 28.2459 22.5825 28 23.1537 28H57.6125C58.1837 28 58.7315 28.2459 59.1354 28.6836C59.5393 29.1213 59.7662 29.7149 59.7662 30.3339V49.0053C59.7662 49.6243 59.5393 50.218 59.1354 50.6556C58.7315 51.0933 58.1837 51.3392 57.6125 51.3392H23.1537C22.5825 51.3392 22.0347 51.0933 21.6308 50.6556C21.2269 50.218 21 49.6243 21 49.0053V30.3339ZM46.8441 39.6696C46.8441 41.5266 46.1634 43.3075 44.9517 44.6206C43.74 45.9337 42.0967 46.6714 40.3831 46.6714C38.6695 46.6714 37.0261 45.9337 35.8144 44.6206C34.6028 43.3075 33.9221 41.5266 33.9221 39.6696C33.9221 37.8126 34.6028 36.0317 35.8144 34.7186C37.0261 33.4055 38.6695 32.6678 40.3831 32.6678C42.0967 32.6678 43.74 33.4055 44.9517 34.7186C46.1634 36.0317 46.8441 37.8126 46.8441 39.6696ZM27.461 42.0035C28.0322 42.0035 28.58 41.7576 28.9839 41.32C29.3878 40.8823 29.6147 40.2886 29.6147 39.6696C29.6147 39.0506 29.3878 38.457 28.9839 38.0193C28.58 37.5816 28.0322 37.3357 27.461 37.3357C26.8898 37.3357 26.342 37.5816 25.9381 38.0193C25.5343 38.457 25.3074 39.0506 25.3074 39.6696C25.3074 40.2886 25.5343 40.8823 25.9381 41.32C26.342 41.7576 26.8898 42.0035 27.461 42.0035ZM55.4588 39.6696C55.4588 40.2886 55.2319 40.8823 54.828 41.32C54.4241 41.7576 53.8763 42.0035 53.3051 42.0035C52.7339 42.0035 52.1862 41.7576 51.7823 41.32C51.3784 40.8823 51.1515 40.2886 51.1515 39.6696C51.1515 39.0506 51.3784 38.457 51.7823 38.0193C52.1862 37.5816 52.7339 37.3357 53.3051 37.3357C53.8763 37.3357 54.4241 37.5816 54.828 38.0193C55.2319 38.457 55.4588 39.0506 55.4588 39.6696Z" fill="#0792FF"/>
<path id="1" d="M40.3007 35.0415C40.3804 35.014 40.4641 35 40.5483 35H41.2411C41.6602 35 42 35.3398 42 35.7589V43.2411C42 43.6602 41.6602 44 41.2411 44H40.9431C40.524 44 40.1842 43.6602 40.1842 43.2411V36.8771L39.1652 37.1562C38.7665 37.2654 38.3538 37.0355 38.2369 36.639L38.2051 36.5311C38.0903 36.142 38.3019 35.7315 38.6853 35.5991L40.3007 35.0415Z" fill="#0792FF"/>
</g>
</g>
<defs>
<filter id="filter0_d_6131_26" x="14.929" y="24.9645" width="50.9081" height="35.4812" filterUnits="userSpaceOnUse" color-interpolation-filters="sRGB">
<feFlood flood-opacity="0" result="BackgroundImageFix"/>
<feColorMatrix in="SourceAlpha" type="matrix" values="0 0 0 0 0 0 0 0 0 0 0 0 0 0 0 0 0 0 127 0" result="hardAlpha"/>
<feOffset dy="3.03549"/>
<feGaussianBlur stdDeviation="3.03549"/>
<feComposite in2="hardAlpha" operator="out"/>
<feColorMatrix type="matrix" values="0 0 0 0 0.027451 0 0 0 0 0.572549 0 0 0 0 1 0 0 0 0.25 0"/>
<feBlend mode="normal" in2="BackgroundImageFix" result="effect1_dropShadow_6131_26"/>
<feBlend mode="normal" in="SourceGraphic" in2="effect1_dropShadow_6131_26" result="shape"/>
</filter>
</defs>
</svg>
