<svg width="80" height="80" viewBox="0 0 80 80" fill="none" xmlns="http://www.w3.org/2000/svg">
<g id="icon-choice">
<rect width="80" height="80" rx="21" fill="#EAF4FF"/>
<g id="Vector" filter="url(#filter0_d_6131_30)">
<path d="M26.9091 32.9866C26.4835 32.8397 26.1151 32.5674 25.8546 32.2073C25.5941 31.8472 25.4543 31.4171 25.4545 30.9762C25.4545 30.7878 25.3779 30.6071 25.2415 30.4738C25.1051 30.3406 24.9202 30.2658 24.7273 30.2658C24.5344 30.2658 24.3494 30.3406 24.213 30.4738C24.0766 30.6071 24 30.7878 24 30.9762C24.0004 31.667 24.207 32.3428 24.5945 32.9207C24.982 33.4986 25.5336 33.9535 26.1818 34.2299C26.3975 33.8011 26.6404 33.3858 26.9091 32.9866Z" fill="#0792FF"/>
<path d="M55.2727 36.6595C54.7891 36.6629 54.3161 36.5209 53.918 36.2527C53.5199 35.9846 53.2159 35.6032 53.0472 35.1605C52.552 33.8097 51.8293 32.5491 50.909 31.4308V31.1751L52.989 27.7864C53.0478 27.7021 53.0873 27.6065 53.1049 27.506C53.1225 27.4054 53.1177 27.3024 53.0908 27.2039C53.0594 27.1081 53.0074 27.0199 52.9385 26.9452C52.8695 26.8705 52.7851 26.811 52.6908 26.7705C52.4872 26.6853 47.8763 24.7813 44.9672 27.2962C43.3545 26.8417 41.677 26.6449 40 26.7137C37.946 26.7323 35.9162 27.148 34.0276 27.9369C32.139 28.7258 30.429 29.8722 28.9964 31.3101C28.4631 31.8677 27.9767 32.4664 27.5418 33.1003C27.2511 33.5213 26.9887 33.9603 26.7564 34.4146C25.8545 36.0495 25.4058 37.8862 25.4545 39.7427C25.6321 42.7146 26.927 45.5178 29.0909 47.6141V52.2886C29.0909 52.477 29.1675 52.6577 29.3039 52.791C29.4403 52.9242 29.6253 52.999 29.8182 52.999H34.6545C34.8131 53.0071 34.9701 52.9643 35.1014 52.877C35.2327 52.7898 35.3312 52.663 35.3818 52.516C35.6363 51.7558 36.2182 50.8678 37.0909 50.8678H42.1818C42.6644 50.862 43.1326 51.0287 43.4981 51.3367C43.9437 51.7275 44.3283 52.1798 44.64 52.6793C44.7058 52.7771 44.7954 52.8574 44.9007 52.9132C45.006 52.9689 45.1238 52.9984 45.2436 52.999H49.4545C49.5502 52.9996 49.6451 52.9817 49.7337 52.9463C49.8223 52.9109 49.9029 52.8589 49.9708 52.793C50.0382 52.7266 50.0916 52.6479 50.1278 52.5614C50.164 52.4748 50.1823 52.3821 50.1818 52.2886V47.5573C50.4872 47.1665 51.1781 46.2643 51.4981 45.8167C51.674 45.5667 51.8989 45.3531 52.1598 45.1885C52.4207 45.0239 52.7124 44.9114 53.0181 44.8577L55.3963 44.4741C55.567 44.4453 55.7217 44.3579 55.8324 44.2277C55.943 44.0974 56.0024 43.9329 55.9999 43.7636V37.3699C55.9999 37.1815 55.9233 37.0008 55.7869 36.8676C55.6505 36.7343 55.4655 36.6595 55.2727 36.6595ZM45.6945 32.0773C45.6286 32.175 45.539 32.2554 45.4337 32.3111C45.3284 32.3669 45.2106 32.3964 45.0909 32.397C44.9479 32.3986 44.808 32.3564 44.6909 32.2762C43.2705 31.4497 41.6531 31.0014 40 30.9762C38.346 30.9957 36.7271 31.4444 35.3091 32.2762C35.1494 32.3599 34.9635 32.3823 34.7877 32.3391C34.612 32.2959 34.4591 32.1902 34.359 32.0426C34.2589 31.8951 34.2188 31.7163 34.2466 31.5414C34.2743 31.3665 34.3679 31.208 34.5091 31.0969C36.1628 30.107 38.0605 29.5742 40 29.5553C41.9394 29.5742 43.8372 30.107 45.4909 31.0969C45.6503 31.2011 45.7611 31.3626 45.7993 31.5462C45.8374 31.7298 45.7998 31.9207 45.6945 32.0773ZM48.3636 35.9491C48.1478 35.9491 47.9369 35.8866 47.7575 35.7695C47.5781 35.6524 47.4383 35.486 47.3557 35.2912C47.2731 35.0965 47.2515 34.8823 47.2936 34.6756C47.3357 34.4688 47.4396 34.279 47.5922 34.1299C47.7448 33.9809 47.9391 33.8794 48.1508 33.8383C48.3624 33.7972 48.5817 33.8183 48.781 33.8989C48.9804 33.9796 49.1508 34.1162 49.2706 34.2914C49.3905 34.4667 49.4545 34.6727 49.4545 34.8834C49.4545 35.1661 49.3396 35.4371 49.135 35.637C48.9304 35.8368 48.6529 35.9491 48.3636 35.9491Z" fill="#0792FF"/>
</g>
</g>
<defs>
<filter id="filter0_d_6131_30" x="16" y="22" width="48" height="43" filterUnits="userSpaceOnUse" color-interpolation-filters="sRGB">
<feFlood flood-opacity="0" result="BackgroundImageFix"/>
<feColorMatrix in="SourceAlpha" type="matrix" values="0 0 0 0 0 0 0 0 0 0 0 0 0 0 0 0 0 0 127 0" result="hardAlpha"/>
<feOffset dy="4"/>
<feGaussianBlur stdDeviation="4"/>
<feComposite in2="hardAlpha" operator="out"/>
<feColorMatrix type="matrix" values="0 0 0 0 0.027451 0 0 0 0 0.572549 0 0 0 0 1 0 0 0 0.25 0"/>
<feBlend mode="normal" in2="BackgroundImageFix" result="effect1_dropShadow_6131_30"/>
<feBlend mode="normal" in="SourceGraphic" in2="effect1_dropShadow_6131_30" result="shape"/>
</filter>
</defs>
</svg>
