<svg width="80" height="80" viewBox="0 0 80 80" fill="none" xmlns="http://www.w3.org/2000/svg">
<g id="icon-choice">
<rect width="80" height="80" rx="21" fill="#EAF4FF"/>
<g id="Group 39379" filter="url(#filter0_d_6103_151)">
<path id="Subtract" fill-rule="evenodd" clip-rule="evenodd" d="M29.6016 52.9999C28.0895 52.9999 26.8636 51.7741 26.8636 50.262L26.8636 48L52.1864 48C54.2926 48 56 46.2926 56 44.1864L56 33.3636L57.2621 33.3636C58.7742 33.3636 60 34.5894 60 36.1015L60 50.262C60 51.7741 58.7742 52.9999 57.2621 52.9999L29.6016 52.9999Z" fill="#0792FF"/>
<path id="Subtract_2" fill-rule="evenodd" clip-rule="evenodd" d="M22.4335 26C20.8134 26 19.5 27.3134 19.5 28.9335V31.5636H54.8077V28.9335C54.8077 27.3134 53.4943 26 51.8742 26H22.4335ZM54.8077 32.9545H19.5V43.9301C19.5 45.5503 20.8134 46.8636 22.4335 46.8636H51.8742C53.4943 46.8636 54.8077 45.5503 54.8077 43.9301V32.9545ZM27.8455 40.6045C27.8455 41.7568 26.9114 42.6909 25.7592 42.6909C24.6069 42.6909 23.6728 41.7568 23.6728 40.6045C23.6728 39.4523 24.6069 38.5182 25.7592 38.5182C26.9114 38.5182 27.8455 39.4523 27.8455 40.6045Z" fill="#0792FF"/>
</g>
</g>
<defs>
<filter id="filter0_d_6103_151" x="11.5" y="22" width="56.5" height="42.9999" filterUnits="userSpaceOnUse" color-interpolation-filters="sRGB">
<feFlood flood-opacity="0" result="BackgroundImageFix"/>
<feColorMatrix in="SourceAlpha" type="matrix" values="0 0 0 0 0 0 0 0 0 0 0 0 0 0 0 0 0 0 127 0" result="hardAlpha"/>
<feOffset dy="4"/>
<feGaussianBlur stdDeviation="4"/>
<feComposite in2="hardAlpha" operator="out"/>
<feColorMatrix type="matrix" values="0 0 0 0 0.027451 0 0 0 0 0.572549 0 0 0 0 1 0 0 0 0.25 0"/>
<feBlend mode="normal" in2="BackgroundImageFix" result="effect1_dropShadow_6103_151"/>
<feBlend mode="normal" in="SourceGraphic" in2="effect1_dropShadow_6103_151" result="shape"/>
</filter>
</defs>
</svg>
