<svg width="52" height="13" viewBox="0 0 52 13" fill="none" xmlns="http://www.w3.org/2000/svg">
<rect width="52" height="13" rx="4" fill="#FFAB07"/>
<path d="M4.6456 10L4.6456 3.45455L7.15128 3.45455C7.62429 3.45455 8.0174 3.52912 8.33061 3.67827C8.64595 3.82528 8.88139 4.02663 9.03693 4.28232C9.1946 4.538 9.27344 4.82777 9.27344 5.15163C9.27344 5.41797 9.2223 5.64595 9.12003 5.83558C9.01776 6.02308 8.88033 6.17543 8.70774 6.29261C8.53516 6.4098 8.34233 6.49396 8.12926 6.5451V6.60902C8.36151 6.6218 8.58416 6.69318 8.79723 6.82315C9.01243 6.95099 9.18821 7.1321 9.32457 7.36648C9.46094 7.60085 9.52912 7.88423 9.52912 8.21662C9.52912 8.5554 9.44709 8.86009 9.28303 9.13068C9.11896 9.39915 8.8718 9.61115 8.54155 9.76669C8.21129 9.92223 7.79581 10 7.2951 10H4.6456ZM5.83132 9.00923H7.10653C7.53693 9.00923 7.84695 8.9272 8.03658 8.76314C8.22834 8.59695 8.32422 8.38388 8.32422 8.12393C8.32422 7.93004 8.27628 7.75533 8.1804 7.59979C8.08452 7.44212 7.94815 7.31854 7.77131 7.22905C7.59446 7.13743 7.38352 7.09162 7.13849 7.09162L5.83132 7.09162L5.83132 9.00923ZM5.83132 6.23828L7.00426 6.23828C7.20881 6.23828 7.39311 6.20099 7.55717 6.12642C7.72124 6.04972 7.85014 5.94212 7.94389 5.80362C8.03977 5.663 8.08771 5.4968 8.08771 5.30504C8.08771 5.05149 7.99822 4.84268 7.81925 4.67862C7.6424 4.51456 7.37926 4.43253 7.02983 4.43253H5.83132L5.83132 6.23828ZM12.6828 10.0959C12.1906 10.0959 11.7655 9.99361 11.4076 9.78906C11.0518 9.58239 10.778 9.29048 10.5862 8.91335C10.3944 8.53409 10.2986 8.08771 10.2986 7.57422C10.2986 7.06925 10.3944 6.62607 10.5862 6.24467C10.7801 5.86115 11.0507 5.56285 11.398 5.34979C11.7453 5.13459 12.1533 5.02699 12.6221 5.02699C12.9246 5.02699 13.2101 5.07599 13.4786 5.17401C13.7492 5.26989 13.9878 5.41903 14.1945 5.62145C14.4033 5.82386 14.5674 6.08168 14.6867 6.39489C14.806 6.70597 14.8657 7.0767 14.8657 7.5071V7.86186L10.8419 7.86186V7.08203L13.7567 7.08203C13.7545 6.86044 13.7066 6.66335 13.6128 6.49077C13.5191 6.31605 13.3881 6.17862 13.2197 6.07848C13.0535 5.97834 12.8596 5.92827 12.6381 5.92827C12.4015 5.92827 12.1938 5.9858 12.0148 6.10085C11.8358 6.21378 11.6963 6.36293 11.5961 6.5483C11.4981 6.73153 11.4481 6.93288 11.4459 7.15234V7.8331C11.4459 8.11861 11.4981 8.36364 11.6025 8.56818C11.7069 8.7706 11.8529 8.92614 12.0404 9.0348C12.2279 9.14134 12.4474 9.1946 12.6988 9.1946C12.8671 9.1946 13.0194 9.17116 13.1558 9.12429C13.2922 9.07528 13.4104 9.00391 13.5106 8.91016C13.6107 8.81641 13.6863 8.70028 13.7375 8.56179L14.8177 8.68324C14.7496 8.96875 14.6196 9.21804 14.4278 9.43111C14.2382 9.64205 13.9953 9.80611 13.6991 9.9233C13.403 10.0384 13.0642 10.0959 12.6828 10.0959ZM19.7244 6.38849L18.6697 6.50355C18.6399 6.39702 18.5877 6.29688 18.5131 6.20313C18.4407 6.10938 18.3427 6.03374 18.2191 5.97621C18.0955 5.91868 17.9442 5.88991 17.7653 5.88991C17.5245 5.88991 17.3221 5.94212 17.158 6.04652C16.9961 6.15092 16.9162 6.28622 16.9183 6.45241C16.9162 6.59517 16.9684 6.71129 17.0749 6.80078C17.1836 6.89027 17.3626 6.96378 17.6119 7.02131L18.4492 7.20028C18.9137 7.30043 19.2589 7.45916 19.4847 7.67649C19.7127 7.89382 19.8278 8.17827 19.8299 8.52983C19.8278 8.83878 19.7372 9.11151 19.5582 9.34801C19.3814 9.58239 19.1353 9.76562 18.82 9.89773C18.5046 10.0298 18.1424 10.0959 17.7333 10.0959C17.1325 10.0959 16.6488 9.97017 16.2823 9.71875C15.9158 9.4652 15.6974 9.11257 15.6271 8.66087L16.7553 8.5522C16.8065 8.77379 16.9151 8.94105 17.0813 9.05398C17.2475 9.1669 17.4638 9.22337 17.7301 9.22337C18.005 9.22337 18.2255 9.1669 18.3917 9.05398C18.56 8.94105 18.6442 8.80149 18.6442 8.6353C18.6442 8.49467 18.5898 8.37855 18.4812 8.28693C18.3746 8.19531 18.2085 8.125 17.9826 8.07599L17.1452 7.90021C16.6744 7.8022 16.326 7.63707 16.1001 7.40483C15.8743 7.17045 15.7624 6.87429 15.7646 6.51634C15.7624 6.21378 15.8445 5.9517 16.0107 5.73011C16.179 5.50639 16.4123 5.33381 16.7106 5.21236C17.011 5.08878 17.3572 5.02699 17.7493 5.02699C18.3246 5.02699 18.7773 5.1495 19.1076 5.39453C19.44 5.63956 19.6456 5.97088 19.7244 6.38849ZM23.2353 5.09091V5.9858H20.4132V5.09091H23.2353ZM21.1099 3.91477L22.2669 3.91477V8.52344C22.2669 8.67898 22.2903 8.7983 22.3372 8.88139C22.3862 8.96236 22.4501 9.01776 22.5289 9.04759C22.6078 9.07741 22.6951 9.09233 22.791 9.09233C22.8635 9.09233 22.9295 9.087 22.9892 9.07635C23.051 9.0657 23.0978 9.05611 23.1298 9.04759L23.3248 9.95206C23.263 9.97337 23.1745 9.9968 23.0595 10.0224C22.9466 10.0479 22.8081 10.0629 22.644 10.0671C22.3542 10.0756 22.0932 10.032 21.861 9.93608C21.6287 9.83807 21.4444 9.68679 21.3081 9.48224C21.1738 9.2777 21.1078 9.02202 21.1099 8.7152V3.91477ZM28.0125 6.38849L26.9578 6.50355C26.928 6.39702 26.8758 6.29688 26.8012 6.20313C26.7288 6.10938 26.6308 6.03374 26.5072 5.97621C26.3836 5.91868 26.2323 5.88991 26.0534 5.88991C25.8126 5.88991 25.6102 5.94212 25.4461 6.04652C25.2842 6.15092 25.2043 6.28622 25.2064 6.45241C25.2043 6.59517 25.2565 6.71129 25.363 6.80078C25.4717 6.89027 25.6507 6.96378 25.8999 7.02131L26.7373 7.20028C27.2018 7.30043 27.547 7.45916 27.7728 7.67649C28.0008 7.89382 28.1159 8.17827 28.118 8.52983C28.1159 8.83878 28.0253 9.11151 27.8463 9.34801C27.6695 9.58239 27.4234 9.76562 27.108 9.89773C26.7927 10.0298 26.4305 10.0959 26.0214 10.0959C25.4205 10.0959 24.9369 9.97017 24.5704 9.71875C24.2039 9.4652 23.9855 9.11257 23.9152 8.66087L25.0434 8.5522C25.0945 8.77379 25.2032 8.94105 25.3694 9.05398C25.5356 9.1669 25.7519 9.22337 26.0182 9.22337C26.2931 9.22337 26.5136 9.1669 26.6798 9.05398C26.8481 8.94105 26.9323 8.80149 26.9323 8.6353C26.9323 8.49467 26.8779 8.37855 26.7693 8.28693C26.6627 8.19531 26.4965 8.125 26.2707 8.07599L25.4333 7.90021C24.9624 7.8022 24.6141 7.63707 24.3882 7.40483C24.1624 7.17045 24.0505 6.87429 24.0526 6.51634C24.0505 6.21378 24.1325 5.9517 24.2987 5.73011C24.4671 5.50639 24.7004 5.33381 24.9987 5.21236C25.2991 5.08878 25.6453 5.02699 26.0374 5.02699C26.6127 5.02699 27.0654 5.1495 27.3957 5.39453C27.7281 5.63956 27.9337 5.97088 28.0125 6.38849ZM31.2453 10.0959C30.7531 10.0959 30.328 9.99361 29.9701 9.78906C29.6143 9.58239 29.3405 9.29048 29.1487 8.91335C28.9569 8.53409 28.8611 8.08771 28.8611 7.57422C28.8611 7.06925 28.9569 6.62607 29.1487 6.24467C29.3426 5.86115 29.6132 5.56285 29.9605 5.34979C30.3078 5.13459 30.7158 5.02699 31.1846 5.02699C31.4871 5.02699 31.7726 5.07599 32.0411 5.17401C32.3117 5.26989 32.5503 5.41903 32.757 5.62145C32.9658 5.82386 33.1299 6.08168 33.2492 6.39489C33.3685 6.70597 33.4282 7.0767 33.4282 7.5071V7.86186H29.4044V7.08203H32.3192C32.317 6.86044 32.2691 6.66335 32.1753 6.49077C32.0816 6.31605 31.9506 6.17862 31.7822 6.07848C31.616 5.97834 31.4221 5.92827 31.2006 5.92827C30.964 5.92827 30.7563 5.9858 30.5773 6.10085C30.3983 6.21378 30.2588 6.36293 30.1586 6.5483C30.0606 6.73153 30.0106 6.93288 30.0084 7.15234V7.8331C30.0084 8.11861 30.0606 8.36364 30.165 8.56818C30.2694 8.7706 30.4154 8.92614 30.6029 9.0348C30.7904 9.14134 31.0099 9.1946 31.2613 9.1946C31.4296 9.1946 31.5819 9.17116 31.7183 9.12429C31.8547 9.07528 31.9729 9.00391 32.0731 8.91016C32.1732 8.81641 32.2488 8.70028 32.3 8.56179L33.3802 8.68324C33.3121 8.96875 33.1821 9.21804 32.9903 9.43111C32.8007 9.64205 32.5578 9.80611 32.2616 9.9233C31.9655 10.0384 31.6267 10.0959 31.2453 10.0959ZM35.5639 3.45455V10H34.407V3.45455H35.5639ZM37.9106 3.45455V10H36.7536V3.45455H37.9106ZM41.2736 10.0959C40.7814 10.0959 40.3564 9.99361 39.9984 9.78906C39.6426 9.58239 39.3688 9.29048 39.177 8.91335C38.9853 8.53409 38.8894 8.08771 38.8894 7.57422C38.8894 7.06925 38.9853 6.62607 39.177 6.24467C39.3709 5.86115 39.6415 5.56285 39.9888 5.34979C40.3361 5.13459 40.7441 5.02699 41.2129 5.02699C41.5154 5.02699 41.801 5.07599 42.0694 5.17401C42.34 5.26989 42.5787 5.41903 42.7853 5.62145C42.9941 5.82386 43.1582 6.08168 43.2775 6.39489C43.3968 6.70597 43.4565 7.0767 43.4565 7.5071V7.86186L39.4327 7.86186V7.08203L42.3475 7.08203C42.3453 6.86044 42.2974 6.66335 42.2037 6.49077C42.1099 6.31605 41.9789 6.17862 41.8105 6.07848C41.6444 5.97834 41.4505 5.92827 41.2289 5.92827C40.9924 5.92827 40.7846 5.9858 40.6056 6.10085C40.4267 6.21378 40.2871 6.36293 40.187 6.5483C40.089 6.73153 40.0389 6.93288 40.0368 7.15234V7.8331C40.0368 8.11861 40.089 8.36364 40.1934 8.56818C40.2978 8.7706 40.4437 8.92614 40.6312 9.0348C40.8187 9.14134 41.0382 9.1946 41.2896 9.1946C41.4579 9.1946 41.6103 9.17116 41.7466 9.12429C41.883 9.07528 42.0012 9.00391 42.1014 8.91016C42.2015 8.81641 42.2772 8.70028 42.3283 8.56179L43.4086 8.68324C43.3404 8.96875 43.2104 9.21804 43.0186 9.43111C42.829 9.64205 42.5861 9.80611 42.29 9.9233C41.9938 10.0384 41.655 10.0959 41.2736 10.0959ZM44.4353 10V5.09091L45.5571 5.09091V5.90909H45.6082C45.6977 5.62571 45.8511 5.40732 46.0684 5.25391C46.2879 5.09837 46.5383 5.0206 46.8195 5.0206C46.8834 5.0206 46.9548 5.02379 47.0336 5.03018C47.1146 5.03445 47.1817 5.0419 47.235 5.05256V6.11683C47.186 6.09979 47.1082 6.08487 47.0017 6.07209C46.8973 6.05717 46.7961 6.04972 46.6981 6.04972C46.4871 6.04972 46.2975 6.09553 46.1292 6.18714C45.963 6.27663 45.8319 6.40128 45.7361 6.56108C45.6402 6.72088 45.5922 6.90518 45.5922 7.11399V10H44.4353Z" fill="white"/>
</svg>
