<svg
   width="30"
   height="30"
   fill="#c8cddc"
   image-rendering="optimizeQuality"
   shape-rendering="geometricPrecision"
   viewBox="0 0 1.2000001 1.12"
   version="1.1"
   id="svg27"
   xmlns="http://www.w3.org/2000/svg">
  <defs
     id="defs31" />
  <path
     d="m 0.04,0.17 h 1.12 c 0.02,0 0.04,0.02 0.04,0.05 V 0.5 C 1.2,0.52 1.18,0.54 1.16,0.54 H 0.04 C 0.02,0.54 0,0.52 0,0.5 V 0.22 C 0,0.19 0.02,0.17 0.04,0.17 Z M 1.11,0.26 H 0.09 v 0.2 h 1.02 z"
     id="path21" />
  <path
     d="m 1.01,0.51 c 0,-0.02 0.02,-0.04 0.04,-0.04 0.03,0 0.05,0.02 0.05,0.04 V 1.07 C 1.1,1.1 1.08,1.12 1.05,1.12 H 0.15 C 0.12,1.12 0.11,1.1 0.11,1.07 V 0.51 c 0,-0.02 0.01,-0.04 0.04,-0.04 0.02,0 0.04,0.02 0.04,0.04 v 0.52 h 0.82 z"
     id="path23" />
  <path
     d="M 0.64,1.07 C 0.64,1.1 0.62,1.12 0.6,1.12 0.58,1.12 0.56,1.1 0.56,1.07 V 0.78 c 0,-0.03 0.02,-0.05 0.04,-0.05 0.02,0 0.04,0.02 0.04,0.05 z M 0.42,0.09 C 0.4,0.09 0.38,0.07 0.38,0.05 0.38,0.02 0.4,0 0.42,0 h 0.36 c 0.03,0 0.04,0.02 0.04,0.05 0,0.02 -0.01,0.04 -0.04,0.04 z"
     id="path25" />
</svg>
