<svg width="32" height="32" viewBox="0 0 32 32" fill="none" xmlns="http://www.w3.org/2000/svg">
<path fill-rule="evenodd" clip-rule="evenodd" d="M14.1632 31.8942C13.4847 31.8158 13 31.2222 13 30.5393C13 29.6217 13.8582 28.9468 14.7718 29.0327C15.6945 29.1195 16.6241 29.1085 17.5401 29C18.7264 28.8595 19.8941 28.5565 21.0097 28.0944C22.126 27.632 23.1667 27.0199 24.1054 26.2798L14.531 16.5958V2.99177C12.4617 3.22545 10.4704 3.95049 8.72709 5.11532C6.5743 6.55376 4.89636 8.59828 3.90554 10.9903C3.19636 12.7024 2.86197 14.5375 2.91438 16.3736C2.93855 17.2201 3.04657 18.0708 3.23496 18.9014C3.36432 19.4717 3.20734 20.0778 2.77762 20.4745C1.99453 21.1974 0.734027 20.9077 0.476011 19.8737C-0.0932422 17.5924 -0.155054 15.2037 0.307438 12.8786C0.924801 9.77486 2.44861 6.92393 4.68625 4.68629C6.92389 2.44865 9.77485 0.924807 12.8785 0.307443C15.9822 -0.30992 19.1993 0.0069306 22.123 1.21793C25.0466 2.42893 27.5454 4.47969 29.3035 7.11088C31.0616 9.74206 32 12.8355 32 16C32 20.2435 30.3143 24.3131 27.3137 27.3137C24.3132 30.3143 20.2435 32 16 32C15.3841 32 14.7708 31.9645 14.1632 31.8942ZM26.8847 23.2729C26.6628 23.6049 26.4266 23.9257 26.1768 24.2343L19.4809 17.4547L29.0098 17.4547C28.7779 19.5292 28.0522 21.5256 26.8847 23.2729ZM29.0099 14.5457C28.6817 11.6088 27.3664 8.85309 25.2567 6.74333C23.1435 4.63016 20.3823 3.31405 17.4401 2.9885V14.5457L29.0099 14.5457ZM12.3436 25.6543C11.9526 26.0425 11.3214 26.0414 10.9319 25.6518L9.75994 24.4799V30.1567C9.75994 30.709 9.31222 31.1567 8.75994 31.1567H7.85085C7.29856 31.1567 6.85085 30.709 6.85085 30.1567V24.4803L5.67932 25.6518C5.28977 26.0414 4.65854 26.0425 4.26761 25.6543L3.62133 25.0126C3.22844 24.6225 3.22732 23.9874 3.61882 23.5959L7.59849 19.6163C7.98901 19.2257 8.62217 19.2257 9.0127 19.6163L12.9924 23.5959C13.3839 23.9874 13.3827 24.6225 12.9899 25.0126L12.3436 25.6543Z" fill="#C8CDDC"/>
</svg>
