<svg width="31" height="29" viewBox="0 0 31 29" fill="none" xmlns="http://www.w3.org/2000/svg">
<path fill-rule="evenodd" clip-rule="evenodd" d="M22 1.33341C22 1.33338 22 1.33336 22 1.33333C22 0.596954 22.597 0 23.3333 0C24.0697 0 24.6667 0.596954 24.6667 1.33333C24.6667 1.33336 24.6667 1.33338 24.6667 1.33341C25.7275 1.33341 26.7449 1.75485 27.4951 2.505C28.0072 3.0171 28.3661 3.65376 28.5423 4.34377C28.679 4.87888 28.219 5.33341 27.6667 5.33341H27C26.4833 5.33341 26.0745 4.89155 25.7156 4.50371L25.6422 4.42456C25.6315 4.41307 25.6206 4.40176 25.6095 4.39062C25.3594 4.14057 25.0203 4.00008 24.6667 4.00008H22C21.6464 4.00008 21.3072 4.14057 21.0572 4.39062C20.8071 4.64067 20.6667 4.97979 20.6667 5.33341C20.6667 5.68703 20.8071 6.02615 21.0572 6.2762C21.3072 6.52625 21.6464 6.66674 22 6.66674H24.6667C25.7275 6.66674 26.7449 7.08819 27.4951 7.83833C28.2452 8.58848 28.6667 9.60588 28.6667 10.6667C28.6667 11.7276 28.2452 12.745 27.4951 13.4952C26.7449 14.2453 25.7275 14.6667 24.6667 14.6667C24.6667 15.4031 24.0697 16.0001 23.3333 16.0001C22.597 16.0001 22 15.4031 22 14.6667C20.9391 14.6667 19.9217 14.2453 19.1715 13.4952C18.6594 12.9831 18.3006 12.3464 18.1243 11.6564C17.9877 11.1213 18.4477 10.6667 19 10.6667H19.6667C20.1833 10.6667 20.5921 11.1085 20.9509 11.4964L21.0244 11.5756C21.0351 11.5871 21.046 11.5984 21.0572 11.6095C21.3072 11.8596 21.6464 12.0001 22 12.0001H24.6667C25.0203 12.0001 25.3594 11.8596 25.6095 11.6095C25.8595 11.3595 26 11.0204 26 10.6667C26 10.3131 25.8595 9.974 25.6095 9.72395C25.3594 9.47391 25.0203 9.33341 24.6667 9.33341H22C20.9391 9.33341 19.9217 8.91197 19.1715 8.16182C18.4214 7.41167 18 6.39428 18 5.33341C18 4.27254 18.4214 3.25515 19.1715 2.505C19.9217 1.75485 20.9391 1.33341 22 1.33341ZM4.41202 23.474C4.41202 24.5536 3.53688 25.4287 2.45735 25.4287H1.80581C1.08611 25.4287 0.502686 24.8453 0.502686 24.1256C0.502686 23.4059 1.08611 22.8225 1.8058 22.8225V13.7007C1.08611 13.7007 0.502686 13.1173 0.502686 12.3976C0.502686 11.6779 1.08611 11.0945 1.8058 11.0945H2.45735C3.53688 11.0945 4.41202 11.9696 4.41202 13.0491V23.474ZM15.9537 24.6177C16.43 24.8145 16.9406 24.9151 17.456 24.9138C18.2287 24.9132 18.9839 24.6835 19.6261 24.2539C19.9003 24.0705 20.1487 23.8541 20.3663 23.6109H26.5778C26.9234 23.6109 27.2548 23.7482 27.4992 23.9925C27.7436 24.2369 27.8809 24.5684 27.8809 24.914C27.8809 25.2596 27.7436 25.591 27.4992 25.8354C27.2548 26.0798 26.9234 26.2171 26.5778 26.2171H14.0679L9.2334 21.4868C8.99183 21.2539 8.66976 21.1232 8.33425 21.1219H7.03114C6.31145 21.1219 5.72803 21.7053 5.72803 22.425C5.72803 23.1447 6.31145 23.7281 7.03114 23.7281H7.79993L12.6345 28.4584C12.8793 28.6944 13.2067 28.8253 13.5467 28.8233H26.5778C27.6146 28.8233 28.609 28.4114 29.3421 27.6783C30.0753 26.9451 30.4871 25.9508 30.4871 24.914C30.4871 23.8772 30.0753 22.8828 29.3421 22.1497C28.609 21.4165 27.6146 21.0046 26.5778 21.0046H21.3619C21.3619 20.7501 21.337 20.4949 21.2869 20.2428C21.1364 19.4849 20.7646 18.7886 20.2186 18.2419L15.6577 13.681C15.536 13.5603 15.3915 13.4647 15.2328 13.3998C15.074 13.335 14.904 13.3021 14.7325 13.3031H7.03114C6.31145 13.3031 5.72803 13.8865 5.72803 14.6062C5.72803 15.3259 6.31145 15.9093 7.03114 15.9093H14.1982L18.3682 20.0793C18.4897 20.2 18.5862 20.3433 18.6523 20.5013C18.7184 20.6592 18.7527 20.8287 18.7533 20.9999C18.7539 21.1711 18.7208 21.3408 18.6558 21.4992C18.5908 21.6576 18.4954 21.8017 18.3747 21.9232C18.2541 22.0447 18.1107 22.1412 17.9527 22.2073C17.7948 22.2734 17.6253 22.3077 17.4541 22.3083C17.2829 22.3089 17.1132 22.2758 16.9548 22.2109C16.7964 22.1459 16.6523 22.0504 16.5308 21.9297L15.4948 20.8937C14.9869 20.3858 14.1639 20.3844 13.6542 20.8905C13.1419 21.3991 13.1405 22.2272 13.6509 22.7376L14.6804 23.7671C15.0446 24.1318 15.4773 24.4208 15.9537 24.6177Z" fill="#0792FF"/>
</svg>
