<svg width="34" height="34" viewBox="0 0 34 34" fill="none" xmlns="http://www.w3.org/2000/svg">
<path fill-rule="evenodd" clip-rule="evenodd" d="M16.9997 3.31689C9.53061 3.31689 3.45581 9.43179 3.45581 16.9995C3.45581 24.5672 9.53061 30.6821 16.9997 30.6821C24.4689 30.6821 30.5437 24.5672 30.5437 16.9995C30.5437 9.43179 24.4689 3.31689 16.9997 3.31689ZM0.955811 16.9995C0.955811 8.07312 8.12795 0.816895 16.9997 0.816895C25.8715 0.816895 33.0437 8.07312 33.0437 16.9995C33.0437 25.9259 25.8715 33.1821 16.9997 33.1821C8.12795 33.1821 0.955811 25.9259 0.955811 16.9995ZM12.3663 25.6742C13.8413 26.1511 15.4151 26.3945 16.9998 26.3945C18.5844 26.3945 20.1582 26.1511 21.6332 25.6742C23.1079 25.1973 24.4644 24.4933 25.6198 23.5913C26.2873 23.0702 26.8817 22.4878 27.3898 21.8534C27.8213 21.3146 27.7343 20.5279 27.1955 20.0963C26.6566 19.6648 25.87 19.7518 25.4384 20.2906C25.2936 20.4715 25.138 20.6483 24.972 20.8206C24.9045 18.7583 23.2114 17.1072 21.1326 17.1072C19.0111 17.1072 17.2912 18.827 17.2912 20.9486L17.2911 22.7977C17.2911 22.8415 17.2703 22.8827 17.235 22.9086L15.9512 23.852C14.9818 23.7732 14.033 23.5856 13.1355 23.2954C11.9161 22.9011 10.8246 22.3283 9.91807 21.6206C9.39518 21.2125 8.9413 20.7653 8.56111 20.2906C8.12956 19.7518 7.34289 19.6648 6.80405 20.0963C6.26521 20.5279 6.17823 21.3146 6.60979 21.8534C7.11784 22.4878 7.71224 23.0702 8.37972 23.5913C9.53514 24.4933 10.8916 25.1973 12.3663 25.6742ZM19.6608 23.6165C20.07 23.5294 20.4719 23.4222 20.8641 23.2954C21.4302 23.1123 21.9688 22.8908 22.4741 22.6351V20.9487C22.4741 20.2078 21.8735 19.6072 21.1326 19.6072C20.3918 19.6072 19.7912 20.2078 19.7912 20.9486L19.7911 22.7977C19.7911 23.0794 19.7461 23.3553 19.6608 23.6165ZM10.1804 14.715C10.1804 13.8949 10.836 13.25 11.6202 13.25C12.4044 13.25 13.06 13.8949 13.06 14.715C13.06 15.4054 13.6197 15.965 14.31 15.965C15.0004 15.965 15.56 15.4054 15.56 14.715C15.56 12.5362 13.8071 10.75 11.6202 10.75C9.43336 10.75 7.68042 12.5362 7.68042 14.715C7.68042 15.4054 8.24006 15.965 8.93042 15.965C9.62078 15.965 10.1804 15.4054 10.1804 14.715ZM22.3793 13.25C21.595 13.25 20.9395 13.8949 20.9395 14.715C20.9395 15.4054 20.3798 15.965 19.6895 15.965C18.9991 15.965 18.4395 15.4054 18.4395 14.715C18.4395 12.5362 20.1924 10.75 22.3793 10.75C24.5661 10.75 26.3191 12.5362 26.3191 14.715C26.3191 15.4054 25.7594 15.965 25.0691 15.965C24.3787 15.965 23.8191 15.4054 23.8191 14.715C23.8191 13.8949 23.1635 13.25 22.3793 13.25Z" fill="#C8CDDC"/>
</svg>
