<svg width="20" height="20" viewBox="0 0 20 20" fill="none" xmlns="http://www.w3.org/2000/svg">
<path fill-rule="evenodd" clip-rule="evenodd" d="M0 10C0 4.477 4.477 0 10 0C15.523 0 20 4.477 20 10C20 15.523 15.523 20 10 20C4.477 20 0 15.523 0 10ZM10 11C9.73478 11 9.48043 10.8946 9.29289 10.7071C9.10536 10.5196 9 10.2652 9 10V6C9 5.73478 9.10536 5.48043 9.29289 5.29289C9.48043 5.10536 9.73478 5 10 5C10.2652 5 10.5196 5.10536 10.7071 5.29289C10.8946 5.48043 11 5.73478 11 6V10C11 10.2652 10.8946 10.5196 10.7071 10.7071C10.5196 10.8946 10.2652 11 10 11ZM8.5 14C8.5 13.6022 8.65804 13.2206 8.93934 12.9393C9.22064 12.658 9.60218 12.5 10 12.5H10.01C10.4078 12.5 10.7894 12.658 11.0707 12.9393C11.352 13.2206 11.51 13.6022 11.51 14V14.01C11.51 14.4078 11.352 14.7894 11.0707 15.0707C10.7894 15.352 10.4078 15.51 10.01 15.51H10C9.60218 15.51 9.22064 15.352 8.93934 15.0707C8.65804 14.7894 8.5 14.4078 8.5 14.01V14Z" fill="#FF4242"/>
</svg>
