<svg width="80" height="80" viewBox="0 0 80 80" fill="none" xmlns="http://www.w3.org/2000/svg">
<rect width="80" height="80" rx="23" fill="#EAF4FF"/>
<g filter="url(#filter0_d_2161_361)">
<path fill-rule="evenodd" clip-rule="evenodd" d="M43.2871 26.186C42.3052 25.6322 41.2048 25.342 40.0866 25.342C38.9683 25.342 37.8679 25.6322 36.8861 26.186L26.1993 32.2132C25.1449 32.8085 24.2649 33.6866 23.6519 34.7554C23.0389 35.8241 22.7156 37.0439 22.7158 38.2866V49.6725C22.7156 50.9152 23.0389 52.135 23.6519 53.2038C24.2649 54.2725 25.1449 55.1506 26.1993 55.7459L36.8861 61.7732C37.8679 62.3269 38.9683 62.6171 40.0866 62.6171C41.2048 62.6171 42.3052 62.3269 43.2871 61.7732L53.9716 55.7459C55.0265 55.1509 55.9069 54.2729 56.5203 53.2042C57.1337 52.1354 57.4574 50.9155 57.4574 49.6725V38.2843C57.4574 37.0414 57.1337 35.8214 56.5203 34.7527C55.9069 33.6839 55.0265 32.8059 53.9716 32.2109L43.2871 26.186ZM40.0866 37.0623C39.4536 37.0623 39.0302 37.8462 38.1833 39.4211L37.9648 39.8269C37.7241 40.2742 37.6038 40.4956 37.4166 40.6431C37.2271 40.7907 36.9931 40.846 36.5251 40.9544L36.1016 41.0559C34.4568 41.4409 33.6344 41.6323 33.4383 42.2825C33.2421 42.9351 33.8038 43.613 34.9248 44.9687L35.2146 45.3192C35.5333 45.7043 35.6937 45.8957 35.7651 46.1355C35.8364 46.3753 35.8119 46.6312 35.7651 47.1454L35.7205 47.6135C35.5511 49.4235 35.4664 50.3296 35.9768 50.7309C36.4894 51.1321 37.2606 50.7654 38.8006 50.0322L39.1973 49.8431C39.6364 49.6356 39.8548 49.5319 40.0866 49.5319C40.3184 49.5319 40.5368 49.6356 40.9759 49.8431L41.3726 50.0322C42.9126 50.7677 43.6838 51.1321 44.1964 50.7309C44.709 50.3296 44.6221 49.4235 44.4527 47.6135L44.4081 47.1454C44.3613 46.6312 44.3368 46.3753 44.4081 46.1355C44.4794 45.898 44.6399 45.7043 44.9586 45.3192L45.2484 44.9687C46.3694 43.613 46.9311 42.9351 46.7349 42.2825C46.5388 41.6323 45.7164 41.4409 44.0716 41.0559L43.6481 40.9544C43.1801 40.846 42.9461 40.793 42.7566 40.6431C42.5694 40.4956 42.4491 40.2742 42.2084 39.8269L41.9899 39.4211C41.143 37.8485 40.7196 37.0623 40.0866 37.0623Z" fill="#0792FF"/>
<path d="M37.8579 17.4634H42.3154C46.5188 17.4634 48.6183 17.4634 49.9243 18.8146C51.2303 20.1657 51.2303 22.3378 51.2303 26.6864V26.7279L44.8873 23.1494C43.4146 22.3187 41.764 21.8835 40.0866 21.8835C38.4093 21.8835 36.7587 22.3187 35.2859 23.1494L28.9429 26.7279V26.6864C28.9429 22.3378 28.9429 20.1657 30.249 18.8146C31.555 17.4634 33.6545 17.4634 37.8579 17.4634Z" fill="#0792FF"/>
</g>
<defs>
<filter id="filter0_d_2161_361" x="9.37085" y="12.5887" width="61.4314" height="63.0015" filterUnits="userSpaceOnUse" color-interpolation-filters="sRGB">
<feFlood flood-opacity="0" result="BackgroundImageFix"/>
<feColorMatrix in="SourceAlpha" type="matrix" values="0 0 0 0 0 0 0 0 0 0 0 0 0 0 0 0 0 0 127 0" result="hardAlpha"/>
<feOffset dy="4"/>
<feGaussianBlur stdDeviation="4"/>
<feComposite in2="hardAlpha" operator="out"/>
<feColorMatrix type="matrix" values="0 0 0 0 0.027451 0 0 0 0 0.572549 0 0 0 0 1 0 0 0 0.25 0"/>
<feBlend mode="normal" in2="BackgroundImageFix" result="effect1_dropShadow_2161_361"/>
<feBlend mode="normal" in="SourceGraphic" in2="effect1_dropShadow_2161_361" result="shape"/>
</filter>
</defs>
</svg>
