<svg width="80" height="80" viewBox="0 0 80 80" fill="none" xmlns="http://www.w3.org/2000/svg">
<rect width="80" height="80" rx="23" fill="#EAF4FF"/>
<g filter="url(#filter0_d_2161_376)">
<path d="M28.0111 45.9661C27.6125 44.2477 27.4121 42.4903 27.4137 40.7274C27.4137 31.6319 32.669 23.856 40.0856 20.736C47.5059 23.856 52.7575 31.6319 52.7575 40.7291C52.7575 42.535 52.5511 44.289 52.1601 45.9661L55.8168 49.1756C55.9747 49.3139 56.0786 49.5024 56.1107 49.7084C56.1427 49.9144 56.1009 50.125 55.9924 50.3038L51.5446 57.6273C51.4738 57.7437 51.377 57.8426 51.2617 57.9165C51.1464 57.9905 51.0156 58.0375 50.8792 58.054C50.7427 58.0706 50.6042 58.0562 50.4743 58.012C50.3443 57.9678 50.2262 57.895 50.129 57.799L46.0468 53.7689C45.7074 53.4335 45.247 53.2451 44.767 53.245H35.4061C34.926 53.2451 34.4656 53.4335 34.1262 53.7689L30.0441 57.799C29.9468 57.895 29.8288 57.9678 29.6988 58.012C29.5688 58.0562 29.4303 58.0706 29.2939 58.054C29.1574 58.0375 29.0266 57.9905 28.9113 57.9165C28.796 57.8426 28.6993 57.7437 28.6284 57.6273L24.1806 50.3038C24.0724 50.1254 24.0306 49.9153 24.0623 49.7097C24.094 49.5041 24.1973 49.3158 24.3544 49.1774L28.0111 45.9661ZM40.0856 40.7274C41.0458 40.7274 41.9667 40.3506 42.6457 39.68C43.3247 39.0094 43.7061 38.0998 43.7061 37.1514C43.7061 36.203 43.3247 35.2934 42.6457 34.6228C41.9667 33.9522 41.0458 33.5754 40.0856 33.5754C39.1254 33.5754 38.2045 33.9522 37.5255 34.6228C36.8465 35.2934 36.4651 36.203 36.4651 37.1514C36.4651 38.0998 36.8465 39.0094 37.5255 39.68C38.2045 40.3506 39.1254 40.7274 40.0856 40.7274Z" fill="#0792FF"/>
</g>
<defs>
<filter id="filter0_d_2161_376" x="16.0519" y="16.736" width="48.0692" height="53.3247" filterUnits="userSpaceOnUse" color-interpolation-filters="sRGB">
<feFlood flood-opacity="0" result="BackgroundImageFix"/>
<feColorMatrix in="SourceAlpha" type="matrix" values="0 0 0 0 0 0 0 0 0 0 0 0 0 0 0 0 0 0 127 0" result="hardAlpha"/>
<feOffset dy="4"/>
<feGaussianBlur stdDeviation="4"/>
<feComposite in2="hardAlpha" operator="out"/>
<feColorMatrix type="matrix" values="0 0 0 0 0.027451 0 0 0 0 0.572549 0 0 0 0 1 0 0 0 0.25 0"/>
<feBlend mode="normal" in2="BackgroundImageFix" result="effect1_dropShadow_2161_376"/>
<feBlend mode="normal" in="SourceGraphic" in2="effect1_dropShadow_2161_376" result="shape"/>
</filter>
</defs>
</svg>
