<svg width="80" height="80" viewBox="0 0 80 80" fill="none" xmlns="http://www.w3.org/2000/svg">
<rect width="80" height="80" rx="23" fill="#EAF4FF"/>
<g filter="url(#filter0_d_2161_368)">
<path fill-rule="evenodd" clip-rule="evenodd" d="M18.7071 30.1363C18.7071 29.4763 18.9573 28.8434 19.4028 28.3768C19.8483 27.9101 20.4525 27.6479 21.0826 27.6479H59.0905C59.7206 27.6479 60.3248 27.9101 60.7703 28.3768C61.2158 28.8434 61.466 29.4763 61.466 30.1363V50.0428C61.466 50.7027 61.2158 51.3356 60.7703 51.8023C60.3248 52.2689 59.7206 52.5311 59.0905 52.5311H21.0826C20.4525 52.5311 19.8483 52.2689 19.4028 51.8023C18.9573 51.3356 18.7071 50.7027 18.7071 50.0428V30.1363ZM47.213 40.0895C47.213 42.0694 46.4622 43.9681 45.1257 45.368C43.7893 46.768 41.9766 47.5545 40.0865 47.5545C38.1965 47.5545 36.3838 46.768 35.0473 45.368C33.7109 43.9681 32.96 42.0694 32.96 40.0895C32.96 38.1097 33.7109 36.211 35.0473 34.811C36.3838 33.4111 38.1965 32.6246 40.0865 32.6246C41.9766 32.6246 43.7893 33.4111 45.1257 34.811C46.4622 36.211 47.213 38.1097 47.213 40.0895ZM25.8336 42.5778C26.4636 42.5778 27.0678 42.3157 27.5133 41.849C27.9588 41.3824 28.2091 40.7495 28.2091 40.0895C28.2091 39.4296 27.9588 38.7967 27.5133 38.33C27.0678 37.8634 26.4636 37.6012 25.8336 37.6012C25.2035 37.6012 24.5993 37.8634 24.1538 38.33C23.7083 38.7967 23.4581 39.4296 23.4581 40.0895C23.4581 40.7495 23.7083 41.3824 24.1538 41.849C24.5993 42.3157 25.2035 42.5778 25.8336 42.5778ZM56.715 40.0895C56.715 40.7495 56.4648 41.3824 56.0193 41.849C55.5738 42.3157 54.9696 42.5778 54.3395 42.5778C53.7095 42.5778 53.1053 42.3157 52.6598 41.849C52.2143 41.3824 51.964 40.7495 51.964 40.0895C51.964 39.4296 52.2143 38.7967 52.6598 38.33C53.1053 37.8634 53.7095 37.6012 54.3395 37.6012C54.9696 37.6012 55.5738 37.8634 56.0193 38.33C56.4648 38.7967 56.715 39.4296 56.715 40.0895Z" fill="#0792FF"/>
<path d="M39.1653 34.6068C39.2631 34.5757 39.3652 34.5599 39.4679 34.5599H40.4228C40.975 34.5599 41.4228 35.0077 41.4228 35.5599V44.6191C41.4228 45.1714 40.975 45.6191 40.4228 45.6191H39.9965C39.4442 45.6191 38.9965 45.1714 38.9965 44.6191V36.8666L37.5856 37.2219C37.074 37.3508 36.5478 37.0524 36.3867 36.55C36.2177 36.023 36.5063 35.4509 37.0338 35.2834L39.1653 34.6068Z" fill="#0792FF"/>
</g>
<defs>
<filter id="filter0_d_2161_368" x="10.7071" y="23.6479" width="58.759" height="40.8832" filterUnits="userSpaceOnUse" color-interpolation-filters="sRGB">
<feFlood flood-opacity="0" result="BackgroundImageFix"/>
<feColorMatrix in="SourceAlpha" type="matrix" values="0 0 0 0 0 0 0 0 0 0 0 0 0 0 0 0 0 0 127 0" result="hardAlpha"/>
<feOffset dy="4"/>
<feGaussianBlur stdDeviation="4"/>
<feComposite in2="hardAlpha" operator="out"/>
<feColorMatrix type="matrix" values="0 0 0 0 0.027451 0 0 0 0 0.572549 0 0 0 0 1 0 0 0 0.25 0"/>
<feBlend mode="normal" in2="BackgroundImageFix" result="effect1_dropShadow_2161_368"/>
<feBlend mode="normal" in="SourceGraphic" in2="effect1_dropShadow_2161_368" result="shape"/>
</filter>
</defs>
</svg>
