<svg width="80" height="80" viewBox="0 0 80 80" fill="none" xmlns="http://www.w3.org/2000/svg">
<g id="icon-choice">
<rect width="80" height="80" rx="21" fill="#EAF4FF"/>
<g id="Vector" filter="url(#filter0_d_8905_453)">
<path d="M45.4246 33.4363C44.2641 28.076 41.7889 24.6848 39.4997 24.6848C37.2105 24.6848 34.7354 28.076 33.5748 33.4363H45.4246Z" fill="#0792FF"/>
<path d="M32.8994 40C32.8991 41.4635 32.9972 42.9253 33.1931 44.3758H45.8064C46.0022 42.9253 46.1003 41.4635 46.1001 40C46.1003 38.5365 46.0022 37.0747 45.8064 35.6242H33.1931C32.9972 37.0747 32.8991 38.5365 32.8994 40Z" fill="#0792FF"/>
<path d="M33.5748 46.5637C34.7354 51.924 37.2105 55.3152 39.4997 55.3152C41.7889 55.3152 44.2641 51.924 45.4246 46.5637H33.5748Z" fill="#0792FF"/>
<path d="M47.6776 33.4363H54.6079C53.5666 31.0797 51.9844 28.9986 49.9883 27.3599C47.9921 25.7211 45.6375 24.5704 43.1134 24C45.2002 25.8258 46.8371 29.2017 47.6776 33.4363Z" fill="#0792FF"/>
<path d="M55.3989 35.6242H48.0285C48.21 37.0758 48.3007 38.5372 48.3002 40C48.3003 41.4628 48.2092 42.9242 48.0274 44.3758H55.3978C56.2 41.5131 56.2011 38.4869 55.3989 35.6242Z" fill="#0792FF"/>
<path d="M43.1134 56C45.6379 55.4299 47.993 54.2793 49.9895 52.6406C51.9861 51.0018 53.5686 48.9205 54.6101 46.5637H47.6798C46.8371 50.7983 45.2002 54.1742 43.1134 56Z" fill="#0792FF"/>
<path d="M31.3219 46.5637H24.3915C25.433 48.9205 27.0156 51.0018 29.0121 52.6406C31.0087 54.2793 33.3637 55.4299 35.8882 56C33.7992 54.1742 32.1623 50.7983 31.3219 46.5637Z" fill="#0792FF"/>
<path d="M35.886 24C33.3615 24.5701 31.0065 25.7207 29.0099 27.3594C27.0134 28.9982 25.4308 31.0795 24.3893 33.4363H31.3197C32.1623 29.2017 33.7992 25.8258 35.886 24Z" fill="#0792FF"/>
<path d="M30.6993 40C30.6991 38.5372 30.7902 37.0758 30.9721 35.6242H23.6017C22.7994 38.4869 22.7994 41.5131 23.6017 44.3758H30.9721C30.7902 42.9242 30.6991 41.4628 30.6993 40Z" fill="#0792FF"/>
</g>
</g>
<defs>
<filter id="filter0_d_8905_453" x="15" y="20" width="49" height="48" filterUnits="userSpaceOnUse" color-interpolation-filters="sRGB">
<feFlood flood-opacity="0" result="BackgroundImageFix"/>
<feColorMatrix in="SourceAlpha" type="matrix" values="0 0 0 0 0 0 0 0 0 0 0 0 0 0 0 0 0 0 127 0" result="hardAlpha"/>
<feOffset dy="4"/>
<feGaussianBlur stdDeviation="4"/>
<feComposite in2="hardAlpha" operator="out"/>
<feColorMatrix type="matrix" values="0 0 0 0 0.027451 0 0 0 0 0.572549 0 0 0 0 1 0 0 0 0.25 0"/>
<feBlend mode="normal" in2="BackgroundImageFix" result="effect1_dropShadow_8905_453"/>
<feBlend mode="normal" in="SourceGraphic" in2="effect1_dropShadow_8905_453" result="shape"/>
</filter>
</defs>
</svg>
