<svg width="80" height="80" viewBox="0 0 80 80" fill="none" xmlns="http://www.w3.org/2000/svg">
<g id="icon-choice">
<rect width="80" height="80" rx="21" fill="#EAF4FF"/>
<g id="Vector" filter="url(#filter0_d_8905_451)">
<path d="M30.1569 28.4583L26.7598 25.0613C26.2906 24.5921 25.5305 24.5921 25.0613 25.0613C24.5921 25.5305 24.5921 26.2906 25.0613 26.7598L28.4583 30.1569C28.9275 30.6261 29.6877 30.6261 30.1569 30.1569C30.6261 29.6877 30.6261 28.9275 30.1569 28.4583Z" fill="#0792FF"/>
<path d="M25.0859 38.2988H20.2012C19.5372 38.2988 19 38.8361 19 39.5C19 40.1639 19.5372 40.7012 20.2012 40.7012H25.0859C25.7499 40.7012 26.2871 40.1639 26.2871 39.5C26.2871 38.8361 25.7499 38.2988 25.0859 38.2988Z" fill="#0792FF"/>
<path d="M58.7988 38.2988H53.9141C53.2501 38.2988 52.7129 38.8361 52.7129 39.5C52.7129 40.1639 53.2501 40.7012 53.9141 40.7012H58.7988C59.4628 40.7012 60 40.1639 60 39.5C60 38.8361 59.4628 38.2988 58.7988 38.2988Z" fill="#0792FF"/>
<path d="M53.9387 25.0613C53.4696 24.5921 52.7094 24.5921 52.2402 25.0613L48.8431 28.4583C48.3739 28.9275 48.3739 29.6877 48.8431 30.1569C49.3123 30.6261 50.0725 30.6261 50.5417 30.1569L53.9387 26.7598C54.4079 26.2906 54.4079 25.5305 53.9387 25.0613Z" fill="#0792FF"/>
<path d="M39.5 19C38.8361 19 38.2988 19.5372 38.2988 20.2012V25.0859C38.2988 25.7499 38.8361 26.2871 39.5 26.2871C40.1639 26.2871 40.7012 25.7499 40.7012 25.0859V20.2012C40.7012 19.5372 40.1639 19 39.5 19Z" fill="#0792FF"/>
<path d="M46.2266 31.0196C43.6081 28.9536 40.2207 28.209 36.9055 29.0018C33.0617 29.8906 29.9628 32.9415 29.0258 36.7613C28.0889 40.605 29.1699 44.4968 31.9325 47.2114C32.9176 48.1965 33.4941 49.7419 33.4941 51.3275V51.5918C33.4941 52.2644 34.0226 52.793 34.6953 52.793H44.3047C44.9774 52.793 45.5059 52.2644 45.5059 51.5918V51.3275C45.5059 49.7659 46.1064 48.1724 47.1635 47.1394C49.1815 45.0974 50.3105 42.3828 50.3105 39.5C50.3105 36.1848 48.8211 33.0857 46.2266 31.0196ZM39.5 35.8965C37.6878 35.8965 36.3686 37.0985 36.0232 38.4901C35.866 39.1229 35.2292 39.5268 34.5674 39.3675C33.9246 39.208 33.5316 38.5557 33.6912 37.9129C34.2864 35.5106 36.5428 33.4941 39.5 33.4941C40.1639 33.4941 40.7012 34.0314 40.7012 34.6953C40.7012 35.3592 40.1639 35.8965 39.5 35.8965Z" fill="#0792FF"/>
<path d="M34.6953 55.1953V56.3965C34.6953 58.3835 36.3118 60 38.2988 60H40.7012C42.6882 60 44.3047 58.3835 44.3047 56.3965V55.1953H34.6953Z" fill="#0792FF"/>
</g>
</g>
<defs>
<filter id="filter0_d_8905_451" x="11" y="15" width="57" height="57" filterUnits="userSpaceOnUse" color-interpolation-filters="sRGB">
<feFlood flood-opacity="0" result="BackgroundImageFix"/>
<feColorMatrix in="SourceAlpha" type="matrix" values="0 0 0 0 0 0 0 0 0 0 0 0 0 0 0 0 0 0 127 0" result="hardAlpha"/>
<feOffset dy="4"/>
<feGaussianBlur stdDeviation="4"/>
<feComposite in2="hardAlpha" operator="out"/>
<feColorMatrix type="matrix" values="0 0 0 0 0.027451 0 0 0 0 0.572549 0 0 0 0 1 0 0 0 0.25 0"/>
<feBlend mode="normal" in2="BackgroundImageFix" result="effect1_dropShadow_8905_451"/>
<feBlend mode="normal" in="SourceGraphic" in2="effect1_dropShadow_8905_451" result="shape"/>
</filter>
</defs>
</svg>
