<svg width="60" height="58" viewBox="0 0 60 58" fill="none" xmlns="http://www.w3.org/2000/svg">
<rect width="59.8705" height="57.8705" rx="21" fill="#EAF4FF"/>
<g filter="url(#filter0_d_7953_106)">
<path d="M34.2 30.8C36.0565 30.8 37.837 31.5375 39.1497 32.8503C40.4625 34.163 41.2 35.9435 41.2 37.8V39.2C41.2 39.9426 40.905 40.6548 40.3799 41.1799C39.8548 41.705 39.1426 42 38.4 42H18.8C18.0574 42 17.3452 41.705 16.8201 41.1799C16.295 40.6548 16 39.9426 16 39.2V37.8C16 35.9435 16.7375 34.163 18.0503 32.8503C19.363 31.5375 21.1435 30.8 23 30.8H34.2ZM39.8 22.4C40.1713 22.4 40.5274 22.5475 40.7899 22.8101C41.0525 23.0726 41.2 23.4287 41.2 23.8V25.2H42.6C42.9713 25.2 43.3274 25.3475 43.59 25.6101C43.8525 25.8726 44 26.2287 44 26.6C44 26.9713 43.8525 27.3274 43.59 27.5899C43.3274 27.8525 42.9713 28 42.6 28H41.2V29.4C41.2 29.7713 41.0525 30.1274 40.7899 30.3899C40.5274 30.6525 40.1713 30.8 39.8 30.8C39.4287 30.8 39.0726 30.6525 38.81 30.3899C38.5475 30.1274 38.4 29.7713 38.4 29.4V28H37C36.6287 28 36.2726 27.8525 36.01 27.5899C35.7475 27.3274 35.6 26.9713 35.6 26.6C35.6 26.2287 35.7475 25.8726 36.01 25.6101C36.2726 25.3475 36.6287 25.2 37 25.2H38.4V23.8C38.4 23.4287 38.5475 23.0726 38.81 22.8101C39.0726 22.5475 39.4287 22.4 39.8 22.4ZM28.6 14C30.4565 14 32.237 14.7375 33.5497 16.0503C34.8625 17.363 35.6 19.1435 35.6 21C35.6 22.8565 34.8625 24.637 33.5497 25.9497C32.237 27.2625 30.4565 28 28.6 28C26.7435 28 24.963 27.2625 23.6503 25.9497C22.3375 24.637 21.6 22.8565 21.6 21C21.6 19.1435 22.3375 17.363 23.6503 16.0503C24.963 14.7375 26.7435 14 28.6 14Z" fill="#0792FF"/>
</g>
<defs>
<filter id="filter0_d_7953_106" x="8" y="10" width="44" height="44" filterUnits="userSpaceOnUse" color-interpolation-filters="sRGB">
<feFlood flood-opacity="0" result="BackgroundImageFix"/>
<feColorMatrix in="SourceAlpha" type="matrix" values="0 0 0 0 0 0 0 0 0 0 0 0 0 0 0 0 0 0 127 0" result="hardAlpha"/>
<feOffset dy="4"/>
<feGaussianBlur stdDeviation="4"/>
<feComposite in2="hardAlpha" operator="out"/>
<feColorMatrix type="matrix" values="0 0 0 0 0.027451 0 0 0 0 0.572549 0 0 0 0 1 0 0 0 0.25 0"/>
<feBlend mode="normal" in2="BackgroundImageFix" result="effect1_dropShadow_7953_106"/>
<feBlend mode="normal" in="SourceGraphic" in2="effect1_dropShadow_7953_106" result="shape"/>
</filter>
</defs>
</svg>
