<svg width="60" height="61" viewBox="0 0 60 61" fill="none" xmlns="http://www.w3.org/2000/svg">
<rect y="0.805695" width="60" height="60" rx="21" fill="#EAF4FF"/>
<g filter="url(#filter0_d_2404_155)">
<path d="M29.5651 14.9713C29.057 15.0713 28.4889 15.5474 28.2009 16.1195L28.0369 16.4475V19.6841V22.9207L26.6086 22.9367L25.1764 22.9487L24.9083 23.0767C24.5802 23.2327 24.3282 23.4568 24.1722 23.7368C24.0642 23.9368 24.0562 23.9769 24.0562 24.4089C24.0562 24.957 24.0522 24.949 24.5482 25.5571C25.2604 26.4213 28.0689 29.5298 28.777 30.23C29.3731 30.8261 29.4931 30.8901 29.9812 30.8901C30.5333 30.8901 30.6413 30.8261 31.4375 30.0179C32.2536 29.1938 34.39 26.8254 35.4542 25.5691C35.9223 25.021 35.9783 24.897 35.9783 24.4089C35.9783 24.1009 35.9623 23.9929 35.8903 23.8368C35.7782 23.5928 35.3982 23.1967 35.1781 23.0887C34.9381 22.9727 34.398 22.9327 33.1298 22.9287H32.0376L32.0336 20.8163C32.0336 18.4199 31.9856 16.6916 31.9175 16.3675C31.8455 16.0394 31.7415 15.8714 31.4255 15.5514C31.0694 15.1913 30.7533 15.0273 30.3053 14.9673C29.9492 14.9232 29.8092 14.9232 29.5651 14.9713Z" fill="#0792FF"/>
<path d="M18.8752 29.0497C18.051 29.1137 17.1709 29.3098 16.3947 29.5978C15.0145 30.1139 14.0903 30.9901 14.0063 31.8622C13.9583 32.4063 14.1824 32.8904 14.7225 33.3905C15.4146 34.0346 16.6828 34.5867 17.975 34.8107C18.9512 34.9788 20.5275 35.0148 21.5357 34.8868C22.1358 34.8107 22.1398 34.8067 22.4158 34.3467C22.5478 34.1226 22.7359 33.8346 22.8359 33.7065C23.1119 33.3385 23.62 32.8664 24.0441 32.5823C24.4202 32.3303 25.1923 31.9222 25.6484 31.7342C25.9204 31.6222 25.9284 31.5782 25.7564 31.2541C25.1963 30.2059 23.692 29.4298 21.5957 29.1097C21.1036 29.0337 19.5113 28.9977 18.8752 29.0497Z" fill="#0792FF"/>
<path d="M28.857 33.0545C27.1287 33.1705 25.3644 33.8706 24.5682 34.7508C24.4482 34.8828 24.2842 35.1228 24.2042 35.2869C24.0642 35.5709 24.0562 35.6069 24.0562 35.991C24.0562 36.355 24.0682 36.4151 24.1802 36.6511C24.4602 37.2352 24.9803 37.6993 25.8165 38.1114C26.6766 38.5314 27.8048 38.8315 28.929 38.9355C29.5851 38.9955 31.0654 38.9595 31.6375 38.8715C32.6177 38.7195 33.4498 38.4794 34.1499 38.1514C35.6782 37.4272 36.3343 36.267 35.7902 35.2389C35.6182 34.9188 35.1541 34.4507 34.706 34.1547C33.4018 33.2865 31.2694 32.8864 28.857 33.0545Z" fill="#0792FF"/>
<path d="M38.9349 33.0505C38.3668 33.0905 36.9985 33.3585 36.9985 33.4305C36.9985 33.4425 37.0986 33.5905 37.2226 33.7586C37.6587 34.3667 37.8747 34.9068 37.9627 35.6029C38.0467 36.279 37.9267 36.9151 37.5706 37.6993L37.4266 38.0153L37.5146 38.2034C37.6907 38.5754 37.8467 38.7715 38.0067 38.8115C38.5548 38.9635 40.3831 39.0195 41.2793 38.9115C43.5917 38.6394 45.344 37.7713 45.8641 36.6351C45.9601 36.4231 45.9681 36.375 45.9561 35.959C45.9401 35.5629 45.9281 35.4829 45.8241 35.2748C45.6681 34.9588 45.192 34.4627 44.7759 34.1867C43.4357 33.2945 41.3513 32.8904 38.9349 33.0505Z" fill="#0792FF"/>
<path d="M14.2824 35.0588C14.0744 35.3228 13.9544 35.8989 14.0264 36.275C14.2584 37.4392 15.7107 38.3674 18.0151 38.8154C18.9472 38.9995 20.9556 39.0075 21.8798 38.8314L22.2238 38.7634L22.3919 38.4154C22.4799 38.2273 22.5559 38.0393 22.5559 38.0073C22.5559 37.9713 22.4839 37.7913 22.3999 37.6072C22.3118 37.4232 22.2118 37.1672 22.1758 37.0391C22.1078 36.8071 22.1078 36.8031 21.9838 36.8271C21.4317 36.9271 20.5475 36.9791 19.7354 36.9591C18.5832 36.9311 17.671 36.7911 16.7789 36.503C15.8107 36.191 15.2346 35.8789 14.6905 35.3588C14.4144 35.0988 14.3144 35.0228 14.2824 35.0588Z" fill="#0792FF"/>
<path d="M24.1921 39.2675C23.448 40.8598 25.2043 42.3761 28.3569 42.8721C28.997 42.9762 30.5173 42.9962 31.2134 42.9162C33.2337 42.6841 34.91 41.972 35.5942 41.0638C35.8742 40.6918 35.9662 40.4317 35.9662 40.0316C35.9702 39.6636 35.9142 39.4235 35.7742 39.1835L35.6742 39.0115L35.4261 39.2635C34.79 39.9116 33.7338 40.4317 32.4976 40.7118C31.6415 40.9038 31.1774 40.9478 30.0172 40.9478C28.889 40.9478 28.4449 40.9078 27.6047 40.7278C26.3245 40.4517 25.2003 39.9076 24.6002 39.2715C24.4882 39.1555 24.3762 39.0435 24.3562 39.0315C24.3322 39.0155 24.2601 39.1235 24.1921 39.2675Z" fill="#0792FF"/>
<path d="M45.48 39.2195C44.8719 39.9277 43.4677 40.5638 41.9354 40.8278C41.0433 40.9838 39.427 41.0079 38.4508 40.8878C38.2228 40.8598 38.0347 40.8438 38.0227 40.8558C38.0147 40.8638 37.9947 41.3079 37.9787 41.84C37.9547 42.7562 37.9547 42.8042 38.0267 42.8282C38.2268 42.8882 39.359 42.9722 40.0071 42.9722C43.3277 42.9722 46.0041 41.64 46.0001 39.9917C46.0001 39.6716 45.8881 39.3236 45.7201 39.1035L45.6561 39.0195L45.48 39.2195Z" fill="#0792FF"/>
<path d="M14.1584 39.2596C14.0263 39.5356 13.9783 39.9357 14.0303 40.2597C14.1024 40.7038 14.3224 41.0519 14.7825 41.464C15.0705 41.716 15.3746 41.908 15.8947 42.1561C17.0989 42.7322 18.2431 42.9482 20.1154 42.9482C21.0956 42.9522 21.5637 42.9122 21.9077 42.8082L22.0358 42.7642V41.812C22.0358 41.2879 22.0238 40.8478 22.0078 40.8398C21.9878 40.8318 21.8037 40.8478 21.5957 40.8758C21.3876 40.9079 20.8195 40.9399 20.3355 40.9559C18.9632 40.9959 17.823 40.8438 16.6948 40.4718C15.8347 40.1917 15.2426 39.8637 14.6785 39.3556C14.5184 39.2116 14.3504 39.0915 14.3144 39.0915C14.2664 39.0915 14.2104 39.1555 14.1584 39.2596Z" fill="#0792FF"/>
<path d="M24.1802 43.2923C23.9602 43.7844 23.9642 44.2484 24.2002 44.7325C24.3802 45.1006 24.9363 45.6447 25.4164 45.9167C26.3566 46.4448 27.4688 46.7889 28.617 46.8969C29.2371 46.9569 31.0334 46.9569 31.4975 46.8969C32.6737 46.7409 33.7819 46.3888 34.606 45.9047C35.0701 45.6327 35.6342 45.0806 35.7982 44.7285C35.9583 44.3805 36.0103 44.0684 35.9543 43.7324C35.9143 43.4723 35.7502 43.0522 35.6902 43.0522C35.6742 43.0522 35.5382 43.1643 35.3942 43.3043C34.202 44.4365 32.0616 45.0486 29.5971 44.9566C27.3808 44.8726 25.6965 44.3205 24.6723 43.3443C24.5042 43.1843 24.3482 43.0522 24.3282 43.0522C24.3042 43.0522 24.2402 43.1603 24.1802 43.2923Z" fill="#0792FF"/>
</g>
<defs>
<filter id="filter0_d_2404_155" x="6" y="10.9347" width="48.0002" height="48.0072" filterUnits="userSpaceOnUse" color-interpolation-filters="sRGB">
<feFlood flood-opacity="0" result="BackgroundImageFix"/>
<feColorMatrix in="SourceAlpha" type="matrix" values="0 0 0 0 0 0 0 0 0 0 0 0 0 0 0 0 0 0 127 0" result="hardAlpha"/>
<feOffset dy="4"/>
<feGaussianBlur stdDeviation="4"/>
<feComposite in2="hardAlpha" operator="out"/>
<feColorMatrix type="matrix" values="0 0 0 0 0.027451 0 0 0 0 0.572549 0 0 0 0 1 0 0 0 0.25 0"/>
<feBlend mode="normal" in2="BackgroundImageFix" result="effect1_dropShadow_2404_155"/>
<feBlend mode="normal" in="SourceGraphic" in2="effect1_dropShadow_2404_155" result="shape"/>
</filter>
</defs>
</svg>
