<svg width="20" height="20" viewBox="0 0 20 20" fill="none" xmlns="http://www.w3.org/2000/svg">
<path d="M12.7583 7.24184C15.0922 9.57813 15.0601 13.3238 12.7724 15.6242C12.7681 15.6289 12.763 15.634 12.7583 15.6387L10.1333 18.2637C7.81807 20.5789 4.05132 20.5786 1.73645 18.2637C-0.578785 15.9489 -0.578785 12.1817 1.73645 9.86684L3.1859 8.41739C3.57027 8.03301 4.23222 8.28848 4.25207 8.83168C4.27738 9.52395 4.40152 10.2195 4.63058 10.8911C4.70816 11.1185 4.65273 11.3701 4.48281 11.54L3.9716 12.0512C2.87683 13.146 2.8425 14.9285 3.92648 16.034C5.02117 17.1504 6.82046 17.157 7.92354 16.0539L10.5485 13.4293C11.6497 12.3281 11.6451 10.5482 10.5485 9.4516C10.404 9.30731 10.2583 9.1952 10.1446 9.11688C10.0641 9.06162 9.99768 8.98832 9.95056 8.90282C9.90345 8.81733 9.87696 8.722 9.87323 8.62446C9.85776 8.21168 10.004 7.78633 10.3302 7.46016L11.1526 6.6377C11.3683 6.42204 11.7066 6.39555 11.9567 6.57009C12.2431 6.77007 12.5113 6.99485 12.7583 7.24184ZM18.2636 1.73631C15.9487 -0.578612 12.1819 -0.578925 9.8667 1.73631L7.24171 4.3613C7.23702 4.36599 7.23194 4.37107 7.22765 4.37575C4.93992 6.67622 4.90785 10.4219 7.24171 12.7582C7.48869 13.0051 7.75693 13.2299 8.04331 13.4299C8.29339 13.6044 8.63175 13.5779 8.84737 13.3623L9.66979 12.5398C9.99596 12.2136 10.1422 11.7883 10.1267 11.3755C10.123 11.278 10.0965 11.1826 10.0494 11.0971C10.0023 11.0116 9.93585 10.9383 9.85538 10.8831C9.74163 10.8048 9.596 10.6927 9.45143 10.5484C8.35483 9.45176 8.35022 7.67184 9.45143 6.57063L12.0764 3.94603C13.1795 2.84294 14.9788 2.84958 16.0735 3.96595C17.1575 5.07142 17.1232 6.85399 16.0284 7.94875L15.5172 8.45996C15.3472 8.62989 15.2918 8.88145 15.3694 9.10887C15.5984 9.78051 15.7226 10.476 15.7479 11.1683C15.7678 11.7115 16.4297 11.9669 16.8141 11.5826L18.2635 10.1331C20.5788 7.81832 20.5788 4.05114 18.2636 1.73631Z" fill="#767E9C"/>
</svg>
