<svg width="22" height="16" viewBox="0 0 22 16" fill="none" xmlns="http://www.w3.org/2000/svg">
<path fill-rule="evenodd" clip-rule="evenodd" d="M6.18941 0C4.83563 0 3.73816 1.02702 3.73816 2.29391V10.2079C3.73816 11.4748 4.83563 12.5018 6.18941 12.5018H19.5487C20.9025 12.5018 22 11.4748 22 10.2079V2.29391C22 1.02702 20.9025 0 19.5487 0H6.18941ZM12.9304 6.88172C14.2842 6.88172 15.3816 5.8547 15.3816 4.58781C15.3816 3.32092 14.2842 2.29391 12.9304 2.29391C11.5766 2.29391 10.4791 3.32092 10.4791 4.58781C10.4791 5.8547 11.5766 6.88172 12.9304 6.88172ZM10.2017 8.02867C9.2042 8.02867 8.39554 8.78542 8.39554 9.71892C8.39554 10.0523 8.68435 10.3226 9.04061 10.3226H16.575C16.9312 10.3226 17.2201 10.0523 17.2201 9.71892C17.2201 8.78542 16.4114 8.02867 15.4139 8.02867H10.2017Z" fill="#767E9C"/>
<path fill-rule="evenodd" clip-rule="evenodd" d="M0.91922 2.23656C1.42689 2.23656 1.83844 2.62169 1.83844 3.09677V11.0108C1.83844 12.8161 3.40233 14.2796 5.33148 14.2796H17.3426C17.8503 14.2796 18.2618 14.6647 18.2618 15.1398C18.2618 15.6149 17.8503 16 17.3426 16H5.33148C2.38698 16 0 13.7662 0 11.0108V3.09677C0 2.62169 0.411549 2.23656 0.91922 2.23656Z" fill="#767E9C"/>
</svg>
