<svg width="31" height="13" viewBox="0 0 31 13" fill="none" xmlns="http://www.w3.org/2000/svg">
<rect width="31" height="13" rx="4" fill="#44C98A"/>
<path d="M4.6456 10L4.6456 3.45455L8.83878 3.45455V4.44851L5.83132 4.44851L5.83132 6.2255L8.55114 6.2255V7.21946L5.83132 7.21946L5.83132 10H4.6456ZM9.91903 10L9.91903 3.45455L12.3736 3.45455C12.8764 3.45455 13.2983 3.5419 13.6392 3.71662C13.9822 3.89133 14.2411 4.13636 14.4158 4.4517C14.5927 4.76491 14.6811 5.13033 14.6811 5.54794C14.6811 5.96768 14.5916 6.33203 14.4126 6.64098C14.2358 6.9478 13.9748 7.18537 13.6296 7.35369C13.2844 7.51989 12.8604 7.60298 12.3576 7.60298L10.6094 7.60298V6.61861H12.1978C12.4918 6.61861 12.7326 6.57812 12.9201 6.49716C13.1076 6.41406 13.2461 6.29368 13.3356 6.13601C13.4272 5.97621 13.473 5.78018 13.473 5.54794C13.473 5.3157 13.4272 5.11754 13.3356 4.95348C13.244 4.78729 13.1044 4.66158 12.9169 4.57635C12.7294 4.48899 12.4876 4.44531 12.1914 4.44531H11.1048L11.1048 10H9.91903ZM13.3004 7.03409L14.9208 10H13.5977L12.006 7.03409L13.3004 7.03409ZM15.7725 10L15.7725 3.45455L20.0297 3.45455V4.44851L16.9583 4.44851V6.2255L19.8091 6.2255V7.21946L16.9583 7.21946V9.00604H20.0552V10H15.7725ZM21.2393 10V3.45455L25.4964 3.45455V4.44851H22.4251V6.2255L25.2759 6.2255V7.21946L22.4251 7.21946V9.00604H25.522V10H21.2393Z" fill="white"/>
</svg>
