<svg width="20" height="16" viewBox="0 0 20 16" fill="none" xmlns="http://www.w3.org/2000/svg">
<path d="M19.7243 3.01629L13.6407 0.00106049C13.0127 0.869695 11.6222 1.47587 10.0006 1.47587C8.3789 1.47587 6.98846 0.869695 6.36041 0.00106049L0.276846 3.01629C0.0300033 3.14127 -0.0699834 3.44123 0.0518754 3.68807L1.83914 7.26572C1.96412 7.51257 2.26408 7.61255 2.51092 7.49069L4.27944 6.62518C4.61065 6.4627 4.9981 6.7033 4.9981 7.07512V14.9991C4.9981 15.5521 5.44491 15.9989 5.99796 15.9989H13.9969C14.55 15.9989 14.9968 15.5521 14.9968 14.9991V7.072C14.9968 6.7033 15.3842 6.45958 15.7154 6.62206L17.4839 7.48757C17.7308 7.61255 18.0307 7.51257 18.1557 7.2626L19.9461 3.68807C20.0711 3.44123 19.9711 3.13814 19.7243 3.01629Z" fill="#767E9C"/>
</svg>
