<svg
   width="30"
   height="30"
   fill="#c8cddc"
   image-rendering="optimizeQuality"
   shape-rendering="geometricPrecision"
   viewBox="0 0 1.1200092 1.05"
   version="1.1"
   id="svg16"
   xmlns="http://www.w3.org/2000/svg">
  <defs
     id="defs20" />
  <path
     d="M 0.09000919,0.97 H 1.0400092 V 0.33 H 0.08000919 V 0.97 Z M 1.0400092,1.05 H 0.09000919 c -0.02,0 -0.05,-0.01 -0.06,-0.03 A 0.055,0.055 0 0 1 9.1922327e-6,0.97 V 0.33 c 0,-0.02 0.00999999777,-0.04 0.029999997767,-0.06 0.01,-0.01 0.04,-0.02 0.06,-0.02 H 1.0400092 c 0.02,0 0.04,0.01 0.06,0.02 0.01,0.02 0.02,0.04 0.02,0.06 v 0.64 c 0,0.02 -0.01,0.04 -0.02,0.05 -0.02,0.02 -0.04,0.03 -0.06,0.03 z M 0.80000919,0.17 c 0,0.02 -0.02,0.04 -0.04,0.04 -0.02,0 -0.04,-0.02 -0.04,-0.04 V 0.1 c -0.02,-0.02 -0.03,-0.02 -0.05,-0.02 h -0.22 c -0.01,0 -0.02,0 -0.03,0.01 l -0.01,0.08 c 0,0.02 -0.02,0.04 -0.04,0.04 -0.02,0 -0.04,-0.02 -0.04,-0.04 V 0.1 c 0,-0.03 0.01,-0.05 0.04,-0.07 0.02,-0.02 0.05,-0.03 0.08,-0.03 h 0.22 c 0.04,0 0.07,0.01 0.09,0.03 0.02,0.02 0.04,0.04 0.04,0.07 z"
     id="path12" />
  <path
     d="m 0.33000919,0.87 c 0,0.02 -0.02,0.04 -0.04,0.04 -0.02,0 -0.04,-0.02 -0.04,-0.04 V 0.43 c 0,-0.02 0.02,-0.04 0.04,-0.04 0.02,0 0.04,0.02 0.04,0.04 z m 0.56,0 c 0,0.02 -0.02,0.04 -0.04,0.04 -0.03,0 -0.04,-0.02 -0.04,-0.04 V 0.43 c 0,-0.02 0.01,-0.04 0.04,-0.04 0.02,0 0.04,0.02 0.04,0.04 z"
     id="path14" />
</svg>
