<svg width="20" height="18" viewBox="0 0 20 18" fill="none" xmlns="http://www.w3.org/2000/svg">
<path fill-rule="evenodd" clip-rule="evenodd" d="M1.06572 0C-0.349699 0 -0.360767 2.23869 1.06572 2.23869H1.21152C1.21872 3.18316 1.2152 8.34236 1.21293 10.9174C1.21221 11.7273 1.85136 12.3835 2.64228 12.3869L8.95112 12.4146V13.5791L7.57102 15.0038C6.25717 16.3719 6.19092 16.4623 6.19092 16.9033C6.19092 17.6043 6.56631 18 7.22876 18C7.72559 18 7.75872 17.9774 8.8628 16.8467L10 15.6822L11.1372 16.8467C12.2413 17.9774 12.2744 18 12.7712 18C13.4337 18 13.8091 17.6043 13.8091 16.9033C13.8091 16.4623 13.7428 16.3719 12.429 15.0038L11.0489 13.5791V12.4146L17.3577 12.3869C18.1486 12.3835 18.7878 11.7273 18.7871 10.9174C18.7848 8.34236 18.7813 3.18316 18.7885 2.23869H18.9343C20.3608 2.23869 20.3497 0 18.9343 0C12.9781 0 7.0219 0 1.06572 0ZM3.32031 10.142H16.6797V2.22739H3.32031V10.142Z" fill="#767E9C"/>
</svg>
