<svg width="80" height="80" viewBox="0 0 80 80" fill="none" xmlns="http://www.w3.org/2000/svg">
<g id="icon-user">
<rect width="80" height="80" rx="21" fill="#EAF4FF"/>
<g id="Vector" filter="url(#filter0_d_6806_34)">
<path d="M56.5723 34.9297C55.6219 34.9297 53.9087 35.2784 52.1931 37.2756C50.115 35.1319 47.142 33.7871 43.9277 33.7871H34.7109C34.2813 33.7871 33.8484 33.8161 33.3854 33.8764C31.4829 30.8671 28.0273 31.0077 26.3559 31.5589C25.9787 31.6827 25.6931 31.994 25.6016 32.3801C25.509 32.7661 25.6239 33.1722 25.9051 33.4523C26.5634 34.1107 27.0834 35.136 27.427 36.4427C26.0635 37.5841 24.9924 39.0157 24.2816 40.6426H22.1426C21.511 40.6426 21 41.1536 21 41.7852V48.6406C21 49.2722 21.511 49.7832 22.1426 49.7832H24.2827C25.4766 52.498 27.7082 54.7321 30.4609 55.8434L30.1562 57.67C30.1005 58.0014 30.1942 58.3394 30.4117 58.5961C30.6282 58.8527 30.9473 59 31.2831 59H35.8534C36.4125 59 36.8889 58.5961 36.9804 58.0449L37.2025 56.7148H41.4362L41.6582 58.0449C41.7497 58.5961 42.2261 59 42.7852 59H47.3555C47.6913 59 48.0105 58.8527 48.2269 58.5961C48.4444 58.3394 48.5382 58.0013 48.4824 57.67L48.1789 55.8456C52.5093 54.1184 55.4297 49.9171 55.4297 45.2129C55.4297 42.9766 54.7595 40.9037 53.6444 39.1399C54.5768 37.9153 55.5969 37.2148 56.5723 37.2148C57.2261 37.2148 57.7148 37.5161 57.7148 37.7861C57.7148 38.2269 57.273 38.5014 57.2708 38.5025C56.7196 38.8116 56.5232 39.5078 56.8312 40.0579C57.1393 40.6069 57.8337 40.8054 58.3866 40.4975C58.9858 40.1617 60 39.2132 60 37.7861C60 36.1839 58.4948 34.9297 56.5723 34.9297ZM31.2832 42.9277C30.6522 42.9277 30.1406 42.4162 30.1406 41.7852C30.1406 41.154 30.6522 40.6426 31.2832 40.6426C31.9142 40.6426 32.4258 41.154 32.4258 41.7852C32.4258 42.4162 31.9142 42.9277 31.2832 42.9277ZM45.0703 40.6426H35.8535C35.222 40.6426 34.7109 40.1315 34.7109 39.5C34.7109 38.8685 35.222 38.3574 35.8535 38.3574H45.0703C45.7019 38.3574 46.2129 38.8685 46.2129 39.5C46.2129 40.1315 45.7019 40.6426 45.0703 40.6426Z" fill="#0792FF"/>
<path d="M34.7109 25.7891C34.7109 28.939 37.3501 31.502 40.5 31.502C43.6499 31.502 46.2129 28.939 46.2129 25.7891C46.2129 22.6391 43.6499 20 40.5 20C37.3501 20 34.7109 22.6391 34.7109 25.7891Z" fill="#0792FF"/>
</g>
</g>
<defs>
<filter id="filter0_d_6806_34" x="13" y="16" width="55" height="55" filterUnits="userSpaceOnUse" color-interpolation-filters="sRGB">
<feFlood flood-opacity="0" result="BackgroundImageFix"/>
<feColorMatrix in="SourceAlpha" type="matrix" values="0 0 0 0 0 0 0 0 0 0 0 0 0 0 0 0 0 0 127 0" result="hardAlpha"/>
<feOffset dy="4"/>
<feGaussianBlur stdDeviation="4"/>
<feComposite in2="hardAlpha" operator="out"/>
<feColorMatrix type="matrix" values="0 0 0 0 0.027451 0 0 0 0 0.572549 0 0 0 0 1 0 0 0 0.25 0"/>
<feBlend mode="normal" in2="BackgroundImageFix" result="effect1_dropShadow_6806_34"/>
<feBlend mode="normal" in="SourceGraphic" in2="effect1_dropShadow_6806_34" result="shape"/>
</filter>
</defs>
</svg>
