<svg width="19" height="13" viewBox="0 0 19 13" fill="none" xmlns="http://www.w3.org/2000/svg">
<path d="M16.9441 0.276001H1.37172C0.614116 0.276001 0 0.890117 0 1.64772V4.276H18.3158V1.64772C18.3158 0.890117 17.7017 0.276001 16.9441 0.276001ZM0 10.9043C0 11.6618 0.614116 12.276 1.37172 12.276H16.9441C17.7017 12.276 18.3158 11.6619 18.3158 10.9043V8.276H0V10.9043Z" fill="#82AFFF"/>
<path d="M0 4.27594H18.3158V8.27572H0V4.27594Z" fill="#F5F5F5"/>
<path d="M10.7369 6.19706H9.59985C9.62106 6.18096 9.63784 6.16511 9.65301 6.15016C9.68077 6.12301 9.70284 6.10144 9.7614 6.07736C9.82028 6.05268 9.85112 6.05239 9.89015 6.05178C9.93716 6.05146 9.99039 6.05057 10.0773 6.01476C10.1642 5.97866 10.2021 5.94164 10.2356 5.90898C10.2633 5.88183 10.2854 5.86025 10.3441 5.83586C10.4025 5.8115 10.4333 5.81117 10.4721 5.81089C10.519 5.81024 10.5721 5.80967 10.6591 5.77358L10.5983 5.62798C10.5399 5.65234 10.5092 5.65266 10.4704 5.65295C10.4235 5.65359 10.3703 5.65417 10.2835 5.68997C10.1967 5.72607 10.1588 5.76309 10.1253 5.79576C10.0975 5.82291 10.0755 5.84448 10.0169 5.86855C9.95801 5.89324 9.92717 5.89352 9.88815 5.89413C9.84114 5.89445 9.78791 5.89535 9.70095 5.93144C9.61416 5.96722 9.5762 6.00456 9.54272 6.03722C9.51539 6.0638 9.49282 6.08509 9.43658 6.10884L10.3302 5.21534L10.2185 5.10369L9.41419 5.90794C9.41773 5.88165 9.4187 5.85825 9.41891 5.83704C9.41938 5.79787 9.4197 5.76732 9.44406 5.70843C9.46842 5.64955 9.48999 5.62762 9.51718 5.5999C9.55016 5.56627 9.58733 5.52807 9.62339 5.4411C9.65931 5.35414 9.65995 5.30109 9.66041 5.25422C9.66088 5.21537 9.6612 5.1845 9.68538 5.12594C9.70975 5.06734 9.73117 5.04545 9.75833 5.01769C9.79117 4.98406 9.8283 4.94611 9.86429 4.85947L9.71844 4.79905C9.69408 4.85761 9.67265 4.87954 9.6455 4.9073C9.61266 4.94092 9.57553 4.97888 9.53954 5.06552C9.50362 5.15248 9.50298 5.20554 9.50251 5.2524C9.50205 5.29125 9.50173 5.32212 9.47754 5.38068C9.45318 5.43956 9.43161 5.46149 9.40442 5.48922C9.37144 5.52284 9.33427 5.56105 9.29821 5.64801C9.2623 5.73498 9.26165 5.78835 9.26108 5.83521C9.26076 5.87324 9.25969 5.90397 9.2369 5.96042V4.69702H9.079V5.834C9.06454 5.81538 9.04894 5.79768 9.03228 5.78102C9.00502 5.75326 8.98355 5.73104 8.95916 5.67248C8.93479 5.6136 8.93433 5.58276 8.93386 5.54356C8.9334 5.49666 8.93279 5.44332 8.89673 5.35636C8.86082 5.26971 8.82361 5.23179 8.79077 5.19813C8.76362 5.17037 8.74223 5.14848 8.71783 5.08988C8.69365 5.03129 8.69333 5.00045 8.69286 4.9616C8.6924 4.9147 8.69179 4.86169 8.65584 4.77501L8.50999 4.83543C8.53417 4.89402 8.53449 4.92457 8.53496 4.96339C8.53542 5.01029 8.53603 5.0633 8.57198 5.15027C8.6079 5.23691 8.6451 5.27483 8.67794 5.30849C8.7051 5.33625 8.72649 5.35814 8.75088 5.41674C8.77525 5.47562 8.77571 5.50646 8.77618 5.54567C8.77664 5.59256 8.77725 5.6459 8.81331 5.73287C8.84923 5.81983 8.88643 5.85775 8.91927 5.89138C8.94603 5.91856 8.9672 5.94128 8.99096 5.99734L8.09728 5.10376L7.98563 5.21541L8.87792 6.10759C8.82898 6.08537 8.80537 6.06495 8.77972 6.04005C8.74598 6.00707 8.70789 5.96976 8.6206 5.93366C8.53363 5.89789 8.48044 5.89696 8.4334 5.89635C8.39423 5.89603 8.36343 5.89545 8.30404 5.87077C8.24466 5.84641 8.22248 5.82484 8.19426 5.7974C8.16052 5.7647 8.12224 5.72743 8.03482 5.69101C7.94753 5.65492 7.89416 5.65431 7.84701 5.6537C7.80769 5.65306 7.77671 5.65248 7.71733 5.6278L7.65691 5.77397C7.7442 5.81006 7.79757 5.81067 7.84472 5.81128C7.88403 5.81192 7.91501 5.8125 7.97439 5.83718C8.03392 5.86154 8.0561 5.88311 8.08433 5.91055C8.11806 5.94353 8.15634 5.98052 8.24359 6.01665C8.33087 6.05304 8.38425 6.05368 8.43125 6.05429C8.47042 6.05493 8.50122 6.05518 8.56032 6.07986C8.61938 6.10423 8.64146 6.1258 8.66936 6.15299C8.6837 6.16708 8.69973 6.18193 8.71912 6.19709H7.57889V6.355H8.84003C8.7902 6.37396 8.75904 6.37635 8.72334 6.37689C8.67633 6.37721 8.6231 6.37811 8.536 6.41391C8.44889 6.45001 8.41061 6.48728 8.37688 6.52002C8.3488 6.54746 8.32676 6.56903 8.2677 6.59339C8.20832 6.61807 8.17734 6.61868 8.13802 6.61929C8.09084 6.61993 8.0375 6.6205 7.95021 6.6566C7.86278 6.69298 7.82454 6.72997 7.79077 6.76299C7.76255 6.79043 7.74037 6.812 7.68098 6.83636L7.7414 6.98253C7.82869 6.94615 7.86693 6.90916 7.90067 6.87614C7.92889 6.8487 7.95107 6.82713 8.0106 6.80277C8.06998 6.77808 8.10096 6.77748 8.14027 6.77687C8.18746 6.77622 8.2408 6.77565 8.32826 6.73923C8.41523 6.70314 8.45332 6.66611 8.48706 6.63313C8.51496 6.60598 8.53718 6.58441 8.59642 6.56001C8.6553 6.53533 8.68631 6.53504 8.72534 6.53443C8.7453 6.53433 8.76781 6.533 8.79217 6.53L7.98552 7.33654L8.09717 7.44818L8.98903 6.55647C8.96706 6.60519 8.94678 6.6287 8.92181 6.65442C8.88897 6.68804 8.85184 6.72625 8.81571 6.81321C8.77961 6.90018 8.77882 6.95387 8.77839 7.0007C8.77775 7.03987 8.7775 7.07067 8.75292 7.12991C8.72842 7.18944 8.70667 7.21162 8.67937 7.2397C8.64639 7.27333 8.60922 7.31185 8.57299 7.39914C8.53675 7.48643 8.5361 7.5398 8.53553 7.58695C8.53489 7.62612 8.53446 7.65724 8.50995 7.71645L8.6558 7.77687C8.69204 7.68958 8.69268 7.63621 8.69325 7.58906C8.6939 7.54989 8.69433 7.51876 8.71883 7.45956C8.74334 7.40003 8.76509 7.37785 8.79238 7.34977C8.82536 7.31615 8.86253 7.27762 8.89877 7.19033C8.93487 7.10337 8.93565 7.04967 8.93608 7.00285C8.93673 6.96367 8.93698 6.93287 8.96155 6.87363C8.98591 6.81443 9.00748 6.7925 9.03478 6.76445C9.0488 6.75007 9.06372 6.73405 9.07889 6.71455V7.85492H9.23679V6.59385C9.25561 6.64358 9.258 6.67466 9.25854 6.71051C9.259 6.75741 9.25976 6.81074 9.29585 6.89771C9.33177 6.98499 9.36908 7.02324 9.40195 7.05683C9.42921 7.08491 9.45082 7.10709 9.47532 7.16629C9.49983 7.2255 9.5003 7.25665 9.5009 7.29579C9.50155 7.34298 9.50212 7.39631 9.53836 7.4836C9.5746 7.57089 9.61173 7.60945 9.64475 7.64304C9.67201 7.67112 9.69376 7.6933 9.7183 7.75283L9.86414 7.69241C9.8279 7.60512 9.79077 7.56656 9.75775 7.53297C9.73049 7.50488 9.70871 7.4827 9.6842 7.42318C9.6597 7.36397 9.65923 7.33282 9.65863 7.29368C9.65798 7.2465 9.65741 7.19316 9.62117 7.10587C9.58508 7.01859 9.54794 6.98034 9.51507 6.94675C9.48781 6.91867 9.4662 6.89649 9.4417 6.83729C9.41719 6.77841 9.41687 6.74757 9.41623 6.70836C9.41597 6.68602 9.41447 6.66371 9.41172 6.64154L10.2185 7.44822L10.3301 7.33657L9.52587 6.53247C9.55199 6.53594 9.57538 6.53697 9.59645 6.53726C9.63545 6.53758 9.66617 6.5379 9.72506 6.56223C9.78394 6.58691 9.80601 6.60816 9.83391 6.6356C9.86754 6.6683 9.9056 6.70557 9.9926 6.7417C10.0794 6.77748 10.1326 6.77808 10.1795 6.77841C10.2183 6.77905 10.249 6.7793 10.3076 6.8037C10.3662 6.82774 10.3881 6.84934 10.4159 6.8765C10.4495 6.90919 10.4875 6.94647 10.5742 6.9826L10.6347 6.83643C10.5761 6.81239 10.5542 6.79078 10.5264 6.76363C10.4928 6.73093 10.4548 6.69366 10.368 6.65753C10.2812 6.62176 10.228 6.62115 10.1812 6.62083C10.1423 6.62018 10.1116 6.61993 10.053 6.59553C9.99414 6.57117 9.97207 6.54989 9.94417 6.52241C9.91054 6.48972 9.87248 6.45244 9.78548 6.41663C9.69851 6.38025 9.64532 6.37961 9.59828 6.37932C9.56 6.37868 9.52899 6.37796 9.47221 6.35496H10.7368V6.19706H10.7369Z" fill="#F09146"/>
<path d="M9.15789 7.06553C9.59392 7.06553 9.9474 6.71206 9.9474 6.27602C9.9474 5.83999 9.59392 5.48651 9.15789 5.48651C8.72185 5.48651 8.36838 5.83999 8.36838 6.27602C8.36838 6.71206 8.72185 7.06553 9.15789 7.06553Z" fill="#FFE15A"/>
</svg>
