<svg width="19" height="13" viewBox="0 0 19 13" fill="none" xmlns="http://www.w3.org/2000/svg">
<path d="M18.3158 1.64772C18.3158 0.890153 17.7017 0.276001 16.9441 0.276001H1.37172C0.614116 0.276001 0 0.890117 0 1.64772V4.276H18.3158V1.64772Z" fill="#FF4B55"/>
<path d="M0 4.27594H18.3158V8.27572H0V4.27594Z" fill="#FFE15A"/>
<path d="M1.37172 12.276H16.9441C17.7017 12.276 18.3158 11.6619 18.3158 10.9043V8.276H0V10.9043C0 11.6619 0.614116 12.276 1.37172 12.276Z" fill="#73AF00"/>
<path d="M8.75003 4.48575L8.72667 4.51498C8.70776 4.54093 8.69021 4.56785 8.67408 4.59561C8.63312 4.66712 8.59012 4.77798 8.58894 4.91013C8.58851 4.97456 8.60182 5.05279 8.62379 5.115C8.64761 5.18369 8.68714 5.24937 8.73712 5.30803C8.78716 5.36724 8.85402 5.41288 8.92553 5.44658C8.96098 5.46458 8.9999 5.47491 9.0385 5.48443C9.05764 5.49026 9.07803 5.49055 9.09767 5.49441C9.10755 5.49627 9.11778 5.49545 9.12776 5.49624L9.14285 5.49691L9.1504 5.49731L9.15416 5.49752L9.15605 5.49763L9.15698 5.49767C9.15394 5.49777 9.1651 5.49752 9.1504 5.49792C9.17487 5.49649 9.20456 5.49631 9.22474 5.49384C9.24234 5.48972 9.25715 5.49044 9.27732 5.48447C9.31596 5.47495 9.35484 5.46461 9.3903 5.44662C9.46177 5.41292 9.52867 5.36727 9.57871 5.30807C9.62869 5.2494 9.66822 5.18372 9.69204 5.11504C9.71486 5.04517 9.72706 4.97831 9.72688 4.90984C9.72578 4.77827 9.68274 4.66702 9.64178 4.59558C9.62556 4.56742 9.60772 4.54024 9.58834 4.51416L9.56662 4.4864L9.56473 4.484C9.55886 4.47658 9.55581 4.46731 9.55614 4.45786C9.55646 4.4484 9.56014 4.43937 9.56651 4.43237C9.57287 4.42537 9.58152 4.42086 9.5909 4.41964C9.60029 4.41843 9.6098 4.42058 9.61774 4.42573L9.65126 4.44719C9.67194 4.46272 9.70399 4.48464 9.73851 4.52013C9.8078 4.58874 9.89774 4.71094 9.93018 4.88852C9.94625 4.97352 9.948 5.07633 9.92585 5.17739C9.90439 5.27949 9.86085 5.38505 9.79056 5.47742C9.72152 5.57021 9.62876 5.65228 9.51847 5.70762C9.46406 5.73663 9.40485 5.7577 9.34411 5.77237C9.31499 5.78092 9.27804 5.78446 9.24513 5.78965C9.21429 5.79304 9.19236 5.79312 9.1655 5.79501L9.15505 5.79505L9.15212 5.7949L9.14625 5.79462L9.13452 5.79401L9.11102 5.79276C9.09538 5.79151 9.07968 5.79172 9.06419 5.78904C9.03332 5.7836 9.00191 5.78106 8.97179 5.77237C8.91104 5.75774 8.8518 5.73663 8.79743 5.70762C8.68714 5.65228 8.59438 5.57018 8.52534 5.47742C8.45508 5.38502 8.41154 5.27945 8.39005 5.17739C8.36708 5.06864 8.36994 4.9772 8.38575 4.8882C8.41813 4.71116 8.50813 4.58853 8.57739 4.52006C8.61177 4.48472 8.64393 4.46257 8.6655 4.44633L8.69737 4.42633C8.70544 4.42121 8.71507 4.41914 8.72453 4.42047C8.73399 4.4218 8.74267 4.42647 8.74901 4.43362C8.75535 4.44077 8.75893 4.44994 8.75912 4.4595C8.7593 4.46905 8.75608 4.47836 8.75003 4.48575Z" fill="#73AF00"/>
<path d="M9.07856 7.63055V8.13034C9.07856 8.18021 9.01828 8.20518 8.98304 8.16994L8.95553 8.14243C8.94422 8.13112 8.93524 8.11769 8.92911 8.10291C8.92299 8.08813 8.91983 8.07229 8.91983 8.05629V7.63055H9.07856Z" fill="#FF4B55"/>
<path d="M8.84045 7.55121V7.91398C8.84045 7.93577 8.84911 7.9567 8.86453 7.97211L8.9198 8.02738V7.55121H8.84045Z" fill="#FFE15A"/>
<path d="M8.76111 7.55121V7.74588C8.76111 7.77368 8.77216 7.80033 8.79177 7.81997L8.84045 7.86866V7.55121H8.76111Z" fill="#73AF00"/>
<path d="M9.23727 7.63055V8.13034C9.23727 8.18021 9.29755 8.20518 9.33279 8.16994L9.3603 8.14243C9.37161 8.13112 9.38059 8.11769 9.38672 8.10291C9.39284 8.08813 9.396 8.07229 9.396 8.05629V7.63055H9.23727Z" fill="#FF4B55"/>
<path d="M9.47534 7.55121V7.91398C9.47534 7.93577 9.46668 7.9567 9.45126 7.97211L9.396 8.02738V7.55121H9.47534Z" fill="#FFE15A"/>
<path d="M9.55475 7.55121V7.74588C9.55475 7.77368 9.54369 7.80033 9.52409 7.81997L9.4754 7.86866V7.55121H9.55475Z" fill="#73AF00"/>
<path d="M9.55473 6.12269L10.4277 5.48779V6.79344C10.4277 7.16813 10.1239 7.47184 9.7493 7.47184C9.62216 7.47184 9.49756 7.4361 9.38974 7.36874L8.91986 7.07504V6.11168L9.55473 6.12269Z" fill="#FF4B55"/>
<path d="M10.1103 5.71863V6.63467C10.1103 7.00936 9.8065 7.31307 9.43185 7.31307C9.37551 7.31307 9.31999 7.30495 9.26586 7.29125L8.91983 7.07496V6.11159L9.55473 6.12261L10.1103 5.71863Z" fill="#FFE15A"/>
<path d="M9.87218 5.89185V6.48321C9.87218 6.8579 9.56843 7.16161 9.19378 7.16161C9.13744 7.16161 9.08188 7.15349 9.02779 7.13979L8.91983 7.07232V6.11167L9.55473 6.12269L9.87218 5.89185Z" fill="#73AF00"/>
<path d="M10.4753 5.34498L10.8245 5.17041L10.5705 5.48782H10.4277L10.4753 5.34498Z" fill="#F5F5F5"/>
<path d="M10.0309 6.51948L10.9039 5.88458V7.19023C10.9039 7.56491 10.6001 7.86863 10.2255 7.86863C10.0984 7.86863 9.97376 7.83289 9.86594 7.76553L9.39606 7.47183V6.50846L10.0309 6.51948Z" fill="#FF4B55"/>
<path d="M10.3483 6.28864V6.88C10.3483 7.25469 10.0446 7.5584 9.66995 7.5584C9.6136 7.5584 9.55808 7.55028 9.50396 7.53658L9.396 7.46911V6.50853L10.0309 6.51955L10.3483 6.28864Z" fill="#73AF00"/>
<path d="M10.9514 5.74175L11.3007 5.56714L11.0467 5.88459H10.9039L10.9514 5.74175Z" fill="#F5F5F5"/>
<path d="M9.7928 6.36079L10.6658 5.72589V7.03154C10.6658 7.40622 10.362 7.70994 9.98737 7.70994C9.86023 7.70994 9.73563 7.6742 9.62781 7.60684L9.1579 7.31314V6.34977L9.7928 6.36079Z" fill="#FF4B55"/>
<path d="M10.3484 5.95679V6.87283C10.3484 7.24751 10.0446 7.55123 9.66995 7.55123C9.61361 7.55123 9.55809 7.54311 9.50397 7.52941L9.1579 7.31316V6.34979L9.7928 6.36081L10.3484 5.95679Z" fill="#FFE15A"/>
<path d="M10.1102 6.12988V6.72125C10.1102 7.09593 9.8065 7.39965 9.43185 7.39965C9.37551 7.39965 9.31999 7.39153 9.26586 7.37783L9.1579 7.31039V6.34974L9.7928 6.36076L10.1102 6.12988Z" fill="#73AF00"/>
<path d="M10.7134 5.58306L11.0626 5.40845L10.8086 5.7259H10.6658L10.7134 5.58306Z" fill="#F5F5F5"/>
<path d="M8.76112 6.12269L7.88815 5.48779V6.79344C7.88815 7.16813 8.1919 7.47184 8.56655 7.47184C8.69369 7.47184 8.81829 7.4361 8.92611 7.36874L9.39599 7.07504V6.11168L8.76112 6.12269Z" fill="#FF4B55"/>
<path d="M8.20557 5.71863V6.63467C8.20557 7.00936 8.50932 7.31307 8.88397 7.31307C8.94031 7.31307 8.99583 7.30495 9.04995 7.29125L9.39599 7.07496V6.11159L8.76109 6.12261L8.20557 5.71863Z" fill="#FFE15A"/>
<path d="M8.44366 5.89185V6.48321C8.44366 6.8579 8.74741 7.16161 9.12206 7.16161C9.17841 7.16161 9.23396 7.15349 9.28805 7.13979L9.39602 7.07232V6.11167L8.76111 6.12269L8.44366 5.89185Z" fill="#73AF00"/>
<path d="M7.84052 5.34498L7.4913 5.17041L7.74529 5.48782H7.8881L7.84052 5.34498Z" fill="#F5F5F5"/>
<path d="M8.28493 6.51948L7.41196 5.88458V7.19023C7.41196 7.56491 7.71571 7.86863 8.09036 7.86863C8.21749 7.86863 8.34209 7.83289 8.44991 7.76553L8.91979 7.47183V6.50846L8.28493 6.51948Z" fill="#FF4B55"/>
<path d="M7.96747 6.28864V6.88C7.96747 7.25469 8.27122 7.5584 8.64587 7.5584C8.70221 7.5584 8.75773 7.55028 8.81186 7.53658L8.91982 7.46911V6.50853L8.28492 6.51955L7.96747 6.28864Z" fill="#73AF00"/>
<path d="M7.36435 5.74175L7.01517 5.56714L7.26912 5.88459H7.41193L7.36435 5.74175Z" fill="#F5F5F5"/>
<path d="M8.52299 6.36079L7.65002 5.72589V7.03154C7.65002 7.40622 7.95377 7.70994 8.32842 7.70994C8.45556 7.70994 8.58016 7.6742 8.68798 7.60684L9.15786 7.31314V6.34977L8.52299 6.36079Z" fill="#FF4B55"/>
<path d="M7.96747 5.95679V6.87283C7.96747 7.24751 8.27122 7.55123 8.64587 7.55123C8.70221 7.55123 8.75773 7.54311 8.81186 7.52941L9.15789 7.31312V6.34975L8.52299 6.36077L7.96747 5.95679Z" fill="#FFE15A"/>
<path d="M8.20557 6.12988V6.72125C8.20557 7.09593 8.50932 7.39965 8.88397 7.39965C8.94031 7.39965 8.99583 7.39153 9.04995 7.37783L9.15792 7.31036V6.34971L8.52302 6.36073L8.20557 6.12988Z" fill="#73AF00"/>
<path d="M8.11859 7.54071L8.01395 7.43607C7.9989 7.42102 7.98703 7.40309 7.97905 7.38335C7.97107 7.36362 7.96714 7.34248 7.96749 7.32119C7.96784 7.2999 7.97248 7.27891 7.98111 7.25945C7.98974 7.23999 8.0022 7.22246 8.01775 7.20791L9.74977 5.58038L9.97425 5.80486L8.34671 7.53688C8.33218 7.55244 8.31466 7.56492 8.29521 7.57356C8.27575 7.5822 8.25475 7.58684 8.23346 7.5872C8.21218 7.58756 8.19103 7.58363 8.1713 7.57564C8.15156 7.56765 8.13364 7.55577 8.11859 7.54071Z" fill="#FFBE5A"/>
<path d="M8.06647 7.56769C8.11029 7.56769 8.14581 7.53216 8.14581 7.48834C8.14581 7.44452 8.11029 7.409 8.06647 7.409C8.02265 7.409 7.98712 7.44452 7.98712 7.48834C7.98712 7.53216 8.02265 7.56769 8.06647 7.56769Z" fill="#FFBE5A"/>
<path d="M9.91822 5.63672C9.85625 5.57475 9.78089 5.54963 9.7499 5.58062C9.71892 5.6116 9.74403 5.68696 9.806 5.74893C9.86798 5.81091 9.94333 5.83603 9.97432 5.80504C10.0053 5.77406 9.98019 5.6987 9.91822 5.63672Z" fill="#F5F5F5"/>
<path d="M10.1972 7.54071L10.3018 7.43607C10.3169 7.42102 10.3288 7.40309 10.3367 7.38335C10.3447 7.36362 10.3487 7.34248 10.3483 7.32119C10.348 7.2999 10.3433 7.27891 10.3347 7.25945C10.3261 7.23999 10.3136 7.22246 10.2981 7.20791L8.56603 5.58038L8.34155 5.80486L9.96908 7.53688C9.98362 7.55244 10.0011 7.56492 10.0206 7.57356C10.04 7.5822 10.061 7.58684 10.0823 7.5872C10.1036 7.58756 10.1248 7.58363 10.1445 7.57564C10.1642 7.56765 10.1822 7.55577 10.1972 7.54071Z" fill="#FFBE5A"/>
<path d="M10.2493 7.56769C10.2931 7.56769 10.3287 7.53216 10.3287 7.48834C10.3287 7.44452 10.2931 7.409 10.2493 7.409C10.2055 7.409 10.17 7.44452 10.17 7.48834C10.17 7.53216 10.2055 7.56769 10.2493 7.56769Z" fill="#FFBE5A"/>
<path d="M8.51013 5.74902C8.5721 5.68705 8.59721 5.61169 8.56623 5.5807C8.53524 5.54972 8.45988 5.57484 8.39791 5.63681C8.33594 5.69878 8.31083 5.77414 8.34181 5.80513C8.3728 5.83611 8.44816 5.81099 8.51013 5.74902Z" fill="#F5F5F5"/>
<path d="M9.1579 7.47201C9.54545 7.47201 9.85963 7.09894 9.85963 6.63872C9.85963 6.1785 9.54545 5.80542 9.1579 5.80542C8.77035 5.80542 8.45618 6.1785 8.45618 6.63872C8.45618 7.09894 8.77035 7.47201 9.1579 7.47201Z" fill="#FFBE5A"/>
<path d="M9.1579 5.88458L9.19518 6.04624L9.28053 5.90401L9.26597 6.06924L9.39114 5.96039L9.32625 6.11306L9.47893 6.04817L9.37004 6.17331L9.53531 6.15878L9.39304 6.24417L9.55473 6.28141L9.39304 6.31865L9.53531 6.40404L9.37004 6.38952L9.47893 6.51462L9.32625 6.44972L9.39114 6.60244L9.26597 6.49355L9.28053 6.65878L9.19518 6.51659L9.1579 6.67821L9.12066 6.51659L9.03531 6.65878L9.04983 6.49355L8.9247 6.60244L8.98956 6.44972L8.83691 6.51462L8.94577 6.38952L8.78053 6.40404L8.92277 6.31865L8.76111 6.28141L8.92277 6.24417L8.78053 6.15878L8.94577 6.17331L8.83691 6.04817L8.98956 6.11306L8.9247 5.96039L9.04983 6.06924L9.03531 5.90401L9.12066 6.04624L9.1579 5.88458Z" fill="#FF4B55"/>
<path d="M10.0358 6.62369C10.0358 6.62369 9.77294 6.69312 9.60183 6.54928C9.41166 6.38941 9.26907 6.31393 9.20797 6.28559C9.19776 6.28081 9.18661 6.27833 9.17533 6.27832C9.16405 6.27831 9.15291 6.28078 9.14269 6.28556C9.0989 6.30577 9.01834 6.34766 8.94708 6.41041C8.84291 6.5022 8.52299 6.68321 8.45853 6.68321V7.07775L8.96196 7.51404L9.55719 7.49666L10.0358 6.62369Z" fill="#73AF00"/>
<path d="M9.15792 7.67026C8.65466 7.67026 8.24524 7.20743 8.24524 6.63857C8.24524 6.0697 8.65463 5.60687 9.15792 5.60687C9.66121 5.60687 10.0706 6.0697 10.0706 6.63857C10.0706 7.20743 9.66117 7.67026 9.15792 7.67026ZM9.15792 5.84494C8.78595 5.84494 8.48334 6.20099 8.48334 6.63857C8.48334 7.07614 8.78595 7.43219 9.15792 7.43219C9.52989 7.43219 9.83249 7.07614 9.83249 6.63857C9.83249 6.20099 9.52989 5.84494 9.15792 5.84494Z" fill="#3CC8FF"/>
<path d="M9.02117 7.4546L9.03867 7.50701L9.09394 7.50743C9.10109 7.50747 9.10402 7.51663 9.0983 7.52085L9.05387 7.55369L9.07054 7.60638C9.07102 7.60788 9.07101 7.60948 9.07053 7.61097C9.07004 7.61246 9.06909 7.61376 9.06782 7.61468C9.06655 7.6156 9.06503 7.61609 9.06346 7.61609C9.06189 7.61609 9.06036 7.6156 9.05909 7.61468L9.01413 7.58256L8.96916 7.61468C8.96789 7.61558 8.96636 7.61605 8.96481 7.61604C8.96325 7.61603 8.96174 7.61553 8.96048 7.61462C8.95922 7.6137 8.95827 7.61242 8.95778 7.61094C8.95728 7.60947 8.95726 7.60787 8.95771 7.60638L8.97438 7.55369L8.92995 7.52085C8.9287 7.51992 8.92777 7.51862 8.9273 7.51714C8.92682 7.51565 8.92683 7.51406 8.92731 7.51257C8.92779 7.51109 8.92873 7.5098 8.92999 7.50888C8.93124 7.50795 8.93276 7.50745 8.93432 7.50743L8.98959 7.50701L9.00708 7.4546C9.00756 7.45311 9.0085 7.45181 9.00977 7.45088C9.01103 7.44996 9.01256 7.44947 9.01413 7.44947C9.01569 7.44947 9.01722 7.44996 9.01849 7.45088C9.01975 7.45181 9.02069 7.45311 9.02117 7.4546ZM8.77305 7.34792L8.79054 7.40033L8.84581 7.40076C8.85297 7.4008 8.8559 7.40995 8.85018 7.41417L8.80575 7.44701L8.82242 7.49971C8.8229 7.5012 8.82289 7.50281 8.8224 7.5043C8.82192 7.50579 8.82097 7.50708 8.8197 7.508C8.81843 7.50892 8.8169 7.50942 8.81534 7.50942C8.81377 7.50942 8.81224 7.50893 8.81097 7.50801L8.766 7.47588L8.72104 7.50801C8.71976 7.5089 8.71824 7.50938 8.71668 7.50936C8.71513 7.50935 8.71361 7.50885 8.71235 7.50794C8.71109 7.50703 8.71015 7.50574 8.70965 7.50427C8.70916 7.50279 8.70914 7.5012 8.70959 7.49971L8.72626 7.44701L8.68183 7.41417C8.68058 7.41325 8.67965 7.41195 8.67918 7.41046C8.6787 7.40898 8.67871 7.40738 8.67919 7.4059C8.67967 7.40442 8.68061 7.40312 8.68186 7.4022C8.68312 7.40128 8.68464 7.40077 8.68619 7.40076L8.74146 7.40033L8.75896 7.34792C8.76121 7.34112 8.77083 7.34112 8.77305 7.34792ZM8.57383 7.16691L8.59132 7.21932L8.64659 7.21975C8.65375 7.21978 8.65668 7.22894 8.65096 7.23316L8.60653 7.266L8.6232 7.3187C8.62368 7.32019 8.62367 7.32179 8.62318 7.32328C8.6227 7.32477 8.62175 7.32607 8.62048 7.32699C8.61921 7.32791 8.61768 7.32841 8.61612 7.32841C8.61455 7.32841 8.61302 7.32791 8.61175 7.32699L8.56678 7.29487L8.52182 7.32699C8.52054 7.32789 8.51902 7.32836 8.51746 7.32835C8.51591 7.32834 8.51439 7.32784 8.51313 7.32693C8.51187 7.32601 8.51093 7.32473 8.51043 7.32325C8.50994 7.32178 8.50992 7.32018 8.51037 7.3187L8.52704 7.266L8.48261 7.23316C8.48136 7.23223 8.48043 7.23093 8.47996 7.22945C8.47948 7.22796 8.47949 7.22637 8.47997 7.22489C8.48045 7.2234 8.48139 7.22211 8.48264 7.22119C8.4839 7.22027 8.48542 7.21976 8.48697 7.21975L8.54224 7.21932L8.55974 7.16691C8.56022 7.16542 8.56116 7.16412 8.56243 7.1632C8.56369 7.16228 8.56522 7.16178 8.56678 7.16178C8.56835 7.16178 8.56988 7.16228 8.57114 7.1632C8.57241 7.16412 8.57335 7.16542 8.57383 7.16691ZM8.43797 6.92591L8.45546 6.97831L8.51073 6.97874C8.51788 6.97878 8.52082 6.98794 8.51509 6.99216L8.47066 7.025L8.48733 7.07769C8.48781 7.07919 8.48781 7.08079 8.48732 7.08228C8.48683 7.08377 8.48588 7.08507 8.48461 7.08599C8.48335 7.08691 8.48182 7.0874 8.48025 7.0874C8.47868 7.08741 8.47715 7.08691 8.47588 7.08599L8.43092 7.05387L8.38595 7.08599C8.38468 7.08689 8.38316 7.08736 8.3816 7.08735C8.38004 7.08734 8.37853 7.08684 8.37727 7.08593C8.37601 7.08501 8.37506 7.08373 8.37457 7.08225C8.37407 7.08078 8.37405 7.07918 8.3745 7.07769L8.39117 7.025L8.34674 6.99216C8.34549 6.99123 8.34456 6.98993 8.34409 6.98845C8.34362 6.98696 8.34362 6.98536 8.3441 6.98388C8.34459 6.9824 8.34552 6.98111 8.34678 6.98018C8.34804 6.97926 8.34955 6.97876 8.35111 6.97874L8.40638 6.97831L8.42387 6.92591C8.42435 6.92442 8.42529 6.92312 8.42656 6.9222C8.42783 6.92127 8.42935 6.92078 8.43092 6.92078C8.43248 6.92078 8.43401 6.92127 8.43528 6.9222C8.43654 6.92312 8.43748 6.92442 8.43797 6.92591ZM8.37801 6.64566L8.3955 6.69807L8.45077 6.6985C8.45793 6.69853 8.46086 6.70769 8.45514 6.71191L8.41071 6.74475L8.42738 6.79745C8.42785 6.79894 8.42785 6.80054 8.42736 6.80203C8.42687 6.80352 8.42593 6.80482 8.42466 6.80574C8.42339 6.80666 8.42186 6.80716 8.42029 6.80716C8.41873 6.80716 8.4172 6.80667 8.41593 6.80575L8.37096 6.77362L8.326 6.80575C8.32472 6.80664 8.3232 6.80712 8.32164 6.8071C8.32009 6.80709 8.31857 6.80659 8.31731 6.80568C8.31605 6.80477 8.31511 6.80348 8.31461 6.802C8.31412 6.80053 8.31409 6.79894 8.31455 6.79745L8.33122 6.74475L8.28679 6.71191C8.28554 6.71098 8.28461 6.70969 8.28414 6.7082C8.28366 6.70672 8.28367 6.70512 8.28415 6.70364C8.28463 6.70215 8.28557 6.70086 8.28682 6.69994C8.28808 6.69902 8.28959 6.69851 8.29115 6.6985L8.34642 6.69807L8.36391 6.64566C8.36613 6.63886 8.37576 6.63886 8.37801 6.64566ZM9.29427 7.4546L9.27677 7.50701L9.2215 7.50743C9.21435 7.50747 9.21141 7.51663 9.21714 7.52085L9.26157 7.55369L9.2449 7.60638C9.24442 7.60788 9.24442 7.60948 9.24491 7.61097C9.2454 7.61246 9.24635 7.61376 9.24762 7.61468C9.24889 7.6156 9.25041 7.61609 9.25198 7.61609C9.25355 7.61609 9.25508 7.6156 9.25635 7.61468L9.30131 7.58256L9.34628 7.61468C9.34755 7.61558 9.34907 7.61605 9.35063 7.61604C9.35219 7.61603 9.3537 7.61553 9.35496 7.61462C9.35622 7.6137 9.35717 7.61242 9.35766 7.61094C9.35816 7.60947 9.35818 7.60787 9.35773 7.60638L9.34106 7.55369L9.38549 7.52085C9.38674 7.51992 9.38767 7.51862 9.38814 7.51714C9.38861 7.51565 9.38861 7.51406 9.38813 7.51257C9.38765 7.51109 9.38671 7.5098 9.38545 7.50888C9.3842 7.50795 9.38268 7.50745 9.38112 7.50743L9.32585 7.50701L9.30836 7.4546C9.30788 7.45311 9.30694 7.45181 9.30567 7.45088C9.3044 7.44996 9.30288 7.44947 9.30131 7.44947C9.29975 7.44947 9.29822 7.44996 9.29695 7.45088C9.29569 7.45181 9.29475 7.45311 9.29427 7.4546ZM9.54239 7.34792L9.52489 7.40033L9.46962 7.40076C9.46807 7.40077 9.46655 7.40128 9.46529 7.4022C9.46404 7.40312 9.4631 7.40442 9.46262 7.4059C9.46214 7.40738 9.46213 7.40898 9.46261 7.41046C9.46308 7.41195 9.46401 7.41325 9.46526 7.41417L9.50969 7.44701L9.49302 7.49971C9.49254 7.5012 9.49255 7.50281 9.49303 7.5043C9.49352 7.50579 9.49447 7.50708 9.49574 7.508C9.49701 7.50892 9.49854 7.50942 9.5001 7.50942C9.50167 7.50942 9.5032 7.50893 9.50447 7.50801L9.54943 7.47588L9.5944 7.50801C9.59568 7.5089 9.5972 7.50938 9.59875 7.50936C9.60031 7.50935 9.60182 7.50885 9.60309 7.50794C9.60435 7.50703 9.60529 7.50574 9.60579 7.50427C9.60628 7.50279 9.6063 7.5012 9.60585 7.49971L9.58918 7.44701L9.63361 7.41417C9.63486 7.41325 9.63579 7.41195 9.63626 7.41046C9.63674 7.40898 9.63673 7.40738 9.63625 7.4059C9.63577 7.40442 9.63483 7.40312 9.63357 7.4022C9.63232 7.40128 9.6308 7.40077 9.62924 7.40076L9.57398 7.40033L9.55648 7.34792C9.55423 7.34112 9.5446 7.34112 9.54239 7.34792ZM9.74161 7.16691L9.72411 7.21932L9.66884 7.21975C9.66169 7.21978 9.65876 7.22894 9.66448 7.23316L9.70891 7.266L9.69224 7.3187C9.69176 7.32019 9.69177 7.32179 9.69226 7.32328C9.69274 7.32477 9.69369 7.32607 9.69496 7.32699C9.69623 7.32791 9.69776 7.32841 9.69932 7.32841C9.70089 7.32841 9.70242 7.32791 9.70369 7.32699L9.74865 7.29487L9.79362 7.32699C9.7949 7.32789 9.79642 7.32836 9.79797 7.32835C9.79953 7.32834 9.80105 7.32784 9.80231 7.32693C9.80357 7.32601 9.80451 7.32473 9.80501 7.32325C9.8055 7.32178 9.80552 7.32018 9.80507 7.3187L9.7884 7.266L9.83283 7.23316C9.83408 7.23223 9.83501 7.23093 9.83548 7.22945C9.83596 7.22796 9.83595 7.22637 9.83547 7.22489C9.83499 7.2234 9.83405 7.22211 9.83279 7.22119C9.83154 7.22027 9.83002 7.21976 9.82846 7.21975L9.7732 7.21932L9.7557 7.16691C9.75348 7.16011 9.74386 7.16011 9.74161 7.16691ZM9.87747 6.92591L9.85998 6.97831L9.80471 6.97874C9.79756 6.97878 9.79462 6.98794 9.80035 6.99216L9.84478 7.025L9.82811 7.07769C9.82763 7.07919 9.82763 7.08079 9.82812 7.08228C9.82861 7.08377 9.82956 7.08507 9.83082 7.08599C9.83209 7.08691 9.83362 7.0874 9.83519 7.0874C9.83676 7.08741 9.83828 7.08691 9.83955 7.08599L9.88452 7.05387L9.92949 7.08599C9.93076 7.08689 9.93228 7.08736 9.93384 7.08735C9.9354 7.08734 9.93691 7.08684 9.93817 7.08593C9.93943 7.08501 9.94038 7.08373 9.94087 7.08225C9.94137 7.08078 9.94139 7.07918 9.94093 7.07769L9.92426 7.025L9.96869 6.99216C9.96995 6.99123 9.97087 6.98993 9.97135 6.98845C9.97182 6.98696 9.97182 6.98536 9.97133 6.98388C9.97085 6.9824 9.96992 6.98111 9.96866 6.98018C9.9674 6.97926 9.96589 6.97876 9.96433 6.97874L9.90906 6.97831L9.89157 6.92591C9.89109 6.92442 9.89015 6.92312 9.88888 6.9222C9.88761 6.92127 9.88609 6.92078 9.88452 6.92078C9.88295 6.92078 9.88143 6.92127 9.88016 6.9222C9.8789 6.92312 9.87795 6.92442 9.87747 6.92591ZM9.93743 6.64566L9.91994 6.69807L9.86467 6.6985C9.86311 6.69851 9.86159 6.69902 9.86034 6.69994C9.85908 6.70086 9.85814 6.70215 9.85766 6.70364C9.85718 6.70512 9.85717 6.70672 9.85765 6.7082C9.85812 6.70969 9.85905 6.71098 9.8603 6.71191L9.90473 6.74475L9.88806 6.79745C9.88758 6.79894 9.88759 6.80054 9.88808 6.80203C9.88856 6.80352 9.88951 6.80482 9.89078 6.80574C9.89205 6.80666 9.89358 6.80716 9.89514 6.80716C9.89671 6.80716 9.89824 6.80667 9.89951 6.80575L9.94448 6.77362L9.98944 6.80575C9.99072 6.80664 9.99224 6.80712 9.9938 6.8071C9.99535 6.80709 9.99687 6.80659 9.99813 6.80568C9.99939 6.80477 10.0003 6.80348 10.0008 6.802C10.0013 6.80053 10.0013 6.79894 10.0009 6.79745L9.98422 6.74475L10.0287 6.71191C10.0299 6.71098 10.0308 6.70969 10.0313 6.7082C10.0318 6.70672 10.0318 6.70512 10.0313 6.70364C10.0308 6.70215 10.0299 6.70086 10.0286 6.69994C10.0274 6.69902 10.0258 6.69851 10.0243 6.6985L9.96902 6.69807L9.95152 6.64566C9.94931 6.63886 9.93972 6.63886 9.93743 6.64566Z" fill="#FFBE5A"/>
<path d="M8.81308 7.14735L8.83944 7.27349H8.85082V7.18742C8.85082 7.18742 8.86956 7.24744 8.89611 7.27349H8.91757C8.9073 7.26029 8.88884 7.23288 8.88884 7.20455C8.88884 7.16552 8.91989 7.16019 8.91989 7.11844H8.94651V7.27345H8.96207L8.9909 7.13533C8.9909 7.13533 9.01466 7.22172 9.05937 7.27345H9.07926C9.06492 7.25238 9.03512 7.198 9.04059 7.1158C9.04059 7.1158 9.0832 7.09448 9.0832 7.03681V6.95475C9.0832 6.9394 9.09568 6.92692 9.11103 6.92692H9.13017C9.13017 6.92692 9.10169 6.87168 9.07125 6.86367V6.82904L9.04832 6.8637C9.02643 6.86843 9.01351 6.88867 9.01351 6.91035V6.96033C9.01351 6.96771 9.01058 6.97479 9.00536 6.98001C9.00014 6.98523 8.99306 6.98816 8.98568 6.98816H8.8862C8.85675 6.98816 8.80957 7.0176 8.80957 7.05534C8.80957 7.09308 8.83787 7.11784 8.83787 7.11784L8.81308 7.14735Z" fill="#F5F5F5"/>
<path d="M9.25876 7.02161H9.24964C9.17752 7.02554 9.13724 7.07298 9.13724 7.07298L9.21039 7.14613V7.28379H9.29793V7.14613L9.37109 7.07298C9.37116 7.07298 9.33088 7.02558 9.25876 7.02161Z" fill="#FFBE5A"/>
<path d="M9.4126 6.79651H9.43903V7.28424H9.4126V6.79651Z" fill="#F5F5F5"/>
<path d="M9.4266 6.79276L9.28397 6.96515C9.28397 6.96515 9.26537 6.88205 9.34847 6.80023L9.16495 6.83372C9.16495 6.83372 9.22076 6.72955 9.36707 6.74071L9.21704 6.61547C9.21704 6.61547 9.346 6.60806 9.41172 6.70475C9.41172 6.70475 9.44888 6.59318 9.55305 6.58821L9.46709 6.71881C9.46709 6.71881 9.55305 6.67499 9.67211 6.71345L9.49478 6.7606C9.49478 6.7606 9.59398 6.77051 9.6349 6.9156L9.48115 6.81021C9.48115 6.81021 9.5283 6.86602 9.51091 6.97513L9.4266 6.79276ZM7.60246 5.58306L7.2532 5.40845L7.50719 5.7259H7.65003L7.60246 5.58306Z" fill="#F5F5F5"/>
<path d="M9.40621 5.3809L10.3484 5.091L9.84823 4.90348C9.75913 4.87005 9.66475 4.85294 9.56959 4.85297H9.4754C9.45436 4.85297 9.43417 4.86133 9.41929 4.87621C9.40441 4.89109 9.39606 4.91127 9.39606 4.93231V5.01166H8.91984V4.93231C8.91984 4.91127 8.91148 4.89109 8.8966 4.87621C8.88172 4.86133 8.86154 4.85297 8.8405 4.85297H8.74631C8.65115 4.85297 8.55675 4.8701 8.46767 4.90348L7.96753 5.091L8.90968 5.3809C8.9207 5.3843 8.93084 5.39005 8.93941 5.39776C8.94797 5.40547 8.95476 5.41496 8.95929 5.42555C8.96383 5.43615 8.966 5.44761 8.96566 5.45913C8.96532 5.47065 8.96248 5.48195 8.95733 5.49227L8.8405 5.7259H9.4754L9.35856 5.49227C9.3534 5.48196 9.35055 5.47065 9.35021 5.45912C9.34986 5.4476 9.35203 5.43614 9.35657 5.42554C9.3611 5.41494 9.3679 5.40545 9.37647 5.39775C9.38504 5.39004 9.39519 5.38429 9.40621 5.3809Z" fill="#825546"/>
<path d="M9.1579 5.24951C9.24554 5.24951 9.31659 5.17846 9.31659 5.09082C9.31659 5.00318 9.24554 4.93213 9.1579 4.93213C9.07025 4.93213 8.99921 5.00318 8.99921 5.09082C8.99921 5.17846 9.07025 5.24951 9.1579 5.24951Z" fill="#F5F5F5"/>
<path d="M9.23728 5.09098C9.23728 5.1014 9.23523 5.11171 9.23124 5.12134C9.22725 5.13097 9.22141 5.13971 9.21404 5.14708C9.20667 5.15445 9.19793 5.16029 9.1883 5.16428C9.17867 5.16827 9.16835 5.17032 9.15794 5.17032H8.84048L8.97596 5.03485C8.99084 5.01997 9.01101 5.0116 9.03209 5.0116H9.1579C9.17895 5.01161 9.19913 5.01997 9.21402 5.03486C9.2289 5.04974 9.23727 5.06993 9.23728 5.09098Z" fill="#FFBE5A"/>
</svg>
