<svg width="19" height="12" viewBox="0 0 19 12" fill="none" xmlns="http://www.w3.org/2000/svg">
<path d="M16.944 0H1.37171C0.614112 0 0 0.614112 0 1.37171V10.6283C0 11.3859 0.614112 12 1.37171 12H16.944C17.7015 12 18.3157 11.3859 18.3157 10.6283V1.37171C18.3157 0.614112 17.7016 0 16.944 0Z" fill="#73AF00"/>
<path d="M8.99365 1.67889L2.33789 5.7302C2.13574 5.85322 2.13574 6.14663 2.33789 6.26969L8.99365 10.3211C9.09449 10.3825 9.22116 10.3825 9.32204 10.3211L15.9778 6.26972C16.1799 6.1467 16.1799 5.85329 15.9778 5.73023L9.32204 1.67889C9.2212 1.61754 9.09449 1.61754 8.99365 1.67889Z" fill="#FFE15A"/>
<path d="M9.15784 8.52619C10.5531 8.52619 11.6841 7.39514 11.6841 5.99991C11.6841 4.60469 10.5531 3.47363 9.15784 3.47363C7.76261 3.47363 6.63156 4.60469 6.63156 5.99991C6.63156 7.39514 7.76261 8.52619 9.15784 8.52619Z" fill="#41479B"/>
<path d="M6.99004 4.70757C6.87084 4.90711 6.7788 5.12397 6.71799 5.35424C8.11846 5.24885 10.1902 5.64064 11.5088 6.92012C11.5948 6.70044 11.6517 6.46642 11.673 6.22177C10.3114 5.07586 8.42911 4.66837 6.99004 4.70757Z" fill="#F5F5F5"/>
<path d="M9.26247 6.86214L9.32972 7.06383L9.54232 7.06547C9.56983 7.06569 9.58124 7.10082 9.5591 7.11717L9.38807 7.24348L9.45221 7.44617C9.46051 7.47243 9.4306 7.49414 9.40824 7.47811L9.23528 7.35448L9.06232 7.47811C9.03993 7.4941 9.01005 7.47243 9.01835 7.44617L9.08249 7.24348L8.91147 7.11717C8.88932 7.10082 8.90073 7.06569 8.92824 7.06547L9.14084 7.06383L9.20809 6.86214C9.21682 6.83599 9.25374 6.83599 9.26247 6.86214Z" fill="#F5F5F5"/>
<path d="M10.0888 7.38382L10.1177 7.4706L10.2092 7.47132C10.2211 7.47139 10.226 7.48652 10.2164 7.49357L10.1428 7.54791L10.1704 7.63516C10.1739 7.64646 10.1611 7.6558 10.1514 7.64889L10.077 7.5957L10.0026 7.64889C9.99293 7.6558 9.98006 7.64646 9.98363 7.63516L10.0112 7.54791L9.93759 7.49357C9.92804 7.48656 9.93298 7.47142 9.94482 7.47132L10.0363 7.4706L10.0653 7.38382C10.0691 7.37255 10.085 7.37255 10.0888 7.38382Z" fill="#F5F5F5"/>
<path d="M8.90516 6.47895L8.9341 6.56574L9.02561 6.56645C9.03745 6.56652 9.04238 6.58166 9.03283 6.5887L8.95921 6.64304L8.98679 6.73029C8.99033 6.7416 8.97753 6.75093 8.96787 6.74403L8.89343 6.69083L8.81898 6.74403C8.80936 6.75093 8.79648 6.7416 8.80002 6.73029L8.8276 6.64304L8.75398 6.5887C8.74447 6.58169 8.74937 6.56656 8.76121 6.56645L8.85272 6.56574L8.88166 6.47895C8.88548 6.46779 8.9014 6.46779 8.90516 6.47895Z" fill="#F5F5F5"/>
<path d="M7.30227 6.37363L7.33121 6.46042L7.42272 6.46113C7.43456 6.4612 7.43949 6.47634 7.42994 6.48338L7.35632 6.53772L7.3839 6.62497C7.38745 6.63628 7.37464 6.64561 7.36494 6.63871L7.2905 6.58551L7.21606 6.63871C7.20643 6.64558 7.19356 6.63628 7.19713 6.62497L7.22471 6.53772L7.15109 6.48338C7.14154 6.47637 7.14648 6.46124 7.15832 6.46113L7.24983 6.46042L7.27877 6.37363C7.28263 6.36244 7.29851 6.36244 7.30227 6.37363Z" fill="#F5F5F5"/>
<path d="M8.64317 7.35388L8.67211 7.44067L8.76361 7.44138C8.77545 7.44145 8.78039 7.45659 8.77084 7.46363L8.69722 7.51797L8.7248 7.60522C8.72834 7.61653 8.71553 7.62586 8.70588 7.61896L8.63143 7.56577L8.55699 7.61896C8.54737 7.62586 8.53449 7.61653 8.53803 7.60522L8.56561 7.51797L8.49199 7.46363C8.48247 7.45662 8.48738 7.44149 8.49922 7.44138L8.59072 7.44067L8.61966 7.35388C8.62353 7.34265 8.63945 7.34265 8.64317 7.35388Z" fill="#F5F5F5"/>
<path d="M7.90543 6.31308L7.92911 6.38406L8.00395 6.38466C8.01361 6.38474 8.01765 6.39711 8.00989 6.40287L7.94968 6.4473L7.97226 6.51863C7.97519 6.52786 7.96467 6.53552 7.95677 6.52987L7.89588 6.48637L7.83499 6.52987C7.82709 6.53552 7.81661 6.52786 7.81951 6.51863L7.84208 6.4473L7.78187 6.40287C7.77411 6.39711 7.77808 6.38474 7.78781 6.38466L7.86265 6.38406L7.88633 6.31308C7.88937 6.30392 7.90236 6.30392 7.90543 6.31308Z" fill="#F5F5F5"/>
<path d="M10.153 4.84787L10.1826 4.93665L10.2762 4.93737C10.2883 4.93744 10.2933 4.95293 10.2835 4.96016L10.2083 5.01575L10.2365 5.105C10.2402 5.11655 10.227 5.12611 10.2172 5.11906L10.141 5.06461L10.0648 5.11906C10.055 5.12614 10.0418 5.11652 10.0455 5.105L10.0737 5.01575L9.99844 4.96016C9.98867 4.95297 9.99372 4.93751 10.0058 4.93737L10.0994 4.93665L10.129 4.84787C10.1329 4.83627 10.1491 4.83627 10.153 4.84787Z" fill="#F5F5F5"/>
<path d="M7.40536 5.87897L7.42904 5.94994L7.50387 5.95055C7.51353 5.95062 7.51758 5.963 7.50981 5.96876L7.44961 6.01319L7.47218 6.08452C7.47511 6.09375 7.4646 6.1014 7.45669 6.09575L7.3958 6.05225L7.33492 6.09575C7.32701 6.1014 7.31653 6.09375 7.31943 6.08452L7.342 6.01319L7.2818 5.96876C7.274 5.963 7.278 5.95065 7.28773 5.95055L7.36257 5.94994L7.38625 5.87897C7.38929 5.86977 7.40228 5.86977 7.40536 5.87897Z" fill="#F5F5F5"/>
<path d="M7.76667 6.87936L7.80251 6.98686L7.91584 6.98772C7.93051 6.98782 7.93659 7.00653 7.92478 7.01526L7.8336 7.08259L7.8678 7.19062C7.87223 7.20461 7.85631 7.2162 7.84436 7.20765L7.75214 7.14172L7.65992 7.20765C7.64801 7.21616 7.63205 7.20461 7.63649 7.19062L7.67069 7.08259L7.5795 7.01526C7.5677 7.00653 7.57378 6.98782 7.58845 6.98772L7.70177 6.98686L7.73762 6.87936C7.74238 6.86541 7.76205 6.86541 7.76667 6.87936Z" fill="#F5F5F5"/>
<path d="M10.5495 7.40629L10.572 7.47394L10.6433 7.47448C10.6526 7.47455 10.6564 7.48632 10.649 7.49179L10.5916 7.53414L10.6131 7.60211C10.6159 7.61091 10.6059 7.61818 10.5984 7.61281L10.5404 7.57135L10.4823 7.61281C10.4748 7.61818 10.4648 7.61091 10.4676 7.60211L10.4891 7.53414L10.4317 7.49179C10.4243 7.48632 10.4282 7.47455 10.4374 7.47448L10.5087 7.47394L10.5312 7.40629C10.5341 7.39753 10.5466 7.39753 10.5495 7.40629Z" fill="#F5F5F5"/>
<path d="M10.799 6.89017L10.8279 6.97695L10.9194 6.97767C10.9312 6.97774 10.9362 6.99287 10.9266 6.99992L10.853 7.05426L10.8806 7.14151C10.8841 7.15281 10.8713 7.16215 10.8617 7.15524L10.7872 7.10205L10.7128 7.15524C10.7032 7.16215 10.6903 7.15281 10.6939 7.14151L10.7214 7.05426L10.6478 6.99992C10.6383 6.9929 10.6432 6.97777 10.655 6.97767L10.7465 6.97695L10.7755 6.89017C10.7793 6.8789 10.7952 6.8789 10.799 6.89017Z" fill="#F5F5F5"/>
</svg>
