<svg width="19" height="13" viewBox="0 0 19 13" fill="none" xmlns="http://www.w3.org/2000/svg">
<path d="M0.315803 6H0.631605H5.6842C5.85859 6 6 5.85859 6 5.6842V0.315802C6 0.14141 5.85859 0 5.6842 0H1.37171C0.614112 3.57728e-05 0 0.614148 0 1.37175V5.68423C0 5.85859 0.14141 6 0.315803 6Z" fill="#41479B"/>
<path d="M17.2598 0H6C6.17439 0 6.3158 0.14141 6.3158 0.315802V5.6842C6.3158 5.85859 6.17439 6 6 6H18.6315V1.37171C18.6315 0.614112 18.0174 0 17.2598 0Z" fill="#F5F5F5"/>
<path d="M0.63157 6.3158H0.315803C0.14141 6.3158 0 6.17439 0 6V6.3158V6.63161V10.9441C0 11.7017 0.614112 12.3158 1.37171 12.3158H16.944C17.7015 12.3158 18.3157 11.7017 18.3157 10.9441V6.3158H5.6842H0.63157Z" fill="#FF4B55"/>
<path d="M3.1216 1.00217L3.42266 1.5494L4.37422 1.55386C4.49742 1.55443 4.54851 1.64976 4.44938 1.69411L3.68391 2.03677L3.97092 2.58678C4.00805 2.65799 3.87433 2.71687 3.7741 2.67345L2.99997 2.33804L2.22581 2.67348C2.12558 2.71691 1.99186 2.65799 2.02899 2.5868L2.31599 2.03679L1.55053 1.69413C1.4514 1.64976 1.50252 1.55445 1.62569 1.55389L2.57724 1.54942L2.87831 1.00219C2.9173 0.931321 3.08264 0.931321 3.1216 1.00217Z" fill="#F5F5F5"/>
</svg>
