<svg width="19" height="12" viewBox="0 0 19 12" fill="none" xmlns="http://www.w3.org/2000/svg">
<path d="M1.84053 0C1.59878 -2.69563e-07 1.3594 0.05075 1.13609 0.149348C0.912775 0.247945 0.709907 0.392456 0.539088 0.574614C0.368269 0.756771 0.232851 0.973001 0.14058 1.21094C0.0483085 1.44887 0.000994845 1.70384 0.0013447 1.96127V10.0387C0.000994845 10.2962 0.0483085 10.5511 0.14058 10.7891C0.232851 11.027 0.368269 11.2432 0.539088 11.4254C0.709907 11.6075 0.912775 11.7521 1.13609 11.8507C1.3594 11.9493 1.59878 12 1.84053 12H16.4715C16.7132 12 16.9526 11.9493 17.1759 11.8507C17.3993 11.7521 17.6021 11.6075 17.7729 11.4254C17.9438 11.2432 18.0792 11.027 18.1714 10.7891C18.2637 10.5511 18.311 10.2962 18.3107 10.0387V1.96127C18.311 1.70384 18.2637 1.44887 18.1714 1.21094C18.0792 0.973001 17.9438 0.756771 17.7729 0.574614C17.6021 0.392456 17.3993 0.247945 17.1759 0.149348C16.9526 0.05075 16.7132 -2.69563e-07 16.4715 0H1.84053Z" fill="#ECECEC"/>
<path d="M9.15607 1.71469V2.57062H18.3107V1.71469H9.15607ZM9.15607 3.42938V4.28531H18.3107V3.42938H9.15607ZM9.15607 5.14124V6H18.3107V5.14124H9.15607ZM0.00140381 6.85593V7.71469H18.3107V6.85593H0.00140381ZM0.00140381 8.57062V9.42655H18.3107V8.57062H0.00140381ZM9.15341 0V0.858762H18.1298C18.0363 0.594757 17.9106 0.378518 17.7636 0.228851C17.6165 0.0791848 17.4526 0.000623345 17.2862 0H9.15341Z" fill="#D40000"/>
<path d="M1.84026 0C1.59855 -2.69563e-07 1.35921 0.05075 1.13592 0.149348C0.912642 0.247945 0.709804 0.392456 0.539009 0.574614C0.368215 0.756771 0.232817 0.973001 0.140559 1.21094C0.0483016 1.44887 0.000994896 1.70384 0.0013447 1.96127V6.85593H9.15602V0H1.84026Z" fill="#0151BA"/>
<path d="M6.22621 4.06988L6.08781 5.03351L5.94941 4.06988L5.43571 4.87479L5.70187 3.94234L4.90871 4.42982L5.53153 3.71561L4.61859 3.78646L5.47031 3.42935L4.61859 3.07224L5.53153 3.1431L4.90871 2.42888L5.70187 2.91353L5.43571 1.98391L5.94941 2.78882L6.08781 1.8252L6.22355 2.78882L6.73991 1.98391L6.47375 2.91353L7.26425 2.42888L6.64409 3.1431L7.55703 3.07224L6.70531 3.42935L7.55703 3.78363L6.64409 3.71277L7.26691 4.42699L6.47375 3.94518L6.73991 4.87479L6.22621 4.06988Z" fill="#FFCC00"/>
<path d="M3.77287 1.11664C3.19685 1.11664 2.64442 1.3603 2.23711 1.79401C1.82981 2.22773 1.60098 2.81598 1.60098 3.42934C1.60098 4.04271 1.82981 4.63096 2.23711 5.06468C2.64442 5.49839 3.19685 5.74205 3.77287 5.74205C4.0598 5.74243 4.34396 5.68226 4.60893 5.56502C4.8739 5.44778 5.11443 5.2758 5.31662 5.05901C5.00581 5.28677 4.63724 5.40836 4.25995 5.40762C3.76723 5.40762 3.29468 5.19919 2.94627 4.82819C2.59787 4.4572 2.40213 3.95401 2.40213 3.42934C2.40213 2.90467 2.59787 2.40149 2.94627 2.0305C3.29468 1.6595 3.76723 1.45107 4.25995 1.45107C4.63843 1.45058 5.00803 1.5732 5.31928 1.80251C5.11731 1.58521 4.87688 1.4127 4.6119 1.29497C4.34692 1.17725 4.05999 1.11663 3.77287 1.11664Z" fill="#FFCC00"/>
<path d="M0.0173035 10.2853C0.0543603 10.5924 0.159242 10.8857 0.323346 11.1413H17.9887C18.1518 10.8855 18.2558 10.5922 18.292 10.2853H0.0173035Z" fill="#D40000"/>
</svg>
