<svg width="19" height="12" viewBox="0 0 19 12" fill="none" xmlns="http://www.w3.org/2000/svg">
<path d="M1.37169 0C0.614105 0 0 0.614105 0 1.37169V10.6281C0 11.3857 0.614105 11.9998 1.37169 11.9998H6.10517V0H1.37169Z" fill="#73AF00"/>
<path d="M12.2106 0.00012207H6.10529V12H12.2106V0.00012207Z" fill="#F5F5F5"/>
<path d="M16.9438 0H12.2103V11.9998H16.9438C17.7014 11.9998 18.3155 11.3857 18.3155 10.6281V1.37169C18.3155 0.614105 17.7014 0 16.9438 0Z" fill="#FF4B55"/>
<path d="M9.70235 6.28235L9.15771 6.55468V6.82702H9.43005L9.70235 6.28235Z" fill="#FFD250"/>
<path d="M9.15779 7.50789C9.08253 7.50789 9.02161 7.44697 9.02161 7.37174V6.8271C9.02161 6.75184 9.08253 6.69092 9.15779 6.69092C9.23306 6.69092 9.29394 6.75184 9.29394 6.8271V7.37174C9.29394 7.44697 9.23306 7.50789 9.15779 7.50789Z" fill="#00C3A0"/>
<path d="M9.15775 6.96325C8.62291 6.96325 8.10647 6.75688 7.70346 6.38216C7.6484 6.33097 7.64522 6.2448 7.69644 6.18978C7.74803 6.13487 7.8341 6.13193 7.88886 6.18269C8.24137 6.51048 8.69203 6.69091 9.15782 6.69091C9.62361 6.69091 10.0743 6.51048 10.4268 6.18269C10.4817 6.13179 10.5677 6.13458 10.6192 6.18978C10.6703 6.24483 10.6672 6.33097 10.6121 6.38216C10.209 6.75688 9.69258 6.96325 9.15775 6.96325Z" fill="#00C3A0"/>
<path d="M9.15775 7.50782C8.80868 7.50782 8.47056 7.40583 8.17987 7.21277L8.33065 6.9859C8.82213 7.31247 9.49336 7.31247 9.9848 6.9859L10.1356 7.21277C9.84493 7.40583 9.50681 7.50782 9.15775 7.50782Z" fill="#00AADC"/>
<path d="M8.94214 5.66962L8.64148 6.13487L8.59039 6.28805L9.37334 6.1065L8.94214 5.66962Z" fill="#732D37"/>
<path d="M8.3244 6.43765C7.96446 6.43765 7.5324 6.13473 7.41779 5.45977L7.6864 5.41431C7.78163 5.97558 8.12697 6.16571 8.33424 6.16521C8.39781 6.16345 8.46413 6.14152 8.46935 6.09659C8.47547 6.04286 8.47694 6.03013 8.33453 5.98198C8.25711 5.95576 8.16936 5.92614 8.1078 5.85567C7.85872 5.57124 8.19594 5.27022 8.35796 5.12555C8.38654 5.10001 8.39838 5.07833 8.39534 5.07011C8.38643 5.04682 8.33299 5.01162 8.27275 5.01162C8.09975 5.01162 7.9685 4.91389 7.93037 4.7567C7.89073 4.59394 7.9656 4.42241 8.10816 4.34875L8.23318 4.59076C8.19977 4.60803 8.18654 4.65722 8.19501 4.69235C8.19834 4.70644 8.20646 4.73928 8.27282 4.73928C8.43955 4.73928 8.5982 4.83769 8.64979 4.97305C8.67186 5.03076 8.70509 5.18075 8.53943 5.32874C8.36057 5.48846 8.25354 5.60866 8.31285 5.67634C8.32626 5.69162 8.38386 5.71118 8.42188 5.72395C8.54447 5.76545 8.77267 5.84258 8.73997 6.12779C8.71947 6.30715 8.55939 6.4316 8.34186 6.43751C8.33596 6.43751 8.33009 6.43765 8.3244 6.43765Z" fill="#AAD264"/>
<path d="M9.43005 4.9207C9.43005 4.9207 9.70239 4.37607 9.15771 4.10373C9.15771 4.10373 11.064 3.83139 10.7917 6.28238L10.7915 6.28227C10.6128 6.13929 10.3475 5.87797 10.2527 5.66963L9.43005 5.19304V4.9207Z" fill="#874150"/>
<path d="M9.15771 5.46539L10.5193 6.28236C10.5193 6.28236 10.5193 6.28236 9.97469 6.5547L9.15771 5.73773V5.46539Z" fill="#732D37"/>
<path d="M8.6131 4.64842C8.76349 4.64842 8.88543 4.77037 8.88543 4.92076L8.88515 4.92108C8.72267 5.08356 8.68243 5.33171 8.78516 5.53723L8.84669 5.66032C8.87234 5.71162 8.90611 5.75848 8.94668 5.79904L9.7024 6.55481V6.17845C9.7024 5.70958 9.59323 5.24715 9.38356 4.82779C9.24516 4.55102 8.96227 4.37616 8.65284 4.37616H8.6131V4.64842Z" fill="#783C46"/>
<path d="M8.61312 4.3761L8.34079 4.64843V4.92077C8.34079 4.92077 8.66474 4.75654 8.77392 4.7042C8.85022 4.66764 8.83635 4.58118 8.79256 4.53951C8.75847 4.5071 8.61312 4.3761 8.61312 4.3761Z" fill="#FFD250"/>
<path d="M9.15775 8.05249C7.88135 8.05249 6.84299 7.01413 6.84299 5.73773H7.11532C7.11532 6.86403 8.03149 7.78019 9.15778 7.78019C10.2841 7.78019 11.2002 6.86403 11.2002 5.73773H11.4726C11.4725 7.01413 10.4341 8.05249 9.15775 8.05249Z" fill="#AAD264"/>
<path d="M7.13017 6.73062C7.23224 6.73062 7.31497 6.64789 7.31497 6.54582C7.31497 6.44376 7.23224 6.36102 7.13017 6.36102C7.02811 6.36102 6.94537 6.44376 6.94537 6.54582C6.94537 6.64789 7.02811 6.73062 7.13017 6.73062Z" fill="#FFE15A"/>
<path d="M7.53865 7.38315C7.64071 7.38315 7.72345 7.30041 7.72345 7.19835C7.72345 7.09629 7.64071 7.01355 7.53865 7.01355C7.43659 7.01355 7.35385 7.09629 7.35385 7.19835C7.35385 7.30041 7.43659 7.38315 7.53865 7.38315Z" fill="#FFE15A"/>
<path d="M8.20223 7.87644C8.30429 7.87644 8.38703 7.7937 8.38703 7.69164C8.38703 7.58957 8.30429 7.50684 8.20223 7.50684C8.10016 7.50684 8.01743 7.58957 8.01743 7.69164C8.01743 7.7937 8.10016 7.87644 8.20223 7.87644Z" fill="#FFE15A"/>
<path d="M11.205 6.73062C11.307 6.73062 11.3898 6.64789 11.3898 6.54582C11.3898 6.44376 11.307 6.36102 11.205 6.36102C11.1029 6.36102 11.0202 6.44376 11.0202 6.54582C11.0202 6.64789 11.1029 6.73062 11.205 6.73062Z" fill="#FFE15A"/>
<path d="M10.7961 7.38315C10.8982 7.38315 10.9809 7.30041 10.9809 7.19835C10.9809 7.09629 10.8982 7.01355 10.7961 7.01355C10.694 7.01355 10.6113 7.09629 10.6113 7.19835C10.6113 7.30041 10.694 7.38315 10.7961 7.38315Z" fill="#FFE15A"/>
<path d="M10.1325 7.87644C10.2346 7.87644 10.3173 7.7937 10.3173 7.69164C10.3173 7.58957 10.2346 7.50684 10.1325 7.50684C10.0305 7.50684 9.94772 7.58957 9.94772 7.69164C9.94772 7.7937 10.0305 7.87644 10.1325 7.87644Z" fill="#FFE15A"/>
<path d="M9.29388 7.64398H9.02154C8.87115 7.64398 8.74921 7.52203 8.74921 7.37164C8.74921 7.22125 8.87115 7.0993 9.02154 7.0993H9.29388C9.44426 7.0993 9.56621 7.22125 9.56621 7.37164C9.56625 7.52206 9.4443 7.64398 9.29388 7.64398Z" fill="#FFB478"/>
<path d="M10.2527 5.66956C10.3435 5.93621 10.5363 6.18018 10.7915 6.2822L10.7917 6.28231C11.064 3.83139 9.15771 4.10373 9.15771 4.10373C10.5193 4.10373 10.2527 5.66956 10.2527 5.66956Z" fill="#9B4B5A"/>
</svg>
