<svg width="19" height="12" viewBox="0 0 19 12" fill="none" xmlns="http://www.w3.org/2000/svg">
<path d="M2.03509 0H1.37172C0.614116 0 0 0.614116 0 1.37172V1.61111L5.54389 6L0 10.389V10.6283C0 11.3858 0.614116 12 1.37172 12H2.03491L8.01839 7.26315H18.3158V4.73685H8.01846L2.03509 0Z" fill="#73AF00"/>
<path d="M16.9441 0H2.52634L8.21057 4.42105H18.3158V1.37172C18.3158 0.614116 17.7017 0 16.9441 0Z" fill="#FF4B55"/>
<path d="M2.52634 12H16.9441C17.7017 12 18.3158 11.3859 18.3158 10.6282V7.57892H8.21053L2.52634 12Z" fill="#41479B"/>
<path d="M8.01845 7.26318L2.03494 12H3.05251L8.23817 7.89479H18.3158V7.26318H8.01845Z" fill="#F5F5F5"/>
<path d="M0 2.21051V9.78946L5.05262 5.99999L0 2.21051Z" fill="#464655"/>
<path d="M3.05259 0H2.03506L8.01843 4.73685H18.3158V4.10524H8.23818L3.05259 0Z" fill="#F5F5F5"/>
<path d="M0 1.61108V2.41662L4.52637 5.99997L0 9.58347V10.389L5.54389 5.99997L0 1.61108Z" fill="#FFE15A"/>
</svg>
