<svg width="19" height="12" viewBox="0 0 19 12" fill="none" xmlns="http://www.w3.org/2000/svg">
<path d="M16.9481 0H1.3703C0.611807 0 0 0.615384 0 1.3703V10.6297C0 11.3882 0.615385 12 1.3703 12H16.9445C17.703 12 18.3148 11.3846 18.3148 10.6297V1.3703C18.3184 0.611807 17.703 0 16.9481 0Z" fill="#F5F5F5"/>
<path d="M0 10.6297C0 11.3882 0.615385 12 1.3703 12H16.9445C17.703 12 18.3148 11.3846 18.3148 10.6297V10.1073H0V10.6297Z" fill="#FF4B55"/>
<path d="M16.9481 0H1.3703C0.611807 0 0 0.615384 0 1.3703V1.89267H18.3184V1.3703C18.3184 0.611807 17.703 0 16.9481 0Z" fill="#FF4B55"/>
<path d="M18.3184 3.78889H0V8.21107H18.3184V3.78889Z" fill="#41479B"/>
</svg>
