<svg width="19" height="12" viewBox="0 0 19 12" fill="none" xmlns="http://www.w3.org/2000/svg">
<path d="M16.9481 0H1.3703C0.615385 0 0 0.611807 0 1.3703V10.6297C0 11.3882 0.615385 12 1.3703 12H16.9445C17.703 12 18.3148 11.3846 18.3148 10.6297V1.3703C18.3184 0.611807 17.703 0 16.9481 0Z" fill="#FF4B55"/>
<path d="M9.30594 2.42214L10.1503 4.95523L12.8194 4.9767C12.9696 4.9767 13.0304 5.1699 12.9088 5.25577L10.7621 6.84074L11.5671 9.38457C11.6136 9.52768 11.449 9.64575 11.3274 9.55631L9.15924 8.00711L6.98751 9.55988C6.86586 9.64575 6.70486 9.52768 6.7478 9.38815L7.5528 6.84432L5.40611 5.25935C5.28447 5.1699 5.34887 4.98028 5.49556 4.98028L8.16461 4.95881L9.00898 2.42572C9.05907 2.27903 9.25942 2.27903 9.30594 2.42214Z" fill="#FFE15A"/>
</svg>
