<svg width="80" height="80" viewBox="0 0 80 80" fill="none" xmlns="http://www.w3.org/2000/svg">
<g id="icon-choice">
<rect width="80" height="80" rx="21" fill="#E4EFFC"/>
<g id="Vector" filter="url(#filter0_d_6610_110)">
<path d="M56.425 32.2154H55.3465V44.0402C55.3465 45.8813 54.2718 47.5461 52.1174 47.5461H31.0096V48.1083C31.0096 49.736 32.8656 51.3791 34.7716 51.3791H50.9095L57.0834 55L56.188 51.3791H56.425C58.3297 51.3791 59.1892 49.7399 59.1892 48.1083V35.0224C59.1892 33.3947 58.3297 32.2154 56.425 32.2154Z" fill="#0792FF"/>
<path d="M48.9664 24H24.4502C22.2932 24 19.8108 25.9114 19.8108 27.7538V42.5747C19.8108 44.2714 21.914 45.4967 23.9314 45.6858L22.6185 50.6572L31.0314 45.7203H48.9664C51.1234 45.7203 53.1139 44.4158 53.1139 42.5747V27.7538C53.1139 25.9114 51.1221 24 48.9664 24ZM28.1904 36.5109C26.9671 36.5109 25.9757 35.522 25.9757 34.3018C25.9757 33.0816 26.9671 32.0927 28.1904 32.0927C29.4123 32.0927 30.405 33.0816 30.405 34.3018C30.405 35.522 29.4123 36.5109 28.1904 36.5109ZM36.4624 36.5109C35.2391 36.5109 34.2477 35.522 34.2477 34.3018C34.2477 33.0816 35.2391 32.0927 36.4624 32.0927C37.6856 32.0927 38.677 33.0816 38.677 34.3018C38.677 35.522 37.6856 36.5109 36.4624 36.5109ZM44.7356 36.5109C43.5124 36.5109 42.5197 35.522 42.5197 34.3018C42.5197 33.0816 43.5124 32.0927 44.7356 32.0927C45.9563 32.0927 46.9503 33.0816 46.9503 34.3018C46.9503 35.522 45.9563 36.5109 44.7356 36.5109Z" fill="#0792FF"/>
</g>
</g>
<defs>
<filter id="filter0_d_6610_110" x="11.8108" y="20" width="55.3784" height="47" filterUnits="userSpaceOnUse" color-interpolation-filters="sRGB">
<feFlood flood-opacity="0" result="BackgroundImageFix"/>
<feColorMatrix in="SourceAlpha" type="matrix" values="0 0 0 0 0 0 0 0 0 0 0 0 0 0 0 0 0 0 127 0" result="hardAlpha"/>
<feOffset dy="4"/>
<feGaussianBlur stdDeviation="4"/>
<feComposite in2="hardAlpha" operator="out"/>
<feColorMatrix type="matrix" values="0 0 0 0 0.027451 0 0 0 0 0.572549 0 0 0 0 1 0 0 0 0.25 0"/>
<feBlend mode="normal" in2="BackgroundImageFix" result="effect1_dropShadow_6610_110"/>
<feBlend mode="normal" in="SourceGraphic" in2="effect1_dropShadow_6610_110" result="shape"/>
</filter>
</defs>
</svg>
