<svg width="20" height="18" viewBox="0 0 20 18" fill="none" xmlns="http://www.w3.org/2000/svg">
<path d="M19.1667 2.33331H15.5556V0.944417C15.5556 0.482612 15.184 0.111084 14.7222 0.111084H5.27778C4.81597 0.111084 4.44444 0.482612 4.44444 0.944417V2.33331H0.833333C0.371528 2.33331 0 2.70483 0 3.16664V5.11108C0 6.35067 0.78125 7.62497 2.14931 8.60761C3.24306 9.39581 4.57292 9.89581 5.96875 10.0555C7.05903 11.8646 8.33333 12.6111 8.33333 12.6111V15.1111H6.66667C5.44097 15.1111 4.44444 15.8298 4.44444 17.0555V17.4722C4.44444 17.7014 4.63194 17.8889 4.86111 17.8889H15.1389C15.3681 17.8889 15.5556 17.7014 15.5556 17.4722V17.0555C15.5556 15.8298 14.559 15.1111 13.3333 15.1111H11.6667V12.6111C11.6667 12.6111 12.941 11.8646 14.0313 10.0555C15.4306 9.89581 16.7604 9.39581 17.8507 8.60761C19.2153 7.62497 20 6.35067 20 5.11108V3.16664C20 2.70483 19.6285 2.33331 19.1667 2.33331ZM3.44792 6.80553C2.60069 6.19442 2.22222 5.51386 2.22222 5.11108V4.55553H4.45139C4.48611 5.68747 4.65278 6.68053 4.89583 7.54858C4.37153 7.36803 3.88194 7.11803 3.44792 6.80553ZM17.7778 5.11108C17.7778 5.67011 17.1632 6.36456 16.5521 6.80553C16.1181 7.11803 15.625 7.36803 15.1007 7.54858C15.3438 6.68053 15.5104 5.68747 15.5451 4.55553H17.7778V5.11108Z" fill="#767E9C"/>
</svg>
