<svg
   fill="#c8cddc"
   width="30"
   height="30"
   fill-rule="evenodd"
   image-rendering="optimizeQuality"
   shape-rendering="geometricPrecision"
   viewBox="0 0 3.4207736 4.4900137"
   version="1.1"
   id="svg37"
   xmlns="http://www.w3.org/2000/svg">
  <defs
     id="defs41" />
  <path
     fill-rule="nonzero"
     d="m 2.4607736,3.9900008 a 0.47,0.47 0 0 1 -0.18,0.36 0.63,0.63 0 0 1 -0.4,0.14 h -0.37 c -0.15,0 -0.3,-0.05 -0.4,-0.14 a 0.47,0.47 0 0 1 -0.17999996,-0.36 H 1.2307736 c 0,0.05 0.03,0.1 0.08,0.13 0.05,0.05 0.12,0.07 0.2,0.07 h 0.37 c 0.08,0 0.16,-0.02 0.2,-0.07 a 0.17,0.17 0 0 0 0.07,-0.13 h 0.3 z m 0,-1.1 a 1.38,1.38 0 0 0 0.47,-0.49 c 0.1,-0.2 0.18,-0.44 0.18,-0.7 a 1.44,1.44 0 0 0 -0.41,-0.99999996 1.422,1.422 0 0 0 -1.99999996,0 c -0.26,0.26 -0.42,0.59999996 -0.42,0.99999996 0,0.26 0.07,0.5 0.2,0.7 v 0.01 c 0.1,0.2 0.27,0.36 0.46,0.48 H 2.4707736 Z m 0.72,-0.35 c -0.14,0.26 -0.35,0.47 -0.6,0.62 -0.03,0.02 -0.06,0.03 -0.1,0.03 H 0.89077364 c -0.02,0 -0.05,-0.01 -0.07,-0.02 -0.25,-0.15 -0.46,-0.36 -0.6,-0.62 v -0.01 a 1.696,1.696 0 0 1 0.28,-2.03999996 A 1.71,1.71 0 0 1 1.7107736,8.3963173e-7 c 0.47,0 0.9,0.20000000036827 1.2,0.50000000036827 h 0.01 c 0.3,0.3 0.5,0.72999996 0.5,1.19999996 0,0.3 -0.08,0.6 -0.23,0.84 z m -2.17,1.2 c -0.08,0 -0.14999996,-0.07 -0.14999996,-0.15 0,-0.08 0.07,-0.15 0.14999996,-0.15 h 1.38 c 0.08,0 0.15,0.07 0.15,0.15 0,0.08 -0.07,0.15 -0.15,0.15 z"
     id="path35" />
</svg>
