<svg width="20" height="16" viewBox="0 0 20 16" fill="none" xmlns="http://www.w3.org/2000/svg">
<path d="M14.4444 5.77778C14.4444 2.70834 11.2118 0.222229 7.22222 0.222229C3.23264 0.222229 0 2.70834 0 5.77778C0 6.96876 0.489583 8.06598 1.31944 8.97223C0.854167 10.0208 0.0868056 10.8542 0.0763889 10.8646C0 10.9445 -0.0208333 11.0625 0.0243056 11.1667C0.0694444 11.2708 0.166667 11.3333 0.277778 11.3333C1.54861 11.3333 2.60069 10.9063 3.35764 10.4653C4.47569 11.0104 5.79861 11.3333 7.22222 11.3333C11.2118 11.3333 14.4444 8.84723 14.4444 5.77778ZM18.6806 13.4167C19.5104 12.5139 20 11.4132 20 10.2222C20 7.89931 18.1424 5.90973 15.5104 5.07987C15.5417 5.30903 15.5556 5.54167 15.5556 5.77778C15.5556 9.45487 11.816 12.4445 7.22222 12.4445C6.84722 12.4445 6.48264 12.4167 6.12153 12.3785C7.21528 14.375 9.78472 15.7778 12.7778 15.7778C14.2014 15.7778 15.5243 15.4583 16.6424 14.9097C17.3993 15.3507 18.4514 15.7778 19.7222 15.7778C19.8333 15.7778 19.934 15.7118 19.9757 15.6111C20.0208 15.5104 20 15.3924 19.9236 15.309C19.9132 15.2986 19.1458 14.4688 18.6806 13.4167Z" fill="#767E9C"/>
</svg>
