<svg width="19" height="20" viewBox="0 0 19 20" fill="none" xmlns="http://www.w3.org/2000/svg">
<path fill-rule="evenodd" clip-rule="evenodd" d="M10.0986 0.143571L17.5994 3.26888C18.2948 3.55797 18.7518 4.24163 18.7518 4.99951C18.7518 13.6449 13.4427 18.4618 10.0947 19.8564C9.63375 20.0479 9.11417 20.0479 8.65319 19.8564C4.47309 18.1141 0 12.7542 0 4.99951C0 4.24163 0.457076 3.55797 1.15636 3.26888L8.65709 0.143571C8.88558 0.0487881 9.13051 0 9.37787 0C9.62523 0 9.87016 0.0487881 10.0986 0.143571ZM5.13214 10.7242L8.31486 13.8676C8.49105 14.0441 8.7809 14.0441 8.95709 13.8676L14.8679 8.03467C15.044 7.85817 15.044 7.57521 14.8679 7.40151L13.5834 6.13238C13.4072 5.95587 13.1174 5.95587 12.9412 6.13238L8.63598 10.3768L7.06167 8.82192C6.88548 8.64542 6.59562 8.64542 6.41944 8.82192L5.13214 10.0911C4.95595 10.2676 4.95595 10.5505 5.13214 10.7242Z" fill="#767E9C"/>
</svg>
