<svg width="20" height="20" viewBox="0 0 20 20" fill="none" xmlns="http://www.w3.org/2000/svg">
<path d="M6.73545 0.0833988C6.0972 0.258604 5.54656 0.734159 5.24621 1.34738C5.02094 1.81042 4.9834 2.12329 4.9834 3.44984V5.01417L5.85942 5.00166H6.73545V3.60002C6.73545 3.14005 6.73545 2.75213 6.73545 2.45631C6.73545 2.0994 7.02382 1.81042 7.38074 1.81042C7.9353 1.81042 8.89532 1.81042 10.4398 1.81042H13.7437C13.7437 2.7537 13.7437 3.69698 13.7437 4.64026C13.7437 5.46188 14.4014 6.13228 15.2229 6.1479L18.1238 6.20306V17.6486C18.1238 17.8866 17.9309 18.0795 17.693 18.0795C14.7079 18.0795 11.7228 18.0795 8.73779 18.0795V19.9316H18.1369C19.085 19.9316 19.8549 19.1691 19.8588 18.221C19.8702 15.5016 19.8869 10.12 19.8616 6.39705C19.8562 5.59706 19.5295 4.83614 18.9575 4.27678L15.5166 0.911591C14.9723 0.379257 14.248 0.072298 13.4868 0.0562668C11.3959 0.0122299 7.22082 -0.056612 6.73545 0.0833988Z" fill="#C8CDDC"/>
<path fill-rule="evenodd" clip-rule="evenodd" d="M2.1552 7.25431C2.48058 7.20425 2.78094 7.01653 3.0938 6.67863C3.63193 6.12799 3.63193 6.12799 4.3703 6.37828C4.84585 6.55349 4.95849 6.55349 5.49662 6.37828C6.17241 6.15302 6.3351 6.20308 6.91077 6.80378C7.13603 7.02904 7.46142 7.21676 7.72422 7.26682C8.45007 7.39197 8.70037 7.61723 8.80048 8.21794C8.86306 8.60589 9.02575 8.90624 9.38867 9.28168C9.85172 9.75724 9.88926 9.83233 9.80166 10.2829C9.4137 11.1821 9.46827 11.1821 9.80166 12.1475C9.88926 12.6231 9.86423 12.6732 9.4137 13.0736C9.02575 13.399 8.9006 13.6368 8.80048 14.1249C8.67534 14.7881 8.46259 14.9758 7.71171 15.1385L7.3613 15.2011V19.5606C7.3613 19.8989 6.98937 20.1052 6.7024 19.9261L4.94453 18.8293L3.13631 19.9359C2.84923 20.1116 2.48058 19.905 2.48058 19.5685V15.2011L2.14269 15.1385C1.37929 14.9758 1.16655 14.7881 1.0414 14.1249C0.941282 13.6368 0.816136 13.399 0.428181 13.0736C-0.0223461 12.6732 -0.0473755 12.6231 0.0402271 12.1475C0.428181 11.2898 0.428181 11.2898 0.0402271 10.2453C-0.0473755 9.75724 -0.0223462 9.71969 0.453211 9.30671C0.85368 8.9563 0.966311 8.76858 1.02888 8.28051C1.129 7.61723 1.36678 7.39197 2.1552 7.25431ZM4.94453 13.7671C6.37218 13.7671 7.52952 12.6097 7.52952 11.1821C7.52952 9.75441 6.37218 8.59707 4.94453 8.59707C3.51687 8.59707 2.35953 9.75441 2.35953 11.1821C2.35953 12.6097 3.51687 13.7671 4.94453 13.7671Z" fill="#C8CDDC"/>
</svg>
