<svg width="24" height="24" viewBox="0 0 24 24" fill="none" xmlns="http://www.w3.org/2000/svg">
<path d="M8.29382 16.1653C7.95438 15.8258 8.13133 15.9215 7.31259 15.7024C6.94112 15.6028 6.61456 15.4114 6.31925 15.1821L4.54702 19.5273C4.37554 19.948 4.69585 20.405 5.14975 20.3878L7.20791 20.3093L8.62351 21.8046C8.936 22.1343 9.48443 22.0316 9.65591 21.6109L11.6891 16.6258C11.2656 16.8617 10.7957 17 10.3098 17C9.5481 17 8.83249 16.7035 8.29382 16.1653ZM19.453 19.5273L17.6807 15.1821C17.3854 15.4118 17.0589 15.6028 16.6874 15.7024C15.8644 15.9227 16.0448 15.8266 15.7062 16.1653C15.1675 16.7035 14.4515 17 13.6898 17C13.2039 17 12.734 16.8613 12.3105 16.6258L14.3437 21.6109C14.5152 22.0316 15.064 22.1343 15.3761 21.8046L16.7921 20.3093L18.8503 20.3878C19.3042 20.405 19.6245 19.9476 19.453 19.5273ZM14.7734 15.2813C15.3702 14.6739 15.4386 14.7262 16.2886 14.4946C16.8312 14.3466 17.2554 13.9149 17.4007 13.3626C17.6929 12.2532 17.6171 12.3872 18.4143 11.5755C18.8116 11.1712 18.9667 10.5818 18.8213 10.0295C18.5296 8.92088 18.5292 9.07556 18.8213 7.96582C18.9667 7.41349 18.8116 6.82405 18.4143 6.41976C17.6171 5.60806 17.6929 5.74165 17.4007 4.63268C17.2554 4.08035 16.8312 3.64872 16.2886 3.50068C15.1995 3.20342 15.3308 3.28115 14.5328 2.46906C14.1355 2.06477 13.5562 1.90657 13.0137 2.05461C11.925 2.35148 12.077 2.35187 10.9863 2.05461C10.4438 1.90657 9.8645 2.06438 9.46724 2.46906C8.66999 3.28076 8.80124 3.20342 7.7118 3.50068C7.16924 3.64872 6.74503 4.08035 6.59972 4.63268C6.30793 5.74165 6.38332 5.60806 5.58607 6.41976C5.18881 6.82405 5.03334 7.41349 5.17904 7.96582C5.47083 9.07361 5.47122 8.91893 5.17904 10.0291C5.03373 10.5814 5.18881 11.1708 5.58607 11.5755C6.38332 12.3872 6.30754 12.2532 6.59972 13.3626C6.74503 13.9149 7.16924 14.3466 7.7118 14.4946C8.58601 14.7329 8.65124 14.6954 9.22662 15.2813C9.7434 15.8075 10.5485 15.9016 11.1695 15.5086C11.4179 15.351 11.706 15.2672 12.0002 15.2672C12.2944 15.2672 12.5825 15.351 12.8308 15.5086C13.4515 15.9016 14.2566 15.8075 14.7734 15.2813ZM8.31492 8.87362C8.31492 6.80217 9.96488 5.12291 12 5.12291C14.0351 5.12291 15.6851 6.80217 15.6851 8.87362C15.6851 10.9451 14.0351 12.6243 12 12.6243C9.96488 12.6243 8.31492 10.9451 8.31492 8.87362Z" fill="#767E9C"/>
</svg>
