<svg width="60" height="60" viewBox="0 0 60 60" fill="none" xmlns="http://www.w3.org/2000/svg">
<g clip-path="url(#clip0_2980_591)">
<rect width="60" height="60" rx="21" fill="#EAF4FF"/>
<g filter="url(#filter0_d_2980_591)">
<path fill-rule="evenodd" clip-rule="evenodd" d="M46.0624 20.2881V21.345C46.0624 21.4228 46.0315 21.4975 45.9764 21.5525C45.9214 21.6076 45.8467 21.6385 45.7688 21.6385H16.2936C16.2157 21.6385 16.141 21.6076 16.086 21.5525C16.0309 21.4975 16 21.4228 16 21.345V20.2881C16 18.4721 17.4721 17 19.2881 17H42.7743C44.5903 17 46.0624 18.4721 46.0624 20.2881ZM16 34.3798V23.811C16 23.7331 16.0309 23.6585 16.086 23.6034C16.141 23.5484 16.2157 23.5174 16.2936 23.5174H45.7688C45.8467 23.5174 45.9214 23.5484 45.9764 23.6034C46.0315 23.6585 46.0624 23.7331 46.0624 23.811V28.2263C44.1438 26.5378 41.6264 25.5137 38.8697 25.5137C32.8544 25.5137 27.978 30.3901 27.978 36.4055C27.978 36.8325 28.0026 37.2537 28.0504 37.6679H19.2881C17.4721 37.6679 16 36.1958 16 34.3798ZM22.5761 32.9706C23.095 32.9706 23.5156 32.55 23.5156 32.0312V31.0917C23.5156 30.5729 23.095 30.1523 22.5761 30.1523H21.6367C21.1179 30.1523 20.6972 30.5729 20.6972 31.0917V32.0312C20.6972 32.55 21.1179 32.9706 21.6367 32.9706H22.5761Z" fill="#0792FF"/>
<path fill-rule="evenodd" clip-rule="evenodd" d="M38.8695 45.5357C43.912 45.5357 47.9998 41.4479 47.9998 36.4054C47.9998 31.3629 43.912 27.2751 38.8695 27.2751C33.827 27.2751 29.7393 31.3629 29.7393 36.4054C29.7393 41.4479 33.827 45.5357 38.8695 45.5357ZM32.9704 36.7958L38.3231 42.1291C38.4761 42.2818 38.6808 42.3656 38.899 42.3651C39.1165 42.3657 39.3211 42.2818 39.4744 42.1292L44.8269 36.7959C44.9797 36.6437 45.0641 36.4408 45.0641 36.2244C45.0641 36.0078 44.9808 35.8051 44.828 35.6528L44.3435 35.1686C44.1908 35.0165 43.9897 34.9327 43.7727 34.9327C43.5554 34.9327 43.3572 35.0165 43.2044 35.1686L40.0575 38.3151V31.3024C40.0575 30.8567 39.672 30.5046 39.2246 30.5046H38.5374C38.09 30.5046 37.7398 30.8567 37.7398 31.3024V38.2798L34.6104 35.1685C34.4579 35.0164 34.2472 34.9326 34.0301 34.9326C33.8128 34.9326 33.6091 35.0164 33.4565 35.1685L32.9704 35.6527C32.8178 35.8049 32.7338 36.0077 32.7338 36.2243C32.7338 36.4407 32.8176 36.6436 32.9704 36.7958Z" fill="#0792FF"/>
</g>
</g>
<defs>
<filter id="filter0_d_2980_591" x="5.46667" y="11.7333" width="53.0667" height="49.6023" filterUnits="userSpaceOnUse" color-interpolation-filters="sRGB">
<feFlood flood-opacity="0" result="BackgroundImageFix"/>
<feColorMatrix in="SourceAlpha" type="matrix" values="0 0 0 0 0 0 0 0 0 0 0 0 0 0 0 0 0 0 127 0" result="hardAlpha"/>
<feOffset dy="5.26667"/>
<feGaussianBlur stdDeviation="5.26667"/>
<feComposite in2="hardAlpha" operator="out"/>
<feColorMatrix type="matrix" values="0 0 0 0 0.027451 0 0 0 0 0.572549 0 0 0 0 1 0 0 0 0.25 0"/>
<feBlend mode="normal" in2="BackgroundImageFix" result="effect1_dropShadow_2980_591"/>
<feBlend mode="normal" in="SourceGraphic" in2="effect1_dropShadow_2980_591" result="shape"/>
</filter>
<clipPath id="clip0_2980_591">
<rect width="60" height="60" rx="21" fill="white"/>
</clipPath>
</defs>
</svg>
