<svg width="60" height="60" viewBox="0 0 60 60" fill="none" xmlns="http://www.w3.org/2000/svg">
<rect width="60" height="60" rx="21" fill="#EAF4FF"/>
<g filter="url(#filter0_d_2980_604)">
<path d="M26 38C32.6169 38 38.0001 32.6169 38.0001 26C38.0001 19.3831 32.6169 14 26 14C19.3831 14 14 19.3831 14 26C14 32.6169 19.3831 38 26 38ZM26 17.8752C30.4801 17.8752 34.1249 21.52 34.1249 26C34.1249 30.4801 30.4801 34.1248 26 34.1248C21.52 34.1248 17.8752 30.4801 17.8752 26C17.8752 21.52 21.52 17.8752 26 17.8752Z" fill="#0792FF"/>
<path d="M42.6257 46C43.5275 46 44.3749 45.6488 45.0116 45.0109C45.6488 44.3747 46 43.5275 46 42.6256C46 41.7239 45.6488 40.8763 45.0112 40.2386L38.329 33.5563C38.1514 33.3786 37.9219 33.2806 37.6831 33.2806C37.3863 33.2806 37.113 33.4283 36.9334 33.6857C36.0524 34.9524 34.9529 36.052 33.6863 36.933C33.4543 37.0945 33.3079 37.3397 33.2843 37.6058C33.261 37.8688 33.3602 38.1324 33.5566 38.3287L40.2387 45.0109C40.8763 45.6488 41.724 46 42.6257 46Z" fill="#0792FF"/>
</g>
<defs>
<filter id="filter0_d_2980_604" x="6" y="10" width="48" height="48" filterUnits="userSpaceOnUse" color-interpolation-filters="sRGB">
<feFlood flood-opacity="0" result="BackgroundImageFix"/>
<feColorMatrix in="SourceAlpha" type="matrix" values="0 0 0 0 0 0 0 0 0 0 0 0 0 0 0 0 0 0 127 0" result="hardAlpha"/>
<feOffset dy="4"/>
<feGaussianBlur stdDeviation="4"/>
<feComposite in2="hardAlpha" operator="out"/>
<feColorMatrix type="matrix" values="0 0 0 0 0.027451 0 0 0 0 0.572549 0 0 0 0 1 0 0 0 0.25 0"/>
<feBlend mode="normal" in2="BackgroundImageFix" result="effect1_dropShadow_2980_604"/>
<feBlend mode="normal" in="SourceGraphic" in2="effect1_dropShadow_2980_604" result="shape"/>
</filter>
</defs>
</svg>
