<svg width="60" height="60" viewBox="0 0 60 60" fill="none" xmlns="http://www.w3.org/2000/svg">
<rect width="60" height="60" rx="21" fill="#EAF4FF"/>
<g filter="url(#filter0_d_6415_381)">
<path d="M45.2674 26.6289L42.0267 25.8319C41.6884 25.7487 41.4207 25.4944 41.3005 25.1674C41.1703 24.8132 41.0241 24.4651 40.8624 24.1241C40.7121 23.8072 40.7191 23.4354 40.8996 23.1346C41.5074 22.1223 42.371 20.6826 42.3715 20.6818C42.3715 20.6818 42.3715 20.6818 42.3715 20.6817C42.4824 20.4969 42.5284 20.2802 42.502 20.0662C42.4757 19.8522 42.3785 19.6531 42.2261 19.5007L39.4918 16.7664C39.3396 16.6136 39.1405 16.5161 38.9264 16.4898C38.7123 16.4634 38.4955 16.5096 38.3107 16.621L35.8523 18.094C35.5522 18.2739 35.1811 18.281 34.8648 18.1314C34.5276 17.9721 34.1834 17.8279 33.8332 17.6994C33.5059 17.5793 33.2513 17.3114 33.168 16.9729L32.3712 13.7327C32.319 13.5235 32.1984 13.3377 32.0285 13.205C31.8586 13.0722 31.6492 13.0001 31.4336 13H27.5664C27.1232 13 26.7366 13.3014 26.6293 13.7309C26.629 13.7321 26.6291 13.7319 26.6288 13.733C26.6211 13.7644 26.1457 15.7118 25.8334 16.9749C25.75 17.3122 25.496 17.578 25.1697 17.6977C24.7762 17.842 24.3902 18.0062 24.0133 18.1896C23.6945 18.3447 23.318 18.3397 23.0141 18.1573L20.4542 16.621C20.0728 16.3944 19.5875 16.453 19.2731 16.7664L16.5389 19.5007C16.3864 19.6531 16.2893 19.8522 16.2629 20.0662C16.2366 20.2802 16.2825 20.4969 16.3935 20.6818L17.9964 23.3589C18.1728 23.6536 18.1829 24.017 18.0413 24.33C17.9173 24.6041 17.8033 24.8827 17.6995 25.165C17.5793 25.4917 17.3119 25.746 16.9739 25.8293L13.7327 26.6289C13.5235 26.681 13.3377 26.8016 13.205 26.9715C13.0722 27.1414 13 27.3508 13 27.5664V31.4336C13 31.8774 13.3022 32.2645 13.7326 32.3711L16.9729 33.1678C17.3119 33.2511 17.58 33.5064 17.7002 33.8342C17.834 34.1992 17.9853 34.5584 18.1533 34.9108C18.3045 35.2277 18.2978 35.6001 18.1171 35.9012L16.7202 38.2295C16.6092 38.4144 16.5633 38.631 16.5896 38.845C16.616 39.059 16.7131 39.2581 16.8656 39.4106L19.5998 42.1448C19.9119 42.4569 20.398 42.5166 20.7791 42.2913C20.7803 42.2906 20.7803 42.2906 20.7815 42.2899C20.813 42.271 22.1488 41.4702 23.1161 40.8907C23.4171 40.7104 23.7891 40.7039 24.1059 40.8548C24.4528 41.02 24.8072 41.169 25.1678 41.3014C25.4951 41.4216 25.7497 41.6895 25.8329 42.0281L26.6289 45.2673C26.7355 45.6979 27.1226 46 27.5664 46H31.4336C31.6492 46 31.8586 45.9278 32.0285 45.7951C32.1984 45.6623 32.319 45.4766 32.3711 45.2674L33.1671 42.0282C33.2504 41.6896 33.5051 41.4217 33.8323 41.3013C34.2085 41.163 34.5777 41.0064 34.9385 40.832C35.2569 40.6781 35.632 40.6833 35.9352 40.8651C36.93 41.4618 38.2991 42.2832 38.3106 42.2902C38.311 42.2904 38.3109 42.2903 38.3113 42.2906C38.6917 42.5177 39.1785 42.459 39.4918 42.1448L42.226 39.4106C42.3785 39.2581 42.4756 39.059 42.502 38.845C42.5283 38.631 42.4824 38.4144 42.3714 38.2295L40.9229 35.8164C40.7431 35.5168 40.7355 35.1462 40.8841 34.83C41.0374 34.5039 41.1763 34.1713 41.3005 33.8331C41.4207 33.5059 41.6886 33.2512 42.0271 33.168L45.2673 32.3711C45.4765 32.319 45.6623 32.1984 45.7951 32.0285C45.9278 31.8586 46 31.6492 46 31.4336V27.5664C46 27.3508 45.9278 27.1414 45.7951 26.9715C45.6623 26.8016 45.4766 26.681 45.2674 26.6289ZM29.5 36.2676C25.7687 36.2676 22.7324 33.2313 22.7324 29.5C22.7324 25.7687 25.7687 22.7324 29.5 22.7324C33.2313 22.7324 36.2676 25.7687 36.2676 29.5C36.2676 33.2313 33.2313 36.2676 29.5 36.2676Z" fill="#0792FF"/>
</g>
<defs>
<filter id="filter0_d_6415_381" x="5" y="9" width="49" height="49" filterUnits="userSpaceOnUse" color-interpolation-filters="sRGB">
<feFlood flood-opacity="0" result="BackgroundImageFix"/>
<feColorMatrix in="SourceAlpha" type="matrix" values="0 0 0 0 0 0 0 0 0 0 0 0 0 0 0 0 0 0 127 0" result="hardAlpha"/>
<feOffset dy="4"/>
<feGaussianBlur stdDeviation="4"/>
<feComposite in2="hardAlpha" operator="out"/>
<feColorMatrix type="matrix" values="0 0 0 0 0.027451 0 0 0 0 0.572549 0 0 0 0 1 0 0 0 0.25 0"/>
<feBlend mode="normal" in2="BackgroundImageFix" result="effect1_dropShadow_6415_381"/>
<feBlend mode="normal" in="SourceGraphic" in2="effect1_dropShadow_6415_381" result="shape"/>
</filter>
</defs>
</svg>
