<svg width="60" height="60" viewBox="0 0 60 60" fill="none" xmlns="http://www.w3.org/2000/svg">
<rect width="60" height="60" rx="21" fill="#EAF4FF"/>
<g filter="url(#filter0_d_6415_378)">
<path d="M40.5966 16.8182H38.9545C38.4023 16.8182 37.9545 16.3705 37.9545 15.8182V15.4091C37.9545 15.0354 37.8061 14.677 37.5418 14.4127C37.2776 14.1485 36.9192 14 36.5455 14C36.1717 14 35.8133 14.1485 35.5491 14.4127C35.2848 14.677 35.1364 15.0354 35.1364 15.4091V15.8182C35.1364 16.3705 34.6886 16.8182 34.1364 16.8182H31.9091C31.3568 16.8182 30.9091 16.3705 30.9091 15.8182V15.4091C30.9091 15.0354 30.7606 14.677 30.4964 14.4127C30.2321 14.1485 29.8737 14 29.5 14C29.1263 14 28.7679 14.1485 28.5036 14.4127C28.2394 14.677 28.0909 15.0354 28.0909 15.4091V15.8182C28.0909 16.3705 27.6432 16.8182 27.0909 16.8182H24.8636C24.3114 16.8182 23.8636 16.3705 23.8636 15.8182V15.4091C23.8636 15.0354 23.7152 14.677 23.4509 14.4127C23.1867 14.1485 22.8283 14 22.4545 14C22.0808 14 21.7224 14.1485 21.4582 14.4127C21.1939 14.677 21.0455 15.0354 21.0455 15.4091V15.8182C21.0455 16.3705 20.5977 16.8182 20.0455 16.8182H18.4034C17.236 16.8197 16.1169 17.2841 15.2914 18.1096C14.4659 18.935 14.0015 20.0542 14 21.2216V24.2727C14 24.825 14.4477 25.2727 15 25.2727H44C44.5523 25.2727 45 24.825 45 24.2727V21.2216C44.9985 20.0542 44.5341 18.935 43.7086 18.1096C42.8831 17.2841 41.764 16.8197 40.5966 16.8182ZM14 40.5966C14.0015 41.764 14.4659 42.8831 15.2914 43.7086C16.1169 44.5341 17.236 44.9985 18.4034 45H40.5966C41.764 44.9985 42.8831 44.5341 43.7086 43.7086C44.5341 42.8831 44.9985 41.764 45 40.5966V29.0909C45 28.5386 44.5523 28.0909 44 28.0909H15C14.4477 28.0909 14 28.5386 14 29.0909V40.5966ZM24.2765 34.9349C24.5407 34.6707 24.8991 34.5223 25.2727 34.5223C25.6464 34.5223 26.0047 34.6707 26.269 34.9349L27.3839 36.049C27.7744 36.4392 28.4073 36.4391 28.7977 36.0488L32.731 32.1167C32.9968 31.86 33.3527 31.718 33.7222 31.7212C34.0917 31.7244 34.4451 31.8726 34.7063 32.1338C34.9676 32.3951 35.1158 32.7485 35.119 33.118C35.1222 33.4874 34.9802 33.8434 34.7235 34.1091L29.0871 39.7455C28.8229 40.0097 28.4645 40.1581 28.0909 40.1581C27.7173 40.1581 27.3589 40.0097 27.0947 39.7455L24.2765 36.9273C24.0123 36.6631 23.8639 36.3047 23.8639 35.9311C23.8639 35.5574 24.0123 35.1991 24.2765 34.9349Z" fill="#0792FF"/>
</g>
<defs>
<filter id="filter0_d_6415_378" x="6" y="10" width="47" height="47" filterUnits="userSpaceOnUse" color-interpolation-filters="sRGB">
<feFlood flood-opacity="0" result="BackgroundImageFix"/>
<feColorMatrix in="SourceAlpha" type="matrix" values="0 0 0 0 0 0 0 0 0 0 0 0 0 0 0 0 0 0 127 0" result="hardAlpha"/>
<feOffset dy="4"/>
<feGaussianBlur stdDeviation="4"/>
<feComposite in2="hardAlpha" operator="out"/>
<feColorMatrix type="matrix" values="0 0 0 0 0.027451 0 0 0 0 0.572549 0 0 0 0 1 0 0 0 0.25 0"/>
<feBlend mode="normal" in2="BackgroundImageFix" result="effect1_dropShadow_6415_378"/>
<feBlend mode="normal" in="SourceGraphic" in2="effect1_dropShadow_6415_378" result="shape"/>
</filter>
</defs>
</svg>
