<svg width="30" height="30" viewBox="0 0 30 30" fill="none" xmlns="http://www.w3.org/2000/svg">
<circle cx="15" cy="15" r="12" fill="#0AC18E"/>
<path d="M20.4371 13.7954C19.9513 13.4488 19.3413 13.3014 18.6072 13.3533C19.319 12.6072 19.4408 11.6969 18.973 10.6224C18.8063 10.2318 18.5863 9.91803 18.3126 9.68068C18.0387 9.44331 17.7221 9.28414 17.3616 9.20338C17.0013 9.12232 16.6287 9.09286 16.2443 9.11434C15.86 9.13585 15.4317 9.20038 14.9599 9.30794L14.2048 7.00549L12.8662 7.4445L13.6003 9.68298C13.3685 9.75901 13.017 9.88102 12.5458 10.049L11.8057 7.79229L10.4669 8.23137L11.222 10.5338C11.0327 10.6027 10.7527 10.6979 10.3818 10.8196L8.53594 11.4148L9.02738 12.9132L9.99223 12.5968C10.4327 12.4523 10.7585 12.5749 10.9697 12.9643L11.8297 15.5866C11.8877 15.5676 11.935 15.5555 11.9718 15.5502L11.8327 15.5958L13.0372 19.2686C13.0928 19.5944 12.9757 19.8049 12.6859 19.9L11.7211 20.2164L12 21.9768L13.7386 21.4066C13.8487 21.3705 14.0085 21.3198 14.2181 21.2541C14.4277 21.1888 14.5846 21.139 14.689 21.1048L15.4531 23.4346L16.7921 22.9955L16.037 20.693C16.2824 20.6195 16.6368 20.5065 17.1005 20.3545L17.8525 22.6477L19.1912 22.2086L18.4271 19.8788C18.8944 19.6986 19.3011 19.5149 19.6469 19.327C19.9929 19.1391 20.3106 18.9187 20.5997 18.6653C20.8888 18.412 21.1113 18.1416 21.2674 17.8542C21.4237 17.5671 21.5215 17.2347 21.5616 16.8571C21.6013 16.4798 21.5707 16.0682 21.4693 15.6223C21.2673 14.7511 20.9231 14.142 20.4371 13.7954ZM13.1112 11.6849C13.1517 11.6716 13.2657 11.6325 13.453 11.5677C13.6404 11.5027 13.7959 11.4484 13.9195 11.4045C14.0431 11.3606 14.2137 11.3131 14.4313 11.262C14.6488 11.2109 14.835 11.1769 14.9898 11.1598C15.1446 11.1427 15.3206 11.1406 15.5173 11.1537C15.7142 11.1666 15.8812 11.2063 16.0184 11.2727C16.1557 11.3389 16.286 11.4379 16.4093 11.5695C16.5328 11.701 16.6274 11.8673 16.6933 12.0683C16.7493 12.2388 16.7742 12.4028 16.7681 12.56C16.762 12.7171 16.722 12.8601 16.6488 12.9887C16.5756 13.1173 16.4951 13.2349 16.408 13.341C16.3209 13.447 16.1987 13.5496 16.0418 13.6482C15.8849 13.7469 15.7467 13.8294 15.6272 13.8955C15.5077 13.9617 15.3539 14.0307 15.1656 14.1025C14.9773 14.1744 14.8344 14.2281 14.7369 14.2634C14.6393 14.2987 14.5046 14.3429 14.3326 14.396C14.1606 14.4491 14.0602 14.4802 14.0312 14.4898L13.1112 11.6848L13.1112 11.6849ZM18.8073 16.708C18.7981 16.8663 18.7671 17.0114 18.7143 17.1435C18.6611 17.2754 18.5766 17.4044 18.4606 17.53C18.3448 17.6559 18.2279 17.7649 18.1107 17.8573C17.9934 17.95 17.8464 18.0452 17.6703 18.1435C17.4937 18.242 17.3371 18.3218 17.2 18.3838C17.0631 18.4456 16.8976 18.5133 16.7035 18.5872C16.5095 18.6607 16.3573 18.7157 16.2473 18.7518C16.1371 18.788 15.9975 18.8319 15.8284 18.8841C15.6593 18.9364 15.5517 18.97 15.5053 18.9852L14.4925 15.8969C14.5388 15.8817 14.6755 15.8336 14.9024 15.7523C15.1294 15.671 15.3152 15.6069 15.4601 15.5594C15.605 15.5119 15.808 15.4553 16.0691 15.39C16.3299 15.3246 16.5533 15.2815 16.7393 15.261C16.9251 15.2406 17.1332 15.2347 17.3641 15.2434C17.5947 15.252 17.7919 15.2902 17.9554 15.358C18.1189 15.426 18.2719 15.5308 18.4148 15.6729C18.5578 15.8148 18.6652 15.9955 18.7371 16.2149C18.7931 16.3856 18.8164 16.5497 18.8073 16.708Z" fill="white"/>
</svg>
