<svg width="30" height="30" viewBox="0 0 30 30" fill="none" xmlns="http://www.w3.org/2000/svg">
<circle cx="15" cy="15" r="12" fill="#008DE4"/>
<path d="M9.20659 20.9761C9.20659 20.9642 9.24879 20.7566 9.29703 20.5193C9.34526 20.2821 9.39952 19.9974 9.41158 19.8847C9.42363 19.772 9.47789 19.4932 9.52613 19.2618C9.57436 19.0305 9.62259 18.7576 9.63465 18.6509L9.65273 18.4551H12.4441C14.8195 18.4551 15.2838 18.4492 15.5189 18.4136C15.9831 18.3365 16.3027 18.2534 16.785 18.0755C16.8392 18.0577 16.9598 17.9984 17.0442 17.945C17.1286 17.8916 17.207 17.8501 17.2191 17.8501C17.2311 17.8501 17.2914 17.8026 17.3577 17.7492C17.424 17.6959 17.4843 17.6484 17.4964 17.6484C17.5084 17.6484 17.5868 17.5772 17.6712 17.4823C17.7556 17.3933 17.8581 17.2925 17.8943 17.2569C17.9305 17.2213 17.9606 17.1798 17.9606 17.1679C17.9606 17.1561 17.9847 17.1205 18.0149 17.0849C18.0752 17.0196 18.3706 16.4739 18.3706 16.4205C18.3706 16.4028 18.4068 16.296 18.461 16.1833C18.5092 16.0706 18.5575 15.9104 18.5756 15.8392C18.5876 15.7621 18.6419 15.5427 18.6901 15.3528C19.0941 13.7987 19.0036 12.8378 18.3887 12.2446C18.1294 11.9955 17.7978 11.8294 17.3155 11.693C16.8814 11.5803 16.7367 11.5744 13.8006 11.5506C12.2271 11.5388 10.9309 11.521 10.9248 11.5091C10.9068 11.4913 10.9429 11.2718 11.1298 10.2457C11.1841 9.94907 11.2444 9.62283 11.2625 9.51013C11.2745 9.39742 11.3047 9.23727 11.3288 9.15422L11.3589 9L14.6869 9.01186C18.25 9.02373 18.045 9.0178 18.8047 9.17795C19.1543 9.25506 19.293 9.29065 19.5824 9.39149C19.8416 9.48047 20.3059 9.70587 20.3903 9.77705C20.4204 9.80671 20.4747 9.83637 20.5048 9.84823C20.5832 9.87196 20.9811 10.2279 21.1198 10.388C21.3308 10.6371 21.3911 10.7202 21.4936 10.8922C21.6141 11.0998 21.789 11.5388 21.8553 11.8176C22 12.3811 22 12.3929 22 13.2768C22 14.0241 21.994 14.1784 21.9337 14.5046C21.8975 14.7122 21.8553 14.9732 21.8372 15.08C21.7528 15.6198 21.5297 16.4443 21.3187 16.99C21.2102 17.2628 20.9691 17.8086 20.9268 17.856C20.9148 17.8738 20.8666 17.9569 20.8123 18.0518C20.7641 18.1407 20.7098 18.2297 20.6917 18.2534C20.6736 18.2712 20.5832 18.4017 20.4928 18.5382C20.2034 18.9652 19.5824 19.6118 19.2327 19.8372C18.8589 20.0804 18.6359 20.2168 18.4248 20.3177C18.0752 20.4897 17.6953 20.6498 17.6411 20.6498C17.617 20.6498 17.4783 20.6854 17.3396 20.7329C17.1949 20.7803 17.0141 20.8278 16.9357 20.8397C16.8573 20.8456 16.6644 20.8753 16.5016 20.899C16.3388 20.9168 16.0494 20.9524 15.8565 20.9702C15.4224 21.0057 9.20659 21.0117 9.20659 20.9761Z" fill="white"/>
<path d="M7 16.2129C7 16.0824 7.35571 14.7182 7.43408 14.5758C7.63304 14.1784 7.96463 13.9114 8.39871 13.7928C8.62781 13.7335 8.66399 13.7335 11.6302 13.7216C13.2822 13.7157 14.6326 13.7216 14.6326 13.7335C14.6326 13.7928 14.3855 14.8309 14.2709 15.2164C14.2166 15.4122 14.0056 15.7443 13.8549 15.8748C13.7826 15.9341 13.6379 16.0291 13.5354 16.0765C13.1495 16.2663 13.3063 16.2545 9.99638 16.2545C7.28336 16.2604 7 16.2604 7 16.2129Z" fill="white"/>
</svg>
