<svg width="30" height="30" viewBox="0 0 30 30" fill="none" xmlns="http://www.w3.org/2000/svg">
<path d="M15 27C21.6274 27 27 21.6274 27 15C27 8.37258 21.6274 3 15 3C8.37258 3 3 8.37258 3 15C3 21.6274 8.37258 27 15 27Z" fill="#2B2B2B"/>
<path d="M20.6532 8H22.9653L18.1518 13.0326C16.4088 14.855 13.5832 14.855 11.8442 13.0326L7.02974 8H9.3418L12.9973 11.8229C14.1027 12.9756 15.8903 12.9756 16.9928 11.8229L20.6532 8ZM9.31305 22H7L11.8442 16.9334C13.5872 15.111 16.4128 15.111 18.1558 16.9334L23 22H20.687L17.0007 18.1431C15.8953 16.9904 14.1077 16.9904 13.0052 18.1431L9.31305 22Z" fill="white"/>
</svg>
