<svg width="85" height="34" viewBox="0 0 85 34" fill="none" xmlns="http://www.w3.org/2000/svg">
<path fill-rule="evenodd" clip-rule="evenodd" d="M20.3463 5.68156C20.3463 5.0772 19.8764 4.58728 19.2967 4.58728C18.717 4.58728 18.2471 5.0772 18.2471 5.68156V12.7944H16.1478V7.71378C16.1478 7.10943 15.6779 6.61951 15.0982 6.61951C14.5185 6.61951 14.0486 7.10943 14.0486 7.71378V19.1255C14.0486 19.7299 14.5185 20.2198 15.0982 20.2198C15.6779 20.2198 16.1478 19.7299 16.1478 19.1255V14.9829H18.2471V17.0933C18.2471 17.6976 18.717 18.1876 19.2967 18.1876C19.8764 18.1876 20.3463 17.6976 20.3463 17.0933V5.68156ZM24.2449 7.71378C24.2449 7.10943 23.775 6.61951 23.1953 6.61951C22.6156 6.61951 22.1457 7.10943 22.1457 7.71378V17.0933C22.1457 17.6976 22.6156 18.1876 23.1953 18.1876C23.775 18.1876 24.2449 17.6976 24.2449 17.0933V7.71378ZM28.2934 11.4656C28.2934 10.8612 27.8235 10.3713 27.2438 10.3713C26.6641 10.3713 26.1942 10.8612 26.1942 11.4656V15.6864C26.1942 16.2907 26.6641 16.7806 27.2438 16.7806C27.8235 16.7806 28.2934 16.2907 28.2934 15.6864V11.4656ZM28.2934 18.8129C28.2934 18.2085 27.8235 17.7186 27.2438 17.7186C26.6641 17.7186 26.1942 18.2085 26.1942 18.8129V19.1255C26.1942 19.7299 26.6641 20.2198 27.2438 20.2198C27.8235 20.2198 28.2934 19.7299 28.2934 19.1255V18.8129ZM30.9923 17.8748V26.9417H33.3914H35.7905V23.9715V21.0013L37.9797 20.9701C40.4988 20.9388 41.7584 20.5324 42.9279 19.3756C44.9072 17.4371 44.9672 12.8412 43.0479 10.5588C41.8483 9.15189 40.4089 8.80797 35.5806 8.80797H30.9923V17.8748ZM38.8494 13.4039C39.5092 14.0292 39.5392 15.5925 38.8794 16.3741C38.5495 16.7493 37.9797 16.9369 37.0801 16.9369H35.7905V14.9047V12.8724H37.0501C37.7698 12.8724 38.5195 13.0913 38.8494 13.4039ZM49.4959 9.02683C49.256 9.46454 42.9883 26.504 42.9883 26.7228C42.9883 26.8479 44.1278 26.9417 45.5074 26.9417H48.0264L48.5662 25.3784L49.106 23.7839L52.075 23.8777L55.0439 23.9715L55.5837 25.3784L56.1235 26.7854L58.7026 26.8792C60.1121 26.9104 61.2816 26.9104 61.2816 26.8792C61.2816 26.8373 60.6224 25.0141 59.6554 22.3397C59.1786 21.0212 58.6271 19.4957 58.0428 17.8748L54.804 8.9643L52.2249 8.8705C50.7854 8.83924 49.5859 8.90177 49.4959 9.02683ZM52.1949 20.0009C51.3852 20.0634 50.6655 20.0321 50.6055 19.9696C50.5455 19.9071 50.8454 18.7503 51.2952 17.4059L52.105 14.9672L52.8847 17.4371L53.6944 19.9071L52.1949 20.0009ZM61.0414 13.9042C59.422 11.528 57.9826 9.40201 57.8626 9.18315C57.6827 8.8705 58.2525 8.80797 60.5916 8.8705L63.5305 8.9643L65 11.2154L66.4695 13.4665L67.9989 11.1529L69.5284 8.80797H72.3473C74.4466 8.80797 75.1063 8.90177 74.9864 9.18315C74.9264 9.40201 73.4869 11.5906 71.8075 13.998L68.7786 18.4376V22.6896V26.9417H66.3795H63.9804V22.5646V18.1875L61.0414 13.9042ZM10.2099 15.2799C10.09 15.3737 10 17.9062 10 20.8451V26.2227L13.1189 28.2862C14.8283 29.443 16.5076 30.3809 16.8375 30.3809C17.8272 30.3809 18.0971 29.443 18.0971 26.2227C18.0971 23.659 18.187 23.1587 18.7568 22.4084C20.1363 20.5637 22.2656 20.3761 23.795 21.9707C25.9842 24.253 24.7547 27.2857 21.3359 28.0361C20.4062 28.2237 19.9564 29.2554 20.4962 29.912C20.976 30.506 22.9853 30.506 24.0349 29.9432C25.8942 28.9428 27.2438 26.8167 27.2438 24.722C27.2438 23.5026 27.0338 22.5647 26.614 21.6893C24.9646 18.2501 20.8561 17.2809 17.8572 19.6258C16.4777 20.7513 15.8779 22.0957 15.6979 24.6282L15.548 26.848L13.9886 25.785L12.3991 24.722V20.5012C12.3991 18.1876 12.2492 15.999 12.0992 15.6551C11.7993 15.0923 10.5998 14.8422 10.2099 15.2799Z" fill="#154096"/>
</svg>
