<svg width="85" height="34" viewBox="0 0 85 34" fill="none" xmlns="http://www.w3.org/2000/svg">
<path fill-rule="evenodd" clip-rule="evenodd" d="M5.60661 12.3499H13.7229C14.5133 12.3499 15.1618 13.1469 15.1618 14.1184C15.1618 15.7 15.1618 17.2942 15.1618 18.8759C15.1618 19.0751 15.0301 19.2246 14.8781 19.2246H13.2872C13.1251 19.2246 13.0035 19.0627 13.0035 18.8759V17.9044C13.0035 17.7052 12.8718 17.5557 12.7198 17.5557H7.5521C7.38998 17.5557 7.26839 17.7176 7.26839 17.9044V20.5074C7.26839 20.7066 7.40011 20.8561 7.5521 20.8561H18.3739C18.536 20.8561 18.6576 21.018 18.6576 21.2048V21.9147C18.6576 22.114 18.5259 22.2634 18.3739 22.2634C14.4221 22.2634 10.4805 22.2634 6.52869 22.2634C5.74847 22.2759 5.09998 21.4788 5.09998 20.5074V17.9044C5.09998 16.933 5.74847 16.1484 6.53883 16.1484C8.59578 16.1484 10.6527 16.1484 12.7198 16.1484C12.8819 16.1484 13.0035 15.9865 13.0035 15.7997V14.1184C13.0035 13.9191 12.8718 13.7696 12.7198 13.7696H5.60661C5.44449 13.7696 5.3229 13.6077 5.3229 13.4209V12.711C5.31276 12.5118 5.44449 12.3499 5.60661 12.3499ZM26.166 12.6612L28.1925 19.7975C28.2027 19.8224 28.2128 19.8348 28.2331 19.8348C28.2533 19.8348 28.2635 19.8224 28.2736 19.7975L30.7561 12.6363C30.8068 12.4993 30.898 12.4246 31.0196 12.4246H42.348C43.1383 12.4246 43.7868 13.2217 43.7868 14.1931C43.7868 15.1894 43.7868 16.1982 43.7868 17.1945C43.7868 17.3938 43.6551 17.5433 43.5031 17.5433H37.1499C36.9878 17.5433 36.8662 17.3814 36.8662 17.1945V16.4847C36.8662 16.2854 36.9979 16.1359 37.1499 16.1359H41.3448C41.507 16.1359 41.6286 15.974 41.6286 15.7872V14.1931C41.6286 13.9938 41.4968 13.8444 41.3448 13.8444H32.0531C31.9315 13.8444 31.8302 13.9315 31.7897 14.0561L29.0234 22.0641C28.9727 22.2011 28.8816 22.2759 28.76 22.2759H26.9361C26.8145 22.2759 26.703 22.1887 26.6625 22.0392L24.5853 14.7037C24.5751 14.6788 24.565 14.6663 24.5447 14.6663C24.5245 14.6663 24.5143 14.6788 24.5042 14.7037L22.3459 22.0392C22.3054 22.1762 22.2041 22.2759 22.0723 22.2759H20.2788C20.1674 22.2759 20.0661 22.2011 20.0154 22.0641L16.6108 12.9228C16.5703 12.8107 16.5804 12.6861 16.6311 12.5865C16.6817 12.4869 16.7729 12.4246 16.8742 12.4246H18.3942C18.5056 12.4246 18.6069 12.4993 18.6576 12.6363L21.363 19.8971C21.3732 19.922 21.3833 19.9345 21.4036 19.922C21.4238 19.922 21.434 19.9096 21.4441 19.8847L23.572 12.6488C23.6125 12.5118 23.7138 12.4121 23.8456 12.4121C24.5245 12.4121 25.2135 12.4121 25.8924 12.4121C26.014 12.4246 26.1254 12.5118 26.166 12.6612ZM45.9654 12.3374H47.5461C47.7082 12.3374 47.8298 12.4993 47.8298 12.6861V25.5762C47.8298 25.7755 47.6981 25.925 47.5461 25.925H45.9654C45.8033 25.925 45.6817 25.763 45.6817 25.5762V12.6861C45.6817 12.4993 45.8134 12.3374 45.9654 12.3374ZM78.0355 12.325H79.6163C79.7784 12.325 79.9 12.4869 79.9 12.6737V25.4392C79.9 25.6385 79.7682 25.788 79.6163 25.788C76.4143 25.788 73.2022 25.788 70.0003 25.788C69.8382 25.788 69.7166 25.6261 69.7166 25.4392V24.7293C69.7166 24.5301 69.8483 24.3806 70.0003 24.3806H77.458C77.6201 24.3806 77.7417 24.2187 77.7417 24.0319V22.6246C77.7417 22.4253 77.61 22.2759 77.458 22.2759C73.6075 22.2759 69.747 22.2759 65.8965 22.2759C65.7344 22.2759 65.6128 22.114 65.6128 21.9271V14.1059C65.6128 13.9066 65.4811 13.7572 65.3291 13.7572H58.2564C58.0943 13.7572 57.9727 13.5953 57.9727 13.4085V12.6861C57.9727 12.4869 58.1044 12.3374 58.2564 12.3374H66.3322C67.1226 12.3374 67.7711 13.1345 67.7711 14.1059C67.7711 16.248 67.7711 18.3777 67.7711 20.5198C67.7711 20.7191 67.9028 20.8685 68.0548 20.8685H69.4328C69.595 20.8685 69.7166 20.7066 69.7166 20.5198V12.6737C69.7166 12.4744 69.8483 12.325 70.0003 12.325H71.581C71.7431 12.325 71.8647 12.4869 71.8647 12.6737V20.5074C71.8647 20.7066 71.9964 20.8561 72.1484 20.8561H77.458C77.6201 20.8561 77.7417 20.6942 77.7417 20.5074V12.6737C77.7518 12.4869 77.8836 12.325 78.0355 12.325ZM59.1278 16.0737C60.5464 16.0737 61.965 16.0737 63.3734 16.0737C63.5356 16.0737 63.6572 16.2356 63.6572 16.4224V17.1323C63.6572 17.3315 63.5254 17.481 63.3734 17.481H60.131C59.9688 17.481 59.8473 17.6429 59.8473 17.8297V21.9147C59.8473 22.114 59.7155 22.2634 59.5635 22.2634C56.1792 22.2634 52.7949 22.2634 49.4105 22.2634C49.2484 22.2634 49.1268 22.1015 49.1268 21.9147V21.2048C49.1268 21.0055 49.2585 20.8561 49.4105 20.8561H53.3015C53.4636 20.8561 53.5852 20.6942 53.5852 20.5074V14.1931C53.5852 13.9938 53.4535 13.8444 53.3015 13.8444H49.4105C49.2484 13.8444 49.1268 13.6825 49.1268 13.4956V12.7733C49.1268 12.574 49.2585 12.4246 49.4105 12.4246H54.3046C55.095 12.4246 55.7435 13.2217 55.7435 14.1931C55.7435 16.2978 55.7435 18.4026 55.7435 20.5198C55.7435 20.7191 55.8752 20.8685 56.0272 20.8685H57.4053C57.5674 20.8685 57.689 20.7066 57.689 20.5198V17.8422C57.689 16.8707 58.3375 16.0737 59.1278 16.0737ZM33.7757 15.0151H35.3564C35.5185 15.0151 35.6401 15.177 35.6401 15.3638V20.5074C35.6401 20.7066 35.7718 20.8561 35.9238 20.8561H43.4829C43.645 20.8561 43.7666 21.018 43.7666 21.2048V21.9147C43.7666 22.114 43.6348 22.2634 43.4829 22.2634C40.6254 22.2634 37.7781 22.2634 34.9207 22.2634C34.1303 22.2634 33.4818 21.4663 33.4818 20.4949V15.3638C33.4818 15.1645 33.6135 15.0151 33.7757 15.0151Z" fill="#0B6FD7"/>
</svg>
