<svg width="160" height="37" viewBox="0 0 160 37" fill="none" xmlns="http://www.w3.org/2000/svg">
    <rect width="160" height="37"/>
    <g id="Id Page">
        <rect width="1920" height="8000" transform="translate(-1935 -1031)" fill="#F5FAFC"/>
        <g id="Payment Systems">
            <g id="Payment Systems_2">
                <g id="Bitwallet">
                    <path fill-rule="evenodd" clip-rule="evenodd"
                          d="M33.2564 33.3477C35.2221 33.3477 36.8156 31.727 36.8156 29.726C36.8156 27.7267 35.2221 26.106 33.2564 26.106C31.2906 26.106 29.6954 27.7267 29.6954 29.726C29.6971 31.727 31.2906 33.3477 33.2564 33.3477Z"
                          fill="#21B0DE"/>
                    <path fill-rule="evenodd" clip-rule="evenodd"
                          d="M16.6015 35.7153L19.5094 32.9843C17.404 32.0819 15.9268 29.9643 15.9268 27.4952C15.9268 24.2065 18.5489 21.5397 21.7825 21.5397C24.3747 21.5397 26.5731 23.2533 27.3441 25.6261L38.233 15.3982C38.6601 14.9977 38.8794 14.4873 38.8778 13.8958C38.8761 13.3043 38.6568 12.7957 38.2264 12.3968L25.7739 0.795026C25.404 0.449123 24.9197 0.257432 24.4173 0.258058C23.9148 0.258684 23.431 0.451581 23.062 0.798404L1.48693 20.9921C1.05988 21.391 0.840538 21.898 0.838877 22.4878C0.837215 23.0776 1.05323 23.5846 1.47862 23.9868L13.8747 35.712C14.2449 36.0624 14.7317 36.2574 15.2374 36.2581C15.7431 36.2587 16.2304 36.0648 16.6015 35.7153Z"
                          fill="#0A3D8C"/>
                    <path fill-rule="evenodd" clip-rule="evenodd"
                          d="M21.7825 33.4507C25.0161 33.4507 27.6383 30.7839 27.6383 27.4952C27.6383 26.8429 27.5352 26.2142 27.3441 25.6278L19.5094 32.986C20.2073 33.2851 20.975 33.4507 21.7825 33.4507Z"
                          fill="#21B0DE"/>
                    <path fill-rule="evenodd" clip-rule="evenodd"
                          d="M56.0229 25.6396C58.4472 25.6396 60.413 23.5187 60.413 20.9042C60.413 18.2898 58.4472 16.1689 56.0229 16.1689C53.5985 16.1689 51.6327 18.2898 51.6327 20.9042C51.6327 23.5204 53.5985 25.6396 56.0229 25.6396ZM48.3908 9.21626H51.5729V16.1469C52.8142 14.6192 54.6536 13.6508 56.7075 13.6508C60.4462 13.6508 63.4771 16.8584 63.4771 20.813C63.4771 24.7693 60.4462 27.9752 56.7075 27.9752C54.6536 27.9752 52.8142 27.0068 51.5729 25.4791V27.8552H48.3908V9.21626Z"
                          fill="#0A3D8C"/>
                    <path fill-rule="evenodd" clip-rule="evenodd"
                          d="M118.836 13.8012H115.653V16.1452C114.412 14.6175 112.573 13.6508 110.519 13.6508C106.78 13.6508 103.749 16.8584 103.749 20.813C103.749 24.7693 106.78 27.9752 110.519 27.9752C112.573 27.9752 114.412 27.0085 115.653 25.4807V27.8552H118.836V13.8012ZM111.202 25.6396C108.777 25.6396 106.812 23.5187 106.812 20.9042C106.812 18.2898 108.777 16.1689 111.202 16.1689C113.626 16.1689 115.592 18.2898 115.592 20.9042C115.594 23.5204 113.628 25.6396 111.202 25.6396ZM125.73 9.30583H122.548V27.8586H125.73V9.30583ZM132.626 9.30583H129.444V27.8586H132.626V9.30583Z"
                          fill="#595758"/>
                    <path fill-rule="evenodd" clip-rule="evenodd"
                          d="M66.4249 13.9516H69.4309V27.7386H66.4249V13.9516ZM67.8689 12.2735C68.8941 12.2735 69.725 11.4285 69.725 10.3857C69.725 9.34301 68.8941 8.49801 67.8689 8.49801C66.8436 8.49801 66.0128 9.34301 66.0128 10.3857C66.0128 11.4285 66.8436 12.2735 67.8689 12.2735ZM76.8568 10.5345V14.0108H80.3929V16.4089H76.8568V24.5411C76.8568 24.9163 77.1576 25.2205 77.5248 25.2205H80.3929V27.6186H76.5827C75.1104 27.6186 73.909 26.3967 73.909 24.8994V16.4089H71.9649V14.0108H73.909V10.5345H76.8568Z"
                          fill="#0A3D8C"/>
                    <path fill-rule="evenodd" clip-rule="evenodd"
                          d="M156.303 10.5345V14.0108H159.839V16.4089H156.303V24.5411C156.303 24.9163 156.604 25.2205 156.971 25.2205H159.839V27.6186H156.029C154.556 27.6186 153.355 26.3967 153.355 24.8994V16.4089H151.411V14.0108H153.355V10.5345H156.303ZM102.639 13.8925H99.5752L96.644 24.5293L93.7128 13.8925H90.2632L87.3619 24.4346L84.4606 13.8925H81.3965L85.7268 27.5949H89.0003L91.9897 18.1952L94.979 27.5949H98.0431L102.639 13.8925ZM142.72 27.9025C145.77 27.9025 148.38 26.0604 149.448 23.4528H146.163C145.392 24.6003 144.138 25.3472 142.72 25.3472C140.691 25.3472 138.997 23.8178 138.576 21.7746H149.902C149.945 21.4602 149.969 21.1408 149.969 20.8147C149.969 16.9007 146.723 13.7268 142.72 13.7268C138.717 13.7268 135.472 16.9007 135.472 20.8147C135.472 24.7287 138.717 27.9025 142.72 27.9025ZM138.553 19.9156C138.93 17.8116 140.653 16.223 142.72 16.223C144.787 16.223 146.511 17.8116 146.888 19.9156H138.553Z"
                          fill="#595758"/>
                </g>
            </g>
        </g>
    </g>
</svg>
