<svg width="85" height="34" viewBox="0 0 85 34" fill="none" xmlns="http://www.w3.org/2000/svg">
<g clip-path="url(#clip0_1894_10594)">
<path d="M4.68426 14.0947C4.59745 13.9211 4.51064 13.6607 4.42383 13.4871V13.4002C4.59745 13.053 4.77107 12.7058 5.03151 12.3585C5.11832 12.2717 5.20513 12.2717 5.29194 12.2717C6.76773 12.0113 8.24353 12.3585 9.37207 13.3134C9.89294 13.7475 10.327 14.2684 10.6742 14.9629C10.6742 14.9629 10.6742 15.0497 10.7611 15.0497C10.8479 15.3101 10.9347 15.4837 11.0215 15.7442C11.1083 16.0046 11.1951 16.3518 11.1951 16.6123C11.2819 16.9595 11.2819 17.3936 11.1951 17.7408C11.1951 17.8276 11.1083 17.7408 11.1083 17.7408C10.6742 17.5672 10.2402 17.4804 9.71932 17.3936C9.63251 17.3936 9.63251 17.3936 9.63251 17.3068C9.63251 17.1331 9.63251 17.0463 9.63251 16.8727C9.63251 16.7859 9.5457 16.6991 9.5457 16.6123C9.45889 16.1782 9.37208 15.831 9.19845 15.4837C9.11164 15.3969 9.11164 15.2233 8.93802 15.2233C9.02483 15.2233 9.02483 15.1365 8.93802 15.0497C8.41715 14.3552 7.63585 13.8343 6.76773 13.7475C6.59411 13.7475 6.5073 13.7475 6.33368 13.7475C6.16005 13.7475 5.98643 13.7475 5.81281 13.7475C5.46556 13.7475 5.11832 13.9211 4.85788 14.0079C4.77107 14.0947 4.68426 14.0947 4.68426 14.0947Z" fill="#1DBAE0"/>
<path d="M13.2788 14.7029C13.3656 14.7897 13.5393 14.8765 13.6261 14.8765H13.7129C14.1469 15.1369 14.6678 15.2237 15.1887 15.1369C15.5359 15.1369 15.8832 15.0501 16.2304 14.9633C16.8381 14.7029 17.359 14.3556 17.793 13.7479C17.8798 13.6611 17.793 13.6611 17.793 13.5743C17.9666 13.5743 17.9666 13.4007 18.0535 13.3139C18.2271 12.9666 18.3139 12.5326 18.4007 12.1853C18.4007 12.0985 18.4007 12.0985 18.4875 12.0117C18.6611 12.0117 18.9216 12.0117 19.0952 12.0985C19.182 12.0985 19.182 12.1853 19.182 12.1853C19.4424 12.5326 19.6161 12.8798 19.7897 13.2271C19.7897 13.3139 19.7897 13.4007 19.7897 13.4875C19.2688 15.1369 17.793 16.4391 16.0568 16.7863C15.6227 16.8732 15.1019 16.8732 14.6678 16.8732C14.581 16.8732 14.4942 16.8732 14.3206 16.8732C13.8865 16.7863 13.4525 16.6995 13.1052 16.5259C12.758 16.3523 12.4107 16.1787 12.0635 15.9182C12.0635 15.8314 12.1503 15.8314 12.1503 15.8314C12.4975 15.571 12.8448 15.2237 13.1052 14.8765C13.192 14.7897 13.192 14.7029 13.2788 14.7029Z" fill="#1DBAE0"/>
<path d="M13.6252 19.2168C13.5384 19.3036 13.3648 19.3036 13.278 19.3904C13.1912 19.4772 13.0175 19.5641 12.9307 19.6509C12.5835 19.9113 12.3231 20.2585 12.1494 20.6058C11.9758 20.953 11.889 21.3003 11.8022 21.6475C11.7154 22.2552 11.8022 22.9497 12.0626 23.4706C12.0626 23.5574 12.1494 23.5574 12.1494 23.6442C12.4099 24.0782 12.7571 24.5123 13.1912 24.8595L13.278 24.9464C13.1912 25.12 13.0175 25.2936 12.8439 25.4672C12.7571 25.554 12.6703 25.554 12.5835 25.554C12.2362 25.554 11.889 25.554 11.5418 25.554C11.5418 25.554 11.4549 25.554 11.4549 25.4672C10.7605 24.6859 10.3264 23.731 10.2396 22.7761C10.066 21.5607 10.3264 20.4322 11.0209 19.3904V19.3036C11.1077 19.13 11.1945 18.9564 11.3681 18.8696C11.6286 18.6091 11.889 18.3487 12.1494 18.0883C12.4099 17.9146 12.7571 17.741 13.0176 17.5674C13.1044 17.5674 13.1044 17.4806 13.1912 17.5674L13.278 17.6542C13.3648 18.0883 13.4516 18.5223 13.6252 18.9564C13.6252 19.13 13.712 19.2168 13.6252 19.2168Z" fill="#1DBAE0"/>
<path d="M12.1498 18.2618C12.063 18.3486 11.9762 18.4355 11.8894 18.4355C11.5422 18.6959 11.2817 19.0431 11.0213 19.3904L10.674 19.2168C10.5872 19.2168 10.5004 19.2168 10.4136 19.1299C9.97955 18.9563 9.45868 18.8695 8.93781 18.8695C8.33013 18.8695 7.63564 19.1299 7.11477 19.4772C6.76753 19.7376 6.42028 20.0849 6.15985 20.4321C5.89942 20.8662 5.72579 21.387 5.63898 21.9079C5.63898 21.9947 5.63898 21.9947 5.55217 22.0815C5.29174 22.0815 5.11811 22.0815 4.94449 21.9947C4.94449 21.9947 4.85768 21.9947 4.85768 21.9079C4.59725 21.5607 4.42362 21.2134 4.25 20.8662C4.25 20.7794 4.25 20.7794 4.25 20.6925C4.68406 19.4772 5.55217 18.4355 6.68072 17.8278C7.54883 17.3937 8.41694 17.2201 9.37187 17.2201C9.89274 17.2201 10.5004 17.3937 10.9345 17.6541H11.0213C11.2817 17.741 11.5422 17.9146 11.8026 18.0882C12.063 18.175 12.1498 18.175 12.1498 18.2618Z" fill="#00A8E4"/>
<path d="M13.6256 19.2168C13.452 18.7827 13.2784 18.3487 13.1915 17.8278C13.1915 17.741 13.1915 17.6542 13.1915 17.6542C13.1047 17.5674 13.1047 17.4806 13.1047 17.3937C13.1047 17.1333 13.1047 16.9597 13.1047 16.6993C13.1047 16.6124 13.1047 16.5256 13.1915 16.5256C13.2784 16.5256 13.2784 16.5256 13.2784 16.5256C13.7124 16.6993 14.1465 16.7861 14.5805 16.8729C14.6673 16.8729 14.6673 16.8729 14.7542 16.8729C14.7542 16.9597 14.7542 17.1333 14.7542 17.2201L14.841 17.3069C14.9278 17.8278 15.1014 18.3487 15.3618 18.7827C15.7091 19.3904 16.3168 19.8245 16.9244 20.0849C17.2717 20.2585 17.6189 20.3453 18.053 20.3453C18.5738 20.3453 19.0947 20.2585 19.5288 20.0849H19.6156C19.7024 20.2585 19.7892 20.519 19.876 20.6926V20.7794C19.7024 21.1266 19.5288 21.4739 19.2683 21.8211C19.2683 21.9079 19.1815 21.9079 19.0947 21.9079C16.9244 22.4288 14.6673 21.3003 13.6256 19.2168Z" fill="#00A8E4"/>
<path d="M13.2783 14.7026C13.1046 14.963 12.8442 15.2234 12.5838 15.4839C12.4102 15.6575 12.3233 15.7443 12.1497 15.8311C12.1497 15.9179 12.0629 15.9179 12.0629 15.9179C11.8025 16.0915 11.542 16.2652 11.2816 16.352H11.1948C11.108 15.8311 11.0212 15.3971 10.7607 14.8762V14.7894C10.8476 14.7026 11.0212 14.7026 11.108 14.6158C11.2816 14.4421 11.4552 14.3553 11.6289 14.1817C11.8893 13.9213 12.0629 13.6608 12.2365 13.4004C12.4102 13.0531 12.497 12.7059 12.5838 12.2718C12.6706 11.5774 12.5838 10.9697 12.2365 10.362C11.9761 9.92794 11.6289 9.49388 11.2816 9.23345C11.1948 9.23345 11.1948 9.14664 11.1948 9.05983C11.2816 8.88621 11.4552 8.71258 11.542 8.53896L11.6289 8.45215C12.0629 8.45215 12.497 8.45215 12.8442 8.45215C12.931 8.45215 12.931 8.45215 13.0178 8.53896C13.7123 9.32026 14.1464 10.1884 14.2332 11.2301C14.2332 12.4455 13.9728 13.6608 13.2783 14.7026Z" fill="#00A8E4"/>
<path d="M19.7024 20.0849C19.1815 20.3453 18.6606 20.4321 18.0529 20.4321C17.9661 20.4321 17.9661 20.3453 17.9661 20.2585C17.5321 19.564 16.8376 19.1299 16.0563 18.9563C15.8827 18.8695 15.6222 18.8695 15.4486 18.8695C15.1882 18.4355 15.0145 17.9146 14.9277 17.3069V17.2201C15.1014 17.2201 15.275 17.2201 15.4486 17.2201C16.664 17.2201 17.7925 17.6541 18.6606 18.5223C19.0079 18.9563 19.3551 19.4772 19.7024 20.0849Z" fill="#1DBAE0"/>
<path d="M8.85054 15.3101C9.11097 15.3101 9.11097 15.4837 9.19778 15.6573C9.37141 16.0914 9.54503 16.5254 9.54503 16.9595C7.54837 17.1331 5.55171 16.0046 4.68359 14.1815C4.68359 14.1815 4.68359 14.1815 4.68359 14.0947C4.94403 13.9211 5.20446 13.8343 5.55171 13.7475C5.81214 13.7475 5.98576 13.6606 6.2462 13.6606C6.33301 13.6606 6.33301 13.6606 6.41982 13.7475C6.50663 13.7475 6.50663 13.8343 6.59344 13.9211C7.11431 14.6156 7.8088 15.0496 8.67692 15.2232C8.67692 15.2232 8.76373 15.2232 8.85054 15.3101Z" fill="#00A8E4"/>
<path d="M18.5735 12.0985C18.5735 12.5326 18.3998 13.0535 18.2262 13.4007C18.1394 13.4875 18.1394 13.6611 17.9658 13.6611C17.879 13.6611 17.879 13.7479 17.7921 13.7479C16.8372 13.8348 16.0559 14.3556 15.5351 15.1369L15.4482 15.2237C15.2746 15.3106 15.101 15.3106 15.0142 15.2237C14.5801 15.2237 14.2329 15.0501 13.8856 14.8765C13.8856 14.8765 13.8856 14.8765 13.7988 14.7897C14.4933 13.3139 15.7955 12.2722 17.4449 12.0117C17.7053 12.0985 18.1394 12.0117 18.5735 12.0985Z" fill="#00A8E4"/>
<path d="M13.2782 25.1199C12.8442 24.8595 12.4101 24.4254 12.1497 23.9046C12.1497 23.9046 12.1497 23.9046 12.1497 23.8178C12.1497 23.7309 12.1497 23.7309 12.1497 23.6441C12.5837 22.776 12.5837 21.7343 12.1497 20.7794C12.1497 20.6925 12.0629 20.6926 12.1497 20.6057V20.5189C12.4101 20.0849 12.7573 19.6508 13.1914 19.3904C13.1914 19.3904 13.1914 19.3904 13.2782 19.3904C13.7123 19.9981 13.9727 20.7794 14.0595 21.4739C14.3199 22.776 14.0595 24.0782 13.2782 25.1199Z" fill="#00A8E4"/>
<path d="M5.81274 22.0816C5.81274 21.4739 5.98637 20.9531 6.33361 20.519C6.42042 20.519 6.50723 20.4322 6.68086 20.4322C7.37535 20.3454 8.06984 19.9982 8.5039 19.5641C8.67752 19.3905 8.85114 19.2169 8.93795 19.0432C8.93795 18.9564 9.02476 18.9564 9.02476 18.9564C9.63244 18.9564 10.1533 19.0432 10.6742 19.3037C10.5874 19.3037 10.5874 19.3905 10.5874 19.3905C9.97969 20.6926 8.76433 21.6476 7.37535 21.9948C6.94129 22.0816 6.33361 22.0816 5.81274 22.0816Z" fill="#1DBAE0"/>
<path d="M11.021 9.05957C11.1946 9.23319 11.3682 9.32 11.455 9.40682C11.7155 9.66725 11.8891 9.92768 12.0627 10.2749C12.0627 10.2749 12.0627 10.2749 12.0627 10.3617C12.0627 10.4486 12.0627 10.5354 11.9759 10.5354C11.5419 11.4035 11.5419 12.4452 11.9759 13.3133C11.9759 13.4001 11.9759 13.4001 12.0627 13.4869C11.8023 13.921 11.455 14.3551 11.1078 14.6155C11.1078 14.6155 11.021 14.7023 10.9342 14.7023C10.7606 14.4419 10.5869 14.2683 10.5001 13.921C10.1529 13.1397 9.97926 12.3584 10.0661 11.4903C10.2397 10.709 10.5001 9.84087 11.021 9.05957Z" fill="#1DBAE0"/>
<path d="M34.0478 15.3104C33.3533 15.3104 32.6589 15.3104 32.0512 15.3104C31.8776 15.3104 31.7907 15.1368 31.7039 15.05C31.3567 14.1819 30.6622 14.0083 29.8809 14.0083C29.0128 14.0083 28.2315 14.2687 27.7974 15.1368C27.1029 16.439 27.1897 18.0016 27.7974 19.3038C28.2315 20.1719 29.0996 20.5191 30.0545 20.4323C30.8358 20.4323 31.6171 19.8246 31.7907 19.0433C31.7907 18.9565 31.8776 18.8697 31.8776 18.7829H34.1346C34.2214 20.4323 32.9193 21.9081 31.1831 22.2553C27.7974 23.0366 25.2799 21.04 25.1063 17.6543C25.0195 16.439 25.193 15.2236 25.7139 14.1819C26.8425 12.0984 29.8809 11.3171 32.138 12.4456C33.2665 13.0533 33.8742 14.0083 34.0478 15.3104Z" fill="black"/>
<path d="M61.1334 17.4808C61.1334 16.1786 61.7411 15.3105 62.8696 15.0501C63.7377 14.8764 64.6058 14.8765 65.4739 14.9633C66.7761 15.1369 67.3838 15.9182 67.4706 17.2204C67.5574 18.8698 67.4706 20.5192 67.4706 22.1686C66.2552 22.5159 65.4739 22.3422 65.3003 21.7346C64.4322 22.3422 63.4773 22.429 62.4355 22.1686C61.5674 22.0818 60.7861 21.3873 60.6993 20.4324C60.5257 19.217 60.9597 18.4357 62.0015 18.0885C62.8696 17.7412 63.8245 17.6544 64.6926 17.394C64.8662 17.3072 65.0398 17.1336 65.2135 17.0467C65.0398 16.8731 64.953 16.6127 64.7794 16.5259C64.0849 16.2654 63.3036 16.4391 62.9564 17.0467C62.8696 17.1336 62.7827 17.2204 62.6091 17.3072C62.1751 17.4808 61.6542 17.4808 61.1334 17.4808ZM65.2135 18.783C64.519 18.9566 63.9113 19.1302 63.3037 19.3038C62.9564 19.3907 62.6091 19.7379 62.7828 20.172C62.9564 20.4324 63.2168 20.6928 63.4772 20.7796C64.3453 20.9532 65.1267 20.3456 65.2135 19.5643C65.3871 19.3038 65.3003 19.0434 65.2135 18.783Z" fill="black"/>
<path d="M42.0347 19.304H36.9128C36.826 19.8248 37.1733 20.4325 37.6942 20.6061C38.3886 20.8666 38.9963 20.8665 39.6908 20.4325C39.9512 20.2589 40.3853 20.2589 40.7325 20.2589C41.0798 20.2589 41.5138 20.2589 41.8611 20.2589C41.7743 21.8215 39.8644 22.6896 38.1282 22.516C36.0447 22.4291 34.4821 20.6061 34.6558 18.6094C34.6558 18.5226 34.6558 18.4358 34.6558 18.349C34.8294 16.3524 36.5656 14.7898 38.6491 14.9634C38.7359 14.9634 38.9095 14.9634 38.9963 14.9634C40.993 15.137 42.2952 17.1337 42.0347 19.304ZM39.9512 17.7413C39.8644 16.8732 39.4304 16.526 38.6491 16.4392C37.8678 16.3523 37.1732 16.8732 36.9996 17.6545H39.9512V17.7413Z" fill="black"/>
<path d="M68.5117 14.9632H70.5952L70.682 15.4841C71.2897 15.2236 71.9841 15.05 72.5918 14.9632C73.9808 14.8764 75.0225 15.7445 75.1094 17.1335C75.1962 18.8697 75.1094 20.606 75.1094 22.429H72.9391C72.9391 21.5609 72.9391 20.7796 72.9391 19.9115C72.9391 19.217 72.9391 18.6093 72.9391 17.9148C72.9391 17.1335 72.5919 16.7863 71.8974 16.7863C71.2897 16.6994 70.7688 17.2203 70.682 17.828V17.9148C70.5952 18.6961 70.682 19.4774 70.682 20.1719C70.682 20.8664 70.682 21.6477 70.682 22.3422H68.5985L68.5117 14.9632Z" fill="black"/>
<path d="M56.2716 14.9631V22.3421H54.2749L54.1882 21.5608C53.4937 22.5157 52.6255 22.5157 51.6706 22.3421C50.9761 22.2553 50.3684 21.8212 50.108 21.1267C49.9344 20.7795 49.8476 20.4322 49.7607 19.9982C49.7607 18.3488 49.7607 16.6994 49.7607 14.9631H51.8442C51.8442 16.1785 51.8442 17.307 51.8442 18.5224C51.8442 18.9564 51.8442 19.3905 51.931 19.7378C52.0178 20.2586 52.4519 20.6927 53.0596 20.6927C53.0596 20.6927 53.0596 20.6927 53.1464 20.6927C53.7541 20.6927 54.1882 20.2586 54.1882 19.6509C54.1882 18.3488 54.1882 17.1334 54.1882 15.8312C54.1882 15.5708 54.1882 15.3104 54.1882 15.0499L56.2716 14.9631Z" fill="black"/>
<path d="M76.6727 16.5259L75.6309 16.4391V14.8765L76.5858 14.7897V12.4458H78.8429V14.7897L80.1451 14.8765V16.4391H78.9297C78.9297 17.7413 78.9297 19.0435 78.9297 20.2588C78.9297 20.3456 79.1902 20.5193 79.3638 20.6061C79.6242 20.6061 79.8847 20.6061 80.1451 20.6061V22.3423C79.3638 22.2555 78.4957 22.3423 77.7144 22.1687C77.1067 22.0819 76.6727 21.6478 76.6727 21.0401C76.5858 20.0852 76.5858 19.2171 76.5858 18.2622C76.6726 17.7413 76.6727 17.1336 76.6727 16.5259Z" fill="black"/>
<path d="M45.0729 11.9248H42.9026V22.2553H45.0729V11.9248Z" fill="black"/>
<path d="M59.7435 11.9248H57.5732V22.3422H59.7435V11.9248Z" fill="black"/>
<path d="M46.2883 22.2553C46.2883 18.8697 46.2883 15.5709 46.2883 12.272C46.2883 12.1852 46.2883 12.0984 46.2883 11.9248H48.4586V22.2553H46.2883Z" fill="black"/>
</g>
<defs>
<clipPath id="clip0_1894_10594">
<rect width="85" height="34" fill="white"/>
</clipPath>
</defs>
</svg>
