<svg width="85" height="34" viewBox="0 0 85 34" fill="none" xmlns="http://www.w3.org/2000/svg">
<path fill-rule="evenodd" clip-rule="evenodd" d="M32.2549 7.20192C30.5412 5.8248 28.3655 5 26 5C20.4844 5 16 9.4844 16 15C16 20.5156 20.4844 25 26 25C28.8287 25 31.3862 23.8206 33.2066 21.9274C31.579 19.66 30.6154 16.847 30.6154 13.8C30.6154 11.4058 31.2104 9.15608 32.2549 7.20192ZM34.2325 20.6724C35.3468 19.0598 36 17.105 36 15C36 12.4302 35.0265 10.0842 33.4289 8.31144C32.614 9.95632 32.1538 11.8223 32.1538 13.8C32.1538 16.3562 32.9225 18.7258 34.2325 20.6724ZM25.4133 18.6495L26.0652 15.7114L27.6167 15.031L28.0078 13.299L27.9948 13.2681L26.4694 13.933L27.5645 9H24.4355L22.9882 15.433L21.7888 15.9588L21.3846 17.7371L22.5972 17.2114L21.7366 21H30.0808L30.6154 18.6495H25.4133Z" fill="#D8D8D8"/>
<path fill-rule="evenodd" clip-rule="evenodd" d="M54.8564 21.9923C56.5786 19.7138 57.6 16.8761 57.6 13.8C57.6 11.3722 56.9637 9.0928 55.8488 7.11968C57.5462 5.792 59.682 5 62 5C67.5156 5 72 9.4844 72 15C72 20.5156 67.5156 25 62 25C59.2038 25 56.6726 23.8474 54.8564 21.9923ZM53.8026 20.723C55.1867 18.7668 56 16.3783 56 13.8C56 11.7934 55.5074 9.90184 54.6366 8.23952C53.0001 10.0206 52 12.3953 52 15C52 17.127 52.6669 19.1006 53.8026 20.723ZM58.4 14.5045L62 8.2L65.6 14.5045L62 16.797L58.4 14.5045ZM62 17.7522L58.4 15.4597L62 21L65.6 15.4597L62 17.7522Z" fill="#5AB5F7"/>
<path fill-rule="evenodd" clip-rule="evenodd" d="M44 26C50.627 26 56 20.627 56 14C56 7.37304 50.627 2 44 2C37.373 2 32 7.37304 32 14C32 20.627 37.373 26 44 26ZM50.4 16.1226C50.4 14.4174 49.0146 13.6774 48.0146 13.4226C48.8374 13.1254 49.796 11.9054 49.4094 10.452C49.0826 9.22264 47.944 8.132 45.0666 8.03464V6H43.7334V8H43.0666V6H41.7334V8H38.4V10H39.4894C40.0774 10 40.4 10.3814 40.4 10.936V16.8614C40.4 17.4334 40.0626 18 39.4734 18H38.7546L38.4214 19.9854H41.7334V22H43.0666V19.9854H43.7334V22H45.0666V20C48.608 20 50.4 18.444 50.4 16.1226ZM46.7854 11.6666C46.7854 10.3334 45.4 10 43.0666 10V13.3334C44.54 13.3334 46.7854 13.2294 46.7854 11.6666ZM43.0666 14.6626V18C45.712 18 47.5254 17.7494 47.5254 16.3226C47.5254 14.792 45.5666 14.6626 43.0666 14.6626Z" fill="#F2B072"/>
<path d="M66.3328 31C66.1094 31 65.9511 30.9883 65.8578 30.965C65.7644 30.9417 65.7178 30.9183 65.7178 30.895L65.9178 30.37C65.9578 30.38 66.0761 30.3917 66.2728 30.405C66.4728 30.415 66.7628 30.42 67.1428 30.42H67.4978C67.5811 30.42 67.6328 30.4117 67.6528 30.395C67.6761 30.375 67.6878 30.3417 67.6878 30.295C67.6878 30.2383 67.6744 30.2033 67.6478 30.19C67.6244 30.1733 67.5744 30.165 67.4978 30.165H66.4828C66.2394 30.165 66.0511 30.12 65.9178 30.03C65.7844 29.9367 65.7178 29.7717 65.7178 29.535V29.435C65.7178 29.3117 65.7344 29.2 65.7678 29.1C65.8011 28.9967 65.8728 28.915 65.9828 28.855C66.0928 28.7917 66.2594 28.76 66.4828 28.76H67.9628C68.1628 28.76 68.3044 28.7717 68.3878 28.795C68.4711 28.8183 68.5128 28.8417 68.5128 28.865L68.4628 29.395C68.4094 29.385 68.2744 29.375 68.0578 29.365C67.8444 29.3517 67.5494 29.345 67.1728 29.345H66.8178C66.7344 29.345 66.6811 29.355 66.6578 29.375C66.6378 29.3917 66.6278 29.4217 66.6278 29.465C66.6278 29.5083 66.6378 29.54 66.6578 29.56C66.6811 29.5767 66.7344 29.585 66.8178 29.585H67.8528C68.1128 29.585 68.3044 29.6417 68.4278 29.755C68.5511 29.8683 68.6128 30.0267 68.6128 30.23V30.325C68.6128 30.445 68.5978 30.5567 68.5678 30.66C68.5378 30.76 68.4694 30.8417 68.3628 30.905C68.2561 30.9683 68.0861 31 67.8528 31H66.3328Z" fill="#474747"/>
<path d="M64.2697 31.0001C64.0164 31.0001 63.843 30.9467 63.7497 30.8401C63.6564 30.7334 63.6097 30.5734 63.6097 30.3601V29.3901H63.1997V28.7601H63.4097C63.4664 28.7601 63.5114 28.7501 63.5447 28.7301C63.5814 28.7067 63.6047 28.6667 63.6147 28.6101L63.7097 28.0751H64.5297V28.7601H65.3647V29.3901H64.5297V30.1651C64.5297 30.2484 64.5497 30.3034 64.5897 30.3301C64.6297 30.3567 64.6897 30.3701 64.7697 30.3701H65.2697L65.3697 30.9501C65.2997 30.9601 65.193 30.9717 65.0497 30.9851C64.9064 30.9951 64.7497 31.0001 64.5797 31.0001H64.2697Z" fill="#474747"/>
<path d="M59.9231 31V28.76H60.6481L60.8481 28.86C60.9881 28.8333 61.1564 28.81 61.3531 28.79C61.5531 28.77 61.7398 28.76 61.9131 28.76H62.1631C62.3298 28.76 62.4581 28.7833 62.5481 28.83C62.6381 28.8767 62.7014 28.935 62.7381 29.005C62.7781 29.075 62.8014 29.1467 62.8081 29.22C62.8181 29.29 62.8231 29.35 62.8231 29.4V31H61.9081V29.59C61.9081 29.4567 61.8281 29.39 61.6681 29.39H60.9981C60.9348 29.39 60.8931 29.3967 60.8731 29.41C60.8564 29.42 60.8481 29.45 60.8481 29.5V31H59.9231Z" fill="#474747"/>
<path d="M57.3726 31C57.1526 31 56.9826 30.9683 56.8626 30.905C56.746 30.8417 56.6659 30.755 56.6226 30.645C56.5793 30.5317 56.5576 30.4017 56.5576 30.255V29.5C56.5576 29.3667 56.5793 29.245 56.6226 29.135C56.6693 29.0217 56.751 28.9317 56.8676 28.865C56.9843 28.795 57.1526 28.76 57.3726 28.76H58.4076C58.6676 28.76 58.866 28.7917 59.0026 28.855C59.1426 28.915 59.2376 29.0017 59.2876 29.115C59.341 29.225 59.3676 29.3533 59.3676 29.5V30.14H58.4926C58.1926 30.14 57.9643 30.1333 57.8076 30.12C57.6543 30.1067 57.5459 30.0983 57.4826 30.095V30.17C57.4793 30.3033 57.5593 30.37 57.7226 30.37H57.8776C58.1443 30.37 58.391 30.365 58.6176 30.355C58.8443 30.3417 59.0126 30.33 59.1226 30.32L59.4226 30.795C59.4226 30.8283 59.3943 30.86 59.3376 30.89C59.2809 30.92 59.181 30.9467 59.0376 30.97C58.8976 30.99 58.6976 31 58.4376 31H57.3726ZM57.4826 29.66H58.4426V29.59C58.4426 29.5233 58.436 29.4767 58.4226 29.45C58.4126 29.4233 58.3776 29.4067 58.3176 29.4C58.2576 29.3933 58.156 29.39 58.0126 29.39H57.7226C57.5626 29.39 57.4826 29.4567 57.4826 29.59V29.66Z" fill="#474747"/>
<path d="M51.9592 31V28.76H52.6842L52.8092 28.82C52.9059 28.8033 53.0142 28.79 53.1342 28.78C53.2576 28.7667 53.3892 28.76 53.5292 28.76H53.7992C53.8959 28.76 53.9892 28.7733 54.0792 28.8C54.1692 28.8233 54.2359 28.8583 54.2792 28.905C54.3359 28.875 54.3976 28.85 54.4642 28.83C54.5309 28.8067 54.6159 28.79 54.7192 28.78C54.8259 28.7667 54.9609 28.76 55.1242 28.76H55.3742C55.5409 28.76 55.6692 28.7833 55.7592 28.83C55.8492 28.8767 55.9126 28.935 55.9492 29.005C55.9892 29.075 56.0126 29.1467 56.0192 29.22C56.0292 29.29 56.0342 29.35 56.0342 29.4V31H55.1192V29.59C55.1192 29.4567 55.0392 29.39 54.8792 29.39H54.5992C54.5459 29.39 54.5092 29.3967 54.4892 29.41C54.4692 29.4233 54.4592 29.4533 54.4592 29.5V31H53.5292V29.59C53.5292 29.4567 53.4492 29.39 53.2892 29.39H53.0342C52.9709 29.39 52.9292 29.3967 52.9092 29.41C52.8926 29.42 52.8842 29.45 52.8842 29.5V31H51.9592Z" fill="#474747"/>
<path d="M49.1101 31.98C48.9267 31.98 48.7601 31.9617 48.6101 31.925C48.4601 31.8917 48.3567 31.8583 48.3 31.825L48.5 31.21C48.6 31.2533 48.7067 31.2867 48.82 31.31C48.9367 31.3333 49.0467 31.345 49.15 31.345H49.205C49.495 31.345 49.7051 31.23 49.8351 31H49.5301L48.55 28.76H49.555L49.9851 30.09L50.06 30.395H50.1101L50.185 30.09L50.6201 28.76H51.6101L51.5301 29.065C51.4667 29.195 51.3934 29.345 51.31 29.515C51.23 29.6817 51.1467 29.855 51.06 30.035C50.9734 30.215 50.8884 30.3883 50.805 30.555C50.725 30.7217 50.6534 30.87 50.59 31C50.4267 31.3333 50.2384 31.58 50.025 31.74C49.8117 31.9 49.5517 31.98 49.2451 31.98H49.1101Z" fill="#474747"/>
<path d="M46.1857 31C45.8924 31 45.6824 30.945 45.5557 30.835C45.4291 30.725 45.3657 30.5417 45.3657 30.285C45.3657 30.0483 45.4307 29.8767 45.5607 29.77C45.6941 29.6633 45.9024 29.61 46.1857 29.61H46.3407C46.5274 29.61 46.7057 29.6167 46.8757 29.63C47.0457 29.6433 47.1924 29.6567 47.3157 29.67V29.59C47.3157 29.5433 47.3057 29.4983 47.2857 29.455C47.2657 29.4117 47.1957 29.39 47.0757 29.39H46.8257C46.4624 29.39 46.1824 29.3967 45.9857 29.41C45.7891 29.42 45.6674 29.43 45.6207 29.44L45.5657 28.91C45.5657 28.8767 45.6241 28.85 45.7407 28.83C45.8574 28.8067 46.0174 28.79 46.2207 28.78C46.4241 28.7667 46.6557 28.76 46.9157 28.76H47.4157C47.6357 28.76 47.8041 28.7933 47.9207 28.86C48.0374 28.9233 48.1174 29.01 48.1607 29.12C48.2041 29.23 48.2257 29.3567 48.2257 29.5V31H47.5157L47.3207 30.9C47.2407 30.9167 47.1124 30.9383 46.9357 30.965C46.7624 30.9883 46.5624 31 46.3357 31H46.1857ZM46.4757 30.41H47.1657C47.2391 30.41 47.2824 30.4033 47.2957 30.39C47.3091 30.3767 47.3157 30.335 47.3157 30.265V30.09H46.4757C46.4124 30.09 46.3657 30.1017 46.3357 30.125C46.3057 30.1483 46.2907 30.1933 46.2907 30.26C46.2907 30.3233 46.3057 30.365 46.3357 30.385C46.3657 30.4017 46.4124 30.41 46.4757 30.41Z" fill="#474747"/>
<path d="M41.5673 31.0001V28.4601L41.5173 28.0551H43.8323C44.0557 28.0551 44.234 28.0801 44.3673 28.1301C44.504 28.1767 44.6057 28.2417 44.6723 28.3251C44.7423 28.4051 44.7873 28.5001 44.8073 28.6101C44.8307 28.7167 44.8423 28.8301 44.8423 28.9501V29.3451C44.8423 29.5051 44.8157 29.6534 44.7623 29.7901C44.7123 29.9234 44.6173 30.0317 44.4773 30.1151C44.3407 30.1951 44.1423 30.2351 43.8823 30.2351H43.5373C43.3273 30.2351 43.1307 30.2301 42.9473 30.2201C42.7673 30.2101 42.6323 30.2017 42.5423 30.1951V31.0001H41.5673ZM42.5423 29.5551H43.5773C43.6873 29.5551 43.764 29.5334 43.8073 29.4901C43.8507 29.4467 43.8723 29.3767 43.8723 29.2801V29.0251C43.8723 28.9284 43.8523 28.8584 43.8123 28.8151C43.7723 28.7684 43.6957 28.7451 43.5823 28.7451H42.5423V29.5551Z" fill="#474747"/>
<path d="M37.6205 31C37.4005 31 37.2355 30.9683 37.1255 30.905C37.0155 30.8417 36.9421 30.755 36.9055 30.645C36.8721 30.5317 36.8555 30.4017 36.8555 30.255V29.5C36.8555 29.36 36.8738 29.235 36.9105 29.125C36.9471 29.0117 37.0188 28.9233 37.1255 28.86C37.2355 28.7933 37.4005 28.76 37.6205 28.76H39.0105C39.2305 28.76 39.3938 28.7933 39.5005 28.86C39.6105 28.9233 39.6821 29.0117 39.7155 29.125C39.7521 29.235 39.7705 29.36 39.7705 29.5V30.255C39.7705 30.4017 39.7521 30.5317 39.7155 30.645C39.6821 30.755 39.6105 30.8417 39.5005 30.905C39.3938 30.9683 39.2305 31 39.0105 31H37.6205ZM38.0205 30.37H38.6155C38.7755 30.37 38.8538 30.3033 38.8505 30.17V29.59C38.8505 29.5233 38.8321 29.4733 38.7955 29.44C38.7621 29.4067 38.7021 29.39 38.6155 29.39H38.0255C37.9388 29.39 37.8771 29.4067 37.8405 29.44C37.8038 29.4733 37.7855 29.5233 37.7855 29.59V30.17C37.7821 30.3033 37.8605 30.37 38.0205 30.37Z" fill="#474747"/>
<path d="M35.4074 31.0001C35.1541 31.0001 34.9807 30.9467 34.8874 30.8401C34.7941 30.7334 34.7474 30.5734 34.7474 30.3601V29.3901H34.3374V28.7601H34.5474C34.6041 28.7601 34.6491 28.7501 34.6824 28.7301C34.7191 28.7067 34.7424 28.6667 34.7524 28.6101L34.8474 28.0751H35.6674V28.7601H36.5024V29.3901H35.6674V30.1651C35.6674 30.2484 35.6874 30.3034 35.7274 30.3301C35.7674 30.3567 35.8274 30.3701 35.9074 30.3701H36.4074L36.5074 30.9501C36.4374 30.9601 36.3307 30.9717 36.1874 30.9851C36.0441 30.9951 35.8874 31.0001 35.7174 31.0001H35.4074Z" fill="#474747"/>
<path d="M31.0901 31.93V28.76H31.8001L31.9251 28.825C32.0751 28.8083 32.2368 28.7933 32.4101 28.78C32.5834 28.7667 32.8034 28.76 33.0701 28.76H33.2201C33.4434 28.76 33.6084 28.795 33.7151 28.865C33.8251 28.935 33.8968 29.0267 33.9301 29.14C33.9668 29.25 33.9851 29.37 33.9851 29.5V30.255C33.9851 30.4017 33.9584 30.5317 33.9051 30.645C33.8551 30.7583 33.7668 30.8467 33.6401 30.91C33.5134 30.97 33.3401 31 33.1201 31H32.9701C32.7901 31 32.6101 30.9933 32.4301 30.98C32.2534 30.9633 32.1101 30.95 32.0001 30.94V31.93H31.0901ZM32.1551 30.37H32.8201C32.9801 30.37 33.0601 30.3033 33.0601 30.17V29.59C33.0601 29.5233 33.0468 29.4733 33.0201 29.44C32.9934 29.4067 32.9268 29.39 32.8201 29.39H32.7751C32.5618 29.39 32.3951 29.395 32.2751 29.405C32.1584 29.415 32.0668 29.4233 32.0001 29.43V30.215C32.0001 30.2883 32.0068 30.3333 32.0201 30.35C32.0368 30.3633 32.0818 30.37 32.1551 30.37Z" fill="#474747"/>
<path d="M28.2409 31.98C28.0576 31.98 27.8909 31.9617 27.7409 31.925C27.5909 31.8917 27.4876 31.8583 27.4309 31.825L27.6309 31.21C27.7309 31.2533 27.8376 31.2867 27.9509 31.31C28.0676 31.3333 28.1776 31.345 28.2809 31.345H28.3359C28.6259 31.345 28.8359 31.23 28.9659 31H28.6609L27.6809 28.76H28.6859L29.1159 30.09L29.1909 30.395H29.2409L29.3159 30.09L29.7509 28.76H30.7409L30.6609 29.065C30.5976 29.195 30.5242 29.345 30.4409 29.515C30.3609 29.6817 30.2776 29.855 30.1909 30.035C30.1042 30.215 30.0192 30.3883 29.9359 30.555C29.8559 30.7217 29.7842 30.87 29.7209 31C29.5576 31.3333 29.3692 31.58 29.1559 31.74C28.9426 31.9 28.6826 31.98 28.3759 31.98H28.2409Z" fill="#474747"/>
<path d="M25.177 31.0001V28.7601H25.887L26.077 28.8601C26.2303 28.7601 26.4337 28.7101 26.687 28.7101C26.8537 28.7101 27.0003 28.7284 27.127 28.7651C27.2537 28.7984 27.3553 28.8351 27.432 28.8751C27.512 28.9151 27.562 28.9434 27.582 28.9601L27.332 29.6101C27.2987 29.5867 27.2353 29.5551 27.142 29.5151C27.052 29.4751 26.9453 29.4384 26.822 29.4051C26.6987 29.3684 26.5687 29.3501 26.432 29.3501H26.377C26.2837 29.3501 26.212 29.3667 26.162 29.4001C26.112 29.4301 26.087 29.4984 26.087 29.6051V31.0001H25.177Z" fill="#474747"/>
<path d="M22.3651 31.0001C22.0084 31.0001 21.7501 30.9217 21.5901 30.7651C21.4301 30.6084 21.3501 30.3551 21.3501 30.0051V29.0901C21.3501 28.7301 21.4384 28.4684 21.6151 28.3051C21.7918 28.1384 22.0418 28.0551 22.3651 28.0551H23.8251C24.0551 28.0551 24.2301 28.0684 24.3501 28.0951C24.4734 28.1184 24.5351 28.1434 24.5351 28.1701L24.3801 28.7951C24.2968 28.7851 24.1334 28.7751 23.8901 28.7651C23.6501 28.7517 23.3468 28.7451 22.9801 28.7451H22.7251C22.5684 28.7451 22.4618 28.7751 22.4051 28.8351C22.3518 28.8917 22.3251 28.9801 22.3251 29.1001V29.9551C22.3251 30.0684 22.3484 30.1567 22.3951 30.2201C22.4451 30.2801 22.5551 30.3101 22.7251 30.3101H22.9301C23.4068 30.3101 23.7701 30.3051 24.0201 30.2951C24.2701 30.2817 24.4201 30.2684 24.4701 30.2551L24.7751 30.7951C24.7751 30.8117 24.7401 30.8367 24.6701 30.8701C24.6034 30.9034 24.4884 30.9334 24.3251 30.9601C24.1651 30.9867 23.9418 31.0001 23.6551 31.0001H22.3651Z" fill="#474747"/>
</svg>
