<svg width="85" height="34" viewBox="0 0 85 34" fill="none" xmlns="http://www.w3.org/2000/svg">
<path d="M76.852 22.2059C69.9333 16.7795 56.6565 20.3238 44.5563 23.7474C43.8166 23.9564 43.0843 24.1632 42.3593 24.3679C29.4452 27.9957 21.5741 25.159 17.3458 23.6403C16.6739 23.3982 15.9656 23.1169 15.2387 22.8028V18.2667V17.9254H16.6789C17.6346 17.912 18.5466 17.523 19.2177 16.8424C19.8888 16.1619 20.265 15.2445 20.265 14.2887C20.265 13.3329 19.8888 12.4155 19.2177 11.7349C18.5466 11.0544 17.6346 10.6653 16.6789 10.6519H14.7011C14.5897 10.6476 14.4248 10.6448 14.3355 10.6448C14.2127 10.6448 14.1113 10.6498 14.0249 10.6583C13.9465 10.666 13.8696 10.6858 13.7972 10.7169C13.7373 10.7394 13.6869 10.7817 13.6544 10.8368C13.6283 10.8881 13.6155 10.945 13.6173 11.0025V22.0531C11.7444 21.1485 9.92697 20.1335 8.17443 19.0136L7.94238 18.8565L8.05805 19.11C9.20045 21.6154 11.2496 23.5903 14.1542 24.9812C16.6767 26.1886 19.8369 26.9568 23.5469 27.266C24.8028 27.3702 26.0773 27.4174 27.3518 27.4174C33.1659 27.4174 38.9693 26.432 42.8777 25.366C51.8291 22.9263 64.9781 20.4273 76.7848 22.3444L77.0576 22.3886L76.852 22.2059ZM15.2123 13.5486L15.2045 12.2049V11.9607H16.6767C16.9859 11.9553 17.293 12.0115 17.5802 12.126C17.8674 12.2406 18.1289 12.4112 18.3494 12.6279C18.57 12.8446 18.7451 13.1031 18.8647 13.3882C18.9843 13.6734 19.0459 13.9795 19.0459 14.2887C19.0459 14.5979 18.9843 14.904 18.8647 15.1891C18.7451 15.4742 18.57 15.7327 18.3494 15.9494C18.1289 16.1661 17.8674 16.3367 17.5802 16.4513C17.293 16.5659 16.9859 16.6221 16.6767 16.6167H15.2302L15.2123 13.5486Z" fill="#36AE37"/>
<path d="M27.7202 12.0963C27.616 11.7319 27.4235 11.3989 27.1597 11.1267C26.8758 10.8512 26.5298 10.6479 26.1508 10.5341C25.6673 10.3918 25.1647 10.3248 24.6607 10.3356C24.3493 10.3355 24.0386 10.3642 23.7325 10.4213C23.446 10.4723 23.1634 10.5439 22.8871 10.6355C22.6508 10.7132 22.421 10.8099 22.2003 10.9246C22.0458 11.001 21.9018 11.097 21.7719 11.2102C21.6878 11.2867 21.6278 11.3859 21.5991 11.4958C21.5738 11.6174 21.5628 11.7416 21.5662 11.8657C21.5658 11.9515 21.572 12.0372 21.5848 12.122C21.5951 12.1948 21.6178 12.2654 21.6519 12.3305C21.6801 12.3839 21.7208 12.4297 21.7704 12.464C21.8202 12.4976 21.879 12.515 21.9389 12.514C22.0268 12.514 22.1424 12.469 22.3031 12.3712C22.4459 12.287 22.6258 12.1927 22.8393 12.0906C23.0793 11.9786 23.3275 11.8853 23.5819 11.8114C23.8904 11.7239 24.21 11.6816 24.5308 11.6858C24.8105 11.6792 25.0895 11.718 25.3569 11.8007C25.5587 11.8667 25.7412 11.9815 25.8881 12.1349C26.0304 12.2938 26.1321 12.4849 26.1844 12.6918C26.2512 12.9515 26.2831 13.219 26.2793 13.4872V14.0284H25.2583C24.689 14.0232 24.1207 14.0789 23.5633 14.1948C23.1089 14.2865 22.6739 14.4568 22.2781 14.6981C21.9377 14.9101 21.6567 15.2049 21.4613 15.5549C21.2645 15.9274 21.1662 16.344 21.1757 16.7652C21.1699 17.1296 21.2404 17.4913 21.3827 17.8269C21.5143 18.1309 21.7124 18.4015 21.9625 18.6187C22.2256 18.841 22.5309 19.0078 22.86 19.1092C23.2375 19.2257 23.6309 19.2826 24.026 19.2777C24.5098 19.2785 24.9875 19.1696 25.4233 18.9593C25.8099 18.7689 26.1631 18.5172 26.4693 18.2139V18.8165C26.4668 18.8576 26.4735 18.8987 26.4889 18.9369C26.5044 18.9751 26.5281 19.0093 26.5585 19.0371C26.6283 19.0891 26.7101 19.1227 26.7963 19.1349C26.923 19.1555 27.0513 19.1648 27.1797 19.1628C27.3072 19.1661 27.4346 19.1568 27.5603 19.1349C27.6417 19.12 27.7189 19.0876 27.7866 19.04C27.8206 19.0139 27.8478 18.9799 27.8657 18.941C27.8836 18.902 27.8918 18.8593 27.8894 18.8165V13.4244C27.8979 12.9758 27.8409 12.5284 27.7202 12.0963ZM26.2736 16.8287C25.9857 17.1616 25.6503 17.4503 25.2783 17.6855C24.9677 17.8714 24.6121 17.9687 24.2502 17.9668C23.7989 17.9668 23.4455 17.8504 23.1999 17.6198C22.9542 17.3892 22.83 17.0843 22.83 16.6916C22.8258 16.4818 22.87 16.2739 22.9592 16.084C23.0525 15.9016 23.1918 15.7468 23.3634 15.6349C23.5799 15.4956 23.8203 15.3974 24.0724 15.345C24.4109 15.2743 24.7562 15.241 25.102 15.2458H26.2736V16.8287Z" fill="#36AE37"/>
<path d="M35.6341 17.8826C35.3662 17.6888 35.0663 17.5438 34.748 17.4542C34.3867 17.3505 34.0135 17.2939 33.6377 17.2857L31.55 17.1972C31.248 17.1858 31.0045 17.1158 30.826 16.9901C30.7488 16.943 30.6848 16.877 30.6402 16.7983C30.5956 16.7196 30.5718 16.6308 30.5711 16.5403C30.5684 16.3901 30.6004 16.2413 30.6646 16.1055C30.7181 15.9997 30.785 15.9013 30.8639 15.8127C31.0619 15.9461 31.2807 16.0455 31.5115 16.1069C31.8204 16.1958 32.1404 16.24 32.4618 16.2383C32.8982 16.2433 33.3325 16.176 33.747 16.0391C34.1184 15.9152 34.4613 15.718 34.7552 15.4593C35.0405 15.2033 35.2641 14.886 35.4092 14.5311C35.5677 14.1317 35.6454 13.7048 35.6377 13.2752C35.6385 12.9944 35.5954 12.7151 35.5098 12.4477C35.438 12.2282 35.3253 12.0242 35.1778 11.8465H36.1453C36.2044 11.8457 36.2622 11.8289 36.3125 11.7978C36.3628 11.7668 36.4037 11.7226 36.4309 11.6701C36.4959 11.5652 36.5273 11.4045 36.5273 11.1803C36.537 11.0141 36.5081 10.848 36.443 10.6948C36.4175 10.6373 36.3757 10.5885 36.3228 10.5544C36.2699 10.5202 36.2082 10.5023 36.1453 10.5027H33.742C33.5475 10.4545 33.3503 10.418 33.1515 10.3935C32.9227 10.3649 32.6923 10.351 32.4618 10.3521C32.0287 10.3483 31.5981 10.4176 31.188 10.557C30.8156 10.6827 30.4726 10.8829 30.1798 11.1453C29.8949 11.4083 29.6704 11.7298 29.5215 12.0878C29.3582 12.4863 29.2775 12.9138 29.2845 13.3444C29.2761 13.6941 29.332 14.0424 29.4494 14.3719C29.5472 14.6269 29.683 14.8657 29.8521 15.0802C29.6482 15.2989 29.475 15.5444 29.3373 15.8099C29.1799 16.121 29.1005 16.4658 29.106 16.8145C29.1057 17.0869 29.1821 17.3539 29.3266 17.5849C29.4692 17.8056 29.6642 17.9876 29.8942 18.1147C29.7483 18.2332 29.6095 18.3603 29.4787 18.4952C29.3353 18.6433 29.2096 18.8074 29.1038 18.9843C29.0038 19.1544 28.9279 19.3375 28.8782 19.5284C28.8294 19.7207 28.8054 19.9184 28.8068 20.1167C28.8049 20.426 28.8745 20.7314 29.0103 21.0092C29.1617 21.3022 29.3894 21.5489 29.6693 21.7232C30.0205 21.9388 30.4055 22.0938 30.8082 22.1816C31.3551 22.3016 31.9141 22.3574 32.4739 22.348C33.069 22.3583 33.6625 22.2842 34.2368 22.1281C34.6846 22.0054 35.105 21.7987 35.4756 21.519C35.7854 21.2785 36.0347 20.969 36.2039 20.6151C36.3612 20.2765 36.4423 19.9075 36.4416 19.5341C36.4479 19.2031 36.3745 18.8754 36.2274 18.5788C36.0858 18.3042 35.8827 18.066 35.6341 17.8826ZM30.9367 12.6804C30.9978 12.4811 31.0981 12.2959 31.2316 12.1356C31.367 11.977 31.5363 11.8508 31.7271 11.7665C31.9509 11.6718 32.1924 11.6258 32.4354 11.6316C32.9602 11.6316 33.37 11.7779 33.6492 12.0642C33.9283 12.3506 34.0776 12.7625 34.0776 13.2823C34.0783 13.5003 34.0451 13.7171 33.979 13.9249C33.9174 14.1213 33.8172 14.3034 33.6842 14.4604C33.5476 14.6175 33.3765 14.7409 33.1844 14.821C32.9545 14.9128 32.7085 14.9573 32.4611 14.9517C31.9477 14.9517 31.5436 14.8089 31.2616 14.5233C30.9795 14.2377 30.8374 13.84 30.8374 13.338C30.8366 13.115 30.87 12.8932 30.9367 12.6804ZM32.5425 21.0699C31.8599 21.0699 31.3215 20.9728 30.9445 20.7843C30.5797 20.5994 30.4026 20.3366 30.4026 19.9811C30.4026 19.8648 30.4153 19.749 30.4405 19.6355C30.4689 19.5168 30.5153 19.4031 30.5783 19.2985C30.6585 19.1665 30.752 19.043 30.8574 18.9301C30.9905 18.787 31.1352 18.6551 31.2901 18.5359L33.33 18.6073C33.792 18.6188 34.1618 18.7144 34.4281 18.8929C34.5512 18.9691 34.6517 19.0766 34.7195 19.2045C34.7873 19.3323 34.8198 19.4759 34.8137 19.6205C34.8145 19.808 34.7761 19.9935 34.7009 20.1653C34.6183 20.3465 34.491 20.5037 34.331 20.6222C34.1208 20.7738 33.8843 20.8852 33.6335 20.9507C33.2769 21.04 32.9099 21.0801 32.5425 21.0699Z" fill="#36AE37"/>
<path d="M42.9369 16.6296C42.9435 17.0177 42.8635 17.4023 42.7027 17.7556C42.5493 18.0827 42.3211 18.3691 42.0366 18.5917C41.7321 18.8262 41.3851 18.9998 41.0148 19.1029C40.5946 19.2212 40.1597 19.2791 39.7232 19.275C39.4464 19.2758 39.1701 19.2531 38.8971 19.2071C38.6584 19.1676 38.4231 19.1101 38.1931 19.0351C38.0107 18.9762 37.8331 18.9034 37.6619 18.8173C37.5442 18.7597 37.4342 18.6877 37.3342 18.6031C37.2531 18.5255 37.1959 18.4264 37.1692 18.3175C37.1334 18.1679 37.1175 18.0143 37.1221 17.8605C37.1211 17.7617 37.1273 17.6629 37.1407 17.5649C37.1501 17.4959 37.1664 17.428 37.1892 17.3622C37.208 17.3037 37.246 17.2534 37.297 17.2194C37.4091 17.148 37.5398 17.1551 37.7818 17.3072C37.9068 17.3857 38.0632 17.4721 38.2467 17.5649C38.4554 17.6689 38.6725 17.7551 38.8957 17.8227C39.1739 17.904 39.4627 17.943 39.7525 17.9384C39.9732 17.9407 40.1932 17.9145 40.4072 17.8605C40.5858 17.8167 40.7551 17.7413 40.907 17.6378C41.0412 17.5446 41.1498 17.4191 41.2226 17.2729C41.3002 17.1065 41.3384 16.9245 41.334 16.741C41.3404 16.5549 41.2852 16.3719 41.1769 16.2205C41.0569 16.065 40.909 15.9333 40.7407 15.8321C40.5426 15.7098 40.3334 15.6065 40.1159 15.5236C39.8779 15.4313 39.6335 15.3361 39.3826 15.238C39.1286 15.1361 38.8802 15.0205 38.6386 14.8917C38.3962 14.7646 38.1733 14.6032 37.9768 14.4126C37.7767 14.2177 37.6156 13.9866 37.502 13.7315C37.3743 13.4335 37.3115 13.1117 37.3177 12.7876C37.3169 12.4669 37.381 12.1495 37.5062 11.8544C37.6343 11.555 37.8281 11.2883 38.0732 11.074C38.3482 10.8374 38.6659 10.6557 39.0092 10.5385C39.4281 10.3987 39.8678 10.3313 40.3094 10.3392C40.5281 10.3392 40.7463 10.3574 40.962 10.3935C41.1609 10.4246 41.3572 10.47 41.5496 10.5292C41.705 10.5757 41.8561 10.6352 42.0016 10.707C42.1014 10.7563 42.1969 10.8138 42.2872 10.879C42.3436 10.9189 42.3921 10.9691 42.43 11.0268C42.4562 11.0708 42.4744 11.1192 42.4835 11.1696C42.4935 11.2153 42.5021 11.2717 42.5121 11.3381C42.5217 11.4216 42.5262 11.5055 42.5257 11.5895C42.5261 11.6801 42.5215 11.7707 42.5121 11.8608C42.5054 11.931 42.4883 11.9998 42.4614 12.065C42.4403 12.119 42.4044 12.1661 42.3579 12.2006C42.2565 12.272 42.1437 12.267 41.9409 12.1357C41.8186 12.0598 41.6915 11.9921 41.5603 11.9329C41.3805 11.852 41.1954 11.7835 41.0063 11.728C40.7729 11.6618 40.5312 11.63 40.2887 11.6337C40.0746 11.6305 39.861 11.6579 39.6547 11.7151C39.495 11.7584 39.3462 11.8345 39.2177 11.9386C39.1083 12.0311 39.0213 12.1474 38.9635 12.2785C38.9055 12.4138 38.876 12.5596 38.8771 12.7069C38.8707 12.8976 38.9274 13.0851 39.0385 13.2402C39.1602 13.3971 39.3094 13.5304 39.479 13.6336C39.6804 13.7572 39.8929 13.8617 40.1138 13.9457L40.8578 14.2377C41.1112 14.3398 41.364 14.4519 41.6096 14.5783C41.8542 14.7009 42.0802 14.8576 42.2808 15.0438C42.4802 15.2327 42.6417 15.4581 42.7563 15.7078C42.8825 15.9984 42.9441 16.3129 42.9369 16.6296Z" fill="#36AE37"/>
<path d="M56.3466 13.7528V18.8044C56.3484 18.8639 56.3306 18.9223 56.2959 18.9707C56.2575 19.0202 56.2065 19.0584 56.1481 19.0814C56.0703 19.1128 55.9883 19.1327 55.9047 19.1407C55.7833 19.1541 55.6612 19.1603 55.5391 19.1592C55.4141 19.1605 55.2892 19.1543 55.165 19.1407C55.0801 19.1322 54.9968 19.1126 54.9172 19.0821C54.8568 19.0601 54.8038 19.0215 54.7644 18.9707C54.7297 18.9223 54.7116 18.8639 54.713 18.8044V13.9492C54.7154 13.645 54.6865 13.3413 54.6266 13.0431C54.5783 12.7975 54.4856 12.5629 54.3532 12.3505C54.2376 12.1679 54.0767 12.0183 53.8862 11.9164C53.6776 11.8116 53.4463 11.7598 53.2129 11.7657C52.8959 11.7657 52.5703 11.8914 52.2454 12.1399C51.8409 12.4675 51.4747 12.8397 51.1537 13.2494V18.8051C51.1551 18.8645 51.1373 18.9229 51.103 18.9714C51.063 19.0219 51.0099 19.0605 50.9495 19.0828C50.8701 19.1132 50.787 19.1329 50.7025 19.1414C50.5811 19.1548 50.459 19.161 50.3369 19.1599C50.2176 19.161 50.0984 19.1548 49.9799 19.1414C49.8939 19.1333 49.8093 19.1136 49.7286 19.0828C49.6671 19.0613 49.6139 19.0211 49.5765 18.9679C49.5464 18.919 49.5313 18.8624 49.5329 18.8051V13.9499C49.5355 13.6456 49.5031 13.3421 49.4366 13.0452C49.3822 12.7991 49.2856 12.5643 49.151 12.3512C49.0366 12.1691 48.8773 12.0196 48.6883 11.9171C48.4816 11.812 48.2518 11.7602 48.02 11.7665C47.7022 11.7665 47.3774 11.8921 47.0475 12.1406C46.7176 12.3891 46.3506 12.7653 45.9615 13.2501V18.8058C45.9626 18.8653 45.9446 18.9236 45.9101 18.9721C45.8717 19.0217 45.8206 19.0599 45.7623 19.0828C45.6842 19.1143 45.602 19.1342 45.5181 19.1421C45.3939 19.1557 45.269 19.1619 45.144 19.1606C45.0221 19.1618 44.9003 19.1556 44.7791 19.1421C44.6943 19.1337 44.611 19.114 44.5314 19.0835C44.4699 19.0621 44.4167 19.0219 44.3793 18.9686C44.3498 18.9195 44.3349 18.863 44.3364 18.8058V10.8147C44.3348 10.7599 44.3471 10.7056 44.3721 10.6569C44.4057 10.6022 44.4557 10.5594 44.5149 10.5348C44.5877 10.5006 44.6661 10.4798 44.7463 10.4734C44.9689 10.4553 45.1927 10.4553 45.4153 10.4734C45.4957 10.4783 45.5742 10.4997 45.6459 10.5362C45.6984 10.5634 45.7433 10.6031 45.7766 10.6519C45.8066 10.7008 45.8218 10.7573 45.8201 10.8147V11.6658C46.2264 11.2374 46.6262 10.9082 47.0104 10.6962C47.4128 10.4649 47.8679 10.3408 48.332 10.3356C48.6412 10.3319 48.9493 10.3718 49.2473 10.4541C49.5029 10.5262 49.7452 10.639 49.9649 10.7883C50.1701 10.9293 50.3505 11.1032 50.499 11.3031C50.6237 11.4736 50.7297 11.6569 50.8153 11.85C51.0293 11.6188 51.257 11.4006 51.4972 11.1967C51.716 11.0086 51.952 10.8412 52.2019 10.6969C52.4116 10.5769 52.6353 10.4834 52.868 10.4184C53.0818 10.3612 53.3022 10.3321 53.5235 10.332C54.0483 10.332 54.4974 10.4256 54.8565 10.6112C55.2038 10.7876 55.5041 11.0441 55.7326 11.3595C55.9631 11.6882 56.1251 12.06 56.2088 12.4526C56.3029 12.8796 56.3491 13.3156 56.3466 13.7528Z" fill="#36AE37"/>
<path d="M60.0208 8.11564C60.0208 8.48549 59.9494 8.73325 59.8002 8.87533C59.651 9.01742 59.4004 9.08382 59.0262 9.08382C58.6521 9.08382 58.4093 9.01742 58.2651 8.88033C58.1209 8.74324 58.0509 8.49763 58.0509 8.1342C58.0509 7.77077 58.1223 7.51516 58.2715 7.3745C58.4208 7.23385 58.6714 7.16602 59.0455 7.16602C59.4196 7.16602 59.6624 7.23242 59.8066 7.36951C59.9509 7.50659 60.0208 7.75292 60.0208 8.11564Z" fill="#36AE37"/>
<path d="M59.8502 10.8148V18.8045C59.8513 18.864 59.8333 18.9223 59.7988 18.9708C59.7607 19.0204 59.7098 19.0586 59.6517 19.0815C59.5733 19.1129 59.4908 19.1328 59.4068 19.1408C59.2825 19.1544 59.1576 19.1606 59.0326 19.1593C58.911 19.1605 58.7894 19.1543 58.6685 19.1408C58.5837 19.1324 58.5003 19.1127 58.4207 19.0822C58.3592 19.0609 58.3059 19.0207 58.2686 18.9673C58.2386 18.9184 58.2235 18.8618 58.2251 18.8045V10.8148C58.2246 10.7602 58.2389 10.7064 58.2665 10.6592C58.3033 10.6026 58.3574 10.5596 58.4207 10.5364C58.5003 10.5059 58.5837 10.4862 58.6685 10.4778C58.7894 10.4649 58.911 10.459 59.0326 10.46C59.1576 10.4589 59.2825 10.4648 59.4068 10.4778C59.4908 10.4858 59.5733 10.5057 59.6517 10.5371C59.7114 10.562 59.7632 10.6027 59.8016 10.6549C59.8329 10.7024 59.8498 10.7579 59.8502 10.8148Z" fill="#36AE37"/>
<path d="M63.613 6.94412V18.8044C63.6144 18.8638 63.5966 18.9222 63.5623 18.9707C63.5235 19.0202 63.4723 19.0585 63.4137 19.0814C63.3357 19.1129 63.2534 19.1329 63.1696 19.1407C63.0453 19.1543 62.9204 19.1605 62.7954 19.1592C62.6736 19.1603 62.5517 19.1541 62.4306 19.1407C62.346 19.1323 62.2629 19.1126 62.1835 19.0821C62.122 19.0604 62.0686 19.0203 62.0307 18.9672C62.0012 18.9181 61.9864 18.8616 61.9879 18.8044V6.94412C61.987 6.88637 62.0015 6.82943 62.03 6.77919C62.0669 6.72331 62.1207 6.68076 62.1835 6.65781C62.2628 6.62718 62.346 6.60748 62.4306 6.59926C62.5517 6.58542 62.6735 6.57922 62.7954 6.58069C62.9204 6.57908 63.0454 6.58528 63.1696 6.59926C63.2535 6.60676 63.3358 6.62673 63.4137 6.65852C63.4739 6.68201 63.526 6.72243 63.5637 6.7749C63.5962 6.82532 63.6133 6.88412 63.613 6.94412Z" fill="#36AE37"/>
<path d="M72.9065 12.7056C72.7793 12.2565 72.5605 11.8386 72.2639 11.4782C71.9596 11.1205 71.5787 10.836 71.1493 10.6457C70.6995 10.4415 70.1497 10.3373 69.5136 10.3373C68.9582 10.3287 68.4069 10.4337 67.8935 10.6457C67.4177 10.8489 66.9938 11.1566 66.6533 11.5461C66.2973 11.9614 66.03 12.4452 65.8679 12.9677C65.681 13.5751 65.59 14.2079 65.598 14.8433C65.5876 15.494 65.6757 16.1425 65.8593 16.7668C66.0128 17.2823 66.2797 17.7568 66.6404 18.1556C66.995 18.5313 67.4328 18.8186 67.9185 18.9945C68.4821 19.1907 69.076 19.2857 69.6728 19.2751C70.0355 19.2763 70.3978 19.2479 70.7559 19.1902C71.0565 19.1418 71.3544 19.0782 71.6484 18.9995C71.8651 18.9424 72.0769 18.8682 72.2817 18.7775C72.5052 18.6739 72.5673 18.6297 72.593 18.6018C72.6292 18.5669 72.6602 18.527 72.6851 18.4833C72.7112 18.4391 72.7296 18.3908 72.7394 18.3405C72.7487 18.2941 72.7565 18.2405 72.7623 18.1827C72.7693 18.1134 72.7726 18.0438 72.7723 17.9742C72.773 17.881 72.7682 17.7877 72.758 17.695C72.7519 17.628 72.7362 17.5621 72.7116 17.4994C72.6904 17.4463 72.6532 17.4011 72.6052 17.3702C72.5593 17.3411 72.506 17.3258 72.4517 17.3259C72.3295 17.336 72.2106 17.3703 72.1018 17.4266C71.964 17.488 71.7862 17.5572 71.5727 17.6329C71.3236 17.7183 71.0691 17.787 70.8109 17.8386C70.4817 17.9031 70.1468 17.934 69.8113 17.9307C69.405 17.9413 69.0004 17.8736 68.6196 17.7315C68.3162 17.6131 68.0477 17.4198 67.8392 17.1695C67.6336 16.91 67.4874 16.6085 67.4108 16.2863C67.3236 15.9248 67.2783 15.5544 67.2759 15.1825H72.4574C72.6217 15.1838 72.7809 15.1252 72.9051 15.0175C73.04 14.9047 73.1078 14.7177 73.1078 14.4628V14.1972C73.1114 13.693 73.0436 13.1908 72.9065 12.7056ZM68.519 11.8367C68.8063 11.7012 69.121 11.6343 69.4386 11.641C70.119 11.641 70.6374 11.8517 70.9801 12.2686C71.3136 12.6749 71.4799 13.2397 71.4799 13.9487H67.2816C67.2983 13.6658 67.3523 13.3863 67.4422 13.1176C67.5339 12.8418 67.6747 12.5849 67.8578 12.3593C68.0385 12.1401 68.2639 11.9619 68.519 11.8367Z" fill="#36AE37"/>
</svg>
