<svg width="85" height="34" viewBox="0 0 85 34" fill="none" xmlns="http://www.w3.org/2000/svg">
<g clip-path="url(#clip0_1894_10510)">
<g clip-path="url(#clip1_1894_10510)">
<path d="M24.6571 7.65002C22.8075 7.65002 21.0123 8.19205 19.4891 9.22191C17.9659 10.2518 16.7691 11.7152 16.0619 13.3955C15.3547 15.13 15.1915 16.9729 15.5179 18.8158C15.8443 20.6587 16.7147 22.2848 18.0203 23.5857C19.3259 24.8865 21.0123 25.808 22.8075 26.1332C24.6027 26.5126 26.5067 26.2958 28.1931 25.5912C29.8795 24.8865 31.3483 23.6941 32.3819 22.1222C33.4155 20.6045 33.9595 18.7616 33.9595 16.9187C33.9595 14.4254 32.9803 12.0405 31.2395 10.306C29.4987 8.62568 27.1051 7.65002 24.6571 7.65002ZM15.9531 17.3523H18.8363C18.8363 18.6532 19.0539 19.9541 19.4347 21.2008H17.0411C16.3883 20.0083 16.0075 18.6532 15.9531 17.3523ZM24.9835 12.1489V8.35466C26.6155 8.51727 28.0299 9.98075 28.9003 12.1489H24.9835ZM29.1179 12.7993C29.4987 14.046 29.7163 15.3468 29.7707 16.6477H24.9835V12.7993H29.1179ZM24.2763 8.35466V12.1489H20.3595C21.2299 9.98075 22.6987 8.51727 24.2763 8.35466ZM24.2763 12.7993V16.6477H19.4891C19.4891 15.3468 19.7067 14.046 20.1419 12.7993H24.2763ZM18.8363 16.6477H15.9531C16.0075 15.2926 16.3883 13.9918 17.0411 12.7993H19.4347C19.0539 14.046 18.8907 15.3468 18.8363 16.6477ZM19.4891 17.3523H24.2763V21.2008H20.1419C19.7611 19.9541 19.5435 18.6532 19.4891 17.3523ZM24.2763 21.8512V25.6454C22.6443 25.4828 21.2299 24.0193 20.3595 21.8512H24.2763ZM24.9835 25.6454V21.797H28.9003C28.0299 24.0193 26.6155 25.4828 24.9835 25.6454ZM24.9835 21.1465V17.2981H29.7707C29.7707 18.599 29.5531 19.8999 29.1179 21.1465H24.9835ZM30.4235 17.3523H33.3067C33.2523 18.7074 32.8715 20.0083 32.2187 21.2008H29.8251C30.2059 19.8999 30.4235 18.6532 30.4235 17.3523ZM30.4235 16.6477C30.4235 15.3468 30.2059 14.046 29.8251 12.7993H32.2187C32.8715 13.9918 33.2523 15.2926 33.3067 16.6477H30.4235ZM31.8379 12.1489H29.6075C29.3899 11.5526 29.1179 11.0106 28.7915 10.4686C28.4107 9.81814 27.9755 9.27611 27.4315 8.78829C29.2267 9.38452 30.7499 10.577 31.8379 12.1489ZM21.8283 8.78829C21.3387 9.27611 20.8491 9.81814 20.4683 10.4686C20.1419 11.0106 19.8699 11.5526 19.6523 12.1489H17.4219C18.5099 10.577 20.0331 9.38452 21.8283 8.78829ZM17.4219 21.8512H19.6523C19.8699 22.4474 20.1419 22.9894 20.4683 23.5315C20.8491 24.1277 21.2843 24.7239 21.8283 25.2118C20.0331 24.6155 18.5099 23.4231 17.4219 21.8512ZM27.4315 25.2118C27.9755 24.7239 28.4107 24.1819 28.7915 23.5315C29.1179 22.9894 29.3899 22.3932 29.6075 21.8512H31.8379C30.7499 23.4231 29.2267 24.6155 27.4315 25.2118Z" fill="#333D3E"/>
<path d="M57.7266 14.1981H59.2498V22.5453H57.7266V14.1981Z" fill="#333D3E"/>
<path d="M59.5218 12.03C59.5218 12.6262 59.0322 13.0598 58.4882 13.0598C57.9442 13.0598 57.4546 12.6262 57.4546 12.03C57.4546 11.4337 57.9442 11.0001 58.4882 11.0001C59.0866 11.0001 59.5218 11.4337 59.5218 12.03Z" fill="#333D3E"/>
<path d="M64.581 16.4204H62.3506V22.5995H60.8274V13.8729C60.8274 12.1384 62.0242 11.0543 63.9826 11.0543H64.581V12.572H63.9826C62.949 12.572 62.3506 13.0598 62.3506 13.9271V15.1195H64.581V16.4204Z" fill="#333D3E"/>
<path d="M69.3138 22.5995H68.7154C66.757 22.5453 65.5602 21.4613 65.5602 19.781V11.0543H67.0834V15.1195H69.3138V16.4204H67.0834V19.7268C67.0834 20.594 67.6818 21.0819 68.7154 21.0819H69.3138V22.5995Z" fill="#333D3E"/>
<path d="M50.981 16.3662L49.4578 22.5995H47.717L45.3778 14.2523H46.901L48.533 20.6482L50.1106 14.2523H51.797L53.3746 20.6482L55.0066 14.2523H56.5842L54.245 22.5995H52.5042L50.981 16.3662Z" fill="#333D3E"/>
<path d="M38.4146 19.5642C38.7954 20.3772 39.8834 21.1903 41.189 21.1903C42.6578 21.1903 43.637 20.4856 43.637 19.51C43.637 16.4746 37.2178 18.6427 37.2178 14.2523C37.2178 12.6262 38.741 11.1085 41.189 11.1085C42.7666 11.1085 44.2354 11.759 45.0514 12.8972L43.8546 13.9271C43.2562 13.1682 42.277 12.572 41.189 12.572C39.829 12.572 38.8498 13.114 38.8498 14.2523C38.8498 16.854 45.2146 14.9569 45.2146 19.4558C45.2146 21.4071 43.5282 22.7622 41.1346 22.7622C39.285 22.7622 37.653 21.7865 37.0002 20.323L38.4146 19.5642Z" fill="#333D3E"/>
</g>
</g>
<defs>
<clipPath id="clip0_1894_10510">
<rect width="85" height="34" fill="white"/>
</clipPath>
<clipPath id="clip1_1894_10510">
<rect width="54.4" height="18.7" fill="white" transform="translate(15.3 7.65002)"/>
</clipPath>
</defs>
</svg>
