<svg width="85" height="34" viewBox="0 0 85 34" fill="none" xmlns="http://www.w3.org/2000/svg">
<path fill-rule="evenodd" clip-rule="evenodd" d="M35.5523 16.3438C36.2558 16.6778 37.1299 16.0879 36.9452 18.2057L36.7604 21.2899C36.7675 21.9437 36.6751 22.1711 36.668 22.7822C36.6609 23.1873 36.604 23.8909 36.5472 24.3386C36.3837 25.6248 36.5188 26.0157 35.0833 26.1365V26.5132C35.4457 26.7121 37.9401 26.6055 38.537 26.6055C38.8923 26.6055 38.5725 26.634 38.8142 26.5132C38.7715 26.0015 38.5725 26.1578 38.0538 26.0583C37.5918 25.9731 37.4924 25.9233 37.4213 25.4756C37.2649 24.5447 37.6061 19.5843 37.6061 18.3052C37.8548 18.5894 37.9472 18.9376 38.1035 19.3001C38.2812 19.6909 38.3807 19.9539 38.5725 20.3234C38.7644 20.6929 38.8497 20.9772 39.0345 21.3538C39.2406 21.766 39.3472 21.9934 39.539 22.434C40.072 23.6848 41.1451 25.4685 41.4294 26.6979C42.005 26.6837 41.7989 26.705 42.1755 25.8594C42.7654 24.5233 43.1562 23.8909 43.7603 22.6899L45.7856 18.561C45.8993 18.3904 45.8212 18.497 45.9065 18.3975C45.9065 19.3498 45.9988 19.9468 45.9988 20.9132C45.9988 21.9224 46.1694 25.2056 45.8141 25.9517C45.5227 26.0157 45.0252 26.1294 44.6983 26.1365V26.6055H48.5216C48.8343 26.6055 48.7917 26.435 48.7988 26.1365C48.5359 26.1365 48.209 26.0939 47.9744 26.0299C47.2567 25.8309 47.3988 24.7365 47.3988 23.5284C47.3988 22.7609 47.2993 22.3487 47.3064 21.6665V17.2818C47.3064 16.8057 47.5694 16.5783 48.01 16.493C48.7135 16.358 48.8841 16.6493 48.7064 15.8818C48.1876 16.0026 46.4821 16.1164 45.9988 15.8818C45.942 16.5712 45.4872 17.5092 45.2242 18.092C44.8902 18.8097 44.5562 19.4351 44.2009 20.1457L41.9908 24.2817C41.7065 23.0452 38.3522 17.8574 38.3522 15.8889C37.869 16.1235 36.1634 16.0098 35.6447 15.8889C35.5949 16.0879 35.5736 16.095 35.5523 16.3438ZM55.884 20.5437V20.9203C56.3175 21.034 56.5378 21.3965 56.5378 21.9437C56.5378 22.5406 56.616 25.3974 56.4028 25.8167C56.2677 26.0797 55.8413 26.1081 55.5144 26.1365V26.6055H58.4992C58.8545 26.6055 58.5347 26.634 58.7763 26.5132C58.7337 26.0015 58.4139 26.0654 57.9378 25.9517C57.7317 25.0776 57.8454 22.9528 57.8454 21.9437C57.8454 20.8422 59.7499 20.3589 60.5245 21.4036C60.958 21.9863 60.8727 25.0634 60.7306 25.6675C60.6595 25.9802 60.5387 26.0797 59.8068 26.1365V26.5132C60.1621 26.7121 62.5001 26.6055 63.0687 26.6055V26.1365C61.7255 26.0228 62.0453 25.5111 62.0453 22.7822C62.0453 21.3965 62.1164 19.9823 60.0839 19.9823C59.4728 19.9823 58.8474 20.231 58.3641 20.5011C58.1296 20.6361 58.1154 20.6645 57.8454 20.7285V19.7975C57.2058 19.8117 56.5591 20.3874 55.884 20.5437Z" fill="#F00F0F"/>
<path fill-rule="evenodd" clip-rule="evenodd" d="M51.9683 20.5437C54.4982 20.5437 54.5622 26.236 52.2454 26.236C50.149 26.236 49.7013 22.9457 50.5115 21.5173C50.7815 21.0341 51.2719 20.5437 51.9683 20.5437ZM48.6993 23.1518V23.8056C48.6993 27.6858 55.4149 28.0411 55.4149 23.3366C55.4149 18.6747 48.6993 19.1153 48.6993 23.1518ZM69.1305 20.6361C69.9051 20.7001 70.1183 20.9133 70.3741 21.5386L71.5325 24.6726C72.2218 26.4279 72.2645 26.6624 71.1914 28.4746C70.9569 28.8654 70.9142 29.0857 70.3457 29.1213C69.6777 29.1639 69.5071 29.2279 69.5071 29.8674C69.5071 30.4928 69.9051 30.5212 70.3457 30.5212C71.2056 30.5212 71.5609 29.2563 72.0584 28.2187L74.638 22.7752C75.1639 21.7234 75.4268 20.7214 76.4999 20.629V20.16H73.6076V20.629C73.9061 20.6503 74.2685 20.7498 74.5385 20.8138C74.5314 21.2899 74.0126 22.4483 73.8208 22.8889C73.6502 23.2797 73.1172 24.6371 72.8614 24.8218L72.1721 22.896C72.0086 22.4269 71.568 21.2615 71.5538 20.8067C72.4847 20.5864 72.3 20.6503 72.3 20.1529H69.4076C69.1021 20.1671 69.1305 20.3376 69.1305 20.6361ZM65.2077 21.9437H64.6534C64.6676 21.4107 64.8737 21.2544 65.1935 20.9914C66.0036 20.3447 67.4462 20.3447 67.4462 21.5671C67.4462 22.0006 66.9133 21.8158 66.4442 21.8726C66.0747 21.9224 65.7265 21.9437 65.2077 21.9437ZM63.2534 23.4361C63.2534 24.5944 63.4879 25.4401 64.291 26.1294C65.3285 27.0177 67.0483 26.9893 68.029 26.2502C68.164 26.1507 69.3863 25.0208 68.5691 25.0208C67.9721 25.0208 68.4767 25.767 66.7072 25.767C65.3072 25.767 64.5468 24.3528 64.3905 23.031C64.2981 22.2919 64.6321 22.5051 66.3376 22.5051C67.1336 22.5051 68.1071 22.562 68.7609 22.4127C68.7681 22.0077 68.9955 21.4676 68.3203 20.7072C67.2686 19.5275 65.0869 19.8828 64.1204 21.0341C63.6656 21.5671 63.2534 22.4696 63.2534 23.4361Z" fill="#F00F0F"/>
<path fill-rule="evenodd" clip-rule="evenodd" d="M35.5594 4.46173C36.2132 4.77442 36.931 4.36935 36.9665 5.39269L37.0518 9.50024H38.3594V5.11553C38.3594 4.43331 38.7218 4.55412 39.3827 4.55412C41.9695 4.55412 42.474 8.07184 40.6192 9.2373C39.0913 10.1967 35.3817 9.58552 33.6975 9.58552L34.1097 9.73476C36.9096 10.4099 43.3055 11.0779 43.3055 6.97033C43.3055 5.31451 42.1542 4.32671 40.5482 4.03534C39.0558 3.7653 37.9543 3.99981 36.5827 3.9856C35.9787 3.99271 35.6021 3.90743 35.5594 4.46173ZM54.8678 8.19265C54.6688 8.24239 54.349 8.37742 54.2069 8.4698C53.88 8.67589 53.9439 8.66878 54.0292 9.03121C55.2871 9.03121 54.8678 8.91751 54.8678 9.59263C54.8678 10.0474 54.9957 13.757 54.7754 13.9773C54.2921 14.2119 53.8942 13.9276 53.8444 14.5387C54.2282 14.7235 55.9977 14.6311 56.7439 14.6382C57.3906 14.6453 57.2769 14.7377 57.483 14.354C57.0068 13.7073 56.1754 14.7164 56.1754 13.0464C56.1754 7.33987 55.7632 9.53577 58.3215 8.94593C58.4637 8.34899 58.4565 8.76827 58.3215 8.19975C56.3175 8.19975 56.1754 8.42716 56.1754 7.63834C56.1754 6.36628 56.3175 3.25363 58.0941 3.94296C58.5774 4.12773 58.7977 4.74599 59.2525 4.74599C59.7997 4.74599 60.0981 4.27697 59.8992 3.82926C59.4301 2.76328 55.7703 2.49323 55.0739 6.26678C54.9815 6.77845 54.8678 7.65966 54.8678 8.19265Z" fill="#F00F0F"/>
<path fill-rule="evenodd" clip-rule="evenodd" d="M60.1834 9.96926C58.5702 9.96926 60.5885 8.56928 61.2991 8.56928C62.0453 8.56928 62.4149 8.96014 62.4149 9.59262C62.4149 10.0261 61.8819 9.84134 61.4128 9.8982C61.0433 9.94794 60.6951 9.96926 60.1834 9.96926ZM58.222 11.4616C58.222 15.1854 61.5692 15.2565 62.9407 14.3184C63.3742 14.02 63.8362 13.5651 63.7225 13.0535C62.6991 13.0748 63.5732 13.7997 61.6687 13.7997C60.0839 13.7997 59.1672 11.7956 59.4301 10.5378C60.7235 10.5378 62.6281 10.7012 63.7225 10.4454C63.7225 9.49312 63.7154 9.20176 63.2392 8.69009C62.1875 7.57437 60.0342 7.9297 59.089 9.06674C58.6129 9.62815 58.222 10.4525 58.222 11.4616ZM44.2293 9.96926C44.3573 8.46268 47.1217 8.02919 47.1217 9.50023C47.1217 10.1185 44.8476 9.96926 44.2293 9.96926ZM42.9288 11.1774C42.9288 12.2291 42.8578 13.224 43.8385 14.091C45.0324 15.1499 47.2709 15.0575 48.2019 13.7357C48.5572 13.2311 48.4719 12.7266 47.9034 13.2382C46.2334 14.7377 44.0588 13.1317 44.0588 10.8007C44.0588 10.3388 45.3948 10.5236 46.2973 10.5236C48.2019 10.5236 48.4435 10.7368 48.4435 9.86977C48.4435 8.71141 47.3562 8.00787 46.0202 8.00787C44.3715 8.00787 42.9288 9.55708 42.9288 11.1774ZM64.1915 11.2697V11.9235C64.1915 14.5956 67.2828 15.4768 69.0239 14.3326C69.3295 14.1337 69.9691 13.5723 69.9691 13.1317C69.9691 12.7763 69.9975 13.0961 69.8767 12.8545C69.3721 12.8971 69.6137 13.0464 69.1874 13.3804C67.9366 14.3611 65.3996 13.686 65.3996 10.9926C65.3996 9.75606 66.2524 8.66166 67.5458 8.66166C68.6473 8.66166 68.9386 9.59262 69.3153 9.59262C69.6493 9.59262 69.9335 9.08095 69.6564 8.50532C69.3934 7.95812 68.4127 8.00787 67.8229 8.00787C66.7427 8.00787 65.8757 8.39162 65.2788 8.9175C64.7458 9.39363 64.1915 10.2962 64.1915 11.2697ZM70.3457 8.93882C70.6015 9.08095 70.7437 9.0312 71.1843 9.0312V12.8616C71.1843 15.9814 74.638 14.6524 74.638 13.9773C74.638 13.5225 74.2685 13.7783 74.0837 13.8778C73.7853 14.0413 73.6502 14.091 73.2594 13.9631C72.7122 13.7854 72.499 13.2098 72.499 12.4779V9.0241C74.7162 9.0241 74.8868 9.22308 74.6451 8.18553C72.3782 8.18553 72.5274 8.39162 72.499 7.62412C72.4848 7.30432 72.4919 6.99874 72.1792 7.11245C71.8736 7.22615 71.8949 7.98655 70.7792 8.42004C70.3031 8.61192 70.3599 8.45558 70.3457 8.93882ZM49.0831 8.75405C49.0831 9.21597 49.6445 9.03831 49.6445 9.50023C49.6445 10.5662 49.7582 13.089 49.5521 13.9773C49.2749 14.0413 49.0191 14.1408 48.7135 14.1621V14.6311H51.9754C52.2881 14.6311 52.2455 14.4606 52.2526 14.1621C52.0749 14.1621 51.4851 14.091 51.3429 14.0484C51.0942 13.9702 50.945 13.7854 50.945 13.4159V10.2464C50.945 9.77738 51.1582 9.13069 51.6912 9.13069C52.082 9.13069 52.5013 9.50023 52.6221 9.50023C54.0718 9.50023 53.6241 7.11245 51.6698 8.36319C51.3927 8.54085 51.2648 8.76826 50.945 8.85354V7.8302C50.4475 7.84442 50.0425 8.1571 49.4739 8.41294C49.2323 8.50532 49.0831 8.44847 49.0831 8.75405ZM35.6518 14.1621V14.6311H39.9441V14.1621C38.0751 14.1195 38.3594 13.4586 38.3594 10.616C37.5919 10.616 37.6914 10.6728 37.0518 10.5236C37.0518 11.4403 36.9594 12.1581 36.9594 12.954C36.9594 14.0271 36.6041 14.0839 35.6518 14.1621Z" fill="#F00F0F"/>
<path fill-rule="evenodd" clip-rule="evenodd" d="M31.9778 15.4199C31.9778 21.7389 26.8553 26.8614 20.5363 26.8614C14.2174 26.8614 9.09485 21.7389 9.09485 15.4199C9.09485 9.10097 14.2174 3.97845 20.5363 3.97845C26.8553 3.97845 31.9778 9.10097 31.9778 15.4199ZM27.7187 18.1686C27.7232 18.9103 27.7233 18.9377 28.7087 18.9377L28.6874 19.428C28.5423 19.428 28.3047 19.4293 28.0221 19.4308C27.1425 19.4354 25.8264 19.4424 25.5037 19.4209L25.5108 18.959C25.6655 18.9476 25.7972 18.9433 25.9094 18.9397C26.4986 18.9206 26.5506 18.9189 26.5626 17.9996L26.5697 12.8261C26.5231 12.861 26.0517 13.8219 25.8322 14.2693L25.8322 14.2694C25.7839 14.3678 25.7478 14.4414 25.7311 14.4748L23.4286 19.0514C23.411 19.0878 23.3935 19.1272 23.3761 19.1665L23.3761 19.1665L23.3761 19.1665C23.2883 19.3647 23.2014 19.5609 23.0946 19.3712L20.9698 15.2423C20.8205 14.9509 20.6855 14.688 20.5363 14.4037C20.4539 14.243 20.3726 14.0834 20.2917 13.9244L20.2917 13.9244L20.2917 13.9243C20.0865 13.5211 19.8834 13.1221 19.6693 12.7195C19.624 13.0109 19.6258 15.4265 19.6265 16.3156L19.6266 16.5286L19.6264 16.8806C19.6248 18.194 19.6242 18.6908 19.8635 18.8734C20.009 18.9844 20.2433 18.9792 20.6201 18.9708H20.6201C20.6994 18.969 20.785 18.9671 20.8774 18.9661L20.8845 19.4422H17.6937V18.9661C17.7623 18.967 17.8309 18.9692 17.8988 18.9714C18.3442 18.9856 18.7585 18.9987 18.9373 18.6534C19.1932 18.1417 19.2003 14.6311 19.2003 13.8565C19.2003 13.5313 19.2019 13.2503 19.2033 13.0076C19.2095 11.9556 19.2115 11.622 19.0561 11.5131C18.9839 11.4626 18.8778 11.4604 18.7225 11.4573C18.6302 11.4555 18.5205 11.4532 18.3901 11.4403V11.0281H20.181L23.386 17.7225C23.4372 17.6599 23.6251 17.2555 23.7345 17.0202L23.7345 17.0202C23.7617 16.9617 23.784 16.9136 23.7982 16.8839C23.8522 16.7702 23.9062 16.6588 23.9602 16.5473C24.0412 16.3802 24.1222 16.213 24.2032 16.0382L24.2585 15.917C24.4969 15.3933 24.7419 14.8553 24.9992 14.354C25.0738 14.2122 25.1425 14.0626 25.2115 13.9124C25.274 13.7765 25.3367 13.64 25.4042 13.5083C25.4895 13.3463 25.5671 13.1766 25.6447 13.0069C25.6964 12.8937 25.7482 12.7806 25.8022 12.6697C25.9078 12.4585 26.0056 12.2512 26.1042 12.042L26.1043 12.0418C26.1384 11.9695 26.1726 11.897 26.2073 11.8241L26.5057 11.1987C26.5154 11.1812 26.5235 11.1601 26.5318 11.1385C26.5538 11.0811 26.5768 11.021 26.6336 11.021H28.6021V11.4403C28.5284 11.4403 28.4602 11.4393 28.3972 11.4384C27.9014 11.4312 27.7272 11.4286 27.7209 11.952C27.7182 12.2125 27.7154 12.4675 27.7127 12.7186V12.7186V12.7186C27.6936 14.4534 27.6766 15.9958 27.7138 17.8148C27.7173 17.9479 27.718 18.0652 27.7187 18.1686ZM18.5536 14.1194C18.0774 15.69 16.2937 15.825 14.8084 15.825C14.1333 15.825 13.5222 15.8179 12.8542 15.7184C12.4846 15.6687 11.7171 15.5052 11.4826 15.3276C11.5776 15.3358 11.6966 15.3609 11.8159 15.386L11.8159 15.386L11.8159 15.386C11.9019 15.4041 11.988 15.4222 12.0653 15.4341C13.245 15.6189 15.3556 15.7184 16.3861 15.2494C16.9191 15.0078 17.4023 14.5032 17.4805 13.757C17.5729 12.8332 17.3312 12.2647 16.848 11.8454C16.2814 11.3587 15.796 11.3598 14.9402 11.3619L14.7658 11.3621V15.2494C14.7137 15.2494 14.6385 15.2505 14.5514 15.2518L14.5509 15.2518L14.5509 15.2518H14.5509H14.5509C14.2576 15.2562 13.8296 15.2625 13.6927 15.2352L13.6785 12.0941C13.6785 12.0597 13.6795 12.0234 13.6805 11.9861C13.6868 11.7612 13.6939 11.5033 13.4866 11.4545C13.3516 11.419 12.8257 11.419 12.6907 11.4403L12.6836 11.0565C13.0908 11.0565 13.4995 11.0542 13.9085 11.0518L13.9085 11.0518H13.9086C14.7274 11.0471 15.5473 11.0423 16.3577 11.0565C17.3312 11.0708 18.1982 11.6393 18.5322 12.5347C18.717 13.0322 18.7099 13.6078 18.5536 14.1194ZM14.7699 16.9016L14.7699 16.9016C14.7678 16.9905 14.7658 17.0727 14.7658 17.1397C14.7674 17.351 14.7668 17.5376 14.7663 17.7024V17.7025C14.7642 18.3746 14.7632 18.6839 14.9171 18.8279C15.0483 18.9507 15.292 18.9532 15.7437 18.9579L15.846 18.959L15.8389 19.428L12.6765 19.4209V18.959C12.8088 18.9468 12.9242 18.9409 13.0247 18.9357C13.5718 18.9074 13.6774 18.9019 13.6714 18.0493L13.6856 16.1732H14.7516C14.7831 16.3463 14.7758 16.6509 14.7699 16.9015V16.9016Z" fill="#F00F0F"/>
</svg>
