<svg width="85" height="34" viewBox="0 0 85 34" fill="none" xmlns="http://www.w3.org/2000/svg">
<g clip-path="url(#clip0_1894_10559)">
<path d="M25.641 13.5305H21.5423C21.5423 12.8665 21.4632 12.4211 21.3057 12.1941C21.0618 11.8587 20.3887 11.6906 19.287 11.6906C18.2168 11.6906 17.5075 11.7871 17.1615 11.9806C16.8154 12.1749 16.642 12.5969 16.642 13.2466C16.642 13.8348 16.7955 14.2225 17.103 14.4079C17.3232 14.5399 17.6143 14.6172 17.9767 14.6403L18.8033 14.698C20.575 14.8138 21.6814 14.8957 22.1226 14.9423C23.5236 15.0815 24.5393 15.4493 25.1694 16.0451C25.6652 16.5102 25.961 17.118 26.0553 17.8681C26.1106 18.3171 26.1379 18.8252 26.1379 19.3896C26.1379 20.6905 26.012 21.643 25.7606 22.2466C25.3043 23.3545 24.2789 24.0542 22.6838 24.3481C22.0154 24.4723 20.9932 24.5343 19.6179 24.5343C17.3224 24.5343 15.723 24.3996 14.8196 24.1284C13.7113 23.7965 12.9801 23.1237 12.6267 22.1108C12.4295 21.5468 12.332 20.6075 12.332 19.2926H16.4307C16.4307 19.4392 16.4311 19.5515 16.4311 19.6288C16.4311 20.3305 16.6353 20.7813 17.0434 20.9825C17.3259 21.121 17.6669 21.1937 18.0679 21.2026H19.575C20.3439 21.2026 20.8346 21.1637 21.0462 21.0856C21.423 20.9394 21.6705 20.704 21.7886 20.3782C21.8514 20.1774 21.8825 19.9181 21.8825 19.6004C21.8825 18.8891 21.6195 18.4563 21.0941 18.3009C20.8973 18.2397 19.9838 18.154 18.3524 18.0459C17.0422 17.9535 16.1322 17.8647 15.6228 17.7785C14.281 17.5308 13.3866 17.0211 12.9404 16.2475C12.5479 15.5904 12.3519 14.5961 12.3519 13.2654C12.3519 12.2526 12.4579 11.4401 12.6699 10.8293C12.8819 10.218 13.2237 9.75407 13.6953 9.43671C14.3862 8.94932 15.2705 8.66351 16.3465 8.57811C17.2421 8.50079 18.2355 8.46155 19.3283 8.46155C21.0485 8.46155 22.2746 8.55926 23.0053 8.75275C24.7891 9.22591 25.6807 10.5507 25.6807 12.728C25.6807 12.9065 25.6675 13.1735 25.641 13.5305Z" fill="#10298E"/>
<path d="M43.5234 24.5342V8.46143H49.9185H50.9222H51.698C52.8193 8.46143 53.6747 8.55135 54.2628 8.73196C55.6072 9.14713 56.5092 9.99776 56.9714 11.2827C57.2098 11.9573 57.3293 12.9728 57.3293 14.3289C57.3293 15.9594 57.1969 17.1307 56.935 17.8443C56.4106 19.2548 55.3316 20.0675 53.7019 20.278C53.5102 20.3097 52.6947 20.3377 51.2552 20.3606L50.5271 20.3843H47.9111V24.5342H43.5234ZM47.9111 16.6558H50.6462C51.5137 16.6252 52.0411 16.5594 52.2309 16.4565C52.4902 16.316 52.6645 16.0344 52.751 15.6123C52.8065 15.3315 52.8341 14.9136 52.8341 14.3588C52.8341 13.6788 52.779 13.1749 52.6683 12.8458C52.5108 12.3847 52.1327 12.1042 51.5343 12.0021C51.4155 11.9868 51.1322 11.9783 50.6831 11.9783H47.9111V16.6558Z" fill="#10298E"/>
<path d="M66.4007 21.7565H60.5744L59.7916 24.5342H55.2832L60.1481 8.46143H66.7214L71.6457 24.5342H67.2322L66.4007 21.7565ZM65.5354 18.6253L63.4936 11.6581L61.5123 18.6253H65.5354Z" fill="#10298E"/>
<path d="M37.5502 10.6112C39.3694 10.6112 40.9935 11.4453 42.0607 12.7515L43.0117 10.7226C41.5246 9.32397 39.5005 8.46155 37.2681 8.46155C33.7921 8.46155 30.8186 10.5506 29.5984 13.508H27.7441L26.6492 15.8436H29.0346C29.0166 16.0603 29.0049 16.277 29.0049 16.4983C29.0049 16.7658 29.0189 17.0307 29.0455 17.292H27.8467L26.7522 19.6284H29.6554C30.9103 22.5108 33.8467 24.5343 37.2681 24.5343C38.9925 24.5343 40.5923 24.0202 41.9171 23.1418V20.2785C40.8503 21.4872 39.2898 22.251 37.5502 22.251C35.5168 22.251 33.7281 21.2077 32.6866 19.6284H38.7653L39.8603 17.292H31.7922C31.7505 17.0109 31.7282 16.7235 31.7282 16.4307C31.7282 16.2327 31.7384 16.037 31.7579 15.8436H40.5389L41.6334 13.508H32.5168C33.5251 11.7765 35.4013 10.6112 37.5502 10.6112Z" fill="#FFBE00"/>
<path d="M37.5306 10.7313C39.2439 10.7313 40.8488 11.4958 41.9339 12.8277L42.0041 12.914L42.0515 12.8135L42.9908 10.8021L43.0117 10.7563L42.9758 10.7216C41.4311 9.26418 39.3981 8.46155 37.2518 8.46155C35.5756 8.46155 33.963 8.95044 32.5875 9.8755C31.2445 10.7786 30.2141 12.0347 29.6087 13.5072L29.6727 13.4641H27.8403H27.7956L27.7771 13.5041L26.6954 15.82L26.6492 15.9189H26.7583H29.1155L29.0461 15.8435C29.0264 16.0841 29.0168 16.2977 29.0168 16.4983C29.0168 16.7581 29.0303 17.0257 29.0569 17.2921L29.1263 17.2159H27.9417H27.8978L27.8793 17.2559L26.7969 19.5718L26.751 19.6707H26.8601H29.729L29.665 19.6288C30.9583 22.6087 33.9364 24.5343 37.2518 24.5343C38.9138 24.5343 40.5152 24.0535 41.8845 23.1427L41.915 23.1223V23.0845V20.2459V20.0615L41.7935 20.2C40.7134 21.4277 39.1598 22.1314 37.5306 22.1314C35.6142 22.1314 33.8392 21.1709 32.7823 19.5629L32.7244 19.6707H38.7314H38.7762L38.7947 19.6311L39.8767 17.3144L39.923 17.2159H39.8134H31.8406L31.9096 17.2751C31.8684 16.9945 31.8472 16.7112 31.8472 16.4313C31.8472 16.2408 31.8568 16.0475 31.8761 15.8562L31.8067 15.9189H40.484H40.5287L40.5472 15.8789L41.6289 13.563L41.6755 13.4641H41.5656H32.5567L32.6168 13.5684C33.6325 11.8184 35.5158 10.7313 37.5306 10.7313ZM32.5567 13.603H41.5656L41.5024 13.5041L40.4212 15.82L40.484 15.78H31.8067H31.7438L31.7369 15.8427C31.7176 16.0383 31.708 16.2365 31.708 16.4313C31.708 16.7177 31.7296 17.0087 31.7716 17.2955L31.7808 17.3548H31.8406H39.8134L39.7506 17.2559L38.669 19.5718L38.7314 19.5318H32.7244H32.5952L32.6662 19.6388C33.7486 21.2872 35.5675 22.27 37.5306 22.27C39.1995 22.27 40.7917 21.5493 41.8984 20.2917L41.7762 20.2459V23.0845L41.807 23.0272C40.4609 23.9222 38.8861 24.3953 37.2518 24.3953C33.9915 24.3953 31.064 22.5025 29.793 19.5733L29.7745 19.5318H29.729H26.8601L26.9237 19.6311L28.005 17.3144L27.9417 17.3548H29.1263H29.2031L29.1957 17.2782C29.1695 17.0164 29.1556 16.7535 29.1556 16.4983C29.1556 16.302 29.1653 16.0914 29.1849 15.855L29.1911 15.78H29.1155H26.7583L26.8212 15.8789L27.9032 13.563L27.8403 13.603H29.6727H29.7194L29.7367 13.5599C30.3325 12.1129 31.3451 10.8787 32.6654 9.9906C34.0174 9.08171 35.6038 8.6009 37.2518 8.6009C39.3627 8.6009 41.3609 9.38968 42.8798 10.8229L42.8644 10.7428L41.9254 12.7546L42.0423 12.74C40.9298 11.3753 39.2859 10.5923 37.5306 10.5923C35.4657 10.5923 33.5373 11.706 32.4961 13.4987L32.4356 13.603H32.5567Z" fill="#10298E"/>
</g>
<defs>
<clipPath id="clip0_1894_10559">
<rect width="85" height="34" fill="white"/>
</clipPath>
</defs>
</svg>
