<svg width="80" height="80" viewBox="0 0 80 80" fill="none" xmlns="http://www.w3.org/2000/svg">
<g id="icon-choice">
<rect width="80" height="80" rx="21" fill="#474D65" fill-opacity="0.5"/>
<g id="Vector" filter="url(#filter0_d_6610_126)">
<path d="M50.2506 53.9933H29.6802C29.1674 53.9933 28.6756 54.195 28.313 54.554C27.9504 54.913 27.7466 55.4 27.7466 55.9077V57.8235C27.7466 57.8992 27.7616 57.9742 27.7909 58.0441C27.8201 58.1141 27.863 58.1776 27.9171 58.2312C27.9711 58.2847 28.0353 58.3272 28.1059 58.3561C28.1765 58.3851 28.2522 58.4 28.3287 58.4H51.602C51.7564 58.4 51.9045 58.3393 52.0137 58.2312C52.1229 58.1231 52.1842 57.9764 52.1842 57.8235V55.9079C52.1843 55.6565 52.1343 55.4075 52.0371 55.1752C51.94 54.9429 51.7975 54.7319 51.618 54.5541C51.4384 54.3763 51.2252 54.2352 50.9906 54.139C50.756 54.0428 50.5045 53.9933 50.2506 53.9933Z" fill="url(#paint0_linear_6610_126)"/>
<path d="M55.1202 22.8723H51.895V21.8324C51.895 21.5056 51.7639 21.1922 51.5305 20.9611C51.2972 20.73 50.9806 20.6001 50.6506 20.6H29.498C29.3345 20.6 29.1726 20.6318 29.0216 20.6938C28.8706 20.7557 28.7333 20.8465 28.6177 20.9609C28.5022 21.0754 28.4105 21.2112 28.3479 21.3608C28.2853 21.5103 28.2531 21.6706 28.2531 21.8324V22.8723H24.8798C24.1165 22.8732 23.3847 23.1738 22.845 23.7082C22.3052 24.2426 22.0016 24.9671 22.0007 25.7229V27.5696C21.9818 29.0493 22.3549 30.5081 23.0828 31.8005C23.8107 33.093 24.8679 34.1741 26.1492 34.9361C27.263 35.5722 28.5089 35.9476 29.7918 36.0337C29.8192 36.0356 29.8467 36.0365 29.8741 36.0365C29.9194 36.0351 29.9646 36.0309 30.0095 36.0239C31.244 38.0103 33.0479 39.5879 35.1912 40.5556C35.9752 40.9237 36.6361 41.5066 37.0955 42.2353C37.5549 42.9641 37.7936 43.808 37.7832 44.6669V46.7831C37.7832 47.1623 37.6311 47.5259 37.3604 47.7941C37.0896 48.0622 36.7223 48.2129 36.3394 48.2129H33.3543C32.8897 48.213 32.4441 48.3957 32.1156 48.721C31.7871 49.0463 31.6025 49.4874 31.6025 49.9474V52.3185H48.5458V49.9471C48.5457 49.4871 48.3611 49.046 48.0326 48.7208C47.7041 48.3956 47.2585 48.2129 46.7939 48.2129H43.8088C43.4258 48.2129 43.0585 48.0623 42.7877 47.7942C42.5169 47.526 42.3647 47.1624 42.3647 46.7832V44.6667C42.3543 43.8077 42.593 42.9638 43.0525 42.235C43.5119 41.5063 44.1729 40.9234 44.9569 40.5554C47.0957 39.5898 48.8966 38.0169 50.1311 36.0364C50.1566 36.0364 50.1825 36.0354 50.2082 36.0337C51.4909 35.9477 52.7366 35.5723 53.8501 34.9361C55.1315 34.1742 56.1889 33.0931 56.9169 31.8006C57.6449 30.5081 58.0181 29.0493 57.9994 27.5696V25.7229C57.9985 24.9671 57.6948 24.2426 57.1551 23.7082C56.6153 23.1738 55.8835 22.8732 55.1202 22.8723ZM27.2679 33.0218C26.3253 32.4545 25.5493 31.6526 25.017 30.696C24.4848 29.7395 24.2149 28.6615 24.2342 27.5696V25.7229C24.2344 25.5534 24.3025 25.3909 24.4235 25.2711C24.5445 25.1513 24.7086 25.0839 24.8798 25.0837H28.2531V29.8981C28.2541 31.1754 28.4669 32.4439 28.8831 33.6529C28.3169 33.5201 27.773 33.3076 27.2679 33.0218ZM44.5442 30.4525L43.1849 31.4302C43.0291 31.5423 42.9131 31.7003 42.8536 31.8817C42.7942 32.0631 42.7942 32.2584 42.8537 32.4398L43.3727 34.0215C43.4322 34.2028 43.4322 34.3982 43.3727 34.5796C43.3132 34.761 43.1972 34.919 43.0414 35.0311C42.8855 35.1432 42.6979 35.2036 42.5053 35.2036C42.3126 35.2036 42.125 35.1433 41.9691 35.0312L40.6099 34.0536C40.4541 33.9416 40.2664 33.8812 40.0738 33.8812C39.8812 33.8812 39.6936 33.9416 39.5378 34.0536L38.1785 35.0312C38.0227 35.1433 37.835 35.2036 37.6424 35.2036C37.4498 35.2036 37.2621 35.1432 37.1063 35.0311C36.9505 34.919 36.8345 34.761 36.775 34.5796C36.7154 34.3982 36.7155 34.2028 36.775 34.0215L37.294 32.4398C37.3536 32.2584 37.3535 32.063 37.294 31.8817C37.2345 31.7003 37.1185 31.5423 36.9627 31.4302L35.6043 30.4525C35.4485 30.3404 35.3324 30.1824 35.2729 30.001C35.2134 29.8196 35.2134 29.6242 35.2729 29.4429C35.3324 29.2615 35.4484 29.1034 35.6042 28.9913C35.76 28.8792 35.9477 28.8188 36.1403 28.8188H37.82C38.0126 28.8188 38.2003 28.7585 38.3561 28.6464C38.512 28.5343 38.628 28.3763 38.6875 28.1949L39.2066 26.6132C39.2662 26.4318 39.3822 26.2738 39.538 26.1617C39.6938 26.0496 39.8815 25.9892 40.0741 25.9892C40.2667 25.9892 40.4544 26.0496 40.6102 26.1617C40.7661 26.2738 40.8821 26.4318 40.9416 26.6132L41.4607 28.1949C41.5203 28.3762 41.6363 28.5342 41.7922 28.6463C41.948 28.7584 42.1356 28.8188 42.3282 28.8188H44.0081C44.2007 28.8188 44.3883 28.8792 44.5442 28.9913C44.7 29.1034 44.8159 29.2615 44.8755 29.4429C44.935 29.6242 44.935 29.8196 44.8755 30.001C44.816 30.1823 44.7 30.3404 44.5442 30.4525ZM55.7658 27.5695C55.7851 28.6616 55.5151 29.7396 54.9827 30.6962C54.4504 31.6529 53.6742 32.4548 52.7315 33.0221C52.2752 33.2809 51.7869 33.4799 51.2788 33.614C51.6862 32.4165 51.8944 31.1615 51.8952 29.898V25.0835H55.1202C55.2914 25.0837 55.4555 25.1511 55.5765 25.2709C55.6976 25.3908 55.7657 25.5532 55.7658 25.7227V27.5695Z" fill="url(#paint1_linear_6610_126)"/>
</g>
</g>
<defs>
<filter id="filter0_d_6610_126" x="14" y="16.6" width="52" height="53.8" filterUnits="userSpaceOnUse" color-interpolation-filters="sRGB">
<feFlood flood-opacity="0" result="BackgroundImageFix"/>
<feColorMatrix in="SourceAlpha" type="matrix" values="0 0 0 0 0 0 0 0 0 0 0 0 0 0 0 0 0 0 127 0" result="hardAlpha"/>
<feOffset dy="4"/>
<feGaussianBlur stdDeviation="4"/>
<feComposite in2="hardAlpha" operator="out"/>
<feColorMatrix type="matrix" values="0 0 0 0 0.027451 0 0 0 0 0.572549 0 0 0 0 1 0 0 0 0.25 0"/>
<feBlend mode="normal" in2="BackgroundImageFix" result="effect1_dropShadow_6610_126"/>
<feBlend mode="normal" in="SourceGraphic" in2="effect1_dropShadow_6610_126" result="shape"/>
</filter>
<linearGradient id="paint0_linear_6610_126" x1="22" y1="65" x2="58" y2="21" gradientUnits="userSpaceOnUse">
<stop stop-color="#FFEDBD"/>
<stop offset="1" stop-color="#FFE193"/>
</linearGradient>
<linearGradient id="paint1_linear_6610_126" x1="22" y1="65" x2="58" y2="21" gradientUnits="userSpaceOnUse">
<stop stop-color="#FFEDBD"/>
<stop offset="1" stop-color="#FFE193"/>
</linearGradient>
</defs>
</svg>
