<svg width="30" height="31" viewBox="0 0 30 31" fill="none" xmlns="http://www.w3.org/2000/svg">
<path d="M28 10.2356C28 15.3233 23.9705 19.4477 19 19.4477C14.0295 19.4477 10 15.3233 10 10.2356C10 10.2378 19 1.02457 19 1.02356C23.9705 1.02356 28 5.14797 28 10.2356Z" fill="#0052B4"/>
<path d="M18.976 10.235H19C19 10.2269 19 10.2191 19 10.2109C18.992 10.219 18.984 10.227 18.976 10.235Z" fill="#F0F0F0"/>
<path d="M19 5.82984C19 4.20891 19 3.14683 19 1.02356H18.9985C14.0286 1.02442 10 5.14844 10 10.2356H14.6956V7.52918L17.3398 10.2356H18.976C18.984 10.2274 18.992 10.2192 19 10.211C19 9.59034 19 9.03657 19 8.53635L16.3558 5.82984H19Z" fill="#F0F0F0"/>
<path d="M14.5532 2.2251C13.1456 3.04551 11.9754 4.24329 11.1738 5.68408V10.2356H13.5217V4.62833V4.62826H18.9999C18.9999 3.87031 18.9999 3.14825 18.9999 2.2251H14.5532Z" fill="#D80027"/>
<path d="M19 9.10274L15.8024 5.82983C15.8024 5.82983 14.6957 5.82991 14.6957 5.82983V5.82991L19 10.2356H19C19 10.2356 19 9.45445 19 9.10274Z" fill="#D80027"/>
<path d="M25.5859 7.85913L25.7801 8.47108H26.4087L25.9002 8.84928L26.0944 9.4612L25.5859 9.08304L25.0773 9.4612L25.2715 8.84928L24.7629 8.47108H25.3916L25.5859 7.85913Z" fill="#D80027"/>
<path d="M23.3387 12.2649L23.6301 13.1829H24.573L23.8102 13.7501L24.1016 14.668L23.3387 14.1008L22.5758 14.668L22.8673 13.7501L22.1044 13.1829H23.0473L23.3387 12.2649Z" fill="#D80027"/>
<path d="M23.4235 5.05542L23.6663 5.82042H24.4521L23.8163 6.29307L24.0592 7.05803L23.4235 6.58523L22.7878 7.05803L23.0306 6.29307L22.3949 5.82042H23.1806L23.4235 5.05542Z" fill="#D80027"/>
<path d="M21.2613 7.8324L21.5527 8.75036H22.4956L21.7328 9.31762L22.0242 10.2356L21.2613 9.66826L20.4984 10.2356L20.7899 9.31762L20.027 8.75036H20.9699L21.2613 7.8324Z" fill="#D80027"/>
<path d="M11 28.1361C16.2576 28.1361 20.5 23.7769 20.5 18.4241C20.5 13.0713 16.2576 8.71204 11 8.71204C5.74238 8.71204 1.5 13.0713 1.5 18.4241C1.5 23.7769 5.74238 28.1361 11 28.1361Z" fill="#D9D9D9" stroke="white"/>
<path d="M20 18.4241C20 23.5117 15.9705 27.6361 11 27.6361C6.02947 27.6361 2 23.5117 2 18.4241C2 18.4262 11 9.21308 11 9.21204C15.9705 9.21204 20 13.3364 20 18.4241Z" fill="#0052B4"/>
<path d="M10.976 18.4235H11C11 18.4153 11 18.4075 11 18.3994C10.992 18.4075 10.984 18.4155 10.976 18.4235Z" fill="#F0F0F0"/>
<path d="M11 14.0183C11 12.3974 11 11.3352 11 9.21204H10.9985C6.02863 9.21286 2 13.3369 2 18.4241H6.69564V15.7176L9.33982 18.4241H10.976C10.984 18.4158 10.992 18.4076 11 18.3994C11 17.7788 11 17.225 11 16.7248L8.35583 14.0183H11Z" fill="#F0F0F0"/>
<path d="M6.55319 10.4136C5.14557 11.234 3.97536 12.4318 3.17383 13.8726V18.4241H5.52167V12.8168L10.9999 12.8167C10.9999 12.0588 10.9999 11.3367 10.9999 10.4136H6.55319Z" fill="#D80027"/>
<path d="M11 17.2912L7.80243 14.0183H6.69568L11 18.424H11C11 18.424 11 17.643 11 17.2912Z" fill="#D80027"/>
<path d="M7.42821 20.0262L7.92216 21.0834L9.03756 20.8195L8.53806 21.8739L9.43504 22.602L8.31823 22.8597L8.32136 24.0315L7.42821 23.2984L6.5351 24.0315L6.53823 22.8597L5.42139 22.602L6.3184 21.8739L5.81883 20.8195L6.9343 21.0834L7.42821 20.0262Z" fill="#F0F0F0"/>
<path d="M15.4751 22.0288L15.722 22.5574L16.2798 22.4254L16.03 22.9526L16.4785 23.3167L15.9201 23.4455L15.9216 24.0314L15.4751 23.6648L15.0285 24.0314L15.0301 23.4455L14.4717 23.3167L14.9202 22.9526L14.6704 22.4254L15.2281 22.5574L15.4751 22.0288Z" fill="#F0F0F0"/>
<path d="M13.1775 16.4215L13.4244 16.9501L13.9822 16.8181L13.7324 17.3453L14.1809 17.7094L13.6225 17.8382L13.624 18.4241L13.1775 18.0575L12.7309 18.4241L12.7325 17.8382L12.1741 17.7094L12.6226 17.3453L12.3728 16.8181L12.9305 16.9501L13.1775 16.4215Z" fill="#F0F0F0"/>
<path d="M15.4751 13.2173L15.722 13.7459L16.2798 13.6139L16.03 14.1412L16.4785 14.5052L15.9201 14.634L15.9216 15.2199L15.4751 14.8534L15.0285 15.2199L15.0301 14.634L14.4717 14.5052L14.9201 14.1412L14.6704 13.6139L15.2281 13.7459L15.4751 13.2173Z" fill="#F0F0F0"/>
<path d="M17.4819 15.6205L17.7289 16.1491L18.2866 16.0171L18.0369 16.5443L18.4853 16.9084L17.9269 17.0372L17.9285 17.6231L17.4819 17.2566L17.0354 17.6231L17.0369 17.0372L16.4785 16.9084L16.927 16.5443L16.6773 16.0171L17.2349 16.1491L17.4819 15.6205Z" fill="#F0F0F0"/>
<path d="M16.0469 18.4241L16.2411 19.036H16.8698L16.3612 19.4143L16.5555 20.0262L16.0469 19.648L15.5383 20.0262L15.7326 19.4143L15.224 19.036H15.8526L16.0469 18.4241Z" fill="#F0F0F0"/>
</svg>
