<svg width="30" height="31" viewBox="0 0 30 31" fill="none" xmlns="http://www.w3.org/2000/svg">
<path d="M19 19.4241C23.9706 19.4241 28 15.2997 28 10.2121C28 5.12438 23.9706 1 19 1C14.0294 1 10 5.12438 10 10.2121C10 15.2997 14.0294 19.4241 19 19.4241Z" fill="#F0F0F0"/>
<path d="M18.6088 10.2121H28.0001C28.0001 9.3806 27.8918 8.57512 27.69 7.8089H18.6088V10.2121Z" fill="#D80027"/>
<path d="M18.6088 5.40578H26.6791C26.1282 4.48558 25.4237 3.67223 24.6024 3.00262H18.6088V5.40578Z" fill="#D80027"/>
<path d="M18.9992 19.4241C21.1173 19.4241 23.0642 18.6748 24.6016 17.4215H13.3969C14.9342 18.6748 16.8811 19.4241 18.9992 19.4241Z" fill="#D80027"/>
<path d="M11.3211 15.0183H26.6792C27.1215 14.2796 27.4645 13.4721 27.6901 12.6152H10.3102C10.5358 13.4721 10.8788 14.2796 11.3211 15.0183Z" fill="#D80027"/>
<path d="M14.169 2.43859H14.9891L14.2262 3.00589L14.5176 3.92382L13.7548 3.35652L12.9919 3.92382L13.2437 3.13083C12.572 3.70352 11.9832 4.37449 11.4981 5.12211H11.7609L11.2753 5.48321C11.1996 5.61239 11.127 5.74363 11.0575 5.87681L11.2894 6.60733L10.8568 6.28559C10.7492 6.51881 10.6508 6.75728 10.5624 7.00072L10.8179 7.80562H11.7609L10.998 8.37292L11.2894 9.29085L10.5265 8.72355L10.0696 9.06339C10.0238 9.43971 10 9.82302 10 10.2121H19C19 5.12441 19 4.52462 19 1C17.2221 1 15.5647 1.52789 14.169 2.43859ZM14.5176 9.29085L13.7548 8.72355L12.9919 9.29085L13.2833 8.37292L12.5205 7.80562H13.4634L13.7548 6.88769L14.0462 7.80562H14.9891L14.2262 8.37292L14.5176 9.29085ZM14.2262 5.6894L14.5176 6.60733L13.7548 6.04004L12.9919 6.60733L13.2833 5.6894L12.5205 5.12211H13.4634L13.7548 4.20417L14.0462 5.12211H14.9891L14.2262 5.6894ZM17.7459 9.29085L16.9831 8.72355L16.2202 9.29085L16.5116 8.37292L15.7487 7.80562H16.6917L16.9831 6.88769L17.2744 7.80562H18.2174L17.4545 8.37292L17.7459 9.29085ZM17.4545 5.6894L17.7459 6.60733L16.9831 6.04004L16.2202 6.60733L16.5116 5.6894L15.7487 5.12211H16.6917L16.9831 4.20417L17.2744 5.12211H18.2174L17.4545 5.6894ZM17.4545 3.00589L17.7459 3.92382L16.9831 3.35652L16.2202 3.92382L16.5116 3.00589L15.7487 2.43859H16.6917L16.9831 1.52066L17.2744 2.43859H18.2174L17.4545 3.00589Z" fill="#0052B4"/>
<path d="M11 28.1361C16.2576 28.1361 20.5 23.7769 20.5 18.4241C20.5 13.0713 16.2576 8.71204 11 8.71204C5.74238 8.71204 1.5 13.0713 1.5 18.4241C1.5 23.7769 5.74238 28.1361 11 28.1361Z" fill="#D9D9D9" stroke="white"/>
<path d="M20 18.4241C20 23.5117 15.9705 27.6361 11 27.6361C6.02947 27.6361 2 23.5117 2 18.4241C2 18.4262 11 9.21308 11 9.21204C15.9705 9.21204 20 13.3364 20 18.4241Z" fill="#0052B4"/>
<path d="M11 9.21204C10.9996 9.21204 10.999 9.21207 10.9985 9.21207L11 9.21204Z" fill="#F0F0F0"/>
<path d="M10.976 18.4235H11C11 18.4153 11 18.4075 11 18.3994C10.992 18.4075 10.984 18.4155 10.976 18.4235Z" fill="#F0F0F0"/>
<path d="M11 14.0184C11 12.3975 11 11.3353 11 9.2121H10.9985C6.02863 9.21292 2 13.3369 2 18.4241H6.69564V15.7176L9.33982 18.4241H10.976C10.984 18.4159 10.992 18.4077 11 18.3995C11 17.7788 11 17.2251 11 16.7249L8.35583 14.0184H11Z" fill="#F0F0F0"/>
<path d="M6.55319 10.4136C5.14557 11.234 3.97536 12.4318 3.17383 13.8726V18.4241H5.52167V12.8168L10.9999 12.8167C10.9999 12.0588 10.9999 11.3367 10.9999 10.4136H6.55319Z" fill="#D80027"/>
<path d="M11 17.2913L7.80243 14.0184H6.69568L11 18.4241H11C11 18.4241 11 17.643 11 17.2913Z" fill="#D80027"/>
<path d="M7.42821 20.0262L7.92216 21.0834L9.03756 20.8195L8.53806 21.8739L9.43504 22.602L8.31823 22.8597L8.32136 24.0315L7.42821 23.2984L6.5351 24.0315L6.53823 22.8597L5.42139 22.602L6.3184 21.8739L5.81883 20.8195L6.9343 21.0834L7.42821 20.0262Z" fill="#F0F0F0"/>
<path d="M15.4751 22.0288L15.722 22.5574L16.2798 22.4254L16.03 22.9526L16.4785 23.3167L15.9201 23.4455L15.9216 24.0314L15.4751 23.6648L15.0285 24.0314L15.0301 23.4455L14.4717 23.3167L14.9202 22.9526L14.6704 22.4254L15.2281 22.5574L15.4751 22.0288Z" fill="#F0F0F0"/>
<path d="M13.1775 16.4215L13.4244 16.9501L13.9822 16.8181L13.7324 17.3453L14.1809 17.7094L13.6225 17.8382L13.624 18.4241L13.1775 18.0575L12.7309 18.4241L12.7325 17.8382L12.1741 17.7094L12.6226 17.3453L12.3728 16.8181L12.9305 16.9501L13.1775 16.4215Z" fill="#F0F0F0"/>
<path d="M15.4751 13.2173L15.722 13.7459L16.2798 13.6139L16.03 14.1412L16.4785 14.5052L15.9201 14.634L15.9216 15.2199L15.4751 14.8534L15.0285 15.2199L15.0301 14.634L14.4717 14.5052L14.9201 14.1412L14.6704 13.6139L15.2281 13.7459L15.4751 13.2173Z" fill="#F0F0F0"/>
<path d="M17.4819 15.6204L17.7289 16.149L18.2866 16.017L18.0369 16.5443L18.4853 16.9083L17.9269 17.0372L17.9285 17.623L17.4819 17.2565L17.0354 17.623L17.0369 17.0372L16.4785 16.9083L16.927 16.5443L16.6773 16.017L17.2349 16.149L17.4819 15.6204Z" fill="#F0F0F0"/>
<path d="M16.0469 18.4241L16.2411 19.0361H16.8698L16.3612 19.4143L16.5555 20.0262L16.0469 19.648L15.5383 20.0262L15.7326 19.4143L15.224 19.0361H15.8526L16.0469 18.4241Z" fill="#F0F0F0"/>
</svg>
