<svg width="30" height="31" viewBox="0 0 30 31" fill="none" xmlns="http://www.w3.org/2000/svg">
<path d="M19 20.4241C23.9706 20.4241 28 16.2997 28 11.2121C28 6.12438 23.9706 2 19 2C14.0294 2 10 6.12438 10 11.2121C10 16.2997 14.0294 20.4241 19 20.4241Z" fill="#F0F0F0"/>
<path d="M11.8606 5.60358C11.1536 6.54504 10.6206 7.63016 10.3102 8.80897H14.9922L11.8606 5.60358Z" fill="#0052B4"/>
<path d="M27.6906 8.80894C27.3802 7.63016 26.8471 6.54504 26.1402 5.60358L23.0087 8.80894H27.6906Z" fill="#0052B4"/>
<path d="M10.3102 13.6152C10.6206 14.794 11.1537 15.8791 11.8606 16.8206L14.9921 13.6152H10.3102Z" fill="#0052B4"/>
<path d="M24.4791 3.90431C23.5593 3.1807 22.4992 2.63507 21.3475 2.31732V7.10964L24.4791 3.90431Z" fill="#0052B4"/>
<path d="M13.5199 18.5197C14.4397 19.2434 15.4998 19.789 16.6515 20.1067V15.3145L13.5199 18.5197Z" fill="#0052B4"/>
<path d="M16.6514 2.31732C15.4998 2.63507 14.4397 3.1807 13.5199 3.90428L16.6514 7.1096V2.31732Z" fill="#0052B4"/>
<path d="M21.3475 20.1067C22.4992 19.789 23.5593 19.2434 24.4791 18.5198L21.3475 15.3145V20.1067Z" fill="#0052B4"/>
<path d="M23.0087 13.6152L26.1402 16.8206C26.8471 15.8792 27.3802 14.794 27.6906 13.6152H23.0087Z" fill="#0052B4"/>
<path d="M27.9238 10.0105H20.174H20.1739V2.07798C19.7896 2.02677 19.3979 2 19 2C18.6021 2 18.2104 2.02677 17.8261 2.07798V10.0104V10.0105H10.0762C10.0262 10.4038 10 10.8048 10 11.2121C10 11.6194 10.0262 12.0203 10.0762 12.4136H17.826H17.8261V20.3461C18.2104 20.3973 18.6021 20.4241 19 20.4241C19.3979 20.4241 19.7896 20.3974 20.1739 20.3461V12.4137V12.4136H27.9238C27.9738 12.0203 28 11.6194 28 11.2121C28 10.8048 27.9738 10.4038 27.9238 10.0105Z" fill="#D80027"/>
<path d="M21.3484 13.6152L25.3645 17.7259C25.5492 17.537 25.7254 17.3394 25.8935 17.1345L22.4552 13.6152H21.3484V13.6152Z" fill="#D80027"/>
<path d="M16.6529 13.6152H16.6528L12.6367 17.7259C12.8214 17.915 13.0144 18.0953 13.2145 18.2674L16.6529 14.748V13.6152Z" fill="#D80027"/>
<path d="M16.6528 8.80896V8.80889L12.6367 4.69812C12.452 4.88711 12.2758 5.0847 12.1077 5.28953L15.5461 8.80893L16.6528 8.80896Z" fill="#D80027"/>
<path d="M21.3484 8.809L25.3645 4.6982C25.1799 4.50914 24.9869 4.32878 24.7867 4.15674L21.3484 7.67614V8.809Z" fill="#D80027"/>
<path d="M11 29.1597C16.2576 29.1597 20.5 24.8004 20.5 19.4476C20.5 14.0949 16.2576 9.7356 11 9.7356C5.74238 9.7356 1.5 14.0949 1.5 19.4476C1.5 24.8004 5.74238 29.1597 11 29.1597Z" fill="#0052B4" stroke="white"/>
<path d="M11.0003 13.8403L11.2917 14.7583H12.2346L11.4718 15.3256L11.7632 16.2435L11.0003 15.6762L10.2374 16.2435L10.5288 15.3256L9.76599 14.7583H10.7089L11.0003 13.8403Z" fill="#FFDA44"/>
<path d="M7.12655 15.4827L7.96678 15.9208L8.63352 15.2384L8.48597 16.1916L9.32617 16.6298L8.39484 16.7808L8.24733 17.7341L7.81923 16.8741L6.88794 17.0251L7.55468 16.3427L7.12655 15.4827Z" fill="#FFDA44"/>
<path d="M5.52209 19.4477L6.4189 19.1494V18.1843L6.9731 18.9651L7.86993 18.6669L7.31563 19.4477L7.86993 20.2285L6.9731 19.9303L6.4189 20.7111V19.746L5.52209 19.4477Z" fill="#FFDA44"/>
<path d="M7.12655 23.4127L7.55464 22.5526L6.88794 21.8702L7.81926 22.0213L8.24729 21.1613L8.39484 22.1145L9.32613 22.2655L8.48604 22.7037L8.63352 23.6569L7.96678 22.9745L7.12655 23.4127Z" fill="#FFDA44"/>
<path d="M11.0003 25.055L10.7089 24.1371H9.76599L10.5289 23.5698L10.2374 22.6519L11.0003 23.2192L11.7632 22.6519L11.4718 23.5698L12.2346 24.1371H11.2917L11.0003 25.055Z" fill="#FFDA44"/>
<path d="M14.8741 23.4127L14.0339 22.9745L13.3671 23.657L13.5147 22.7037L12.6746 22.2655L13.6058 22.1145L13.7534 21.1613L14.1814 22.0213L15.1127 21.8702L14.446 22.5527L14.8741 23.4127Z" fill="#FFDA44"/>
<path d="M16.4785 19.4477L15.5817 19.746V20.7111L15.0275 19.9302L14.1307 20.2285L14.685 19.4477L14.1307 18.6669L15.0275 18.9651L15.5817 18.1843V19.1494L16.4785 19.4477Z" fill="#FFDA44"/>
<path d="M14.8741 15.4827L14.446 16.3427L15.1128 17.0252L14.1814 16.8741L13.7534 17.7341L13.6058 16.7808L12.6746 16.6298L13.5147 16.1917L13.3671 15.2385L14.0339 15.9209L14.8741 15.4827Z" fill="#FFDA44"/>
</svg>
