<svg width="30" height="31" viewBox="0 0 30 31" fill="none" xmlns="http://www.w3.org/2000/svg">
<path d="M19 19C23.9706 19 28 14.9706 28 10C28 5.02944 23.9706 1 19 1C14.0294 1 10 5.02944 10 10C10 14.9706 14.0294 19 19 19Z" fill="#F0F0F0"/>
<path d="M18.9999 13.913C21.1611 13.913 22.913 12.1611 22.913 10C22.913 7.8389 21.1611 6.08698 18.9999 6.08698C16.8388 6.08698 15.0869 7.8389 15.0869 10C15.0869 12.1611 16.8388 13.913 18.9999 13.913Z" fill="#D80027"/>
<path d="M11 27.9241C16.2576 27.9241 20.5 23.5648 20.5 18.2121C20.5 12.8593 16.2576 8.5 11 8.5C5.74238 8.5 1.5 12.8593 1.5 18.2121C1.5 23.5648 5.74238 27.9241 11 27.9241Z" fill="#0052B4" stroke="white"/>
<path d="M11.0003 12.6047L11.2917 13.5227H12.2346L11.4718 14.09L11.7632 15.0079L11.0003 14.4406L10.2374 15.0079L10.5288 14.09L9.76599 13.5227H10.7089L11.0003 12.6047Z" fill="#FFDA44"/>
<path d="M7.12655 14.2471L7.96678 14.6852L8.63352 14.0028L8.48597 14.956L9.32617 15.3942L8.39484 15.5452L8.24733 16.4985L7.81923 15.6385L6.88794 15.7895L7.55468 15.1071L7.12655 14.2471Z" fill="#FFDA44"/>
<path d="M5.52209 18.2121L6.4189 17.9138V16.9486L6.9731 17.7295L7.86993 17.4312L7.31563 18.2121L7.86993 18.9929L6.9731 18.6946L6.4189 19.4755V18.5103L5.52209 18.2121Z" fill="#FFDA44"/>
<path d="M7.12655 22.1771L7.55464 21.317L6.88794 20.6346L7.81926 20.7857L8.24729 19.9257L8.39484 20.8789L9.32613 21.0299L8.48604 21.4681L8.63352 22.4213L7.96678 21.7389L7.12655 22.1771Z" fill="#FFDA44"/>
<path d="M11.0003 23.8194L10.7089 22.9015H9.76599L10.5289 22.3342L10.2374 21.4163L11.0003 21.9836L11.7632 21.4163L11.4718 22.3342L12.2346 22.9015H11.2917L11.0003 23.8194Z" fill="#FFDA44"/>
<path d="M14.8741 22.1771L14.0339 21.7389L13.3671 22.4214L13.5147 21.4681L12.6746 21.0299L13.6058 20.8789L13.7534 19.9257L14.1814 20.7857L15.1127 20.6346L14.446 21.3171L14.8741 22.1771Z" fill="#FFDA44"/>
<path d="M16.4785 18.2121L15.5817 18.5103V19.4755L15.0275 18.6946L14.1307 18.9929L14.685 18.2121L14.1307 17.4312L15.0275 17.7295L15.5817 16.9486V17.9138L16.4785 18.2121Z" fill="#FFDA44"/>
<path d="M14.8741 14.2471L14.446 15.1071L15.1128 15.7895L14.1814 15.6385L13.7534 16.4985L13.6058 15.5452L12.6746 15.3942L13.5147 14.956L13.3671 14.0028L14.0339 14.6852L14.8741 14.2471Z" fill="#FFDA44"/>
</svg>
