<svg width="30" height="31" viewBox="0 0 30 31" fill="none" xmlns="http://www.w3.org/2000/svg">
<path d="M19 19C23.9706 19 28 14.9706 28 10C28 5.02944 23.9706 1 19 1C14.0294 1 10 5.02944 10 10C10 14.9706 14.0294 19 19 19Z" fill="#D80027"/>
<path d="M18.6315 8.3542L19.37 9.3718L20.5659 8.98403L19.8263 10.0007L20.5646 11.0183L19.3691 10.6291L18.6296 11.6458L18.6303 10.3886L17.4348 9.9993L18.6308 9.61153L18.6315 8.3542Z" fill="#F0F0F0"/>
<path d="M16.6162 12.5435C15.2115 12.5435 14.0728 11.4047 14.0728 10C14.0728 8.5953 15.2115 7.45652 16.6162 7.45652C17.0542 7.45652 17.4663 7.5673 17.8261 7.76224C17.2617 7.21022 16.4898 6.86955 15.638 6.86955C13.9091 6.86955 12.5076 8.27109 12.5076 9.99997C12.5076 11.7288 13.9091 13.1304 15.638 13.1304C16.4898 13.1304 17.2617 12.7897 17.8261 12.2377C17.4663 12.4327 17.0542 12.5435 16.6162 12.5435Z" fill="#F0F0F0"/>
<path d="M11 27.9241C16.2576 27.9241 20.5 23.5648 20.5 18.2121C20.5 12.8593 16.2576 8.5 11 8.5C5.74238 8.5 1.5 12.8593 1.5 18.2121C1.5 23.5648 5.74238 27.9241 11 27.9241Z" fill="#0052B4" stroke="white"/>
<path d="M11.0004 12.6047L11.2919 13.5227H12.2347L11.4719 14.09L11.7633 15.0079L11.0004 14.4406L10.2376 15.0079L10.529 14.09L9.76611 13.5227H10.709L11.0004 12.6047Z" fill="#FFDA44"/>
<path d="M7.12679 14.2471L7.96702 14.6852L8.63376 14.0028L8.48621 14.956L9.32641 15.3942L8.39509 15.5452L8.24757 16.4985L7.81947 15.6385L6.88818 15.7895L7.55492 15.1071L7.12679 14.2471Z" fill="#FFDA44"/>
<path d="M5.52222 18.2121L6.41902 17.9138V16.9487L6.97322 17.7295L7.87006 17.4312L7.31575 18.2121L7.87006 18.9929L6.97322 18.6947L6.41902 19.4755V18.5103L5.52222 18.2121Z" fill="#FFDA44"/>
<path d="M7.12679 22.1771L7.55489 21.317L6.88818 20.6346L7.81951 20.7857L8.24754 19.9257L8.39509 20.8789L9.32638 21.0299L8.48628 21.4681L8.63376 22.4213L7.96702 21.7389L7.12679 22.1771Z" fill="#FFDA44"/>
<path d="M11.0004 23.8194L10.709 22.9015H9.76611L10.529 22.3342L10.2376 21.4163L11.0004 21.9836L11.7633 21.4163L11.4719 22.3342L12.2347 22.9015H11.2918L11.0004 23.8194Z" fill="#FFDA44"/>
<path d="M14.8741 22.1771L14.0339 21.7389L13.3671 22.4214L13.5147 21.4681L12.6746 21.0299L13.6058 20.8789L13.7534 19.9257L14.1814 20.7857L15.1127 20.6346L14.446 21.3171L14.8741 22.1771Z" fill="#FFDA44"/>
<path d="M16.4786 18.2121L15.5818 18.5103V19.4755L15.0276 18.6946L14.1309 18.9929L14.6851 18.2121L14.1309 17.4312L15.0276 17.7295L15.5818 16.9487V17.9138L16.4786 18.2121Z" fill="#FFDA44"/>
<path d="M14.8741 14.2471L14.446 15.1071L15.1128 15.7895L14.1814 15.6385L13.7534 16.4985L13.6058 15.5452L12.6746 15.3942L13.5147 14.956L13.3671 14.0028L14.0339 14.6852L14.8741 14.2471Z" fill="#FFDA44"/>
</svg>
