<svg width="30" height="31" viewBox="0 0 30 31" fill="none" xmlns="http://www.w3.org/2000/svg">
<path d="M19 20.4712C23.9706 20.4712 28 16.3468 28 11.2592C28 6.17149 23.9706 2.04712 19 2.04712C14.0294 2.04712 10 6.17149 10 11.2592C10 16.3468 14.0294 20.4712 19 20.4712Z" fill="#F0F0F0"/>
<path d="M18.6088 11.2591H28.0001C28.0001 10.4277 27.8918 9.62218 27.69 8.85596H18.6088V11.2591Z" fill="#D80027"/>
<path d="M18.6088 6.45284H26.6791C26.1282 5.53264 25.4237 4.71928 24.6024 4.04968H18.6088V6.45284Z" fill="#D80027"/>
<path d="M18.9992 20.4711C21.1173 20.4711 23.0642 19.7218 24.6016 18.4685H13.3969C14.9342 19.7218 16.8811 20.4711 18.9992 20.4711Z" fill="#D80027"/>
<path d="M11.3211 16.0654H26.6792C27.1215 15.3267 27.4645 14.5192 27.6901 13.6622H10.3102C10.5358 14.5192 10.8788 15.3267 11.3211 16.0654Z" fill="#D80027"/>
<path d="M14.169 3.48571H14.9891L14.2262 4.05301L14.5176 4.97094L13.7548 4.40364L12.9919 4.97094L13.2437 4.17795C12.572 4.75064 11.9832 5.42161 11.4981 6.16922H11.7609L11.2753 6.53033C11.1996 6.65951 11.127 6.79075 11.0575 6.92393L11.2894 7.65445L10.8568 7.33271C10.7492 7.56593 10.6508 7.8044 10.5624 8.04783L10.8179 8.85274H11.7609L10.998 9.42003L11.2894 10.338L10.5265 9.77067L10.0696 10.1105C10.0238 10.4868 10 10.8701 10 11.2592H19C19 6.17153 19 5.57174 19 2.04712C17.2221 2.04712 15.5647 2.57501 14.169 3.48571ZM14.5176 10.338L13.7548 9.77067L12.9919 10.338L13.2833 9.42003L12.5205 8.85274H13.4634L13.7548 7.93481L14.0462 8.85274H14.9891L14.2262 9.42003L14.5176 10.338ZM14.2262 6.73652L14.5176 7.65445L13.7548 7.08715L12.9919 7.65445L13.2833 6.73652L12.5205 6.16922H13.4634L13.7548 5.25129L14.0462 6.16922H14.9891L14.2262 6.73652ZM17.7459 10.338L16.9831 9.77067L16.2202 10.338L16.5116 9.42003L15.7487 8.85274H16.6917L16.9831 7.93481L17.2744 8.85274H18.2174L17.4545 9.42003L17.7459 10.338ZM17.4545 6.73652L17.7459 7.65445L16.9831 7.08715L16.2202 7.65445L16.5116 6.73652L15.7487 6.16922H16.6917L16.9831 5.25129L17.2744 6.16922H18.2174L17.4545 6.73652ZM17.4545 4.05301L17.7459 4.97094L16.9831 4.40364L16.2202 4.97094L16.5116 4.05301L15.7487 3.48571H16.6917L16.9831 2.56778L17.2744 3.48571H18.2174L17.4545 4.05301Z" fill="#0052B4"/>
<path d="M11 29.1597C16.2576 29.1597 20.5 24.8004 20.5 19.4476C20.5 14.0949 16.2576 9.7356 11 9.7356C5.74238 9.7356 1.5 14.0949 1.5 19.4476C1.5 24.8004 5.74238 29.1597 11 29.1597Z" fill="#0052B4" stroke="white"/>
<path d="M11.0003 13.8403L11.2917 14.7583H12.2346L11.4718 15.3256L11.7632 16.2435L11.0003 15.6762L10.2374 16.2435L10.5288 15.3256L9.76599 14.7583H10.7089L11.0003 13.8403Z" fill="#FFDA44"/>
<path d="M7.12655 15.4827L7.96678 15.9208L8.63352 15.2384L8.48597 16.1916L9.32617 16.6298L8.39484 16.7808L8.24733 17.7341L7.81923 16.8741L6.88794 17.0251L7.55468 16.3427L7.12655 15.4827Z" fill="#FFDA44"/>
<path d="M5.52209 19.4476L6.4189 19.1493V18.1842L6.9731 18.9651L7.86993 18.6668L7.31563 19.4476L7.86993 20.2285L6.9731 19.9302L6.4189 20.711V19.7459L5.52209 19.4476Z" fill="#FFDA44"/>
<path d="M7.12655 23.4127L7.55464 22.5526L6.88794 21.8702L7.81926 22.0213L8.24729 21.1613L8.39484 22.1145L9.32613 22.2655L8.48604 22.7037L8.63352 23.6569L7.96678 22.9745L7.12655 23.4127Z" fill="#FFDA44"/>
<path d="M11.0003 25.0549L10.7089 24.137H9.76599L10.5289 23.5697L10.2374 22.6519L11.0003 23.2191L11.7632 22.6519L11.4718 23.5697L12.2346 24.137H11.2917L11.0003 25.0549Z" fill="#FFDA44"/>
<path d="M14.8741 23.4127L14.0339 22.9745L13.3671 23.657L13.5147 22.7037L12.6746 22.2655L13.6058 22.1145L13.7534 21.1613L14.1814 22.0213L15.1127 21.8702L14.446 22.5527L14.8741 23.4127Z" fill="#FFDA44"/>
<path d="M16.4785 19.4476L15.5817 19.7459V20.711L15.0275 19.9302L14.1307 20.2285L14.685 19.4476L14.1307 18.6668L15.0275 18.9651L15.5817 18.1842V19.1494L16.4785 19.4476Z" fill="#FFDA44"/>
<path d="M14.8741 15.4826L14.446 16.3427L15.1128 17.0251L14.1814 16.874L13.7534 17.734L13.6058 16.7808L12.6746 16.6297L13.5147 16.1916L13.3671 15.2384L14.0339 15.9208L14.8741 15.4826Z" fill="#FFDA44"/>
</svg>
