<svg width="30" height="31" viewBox="0 0 30 31" fill="none" xmlns="http://www.w3.org/2000/svg">
<g clip-path="url(#clip0_1522_1586)">
<path d="M19 20C23.9706 20 28 15.9706 28 11C28 6.02944 23.9706 2 19 2C14.0294 2 10 6.02944 10 11C10 15.9706 14.0294 20 19 20Z" fill="#D80027"/>
<path d="M23.6956 9.43477H20.5652V6.30432H17.4347V9.43477H14.3043V12.5652H17.4347V15.6956H20.5652V12.5652H23.6956V9.43477Z" fill="#F0F0F0"/>
<path d="M10 29.9241C15.2576 29.9241 19.5 25.5648 19.5 20.2121C19.5 14.8593 15.2576 10.5 10 10.5C4.74238 10.5 0.5 14.8593 0.5 20.2121C0.5 25.5648 4.74238 29.9241 10 29.9241Z" fill="#F0F0F0" stroke="white"/>
<path d="M2.86061 14.6036C2.15365 15.5451 1.62058 16.6302 1.31018 17.809H5.99222L2.86061 14.6036Z" fill="#0052B4"/>
<path d="M18.6906 17.809C18.3802 16.6302 17.8471 15.5451 17.1402 14.6036L14.0087 17.809H18.6906Z" fill="#0052B4"/>
<path d="M1.31018 22.6152C1.62061 23.794 2.15368 24.8791 2.86061 25.8206L5.99211 22.6152H1.31018Z" fill="#0052B4"/>
<path d="M15.4791 12.9044C14.5593 12.1808 13.4992 11.6351 12.3475 11.3174V16.1097L15.4791 12.9044Z" fill="#0052B4"/>
<path d="M4.5199 27.5197C5.43969 28.2434 6.49983 28.789 7.65148 29.1067V24.3145L4.5199 27.5197Z" fill="#0052B4"/>
<path d="M7.65144 11.3174C6.49979 11.6351 5.43966 12.1808 4.5199 12.9043L7.65144 16.1097V11.3174Z" fill="#0052B4"/>
<path d="M12.3475 29.1067C13.4992 28.789 14.5593 28.2434 15.4791 27.5198L12.3475 24.3145V29.1067Z" fill="#0052B4"/>
<path d="M14.0087 22.6152L17.1402 25.8206C17.8471 24.8792 18.3802 23.794 18.6906 22.6152H14.0087Z" fill="#0052B4"/>
<path d="M18.9238 19.0105H11.174H11.1739V11.078C10.7896 11.0268 10.3979 11 10 11C9.60207 11 9.21035 11.0268 8.8261 11.078V19.0104V19.0105H1.07618C1.02616 19.4038 1 19.8048 1 20.2121C1 20.6194 1.02616 21.0203 1.07618 21.4136H8.82603H8.82606V29.3461C9.21036 29.3973 9.60207 29.4241 10 29.4241C10.3979 29.4241 10.7896 29.3974 11.1739 29.3461V21.4137V21.4136H18.9238C18.9738 21.0203 19 20.6194 19 20.2121C19 19.8048 18.9738 19.4038 18.9238 19.0105Z" fill="#D80027"/>
<path d="M12.3484 22.6153L16.3645 26.726C16.5492 26.537 16.7254 26.3394 16.8935 26.1346L13.4552 22.6152H12.3484V22.6153Z" fill="#D80027"/>
<path d="M7.65286 22.6152H7.65279L3.63672 26.7259C3.82136 26.915 4.0144 27.0953 4.21451 27.2674L7.65286 23.748V22.6152Z" fill="#D80027"/>
<path d="M7.65281 17.809V17.8089L3.6367 13.6981C3.45199 13.8871 3.27578 14.0847 3.10767 14.2895L6.54605 17.8089L7.65281 17.809Z" fill="#D80027"/>
<path d="M12.3484 17.809L16.3645 13.6982C16.1799 13.5091 15.9869 13.3288 15.7867 13.1567L12.3484 16.6761V17.809Z" fill="#D80027"/>
</g>
<defs>
<clipPath id="clip0_1522_1586">
<rect width="30" height="30.7068" fill="white"/>
</clipPath>
</defs>
</svg>
