<svg width="30" height="31" viewBox="0 0 30 31" fill="none" xmlns="http://www.w3.org/2000/svg">
<path d="M19 19.4477C23.9706 19.4477 28 15.3233 28 10.2356C28 5.14794 23.9706 1.02356 19 1.02356C14.0294 1.02356 10 5.14794 10 10.2356C10 15.3233 14.0294 19.4477 19 19.4477Z" fill="#F0F0F0"/>
<path d="M18.6088 10.2356H28.0001C28.0001 9.40416 27.8918 8.59868 27.69 7.83246H18.6088V10.2356Z" fill="#D80027"/>
<path d="M18.6088 5.42934H26.6791C26.1282 4.50914 25.4237 3.69579 24.6024 3.02618H18.6088V5.42934Z" fill="#D80027"/>
<path d="M18.9992 19.4477C21.1173 19.4477 23.0642 18.6983 24.6016 17.4451H13.3969C14.9342 18.6983 16.8811 19.4477 18.9992 19.4477Z" fill="#D80027"/>
<path d="M11.3211 15.0419H26.6792C27.1215 14.3032 27.4645 13.4957 27.6901 12.6387H10.3102C10.5358 13.4957 10.8788 14.3032 11.3211 15.0419Z" fill="#D80027"/>
<path d="M14.169 2.46215H14.9891L14.2262 3.02945L14.5176 3.94738L13.7548 3.38008L12.9919 3.94738L13.2437 3.15439C12.572 3.72708 11.9832 4.39805 11.4981 5.14566H11.7609L11.2753 5.50677C11.1996 5.63595 11.127 5.76719 11.0575 5.90037L11.2894 6.63089L10.8568 6.30915C10.7492 6.54237 10.6508 6.78084 10.5624 7.02428L10.8179 7.82918H11.7609L10.998 8.39648L11.2894 9.31441L10.5265 8.74711L10.0696 9.08695C10.0238 9.46327 10 9.84658 10 10.2356H19C19 5.14797 19 4.54818 19 1.02356C17.2221 1.02356 15.5647 1.55145 14.169 2.46215ZM14.5176 9.31441L13.7548 8.74711L12.9919 9.31441L13.2833 8.39648L12.5205 7.82918H13.4634L13.7548 6.91125L14.0462 7.82918H14.9891L14.2262 8.39648L14.5176 9.31441ZM14.2262 5.71296L14.5176 6.63089L13.7548 6.0636L12.9919 6.63089L13.2833 5.71296L12.5205 5.14566H13.4634L13.7548 4.22773L14.0462 5.14566H14.9891L14.2262 5.71296ZM17.7459 9.31441L16.9831 8.74711L16.2202 9.31441L16.5116 8.39648L15.7487 7.82918H16.6917L16.9831 6.91125L17.2744 7.82918H18.2174L17.4545 8.39648L17.7459 9.31441ZM17.4545 5.71296L17.7459 6.63089L16.9831 6.0636L16.2202 6.63089L16.5116 5.71296L15.7487 5.14566H16.6917L16.9831 4.22773L17.2744 5.14566H18.2174L17.4545 5.71296ZM17.4545 3.02945L17.7459 3.94738L16.9831 3.38008L16.2202 3.94738L16.5116 3.02945L15.7487 2.46215H16.6917L16.9831 1.54422L17.2744 2.46215H18.2174L17.4545 3.02945Z" fill="#0052B4"/>
<path d="M11 28.1361C16.2576 28.1361 20.5 23.7769 20.5 18.4241C20.5 13.0713 16.2576 8.71204 11 8.71204C5.74238 8.71204 1.5 13.0713 1.5 18.4241C1.5 23.7769 5.74238 28.1361 11 28.1361Z" fill="#F0F0F0" stroke="white"/>
<path d="M3.86061 12.8156C3.15365 13.7571 2.62058 14.8422 2.31018 16.021H6.99222L3.86061 12.8156Z" fill="#0052B4"/>
<path d="M19.6906 16.021C19.3802 14.8422 18.8471 13.7571 18.1402 12.8156L15.0087 16.021H19.6906Z" fill="#0052B4"/>
<path d="M2.31018 20.8273C2.62061 22.0061 3.15368 23.0912 3.86061 24.0326L6.99211 20.8273H2.31018Z" fill="#0052B4"/>
<path d="M16.4791 11.1163C15.5593 10.3927 14.4992 9.8471 13.3475 9.52936V14.3217L16.4791 11.1163Z" fill="#0052B4"/>
<path d="M5.5199 25.7318C6.43969 26.4554 7.49983 27.001 8.65148 27.3188V22.5265L5.5199 25.7318Z" fill="#0052B4"/>
<path d="M8.65144 9.52936C7.49979 9.8471 6.43966 10.3927 5.5199 11.1163L8.65144 14.3216V9.52936Z" fill="#0052B4"/>
<path d="M13.3475 27.3188C14.4992 27.001 15.5593 26.4554 16.4791 25.7318L13.3475 22.5265V27.3188Z" fill="#0052B4"/>
<path d="M15.0087 20.8273L18.1402 24.0326C18.8471 23.0912 19.3802 22.0061 19.6906 20.8273H15.0087Z" fill="#0052B4"/>
<path d="M19.9238 17.2225H12.174H12.1739V9.29001C11.7896 9.23881 11.3979 9.21204 11 9.21204C10.6021 9.21204 10.2104 9.23881 9.8261 9.29001V17.2225V17.2225H2.07618C2.02616 17.6158 2 18.0169 2 18.4241C2 18.8314 2.02616 19.2323 2.07618 19.6256H9.82603H9.82606V27.5582C10.2104 27.6094 10.6021 27.6361 11 27.6361C11.3979 27.6361 11.7896 27.6094 12.1739 27.5582V19.6257V19.6257H19.9238C19.9738 19.2323 20 18.8314 20 18.4241C20 18.0169 19.9738 17.6158 19.9238 17.2225Z" fill="#D80027"/>
<path d="M13.3484 20.8272L17.3645 24.938C17.5492 24.749 17.7254 24.5514 17.8935 24.3466L14.4552 20.8272H13.3484V20.8272Z" fill="#D80027"/>
<path d="M8.65286 20.8273H8.65279L4.63672 24.938C4.82136 25.127 5.0144 25.3074 5.21451 25.4795L8.65286 21.96V20.8273Z" fill="#D80027"/>
<path d="M8.65281 16.021V16.0209L4.6367 11.9102C4.45199 12.0991 4.27578 12.2967 4.10767 12.5016L7.54605 16.021L8.65281 16.021Z" fill="#D80027"/>
<path d="M13.3484 16.021L17.3645 11.9102C17.1799 11.7212 16.9869 11.5408 16.7867 11.3688L13.3484 14.8882V16.021Z" fill="#D80027"/>
</svg>
