<svg width="30" height="31" viewBox="0 0 30 31" fill="none" xmlns="http://www.w3.org/2000/svg">
<path d="M18.9995 19C23.9701 19 27.9995 14.9705 27.9995 9.99999C27.9995 5.02943 23.9701 1 18.9995 1C14.0289 1 9.99951 5.02943 9.99951 9.99999C9.99951 14.9705 14.0289 19 18.9995 19Z" fill="#F0F0F0"/>
<path d="M12.6355 16.364C9.12083 12.8492 9.12083 7.15076 12.6355 3.63602C12.6353 3.6364 17.8256 9.99999 17.8256 9.99999L12.6355 16.364Z" fill="black"/>
<path d="M17.8256 10L11.1932 5.51804C10.9875 5.87547 10.8062 6.24855 10.6504 6.6347L14.0081 10L10.6505 13.3655C10.8062 13.7514 10.9873 14.1242 11.1928 14.4814L17.8256 10Z" fill="#FFDA44"/>
<path d="M27.9234 8.82608H17.8254L12.6355 3.63614C12.0762 4.1954 11.5903 4.8279 11.1932 5.51805L15.6665 9.99998L11.1929 14.4813C11.59 15.1717 12.0761 15.8044 12.6355 16.3638L17.8254 11.1739H27.9234C27.9734 10.7896 27.9995 10.3978 27.9995 9.99998C27.9995 9.60211 27.9734 9.21033 27.9234 8.82608Z" fill="#6DA544"/>
<path d="M13.52 17.1394C15.0377 18.306 16.9374 19 18.9995 19C23.1578 19 26.6567 16.1797 27.6895 12.3478H18.3116L13.52 17.1394Z" fill="#0052B4"/>
<path d="M27.6895 7.65215C26.6567 3.82027 23.1578 1 18.9995 1C16.9374 1 15.0377 1.69402 13.52 2.86057L18.3116 7.65215H27.6895Z" fill="#D80027"/>
<path d="M11 28.1362C16.2576 28.1362 20.5 23.7769 20.5 18.4241C20.5 13.0713 16.2576 8.71205 11 8.71205C5.74238 8.71205 1.5 13.0713 1.5 18.4241C1.5 23.7769 5.74238 28.1362 11 28.1362Z" fill="#F0F0F0" stroke="white"/>
<path d="M3.86061 12.8156C3.15365 13.7571 2.62058 14.8422 2.31018 16.021H6.99222L3.86061 12.8156Z" fill="#0052B4"/>
<path d="M19.6906 16.021C19.3802 14.8423 18.8471 13.7571 18.1402 12.8157L15.0087 16.021H19.6906Z" fill="#0052B4"/>
<path d="M2.31018 20.8273C2.62061 22.0061 3.15368 23.0912 3.86061 24.0326L6.99211 20.8273H2.31018Z" fill="#0052B4"/>
<path d="M16.4791 11.1164C15.5593 10.3928 14.4992 9.84715 13.3475 9.5294V14.3217L16.4791 11.1164Z" fill="#0052B4"/>
<path d="M5.5199 25.7318C6.43969 26.4554 7.49983 27.0011 8.65148 27.3188V22.5265L5.5199 25.7318Z" fill="#0052B4"/>
<path d="M8.65144 9.5294C7.49979 9.84715 6.43966 10.3928 5.5199 11.1164L8.65144 14.3217V9.5294Z" fill="#0052B4"/>
<path d="M13.3475 27.3188C14.4992 27.0011 15.5593 26.4554 16.4791 25.7318L13.3475 22.5265V27.3188Z" fill="#0052B4"/>
<path d="M15.0087 20.8273L18.1402 24.0327C18.8471 23.0912 19.3802 22.0061 19.6906 20.8273H15.0087Z" fill="#0052B4"/>
<path d="M19.9238 17.2225H12.174H12.1739V9.29003C11.7896 9.23882 11.3979 9.21205 11 9.21205C10.6021 9.21205 10.2104 9.23882 9.8261 9.29003V17.2225V17.2225H2.07618C2.02616 17.6159 2 18.0169 2 18.4241C2 18.8314 2.02616 19.2324 2.07618 19.6257H9.82603H9.82606V27.5582C10.2104 27.6094 10.6021 27.6362 11 27.6362C11.3979 27.6362 11.7896 27.6094 12.1739 27.5582V19.6257V19.6257H19.9238C19.9738 19.2324 20 18.8314 20 18.4241C20 18.0169 19.9738 17.6159 19.9238 17.2225Z" fill="#D80027"/>
<path d="M13.3484 20.8273L17.3645 24.938C17.5492 24.749 17.7254 24.5514 17.8935 24.3466L14.4552 20.8273H13.3484V20.8273Z" fill="#D80027"/>
<path d="M8.65286 20.8273H8.65279L4.63672 24.938C4.82136 25.127 5.0144 25.3074 5.21451 25.4795L8.65286 21.96V20.8273Z" fill="#D80027"/>
<path d="M8.65281 16.021V16.0209L4.6367 11.9102C4.45199 12.0991 4.27578 12.2967 4.10767 12.5016L7.54605 16.021L8.65281 16.021Z" fill="#D80027"/>
<path d="M13.3484 16.021L17.3645 11.9102C17.1799 11.7212 16.9869 11.5408 16.7867 11.3688L13.3484 14.8882V16.021Z" fill="#D80027"/>
</svg>
