<svg width="30" height="31" viewBox="0 0 30 31" fill="none" xmlns="http://www.w3.org/2000/svg">
<rect width="30" height="31" fill="#E3E3E3"/>
<g id="Pairs info for quotes and tabs">
<rect width="1696" height="2436" transform="translate(-739 -1665)" fill="white"/>
<g id="Currency-HUFJPY-icon">
<g id="JPY">
<path id="Vector" d="M19 19C23.9706 19 28 14.9706 28 10C28 5.02944 23.9706 1 19 1C14.0294 1 10 5.02944 10 10C10 14.9706 14.0294 19 19 19Z" fill="#F0F0F0"/>
<path id="Vector_2" d="M18.9999 13.913C21.1611 13.913 22.913 12.1611 22.913 10C22.913 7.83889 21.1611 6.08697 18.9999 6.08697C16.8388 6.08697 15.0869 7.83889 15.0869 10C15.0869 12.1611 16.8388 13.913 18.9999 13.913Z" fill="#D80027"/>
</g>
<g id="HUF">
<path id="Vector_3" d="M20.5 18C20.5 12.7533 16.2467 8.5 11 8.5C5.75329 8.5 1.5 12.7533 1.5 18C1.5 23.2467 5.75329 27.5 11 27.5C16.2467 27.5 20.5 23.2467 20.5 18Z" fill="#FBFBFB" stroke="white"/>
<path id="Vector_4" fill-rule="evenodd" clip-rule="evenodd" d="M19.5246 15.1071H2.47461C3.67936 11.5557 7.041 9 10.9996 9C14.9582 9 18.3199 11.5557 19.5246 15.1071Z" fill="#E92B2B"/>
<path id="Vector_5" fill-rule="evenodd" clip-rule="evenodd" d="M19.5246 20.8929C18.3199 24.4443 14.9582 27 10.9996 27C7.041 27 3.67936 24.4443 2.47461 20.8929H19.5246Z" fill="#32AB45"/>
</g>
</g>
</g>
</svg>
