<svg width="30" height="31" viewBox="0 0 30 31" fill="none" xmlns="http://www.w3.org/2000/svg">
<path d="M19 19C23.9706 19 28 14.9706 28 10C28 5.02944 23.9706 1 19 1C14.0294 1 10 5.02944 10 10C10 14.9706 14.0294 19 19 19Z" fill="#FFDA44"/>
<path fill-rule="evenodd" clip-rule="evenodd" d="M27.9234 8.826H17.0434V1.214C17.6734 1.075 18.3279 1 18.9999 1C23.5729 1 27.3484 4.41 27.9234 8.826ZM14.6959 2.1V8.826H10.0764C10.4499 5.916 12.2249 3.4425 14.6959 2.1ZM14.6959 11.174H10.0764C10.4554 14.084 12.2244 16.5575 14.6964 17.906L14.6959 11.174ZM17.0434 18.786V11.174H17.0439H27.9239C27.3484 15.59 23.5724 19 18.9999 19C18.3284 19 17.6734 18.926 17.0434 18.786Z" fill="#0052B4"/>
<path d="M11 27.5C16.2467 27.5 20.5 23.2467 20.5 18C20.5 12.7533 16.2467 8.5 11 8.5C5.75329 8.5 1.5 12.7533 1.5 18C1.5 23.2467 5.75329 27.5 11 27.5Z" fill="#F0F0F0" stroke="white"/>
<path d="M11 27C15.9706 27 20 22.9706 20 18C20 13.0294 15.9706 9 11 9C6.02944 9 2 13.0294 2 18C2 22.9706 6.02944 27 11 27Z" fill="#F0F0F0"/>
<path d="M2.31201 20.3478C2.83275 22.2799 3.98042 23.9546 5.52371 25.1403V20.3478H2.31201Z" fill="#D80027"/>
<path d="M10.2178 26.9657C10.4757 26.9879 10.7366 26.9999 11.0004 26.9999C15.1586 26.9999 18.6576 24.1797 19.6903 20.3478H10.2178V26.9657Z" fill="#D80027"/>
<path d="M19.6903 15.6522C18.6576 11.8203 15.1586 9 11.0004 9C10.7366 9 10.4757 9.01202 10.2178 9.03424V15.6522H19.6903Z" fill="#D80027"/>
<path d="M5.52371 10.8594C3.98042 12.0453 2.83275 13.7199 2.31201 15.652H5.52371V10.8594Z" fill="#D80027"/>
<path d="M19.9238 16.8259H9.04352L9.04348 9.21368C8.21176 9.39811 7.42324 9.69705 6.69564 10.0941V16.8258V16.8258H2.07618C2.02609 17.2101 2 17.6019 2 17.9998C2 18.3976 2.02609 18.7894 2.07618 19.1737H6.69561H6.69564V25.9054C7.42324 26.3024 8.21176 26.6014 9.04348 26.7858V19.1738V19.1737H19.9238C19.9738 18.7894 20 18.3976 20 17.9998C20 17.6019 19.9738 17.2101 19.9238 16.8259Z" fill="#0052B4"/>
</svg>
