<svg width="30" height="31" viewBox="0 0 30 31" fill="none" xmlns="http://www.w3.org/2000/svg">
<path d="M19 19C23.9706 19 28 14.9706 28 10C28 5.02944 23.9706 1 19 1C14.0294 1 10 5.02944 10 10C10 14.9706 14.0294 19 19 19Z" fill="#F0F0F0"/>
<path d="M10 10C10 5.02947 14.0295 1 19 1C23.9705 1 28 5.02947 28 10" fill="#D80027"/>
<path d="M15.4784 5.69561C15.4784 4.38435 16.3999 3.28895 17.6305 3.02018C17.4414 2.97891 17.2452 2.95651 17.0436 2.95651C15.5308 2.95651 14.3044 4.18283 14.3044 5.69564C14.3044 7.20845 15.5308 8.43477 17.0436 8.43477C17.2451 8.43477 17.4414 8.41238 17.6305 8.37107C16.3999 8.1023 15.4784 7.0069 15.4784 5.69561Z" fill="#F0F0F0"/>
<path d="M19.0001 3.15216L19.1944 3.74999H19.823L19.3144 4.11952L19.5087 4.71735L19.0001 4.34789L18.4915 4.71735L18.6858 4.11952L18.1772 3.74999H18.8058L19.0001 3.15216Z" fill="#F0F0F0"/>
<path d="M17.475 4.32607L17.6693 4.92393H18.2979L17.7893 5.29342L17.9836 5.89126L17.475 5.5218L16.9664 5.89126L17.1607 5.29342L16.6521 4.92393H17.2807L17.475 4.32607Z" fill="#F0F0F0"/>
<path d="M20.525 4.32607L20.7193 4.92393H21.3479L20.8393 5.29342L21.0336 5.89126L20.525 5.5218L20.0164 5.89126L20.2107 5.29342L19.7021 4.92393H20.3307L20.525 4.32607Z" fill="#F0F0F0"/>
<path d="M19.9381 6.08694L20.1324 6.6848H20.761L20.2524 7.0543L20.4467 7.65213L19.9381 7.28267L19.4295 7.65213L19.6238 7.0543L19.1152 6.6848H19.7438L19.9381 6.08694Z" fill="#F0F0F0"/>
<path d="M18.0619 6.08694L18.2562 6.6848H18.8848L18.3762 7.0543L18.5705 7.65213L18.0619 7.28267L17.5533 7.65213L17.7476 7.0543L17.239 6.6848H17.8676L18.0619 6.08694Z" fill="#F0F0F0"/>
<path d="M10.6086 18.212H19.9999C19.9999 17.3806 19.8917 16.5751 19.6899 15.8089H10.6086V18.212Z" fill="#D80027"/>
<path d="M10.6086 13.4058H18.679C18.128 12.4856 17.4236 11.6722 16.6023 11.0026H10.6086V13.4058Z" fill="#D80027"/>
<path d="M10.9991 27.4241C13.1172 27.4241 15.0641 26.6748 16.6014 25.4215H5.39673C6.93411 26.6748 8.88096 27.4241 10.9991 27.4241Z" fill="#D80027"/>
<path d="M3.32098 23.0183H18.6791C19.1214 22.2796 19.4644 21.4721 19.69 20.6152H2.31006C2.53566 21.4721 2.87868 22.2796 3.32098 23.0183Z" fill="#D80027"/>
<path d="M6.16897 10.4386H6.98913L6.22624 11.0059L6.51765 11.9238L5.75479 11.3565L4.99194 11.9238L5.24366 11.1308C4.57196 11.7035 3.98323 12.3745 3.49808 13.1221H3.76087L3.27526 13.4832C3.1996 13.6124 3.12704 13.7436 3.0575 13.8768L3.28939 14.6073L2.85676 14.2856C2.74921 14.5188 2.65085 14.7573 2.56243 15.0007L2.81791 15.8056H3.76087L2.99798 16.3729L3.28939 17.2908L2.52654 16.7235L2.06957 17.0634C2.02384 17.4397 2 17.823 2 18.2121H11C11 13.1244 11 12.5246 11 9C9.22208 9 7.56471 9.52789 6.16897 10.4386ZM6.51765 17.2908L5.75479 16.7235L4.99194 17.2908L5.28335 16.3729L4.52046 15.8056H5.46342L5.75479 14.8877L6.04617 15.8056H6.98913L6.22624 16.3729L6.51765 17.2908ZM6.22624 13.6894L6.51765 14.6073L5.75479 14.04L4.99194 14.6073L5.28335 13.6894L4.52046 13.1221H5.46342L5.75479 12.2042L6.04617 13.1221H6.98913L6.22624 13.6894ZM9.74591 17.2908L8.98305 16.7235L8.22019 17.2908L8.51161 16.3729L7.74871 15.8056H8.69168L8.98305 14.8877L9.27443 15.8056H10.2174L9.4545 16.3729L9.74591 17.2908ZM9.4545 13.6894L9.74591 14.6073L8.98305 14.04L8.22019 14.6073L8.51161 13.6894L7.74871 13.1221H8.69168L8.98305 12.2042L9.27443 13.1221H10.2174L9.4545 13.6894ZM9.4545 11.0059L9.74591 11.9238L8.98305 11.3565L8.22019 11.9238L8.51161 11.0059L7.74871 10.4386H8.69168L8.98305 9.52066L9.27443 10.4386H10.2174L9.4545 11.0059Z" fill="#0052B4"/>
<path d="M11 27.5C16.2467 27.5 20.5 23.2467 20.5 18C20.5 12.7533 16.2467 8.5 11 8.5C5.75329 8.5 1.5 12.7533 1.5 18C1.5 23.2467 5.75329 27.5 11 27.5Z" fill="#F0F0F0" stroke="white"/>
<path d="M20 18C20 22.9705 15.9705 27 11 27C6.02947 27 2 22.9705 2 18C2 18.0021 11 9.00098 11 9C15.9705 9 20 13.0295 20 18Z" fill="#0052B4"/>
<path d="M10.9758 18H10.9999C10.9999 17.9919 10.9999 17.984 10.9999 17.9759C10.9919 17.984 10.9839 17.992 10.9758 18Z" fill="#F0F0F0"/>
<path d="M11 13.6956C11 12.112 11 11.0744 11 9H10.9985C6.02863 9.00084 2 13.0299 2 18H6.69564V15.3559L9.33982 18H10.976C10.984 17.992 10.992 17.984 11 17.9759C11 17.3696 11 16.8286 11 16.3399L8.35583 13.6956H11Z" fill="#F0F0F0"/>
<path d="M6.55319 10.1739C5.14557 10.9754 3.97536 12.1456 3.17383 13.5533V18H5.52167V12.5218V12.5217H10.9999C10.9999 11.7812 10.9999 11.0758 10.9999 10.1739H6.55319Z" fill="#D80027"/>
<path d="M10.9999 16.8933L7.80231 13.6957C7.80231 13.6957 6.69556 13.6958 6.69556 13.6957V13.6958L10.9998 18H10.9999C10.9999 18 10.9999 17.2369 10.9999 16.8933Z" fill="#D80027"/>
<path d="M17.5859 15.6783L17.7801 16.2761H18.4087L17.9002 16.6456L18.0944 17.2435L17.5859 16.874L17.0773 17.2435L17.2715 16.6456L16.7629 16.2761H17.3916L17.5859 15.6783Z" fill="#D80027"/>
<path d="M15.3386 19.9826L15.63 20.8794H16.5729L15.81 21.4336L16.1015 22.3304L15.3386 21.7762L14.5757 22.3304L14.8671 21.4336L14.1042 20.8794H15.0472L15.3386 19.9826Z" fill="#D80027"/>
<path d="M15.4236 12.9391L15.6664 13.6865H16.4522L15.8165 14.1483L16.0593 14.8956L15.4236 14.4337L14.7879 14.8956L15.0307 14.1483L14.395 13.6865H15.1808L15.4236 12.9391Z" fill="#D80027"/>
<path d="M13.2614 15.6522L13.5528 16.549H14.4958L13.7329 17.1032L14.0243 18L13.2614 17.4458L12.4985 18L12.79 17.1032L12.0271 16.549H12.97L13.2614 15.6522Z" fill="#D80027"/>
</svg>
