<svg width="30" height="31" viewBox="0 0 30 31" fill="none" xmlns="http://www.w3.org/2000/svg">
<path d="M19 19.4241C23.9706 19.4241 28 15.2997 28 10.2121C28 5.12438 23.9706 1 19 1C14.0294 1 10 5.12438 10 10.2121C10 15.2997 14.0294 19.4241 19 19.4241Z" fill="#F0F0F0"/>
<path d="M18.6088 10.2121H28.0001C28.0001 9.3806 27.8918 8.57512 27.69 7.8089H18.6088V10.2121Z" fill="#D80027"/>
<path d="M18.6088 5.40578H26.6791C26.1282 4.48558 25.4237 3.67223 24.6024 3.00262H18.6088V5.40578Z" fill="#D80027"/>
<path d="M18.9992 19.4241C21.1173 19.4241 23.0642 18.6748 24.6016 17.4215H13.3969C14.9342 18.6748 16.8811 19.4241 18.9992 19.4241Z" fill="#D80027"/>
<path d="M11.3211 15.0183H26.6792C27.1215 14.2796 27.4645 13.4721 27.6901 12.6152H10.3102C10.5358 13.4721 10.8788 14.2796 11.3211 15.0183Z" fill="#D80027"/>
<path d="M14.169 2.43859H14.9891L14.2262 3.00589L14.5176 3.92382L13.7548 3.35652L12.9919 3.92382L13.2437 3.13083C12.572 3.70352 11.9832 4.37449 11.4981 5.12211H11.7609L11.2753 5.48321C11.1996 5.61239 11.127 5.74363 11.0575 5.87681L11.2894 6.60733L10.8568 6.28559C10.7492 6.51881 10.6508 6.75728 10.5624 7.00072L10.8179 7.80562H11.7609L10.998 8.37292L11.2894 9.29085L10.5265 8.72355L10.0696 9.06339C10.0238 9.43971 10 9.82302 10 10.2121H19C19 5.12441 19 4.52462 19 1C17.2221 1 15.5647 1.52789 14.169 2.43859ZM14.5176 9.29085L13.7548 8.72355L12.9919 9.29085L13.2833 8.37292L12.5205 7.80562H13.4634L13.7548 6.88769L14.0462 7.80562H14.9891L14.2262 8.37292L14.5176 9.29085ZM14.2262 5.6894L14.5176 6.60733L13.7548 6.04004L12.9919 6.60733L13.2833 5.6894L12.5205 5.12211H13.4634L13.7548 4.20417L14.0462 5.12211H14.9891L14.2262 5.6894ZM17.7459 9.29085L16.9831 8.72355L16.2202 9.29085L16.5116 8.37292L15.7487 7.80562H16.6917L16.9831 6.88769L17.2744 7.80562H18.2174L17.4545 8.37292L17.7459 9.29085ZM17.4545 5.6894L17.7459 6.60733L16.9831 6.04004L16.2202 6.60733L16.5116 5.6894L15.7487 5.12211H16.6917L16.9831 4.20417L17.2744 5.12211H18.2174L17.4545 5.6894ZM17.4545 3.00589L17.7459 3.92382L16.9831 3.35652L16.2202 3.92382L16.5116 3.00589L15.7487 2.43859H16.6917L16.9831 1.52066L17.2744 2.43859H18.2174L17.4545 3.00589Z" fill="#0052B4"/>
<path d="M10.5 8.5H11C16.2576 8.5 20.5 12.8593 20.5 18.2121C20.5 23.5648 16.2576 27.9241 11 27.9241C5.74241 27.9241 1.5 23.5648 1.5 18.2121H2H2.5C2.42606 18.0982 2.33673 18.0183 2.24419 17.9627L10.5 8.5ZM10.5 8.5V8.79651V8.5ZM10.971 9.74553L11.2082 9.50257C15.7961 9.61582 19.5 13.4612 19.5 18.2121C19.5 23.0346 15.6835 26.9241 11 26.9241C6.38204 26.9241 2.60695 23.1427 2.50223 18.4139L2.74424 18.1664L3.76386 17.1232C4.60763 16.2597 5.73265 15.1082 6.85766 13.9566L9.95144 10.7895L10.971 9.74553Z" fill="#0052B4" stroke="white"/>
<path d="M10.976 18.2115H11C11 18.2034 11 18.1955 11 18.1874C10.992 18.1954 10.984 18.2034 10.976 18.2115Z" fill="#F0F0F0"/>
<path d="M11 13.8063C11 12.1854 11 11.1233 11 9H10.9985C6.02863 9.00086 2 13.1249 2 18.2121H6.69564V15.5056L9.33982 18.2121H10.976C10.984 18.2038 10.992 18.1956 11 18.1874C11 17.5668 11 17.013 11 16.5128L8.35583 13.8063H11Z" fill="#F0F0F0"/>
<path d="M6.55319 10.2015C5.14557 11.022 3.97536 12.2197 3.17383 13.6605V18.212H5.52167V12.6048V12.6047H10.9999C10.9999 11.8468 10.9999 11.1247 10.9999 10.2015H6.55319Z" fill="#D80027"/>
<path d="M11 17.0792L7.80243 13.8063C7.80243 13.8063 6.69568 13.8064 6.69568 13.8063V13.8064L11 18.2121H11C11 18.2121 11 17.431 11 17.0792Z" fill="#D80027"/>
<path d="M17.5859 15.8356L17.7801 16.4475H18.4087L17.9002 16.8257L18.0944 17.4376L17.5859 17.0595L17.0773 17.4376L17.2715 16.8257L16.7629 16.4475H17.3916L17.5859 15.8356Z" fill="#D80027"/>
<path d="M15.3387 20.2413L15.6301 21.1593H16.573L15.8102 21.7266L16.1016 22.6445L15.3387 22.0772L14.5758 22.6445L14.8673 21.7266L14.1044 21.1593H15.0473L15.3387 20.2413Z" fill="#D80027"/>
<path d="M15.4235 13.0319L15.6663 13.7969H16.4521L15.8163 14.2696L16.0592 15.0345L15.4235 14.5617L14.7878 15.0345L15.0306 14.2696L14.3949 13.7969H15.1806L15.4235 13.0319Z" fill="#D80027"/>
<path d="M13.2613 15.8089L13.5527 16.7269H14.4956L13.7328 17.2941L14.0242 18.2121L13.2613 17.6448L12.4984 18.2121L12.7899 17.2941L12.027 16.7269H12.9699L13.2613 15.8089Z" fill="#D80027"/>
</svg>
