<svg width="30" height="31" viewBox="0 0 30 31" fill="none" xmlns="http://www.w3.org/2000/svg">
<path d="M19 19C23.9706 19 28 14.9706 28 10C28 5.02944 23.9706 1 19 1C14.0294 1 10 5.02944 10 10C10 14.9706 14.0294 19 19 19Z" fill="#6DA544"/>
<path d="M19 4.52174L26.4347 10L19 15.4783L11.5652 10L19 4.52174Z" fill="#FFDA44"/>
<path d="M19 13.1304C20.7289 13.1304 22.1305 11.7289 22.1305 9.99999C22.1305 8.2711 20.7289 6.86957 19 6.86957C17.2712 6.86957 15.8696 8.2711 15.8696 9.99999C15.8696 11.7289 17.2712 13.1304 19 13.1304Z" fill="#F0F0F0"/>
<path d="M17.4348 9.80435C16.8905 9.80435 16.3651 9.88714 15.8706 10.0408C15.8925 11.7508 17.2848 13.1304 19 13.1304C20.0606 13.1304 20.9973 12.6025 21.5636 11.7956C20.5948 10.5829 19.1041 9.80435 17.4348 9.80435Z" fill="#0052B4"/>
<path d="M22.0724 10.5998C22.11 10.4055 22.1304 10.2052 22.1304 9.99999C22.1304 8.27107 20.7289 6.86957 19 6.86957C17.71 6.86957 16.6025 7.65007 16.1233 8.76445C16.5469 8.67667 16.9855 8.63044 17.4348 8.63044C19.253 8.6304 20.8978 9.38619 22.0724 10.5998Z" fill="#0052B4"/>
<path d="M11 27.9241C16.2576 27.9241 20.5 23.5648 20.5 18.2121C20.5 12.8593 16.2576 8.5 11 8.5C5.74238 8.5 1.5 12.8593 1.5 18.2121C1.5 23.5648 5.74238 27.9241 11 27.9241Z" fill="#F0F0F0" stroke="white"/>
<path d="M10.6088 18.2121H20.0001C20.0001 17.3806 19.8918 16.5751 19.69 15.8089H10.6088V18.2121Z" fill="#D80027"/>
<path d="M10.6088 13.4058H18.6791C18.1282 12.4856 17.4237 11.6722 16.6024 11.0026H10.6088V13.4058Z" fill="#D80027"/>
<path d="M10.9992 27.4241C13.1173 27.4241 15.0642 26.6748 16.6016 25.4215H5.39685C6.93423 26.6748 8.88108 27.4241 10.9992 27.4241Z" fill="#D80027"/>
<path d="M3.3211 23.0183H18.6792C19.1215 22.2796 19.4645 21.4721 19.6901 20.6152H2.31018C2.53578 21.4721 2.8788 22.2796 3.3211 23.0183Z" fill="#D80027"/>
<path d="M6.16897 10.4386H6.98913L6.22624 11.0059L6.51765 11.9238L5.75479 11.3565L4.99194 11.9238L5.24366 11.1308C4.57196 11.7035 3.98323 12.3745 3.49808 13.1221H3.76087L3.27526 13.4832C3.1996 13.6124 3.12704 13.7436 3.0575 13.8768L3.28939 14.6073L2.85676 14.2856C2.74921 14.5188 2.65085 14.7573 2.56243 15.0007L2.81791 15.8056H3.76087L2.99798 16.3729L3.28939 17.2908L2.52654 16.7235L2.06957 17.0634C2.02384 17.4397 2 17.823 2 18.2121H11C11 13.1244 11 12.5246 11 9C9.22208 9 7.56471 9.52789 6.16897 10.4386ZM6.51765 17.2908L5.75479 16.7235L4.99194 17.2908L5.28335 16.3729L4.52046 15.8056H5.46342L5.75479 14.8877L6.04617 15.8056H6.98913L6.22624 16.3729L6.51765 17.2908ZM6.22624 13.6894L6.51765 14.6073L5.75479 14.04L4.99194 14.6073L5.28335 13.6894L4.52046 13.1221H5.46342L5.75479 12.2042L6.04617 13.1221H6.98913L6.22624 13.6894ZM9.74591 17.2908L8.98305 16.7235L8.22019 17.2908L8.51161 16.3729L7.74871 15.8056H8.69168L8.98305 14.8877L9.27443 15.8056H10.2174L9.4545 16.3729L9.74591 17.2908ZM9.4545 13.6894L9.74591 14.6073L8.98305 14.04L8.22019 14.6073L8.51161 13.6894L7.74871 13.1221H8.69168L8.98305 12.2042L9.27443 13.1221H10.2174L9.4545 13.6894ZM9.4545 11.0059L9.74591 11.9238L8.98305 11.3565L8.22019 11.9238L8.51161 11.0059L7.74871 10.4386H8.69168L8.98305 9.52066L9.27443 10.4386H10.2174L9.4545 11.0059Z" fill="#0052B4"/>
</svg>
