<svg width="30" height="31" viewBox="0 0 30 31" fill="none" xmlns="http://www.w3.org/2000/svg">
<path d="M19 19C23.9706 19 28 14.9706 28 10C28 5.02944 23.9706 1 19 1C14.0294 1 10 5.02944 10 10C10 14.9706 14.0294 19 19 19Z" fill="#F0F0F0"/>
<path d="M19 1C15.4319 1 12.3488 3.0765 10.8931 6.08697H27.107C25.6512 3.0765 22.5681 1 19 1Z" fill="black"/>
<path d="M19 19C15.4319 19 12.3488 16.9235 10.8931 13.913H27.107C25.6512 16.9235 22.5681 19 19 19Z" fill="#496E2D"/>
<path d="M27.575 7.26086H10.425C10.1493 8.12462 10 9.04483 10 9.99999C10 10.9552 10.1493 11.8754 10.425 12.7391H27.575C27.8507 11.8754 28 10.9552 28 9.99999C28 9.04483 27.8507 8.12462 27.575 7.26086Z" fill="#A2001D"/>
<path d="M21.8025 5.15903L20.7366 4.66708L19 8.59935L17.2633 4.66708L16.1975 5.15903L18.3536 10L16.1975 14.841L17.2633 15.3329L19 11.4007L20.7366 15.3329L21.8025 14.841L19.6464 10L21.8025 5.15903Z" fill="#F0F0F0"/>
<path d="M19.7239 5.62265C19.3113 5.17206 19 4.91302 19 4.91302C19 4.91302 18.6887 5.17202 18.2761 5.62265V14.3773C18.6887 14.8279 19 15.087 19 15.087C19 15.087 19.3113 14.828 19.7239 14.3773V5.62265Z" fill="#F0F0F0"/>
<path d="M17.0435 7.30152V12.6984C17.4795 13.471 18.0131 14.1042 18.413 14.524V5.47592C18.0131 5.89572 17.4794 6.52899 17.0435 7.30152Z" fill="#A2001D"/>
<path d="M20.9565 7.30152C20.5205 6.52896 19.9869 5.89572 19.5869 5.47592V14.524C19.9868 14.1042 20.5205 13.471 20.9565 12.6984V7.30152Z" fill="#A2001D"/>
<path d="M20.9565 7.30151V12.6984C21.3979 11.9162 21.7392 10.9913 21.7392 10C21.7392 9.0087 21.3979 8.08374 20.9565 7.30151Z" fill="black"/>
<path d="M17.0436 7.30151V12.6984C16.6022 11.9162 16.261 10.9913 16.261 10C16.261 9.0087 16.6022 8.08374 17.0436 7.30151Z" fill="black"/>
<path d="M19 19C23.9706 19 28 14.9706 28 10C28 5.02944 23.9706 1 19 1C14.0294 1 10 5.02944 10 10C10 14.9706 14.0294 19 19 19Z" fill="#D80027"/>
<path d="M14.9254 6.47736L15.7023 8.86798H18.216L16.184 10.3481L16.9609 12.7387L14.9254 11.2621L12.8898 12.7387L13.6703 10.3481L11.6348 8.86798H14.1484L14.9254 6.47736Z" fill="#FFDA44"/>
<path d="M20.67 14.9395L20.0758 14.2082L19.1969 14.5492L19.7067 13.7582L19.1125 13.0234L20.0231 13.266L20.5364 12.475L20.5856 13.4172L21.4997 13.6598L20.6172 13.9973L20.67 14.9395Z" fill="#FFDA44"/>
<path d="M21.8512 12.7949L22.1325 11.8949L21.3625 11.35L22.3047 11.3359L22.5825 10.4359L22.8883 11.3289L23.8305 11.3184L23.0747 11.8809L23.377 12.7738L22.6071 12.2289L21.8512 12.7949Z" fill="#FFDA44"/>
<path d="M23.4437 7.60585L23.0289 8.45311L23.7039 9.11053L22.7722 8.97694L22.3574 9.82069L22.1957 8.89257L21.2605 8.75897L22.0972 8.31952L21.9355 7.38788L22.6105 8.0453L23.4437 7.60585Z" fill="#FFDA44"/>
<path d="M20.6946 5.03946L20.6243 5.97813L21.4997 6.33321L20.5821 6.55821L20.5153 7.5004L20.0196 6.69883L19.1021 6.92383L19.7103 6.20313L19.211 5.40508L20.0864 5.76016L20.6946 5.03946Z" fill="#FFDA44"/>
<path d="M11 27.9241C16.2576 27.9241 20.5 23.5648 20.5 18.2121C20.5 12.8593 16.2576 8.5 11 8.5C5.74238 8.5 1.5 12.8593 1.5 18.2121C1.5 23.5648 5.74238 27.9241 11 27.9241Z" fill="#F0F0F0" stroke="white"/>
<path d="M10.6086 18.2121H19.9999C19.9999 17.3806 19.8917 16.5751 19.6899 15.8089H10.6086V18.2121Z" fill="#D80027"/>
<path d="M10.6086 13.4058H18.679C18.128 12.4856 17.4236 11.6722 16.6023 11.0026H10.6086V13.4058Z" fill="#D80027"/>
<path d="M10.9991 27.4241C13.1172 27.4241 15.0641 26.6748 16.6014 25.4215H5.39673C6.93411 26.6748 8.88096 27.4241 10.9991 27.4241Z" fill="#D80027"/>
<path d="M3.32098 23.0183H18.6791C19.1214 22.2796 19.4644 21.4721 19.69 20.6152H2.31006C2.53566 21.4721 2.87868 22.2796 3.32098 23.0183Z" fill="#D80027"/>
<path d="M6.16897 10.4386H6.98913L6.22624 11.0059L6.51765 11.9238L5.75479 11.3565L4.99194 11.9238L5.24366 11.1308C4.57196 11.7035 3.98323 12.3745 3.49808 13.1221H3.76087L3.27526 13.4832C3.1996 13.6124 3.12704 13.7436 3.0575 13.8768L3.28939 14.6073L2.85676 14.2856C2.74921 14.5188 2.65085 14.7573 2.56243 15.0007L2.81791 15.8056H3.76087L2.99798 16.3729L3.28939 17.2908L2.52654 16.7235L2.06957 17.0634C2.02384 17.4397 2 17.823 2 18.2121H11C11 13.1244 11 12.5246 11 9C9.22208 9 7.56471 9.52789 6.16897 10.4386ZM6.51765 17.2908L5.75479 16.7235L4.99194 17.2908L5.28335 16.3729L4.52046 15.8056H5.46342L5.75479 14.8877L6.04617 15.8056H6.98913L6.22624 16.3729L6.51765 17.2908ZM6.22624 13.6894L6.51765 14.6073L5.75479 14.04L4.99194 14.6073L5.28335 13.6894L4.52046 13.1221H5.46342L5.75479 12.2042L6.04617 13.1221H6.98913L6.22624 13.6894ZM9.74591 17.2908L8.98305 16.7235L8.22019 17.2908L8.51161 16.3729L7.74871 15.8056H8.69168L8.98305 14.8877L9.27443 15.8056H10.2174L9.4545 16.3729L9.74591 17.2908ZM9.4545 13.6894L9.74591 14.6073L8.98305 14.04L8.22019 14.6073L8.51161 13.6894L7.74871 13.1221H8.69168L8.98305 12.2042L9.27443 13.1221H10.2174L9.4545 13.6894ZM9.4545 11.0059L9.74591 11.9238L8.98305 11.3565L8.22019 11.9238L8.51161 11.0059L7.74871 10.4386H8.69168L8.98305 9.52066L9.27443 10.4386H10.2174L9.4545 11.0059Z" fill="#0052B4"/>
</svg>
