<svg width="30" height="31" viewBox="0 0 30 31" fill="none" xmlns="http://www.w3.org/2000/svg">
<path d="M19 19C23.9706 19 28 14.9706 28 10C28 5.02944 23.9706 1 19 1C14.0294 1 10 5.02944 10 10C10 14.9706 14.0294 19 19 19Z" fill="#D80027"/>
<path d="M19.9293 7.80863C19.7248 8.65937 19.3613 8.49713 19.183 9.23906C18.1324 8.98647 17.4854 7.93002 17.738 6.87938C17.9905 5.8288 19.047 5.18179 20.0977 5.43438C19.7409 6.91822 20.1123 7.04774 19.9293 7.80863Z" fill="#F0F0F0"/>
<path d="M17.203 8.43905C17.9489 8.89643 17.6823 9.19199 18.3327 9.59091C17.7678 10.512 16.5632 10.8008 15.642 10.236C14.7209 9.67113 14.432 8.46643 14.9969 7.5453C16.2979 8.34307 16.5357 8.02993 17.203 8.43905Z" fill="#F0F0F0"/>
<path d="M16.9601 11.2267C17.6256 10.6586 17.8242 11.0035 18.4046 10.5081C19.1062 11.33 19.0086 12.5649 18.1868 13.2665C17.3649 13.968 16.1299 13.8703 15.4285 13.0486C16.5891 12.0577 16.3648 11.7347 16.9601 11.2267Z" fill="#F0F0F0"/>
<path d="M19.5364 12.3191C19.2017 11.5106 19.5911 11.4282 19.2993 10.7232C20.2977 10.31 21.4421 10.7844 21.8554 11.7828C22.2685 12.7812 21.7941 13.9256 20.7957 14.3388C20.2122 12.9287 19.8357 13.0422 19.5364 12.3191Z" fill="#F0F0F0"/>
<path d="M21.3713 10.2066C20.499 10.275 20.5409 9.87916 19.7803 9.93885C19.6958 8.8617 20.5006 7.91983 21.5779 7.83528C22.6551 7.75094 23.5969 8.55573 23.6813 9.63299C22.1599 9.75228 22.1515 10.1454 21.3713 10.2066Z" fill="#F0F0F0"/>
<path d="M11 27.9241C16.2576 27.9241 20.5 23.5648 20.5 18.2121C20.5 12.8593 16.2576 8.5 11 8.5C5.74238 8.5 1.5 12.8593 1.5 18.2121C1.5 23.5648 5.74238 27.9241 11 27.9241Z" fill="#F0F0F0" stroke="white"/>
<path d="M10.6086 18.212H19.9999C19.9999 17.3806 19.8917 16.5751 19.6899 15.8089H10.6086V18.212Z" fill="#D80027"/>
<path d="M10.6086 13.4058H18.679C18.128 12.4856 17.4236 11.6722 16.6023 11.0026H10.6086V13.4058Z" fill="#D80027"/>
<path d="M10.9991 27.4241C13.1172 27.4241 15.0641 26.6748 16.6014 25.4215H5.39673C6.93411 26.6748 8.88096 27.4241 10.9991 27.4241Z" fill="#D80027"/>
<path d="M3.32098 23.0183H18.6791C19.1214 22.2796 19.4644 21.4721 19.69 20.6152H2.31006C2.53566 21.4721 2.87868 22.2796 3.32098 23.0183Z" fill="#D80027"/>
<path d="M6.16897 10.4386H6.98913L6.22624 11.0059L6.51765 11.9238L5.75479 11.3565L4.99194 11.9238L5.24366 11.1308C4.57196 11.7035 3.98323 12.3745 3.49808 13.1221H3.76087L3.27526 13.4832C3.1996 13.6124 3.12704 13.7436 3.0575 13.8768L3.28939 14.6073L2.85676 14.2856C2.74921 14.5188 2.65085 14.7573 2.56243 15.0007L2.81791 15.8056H3.76087L2.99798 16.3729L3.28939 17.2908L2.52654 16.7235L2.06957 17.0634C2.02384 17.4397 2 17.823 2 18.2121H11C11 13.1244 11 12.5246 11 9C9.22208 9 7.56471 9.52789 6.16897 10.4386ZM6.51765 17.2908L5.75479 16.7235L4.99194 17.2908L5.28335 16.3729L4.52046 15.8056H5.46342L5.75479 14.8877L6.04617 15.8056H6.98913L6.22624 16.3729L6.51765 17.2908ZM6.22624 13.6894L6.51765 14.6073L5.75479 14.04L4.99194 14.6073L5.28335 13.6894L4.52046 13.1221H5.46342L5.75479 12.2042L6.04617 13.1221H6.98913L6.22624 13.6894ZM9.74591 17.2908L8.98305 16.7235L8.22019 17.2908L8.51161 16.3729L7.74871 15.8056H8.69168L8.98305 14.8877L9.27443 15.8056H10.2174L9.4545 16.3729L9.74591 17.2908ZM9.4545 13.6894L9.74591 14.6073L8.98305 14.04L8.22019 14.6073L8.51161 13.6894L7.74871 13.1221H8.69168L8.98305 12.2042L9.27443 13.1221H10.2174L9.4545 13.6894ZM9.4545 11.0059L9.74591 11.9238L8.98305 11.3565L8.22019 11.9238L8.51161 11.0059L7.74871 10.4386H8.69168L8.98305 9.52066L9.27443 10.4386H10.2174L9.4545 11.0059Z" fill="#0052B4"/>
</svg>
