<svg width="28" height="28" viewBox="0 0 28 28" fill="none" xmlns="http://www.w3.org/2000/svg">
<path d="M27.3334 14C27.3334 21.3638 21.3638 27.3333 14 27.3333C6.6362 27.3333 0.666687 21.3638 0.666687 14C0.666687 6.63617 6.6362 0.666656 14 0.666656C21.3638 0.666656 27.3334 6.63617 27.3334 14ZM12.4578 21.0599L22.3502 11.1674C22.6861 10.8315 22.6861 10.2868 22.3502 9.9509L21.1337 8.7344C20.7978 8.39843 20.2531 8.39843 19.9172 8.7344L11.8495 16.802L8.08287 13.0354C7.74696 12.6995 7.20228 12.6995 6.86631 13.0354L5.64981 14.2519C5.31389 14.5878 5.31389 15.1325 5.64981 15.4684L11.2412 21.0598C11.5772 21.3958 12.1218 21.3958 12.4578 21.0599Z" fill="#0792FF"/>
</svg>
