<svg width="36" height="36" viewBox="0 0 36 36" fill="none" xmlns="http://www.w3.org/2000/svg">
<g id="SM-Icon-Linkedin">
<path id="Exclude" fill-rule="evenodd" clip-rule="evenodd" d="M18 33.4286C26.5209 33.4286 33.4286 26.5209 33.4286 18C33.4286 9.47902 26.5209 2.57141 18 2.57141C9.47902 2.57141 2.57141 9.47902 2.57141 18C2.57141 26.5209 9.47902 33.4286 18 33.4286ZM13.5073 13.4662C13.7829 13.1954 13.9379 12.8281 13.9381 12.4451C13.9383 12.062 13.7837 11.6945 13.5083 11.4235C13.233 11.1525 12.8594 11.0002 12.4698 11C12.0802 10.9998 11.7064 11.1518 11.4308 11.4225C11.1552 11.6932 11.0002 12.0605 11 12.4436C10.9998 12.8267 11.1544 13.1941 11.4298 13.4651C11.7051 13.7361 12.0787 13.8885 12.4683 13.8887C12.8579 13.8889 13.2317 13.7369 13.5073 13.4662ZM11.0441 14.9582H13.9822V24H11.0441V14.9582ZM15.7009 14.9582H18.6243L18.595 16.1715C19.8143 13.9833 25 13.8172 25 18.2731V24H22.0986V19.2552C22.0986 16.3665 18.595 16.612 18.595 19.2552V24H15.7009V14.9582Z" fill="#C8CDDC"/>
</g>
</svg>
