<svg width="60" height="60" viewBox="0 0 60 60" fill="none" xmlns="http://www.w3.org/2000/svg">
<g id="icon-1-deposit">
<rect width="60" height="60" rx="21" fill="#EAF4FF"/>
<g id="Vector" filter="url(#filter0_d_8192_444)">
<path d="M49.35 25C49.1062 24.6094 46.7004 23.6102 46.7004 23.6102C47.1189 23.4023 47.4049 23.3594 47.4049 22.5C47.4049 21.5625 47.4 21.25 46.75 21.25H44.5449C44.5359 21.2312 44.5262 21.2117 44.5172 21.1922C43.0937 18.2031 42.9028 17.4477 40.7797 16.4305C37.9319 15.0687 32.593 15 30.5 15C28.407 15 23.068 15.0687 20.2227 16.4305C18.0972 17.4461 18.15 17.9687 16.4852 21.1922C16.4852 21.2008 16.4681 21.2234 16.4527 21.25H14.2451C13.6 21.25 13.5951 21.5625 13.5951 22.5C13.5951 23.3594 13.8811 23.4023 14.2996 23.6102C14.2996 23.6102 11.975 24.6875 11.65 25C11.325 25.3125 11 27.5 11 31.25C11 35 11.325 38.75 11.325 38.75H12.2951C12.2951 39.8438 12.4625 40 12.95 40H19.45C19.9375 40 20.1 39.8438 20.1 38.75H40.9C40.9 39.8438 41.0625 40 41.55 40H48.2125C48.5375 40 48.7 39.7656 48.7 38.75H49.675C49.675 38.75 50 34.9219 50 31.25C50 27.5781 49.5938 25.3906 49.35 25ZM19.8773 28.5109C18.3976 28.6665 16.9102 28.7463 15.4216 28.75C13.7625 28.75 13.7056 28.8523 13.5886 27.8563C13.5446 27.4003 13.5585 26.9409 13.6301 26.4883L13.6813 26.25H13.925C14.9 26.25 15.8157 26.2898 17.5447 26.7797C18.4241 27.0334 19.2512 27.4315 19.9895 27.9563C20.3437 28.2031 20.425 28.4375 20.425 28.4375L19.8773 28.5109ZM39.9591 34.1359L39.6 35H21.4C21.4 35 21.4317 34.9523 20.9937 34.1266C20.6687 33.5156 21.075 33.125 21.7177 32.9031C22.9624 32.4719 26.6 31.25 30.5 31.25C34.4 31.25 38.1099 32.3031 39.3156 32.9031C39.7625 33.125 40.3174 33.2812 39.9591 34.1406V34.1359ZM19.0778 23.4695C18.8154 23.4841 18.5524 23.4859 18.2897 23.475C18.5018 23.1125 18.6196 22.7086 18.8268 22.2867C19.4768 20.9586 20.2202 19.4555 21.5438 18.8219C23.4564 17.9062 27.4206 17.4937 30.5 17.4937C33.5794 17.4937 37.5436 17.9031 39.4562 18.8219C40.7797 19.4555 41.5199 20.9594 42.1732 22.2867C42.382 22.7125 42.4982 23.1195 42.7159 23.4844C42.5534 23.493 42.3666 23.4844 41.9205 23.4695H19.0778ZM47.3301 27.8531C47.1562 28.8281 47.3187 28.75 45.5784 28.75C44.0898 28.7463 42.6024 28.6665 41.1226 28.5109C40.8911 28.4711 40.8252 28.0953 41.0105 27.9563C41.7451 27.4256 42.5733 27.027 43.4553 26.7797C45.1843 26.2898 46.1577 26.2242 47.1189 26.257C47.1835 26.2594 47.2448 26.2847 47.2912 26.3279C47.3375 26.3712 47.3656 26.4295 47.3699 26.4914C47.4159 26.9462 47.4025 27.4047 47.3301 27.8563V27.8531Z" fill="#0792FF"/>
</g>
</g>
<defs>
<filter id="filter0_d_8192_444" x="3" y="11" width="55" height="41" filterUnits="userSpaceOnUse" color-interpolation-filters="sRGB">
<feFlood flood-opacity="0" result="BackgroundImageFix"/>
<feColorMatrix in="SourceAlpha" type="matrix" values="0 0 0 0 0 0 0 0 0 0 0 0 0 0 0 0 0 0 127 0" result="hardAlpha"/>
<feOffset dy="4"/>
<feGaussianBlur stdDeviation="4"/>
<feComposite in2="hardAlpha" operator="out"/>
<feColorMatrix type="matrix" values="0 0 0 0 0.027451 0 0 0 0 0.572549 0 0 0 0 1 0 0 0 0.25 0"/>
<feBlend mode="normal" in2="BackgroundImageFix" result="effect1_dropShadow_8192_444"/>
<feBlend mode="normal" in="SourceGraphic" in2="effect1_dropShadow_8192_444" result="shape"/>
</filter>
</defs>
</svg>
