<svg width="60" height="60" viewBox="0 0 60 60" fill="none" xmlns="http://www.w3.org/2000/svg">
<g id="icon-1-deposit">
<rect width="60" height="60" rx="21" fill="#EAF4FF"/>
<g id="Group 39363" filter="url(#filter0_d_8192_147)">
<circle id="Ellipse 4" cx="28.125" cy="21.375" r="7.875" fill="#0792FF"/>
<ellipse id="Ellipse 5" cx="28.125" cy="39.375" rx="14.625" ry="7.875" fill="#0792FF"/>
<path id="Union" fill-rule="evenodd" clip-rule="evenodd" d="M45.0001 20.25C44.2546 20.25 43.6501 20.8544 43.6501 21.6V25.65H39.6C38.8544 25.65 38.25 26.2544 38.25 27C38.25 27.7456 38.8544 28.35 39.6 28.35H43.6501V32.4C43.6501 33.1456 44.2546 33.75 45.0001 33.75C45.7457 33.75 46.3501 33.1456 46.3501 32.4V28.35H50.4C51.1456 28.35 51.75 27.7456 51.75 27C51.75 26.2544 51.1456 25.65 50.4 25.65H46.3501V21.6C46.3501 20.8544 45.7457 20.25 45.0001 20.25Z" fill="#0792FF"/>
</g>
</g>
<defs>
<filter id="filter0_d_8192_147" x="7.5" y="10.5" width="50.25" height="45.75" filterUnits="userSpaceOnUse" color-interpolation-filters="sRGB">
<feFlood flood-opacity="0" result="BackgroundImageFix"/>
<feColorMatrix in="SourceAlpha" type="matrix" values="0 0 0 0 0 0 0 0 0 0 0 0 0 0 0 0 0 0 127 0" result="hardAlpha"/>
<feOffset dy="3"/>
<feGaussianBlur stdDeviation="3"/>
<feComposite in2="hardAlpha" operator="out"/>
<feColorMatrix type="matrix" values="0 0 0 0 0.027451 0 0 0 0 0.572549 0 0 0 0 1 0 0 0 0.25 0"/>
<feBlend mode="normal" in2="BackgroundImageFix" result="effect1_dropShadow_8192_147"/>
<feBlend mode="normal" in="SourceGraphic" in2="effect1_dropShadow_8192_147" result="shape"/>
</filter>
</defs>
</svg>
