<svg width="37" height="37" viewBox="0 0 37 37" fill="none" xmlns="http://www.w3.org/2000/svg">
<g id="Frame Icon">
<g id="Vector" filter="url(#filter0_d_3770_225)">
<path d="M26.017 5.90909H24.2273V4.95455C24.2273 4.70138 24.1267 4.45859 23.9477 4.27958C23.7687 4.10057 23.5259 4 23.2727 4C23.0196 4 22.7768 4.10057 22.5978 4.27958C22.4187 4.45859 22.3182 4.70138 22.3182 4.95455V5.90909H19.4545V4.95455C19.4545 4.70138 19.354 4.45859 19.175 4.27958C18.996 4.10057 18.7532 4 18.5 4C18.2468 4 18.004 4.10057 17.825 4.27958C17.646 4.45859 17.5455 4.70138 17.5455 4.95455V5.90909H14.6818V4.95455C14.6818 4.70138 14.5813 4.45859 14.4022 4.27958C14.2232 4.10057 13.9804 4 13.7273 4C13.4741 4 13.2313 4.10057 13.0523 4.27958C12.8733 4.45859 12.7727 4.70138 12.7727 4.95455V5.90909H10.983C10.1921 5.9101 9.434 6.2247 8.8748 6.78389C8.31561 7.34309 8.00101 8.10123 8 8.89205V11.6364H29V8.89205C28.999 8.10123 28.6844 7.34309 28.1252 6.78389C27.566 6.2247 26.8079 5.9101 26.017 5.90909Z" fill="#0792FF"/>
<path d="M8 22.017C8.00101 22.8079 8.31561 23.566 8.8748 24.1252C9.434 24.6844 10.1921 24.999 10.983 25H26.017C26.8079 24.999 27.566 24.6844 28.1252 24.1252C28.6844 23.566 28.999 22.8079 29 22.017V13.5455H8V22.017ZM14.9615 18.1817C15.1405 18.0027 15.3833 17.9022 15.6364 17.9022C15.8895 17.9022 16.1322 18.0027 16.3112 18.1817L17.5455 19.415L20.6888 16.2726C20.8688 16.0987 21.1099 16.0025 21.3602 16.0047C21.6105 16.0069 21.8499 16.1072 22.0269 16.2842C22.2039 16.4612 22.3042 16.7006 22.3064 16.9509C22.3086 17.2012 22.2124 17.4423 22.0385 17.6223L18.2203 21.4405C18.0413 21.6194 17.7986 21.72 17.5455 21.72C17.2923 21.72 17.0496 21.6194 16.8706 21.4405L14.9615 19.5314C14.7826 19.3524 14.682 19.1097 14.682 18.8565C14.682 18.6034 14.7826 18.3607 14.9615 18.1817Z" fill="#0792FF"/>
</g>
</g>
<defs>
<filter id="filter0_d_3770_225" x="0" y="0" width="37" height="37" filterUnits="userSpaceOnUse" color-interpolation-filters="sRGB">
<feFlood flood-opacity="0" result="BackgroundImageFix"/>
<feColorMatrix in="SourceAlpha" type="matrix" values="0 0 0 0 0 0 0 0 0 0 0 0 0 0 0 0 0 0 127 0" result="hardAlpha"/>
<feOffset dy="4"/>
<feGaussianBlur stdDeviation="4"/>
<feComposite in2="hardAlpha" operator="out"/>
<feColorMatrix type="matrix" values="0 0 0 0 0.027451 0 0 0 0 0.572549 0 0 0 0 1 0 0 0 0.25 0"/>
<feBlend mode="normal" in2="BackgroundImageFix" result="effect1_dropShadow_3770_225"/>
<feBlend mode="normal" in="SourceGraphic" in2="effect1_dropShadow_3770_225" result="shape"/>
</filter>
</defs>
</svg>
