<svg width="20" height="21" viewBox="0 0 20 21" fill="none" xmlns="http://www.w3.org/2000/svg">
<g id="Frame-Icon-Close">
<path id="Vector 7" d="M10.7505 5.00002C10.7505 4.5858 10.4147 4.25002 10.0005 4.25002C9.58627 4.25002 9.25049 4.5858 9.25049 5.00002H10.7505ZM9.47016 17.0303C9.76305 17.3232 10.2379 17.3232 10.5308 17.0303L15.3038 12.2574C15.5967 11.9645 15.5967 11.4896 15.3038 11.1967C15.0109 10.9038 14.536 10.9038 14.2431 11.1967L10.0005 15.4394L5.75785 11.1967C5.46495 10.9038 4.99008 10.9038 4.69719 11.1967C4.40429 11.4896 4.40429 11.9645 4.69719 12.2574L9.47016 17.0303ZM9.25049 5.00002V16.5H10.7505V5.00002H9.25049Z" fill="#474D65"/>
</g>
</svg>
