<svg width="30" height="30" viewBox="0 0 30 30" fill="none" xmlns="http://www.w3.org/2000/svg">
<g id="Frame Icon">
<g id="Vector">
<path d="M22.017 4.90909H20.2273V3.95455C20.2273 3.70138 20.1267 3.45859 19.9477 3.27958C19.7687 3.10057 19.5259 3 19.2727 3C19.0196 3 18.7768 3.10057 18.5978 3.27958C18.4187 3.45859 18.3182 3.70138 18.3182 3.95455V4.90909H15.4545V3.95455C15.4545 3.70138 15.354 3.45859 15.175 3.27958C14.996 3.10057 14.7532 3 14.5 3C14.2468 3 14.004 3.10057 13.825 3.27958C13.646 3.45859 13.5455 3.70138 13.5455 3.95455V4.90909H10.6818V3.95455C10.6818 3.70138 10.5813 3.45859 10.4022 3.27958C10.2232 3.10057 9.98043 3 9.72727 3C9.47411 3 9.23132 3.10057 9.05231 3.27958C8.8733 3.45859 8.77273 3.70138 8.77273 3.95455V4.90909H6.98295C6.19214 4.9101 5.434 5.2247 4.8748 5.78389C4.31561 6.34309 4.00101 7.10123 4 7.89205V10.6364H25V7.89205C24.999 7.10123 24.6844 6.34309 24.1252 5.78389C23.566 5.2247 22.8079 4.9101 22.017 4.90909Z" fill="#474D65"/>
<path d="M4 21.017C4.00101 21.8079 4.31561 22.566 4.8748 23.1252C5.434 23.6844 6.19214 23.999 6.98295 24H22.017C22.8079 23.999 23.566 23.6844 24.1252 23.1252C24.6844 22.566 24.999 21.8079 25 21.017V12.5455H4V21.017ZM10.9615 17.1817C11.1405 17.0027 11.3833 16.9022 11.6364 16.9022C11.8895 16.9022 12.1322 17.0027 12.3112 17.1817L13.5455 18.415L16.6888 15.2726C16.8688 15.0987 17.1099 15.0025 17.3602 15.0047C17.6105 15.0069 17.8499 15.1072 18.0269 15.2842C18.2039 15.4612 18.3042 15.7006 18.3064 15.9509C18.3086 16.2012 18.2124 16.4423 18.0385 16.6223L14.2203 20.4405C14.0413 20.6194 13.7986 20.72 13.5455 20.72C13.2923 20.72 13.0496 20.6194 12.8706 20.4405L10.9615 18.5314C10.7826 18.3524 10.682 18.1097 10.682 17.8565C10.682 17.6034 10.7826 17.3607 10.9615 17.1817Z" fill="#474D65"/>
</g>
</g>
</svg>
