<svg width="24" height="24" viewBox="0 0 24 24" fill="none" xmlns="http://www.w3.org/2000/svg">
<g id="United Kingdom 1">
<g id="Group">
<path id="Vector" d="M22.2026 4.13805H1.79742C0.804703 4.13805 0 4.94275 0 5.93547V18.0648C0 19.0575 0.804703 19.8622 1.79742 19.8622H22.2026C23.1952 19.8622 24 19.0575 24 18.0648V5.93547C24 4.94275 23.1953 4.13805 22.2026 4.13805Z" fill="#41479B"/>
<path id="Vector_2" d="M23.9751 5.63822C23.8335 4.78701 23.094 4.13789 22.2026 4.13789H21.7349L14.069 9.16041V4.13794H9.93103V9.16045L2.26509 4.13794H1.79742C0.906 4.13794 0.166547 4.78701 0.0248906 5.63826L6.57698 9.93108H0V14.069H6.57698L0.0248906 18.3617C0.166547 19.2129 0.906 19.8621 1.79742 19.8621H2.26509L9.93103 14.8395V19.8621H14.069V14.8395L21.7349 19.8621H22.2026C23.094 19.8621 23.8335 19.213 23.9751 18.3617L17.423 14.0689H24V9.93098H17.423L23.9751 5.63822Z" fill="#F5F5F5"/>
<g id="Group_2">
<path id="Vector_3" d="M13.2414 4.13811H10.7586V10.7588H0V13.2416H10.7586V19.8622H13.2414V13.2416H24V10.7588H13.2414V4.13811Z" fill="#FF4B55"/>
<path id="Vector_4" d="M1.16241 19.7462L9.90849 14.069H8.38843L0.432617 19.2333C0.627289 19.4605 0.877461 19.6385 1.16241 19.7462Z" fill="#FF4B55"/>
<path id="Vector_5" d="M16.2369 14.069H14.7168L23.1879 19.5676C23.4249 19.412 23.6227 19.2017 23.7638 18.9547L16.2369 14.069Z" fill="#FF4B55"/>
<path id="Vector_6" d="M0.189453 5.13164L7.58305 9.93103H9.10311L0.725047 4.49259C0.500094 4.66003 0.316016 4.87894 0.189453 5.13164Z" fill="#FF4B55"/>
<path id="Vector_7" d="M15.5894 9.93103L23.5598 4.7572C23.363 4.53075 23.1108 4.35375 22.8239 4.24814L14.0693 9.93103H15.5894Z" fill="#FF4B55"/>
</g>
</g>
</g>
</svg>
