<svg width="20" height="21" viewBox="0 0 20 21" fill="none" xmlns="http://www.w3.org/2000/svg">
<g id="Frame-Icon-Close">
<path id="Vector 7" d="M10.7505 16.5C10.7505 16.9142 10.4147 17.25 10.0005 17.25C9.58627 17.25 9.25049 16.9142 9.25049 16.5H10.7505ZM9.47016 4.46969C9.76305 4.17679 10.2379 4.17679 10.5308 4.46969L15.3038 9.24266C15.5967 9.53555 15.5967 10.0104 15.3038 10.3033C15.0109 10.5962 14.536 10.5962 14.2431 10.3033L10.0005 6.06068L5.75785 10.3033C5.46495 10.5962 4.99008 10.5962 4.69719 10.3033C4.40429 10.0104 4.40429 9.53555 4.69719 9.24266L9.47016 4.46969ZM9.25049 16.5V5.00002H10.7505V16.5H9.25049Z" fill="#0792FF"/>
</g>
</svg>
