<svg width="200" height="200" viewBox="0 0 200 200" fill="none" xmlns="http://www.w3.org/2000/svg">
<rect y="15" width="200" height="170" rx="40" fill="#0792FF"/>
<path d="M174.677 99.318C174.677 101.362 174.531 103.455 174.239 105.596H114.671C115.547 110.949 117.64 115.086 120.949 118.006C124.356 120.829 128.687 122.24 133.943 122.24C137.545 122.24 140.805 121.461 143.725 119.904C146.645 118.249 148.933 116.011 150.587 113.188H173.071C170.151 121.753 165.187 128.567 158.179 133.628C151.171 138.689 143.093 141.22 133.943 141.22C122.263 141.22 112.53 137.229 104.743 129.248C96.9568 121.267 93.0635 111.387 93.0635 99.61C93.0635 94.938 93.6961 90.4607 94.9615 86.178C96.3241 81.8953 98.2221 78.0507 100.655 74.644C103.186 71.2373 106.106 68.3173 109.415 65.884C112.725 63.3533 116.472 61.4067 120.657 60.044C124.843 58.6813 129.271 58 133.943 58C141.827 58 148.884 59.8493 155.113 63.548C161.44 67.2467 166.258 72.2593 169.567 78.586C172.974 84.9127 174.677 91.8233 174.677 99.318ZM133.943 76.104C129.174 76.104 125.135 77.418 121.825 80.046C118.613 82.674 116.423 86.324 115.255 90.996H153.361C152.388 87.784 150.977 85.1073 149.127 82.966C147.278 80.7273 145.039 79.024 142.411 77.856C139.881 76.688 137.058 76.104 133.943 76.104Z" fill="white"/>
<path d="M56.974 119.466H90.116V139.03H25V136.694L58.58 79.4619H28.212V60.1899H90.116V63.1099L56.974 119.466Z" fill="white"/>
</svg>
