<svg width="29" height="22" viewBox="0 0 29 22" fill="none" xmlns="http://www.w3.org/2000/svg">
<path id="Vector" d="M2.08862 8.7141C1.92759 6.20103 4.43985 3.87536 4.43985 3.87536C4.43985 3.87536 9.0975 9.55624 12.4924 17.0179C12.5099 17.0569 12.5165 17.122 12.4764 17.1567C12.449 17.1795 12.398 17.1957 12.346 17.1695C11.0739 16.5338 5.78385 13.7906 3.55587 11.6503C3.55587 11.6503 2.16231 10.5229 2.08862 8.7141ZM8.02648 3.04418C8.02648 3.04418 8.60923 0.854495 10.9718 0.276283C10.9718 0.276283 11.6523 0.102236 12.3752 0C12.3752 0 15.0164 3.42364 13.7325 16.3422C13.7263 16.4097 13.6895 16.4339 13.6593 16.4425C13.6107 16.4553 13.5648 16.4377 13.5332 16.3921C12.6865 15.1601 8.82503 9.39595 8.04067 5.89054C8.04067 5.89054 7.61567 4.19396 8.02648 3.04418ZM11.6471 18.995C11.6613 19.0231 11.6736 19.093 11.6202 19.1319C10.7673 19.7478 8.18093 21.5689 6.93469 21.9222C6.93469 21.9222 4.63064 22.713 2.62934 19.2513C2.62934 19.2513 9.32609 19.0164 11.5531 18.9384C11.5838 18.937 11.6292 18.9589 11.6471 18.995ZM0.256813 11.3156C0.256813 11.3156 7.83332 15.4126 11.75 18.0701C11.7788 18.0896 11.8152 18.1281 11.7958 18.1985C11.7854 18.2361 11.7505 18.2694 11.7032 18.2694C10.3012 18.2718 4.99185 18.2784 4.85825 18.2533C4.85825 18.2533 4.17213 18.2262 3.32351 17.8981C3.32351 17.8981 1.43549 17.2937 0.454668 15.1344C0.454668 15.1344 -0.419876 13.3731 0.256813 11.3156ZM17.2501 18.0702C21.1664 15.4126 28.7429 11.3156 28.7429 11.3156C29.42 13.3731 28.5455 15.1344 28.5455 15.1344C27.5647 17.2936 25.6767 17.898 25.6767 17.898C24.828 18.2261 24.1419 18.2532 24.1419 18.2532C24.0083 18.2784 18.699 18.2717 17.2969 18.2694C17.2497 18.2694 17.2147 18.2361 17.2044 18.1985C17.185 18.1282 17.2213 18.0896 17.2501 18.0702ZM17.4471 18.9384C19.6737 19.0164 26.3708 19.2513 26.3708 19.2513C24.3695 22.713 22.0655 21.9222 22.0655 21.9222C20.8192 21.5689 18.2328 19.7478 17.38 19.1319C17.3261 19.093 17.3389 19.0231 17.3531 18.995C17.371 18.9589 17.4163 18.937 17.4471 18.9384ZM18.0284 0.276283C20.3909 0.854495 20.9737 3.04418 20.9737 3.04418C21.3845 4.19396 20.9595 5.89054 20.9595 5.89054C20.1751 9.39595 16.3137 15.1601 15.467 16.3921C15.4353 16.4377 15.389 16.4553 15.3409 16.4425C15.3102 16.4339 15.2738 16.4097 15.2672 16.3422C13.9837 3.42364 16.6249 0 16.6249 0C17.3479 0.102236 18.0284 0.276283 18.0284 0.276283ZM24.5603 3.87536C24.5603 3.87536 27.0721 6.20109 26.9115 8.7141C26.8379 10.5229 25.4448 11.6503 25.4448 11.6503C23.2159 13.7906 17.9264 16.5338 16.6542 17.1695C16.6018 17.1957 16.5517 17.1795 16.5238 17.1567C16.4832 17.122 16.4903 17.0569 16.5078 17.0179C19.9027 9.55624 24.5603 3.87536 24.5603 3.87536Z" fill="#0792FF"/>
</svg>
