<svg width="76" height="76" viewBox="0 0 76 76" fill="none" xmlns="http://www.w3.org/2000/svg">
<g filter="url(#filter0_d_427_1711)">
<circle cx="38" cy="35" r="28" fill="#8378FE"/>
</g>
<g clip-path="url(#clip0_427_1711)">
<path d="M25.699 48.0665H39.5823C40.0052 48.0665 40.3479 47.7238 40.3479 47.3009V46.4842C40.3479 45.6385 39.6624 44.953 38.8167 44.953V44.0376C38.8167 42.8255 37.8306 41.8394 36.6185 41.8394H28.6628C27.4507 41.8394 26.4646 42.8255 26.4646 44.0376V44.953C25.6188 44.953 24.9333 45.6385 24.9333 46.4842V47.3009C24.9333 47.7236 25.2763 48.0665 25.699 48.0665ZM34.5156 38.7945C35.0245 39.4698 35.9847 39.6048 36.66 39.0957C37.3355 38.5869 37.4703 37.6267 36.9614 36.9512L32.3538 30.8367C31.8447 30.1612 30.8848 30.0264 30.2094 30.5353C29.5339 31.0443 29.3989 32.0043 29.908 32.6798L34.5156 38.7945ZM45.5217 30.5006C46.0307 31.1759 46.9907 31.3109 47.6662 30.8019C48.3415 30.293 48.4765 29.333 47.9675 28.6575L43.3598 22.5431C42.851 21.8676 41.8908 21.7326 41.2154 22.2417C40.5402 22.7507 40.4051 23.7107 40.9142 24.3862L45.5217 30.5006ZM42.1631 34.9488C43.2948 34.096 44.1444 33.0371 44.6757 31.9222L39.3143 24.8075C38.0961 25.011 36.8442 25.5356 35.7123 26.3885C34.5806 27.2413 33.731 28.3002 33.1997 29.415L38.5611 36.5301C39.7793 36.3265 41.0312 35.8017 42.1631 34.9488ZM44.2305 35.1482C43.874 35.5114 43.4985 35.8598 43.0846 36.1718C42.6705 36.4837 42.2321 36.7486 41.7849 36.9913L42.7832 38.3162L45.229 36.4733L44.2305 35.1482ZM46.1505 37.6961L43.7047 39.539L48.3124 45.6536C48.8215 46.3291 49.7814 46.4639 50.4568 45.9551C51.1323 45.446 51.2671 44.486 50.7582 43.8105L46.1505 37.6961Z" fill="white"/>
</g>
<defs>
<filter id="filter0_d_427_1711" x="0.918499" y="0.945666" width="74.163" height="74.163" filterUnits="userSpaceOnUse" color-interpolation-filters="sRGB">
<feFlood flood-opacity="0" result="BackgroundImageFix"/>
<feColorMatrix in="SourceAlpha" type="matrix" values="0 0 0 0 0 0 0 0 0 0 0 0 0 0 0 0 0 0 127 0" result="hardAlpha"/>
<feOffset dy="3.02717"/>
<feGaussianBlur stdDeviation="4.54075"/>
<feComposite in2="hardAlpha" operator="out"/>
<feColorMatrix type="matrix" values="0 0 0 0 0.247059 0 0 0 0 0.627451 0 0 0 0 0.980392 0 0 0 0.25 0"/>
<feBlend mode="normal" in2="BackgroundImageFix" result="effect1_dropShadow_427_1711"/>
<feBlend mode="normal" in="SourceGraphic" in2="effect1_dropShadow_427_1711" result="shape"/>
</filter>
<clipPath id="clip0_427_1711">
<rect width="26.1333" height="26.1333" fill="white" transform="translate(24.9333 21.9329)"/>
</clipPath>
</defs>
</svg>
