<svg width="76" height="76" viewBox="0 0 76 76" fill="none" xmlns="http://www.w3.org/2000/svg">
<g filter="url(#filter0_d_440_50)">
<circle cx="38" cy="35" r="28" fill="#0DCA86"/>
</g>
<g clip-path="url(#clip0_440_50)">
<path d="M46.7112 21.9329H29.289C26.8846 21.9357 24.9362 23.8841 24.9334 26.2885V43.7107C24.9362 46.1151 26.8846 48.0635 29.289 48.0662H46.7112C49.1156 48.0635 51.064 46.1151 51.0667 43.7107V26.2885C51.064 23.8841 49.1156 21.9357 46.7112 21.9329ZM37.6811 37.9473L33.3255 42.3028C32.9005 42.728 32.2112 42.7281 31.786 42.3031L31.7857 42.3028L29.6079 40.125C29.1881 39.6944 29.1969 39.005 29.6275 38.5852C30.0503 38.173 30.7249 38.173 31.1477 38.5852L32.5556 39.9932L36.1413 36.4075C36.5719 35.9877 37.2613 35.9964 37.6811 36.427C38.0934 36.8499 38.0934 37.5244 37.6811 37.9473ZM37.6811 29.2361L33.3255 33.5917C32.9005 34.0169 32.2112 34.017 31.786 33.592L31.7857 33.5917L29.6079 31.4139C29.1774 30.9941 29.1686 30.3047 29.5884 29.8741C30.0082 29.4436 30.6977 29.4348 31.1282 29.8546C31.1348 29.861 31.1413 29.8675 31.1477 29.8741L32.5556 31.2821L36.1413 27.6963C36.5611 27.2657 37.2505 27.257 37.6811 27.6768C38.1117 28.0966 38.1204 28.786 37.7006 29.2166C37.6942 29.2232 37.6877 29.2297 37.6811 29.2361ZM45.6223 41.5329H40.1778C39.5765 41.5329 39.089 41.0454 39.089 40.444C39.089 39.8426 39.5765 39.3551 40.1778 39.3551H45.6223C46.2237 39.3551 46.7112 39.8426 46.7112 40.444C46.7112 41.0454 46.2237 41.5329 45.6223 41.5329ZM45.6223 32.8218H40.1778C39.5765 32.8218 39.089 32.3343 39.089 31.7329C39.089 31.1315 39.5765 30.644 40.1778 30.644H45.6223C46.2237 30.644 46.7112 31.1315 46.7112 31.7329C46.7112 32.3343 46.2237 32.8218 45.6223 32.8218Z" fill="white"/>
</g>
<defs>
<filter id="filter0_d_440_50" x="0.918499" y="0.945666" width="74.163" height="74.163" filterUnits="userSpaceOnUse" color-interpolation-filters="sRGB">
<feFlood flood-opacity="0" result="BackgroundImageFix"/>
<feColorMatrix in="SourceAlpha" type="matrix" values="0 0 0 0 0 0 0 0 0 0 0 0 0 0 0 0 0 0 127 0" result="hardAlpha"/>
<feOffset dy="3.02717"/>
<feGaussianBlur stdDeviation="4.54075"/>
<feComposite in2="hardAlpha" operator="out"/>
<feColorMatrix type="matrix" values="0 0 0 0 0.247059 0 0 0 0 0.627451 0 0 0 0 0.980392 0 0 0 0.25 0"/>
<feBlend mode="normal" in2="BackgroundImageFix" result="effect1_dropShadow_440_50"/>
<feBlend mode="normal" in="SourceGraphic" in2="effect1_dropShadow_440_50" result="shape"/>
</filter>
<clipPath id="clip0_440_50">
<rect width="26.1333" height="26.1333" fill="white" transform="translate(24.9334 21.9329)"/>
</clipPath>
</defs>
</svg>
